<svg width="10" height="11" viewBox="0 0 10 11" fill="none" xmlns="http://www.w3.org/2000/svg">
<path d="M6.25 3.625C6.25 3.54212 6.28292 3.46263 6.34153 3.40403C6.40013 3.34542 6.47962 3.3125 6.5625 3.3125H9.0625C9.14538 3.3125 9.22487 3.34542 9.28347 3.40403C9.34208 3.46263 9.375 3.54212 9.375 3.625C9.375 3.70788 9.34208 3.78737 9.28347 3.84597C9.22487 3.90458 9.14538 3.9375 9.0625 3.9375H6.5625C6.47962 3.9375 6.40013 3.90458 6.34153 3.84597C6.28292 3.78737 6.25 3.70788 6.25 3.625ZM5.3125 6.67188C5.3125 7.107 5.13965 7.5243 4.83197 7.83197C4.5243 8.13965 4.107 8.3125 3.67188 8.3125H1.25C1.16712 8.3125 1.08763 8.27958 1.02903 8.22097C0.970424 8.16237 0.9375 8.08288 0.9375 8V3C0.9375 2.91712 0.970424 2.83763 1.02903 2.77903C1.08763 2.72042 1.16712 2.6875 1.25 2.6875H3.51562C3.81451 2.68782 4.10634 2.77836 4.35291 2.94726C4.59949 3.11617 4.78934 3.35559 4.89761 3.63417C5.00588 3.91276 5.02752 4.21754 4.95972 4.50863C4.89191 4.79972 4.73781 5.06356 4.51758 5.26562C4.76013 5.41154 4.96081 5.61772 5.10011 5.86414C5.2394 6.11055 5.31257 6.38881 5.3125 6.67188ZM1.5625 5.03125H3.51562C3.74355 5.03125 3.96213 4.94071 4.12329 4.77954C4.28446 4.61838 4.375 4.3998 4.375 4.17188C4.375 3.94395 4.28446 3.72537 4.12329 3.56421C3.96213 3.40304 3.74355 3.3125 3.51562 3.3125H1.5625V5.03125ZM4.6875 6.67188C4.6875 6.5385 4.66123 6.40643 4.61019 6.28321C4.55915 6.15999 4.48434 6.04803 4.39003 5.95372C4.29572 5.85941 4.18376 5.7846 4.06054 5.73356C3.93732 5.68252 3.80525 5.65625 3.67188 5.65625H1.5625V7.6875H3.67188C3.80525 7.6875 3.93732 7.66123 4.06054 7.61019C4.18376 7.55915 4.29572 7.48434 4.39003 7.39003C4.48434 7.29572 4.55915 7.18376 4.61019 7.06054C4.66123 6.93732 4.6875 6.80525 4.6875 6.67188ZM9.6875 6.4375C9.6875 6.52038 9.65458 6.59987 9.59597 6.65847C9.53737 6.71708 9.45788 6.75 9.375 6.75H6.60156C6.66039 6.97802 6.78243 7.18479 6.95364 7.34649C7.12484 7.50819 7.33824 7.61823 7.56925 7.66395C7.80025 7.70967 8.03948 7.68921 8.25937 7.60491C8.47926 7.52062 8.67086 7.37593 8.81211 7.1875C8.83676 7.15467 8.86763 7.12702 8.90297 7.10612C8.9383 7.08522 8.97741 7.07148 9.01805 7.0657C9.0587 7.05991 9.10008 7.06219 9.13985 7.0724C9.17961 7.08261 9.21697 7.10055 9.2498 7.1252C9.28263 7.14984 9.31029 7.18072 9.33119 7.21605C9.35209 7.25139 9.36582 7.2905 9.37161 7.33114C9.37739 7.37178 9.37512 7.41317 9.36491 7.45293C9.3547 7.4927 9.33676 7.53006 9.31211 7.56289C9.04487 7.91896 8.65965 8.16831 8.22538 8.26635C7.79111 8.36438 7.33613 8.30469 6.94184 8.09796C6.54755 7.89124 6.23968 7.55096 6.07332 7.13801C5.90697 6.72506 5.89297 6.26639 6.03384 5.84407C6.17471 5.42175 6.46126 5.06333 6.84221 4.83295C7.22316 4.60257 7.67366 4.51525 8.1131 4.58662C8.55254 4.658 8.95224 4.8834 9.2407 5.22251C9.52915 5.56162 9.68753 5.9923 9.6875 6.4375ZM9.02344 6.125C8.95459 5.85612 8.79822 5.6178 8.57897 5.44761C8.35971 5.27742 8.09005 5.18505 7.8125 5.18505C7.53495 5.18505 7.26529 5.27742 7.04603 5.44761C6.82678 5.6178 6.67041 5.85612 6.60156 6.125H9.02344Z" fill="black"/>
</svg>
