<svg width="10" height="11" viewBox="0 0 10 11" fill="none" xmlns="http://www.w3.org/2000/svg">
<path d="M7.75 2.5C8.08152 2.5 8.39946 2.6317 8.63388 2.86612C8.8683 3.10054 9 3.41848 9 3.75V7.75C9 8.08152 8.8683 8.39946 8.63388 8.63388C8.39946 8.8683 8.08152 9 7.75 9H2.25C1.91848 9 1.60054 8.8683 1.36612 8.63388C1.1317 8.39946 1 8.08152 1 7.75V3.75C1 3.41848 1.1317 3.10054 1.36612 2.86612C1.60054 2.6317 1.91848 2.5 2.25 2.5H7.75ZM8.5 4.4805L5.127 6.4655C5.09511 6.48422 5.05947 6.49564 5.02263 6.49892C4.9858 6.50221 4.9487 6.49728 4.914 6.4845L4.873 6.4655L1.5 4.4815V7.75C1.5 7.94891 1.57902 8.13968 1.71967 8.28033C1.86032 8.42098 2.05109 8.5 2.25 8.5H7.75C7.94891 8.5 8.13968 8.42098 8.28033 8.28033C8.42098 8.13968 8.5 7.94891 8.5 7.75V4.4805ZM7.75 3H2.25C2.05109 3 1.86032 3.07902 1.71967 3.21967C1.57902 3.36032 1.5 3.55109 1.5 3.75V3.901L5 5.96L8.5 3.9V3.75C8.5 3.55109 8.42098 3.36032 8.28033 3.21967C8.13968 3.07902 7.94891 3 7.75 3Z" fill="black"/>
</svg>
