<svg width="10" height="9" viewBox="0 0 10 9" fill="none" xmlns="http://www.w3.org/2000/svg">
<g clip-path="url(#clip0_583_148)">
<path d="M4.93039 0.555665C3.899 0.555665 2.90984 0.965385 2.18053 1.69469C1.45122 2.424 1.0415 3.41316 1.0415 4.44455C1.0415 4.56955 1.0415 4.69178 1.06095 4.814C1.13253 5.56407 1.42047 6.27719 1.88976 6.86668C2.35905 7.45617 2.98949 7.89663 3.70442 8.13453C4.41936 8.37242 5.18801 8.3975 5.91694 8.20671C6.64587 8.01593 7.30367 7.61749 7.81039 7.05985C8.31711 6.5022 8.65092 5.80936 8.77124 5.06555C8.89156 4.32174 8.7932 3.559 8.48814 2.87004C8.18307 2.18108 7.68443 1.59557 7.05283 1.18471C6.42123 0.773841 5.68387 0.555305 4.93039 0.555665ZM4.93039 1.11122C5.80871 1.11198 6.65123 1.45937 7.27484 2.07789V2.35566C6.17694 1.97784 4.98349 1.98273 3.88873 2.36955C3.80127 2.28433 3.69149 2.22559 3.57206 2.20011H3.50261C3.46928 2.08344 3.43873 1.96678 3.41373 1.84733C3.38873 1.72789 3.37484 1.62233 3.36095 1.50844C3.84317 1.24821 4.38244 1.11172 4.93039 1.11122ZM4.09706 2.74178C5.10586 2.40396 6.19917 2.41668 7.19984 2.77789C7.06449 3.48361 6.76894 4.14884 6.33595 4.72233C6.21484 4.67104 6.08077 4.65873 5.95234 4.6871C5.82392 4.71548 5.70751 4.78313 5.61928 4.88066C5.52206 4.82511 5.42484 4.76955 5.3415 4.70566C4.78076 4.33153 4.31246 3.83473 3.97206 3.25289C4.02708 3.18467 4.06713 3.10564 4.08962 3.02094C4.11211 2.93623 4.11654 2.84775 4.10262 2.76122L4.09706 2.74178ZM2.98595 1.74178C2.98595 1.80011 3.00262 1.86122 3.01373 1.91955C3.03873 2.04178 3.07206 2.16122 3.10539 2.28066C2.99902 2.34365 2.91341 2.43639 2.85912 2.54745C2.80482 2.65851 2.78421 2.78303 2.79984 2.90566C2.36137 3.192 1.96972 3.54429 1.63873 3.95011C1.70514 3.5106 1.85879 3.08881 2.09063 2.70956C2.32248 2.33031 2.62783 2.00126 2.98873 1.74178H2.98595ZM2.98595 6.10566C2.87751 6.14207 2.7806 6.20644 2.705 6.29228C2.62941 6.37812 2.5778 6.48239 2.55539 6.59455H2.37762C1.92902 6.05951 1.66073 5.39655 1.61095 4.70011L1.6415 4.64733C1.98934 4.10798 2.44408 3.64568 2.97762 3.289C3.05761 3.37254 3.1587 3.43291 3.27018 3.46371C3.38167 3.49452 3.49941 3.49462 3.61095 3.464C3.98249 4.09187 4.49037 4.62823 5.09706 5.03344C5.21095 5.10844 5.32762 5.17789 5.44428 5.24455C5.43495 5.3508 5.45213 5.4577 5.49428 5.55566C4.98594 5.95933 4.39957 6.25346 3.77206 6.41955C3.69929 6.28359 3.58055 6.17793 3.43705 6.12144C3.29355 6.06496 3.13465 6.06134 2.98873 6.11122L2.98595 6.10566ZM4.93039 7.77233C4.36546 7.77248 3.80988 7.62809 3.3165 7.35289L3.39428 7.33622C3.50482 7.29995 3.60359 7.23468 3.68031 7.14722C3.75702 7.05976 3.80885 6.95332 3.83039 6.839C4.54067 6.65786 5.20377 6.32632 5.77484 5.86678C5.91049 5.94605 6.07068 5.97232 6.22454 5.94052C6.37841 5.90872 6.51506 5.82111 6.60817 5.69455C7.00008 5.79644 7.40324 5.8487 7.80817 5.85011H7.95539C7.68741 6.42638 7.26027 6.91403 6.72431 7.25559C6.18836 7.59714 5.56593 7.77836 4.93039 7.77789V7.77233ZM6.73873 5.30011C6.73846 5.18368 6.70679 5.06949 6.64706 4.96955C7.10934 4.3657 7.43105 3.6663 7.58873 2.92233C7.72762 2.98715 7.86465 3.05937 7.99984 3.139C8.30535 3.86092 8.34666 4.66742 8.1165 5.41678C7.65533 5.45244 7.19141 5.41588 6.7415 5.30844L6.73873 5.30011Z" fill="black"/>
</g>
<defs>
<clipPath id="clip0_583_148">
<rect width="10" height="9" fill="white"/>
</clipPath>
</defs>
</svg>
