<svg xmlns="http://www.w3.org/2000/svg" width="679" height="417" fill="none" xmlns:v="https://vecta.io/nano"><g clip-path="url(#A)"><g fill="#fff"><path d="M364.21 39.053a177.17 177.17 0 0 1 3.136 12.006c1.862 8.34 3.647 17.291 5.354 26.853.133.741-.171 1.18-.912 1.316l-.133.024c-.589.111-.971-.12-1.145-.694-2.826-9.356-5.347-18.39-7.564-27.1-.918-3.614-1.718-7.372-2.399-11.274-.159-.909.122-1.65.841-2.224 1.092-.884 2.48-.062 2.822 1.093zm40.588 2.565c-4.252 11.388-8.78 22.872-13.692 33.647-.452.993-1.649 1.43-2.594.651-.71-.583-.917-1.31-.623-2.181 3.656-10.779 7.829-21.818 12.519-33.119 1.193-2.87 5.388-1.663 4.39 1.003zm-54.1 40.803c-11.181-6.113-21.206-13.045-30.074-20.795a69.94 69.94 0 0 1-4.191-3.958c-1.81-1.858 1.273-4.699 3.483-2.699 10.135 9.188 20.988 17.325 32.558 24.411 1.022.627 1.354 1.853.414 2.751-.659.633-1.389.73-2.19.29zM18.834 356.36c.386-.941.256-1.017-.39-.228-1.273 1.552-2.39 3.411-3.349 5.578-5.993 13.53-9.917 27.845-11.773 42.944-2.005 16.344-2.566 32.63-2.827 49.187L.3 463.329-2.294 564.004c0 .117-.059.174-.176.171l-1.839-.067c-.038 0-.055-.017-.052-.052l3.226-124.24c.641-24.382 2.665-48.759 11.593-71.042 1.505-3.753 3.083-7.147 4.737-10.181 1.273-2.328 2.908-4.993 5.749-5.535 1.896-.361 3.368-1.273 5.354-.447.036.016.074.023.113.023s.077-.008.113-.024a.28.28 0 0 0 .094-.066.29.29 0 0 0 .06-.099c8.048-21.395 15.262-43.434 21.641-66.115l9.269-33.547c1.381-5.103 3.4-11.398 6.058-18.886 9.227-25.969 22.183-50.427 42.356-68.652l5.501-4.984a4.22 4.22 0 0 0 .822-1.012l11.441-19.664c1.739-3 4.041-5.407 6.908-7.222l14.78-9.397c.624-.399 1.167-.925 1.63-1.578 4.482-6.35 8.651-12.897 12.509-19.64 1.934-3.383 5.274-5.455 9.122-3.383 3.54 1.9 4.97 5.606 4.756 9.502-.002.028.005.057.018.082s.033.046.058.061.052.022.081.022.056-.008.081-.023l22.629-14.005c3.045-1.872 6.903-2.124 9.948-.204 4.01 2.537 4.357 7.084 2.951 11.365-.083.25-.005.32.232.209 5.208-2.457 10.191-4.813 15.779-5.626 4.732-.689 8.599 1.967 8.114 7.07-.375 3.962-3.468 7.535-6.651 10.048-.014.013-.024.029-.029.048a.09.09 0 0 0 .002.054c.006.018.018.032.033.042s.033.015.051.013l113.83-4.399c17.712-.203 35.956.131 54.732 1.002.282.013.321-.081.118-.28-2.769-2.737-6.033-5.682-7.896-9.136-1.558-2.889-1.743-6.595.632-9.032 2.433-2.494 6.191-1.596 9.127-.499 3.326 1.245 6.561 2.822 9.706 4.732.184.111.239.065.166-.138-1.354-3.825.191-7.526 2.585-10.875 3.739-5.226 11.925-.257 15.275 2.993 3.332 3.231 6.906 6.064 10.723 8.5l9.293 6.005c.031.02.065.033.102.039a.25.25 0 0 0 .109-.007c.036-.01.068-.027.096-.051s.052-.052.068-.085a9.76 9.76 0 0 1 2.081-2.917c3.905-3.735 8.029-1.758 11.336 1.358 3.386 3.193 7.258 7.174 11.616 11.944l18.011 19.214c7.664 7.858 15.911 14.495 25.043 20.315l23.807 15.332c5.345 3.487 10.828 8.466 13.531 14.158 2.941 6.195 6.818 11.92 11.407 17.16 6.357 7.265 13.075 14.192 18.952 22.382 2.281 3.174 5.041 7.656 8.281 13.446l15.731 28.335c2.822 5.118 5.636 10.9 8.443 17.346 1.715 3.939 4.361 7.355 7.673 10.367 3.658 3.321 5.615 6.784 7.04 11.473.014.043.036.083.065.117s.066.062.107.081.085.03.13.031.089-.007.131-.024c3.663-1.521 8.723-2.29 10.922 1.962.556 1.069.832 2.29 1.35 3.416 11.545 25.09 18.937 51.411 24.349 79.047 11.255 57.469 14.015 116.462 26.838 173.465.051.231-.041.349-.275.352l-1.601.028c-.228.003-.369-.104-.423-.323-1.679-6.905-3.031-13.043-4.058-18.415-3.408-17.876-6.298-36.562-8.67-56.057l-4.823-40.241c-2.213-18.802-4.823-36.783-7.829-53.943-2.563-14.615-6.009-29.457-10.338-44.527-3.744-13.024-8.395-25.8-13.954-38.327-.108-.24-.227-.247-.356-.019-.561.976-1.297 1.917-2.21 2.822-3.012 2.989-6.504 5.749-9.749 8.7-10.058 9.131-19.227 17.536-29.451 25.988-8.281 6.841-15.617 11.982-24.62 16.776-4.96 2.641-14.32 7.14-19.375 2.788-.041-.034-.089-.058-.142-.069a.32.32 0 0 0-.157.007c-.052.016-.098.044-.135.082a.32.32 0 0 0-.079.137c-.079.276-.086.555-.019.836l8.134 35.448c8.889 39.11 16.329 77.285 20.491 116.614 1.409 13.353 2.402 27.13 2.979 41.329.009.25-.111.375-.361.375l-1.293.01c-.281 0-.427-.14-.437-.418-1.444-39.363-6.889-78.079-14.614-117.317l-16.372-77.323a3.07 3.07 0 0 1 .076-1.587c1.758-5.668 4.618-10.552 9.64-13.849.089-.057.116-.135.081-.233l-5.378-15.598c-1.432-4.159-2.944-7.98-4.538-11.464-1.891-4.121-4.698-8.251-8.423-12.391-7.245-8.053-14.5-15.35-24.43-19.403-5.369-2.19-10.172-4.319-14.419-8.509-1.972-1.948-3.982-4-6.238-5.773-5.203-4.095-10.719-6.898-17.09-10.262-12.134-6.409-24.344-12.267-37.78-14.129-5.212-.718-9.602-1.806-14.538-3.773-3.218-1.282-6.903-1.886-11.056-1.81l-12.039.352a34.28 34.28 0 0 1-10.21-1.155c-1.571-.421-2.876-1.085-3.915-1.99-2.385-2.072-1.43-4.604-.028-6.894a31.64 31.64 0 0 1 7.031-8.053c.187-.152.16-.223-.08-.214l-32.645 1.658c-8.4.518-19.712.604-29.765.95l-82.502 1.635c-1.962.028-3.867.252-5.767.342-.602.028-.618.139-.048.332 4.841 1.625 8.842 4.067 11.265 8.4 1.302 2.323 1.815 5.621.347 8.025-1.905 3.121-5.844 3.763-9.184 3.649-6.268-.213-13.62.457-22.054 2.009l-33.324 6.31a38.07 38.07 0 0 0-14.871 6.347c-3.72 2.632-7.112 5.483-10.604 8.595-5.549 4.95-11.315 9.212-17.299 12.785l-15.649 9.535c-6.744 4.187-12.649 8.998-17.717 14.433-9.654 10.353-17.066 23.651-19.964 37.643a44.18 44.18 0 0 1-1.321 4.927 35.62 35.62 0 0 0-1.245 4.812l-2.342 13.973a.34.34 0 0 0 .185.352c1.425.689 2.627 1.781 3.848 2.836 3.121 2.684 7.274 7.046 6.157 11.255-.168.637-.201 1.289-.099 1.958.798 5.356.766 10.675-.095 15.958-1.47 8.986-2.728 17.847-3.773 26.582-2.961 24.766-4.367 49.435-4.219 74.007.108 17.338 1.302 34.779 3.583 52.323.009.089-.03.133-.119.133l-1.672.034a.08.08 0 0 1-.095-.081c-2.632-19.784-3.831-39.863-3.597-60.239.291-25.294 1.94-49.157 4.946-71.588.75-5.6 1.666-11.26 2.746-16.98 1.131-5.986 1.767-12.529.998-18.605-.038-.298-.162-.339-.371-.124-1.796 1.834-4.23 2.826-7.302 2.974-9.046.442-18.13-2.394-26.487-6.086-15.256-6.737-28.425-14.229-40.878-24.657-2.599-2.176-11.051-8.505-9.44-12.429z"/></g><g fill="#0c0e1c"><path d="M440.874 117.212a.55.55 0 0 0-.271-.708c-.073-.038-.149-.066-.228-.085-.459-.124-.793.027-1.002.451l-2.039 4.138c-.091.186-.245.334-.436.416a.88.88 0 0 1-.604.036c-5.502-1.673-9.949-5.122-14.709-8.49-1.188-.843-2.27-1.788-3.245-2.837-2.768-2.977-5.489-6.018-8.162-9.122-1.72-1.995-2.419-4.062-1.706-6.613.556-1.967 1.667-4.114 3.026-5.625.9-1.007 2.271-1.318 4.115-.931 2.987.627 5.767 2.17 8.342 4.628 2.827 2.699 5.683 5.183 9.013 7.388l10.699 6.941c.164.103.302.243.404.407a1.27 1.27 0 0 1 .181.543c.12 1.372.294 2.768.522 4.191 1.492 9.345 7.835 17.099 15.978 21.631 1.563.869 2.984 1.896 3.834 3.487l1.777 3.278c.124.222.059.32-.195.295-.544-.057-.894.187-1.05.732-.253.887-.757 1.564-1.51 2.033-.213.133-.428.14-.647.019-6.04-3.367-10.691-6.45-13.953-9.25-3.326-2.851-7.083-6.443-11.27-10.775-.13-.133-.138-.273-.024-.419 1.15-1.495 2.203-3.414 3.16-5.758zm-263.173 3.677l-.218.11c-.38.19-.463.47-.247.841a20.37 20.37 0 0 0 4.138 5.026c.019.018.034.04.044.064s.013.051.011.077a.17.17 0 0 1-.024.074c-.014.023-.033.042-.055.056-7.38 4.599-14.484 9.215-21.313 13.849-.367.25-.442.182-.223-.204 1.686-3.017 3.568-5.868 5.074-9.008l5.615-12.158c1.451-3.259 2.561-6.436 3.331-9.531.07-.281.228-.498.475-.65l22.81-14.087c2.372-1.463 4.727-1.756 7.065-.879 2.541.96 4.147 3.174 4.271 5.858.337 7.259-6.756 13.526-12.277 17.175l-13.127 8.485c-.117.073-.228.065-.333-.024-1.609-1.374-2.991-2.985-4.147-4.831-.216-.346-.505-.426-.87-.243zm217.52-25.28c4.257 1.344 8.457 3.478 12.11 5.763a2.3 2.3 0 0 1 .736.727c2.873 4.419 6.46 8.273 10.762 11.564.367.282.327.361-.119.238-2.936-.799-6.196-1.152-9.778-1.06-3.946.105-7.383.347-10.31.727-.487.067-.899-.07-1.235-.409a283.11 283.11 0 0 1-5.739-5.9c-2.233-2.362-4.495-5.892-3.464-9.141 1.055-3.326 4.167-3.416 7.037-2.508zm-263.99 82.55a1.32 1.32 0 0 1-.124-.49c-.006-.126.033-.237.119-.332 5.879-6.405 12.05-13.452 18.515-21.142 2.828-3.364 5.28-6.732 7.354-10.106.271-.437.851-.845 1.293-1.097 13.25-7.502 25.08-14.738 36.407-23.779.24-.19.442-.155.603.104l.39.632a.47.47 0 0 1 .066.172c.011.061.009.124-.005.184a.46.46 0 0 1-.209.295c-4.451 2.789-7.026 7.854-7.896 13.004a1.15 1.15 0 0 1-.171.442c-.088.134-.202.249-.337.337-2.746 1.791-5.825 3.093-8.462 4.884a37.37 37.37 0 0 0-7.544 6.742c-.044.05-.103.085-.168.099a.3.3 0 0 1-.189-.023c-1.568-.735-2.841-1.725-3.819-2.97a.53.53 0 0 0-.156-.13c-.06-.032-.126-.052-.195-.058a.52.52 0 0 0-.203.022c-.065.021-.126.055-.178.1l-.176.152c-.339.294-.386.629-.142 1.002.95 1.44 2.484 2.423 4.028 3.155.178.086.221.215.129.39-3.915 7.44-8.825 14.25-14.728 20.429-.127.13-.271.157-.433.081a17.77 17.77 0 0 1-3.782-2.447.66.66 0 0 0-.306-.144c-.112-.021-.228-.012-.335.025-.225.079-.391.206-.499.38-.203.327-.161.62.124.879 1.089.992 2.356 1.817 3.8 2.476.219.098.251.239.095.422-1.42 1.668-2.793 3.416-3.81 5.341-.45.848-.996 1.661-1.639 2.437-.481.576-.608 1.188-.38 1.834.063.187.19.309.38.366 2.428.731 2.68-1.863 3.801-3.108 7.682-8.532 13.664-17.075 19.688-26.8 1.777-2.865 4.257-5.972 7.032-7.972 2.334-1.679 4.945-3.098 7.834-4.257.187-.073.279-.008.276.195a75.93 75.93 0 0 0 .532 11.207c.575 4.751.399 9.754.408 14.633a.6.6 0 0 1-.237.494l-3.24 2.609c-.07.057-.155.09-.246.095a.44.44 0 0 1-.258-.067c-1.767-1.102-3.962-2.964-4.461-5.05a.62.62 0 0 0-.099-.217.63.63 0 0 0-.176-.161.61.61 0 0 0-.224-.081c-.079-.012-.16-.007-.238.012-.259.064-.468.243-.627.537-.051.094-.083.196-.095.301a.8.8 0 0 0 .029.312c.67 2.209 2.907 4.248 4.76 5.435.025.016.046.038.062.063s.024.055.025.085a.19.19 0 0 1-.015.088c-.012.028-.03.053-.053.073-6.977 5.999-12.759 12.514-17.346 19.546-.158.241-.313.239-.465-.005-1.24-2-3.174-3.506-5.379-4.323-.612-.228-1.401-.376-1.81.299-.193.317-.225.648-.095.993a.41.41 0 0 0 .428.294c.646-.014 1.249-.076 1.853.233 1.723.874 3.112 2.232 4.166 4.072a.58.58 0 0 1-.009.622c-6.21 10.253-8.918 22.192-5.502 33.728.007.025.007.053.001.078a.15.15 0 0 1-.039.068.14.14 0 0 1-.066.037c-.026.007-.052.005-.076-.003-1.578-.472-3.218-.587-4.922-.346a.72.72 0 0 0-.457.252c-.116.138-.177.314-.17.493a1.03 1.03 0 0 0 .085.395c.101.244.284.35.546.318 1.872-.225 3.697.334 5.474 1.677 2.788 2.114 5.311 4.39 8.528 5.929 9.858 4.718 20.462 5.977 31.152 5.811 1.958-.032 5.12-.214 9.488-.546l29.347-2.077c6.989-.456 14.871 1.15 19.427 6.942 2.366 3.012 3.554 7.972-.599 10.081-1.796.917-3.957 1.012-5.981 1.003-6.943-.048-13.735.534-20.377 1.743l-35.172 6.642c-6.031 1.198-11.425 3.572-16.182 7.122-2.566 1.916-5.117 3.97-7.654 6.162l-7.217 6.21c-7.773 6.076-16.187 10.927-24.677 15.959a106.67 106.67 0 0 0-19.522 14.837c-.424.409-.997.584-1.72.527-3.895-.304-6-1.734-8.58-4.185-.253-.244-.508-.246-.765-.005l-.09.085a.79.79 0 0 0-.249.542c-.009.206.064.407.201.561 2.512 2.793 5.577 4.284 9.194 4.47.017.001.034.006.048.016s.025.024.032.04.008.035.005.053-.012.035-.024.048c-8.083 8.79-14.006 18.748-17.768 29.875-2.001 5.919-3.402 12.485-4.913 18.814-2.461 10.309-4.057 20.838-4.789 31.585-.019.259-.157.373-.413.342-5.449-.685-10.69-2.067-15.731-4.044-17.759-6.974-33.823-16.015-48.27-28.667a13.77 13.77 0 0 1-1.04-1.017.32.32 0 0 1-.033-.428c.898-1.387.751-2.94 1.273-4.465l2.613-7.688c8.976-24.309 16.659-48.229 23.047-71.759 4.39-16.149 8.433-31.946 14.443-48.304 9.184-25.004 22.382-48.622 42.674-66.3 4.609-4.02 9.887-8.818 13.431-12.263a221.07 221.07 0 0 0 38.346-49.653c1.477-2.603 3.915-4.651 7.041-3.012 2.166 1.14 3.592 3.183 3.886 5.625.336 2.788.092 5.1-.731 6.937-1.59 3.535-3.096 7.175-4.519 10.922-1.634 4.314-3.724 8.552-6.143 12.477-.171.275-.396.329-.674.161-1.188-.728-2.178-1.663-2.97-2.803-.24-.345-.557-.442-.95-.29-.222.086-.372.277-.451.575-.024.092-.028.189-.01.283s.054.184.109.263c.951 1.372 2.091 2.444 3.421 3.217a.28.28 0 0 1 .124.408 23.79 23.79 0 0 1-2.737 4.362c-.617.779-.38 1.535-.827 2.276-3.341 5.486-7.341 10.867-12.001 16.144-.06.067-.139.116-.227.138a.46.46 0 0 1-.267-.01 30.32 30.32 0 0 1-6.594-3.169.57.57 0 0 0-.443-.077.58.58 0 0 0-.209.094.57.57 0 0 0-.156.168l-.138.224c-.209.338-.15.622.176.85 1.777 1.257 3.844 2.293 6.2 3.107.263.092.306.244.129.456-4.641 5.54-9.607 10.875-14.9 16.007-.042.041-.072.092-.089.149a.33.33 0 0 0-.002.174c.014.057.044.11.085.152s.092.074.149.09c1.295.348 2.605.351 3.929.009.238-.06.302-.202.195-.427zm79.736-71.855c4.148-1.758 17.199-8.452 20.145-3.012 2.575 4.765-2.119 9.901-5.882 12.856-.95.746-1.654 1.083-2.884 1.121l-12.358.48c-1.99.095-4.779-.19-6.366.242a13.53 13.53 0 0 0-5.991 3.426c-.184.177-.342.156-.475-.062l-.632-1.05a.45.45 0 0 1 .119-.656 98.03 98.03 0 0 0 12.524-12.02c.519-.592 1.119-1.034 1.8-1.325zm235.262 54.338c-.117.966-.717 1.846-1.8 2.641-.276.203-.52.17-.732-.099-3.221-4.08-6.872-7.361-10.951-9.845-.125-.075-.231-.178-.307-.302a.92.92 0 0 1-.135-.41l-1.112-13.056c-.022-.279.097-.366.357-.261.43.171.915.394 1.453.67 6.915 3.509 13.416 8.163 19.503 13.963 1.476 1.406 2.911 2.991 4.305 4.756 1.387 1.757 2.993 3.446 4.817 5.064 2.342 2.072 4.509 4.433 6.637 6.789 1.877 2.077 4.219 5.521 4.025 8.286-.07.966.033 1.932.308 2.898a.5.5 0 0 0 .129.221c.062.061.138.105.222.127a.49.49 0 0 0 .255-.001.5.5 0 0 0 .221-.128c.717-.713 1.596-1.273 1.81-2.342.813-4.001-1.178-7.597-4.281-10.182-1.539-1.283-3.045-2.475-4.375-4.019-3.63-4.206-7.317-8.148-11.061-11.826-1.677-1.648-3.145-3.506-4.713-5.159-.145-.152-.147-.307-.004-.466 1.086-1.21 1.9-2.542 2.442-3.995.275-.735.022-1.074-.76-1.017-.165.013-.332.033-.499.062-.669.107-1.069.494-1.202 1.159-.203.991-.634 1.91-1.293 2.756-.123.155-.269.18-.437.076-4.632-2.875-9.364-6.338-14.576-8.928-1.297-.646-1.981-1.834-3.169-2.565a.44.44 0 0 1-.223-.39c-.052-4.466-.589-8.979-2.466-12.951-.152-.32-.073-.396.238-.228 1.352.725 2.845 1.303 4.48 1.734.955.252 2.057.964 2.77 1.649 3.815 3.672 7.986 7.145 12.034 10.813 4.409 3.997 9.149 7.475 14.22 10.433 2.955 1.72 5.872 6.091 7.977 9.027 3.259 4.536 7.651 7.521 13.174 8.956 1.497.389 2.599 1.292 3.944 1.943a.55.55 0 0 0 .307.053.56.56 0 0 0 .287-.124c.456-.387.413-.851-.129-1.392-.02-.02-.036-.045-.044-.073s-.01-.057-.005-.085.019-.056.037-.079a.18.18 0 0 1 .069-.053l.205-.09c.028-.013.054-.007.076.019 3.896 4.979 8.675 10.195 14.78 12.086.459.14.805 0 1.036-.418a.61.61 0 0 0 .066-.218.7.7 0 0 0-.503-.794c-1.164-.437-2.357-.788-3.459-1.43-2.531-1.47-4.767-3.322-6.708-5.559l-6.97-7.967c-.146-.168-.114-.29.095-.366 1.853-.698 2.984-2.865 3.772-4.613a.79.79 0 0 0 .071-.371c-.019-.532-.14-.822-.365-.869s-.465-.008-.677.116-.385.32-.487.558c-.718 1.659-2.414 5.07-4.595 3.397-5.943-4.57-12.2-9.787-14.676-16.414a54.73 54.73 0 0 0-3.378-7.374c-.098-.177-.074-.336.072-.475.997-.941 1.843-2.094 2.537-3.459.222-.443.145-.826-.228-1.15-.155-.133-.366-.161-.632-.085-.071.021-.137.056-.194.102s-.104.104-.139.169c-.659 1.188-1.398 2.236-2.218 3.145a.45.45 0 0 1-.623.047c-1.962-1.639-4.494-2.323-6.537-3.9-6.351-4.891-10.204-11.19-11.559-18.9-.118-.659-.097-1.271.061-1.838.181-.661-.161-1.321.138-1.882 2.547-4.822 6.756-4.765 10.386-1.283 3.905 3.74 7.725 7.593 11.317 11.541l17.925 19.175c8.023 8.358 16.832 15.545 26.426 21.56l22.201 14.258c3.608 2.328 6.769 4.863 9.483 7.606 2.105 2.124 3.696 4.556 5.079 7.369 3.057 6.224 7.016 12.085 11.878 17.584 6.893 7.801 14.267 15.284 19.773 23.722 2.553 3.905 5.488 8.849 8.804 14.832l14.971 27.186c2.179 3.978 4.323 8.401 6.432 13.269 1.716 3.967 3.844 7.749 6.956 10.633 1.891 1.752 3.411 3.327 4.561 4.727 1.625 1.98 2.895 4.61 3.81 7.892a146.07 146.07 0 0 0 3.882 11.906c.06.161.027.299-.1.413l-26.701 23.945c-10.975 9.802-21.978 18.415-35.034 24.34-.247.111-.423.041-.527-.209-.965-2.333-1.991-4.656-2.637-7.151-.812-3.149-1.563-6.394-2.675-9.483l-7.478-20.044c-2.657-6.933-6.387-12.815-11.189-17.645-.161-.165-.128-.257.1-.276 4.358-.393 7.383-2.651 9.075-6.775.085-.208.114-.435.084-.658s-.118-.433-.255-.61c-.076-.099-.178-.172-.305-.219a.49.49 0 0 0-.598.219c-.646 1.154-1.031 2.427-1.92 3.425-2.223 2.499-4.233 2.779-7.183 3.368-.165.032-.306-.014-.423-.137-6.091-6.685-12.828-13.094-21.142-16.748-5.079-2.233-10.557-4.138-14.453-7.863l-5.216-4.945c-2.468-2.325-5.518-4.541-9.151-6.647-8.406-4.878-16.989-9.292-25.75-13.241-7.136-3.221-14.809-5.673-22.572-6.766-2.382-.335-4.604-.727-6.666-1.173-2.106-.456-4.582-1.247-7.426-2.371-3.851-1.523-7.926-2.25-12.224-2.181-6.471.11-13.127 1.003-19.451-.128-2.148-.385-4.837-1.093-6.219-2.808-.917-1.131-.109-2.855.551-3.962 3.406-5.72 8.69-10.4 14.98-12.681a8.83 8.83 0 0 1 2.475-.508l15.08-1.155c3.497-.313 7.041.214 10.533.404.19.01.333.095.428.257.551.953 1.037 1.932 1.458 2.936.637 1.52.48 3.007.124 4.561-.023.097-.02.198.009.294s.081.182.153.251a.57.57 0 0 0 .257.142.56.56 0 0 0 .293-.003l1.297-.361a.82.82 0 0 0 .647-.741c.307-2.224.08-4.477-.68-6.761-.01-.029-.012-.06-.006-.091a.18.18 0 0 1 .038-.083c.02-.024.044-.043.073-.055s.059-.016.09-.013c3.582.385 7.274.408 10.68 1.074 3.739.731 7.645 1.311 11.474 1.145l5.492-.176c2.38-.052 4.457-.627 6.504-1.848.072-.044.155-.064.239-.056a.4.4 0 0 1 .227.098c2.865 2.58 4.48 6.058 3.653 9.916a.78.78 0 0 0 .053.494c.345.735.795.785 1.349.152a.83.83 0 0 0 .195-.432c.31-2.278.361-4.427.152-6.448-.204-1.952-1.254-3.786-2.932-4.86-.202-.13-.21-.269-.023-.418 1.732-1.381 2.484-3.178 2.256-5.392-.152-1.483-.204-3.065-.736-4.471-2.629-6.987-6.149-13.792-10.561-20.415-4.267-6.405-7.469-11.008-9.607-13.811l-13.393-17.275a.27.27 0 0 1 .005-.371c.988-1.222 1.838-2.638 2.551-4.247.209-.475.058-.757-.452-.846l-.565-.1c-.545-.098-.85.129-.917.68z"/><path d="M312.872 220.319c-.158-.066-.32-.047-.485.057-.073.047-.134.112-.177.189a.56.56 0 0 0-.07.253l-.123 6.186a.29.29 0 0 1-.314.323l-10.88.565c-.027.002-.054-.001-.079-.011s-.049-.023-.069-.042-.036-.041-.048-.066-.017-.053-.017-.08l-.162-6.557c-.003-.24-.127-.361-.371-.361l-.204.005c-.095 0-.187.037-.255.104a.37.37 0 0 0-.111.252l-.161 6.528a.32.32 0 0 1-.3.314l-9.63.651c-.03.002-.061-.003-.089-.013s-.055-.026-.078-.047-.041-.046-.054-.074-.02-.059-.021-.09l-.157-5.919c-.001-.036-.008-.072-.023-.105a.28.28 0 0 0-.061-.087.27.27 0 0 0-.091-.057.25.25 0 0 0-.105-.017l-.205.009c-.294.013-.445.165-.451.456l-.119 5.706a.31.31 0 0 1-.332.347l-9.973.689c-.026.002-.053-.002-.079-.01s-.048-.023-.068-.04a.21.21 0 0 1-.046-.064.2.2 0 0 1-.016-.076l-.057-7.621c-.001-.092-.038-.18-.103-.245s-.152-.102-.244-.102l-.218.005c-.304 0-.458.154-.461.461l-.052 7.73c0 .082-.043.127-.129.133l-9.711.722a.38.38 0 0 1-.157-.019c-.05-.017-.097-.045-.136-.081a.4.4 0 0 1-.129-.285l-.114-6.965c-.002-.066-.028-.129-.074-.177a.26.26 0 0 0-.174-.079l-.242-.015c-.307-.015-.464.13-.47.438l-.166 6.998a.44.44 0 0 1-.118.287c-.073.078-.171.126-.277.136l-9.483.798a.27.27 0 0 1-.106-.012c-.034-.012-.066-.03-.092-.054a.27.27 0 0 1-.064-.086.29.29 0 0 1-.023-.105l-.119-6.551c-.006-.209-.115-.314-.327-.314h-.167a.46.46 0 0 0-.324.133.47.47 0 0 0-.137.323l-.114 6.457c-.003.101-.042.197-.11.27a.41.41 0 0 1-.26.129l-8.813.807c-.038.004-.076-.001-.112-.013s-.069-.031-.097-.057a.26.26 0 0 1-.066-.091c-.016-.034-.024-.071-.025-.109l-.095-4.87c-.006-.276-.142-.448-.408-.518-.07-.019-.132-.017-.186.005-.224.085-.346.256-.365.513l-.138 5.007c.001.085-.03.167-.086.229a.32.32 0 0 1-.218.104l-7.212.717c-.058.008-.117.003-.173-.014a.41.41 0 0 1-.151-.082.42.42 0 0 1-.104-.136c-.024-.052-.037-.109-.038-.167l-.062-4.223c.001-.054-.019-.105-.055-.146a.22.22 0 0 0-.139-.073l-.229-.033c-.31-.041-.471.095-.484.408l-.162 4.205c-.004.085-.038.165-.095.226s-.135.099-.218.107l-8.386.86c-.206.022-.305-.072-.299-.281l.128-5.193c.001-.032-.004-.064-.016-.094s-.03-.058-.053-.081-.051-.042-.081-.054a.27.27 0 0 0-.097-.018h-.157c-.234.007-.366.127-.394.361-.238 1.885-.333 3.67-.285 5.355.003.171-.081.264-.252.28l-8.077.746c-.027.003-.055 0-.082-.009s-.05-.024-.07-.044-.035-.043-.045-.069a.19.19 0 0 1-.012-.082l.428-5.663c.002-.034-.003-.068-.017-.1s-.033-.059-.059-.081-.056-.038-.089-.046-.068-.009-.101-.001l-.2.038a.56.56 0 0 0-.297.166.57.57 0 0 0-.149.309l-.751 5.33a.33.33 0 0 1-.347.319c-2.306.123-4.54.063-6.703-.181-.162-.016-.241-.104-.238-.266l.104-5.91a.24.24 0 0 0-.06-.167c-.04-.047-.096-.077-.158-.085l-.228-.024c-.298-.035-.455.097-.47.395l-.333 5.767c-.001.024-.007.047-.018.067s-.028.038-.048.051a.15.15 0 0 1-.065.024c-.024.003-.047 0-.069-.009l-3.952-1.501a1.53 1.53 0 0 1-.63-.453 1.52 1.52 0 0 1-.325-.702l-.799-4.442c-.047-.278-.213-.413-.498-.404l-.228.01c-.029.001-.056.008-.081.02s-.048.029-.067.05a.19.19 0 0 0-.04.072c-.008.026-.011.054-.007.081l.446 4.029c.032.276-.052.317-.251.124-4.305-4.181-5.355-10.628-5.431-16.448l-.541-66.092c-.023-5.72 1.127-11.589 3.449-17.607 1.843-4.78 4.996-8.322 9.459-10.628.608-.314 1.805-.48 3.592-.499l27.261-.271c8.273-.076 27.99-.744 59.15-2.005l9.498-.299 40.151-.751 9.502-.218c13.659-.419 25.399.004 40.74.693.67.033 1.444-.831 2.314-.955 1.298-.187 2.445-.21 3.439-.071 4.425.624 8.954 1.178 13.588 1.663 6.751.708 10.101 5.468 10.723 12.105a57.1 57.1 0 0 1 .224 3.645l2.342 78.762c.076 2.391-.432 4.667-1.525 6.827-.025.048-.061.088-.106.117s-.097.046-.151.05c-.133.006-.199-.059-.199-.195l-.034-5.507c-.001-.083-.03-.163-.084-.226s-.128-.106-.21-.121c-.108-.019-.212-.012-.314.019a.47.47 0 0 0-.37.485l-.11 7.393a.28.28 0 0 1-.077.192c-.049.053-.116.086-.189.093l-9.264.76c-.018.002-.037 0-.054-.006s-.034-.015-.048-.027-.025-.028-.033-.045a.13.13 0 0 1-.012-.055l-.186-7.521c-.001-.042-.01-.083-.028-.122a.29.29 0 0 0-.074-.1c-.031-.029-.067-.051-.107-.065a.3.3 0 0 0-.123-.017l-.152.005c-.269.016-.407.156-.414.423l-.171 7.283a.37.37 0 0 1-.103.254c-.065.069-.154.11-.248.116l-9.241.618c-.014.001-.029 0-.043-.005s-.026-.012-.037-.022-.019-.022-.025-.035-.009-.028-.009-.042l-.124-7.464a.31.31 0 0 0-.318-.342l-.176-.019c-.098-.011-.197.019-.275.082s-.129.154-.143.255c-.275 2.337-.156 4.941-.156 7.307.003.231-.111.353-.343.366l-9.506.56c-.099.007-.149-.041-.152-.142l-.1-7.502c-.003-.241-.125-.363-.366-.366h-.28c-.244-.003-.366.117-.366.361l-.052 7.393c-.001.087-.036.171-.096.234a.33.33 0 0 1-.227.103l-9.393.418c-.269.013-.407-.117-.414-.389l-.104-7.122c-.003-.177-.092-.279-.266-.304l-.228-.029a.4.4 0 0 0-.169.012.41.41 0 0 0-.149.081c-.043.037-.079.084-.103.136s-.039.108-.04.166l-.147 7.174c-.003.103-.044.201-.117.274a.4.4 0 0 1-.273.12l-21.399.822c-.196.006-.291-.089-.285-.285.095-2.604.076-5.182-.057-7.735a.26.26 0 0 0-.247-.271l-.199-.033c-.33-.047-.498.095-.504.428l-.123 7.677a.24.24 0 0 1-.271.276l-9.811.285c-.076 0-.114-.038-.114-.114l-.133-7.502a.21.21 0 0 0-.247-.233l-.447.01a.32.32 0 0 0-.223.094c-.06.06-.094.14-.095.224l-.086 7.388c-.001.057-.023.111-.062.152s-.091.064-.147.067l-9.754.37a.21.21 0 0 1-.251-.237l-.11-6.951c-.003-.234-.122-.372-.356-.413-.161-.029-.318.019-.47.142-.052.042-.095.094-.124.153s-.046.124-.047.189l-.114 6.794c-.003.212-.111.323-.323.333l-9.602.394a.29.29 0 0 1-.113-.017c-.036-.013-.068-.033-.096-.06s-.051-.057-.066-.092-.024-.073-.025-.111l-.09-6.547c-.003-.222-.115-.336-.337-.342l-.233-.005c-.263-.01-.396.117-.399.38l-.133 6.528c-.003.193-.101.293-.295.299l-9.611.442c-.193.01-.29-.082-.29-.275l-.085-6.253c-.002-.085-.028-.168-.076-.239a.45.45 0 0 0-.195-.16zM116.137 155.8l9.753-16.662c1.252-2.021 2.956-3.725 5.113-5.112l12.129-7.773c.434-.275.497-.209.19.2-7.987 10.628-17.014 20.249-26.943 29.542-.551.516-.632.451-.242-.195zm348.735-11.488c1.107-.684 1.464-1.539 1.777-2.717.08-.298.19-.311.333-.038 3.183 6.1 6.732 11.179 12.41 15.274 2.399 1.734 4.641 2.946 6.703 5.426.133.158.097.225-.109.199-1.891-.247-3.462-.839-4.713-1.777-3.962-2.971-7.416-6.174-10.362-9.611-1.867-2.181-3.711-4.722-6.048-6.343-.034-.023-.061-.054-.08-.091a.24.24 0 0 1-.027-.118c.001-.041.012-.081.032-.117a.27.27 0 0 1 .084-.087zm-1.293 48.726c6.376 9.483 11.341 19.451 12.443 30.468.081.808-.655 1.563-1.282 1.929a37.41 37.41 0 0 0-2.704 1.725c-.522.364-1.138.594-1.848.689-3.36.456-5.98.632-7.858.527-3.882-.219-8.124-.385-11.787-1.107-5.027-.993-9.64-2.076-14.909-2.333-.158-.006-.241-.09-.247-.252-.048-1.354-.152-2.698-.086-4.095.491-9.958.336-19.542-.465-28.753a219.5 219.5 0 0 1-.623-9.046c-.373-8.257-.904-16.963-1.591-26.116-.019-.257.068-.298.261-.124a138.72 138.72 0 0 1 14.999 16.02c4.694 5.892 8.471 12.272 13.564 17.784.798.864 1.509 1.759 2.133 2.684zm-301.69 10.111c.746-2.252 1.468-4.499 2.537-6.599.444-.874 1.039-1.813 1.787-2.817a195.45 195.45 0 0 1 21.854-24.753c.021-.02.047-.034.075-.039s.058-.002.085.01a.16.16 0 0 1 .066.055c.017.024.025.054.026.083l.119 36.588c0 4.157.152 8.428.304 12.509.261 6.899 2.532 14.225 7.797 18.615.215.18.183.272-.095.275l-7.825.129c-4.419.099-8.647-.808-12.857-2.062-1.016-.304-1.93-.71-2.741-1.217-2.683-1.672-5.763-3.679-9.241-6.019a.69.69 0 0 1-.19-.198c-.049-.077-.081-.164-.095-.254l-1.986-12.956c-.603-3.672-.798-7.787.38-11.35zm124.852 31.426c.001.02-.093.042-.276.063l-.787.06-1.178.049-1.391.029c-.964.012-1.889.006-2.57-.015s-1.066-.056-1.066-.098c-.001-.02.093-.042.275-.063l.788-.06 1.178-.049 1.391-.029 2.57.015c.682.021 1.066.056 1.066.098z"/></g><g fill="#fff"><path d="M413.881 164.484c-.413 2.78-2.556 5.036-5.121 6.158-4.599 2.014-10.472 1.886-14.477-1.416-6.186-5.098-4.167-14.515-4.703-21.375-.67-8.509-4.029-22.9 6.171-27.086 6.082-2.494 12.857-.812 15.698 5.512 1.254 2.784 1.648 5.943 2.071 8.998.849 6.097 1.226 12.299 1.131 18.605-.06 4.01-.317 7.545-.77 10.604zm-40.602-22.534c.098.362-.039.548-.413.561l-.176.01c-.225.006-.366-.099-.423-.314-.678-2.572-.877-5.117-.598-7.635a.37.37 0 0 1 .442-.37l.137.009c.209.016.306.127.29.333-.187 2.385.06 4.854.741 7.406zm-111.663 1.563c-.614-2.588-.768-5.119-.46-7.592.006-.051.03-.098.066-.134s.083-.059.133-.066l.176-.019a.41.41 0 0 1 .17.016.4.4 0 0 1 .146.086.38.38 0 0 1 .121.307c-.165 2.48.073 4.954.713 7.421.057.218-.018.369-.224.451-.079.032-.161.045-.247.038a.6.6 0 0 1-.594-.508zm93.029.199c.015.063.017.128.006.191a.47.47 0 0 1-.073.176.44.44 0 0 1-.318.189c-.086.01-.169.002-.252-.023-.077-.024-.147-.066-.203-.123s-.098-.128-.12-.205c-.662-2.373-.877-4.876-.646-7.512.025-.275.176-.418.451-.427h.138a.29.29 0 0 1 .12.021c.039.015.073.039.102.068a.31.31 0 0 1 .065.103c.014.039.02.08.017.121-.158 2.404.079 4.878.713 7.421zm-38.73.495a.43.43 0 0 1 .005.195c-.012.065-.04.126-.079.179a.46.46 0 0 1-.149.128.45.45 0 0 1-.19.054l-.209.009c-.161.007-.264-.068-.309-.223a19.99 19.99 0 0 1-.641-7.749c.012-.106.064-.203.146-.27a.4.4 0 0 1 .291-.091l.138.01c.041.003.081.014.118.032s.07.045.097.076.047.068.06.107.018.081.015.122c-.171 2.407.064 4.881.707 7.421zm26.56.583a.42.42 0 0 1-.097.308c-.072.086-.176.14-.287.15l-.18.016c-.112.009-.223-.026-.309-.098a.42.42 0 0 1-.149-.287l-.655-7.478c-.009-.112.026-.223.098-.308s.175-.14.287-.15l.18-.016c.111-.009.222.026.308.098s.14.175.15.287l.654 7.478zm-132.082-.074c.001.045-.006.09-.022.133s-.041.082-.072.115-.068.06-.11.079a.35.35 0 0 1-.132.031l-.313.01c-.045.002-.091-.006-.133-.022a.34.34 0 0 1-.115-.071c-.034-.031-.06-.069-.079-.11a.34.34 0 0 1-.031-.132l-.235-7.094a.34.34 0 0 1 .022-.134c.016-.042.04-.081.071-.115s.068-.06.11-.079a.35.35 0 0 1 .132-.03l.313-.011a.36.36 0 0 1 .134.022c.042.016.081.041.115.072a.33.33 0 0 1 .109.241l.236 7.095zm58.388.347c.01.116-.026.233-.101.323s-.183.146-.299.157l-.142.013c-.117.01-.233-.026-.323-.101a.44.44 0 0 1-.157-.299l-.679-7.457a.44.44 0 0 1 .101-.323c.075-.09.182-.147.299-.157l.142-.013a.44.44 0 0 1 .323.1c.09.075.146.183.157.3l.679 7.457zm-64.102 1.095c0 .058-.011.115-.033.169s-.054.102-.095.144a.46.46 0 0 1-.143.096c-.054.022-.111.034-.169.034h-.124c-.058.001-.115-.011-.169-.033a.44.44 0 0 1-.143-.095c-.042-.041-.074-.089-.097-.143a.43.43 0 0 1-.034-.169l-.029-8.428c-.001-.058.011-.116.033-.169s.054-.103.095-.144.089-.074.143-.096a.47.47 0 0 1 .169-.035h.123a.45.45 0 0 1 .17.033.46.46 0 0 1 .143.095c.041.041.074.09.097.143s.034.111.034.169l.029 8.429zm156.053-.909c.006.065-.001.131-.021.193a.49.49 0 0 1-.095.171c-.042.05-.094.091-.152.121a.51.51 0 0 1-.187.054l-.028.002a.49.49 0 0 1-.194-.022c-.062-.02-.12-.052-.17-.094s-.091-.094-.121-.152a.49.49 0 0 1-.054-.187l-.62-7.386c-.006-.065.002-.131.022-.193a.48.48 0 0 1 .094-.171c.042-.05.094-.091.152-.121a.51.51 0 0 1 .187-.054l.028-.002a.51.51 0 0 1 .194.022c.062.02.12.052.17.094s.091.094.121.152a.48.48 0 0 1 .054.187l.62 7.386zm-136.821.022c-.681-2.727-.858-5.241-.532-7.544.029-.209.149-.312.361-.309l.209.005a.27.27 0 0 1 .112.025c.036.015.068.038.094.067a.29.29 0 0 1 .059.098c.013.037.018.075.016.114-.146 2.493.082 4.984.684 7.473.082.33-.046.512-.385.547-.06.006-.119.001-.176-.015a.65.65 0 0 1-.442-.461zm20.12-.066a.43.43 0 0 1-.032.288c-.043.089-.116.16-.205.201-.048.022-.097.038-.147.047a.52.52 0 0 1-.386-.071c-.114-.072-.196-.186-.227-.318-.653-2.686-.819-5.256-.499-7.711a.29.29 0 0 1 .108-.194c.059-.048.135-.071.21-.063l.133.01a.33.33 0 0 1 .342.394c-.104 2.426.13 4.899.703 7.417zm-44.607 1.309c-.003.052-.016.104-.039.151s-.055.089-.094.124-.085.061-.135.079-.102.024-.154.021l-.341-.021c-.106-.006-.205-.054-.275-.133a.4.4 0 0 1-.1-.289l.495-8.337c.003-.053.017-.104.04-.151s.054-.089.094-.124.084-.061.134-.079.102-.024.154-.021l.342.02c.105.007.204.055.275.134a.39.39 0 0 1 .099.288l-.495 8.338zm122.591-.746c.005.051-.001.103-.017.151a.39.39 0 0 1-.073.134c-.033.039-.073.071-.119.095a.39.39 0 0 1-.146.042l-.265.023a.39.39 0 0 1-.284-.091c-.079-.066-.128-.161-.137-.264l-.641-7.47c-.004-.051.002-.102.017-.151a.38.38 0 0 1 .074-.133c.033-.039.073-.072.118-.095a.39.39 0 0 1 .146-.042l.265-.023a.39.39 0 0 1 .422.355l.64 7.469zm-24.7.254c.06.231-.026.375-.257.432-.05.013-.103.022-.157.029a.56.56 0 0 1-.65-.471c-.618-2.429-.781-4.971-.49-7.625.007-.072.043-.139.099-.185a.27.27 0 0 1 .201-.062l.232.019c.2.016.293.123.281.323-.159 2.439.088 4.952.741 7.54zm-19.076.076c.013.048.015.098.005.147a.34.34 0 0 1-.06.136.33.33 0 0 1-.258.135l-.209.005c-.301.006-.486-.135-.556-.423a22.5 22.5 0 0 1-.547-7.592c.01-.083.05-.16.112-.214s.143-.084.226-.081l.223.005c.244.003.352.125.323.366-.253 2.109-.006 4.615.741 7.516zm56.801.43a.47.47 0 0 1-.021.186c-.019.06-.05.116-.091.164s-.09.087-.147.116a.48.48 0 0 1-.18.052l-.075.006c-.127.01-.253-.03-.35-.112s-.157-.2-.168-.327l-.608-7.396c-.005-.063.002-.126.021-.186a.49.49 0 0 1 .091-.164.46.46 0 0 1 .147-.116.49.49 0 0 1 .18-.052l.076-.006a.48.48 0 0 1 .517.439l.608 7.396zm-84.899.23c.005.057-.002.115-.019.17s-.045.105-.082.149a.43.43 0 0 1-.134.106.42.42 0 0 1-.163.048l-.142.012c-.116.01-.231-.026-.319-.101a.44.44 0 0 1-.154-.297l-.638-7.441c-.005-.058.001-.115.019-.17s.045-.105.082-.149.082-.08.133-.107a.45.45 0 0 1 .164-.047l.142-.012c.116-.01.23.026.319.101s.144.181.154.297l.638 7.441zm-19.073.041c.009.104-.023.207-.09.288s-.162.131-.267.141l-.236.022c-.104.009-.208-.023-.288-.09a.39.39 0 0 1-.141-.267l-.693-7.465c-.009-.104.023-.208.09-.288s.162-.131.266-.141l.237-.022c.104-.009.208.023.288.09a.39.39 0 0 1 .141.267l.693 7.465zm53.214.713c.005.06-.002.121-.021.179s-.048.111-.087.157-.087.084-.141.112a.46.46 0 0 1-.173.049l-.113.009c-.122.01-.243-.028-.336-.108a.46.46 0 0 1-.162-.313l-.607-7.387c-.005-.06.002-.121.021-.179s.048-.111.087-.157.087-.084.141-.112a.47.47 0 0 1 .173-.049l.113-.009c.122-.01.243.028.336.108a.46.46 0 0 1 .161.313l.608 7.387zm19.121-.009c.005.054-.001.109-.018.162a.42.42 0 0 1-.206.245.43.43 0 0 1-.157.045l-.199.017c-.054.005-.109-.001-.162-.018a.42.42 0 0 1-.245-.206.43.43 0 0 1-.045-.157l-.637-7.432c-.005-.054.001-.109.018-.162a.42.42 0 0 1 .206-.245.43.43 0 0 1 .157-.045l.199-.017c.054-.005.109.001.162.018a.42.42 0 0 1 .143.079c.042.035.076.078.101.127a.43.43 0 0 1 .046.157l.637 7.432zm68.076 12.416c-.605-2.556-.778-5.103-.518-7.64.016-.168.109-.252.28-.252h.228c.212.004.315.111.309.323-.108 2.598.135 5.094.727 7.488a.42.42 0 0 1-.023.26c-.035.082-.095.151-.172.196s-.16.073-.252.076a.53.53 0 0 1-.579-.451zm7.13 1.511a.37.37 0 0 1-.085.267c-.063.074-.153.12-.249.128l-.294.025a.37.37 0 0 1-.267-.085c-.074-.063-.12-.152-.128-.249l-.63-7.499a.37.37 0 0 1 .085-.267c.063-.074.153-.12.249-.128l.294-.025c.097-.008.192.022.267.085s.12.152.128.249l.63 7.499zm-43.851.08c.079.332-.049.533-.385.603-.045.009-.089.011-.133.005-.254-.042-.412-.187-.475-.437-.643-2.579-.816-5.095-.518-7.55.031-.253.174-.372.427-.356l.157.009c.037.003.074.013.107.029a.27.27 0 0 1 .088.07c.024.029.043.062.054.098s.016.074.012.112c-.183 2.246.039 4.718.666 7.417zm18.448-7.43c-.199 2.77.171 5.003.699 7.564.01.048.01.099-.001.147a.36.36 0 0 1-.061.135c-.03.04-.067.073-.111.097a.37.37 0 0 1-.141.044l-.152.014c-.129.01-.257-.025-.362-.101s-.181-.186-.213-.312c-.583-2.344-.77-4.826-.561-7.445.023-.263.165-.404.428-.423l.185-.014c.039-.003.078.004.115.018s.069.036.097.063.048.062.062.098.019.076.016.115zm-39.352 8.21c-.751-2.674-.945-5.29-.584-7.849.009-.063.04-.121.088-.162s.109-.066.173-.066h.209c.26-.003.382.125.366.385a23.54 23.54 0 0 0 .698 7.483c.014.048.017.097.009.146s-.025.094-.052.134c-.104.162-.25.249-.437.261a.45.45 0 0 1-.293-.081.46.46 0 0 1-.177-.251zm46.132.84c.005.058-.001.116-.019.172s-.046.106-.083.151-.083.081-.135.107a.43.43 0 0 1-.165.048l-.133.012c-.116.01-.232-.027-.322-.102a.44.44 0 0 1-.156-.301l-.643-7.507c-.005-.058.001-.116.019-.172s.046-.106.083-.151.083-.081.135-.107a.43.43 0 0 1 .165-.048l.133-.012a.44.44 0 0 1 .478.403l.643 7.507zm-19.109-.001a.42.42 0 0 1-.385.457l-.19.017c-.055.004-.111-.002-.163-.019a.42.42 0 0 1-.145-.079c-.042-.036-.077-.08-.103-.129s-.041-.103-.046-.159l-.64-7.469a.42.42 0 0 1 .385-.458l.189-.016c.056-.005.111.001.164.018a.43.43 0 0 1 .248.209c.025.049.041.103.046.158l.64 7.47zm-20.839.914c-.028.002-.057-.001-.085-.009s-.053-.023-.075-.042a.23.23 0 0 1-.054-.066.22.22 0 0 1-.023-.083l-.024-.313-.213-2.974-.139-2.52-.044-1.681c.003-.389.023-.587.059-.584l.594-.047c.071-.006.204.803.369 2.25l.509 5.465.029.314a.21.21 0 0 1-.01.086c-.009.028-.023.054-.042.076s-.042.04-.069.053-.054.021-.083.022l-.699.053zm-42.966-.29c.086.336-.043.532-.385.589a.54.54 0 0 1-.204 0c-.102-.017-.197-.063-.272-.133a.54.54 0 0 1-.156-.261c-.62-2.467-.803-4.987-.546-7.559.025-.256.168-.394.428-.413l.166-.01c.03-.002.061.003.09.013s.054.027.076.048.038.047.049.075.015.058.013.088c-.158 2.413.089 4.934.741 7.563zm19.132.114a.35.35 0 0 1-.034.261c-.045.08-.12.14-.208.166l-.209.067c-.295.092-.483-.013-.566-.314-.7-2.606-.874-5.239-.522-7.896.019-.158.107-.225.266-.199l.171.033a.45.45 0 0 1 .276.165c.068.087.102.195.094.305-.168 2.369.076 4.84.732 7.412zm-13.034 1.509c.004.046-.001.092-.015.136s-.037.085-.067.12a.33.33 0 0 1-.107.086c-.041.021-.085.034-.131.038l-.332.028c-.046.004-.092-.001-.136-.015s-.085-.036-.12-.066a.34.34 0 0 1-.086-.107.36.36 0 0 1-.038-.132l-.645-7.517a.37.37 0 0 1 .016-.136c.014-.044.036-.085.066-.12a.34.34 0 0 1 .107-.086.36.36 0 0 1 .132-.038l.331-.029a.35.35 0 0 1 .136.016c.044.014.085.036.121.066a.34.34 0 0 1 .085.107.36.36 0 0 1 .038.132l.645 7.517zm19.116-.047a.41.41 0 0 1-.018.163c-.017.052-.043.1-.079.142s-.078.077-.127.102a.43.43 0 0 1-.157.046l-.189.016a.42.42 0 0 1-.162-.018.41.41 0 0 1-.143-.079c-.042-.035-.077-.079-.102-.127a.41.41 0 0 1-.045-.157l-.634-7.384a.45.45 0 0 1 .018-.163.43.43 0 0 1 .079-.142.42.42 0 0 1 .128-.102c.048-.026.102-.041.156-.046l.19-.016c.054-.005.109.001.162.018a.42.42 0 0 1 .245.206.43.43 0 0 1 .045.157l.633 7.384zm-46.305.011c.085.319-.038.5-.371.541a1.55 1.55 0 0 1-.18.01.53.53 0 0 1-.509-.404 22.62 22.62 0 0 1-.532-7.44c.025-.269.173-.414.442-.433l.147-.009a.27.27 0 0 1 .113.018c.036.014.068.035.095.062s.048.061.061.097a.27.27 0 0 1 .016.113c-.19 2.413.049 4.895.718 7.445zm-58.092 1.757c-.696-2.68-.899-5.241-.608-7.683.038-.301.203-.416.494-.346l.19.047a.27.27 0 0 1 .158.104c.038.052.057.116.051.181-.186 2.493.053 4.976.718 7.45.098.373-.046.56-.432.56l-.157.005c-.095 0-.186-.031-.261-.089s-.129-.138-.153-.229zm64.193-.147c.005.056 0 .111-.017.164a.42.42 0 0 1-.079.145c-.036.042-.079.078-.128.104a.42.42 0 0 1-.158.047l-.171.015c-.055.005-.111-.001-.164-.017a.41.41 0 0 1-.248-.207.42.42 0 0 1-.047-.158l-.68-7.467c-.005-.055.001-.111.018-.164a.41.41 0 0 1 .079-.145c.035-.042.079-.078.128-.103a.42.42 0 0 1 .158-.047l.171-.016c.055-.005.111.001.164.018a.41.41 0 0 1 .145.079c.042.035.077.079.103.128a.42.42 0 0 1 .047.158l.679 7.466zm-44.937.713a.14.14 0 0 1-.098-.032c-.028-.023-.045-.056-.049-.092l-.066-.793-.326-5.227c-.041-1.392-.003-2.183.107-2.199l.295-.024c.054-.005.125.181.207.547s.175.907.273 1.589l.295 2.389.275 2.825.066.798c.003.036-.009.071-.032.099s-.056.045-.091.048l-.856.072zm19.115-.641c-.589-2.582-.727-5.097-.413-7.545.019-.136.095-.199.228-.19l.185.014a.45.45 0 0 1 .169.045c.053.025.1.061.139.105s.069.094.087.149.027.114.023.172c-.148 2.372.062 4.855.632 7.449a.38.38 0 0 1-.044.276c-.05.083-.129.144-.222.171-.231.063-.462-.081-.693-.432-.041-.067-.072-.139-.091-.214zm-32.146 1.914c-.027.002-.053 0-.078-.008a.2.2 0 0 1-.069-.037.21.21 0 0 1-.05-.061c-.012-.023-.019-.049-.022-.075l-.076-.95-.2-2.752-.129-2.333-.036-1.555c.004-.359.025-.542.061-.539l.584-.047c.035-.019.085.151.146.501l.213 1.536.248 2.333.244 2.766.076.95c.002.026-.001.052-.01.077s-.021.048-.038.068-.038.036-.062.048a.2.2 0 0 1-.075.021l-.727.057zm20.245-.238a.44.44 0 0 1-.1.319c-.074.089-.181.145-.297.155l-.189.017a.44.44 0 0 1-.319-.1c-.089-.074-.145-.181-.155-.297l-.661-7.401a.44.44 0 0 1 .397-.474l.189-.017c.116-.01.231.026.319.1a.44.44 0 0 1 .155.297l.661 7.401zm19.124-.008c.006.06 0 .121-.018.179a.46.46 0 0 1-.086.158c-.038.047-.086.085-.139.113a.47.47 0 0 1-.172.052l-.123.012a.47.47 0 0 1-.179-.019.46.46 0 0 1-.159-.085c-.046-.039-.085-.086-.113-.14a.47.47 0 0 1-.052-.172l-.7-7.407a.47.47 0 0 1 .019-.179.44.44 0 0 1 .085-.158c.039-.047.086-.085.139-.114a.45.45 0 0 1 .173-.051l.123-.012a.47.47 0 0 1 .179.019.45.45 0 0 1 .158.085c.046.039.085.086.113.139a.47.47 0 0 1 .052.173l.7 7.407zm173.984 16.496a.55.55 0 0 1-.033.22.58.58 0 0 1-.114.191.57.57 0 0 1-.179.132.58.58 0 0 1-.216.054l-.038.002a.57.57 0 0 1-.41-.147c-.112-.102-.179-.244-.187-.395l-.283-5.798c-.004-.075.007-.15.032-.22a.55.55 0 0 1 .115-.191c.05-.056.111-.101.178-.133a.58.58 0 0 1 .216-.054l.038-.002a.57.57 0 0 1 .411.148c.112.101.179.243.186.394l.284 5.799zm-7.593 1.02a.56.56 0 0 1-.025.212c-.022.068-.057.132-.104.186a.54.54 0 0 1-.167.133c-.064.032-.134.052-.205.058l-.038.003c-.072.006-.144-.003-.212-.025s-.131-.057-.186-.104-.1-.103-.132-.167-.053-.133-.058-.205l-.55-6.829c-.006-.071.003-.143.025-.212s.057-.131.104-.186a.55.55 0 0 1 .167-.132c.064-.033.133-.052.205-.058l.038-.003c.071-.006.143.002.212.024a.58.58 0 0 1 .186.104c.054.047.099.104.132.167s.052.134.058.206l.55 6.828zm-18.668 1.841c.007.113-.031.225-.105.31s-.18.138-.294.145l-.284.019a.42.42 0 0 1-.31-.105c-.042-.037-.077-.082-.102-.132a.43.43 0 0 1-.043-.161l-.462-6.95c-.007-.113.031-.225.105-.31a.43.43 0 0 1 .294-.145l.284-.019c.056-.004.112.004.166.022s.102.046.144.083.077.082.102.132a.43.43 0 0 1 .043.162l.462 6.949zm7.669-1.051c.003.067-.006.135-.029.198a.54.54 0 0 1-.102.173.51.51 0 0 1-.16.12.49.49 0 0 1-.194.049l-.152.008c-.067.004-.134-.006-.198-.028a.51.51 0 0 1-.292-.262c-.029-.061-.046-.127-.05-.194l-.316-5.845a.51.51 0 0 1 .028-.198.5.5 0 0 1 .102-.172.51.51 0 0 1 .16-.12c.061-.029.127-.046.194-.05l.152-.008a.51.51 0 0 1 .198.028c.064.023.122.057.172.102a.54.54 0 0 1 .121.16c.03.06.046.127.049.194l.317 5.845zm-19.007.861c.004.075-.007.15-.032.22s-.063.136-.113.192a.56.56 0 0 1-.179.133.58.58 0 0 1-.215.055l-.048.002a.57.57 0 0 1-.22-.032.58.58 0 0 1-.191-.114c-.056-.05-.101-.11-.133-.178a.58.58 0 0 1-.055-.216l-.304-5.807a.57.57 0 0 1 .145-.411.56.56 0 0 1 .179-.133.57.57 0 0 1 .215-.055l.048-.002a.57.57 0 0 1 .22.031.58.58 0 0 1 .191.114c.056.05.101.111.133.178a.58.58 0 0 1 .055.216l.304 5.807zm-9.274-6.084c-.002-.025.001-.051.01-.075a.22.22 0 0 1 .037-.067c.017-.02.037-.035.06-.047a.19.19 0 0 1 .074-.02l.399-.028c.083-.008.17.061.257.201s.172.35.25.616.147.584.203.935l.126 1.113.143 2.052.029 1.116a8.02 8.02 0 0 1-.07.953c-.04.274-.095.493-.161.644s-.143.232-.226.237l-.399.029c-.026.002-.051-.001-.076-.009a.19.19 0 0 1-.066-.038c-.02-.017-.035-.037-.047-.06a.19.19 0 0 1-.02-.074l-.523-7.478zm-36.066 9.002c.004.065-.017.13-.06.179s-.104.08-.169.085l-.616.044c-.065.005-.13-.017-.179-.06a.25.25 0 0 1-.085-.169l-.522-7.279c-.005-.065.017-.129.06-.179s.104-.08.169-.085l.616-.044c.065-.004.13.017.179.06s.08.104.085.169l.522 7.279zm7.626-1.224c.004.073-.006.146-.03.214a.56.56 0 0 1-.494.372l-.066.003c-.147.009-.292-.042-.402-.14s-.176-.236-.184-.383l-.325-5.807c-.004-.073.006-.146.031-.214a.57.57 0 0 1 .283-.318.55.55 0 0 1 .21-.054l.067-.003a.55.55 0 0 1 .401.14.56.56 0 0 1 .185.384l.324 5.806zm19.079.018c.007.154-.047.304-.151.417a.58.58 0 0 1-.401.188l-.038.002a.59.59 0 0 1-.417-.151.56.56 0 0 1-.134-.182.58.58 0 0 1-.055-.22l-.263-5.8a.58.58 0 0 1 .553-.605l.038-.002a.6.6 0 0 1 .223.034.58.58 0 0 1 .194.117.59.59 0 0 1 .134.183.57.57 0 0 1 .054.219l.263 5.8zm-7.592 1.107a.34.34 0 0 1-.081.249c-.06.069-.144.111-.234.118l-.455.034a.34.34 0 0 1-.249-.082c-.068-.059-.111-.143-.118-.233l-.53-7.059a.34.34 0 0 1 .081-.249c.06-.069.144-.111.234-.118l.455-.034a.34.34 0 0 1 .249.082c.068.059.111.143.118.233l.53 7.059zm-39.109.381a.53.53 0 0 1-.126.383c-.091.106-.221.172-.36.182l-.067.005c-.139.011-.277-.035-.383-.126s-.172-.221-.182-.36l-.516-6.86c-.011-.14.035-.278.126-.384a.53.53 0 0 1 .36-.182l.067-.005c.139-.01.277.035.383.127s.172.22.182.36l.516 6.86zm7.622-.937a.48.48 0 0 1-.028.187.47.47 0 0 1-.097.162.48.48 0 0 1-.151.113.49.49 0 0 1-.184.046l-.218.011c-.063.003-.127-.006-.187-.027s-.115-.055-.162-.097a.47.47 0 0 1-.113-.152.49.49 0 0 1-.046-.183l-.299-5.903c-.004-.064.006-.127.027-.187a.47.47 0 0 1 .249-.275c.057-.028.12-.043.183-.046l.218-.012c.064-.003.127.007.187.028s.116.054.163.097a.5.5 0 0 1 .113.152.48.48 0 0 1 .046.183l.299 5.903zm-45.325 2.755c.008.11-.027.218-.099.301a.41.41 0 0 1-.282.143l-.303.024c-.054.004-.108-.003-.16-.02a.41.41 0 0 1-.141-.079c-.041-.035-.075-.078-.099-.127a.42.42 0 0 1-.044-.155l-.538-6.992a.41.41 0 0 1 .099-.3c.071-.084.172-.135.282-.143l.303-.024c.054-.004.108.003.16.019a.41.41 0 0 1 .141.079.42.42 0 0 1 .099.127c.025.049.04.101.044.156l.538 6.991zm7.578-1.051c.007.143-.043.283-.139.39a.54.54 0 0 1-.375.177l-.057.003a.55.55 0 0 1-.209-.031.53.53 0 0 1-.181-.109c-.053-.048-.096-.105-.126-.17a.54.54 0 0 1-.052-.205l-.287-5.875a.54.54 0 0 1 .515-.567l.057-.003a.55.55 0 0 1 .209.031.54.54 0 0 1 .358.484l.287 5.875zm11.477 1.015c.004.061-.004.121-.023.179a.46.46 0 0 1-.089.156c-.04.045-.088.083-.142.11a.46.46 0 0 1-.174.047l-.189.013c-.061.005-.121-.003-.179-.022a.48.48 0 0 1-.156-.09.45.45 0 0 1-.11-.142c-.027-.054-.043-.113-.047-.173l-.485-6.929c-.004-.061.004-.121.023-.179a.46.46 0 0 1 .089-.156c.04-.045.088-.083.142-.11s.113-.043.174-.047l.189-.013c.061-.005.121.003.179.022s.11.05.156.089.083.089.11.143.043.113.047.173l.485 6.929zm7.665-1.013c.006.134-.04.264-.13.363s-.214.159-.348.166l-.171.008a.5.5 0 0 1-.363-.129c-.099-.09-.158-.215-.165-.348l-.297-5.865c-.007-.133.04-.264.129-.363a.5.5 0 0 1 .348-.165l.171-.009c.134-.007.264.04.363.129s.159.215.166.349l.297 5.864zm-47.845 2.653c.004.053-.003.106-.02.156a.42.42 0 0 1-.077.137c-.034.04-.077.073-.124.097a.4.4 0 0 1-.152.042l-.313.023c-.107.008-.212-.027-.294-.097a.4.4 0 0 1-.138-.276l-.513-6.975c-.004-.053.003-.106.02-.156a.42.42 0 0 1 .077-.137.41.41 0 0 1 .125-.097.4.4 0 0 1 .152-.042l.312-.023c.107-.008.213.027.294.097s.131.169.139.276l.512 6.975zm7.616-1.04a.57.57 0 0 1-.147.411c-.102.111-.244.178-.395.185l-.048.003a.57.57 0 0 1-.596-.543l-.274-5.809c-.007-.151.046-.299.148-.41a.57.57 0 0 1 .395-.186l.047-.002a.57.57 0 0 1 .411.147c.111.102.178.244.185.395l.274 5.809zm-64.709 2.529a.5.5 0 0 1-.023.188.49.49 0 0 1-.093.165c-.041.048-.092.088-.148.116a.5.5 0 0 1-.182.051l-.152.012a.48.48 0 0 1-.188-.023.49.49 0 0 1-.165-.092.48.48 0 0 1-.116-.149.47.47 0 0 1-.051-.182l-.533-6.916a.5.5 0 0 1 .023-.188.49.49 0 0 1 .093-.165c.041-.048.092-.088.148-.116a.47.47 0 0 1 .182-.051l.152-.012a.5.5 0 0 1 .188.022.51.51 0 0 1 .165.093.48.48 0 0 1 .167.331l.533 6.916zm7.646-1.047a.51.51 0 0 1-.028.194.5.5 0 0 1-.1.169c-.045.049-.098.09-.158.118a.5.5 0 0 1-.19.049l-.199.011a.52.52 0 0 1-.195-.028.51.51 0 0 1-.169-.1c-.049-.045-.089-.098-.118-.158a.5.5 0 0 1-.048-.19l-.317-5.845a.51.51 0 0 1 .028-.194.5.5 0 0 1 .1-.169.49.49 0 0 1 .157-.118.51.51 0 0 1 .191-.049l.199-.011a.51.51 0 0 1 .364.128c.049.045.089.098.117.158a.48.48 0 0 1 .049.19l.317 5.845zm38.446.272a.54.54 0 0 1-.139.39c-.097.107-.232.17-.375.178l-.048.002a.55.55 0 0 1-.209-.031.54.54 0 0 1-.181-.109.56.56 0 0 1-.177-.375l-.288-5.893a.54.54 0 0 1 .514-.568l.048-.002a.53.53 0 0 1 .209.031.54.54 0 0 1 .307.278c.03.065.048.134.051.205l.288 5.894zm-26.76.976c.005.071-.004.143-.027.21s-.058.13-.105.184a.54.54 0 0 1-.371.185l-.038.002c-.071.005-.142-.004-.209-.026a.56.56 0 0 1-.184-.105c-.053-.047-.097-.104-.129-.167a.54.54 0 0 1-.056-.204l-.477-6.825c-.005-.071.004-.142.027-.21a.53.53 0 0 1 .272-.313.55.55 0 0 1 .204-.055l.037-.003c.071-.005.143.004.21.027s.13.058.184.105a.54.54 0 0 1 .185.371l.477 6.824zm7.67-.992c.004.068-.006.137-.029.202a.53.53 0 0 1-.104.175c-.046.051-.101.093-.163.122a.54.54 0 0 1-.198.051l-.152.008a.51.51 0 0 1-.201-.029c-.065-.023-.125-.058-.176-.104a.53.53 0 0 1-.122-.163c-.03-.062-.047-.129-.051-.197l-.315-5.817c-.003-.068.006-.137.029-.202a.53.53 0 0 1 .104-.175c.046-.051.101-.093.163-.122a.54.54 0 0 1 .198-.051l.152-.008c.068-.004.137.006.202.029a.53.53 0 0 1 .175.104c.051.046.093.101.122.163a.54.54 0 0 1 .051.198l.315 5.816zm11.463 1.074c.004.055-.003.111-.021.164s-.046.101-.082.143a.43.43 0 0 1-.131.101c-.049.024-.104.039-.159.043l-.284.019c-.056.004-.111-.003-.164-.021s-.101-.046-.143-.082a.43.43 0 0 1-.101-.131c-.025-.05-.039-.104-.043-.159l-.476-6.987c-.004-.055.003-.111.021-.164s.045-.101.082-.143.081-.076.131-.1a.44.44 0 0 1 .159-.044l.284-.019c.056-.004.111.003.164.021s.101.046.143.082a.43.43 0 0 1 .101.131c.024.05.039.104.043.159l.476 6.987zm286.674 7.192c-7.345 3.006-15.286 3.804-23.822 2.395-.478-.08-.695-.361-.651-.846l.019-.2a.56.56 0 0 1 .066-.211c.036-.066.085-.123.144-.169a.55.55 0 0 1 .198-.098c.071-.018.146-.022.219-.011 9.341 1.544 19.085.546 27.1-4.281a.56.56 0 0 1 .312-.078c.109.005.214.042.301.107.12.089.212.195.276.318a.79.79 0 0 1 .058.559.8.8 0 0 1-.329.458c-1.198.798-2.495 1.484-3.891 2.057zm-113.403 4.686a.49.49 0 0 1-.119.356c-.042.048-.093.088-.151.116a.49.49 0 0 1-.184.051l-.104.007a.51.51 0 0 1-.19-.024c-.061-.021-.117-.053-.165-.095a.48.48 0 0 1-.117-.151.49.49 0 0 1-.051-.184l-.421-6.029c-.005-.064.004-.128.024-.189a.49.49 0 0 1 .095-.166c.042-.048.093-.088.151-.117a.51.51 0 0 1 .184-.05l.104-.007a.47.47 0 0 1 .19.024c.061.02.117.052.165.095a.49.49 0 0 1 .168.335l.421 6.028zm9.039.69c.009.053.007.108-.006.16s-.035.101-.066.145a.39.39 0 0 1-.117.108c-.046.028-.097.047-.15.056l-.168.027a.41.41 0 0 1-.305-.073c-.087-.063-.146-.159-.164-.266l-1.045-6.53c-.009-.053-.007-.108.006-.16s.035-.101.066-.145a.39.39 0 0 1 .117-.108.42.42 0 0 1 .149-.056l.169-.027c.107-.017.217.009.304.073a.41.41 0 0 1 .164.266l1.046 6.53zm-27.651 1.108c.007.105-.028.207-.097.286s-.166.127-.271.134l-.312.021c-.105.007-.208-.028-.286-.097s-.127-.166-.134-.271l-.406-6.106a.39.39 0 0 1 .097-.285c.069-.079.166-.127.271-.134l.313-.021c.104-.007.207.028.286.097s.126.166.133.27l.406 6.106zm9.011.593a.44.44 0 0 1-.081.325c-.068.093-.171.155-.286.173l-.113.017a.44.44 0 0 1-.325-.081c-.093-.069-.155-.172-.172-.286l-.975-6.445a.44.44 0 0 1 .367-.498l.113-.017a.44.44 0 0 1 .324.08c.094.069.156.172.173.287l.975 6.445zm-28.02.295c.007.109-.029.215-.1.297s-.172.132-.28.139l-.266.018a.41.41 0 0 1-.296-.1c-.082-.071-.132-.172-.139-.28l-.417-6.124c-.008-.108.028-.215.099-.296a.41.41 0 0 1 .28-.139l.266-.019a.41.41 0 0 1 .296.1c.082.071.132.172.139.28l.418 6.124zm9.018.6c.018.124-.013.249-.088.349a.47.47 0 0 1-.309.184l-.038.006c-.061.009-.123.006-.183-.01a.47.47 0 0 1-.166-.078.49.49 0 0 1-.123-.137c-.031-.053-.052-.112-.061-.173l-.941-6.45c-.018-.123.014-.249.088-.349a.47.47 0 0 1 .31-.184l.037-.006a.49.49 0 0 1 .183.01c.06.015.117.042.166.079a.47.47 0 0 1 .123.136.45.45 0 0 1 .061.173l.941 6.45zm-46.739 1.071c.009.133-.035.265-.123.366s-.211.162-.345.172l-.094.006a.5.5 0 0 1-.366-.122c-.101-.088-.163-.212-.172-.345l-.419-6a.5.5 0 0 1 .122-.366.51.51 0 0 1 .345-.172l.095-.006a.5.5 0 0 1 .365.122c.101.088.163.212.172.345l.42 6zm19.111-.061a.53.53 0 0 1-.027.202c-.021.065-.056.126-.101.177a.52.52 0 0 1-.162.125c-.061.03-.128.049-.196.053l-.057.004a.52.52 0 0 1-.557-.486l-.405-5.944c-.005-.068.004-.137.026-.202a.53.53 0 0 1 .101-.177.52.52 0 0 1 .162-.125c.061-.03.128-.048.196-.053l.057-.004c.139-.009.275.037.379.128a.52.52 0 0 1 .178.358l.406 5.944zm-10.103.691a.48.48 0 0 1-.009.185.49.49 0 0 1-.079.168c-.037.05-.084.092-.137.124a.48.48 0 0 1-.175.063l-.037.005c-.125.019-.252-.013-.353-.087s-.169-.188-.187-.312l-.962-6.438c-.01-.061-.007-.124.008-.185s.042-.117.08-.167a.48.48 0 0 1 .311-.188l.038-.005c.124-.019.251.013.353.088s.168.187.187.311l.962 6.438zm19.14.007a.48.48 0 0 1-.008.185c-.015.061-.041.118-.078.169s-.083.093-.136.125-.113.054-.174.064l-.038.006c-.061.01-.124.007-.185-.008s-.118-.041-.168-.077-.093-.084-.126-.137a.47.47 0 0 1-.064-.174l-1.014-6.477c-.01-.062-.007-.125.008-.186s.041-.117.077-.168a.48.48 0 0 1 .137-.125.45.45 0 0 1 .174-.064l.037-.006c.062-.01.125-.007.186.007s.117.042.168.078a.47.47 0 0 1 .125.137.45.45 0 0 1 .064.174l1.015 6.477zm-48.139-.187c.005.062-.004.126-.024.185s-.052.115-.093.162a.48.48 0 0 1-.149.115.49.49 0 0 1-.181.048l-.123.008a.48.48 0 0 1-.348-.117c-.095-.084-.154-.203-.162-.33l-.398-5.982a.49.49 0 0 1 .024-.186.48.48 0 0 1 .094-.162.47.47 0 0 1 .148-.114.48.48 0 0 1 .181-.049l.123-.008a.48.48 0 0 1 .348.118c.096.084.155.202.163.329l.397 5.983zm9.046.679c.009.057.006.115-.008.172s-.038.109-.072.156-.078.087-.127.117a.45.45 0 0 1-.162.059l-.113.017c-.116.018-.234-.011-.329-.08a.44.44 0 0 1-.175-.289l-.995-6.423c-.008-.057-.006-.116.008-.172s.038-.109.073-.156a.43.43 0 0 1 .127-.117.44.44 0 0 1 .161-.059l.113-.017a.44.44 0 0 1 .329.08c.094.069.157.173.175.289l.995 6.423zm-46.754 1.104a.38.38 0 0 1-.092.275c-.066.077-.16.123-.26.13l-.351.025c-.101.007-.2-.026-.276-.093a.38.38 0 0 1-.13-.26l-.425-6.076c-.007-.1.027-.2.093-.276s.159-.122.26-.129l.351-.025a.38.38 0 0 1 .405.353l.425 6.076zm19.113-.04a.45.45 0 0 1-.022.175.44.44 0 0 1-.087.153c-.039.045-.086.081-.139.108a.48.48 0 0 1-.17.047l-.199.014c-.059.004-.118-.003-.174-.022a.45.45 0 0 1-.154-.087c-.044-.039-.081-.086-.108-.139a.44.44 0 0 1-.046-.17l-.428-5.971a.45.45 0 0 1 .022-.175.44.44 0 0 1 .087-.153c.039-.045.086-.081.139-.108a.44.44 0 0 1 .17-.046l.199-.015c.059-.004.118.003.175.022s.108.048.153.087.081.086.108.139a.44.44 0 0 1 .046.17l.428 5.971zm-10.092.694a.47.47 0 0 1-.085.35.5.5 0 0 1-.135.124c-.053.032-.112.053-.173.063l-.047.007a.47.47 0 0 1-.183-.008.49.49 0 0 1-.291-.213c-.032-.052-.053-.111-.063-.172l-1.003-6.479c-.009-.061-.006-.124.008-.184a.47.47 0 0 1 .078-.166c.036-.05.082-.092.135-.124s.111-.054.172-.063l.047-.007c.061-.01.124-.007.184.007a.47.47 0 0 1 .166.078c.05.036.092.082.124.135a.48.48 0 0 1 .063.173l1.003 6.479zm19.121.052c.015.099-.01.199-.069.279a.37.37 0 0 1-.246.149l-.234.036a.38.38 0 0 1-.279-.068c-.081-.059-.134-.148-.149-.246l-1.008-6.584c-.015-.099.01-.199.069-.279a.37.37 0 0 1 .246-.149l.234-.036c.099-.015.199.009.279.068s.134.148.149.246l1.008 6.584zm-49.257.867c.004.064-.004.128-.024.189a.5.5 0 0 1-.095.166.51.51 0 0 1-.152.117.49.49 0 0 1-.184.049l-.123.009c-.13.009-.257-.034-.355-.12a.49.49 0 0 1-.167-.335l-.404-5.935c-.005-.064.004-.128.024-.189a.51.51 0 0 1 .095-.166.49.49 0 0 1 .151-.116.48.48 0 0 1 .185-.05l.123-.009c.129-.008.257.035.355.12s.158.206.166.335l.405 5.935zm9.039.665c.009.06.006.121-.008.18s-.04.114-.075.163a.47.47 0 0 1-.133.122.48.48 0 0 1-.168.062l-.066.01c-.06.009-.121.007-.18-.007a.47.47 0 0 1-.163-.076c-.049-.036-.09-.08-.122-.132s-.052-.109-.062-.169l-1.005-6.421c-.01-.06-.007-.121.007-.18a.45.45 0 0 1 .076-.163c.035-.049.08-.09.132-.122s.109-.052.169-.062l.065-.01c.06-.009.121-.007.18.007a.47.47 0 0 1 .163.076c.049.036.091.081.122.132a.45.45 0 0 1 .062.169l1.006 6.421zm-66.129.891c.007.106-.028.21-.098.289s-.168.129-.273.136l-.285.019a.4.4 0 0 1-.425-.372l-.402-6.059a.4.4 0 0 1 .098-.289c.07-.08.168-.128.274-.135l.284-.019a.4.4 0 0 1 .425.372l.402 6.058zm19.371.173c.004.069-.004.138-.026.204a.52.52 0 0 1-.103.178c-.045.053-.1.096-.162.126a.55.55 0 0 1-.199.055l-.047.003a.52.52 0 0 1-.204-.026.53.53 0 0 1-.179-.102.54.54 0 0 1-.126-.163c-.031-.062-.049-.129-.054-.198l-.414-5.915a.52.52 0 0 1 .026-.204.53.53 0 0 1 .102-.179.54.54 0 0 1 .163-.126.53.53 0 0 1 .199-.054l.047-.003c.069-.005.138.004.204.025a.5.5 0 0 1 .179.103c.052.046.095.1.126.162a.53.53 0 0 1 .054.199l.414 5.915zm-10.336.42c.008.054.006.11-.007.163s-.037.104-.069.148a.42.42 0 0 1-.12.11c-.047.029-.099.048-.154.056l-.159.025c-.054.008-.11.006-.163-.007a.4.4 0 0 1-.148-.069c-.044-.032-.082-.073-.11-.12a.42.42 0 0 1-.056-.153l-.995-6.423c-.008-.054-.006-.11.007-.163a.42.42 0 0 1 .189-.258c.047-.029.099-.048.154-.056l.159-.025c.054-.008.11-.006.163.007a.41.41 0 0 1 .148.069c.044.032.082.073.11.12a.42.42 0 0 1 .056.153l.995 6.423zm29.46-.363c.008.108-.027.215-.098.297a.41.41 0 0 1-.279.141l-.284.022c-.108.008-.215-.027-.297-.098a.41.41 0 0 1-.141-.279l-.453-6.017c-.008-.108.027-.215.098-.297a.41.41 0 0 1 .279-.141l.284-.021a.41.41 0 0 1 .438.377l.453 6.016zm-10.099.584c.019.122-.011.247-.084.347s-.182.166-.304.185l-.075.012c-.061.01-.122.007-.182-.007a.49.49 0 0 1-.165-.077c-.049-.036-.091-.081-.123-.133a.45.45 0 0 1-.062-.171l-.998-6.374c-.019-.122.011-.247.083-.346a.47.47 0 0 1 .305-.186l.075-.012a.46.46 0 0 1 .181.008.45.45 0 0 1 .165.076c.049.036.091.081.123.134a.48.48 0 0 1 .063.17l.998 6.374zm19.078.025a.48.48 0 0 1-.404.544l-.029.005a.48.48 0 0 1-.356-.09c-.102-.076-.17-.189-.189-.315l-.943-6.392c-.019-.126.013-.254.089-.356s.189-.17.315-.189l.028-.004c.126-.019.254.014.357.089a.48.48 0 0 1 .188.316l.944 6.392zm253.096-1.684c-3.823-1.517-7.744-2.146-11.764-1.886-1.355.088-2.386.571-3.093 1.449-.225.282-.488.324-.788.128l-.143-.09c-.424-.276-.492-.621-.204-1.036.678-.969 1.582-1.546 2.713-1.729 7.459-1.212 14.799 1.51 21.327 5.43a142.64 142.64 0 0 1 11.764 7.92c4.551 3.397 8.418 7.293 9.958 12.842.123.45-.038.743-.485.879l-.19.062c-.31.095-.537-.003-.679-.295-.39-.789-.561-1.672-.927-2.485-2.209-4.912-6.385-8.243-10.775-11.374-5.459-3.881-10.742-7.44-16.714-9.815zm-129.382 7.264a.48.48 0 0 1-.139.333.46.46 0 0 1-.152.101.47.47 0 0 1-.18.036h-.2c-.062-.001-.123-.013-.18-.037a.46.46 0 0 1-.152-.102.45.45 0 0 1-.102-.153c-.024-.057-.036-.118-.036-.18l.013-7.183c0-.062.012-.123.036-.18a.48.48 0 0 1 .102-.152.46.46 0 0 1 .153-.102c.057-.024.118-.036.18-.036l.2.001c.061 0 .123.012.18.036s.108.058.152.102.078.096.102.153a.48.48 0 0 1 .035.18l-.012 7.183zm-225.168-3.729c-8.614 2.052-15.123 8.133-17.232 16.861a.68.68 0 0 1-.263.392c-.132.095-.293.139-.455.126l-.199-.014a.65.65 0 0 1-.568-.505.63.63 0 0 1 .002-.27c2.076-9.231 9.146-15.868 18.159-18.011.478-.114.807.059.988.518a.91.91 0 0 1 .057.256c.016.352-.147.567-.489.647zm393.641 80.772c3.948.076 6.861-1.055 9.649-3.744a.58.58 0 0 1 .203-.126.59.59 0 0 1 .235-.036c.655.032.806.458.451 1.278a1.14 1.14 0 0 1-.233.338c-2.714 2.644-6.062 3.905-10.044 3.781-.459-.015-.734-.247-.826-.693-.035-.162-.01-.33.076-.504.045-.091.115-.167.202-.219a.52.52 0 0 1 .287-.075z"/></g><g fill="#0c0e1c"><path d="M391.017 146.588c-.522-3.833-.856-7.439-1.002-10.818-.111-2.528.184-4.997.884-7.407.763-2.62 2.288-4.541 4.575-5.763 3.463-1.848 8.176-1.991 11.488.385 2.703 1.943 3.872 5.34 4.442 8.732 1.641 9.736 2.095 19.514 1.364 29.333-.247 3.292-.765 6.043-3.877 7.773-1.679.934-3.149 1.441-4.409 1.52-1.128.073-2.323.087-3.587.043-.022 0-.029-.008-.019-.024-.019-.03-.016-.038.009-.038 1.068-.032 2.138-.081 3.212-.147 1.002-.067 1.986-.514 2.903-.922 3.991-1.777 4.808-4.917 5.055-8.847.554-8.821.215-17.642-1.017-26.463-.608-4.342-1.734-8.68-5.763-10.747-2.008-1.026-4.187-1.263-6.537-.712-7.217 1.691-8.4 8.685-8.101 15.184.124 2.657.33 5.206.618 7.644.244 2.043.356 3.898.337 5.564-.066 6.447-.822 15.122 6.305 18.505.041.019.052.049.033.09v.005c-.019.045-.051.057-.095.038-7.825-3.235-6.789-13.236-6.647-19.987a18.45 18.45 0 0 0-.171-2.941zm18.412-10.205c-1.508-3.326-4.074-5.231-7.697-5.716-2.163-.291-3.967.214-5.411 1.516-2.347 2.114-3.815 5.886-3.15 9.003.898 4.186 3.653 6.305 7.644 6.979 2.095.357 4.029.319 5.773-1.054 2.071-1.638 3.268-3.841 3.591-6.609.042-.364.078-.364.11 0a133.14 133.14 0 0 1 .199 20.178c-.261 4-1.416 6.451-5.183 7.625-5.336 1.658-10.153-.908-11.536-6.343-1.273-4.998-.366-10.252-.879-15.426-.27-2.775-.693-5.606-.75-8.372-.072-3.515-.133-7.34 1.734-10.466 1.431-2.401 3.72-3.714 6.865-3.939 4.803-.342 7.663 3.749 8.367 7.987l.75 4.974c.079.589-.003.613-.247.071-.009-.022-.069-.158-.18-.408zm-5.011 8.726c-.68.345-1.427.543-2.197.581s-1.549-.081-2.292-.354a6.3 6.3 0 0 1-2.038-1.237c-.603-.543-1.104-1.199-1.475-1.931a6.64 6.64 0 0 1-.687-2.33c-.083-.808-.013-1.615.206-2.376a5.81 5.81 0 0 1 1.067-2.059 5.47 5.47 0 0 1 1.767-1.429c.68-.345 1.426-.542 2.196-.581a5.78 5.78 0 0 1 2.292.355 6.3 6.3 0 0 1 2.039 1.236c.603.544 1.104 1.2 1.475 1.931a6.66 6.66 0 0 1 .687 2.33c.082.808.012 1.615-.206 2.376a5.79 5.79 0 0 1-1.068 2.059c-.486.598-1.086 1.084-1.766 1.429z"/></g><g fill="#fff"><path d="M406.97 140.846a4.93 4.93 0 0 1-2.105 3.258c-1.128.769-2.534 1.072-3.908.842s-2.605-.974-3.421-2.068-1.151-2.449-.931-3.767.978-2.489 2.106-3.258 2.534-1.071 3.908-.841 2.605.974 3.421 2.068a4.93 4.93 0 0 1 .93 3.766zm-2.452 21.766a4.67 4.67 0 0 1-1.878.437c-.653.015-1.309-.104-1.929-.35s-1.193-.615-1.685-1.085a5.51 5.51 0 0 1-1.186-1.654c-.29-.622-.461-1.292-.505-1.971a5.25 5.25 0 0 1 .253-1.989c.21-.634.539-1.212.971-1.702a4.69 4.69 0 0 1 1.542-1.159c.587-.273 1.225-.422 1.879-.437a4.94 4.94 0 0 1 1.928.351 5.26 5.26 0 0 1 1.686 1.085 5.51 5.51 0 0 1 1.185 1.654c.29.622.462 1.292.505 1.971a5.24 5.24 0 0 1-.252 1.988c-.21.634-.54 1.212-.971 1.703a4.69 4.69 0 0 1-1.543 1.158z"/></g><path d="M403.904 161.205a3.16 3.16 0 0 1-1.291.305c-.45.01-.904-.074-1.335-.248s-.831-.432-1.177-.762a3.98 3.98 0 0 1-.84-1.16c-.42-.882-.501-1.881-.225-2.778s.887-1.617 1.698-2.004c.401-.192.84-.295 1.291-.305s.904.074 1.335.247.831.432 1.177.762a3.95 3.95 0 0 1 .839 1.161c.421.881.502 1.88.226 2.777s-.887 1.618-1.698 2.005z" fill="#0c0e1c"/></g><defs><clipPath id="A"><path fill="#fff" transform="translate(.172 .281)" d="M0 0h678v416H0z"/></clipPath></defs></svg>