<svg width="103" height="103" viewBox="0 0 103 103" fill="none" xmlns="http://www.w3.org/2000/svg">
<path d="M21.5568 52.994L42.9728 58.9506C43.2284 59.0244 43.4612 59.1618 43.6493 59.3499C43.8374 59.538 43.9748 59.7708 44.0486 60.0264L50.0052 81.4424C50.098 81.7671 50.294 82.0528 50.5636 82.2562C50.8332 82.4595 51.1617 82.5695 51.4994 82.5695C51.8371 82.5695 52.1656 82.4595 52.4352 82.2562C52.7047 82.0528 52.9008 81.7671 52.9935 81.4424L58.9501 60.0264C59.0239 59.7708 59.1613 59.538 59.3494 59.3499C59.5375 59.1618 59.7703 59.0244 60.0259 58.9506L81.4419 52.994C81.7666 52.9012 82.0523 52.7052 82.2557 52.4356C82.459 52.166 82.569 51.8375 82.569 51.4999C82.569 51.1622 82.459 50.8337 82.2557 50.5641C82.0523 50.2945 81.7666 50.0985 81.4419 50.0057L60.0259 44.0491C59.7703 43.9753 59.5375 43.8379 59.3494 43.6498C59.1613 43.4617 59.0239 43.2289 58.9501 42.9733L52.9935 21.5573C52.9008 21.2326 52.7047 20.9469 52.4352 20.7435C52.1656 20.5402 51.8371 20.4302 51.4994 20.4302C51.1617 20.4302 50.8332 20.5402 50.5636 20.7435C50.294 20.9469 50.098 21.2326 50.0052 21.5573L44.0486 42.9733C43.9748 43.2289 43.8374 43.4617 43.6493 43.6498C43.4612 43.8379 43.2284 43.9753 42.9728 44.0491L21.5568 50.0057C21.2321 50.0985 20.9464 50.2945 20.7431 50.5641C20.5397 50.8337 20.4297 51.1622 20.4297 51.4999C20.4297 51.8375 20.5397 52.166 20.7431 52.4356C20.9464 52.7052 21.2321 52.9012 21.5568 52.994Z" stroke="white" stroke-width="2.98828" stroke-linecap="round" stroke-linejoin="round"/>
</svg>
