<svg width="130" height="38" viewBox="0 0 130 38" fill="none" xmlns="http://www.w3.org/2000/svg">
<path d="M11.5395 31.552C11.8915 31.584 12.2115 31.488 12.4675 31.232C12.9155 30.848 13.2355 30.368 13.5235 29.856C13.8115 29.408 14.0035 28.96 14.2595 28.48C14.5795 27.808 14.8675 27.104 15.1235 26.368C15.2835 25.92 15.4435 25.44 15.5715 24.96C15.7635 24.352 15.9875 23.744 16.1475 23.136C16.3715 22.368 16.5635 21.568 16.7555 20.8C16.9155 20.128 17.1075 19.456 17.2675 18.784C17.4915 17.856 17.9395 16.256 17.9715 15.968C18.0675 15.616 17.4915 15.264 17.1075 15.712C17.0115 15.84 16.9155 15.968 16.8835 16.128C16.7875 16.352 16.7235 16.544 16.6915 16.768C16.4995 17.408 16.3395 18.048 16.1475 18.688C16.0515 19.104 15.9235 19.552 15.7955 19.968C15.5395 20.896 15.2515 21.856 14.9635 22.816C14.7395 23.584 14.5155 24.352 14.2595 25.12C13.8755 26.336 13.3955 27.52 12.8195 28.704C12.6595 29.056 12.4675 29.408 12.2435 29.728C12.0835 29.984 11.8595 30.24 11.6035 30.464C11.6035 30.496 11.5715 30.464 11.5395 30.464C11.5075 30.464 11.5075 30.432 11.4755 30.4C11.2835 29.824 11.1555 29.216 11.1555 28.608C11.1235 27.744 11.1235 26.848 11.1875 25.984C11.2195 25.408 11.2195 24.864 11.2835 24.288C11.3475 23.712 11.3475 23.104 11.4115 22.528C11.5075 21.792 11.6035 21.056 11.6995 20.352C11.8275 19.456 11.9555 18.592 12.1155 17.728C12.2435 17.056 12.3715 16.416 12.5315 15.744C12.6595 15.168 12.8515 14.592 12.9795 13.984C13.2355 12.992 13.5555 12 13.9395 11.04C14.0035 10.88 14.0355 10.752 13.9715 10.592C13.7795 10.432 13.5875 10.304 13.3955 10.144C13.3955 10.048 13.3955 9.984 13.3635 9.888C13.3315 9.44 13.2995 8.96 13.1715 8.512C13.0435 7.936 12.9155 7.36 12.6595 6.816C12.5955 6.656 12.4995 6.496 12.4355 6.336C12.2755 5.888 11.9875 5.504 11.6995 5.152C11.3155 4.736 10.8675 4.448 10.3235 4.288C9.9075 4.16 9.4915 4.096 9.0435 4.128C8.6275 4.128 8.2435 4.256 7.8915 4.416C7.3795 4.672 6.8995 4.992 6.5155 5.472C6.4515 5.536 6.3875 5.632 6.3235 5.696C6.0675 5.856 5.9395 6.08 5.7475 6.304C5.6195 6.496 5.4595 6.688 5.3315 6.912C5.2035 7.04 5.1075 7.2 5.0115 7.36C4.6275 8 4.2115 8.64 3.8915 9.312C3.6995 9.76 3.4435 10.208 3.2515 10.656C2.8995 11.456 2.5475 12.288 2.2915 13.12C2.1315 13.696 1.9395 14.24 1.7795 14.816C1.5875 15.52 1.4595 16.256 1.3315 16.96C1.2995 17.12 1.2995 17.28 1.2675 17.408C1.2035 17.952 1.1395 18.496 1.0755 19.008C1.0435 19.392 1.0115 19.808 0.979502 20.192C0.947502 20.96 0.883502 21.696 0.915502 22.464C0.915502 23.296 0.947502 24.16 1.0755 24.992C1.1715 25.568 1.2675 26.176 1.5555 26.688C1.8435 27.168 2.1635 27.552 2.6755 27.744C2.8675 27.84 3.0915 27.904 3.3155 27.936C3.7315 28.032 4.1155 28 4.4995 27.84C4.8515 27.712 5.1715 27.52 5.4275 27.296C5.6835 27.04 5.9395 26.784 6.1955 26.528C6.2595 26.496 6.2595 26.464 6.2915 26.432C6.4835 26.144 6.7395 25.952 6.8995 25.664C6.8995 25.632 6.8995 25.632 6.9315 25.6C7.2515 25.28 7.4755 24.896 7.7315 24.544C8.0835 23.968 8.4355 23.36 8.7875 22.784C8.9475 22.496 9.0755 22.176 9.2355 21.888C9.3315 21.664 9.4275 21.408 9.6515 21.152C9.6515 21.28 9.6515 21.312 9.6515 21.376C9.5875 21.92 9.5235 22.496 9.4595 23.072C9.4275 23.488 9.3955 23.904 9.3635 24.32C9.2995 25.024 9.2675 25.76 9.2675 26.464C9.2675 26.656 9.2995 26.816 9.2995 27.008C9.2995 27.776 9.3955 28.544 9.6195 29.312C9.7155 29.6 9.8115 29.888 9.8755 30.176C10.0035 30.592 10.3235 30.848 10.5475 31.168C10.8675 31.392 11.1875 31.52 11.5395 31.552ZM3.5715 27.04C3.5395 27.008 3.4755 26.976 3.4435 26.912C3.3475 26.688 3.1875 26.464 3.1235 26.176C2.9955 25.696 2.9315 25.184 2.8675 24.672C2.8035 24.288 2.8035 23.904 2.8035 23.52C2.8035 22.944 2.8035 22.368 2.8035 21.792C2.8035 21.344 2.8355 20.896 2.8675 20.416C2.8995 19.968 2.9635 19.488 2.9955 19.008C3.0915 18.144 3.2515 17.248 3.4115 16.384C3.5075 15.808 3.6675 15.264 3.8275 14.72C3.9875 14.144 4.1475 13.568 4.3395 12.992C4.5955 12.288 4.8835 11.584 5.2035 10.912C5.4595 10.368 5.7475 9.856 6.0035 9.312C6.2915 8.768 6.6115 8.192 6.9955 7.68C7.2835 7.328 7.5395 6.912 7.8275 6.56C8.2115 6.112 8.5955 5.664 9.1075 5.344C9.3635 5.216 9.6195 5.152 9.8755 5.12C10.0675 5.056 10.2595 5.12 10.4195 5.28C10.6115 5.44 10.7715 5.6 10.9315 5.792C11.1555 6.176 11.3475 6.56 11.5075 6.976C11.6675 7.36 11.7955 7.776 11.9235 8.16C11.9875 8.512 12.0515 8.864 12.1155 9.184C12.1795 9.504 12.2115 9.824 12.2435 10.144C12.2755 10.336 12.2435 10.496 12.1475 10.656C11.8275 11.296 11.6035 11.968 11.3795 12.64C11.1235 13.504 10.8995 14.4 10.6755 15.296C10.6115 15.584 10.5475 15.872 10.4835 16.16C10.3875 16.512 10.2595 16.864 10.0995 17.184C9.5555 18.432 8.9795 19.648 8.4355 20.896C7.9875 21.888 7.4435 22.816 6.8675 23.744C6.6115 24.128 6.3235 24.512 6.0675 24.896C5.6515 25.44 5.1715 25.984 4.6595 26.432C4.4035 26.624 4.1475 26.784 3.9235 26.944C3.8595 26.976 3.7955 27.008 3.7635 27.008C3.6995 27.04 3.6355 27.04 3.5715 27.04ZM18.1123 25.12C18.5603 25.216 18.9763 25.248 19.4243 25.12C19.5523 25.088 19.7123 25.056 19.8403 25.024C19.9043 24.992 19.9683 24.928 20.0003 24.896C20.3523 24.8 20.7363 24.64 21.0243 24.384C21.1523 24.256 21.2803 24.224 21.4083 24.128C21.5043 24.064 21.6003 23.936 21.6963 23.84C21.9203 23.712 22.0483 23.52 22.2083 23.328C22.3683 23.072 22.5603 22.88 22.7203 22.688C22.8803 22.528 22.9763 22.336 23.0723 22.144C23.1043 22.08 23.1363 21.984 23.2003 21.92C23.5523 21.408 23.7443 20.832 23.9683 20.256C24.2563 19.456 24.4163 18.528 24.4163 18.368C24.4163 18.176 24.4803 18.048 24.6403 17.92C24.8323 17.824 27.4883 16.32 27.5523 16.288C27.9683 16.064 27.6163 15.488 26.9763 15.808C26.7203 15.904 24.8963 16.864 24.6723 17.024C24.6083 17.056 24.5443 17.152 24.4483 17.088C24.4483 17.056 24.4483 16.992 24.4483 16.96C24.3843 16.704 24.3523 16.448 24.2563 16.192C24.1603 15.936 24.0323 15.68 23.8403 15.456C23.2643 14.752 22.5283 14.336 21.6003 14.368C21.4403 14.368 21.2803 14.4 21.1203 14.464C20.7043 14.624 20.3843 14.88 20.0963 15.168C20.0323 15.232 20.0323 15.296 19.9043 15.264C20.0323 14.784 20.1283 14.304 20.2243 13.856C20.2563 13.696 20.2883 13.568 20.3843 13.472C20.4803 13.344 20.5763 13.216 20.6403 13.088C21.0243 12.48 21.4083 11.872 21.7283 11.264C22.0163 10.752 22.3043 10.176 22.5923 9.632C22.9443 8.864 23.2963 8.064 23.5843 7.264C23.9363 6.208 24.2243 5.184 24.2883 4.064C24.3203 3.584 24.2563 3.072 24.1603 2.592C23.9043 1.824 23.0403 1.536 22.3363 1.888C22.2083 1.952 22.0803 2.08 21.9523 2.208C21.7283 2.432 21.5363 2.752 21.3763 3.04C21.1203 3.584 20.8643 4.128 20.6723 4.704C20.4803 5.12 20.3523 5.568 20.2243 5.984C20.0003 6.656 19.8083 7.296 19.5843 8C19.4563 8.544 19.3283 9.088 19.2003 9.632C19.0083 10.336 18.8803 11.072 18.7203 11.808C18.6243 12.192 18.5603 12.544 18.4643 12.928C18.4003 13.408 18.2723 13.856 18.2083 14.336C18.2083 14.304 17.8563 15.872 17.8563 15.904C17.7283 16.352 17.6323 16.768 17.5363 17.216C17.4403 17.728 17.3763 18.24 17.3123 18.72C17.2803 19.008 17.5043 19.456 17.9523 19.552C18.1123 19.616 18.2723 19.648 18.4643 19.648C18.6243 19.68 18.7203 19.584 18.8163 19.456C18.8803 19.264 18.9763 19.072 19.0403 18.88C19.3923 18.048 19.8083 17.28 20.2883 16.512C20.5443 16.16 20.8323 15.84 21.1843 15.552C21.3763 15.392 21.5363 15.264 21.7923 15.2C21.9843 15.136 22.1763 15.168 22.2723 15.36C22.4003 15.584 22.5283 15.808 22.5603 16.064C22.6243 16.48 22.6883 16.864 22.6563 17.28C22.6243 17.6 22.5923 17.92 22.5603 18.24C22.5283 18.432 22.4323 18.56 22.2723 18.656C21.2163 19.456 20.1923 20.224 19.1683 21.088C18.6563 21.536 18.1763 22.016 17.7283 22.528C17.5363 22.784 17.3123 23.136 17.2163 23.456C17.1203 23.744 17.0563 24 17.1523 24.288C17.3123 24.736 17.6323 24.992 18.1123 25.12ZM18.3363 24.128C18.2723 24.032 18.2723 23.904 18.3043 23.808C18.3363 23.616 18.4003 23.456 18.4643 23.296C18.6883 22.944 18.9443 22.592 19.2003 22.336C19.5843 21.952 19.9683 21.568 20.3523 21.216C20.8323 20.832 21.3443 20.448 21.7923 20.064C21.8563 20 21.9523 19.936 22.0163 19.904H22.0483C22.0163 20.032 22.0163 20.128 21.9843 20.224C21.8243 20.544 21.6323 20.864 21.4723 21.184C21.2803 21.568 21.0243 21.952 20.7363 22.24C20.6083 22.4 20.4803 22.528 20.3523 22.656C20.2243 22.784 20.0963 22.88 19.9683 23.008C19.6803 23.36 19.2963 23.584 18.9763 23.84C18.7843 23.968 18.5603 24.064 18.3363 24.128ZM20.9923 10.304H21.0243L21.2483 9.184C21.5363 8.064 21.8563 6.944 22.1763 5.792C22.3683 5.088 22.5283 4.416 22.7843 3.744C22.8483 3.584 22.9443 3.424 22.9763 3.264C23.0083 3.168 23.0723 3.104 23.1363 3.008C23.2003 3.264 23.2643 3.488 23.2323 3.712C23.2003 4.512 23.0403 5.28 22.8483 6.016C22.6563 6.656 22.4323 7.296 22.1763 7.904C21.7923 8.96 21.5683 9.376 20.9923 10.304ZM34.9233 25.696C35.1153 25.44 35.2753 25.152 35.4353 24.864C35.7233 24.384 36.0113 23.84 36.2353 23.328C36.4913 22.784 36.7153 22.176 36.9713 21.632C37.3873 20.736 37.8033 19.84 38.1873 18.944C38.3473 18.56 38.5393 18.144 38.6673 17.696C38.7313 17.536 39.1793 16.32 39.2113 16.064C39.3393 15.552 38.4113 15.424 38.1873 16C38.1233 16.192 37.6753 17.472 37.5793 17.632C37.2273 18.4 36.9073 19.2 36.5553 19.968C36.2353 20.736 35.8833 21.44 35.5633 22.176C34.7633 23.936 34.4113 24.832 34.0273 24.992C34.0273 24.96 33.9953 24.928 33.9953 24.928C33.8993 24.416 33.8993 23.904 33.8673 23.392C33.8673 22.4 33.9953 21.44 34.1873 20.48C34.2833 19.904 34.3793 19.36 34.5073 18.848C34.6673 18.144 34.8593 17.472 35.0193 16.768C35.1473 16.288 35.2753 15.776 35.4033 15.296C35.6593 14.176 34.7313 13.088 33.7073 13.856C33.4193 14.112 33.0993 14.4 32.8433 14.656C32.1073 15.456 31.4033 16.256 30.7313 17.12C30.1233 17.952 29.5153 18.752 29.0033 19.648C29.0033 19.68 28.9713 19.712 28.9393 19.744C28.8433 19.648 28.8433 19.552 28.8753 19.488C28.9393 19.136 29.0033 18.816 29.0673 18.496C29.0993 18.176 29.1313 17.856 29.1953 17.536C29.2593 17.184 29.5153 15.776 29.5473 15.616C29.6113 15.392 29.7073 15.2 29.8673 15.008C30.4113 14.432 30.9233 13.76 31.4353 13.088C31.9153 12.416 32.3953 11.68 32.8113 10.944C33.3873 9.952 33.8673 8.896 34.2833 7.808C34.5393 7.296 34.6993 6.752 34.8913 6.176C35.2433 5.248 35.4673 4.256 35.5633 3.264C35.5953 2.752 35.6273 2.272 35.4993 1.76C35.4673 1.632 35.4033 1.504 35.2433 1.408C35.0193 1.248 34.7633 1.088 34.5073 0.991999C34.0593 0.799999 33.6433 0.927999 33.1953 1.056C33.1953 1.056 33.1633 1.088 33.1313 1.088C32.6513 1.376 32.2993 1.824 32.0113 2.24C31.4033 3.072 30.9873 4 30.6033 4.896C30.4433 5.344 30.2513 5.824 30.1233 6.24C29.9633 6.688 29.8033 7.104 29.6753 7.552C29.6113 7.712 29.6113 7.872 29.5473 8.032C29.2593 8.704 29.0993 9.408 28.8753 10.144C28.7473 10.656 28.6193 11.168 28.4593 11.68C28.3313 12.416 28.1073 13.152 27.9793 13.888C27.7873 14.56 27.6593 15.232 27.5313 15.936C27.4353 16.384 27.2113 17.664 27.0513 18.976C26.9553 19.616 26.8913 20.224 26.8273 20.864C26.7633 21.376 26.7313 21.888 26.6673 22.4C26.6353 22.944 26.5393 23.456 26.6993 24C26.9553 24.448 27.6273 24.608 28.1073 24.256C28.1713 24.192 28.2353 24.128 28.2673 24.032C28.2673 23.872 28.3313 23.744 28.3953 23.616C28.5233 23.168 28.7153 22.72 28.8753 22.304C29.0673 21.888 29.2593 21.44 29.4513 21.056C29.7073 20.544 29.9633 20.032 30.2833 19.584C30.5393 19.2 30.7313 18.816 31.0193 18.464C31.2753 18.08 31.5953 17.696 31.8833 17.344C32.2353 16.896 32.5553 16.512 32.9393 16.096C33.0353 16 33.1313 15.904 33.2913 15.776C33.2913 15.84 33.2913 15.872 33.2913 15.904C33.1953 16.256 33.0993 16.608 33.0353 16.928C32.9393 17.216 32.8753 17.504 32.7793 17.76C32.7153 18.112 32.6833 18.4 32.5873 18.72C32.3313 19.68 32.1713 20.672 32.0433 21.696C31.9473 22.4 31.9473 23.136 32.0433 23.84C32.1073 24 32.1073 24.128 32.1393 24.256C32.2033 24.608 32.3633 24.96 32.5553 25.312C33.1313 26.368 34.5393 26.304 34.9233 25.696ZM30.2193 12.928C30.1873 12.928 30.1873 12.896 30.1553 12.896C30.1873 12.832 30.1873 12.768 30.1873 12.704C30.3793 11.968 30.5713 11.168 30.7953 10.432C30.9553 9.824 31.1473 9.152 31.3393 8.544C31.5313 8.032 31.6593 7.488 31.8513 6.976C32.0433 6.432 32.2993 5.888 32.4913 5.344C32.5873 5.152 32.6193 4.992 32.6833 4.832C32.9713 4.192 33.2913 3.552 33.7073 2.976C33.8353 2.784 33.9953 2.528 34.2193 2.368C34.3153 2.4 34.3153 2.464 34.3153 2.528C34.3153 2.976 34.3153 3.392 34.2513 3.808C34.0273 4.896 33.7393 5.984 33.3233 7.008C33.0993 7.712 32.8433 8.352 32.5553 9.024C32.2353 9.696 31.8833 10.4 31.4993 11.04C31.1153 11.616 30.7633 12.16 30.4113 12.704C30.3473 12.8 30.2833 12.864 30.2193 12.928ZM39.6335 23.552C40.1775 23.68 40.6895 23.456 41.1695 23.232C41.9055 22.784 42.5455 22.144 43.0575 21.472C43.3135 21.152 43.5695 20.832 43.8255 20.512C44.3375 19.808 46.1935 16.704 46.3215 16.224C46.5135 15.616 45.5855 15.36 45.3615 16.032C45.1055 16.544 43.1855 19.808 42.4175 20.736C41.9695 21.28 41.5215 21.824 40.9455 22.24C40.6895 22.432 40.4015 22.592 40.1135 22.72C39.9855 22.752 39.8575 22.784 39.7295 22.72C39.6335 22.592 39.6015 22.464 39.6015 22.304C39.5375 21.856 39.5695 21.344 39.6655 20.896C39.7615 20.512 39.8575 20.096 39.9855 19.712C40.0815 19.232 40.2415 18.784 40.3695 18.24C40.4655 17.888 40.5615 17.568 40.6895 17.216C40.7855 16.992 40.8495 16.736 40.9775 16.48C41.2975 15.52 41.5855 15.072 41.3615 14.528C41.1055 14.112 40.0495 14.112 39.7615 14.688C39.6975 14.816 39.6015 14.976 39.5375 15.104C39.2815 15.616 39.0575 16.128 38.8975 16.672C38.7375 17.184 38.5455 17.696 38.4175 18.176C38.2575 18.56 38.1935 18.944 38.0655 19.328C37.9695 19.584 37.9375 19.84 37.8735 20.096C37.7775 20.416 37.7455 20.768 37.7455 21.12C37.7775 21.664 37.9375 22.144 38.1935 22.592C38.5135 23.2 39.0255 23.488 39.6335 23.552ZM41.8735 12.416C42.4815 12.416 42.4815 11.488 42.3535 11.296C42.2255 11.072 41.7455 10.912 41.3295 10.944C41.1055 10.976 40.9775 11.136 40.9135 11.392C40.9135 11.488 40.9135 11.584 40.8815 11.68C40.8815 11.904 40.9775 12.064 41.1375 12.192C41.3615 12.32 41.6175 12.384 41.8735 12.416ZM51.5475 27.104C51.7395 27.04 51.8995 26.944 51.9955 26.784C52.1555 26.528 52.2835 26.24 52.4115 25.984C52.6675 25.504 52.8275 24.96 53.0195 24.448C53.2755 23.776 53.4995 23.04 53.7555 22.368C54.2035 21.248 54.9395 18.784 55.6435 16.64C55.8035 15.68 55.1315 15.712 54.9715 16.256C54.6835 16.96 54.4275 17.696 54.3315 17.952C54.1715 18.368 54.0115 18.784 53.8515 19.232C53.6915 19.68 53.5635 20.128 53.3715 20.576C53.1795 21.056 53.0195 21.568 52.8275 22.08C52.6995 22.432 52.6035 22.784 52.4755 23.136C52.2835 23.648 52.0915 24.16 51.8995 24.672C51.7715 25.056 51.6115 25.408 51.3875 25.76C51.3875 25.792 51.3235 25.824 51.2915 25.856C51.2595 25.504 51.2595 25.184 51.2275 24.896C51.2275 24.384 51.2275 23.872 51.2595 23.36C51.2915 22.976 51.2915 22.592 51.3555 22.208C51.3875 21.792 51.4835 21.376 51.5475 20.96C51.5795 20.704 51.6115 20.416 51.6755 20.128C51.7075 19.872 51.7715 19.616 51.8355 19.36C51.9955 18.56 52.1555 17.792 52.3795 17.024C52.4755 16.64 52.5075 16.256 52.5395 15.872C52.5395 15.712 52.4755 15.552 52.4115 15.424C52.2515 15.168 52.0595 15.008 51.7715 14.912C51.4515 14.816 51.1635 14.88 50.9075 15.136C50.8435 15.2 50.7475 15.296 50.6835 15.392C50.3955 15.776 50.1075 16.192 49.8835 16.608C49.5635 17.12 49.2435 17.632 48.9235 18.144C48.5715 18.656 48.1555 19.168 47.7715 19.68C47.7075 19.744 47.6435 19.84 47.5155 19.872C47.5155 19.808 47.5155 19.712 47.5155 19.648C47.5475 19.264 47.6115 18.848 47.6755 18.432C47.7395 17.952 47.8675 17.504 47.9635 17.024C48.0595 16.64 48.1235 16.256 48.2195 15.872C48.2835 15.648 48.3475 15.456 48.3795 15.264C48.5075 14.688 48.5395 13.728 47.9635 13.696C47.8355 13.696 47.7395 13.696 47.6115 13.696C47.3875 13.696 47.1955 13.792 47.0675 13.984C46.9715 14.112 46.9075 14.208 46.8435 14.336C46.6195 14.816 46.4595 15.328 46.2995 15.808C45.6595 18.144 45.4995 19.392 45.7235 20.192C45.7555 20.224 45.7555 20.288 45.7875 20.352C45.8195 20.416 45.8515 20.512 45.9155 20.608C46.2675 21.088 46.7475 21.344 47.3555 21.408C47.6115 21.44 47.8675 21.376 48.0595 21.184C48.2835 20.96 48.4755 20.704 48.6675 20.416C48.9555 19.936 49.2435 19.456 49.4995 18.976C49.6915 18.688 49.8195 18.4 50.0115 18.144C50.0755 18.016 50.1075 17.888 50.2675 17.792C50.2355 18.016 50.2035 18.144 50.1715 18.304C49.9795 19.04 49.8515 19.744 49.7235 20.448C49.5955 21.184 49.4995 21.888 49.4355 22.592C49.3715 23.264 49.3715 23.936 49.3715 24.608C49.3715 25.088 49.4675 25.536 49.5955 26.016C49.6915 26.368 49.8515 26.688 50.2035 26.912C50.6195 27.136 51.0675 27.232 51.5475 27.104ZM59.5608 25.408C60.2968 25.248 61.4488 23.232 61.8008 22.432C62.1528 21.696 62.4728 20.928 62.7928 20.192C63.4968 18.56 63.9768 17.344 64.4568 16.16C64.6168 15.552 63.8168 15.488 63.5928 16C63.4008 16.416 62.9208 17.504 62.7288 17.92C62.4728 18.528 62.1848 19.136 61.9288 19.744C61.7688 20.096 61.6088 20.448 61.4488 20.8C61.1608 21.504 60.8408 22.176 60.4888 22.816C60.3288 23.136 60.1048 23.424 59.9128 23.744C59.8808 23.776 59.8488 23.84 59.7848 23.808C59.7848 23.776 59.7848 23.744 59.7848 23.712C59.8488 23.136 59.9128 22.56 59.9768 21.952C60.0088 21.6 60.0408 21.248 60.1048 20.896C60.2008 20.384 60.3288 19.872 60.4568 19.36C60.6168 18.56 60.8408 17.792 61.0648 17.024C61.2568 16.384 61.4488 15.712 61.6088 15.04C61.6728 14.88 61.6728 14.688 61.7048 14.496C61.7368 14.336 61.7048 14.208 61.5448 14.112C61.2888 13.984 61.0328 13.856 60.7768 13.76C60.7128 13.728 60.6168 13.728 60.5528 13.76C60.3288 13.856 60.1368 14.016 60.0408 14.24C59.9768 14.336 59.9448 14.432 59.9128 14.528C59.8808 14.592 59.8168 14.624 59.7848 14.656C59.6248 14.528 59.4968 14.4 59.3368 14.304C58.8888 13.984 58.4088 13.92 57.8968 14.112C57.3848 14.272 56.9688 14.592 56.6488 15.04C56.4248 15.328 56.2648 15.616 56.1048 15.936C55.8808 16.288 55.7208 16.672 55.5608 17.056C55.2088 17.76 54.9528 18.464 54.7608 19.232C54.3768 20.672 54.1848 21.824 54.9528 22.336C55.0808 22.4 55.2088 22.464 55.3368 22.528C55.5928 22.688 55.9128 22.72 56.2008 22.624C56.8728 22.4 57.6408 21.6 57.9608 21.12C57.9928 21.088 58.0568 20.992 58.1208 20.928C58.1208 20.992 58.0888 21.12 58.0888 21.248C58.0248 21.792 57.9608 22.336 57.9928 22.848C57.9928 23.296 58.0568 23.744 58.1528 24.16C58.1848 24.384 58.2488 24.608 58.3448 24.8C58.5688 25.28 59.0808 25.504 59.5608 25.408ZM56.3288 21.312C56.2648 21.056 56.3288 20.832 56.3608 20.64C56.4888 20.096 56.6488 19.552 56.8088 19.008C56.9688 18.528 57.1288 18.112 57.3528 17.664C57.5128 17.312 57.6728 16.928 57.8648 16.576C58.0888 16.096 58.3128 15.648 58.6648 15.232C58.6968 15.2 58.7288 15.168 58.7928 15.136C58.8248 15.136 58.8248 15.136 58.8568 15.168C59.1128 15.712 59.3048 16.256 59.1448 16.832C59.0488 17.28 58.9528 17.696 58.7928 18.112C58.6648 18.496 58.4408 18.848 58.2168 19.168C57.8648 19.712 57.4808 20.224 57.0328 20.672C56.8408 20.864 56.6488 21.024 56.4568 21.216C56.4248 21.248 56.3928 21.248 56.3288 21.312ZM66.26 23.584C66.42 23.584 66.548 23.488 66.676 23.36C66.772 23.168 66.9 23.008 67.028 22.848C67.38 22.272 67.636 21.696 67.892 21.088C68.18 20.448 68.436 19.808 68.692 19.168C69.044 18.24 69.396 17.344 69.748 16.416C69.748 16.352 69.78 16.32 69.844 16.224C69.876 16.288 69.908 16.32 69.94 16.352C70.1 16.544 70.26 16.768 70.452 16.96C70.868 17.312 71.38 17.472 71.956 17.248C72.468 17.088 72.948 16.8 73.396 16.48C73.844 16.224 73.972 15.616 73.332 15.584C73.108 15.584 72.596 15.936 72.084 16.224C71.572 16.512 71.38 16.576 71.22 16.512C71.06 16.416 70.9 16.224 70.804 15.968C70.676 15.648 70.644 15.296 70.644 14.912C70.644 14.816 70.644 14.688 70.612 14.56C70.612 14.464 70.58 14.4 70.516 14.336C70.42 14.208 70.292 14.112 70.132 14.112C70.004 14.112 69.908 14.112 69.78 14.08C69.62 14.048 69.524 14.144 69.46 14.272C69.396 14.4 69.332 14.56 69.268 14.688C69.14 15.04 69.012 15.424 68.884 15.776C68.34 17.152 67.796 18.56 67.188 19.904C66.996 20.384 66.74 20.896 66.516 21.376C66.484 21.44 66.484 21.504 66.356 21.536C66.356 21.088 66.356 20.64 66.356 20.192C66.356 20.032 66.324 19.84 66.324 19.648C66.324 19.392 66.324 19.168 66.324 18.912C66.324 18.784 66.292 18.624 66.324 18.496C66.356 18.176 66.356 17.824 66.324 17.504C66.292 17.408 66.324 17.344 66.324 17.248C66.324 17.088 66.324 16.96 66.324 16.8C66.324 16.352 66.324 15.936 66.324 15.52C66.356 15.232 66.324 14.976 66.292 14.72C66.228 14.464 66.068 14.368 65.876 14.272C65.844 14.272 65.78 14.272 65.748 14.24C65.62 14.208 65.492 14.144 65.364 14.112C65.268 14.08 65.172 14.048 65.076 14.016C64.916 13.952 64.788 14.016 64.66 14.144C64.532 14.24 64.532 14.368 64.5 14.528C64.404 15.296 64.436 16 64.468 18.304C64.468 18.848 64.436 19.36 64.436 19.904C64.436 20.192 64.436 20.512 64.468 20.8C64.468 21.12 64.5 21.44 64.532 21.728C64.596 22.24 64.756 22.688 65.044 23.104C65.204 23.328 65.396 23.456 65.652 23.52C65.844 23.584 66.036 23.584 66.26 23.584ZM82.229 31.168C82.421 31.2 82.613 31.168 82.773 31.136C83.509 30.944 84.245 30.72 84.853 30.272C85.013 30.176 85.141 30.08 85.269 29.984C85.461 29.856 85.589 29.76 85.717 29.568C85.781 29.504 85.845 29.472 85.909 29.408C85.973 29.376 86.037 29.344 86.101 29.28C86.453 28.896 86.837 28.544 87.125 28.096C87.253 27.936 87.413 27.776 87.541 27.616C87.829 27.2 88.085 26.752 88.373 26.304C88.437 26.208 88.501 26.08 88.565 25.952C88.821 25.536 89.013 25.056 89.205 24.576C89.493 23.84 89.749 23.104 89.973 22.368C90.005 22.208 90.037 22.048 90.101 21.888C90.229 21.408 90.389 20.928 90.517 20.416C90.677 19.872 90.837 19.296 90.965 18.752C90.997 18.656 91.029 18.56 91.125 18.496C91.349 18.304 91.573 18.112 91.797 17.952C92.405 17.504 93.013 17.056 93.621 16.608C93.749 16.512 93.909 16.416 94.069 16.288C94.133 16.224 94.229 16.128 94.293 16.032C94.613 15.648 93.973 15.232 93.365 15.584C93.301 15.648 93.237 15.68 93.173 15.744C92.629 16.128 92.085 16.544 91.541 16.928C91.509 16.96 91.477 16.992 91.413 16.928C91.445 16.8 91.477 16.64 91.509 16.48C91.605 15.968 91.701 15.456 91.797 14.944C91.829 14.784 91.829 14.624 91.829 14.496C91.829 14.336 91.765 14.208 91.637 14.112C91.541 14.048 91.477 13.952 91.413 13.888C91.029 13.536 90.357 13.6 90.101 13.984C90.037 14.048 90.005 14.144 89.941 14.208C89.493 14.688 89.045 15.168 88.629 15.648C88.405 15.872 88.181 16.128 87.957 16.32C87.477 16.832 86.965 17.312 86.421 17.728C85.845 18.208 85.301 18.72 84.725 19.168C84.309 19.488 83.893 19.808 83.445 20.064C83.093 20.256 82.677 20.416 82.261 20.576C82.229 20.512 82.197 20.512 82.197 20.48C82.165 20.288 82.101 20.096 82.101 19.936C82.069 19.36 82.037 18.816 82.101 18.24C82.133 17.568 82.261 16.928 82.389 16.256C82.581 15.392 82.805 14.528 83.061 13.664C83.157 13.344 83.221 13.056 83.317 12.768C83.509 12.224 83.669 11.712 83.861 11.2C84.085 10.656 84.277 10.08 84.565 9.536C84.565 9.504 84.597 9.472 84.597 9.44C84.661 9.152 84.821 8.896 84.949 8.64C85.205 8.128 85.493 7.648 85.781 7.168C86.069 6.688 86.421 6.24 86.741 5.792C86.965 5.472 87.253 5.216 87.509 4.928C87.829 4.608 88.149 4.288 88.565 4.064C88.789 3.936 89.045 3.84 89.301 3.776C89.429 3.744 89.557 3.744 89.653 3.808C89.781 3.904 89.877 4 89.973 4.096C90.133 4.288 90.197 4.48 90.261 4.736C90.453 5.344 90.453 5.952 90.357 6.56C90.325 6.816 90.261 7.104 90.197 7.392C90.197 7.488 90.165 7.584 90.229 7.68C90.389 7.84 90.549 7.968 90.773 7.968C90.997 8 91.093 7.936 91.189 7.744C91.221 7.648 91.253 7.584 91.253 7.52C91.317 7.168 91.349 6.848 91.413 6.496C91.509 5.984 91.477 5.504 91.381 4.992C91.221 4.384 90.997 3.872 90.517 3.456C90.037 3.072 89.493 2.848 88.885 2.848C88.405 2.848 87.957 2.976 87.541 3.168C87.093 3.36 86.709 3.68 86.293 3.904C86.261 3.936 86.229 3.936 86.229 3.968C85.877 4.288 85.525 4.576 85.205 4.928C84.725 5.472 84.277 6.048 83.925 6.688C83.669 7.072 83.445 7.488 83.253 7.904C82.965 8.384 82.741 8.896 82.549 9.408C82.325 9.92 82.133 10.464 81.941 10.976C81.781 11.392 81.621 11.808 81.493 12.224C81.269 13.024 81.013 13.856 80.789 14.688C80.629 15.36 80.469 16.064 80.373 16.768C80.309 17.152 80.245 17.568 80.213 17.952C80.181 18.336 80.117 18.688 80.149 19.072C80.181 19.296 80.245 19.52 80.245 19.712C80.277 20.032 80.405 20.288 80.533 20.544C80.629 20.768 80.821 20.96 80.981 21.152C81.173 21.376 81.461 21.504 81.749 21.536C81.941 21.568 82.133 21.568 82.325 21.568C82.453 21.6 82.581 21.568 82.709 21.536C83.317 21.408 83.829 21.088 84.341 20.736C84.949 20.32 85.557 19.84 86.133 19.36C86.549 18.976 87.029 18.624 87.445 18.24C88.149 17.632 88.821 16.992 89.461 16.32C89.493 16.288 89.525 16.224 89.589 16.288C89.589 16.352 89.589 16.448 89.557 16.512C89.461 16.864 89.397 17.184 89.301 17.536C89.205 17.888 89.109 18.24 89.045 18.624C88.981 18.816 88.885 19.008 88.693 19.168C88.309 19.424 87.957 19.744 87.605 20.032C87.189 20.384 86.741 20.736 86.325 21.12C85.973 21.472 85.621 21.792 85.237 22.144C84.981 22.4 84.757 22.656 84.501 22.912C83.893 23.52 83.317 24.16 82.805 24.832C82.389 25.344 82.037 25.888 81.653 26.464C81.333 26.944 81.045 27.456 80.821 28C80.565 28.672 80.437 29.376 80.597 30.112C80.661 30.336 80.789 30.56 80.981 30.72C81.333 31.008 81.781 31.136 82.229 31.168ZM81.813 30.272C81.685 30.112 81.653 29.984 81.621 29.824C81.557 29.248 81.685 28.672 81.909 28.128C82.165 27.52 82.517 26.976 82.869 26.432C83.477 25.408 84.213 24.48 85.077 23.648C85.557 23.168 86.069 22.656 86.581 22.208C86.997 21.792 87.445 21.44 87.893 21.056C88.053 20.928 88.213 20.768 88.405 20.64C88.469 20.704 88.437 20.768 88.437 20.8C88.341 21.184 88.213 21.568 88.085 21.952C87.861 22.72 87.605 23.52 87.285 24.256C86.997 24.928 86.645 25.568 86.293 26.176C86.069 26.56 85.781 26.88 85.525 27.232C85.237 27.648 84.917 28.064 84.565 28.448C84.213 28.832 83.829 29.216 83.413 29.536C82.997 29.824 82.581 30.08 82.101 30.208C82.037 30.24 81.973 30.24 81.941 30.272C81.909 30.272 81.845 30.272 81.813 30.272ZM99.4725 23.104C99.6325 23.104 99.7925 23.104 99.9525 23.04C101.649 22.176 102.833 18.752 104.369 16.16C104.657 15.68 103.793 15.072 103.409 15.904C102.833 16.768 101.009 20.704 99.7285 22.112C99.6965 22.144 99.6325 22.144 99.5685 22.176C99.5365 21.92 99.5365 21.664 99.5685 21.44C99.6005 21.12 99.6645 20.832 99.6965 20.512C99.7925 20 99.8565 19.488 99.9525 18.976C100.017 18.656 100.081 18.336 100.145 18.016C100.241 17.632 100.337 17.248 100.433 16.864C100.529 16.48 100.625 16.064 100.721 15.68C100.753 15.488 100.753 15.264 100.721 15.072C100.625 14.976 100.529 14.88 100.433 14.816C100.177 14.592 99.4085 14.464 99.2165 14.976C99.1205 15.232 98.9925 15.488 98.8965 15.744C98.8325 15.904 98.7685 16.032 98.6725 16.192C98.2565 16.928 97.7765 17.6 97.2645 18.24C97.0405 18.496 96.8485 18.752 96.6245 19.008C96.2085 19.488 95.7605 19.968 95.2485 20.384C95.1525 20.48 95.0245 20.544 94.9285 20.608C94.8325 20.672 94.8645 20.544 94.8645 20.544C94.9605 20.064 95.0245 19.552 95.1205 19.072C95.2485 18.496 95.3765 17.952 95.5045 17.408C95.6005 16.928 95.6965 16.416 95.8245 15.936C95.9205 15.616 95.9525 15.296 95.9845 14.976C96.0165 14.752 95.9205 14.624 95.7605 14.528C95.4405 14.304 94.7045 14.336 94.5445 14.784C94.3845 15.2 94.1925 15.616 94.0645 16.064C93.6805 17.056 93.3925 18.112 93.2645 19.2C93.2005 19.552 93.1685 19.904 93.1685 20.256C93.1685 20.512 93.2005 20.736 93.2965 20.992C93.6805 21.856 94.8645 21.824 95.0885 21.728C95.2485 21.664 95.3765 21.568 95.5045 21.504C95.8885 21.216 96.2085 20.928 96.5285 20.576C96.9765 20.064 97.3925 19.552 97.7765 19.008C97.8405 18.944 97.9045 18.848 98.0005 18.848C97.9685 19.072 97.9045 19.456 97.8725 20.032C97.8405 20.416 97.8085 20.768 97.8405 21.152C97.8725 21.6 97.9685 22.048 98.2565 22.464C98.5445 22.848 98.9605 23.072 99.4725 23.104ZM98.711 37.824C99.127 37.952 99.511 37.92 99.863 37.6C100.023 37.504 100.151 37.344 100.247 37.184C100.631 36.736 100.887 36.256 101.143 35.744C101.527 34.944 101.847 34.112 102.135 33.312C102.487 32.288 102.775 31.296 103.063 30.24C103.191 29.728 103.319 29.184 103.447 28.672C103.639 27.84 103.831 26.944 104.023 26.112C104.151 25.664 104.151 25.216 104.343 24.8C104.343 24.768 104.343 24.736 104.311 24.704C104.343 24.544 104.375 24.416 104.407 24.256C104.503 23.776 104.631 23.264 104.695 22.752C104.791 22.464 104.855 22.144 104.887 21.856C104.983 21.472 105.079 21.088 105.175 20.672C105.207 20.512 105.271 20.352 105.367 20.192C105.559 19.84 105.783 19.552 105.943 19.232C106.263 18.784 106.551 18.304 106.903 17.888C107.191 17.536 107.543 17.152 107.831 16.8C108.247 16.288 108.759 15.904 109.207 15.488C109.399 15.328 109.751 15.104 109.943 15.264C110.167 15.584 110.231 16.768 110.167 17.568C110.135 17.76 110.039 17.856 109.879 17.984C109.495 18.24 109.143 18.496 108.759 18.784C108.215 19.136 107.799 19.584 107.351 20.032C107.127 20.32 106.903 20.576 106.743 20.896C106.519 21.376 106.487 21.888 106.711 22.4C106.903 22.88 107.287 23.168 107.799 23.232C108.215 23.264 108.631 23.168 108.983 22.944C109.271 22.752 109.591 22.528 109.879 22.304C110.103 22.048 110.327 21.824 110.551 21.6C110.839 21.344 110.999 20.992 111.159 20.672C111.287 20.448 111.383 20.192 111.447 19.968C111.703 19.392 111.863 18.848 111.927 18.272C111.959 18.08 112.023 17.888 112.055 17.664C113.111 16.992 114.295 16.608 115.031 16.288C115.511 16.128 115.319 15.36 114.423 15.616C113.719 15.776 112.887 16.288 112.023 16.704C111.959 16.384 111.735 15.264 111.127 14.88C110.903 14.72 110.711 14.592 110.487 14.464C110.327 14.368 110.167 14.304 110.007 14.24C109.751 14.176 109.495 14.208 109.239 14.272C108.855 14.432 108.535 14.624 108.247 14.88C107.767 15.328 107.319 15.776 106.903 16.288C106.583 16.64 106.327 16.992 106.039 17.344C106.007 17.376 105.943 17.408 105.879 17.472C105.911 17.408 105.911 17.376 105.911 17.344C106.039 16.8 106.167 16.256 106.295 15.68C106.391 15.232 106.455 14.784 106.583 14.336C106.679 13.792 106.711 13.248 106.711 12.704C106.711 12.64 106.679 12.544 106.647 12.48C106.519 12.224 106.327 12.064 106.007 12.096C105.943 12.096 105.911 12.064 105.847 12.064C105.623 12 105.463 12.096 105.399 12.288C105.303 12.512 105.207 12.672 105.143 12.864C104.951 13.6 104.759 14.304 104.567 15.04C104.343 15.936 104.119 16.8 103.895 17.664C103.671 18.752 103.383 19.808 103.159 20.864C103.095 21.376 102.967 21.856 102.839 22.4C102.807 22.528 102.743 22.688 102.679 22.848C102.199 23.68 101.719 24.512 101.271 25.344C100.855 26.176 100.439 26.976 100.023 27.808C99.479 28.864 98.999 29.952 98.647 31.072C98.263 32.16 97.911 33.248 97.719 34.4C97.623 34.88 97.559 35.36 97.591 35.872C97.591 36.16 97.623 36.48 97.687 36.768C97.879 37.28 98.167 37.696 98.711 37.824ZM98.839 36.832C98.743 36.512 98.743 36.256 98.743 36C98.711 35.392 98.807 34.752 98.903 34.176C99.063 33.248 99.319 32.352 99.639 31.456C99.895 30.656 100.215 29.888 100.567 29.12C100.823 28.608 101.079 28.096 101.367 27.552C101.495 27.232 101.687 26.88 101.879 26.56C101.879 26.496 101.911 26.464 102.007 26.368C101.975 26.528 101.975 26.624 101.943 26.72C101.815 27.328 101.687 27.936 101.559 28.512C101.367 29.472 101.143 30.464 100.887 31.424C100.599 32.544 100.279 33.664 99.927 34.752C99.767 35.232 99.575 35.712 99.287 36.192C99.223 36.384 99.095 36.544 98.999 36.736C98.967 36.768 98.903 36.768 98.839 36.832ZM107.671 22.24C107.479 21.856 107.543 21.504 107.735 21.152C107.959 20.704 108.311 20.256 108.695 19.904C108.951 19.68 109.239 19.424 109.527 19.232C109.559 19.2 109.623 19.168 109.687 19.136C109.623 19.488 109.495 19.776 109.335 20.064C109.015 20.704 108.663 21.312 108.151 21.824C107.991 21.984 107.895 22.144 107.671 22.24ZM115.308 27.968C115.532 27.968 115.756 28 115.948 27.872C116.14 27.744 116.3 27.648 116.428 27.488C116.652 27.264 116.844 27.008 117.004 26.752C117.324 26.272 117.612 25.76 117.868 25.28C118.06 24.768 118.252 24.256 118.508 23.744C119.02 22.464 119.5 21.216 119.948 19.904C120.204 19.168 120.716 17.088 120.94 16.352C121.1 15.648 120.332 15.424 120.012 16.224C119.724 17.216 118.86 19.904 118.476 20.896C118.092 21.952 117.676 23.008 117.228 24.064C116.876 24.8 116.492 25.472 116.076 26.144C115.916 26.4 115.724 26.624 115.5 26.816C115.468 26.784 115.436 26.784 115.436 26.752C115.404 26.72 115.404 26.656 115.436 26.592C115.436 25.984 115.436 25.344 115.5 24.704C115.532 24.32 115.596 23.936 115.628 23.52C115.66 23.2 115.692 22.88 115.756 22.56C115.916 21.312 116.332 19.136 116.556 17.824C116.588 17.536 116.62 17.248 116.684 17.024C116.812 16.448 116.908 15.872 117.004 15.296C117.036 15.136 117.1 14.976 117.196 14.848C117.516 14.432 117.804 13.984 118.028 13.568C118.476 12.864 118.86 12.16 119.212 11.456C119.436 10.944 119.66 10.432 119.852 9.92C119.884 9.824 119.916 9.728 119.98 9.632L120.332 8.512C121.068 8.416 121.804 8.32 122.54 8.224C122.956 8.192 123.34 8.128 123.724 8.096C124.268 8.064 124.78 8.032 125.324 7.968C126.06 7.872 125.868 6.976 125.036 6.976C124.716 6.976 124.428 6.976 124.108 7.008C123.372 7.04 122.668 7.136 121.964 7.232C121.804 7.264 121.676 7.296 121.548 7.296C121.26 7.36 120.972 7.392 120.684 7.424C120.812 6.944 120.908 6.432 121.036 5.952C121.1 5.664 121.132 5.408 121.164 5.12C121.324 4.352 121.356 3.584 121.26 2.848C121.228 2.624 121.132 2.432 120.972 2.304C120.684 2.08 119.98 2.016 119.724 2.208C119.596 2.336 119.404 2.432 119.308 2.56C118.956 2.976 118.636 3.456 118.38 4C118.156 4.608 117.9 5.184 117.708 5.792C117.484 6.336 117.324 6.912 117.132 7.456C117.068 7.648 117.036 7.84 116.94 8.064C116.908 8.064 116.876 8.096 116.844 8.096C116.076 8.224 115.276 8.416 114.508 8.608C114.092 8.704 113.644 8.8 113.196 8.96C112.812 9.088 112.428 9.248 112.044 9.408C111.276 9.696 111.596 10.56 112.364 10.336C112.556 10.272 112.748 10.208 112.908 10.144C113.356 9.952 113.836 9.824 114.316 9.696C115.02 9.536 115.724 9.344 116.428 9.216C116.492 9.216 116.524 9.216 116.588 9.216L116.332 9.984L116.268 10.208C116.044 10.976 115.852 11.712 115.628 12.48C115.596 12.672 115.532 12.864 115.5 13.024C115.308 13.856 115.148 14.72 114.988 15.552C114.988 15.616 114.828 16.384 114.764 16.832C114.636 17.472 114.476 18.112 114.412 18.752C114.284 19.36 114.188 19.936 114.092 20.544C114.06 20.864 114.028 21.184 113.996 21.472C113.868 22.112 113.804 22.752 113.74 23.392C113.708 23.936 113.644 24.512 113.708 25.056C113.708 25.28 113.708 25.504 113.74 25.728C113.772 26.176 113.868 26.592 114.028 27.008C114.252 27.52 114.54 27.872 115.116 27.904C115.18 27.904 115.244 27.936 115.308 27.968ZM117.836 11.84C117.836 11.84 118.028 11.104 118.06 10.944C118.188 10.496 118.444 9.504 118.508 9.28C118.54 9.12 118.604 8.96 118.668 8.8C118.828 8.768 119.02 8.736 119.212 8.704C119.052 9.088 118.7 10.112 118.54 10.464C118.188 11.232 117.836 11.84 117.836 11.84ZM119.052 7.68C119.18 7.264 119.084 7.616 119.34 6.72C119.564 6.048 119.788 5.344 120.044 4.672C120.076 4.608 120.076 4.544 120.172 4.48C120.236 5.152 119.916 6.336 119.564 7.584C119.372 7.616 119.212 7.648 119.052 7.68ZM124.593 25.408C125.329 25.248 126.481 23.232 126.833 22.432C127.185 21.696 127.505 20.928 127.825 20.192C128.529 18.56 129.009 17.344 129.489 16.16C129.649 15.552 128.849 15.488 128.625 16C128.433 16.416 127.953 17.504 127.761 17.92C127.505 18.528 127.217 19.136 126.961 19.744C126.801 20.096 126.641 20.448 126.481 20.8C126.193 21.504 125.873 22.176 125.521 22.816C125.361 23.136 125.137 23.424 124.945 23.744C124.913 23.776 124.881 23.84 124.817 23.808C124.817 23.776 124.817 23.744 124.817 23.712C124.881 23.136 124.945 22.56 125.009 21.952C125.041 21.6 125.073 21.248 125.137 20.896C125.233 20.384 125.361 19.872 125.489 19.36C125.649 18.56 125.873 17.792 126.097 17.024C126.289 16.384 126.481 15.712 126.641 15.04C126.705 14.88 126.705 14.688 126.737 14.496C126.769 14.336 126.737 14.208 126.577 14.112C126.321 13.984 126.065 13.856 125.809 13.76C125.745 13.728 125.649 13.728 125.585 13.76C125.361 13.856 125.169 14.016 125.073 14.24C125.009 14.336 124.977 14.432 124.945 14.528C124.913 14.592 124.849 14.624 124.817 14.656C124.657 14.528 124.529 14.4 124.369 14.304C123.921 13.984 123.441 13.92 122.929 14.112C122.417 14.272 122.001 14.592 121.681 15.04C121.457 15.328 121.297 15.616 121.137 15.936C120.913 16.288 120.753 16.672 120.593 17.056C120.241 17.76 119.985 18.464 119.793 19.232C119.409 20.672 119.217 21.824 119.985 22.336C120.113 22.4 120.241 22.464 120.369 22.528C120.625 22.688 120.945 22.72 121.233 22.624C121.905 22.4 122.673 21.6 122.993 21.12C123.025 21.088 123.089 20.992 123.153 20.928C123.153 20.992 123.121 21.12 123.121 21.248C123.057 21.792 122.993 22.336 123.025 22.848C123.025 23.296 123.089 23.744 123.185 24.16C123.217 24.384 123.281 24.608 123.377 24.8C123.601 25.28 124.113 25.504 124.593 25.408ZM121.361 21.312C121.297 21.056 121.361 20.832 121.393 20.64C121.521 20.096 121.681 19.552 121.841 19.008C122.001 18.528 122.161 18.112 122.385 17.664C122.545 17.312 122.705 16.928 122.897 16.576C123.121 16.096 123.345 15.648 123.697 15.232C123.729 15.2 123.761 15.168 123.825 15.136C123.857 15.136 123.857 15.136 123.889 15.168C124.145 15.712 124.337 16.256 124.177 16.832C124.081 17.28 123.985 17.696 123.825 18.112C123.697 18.496 123.473 18.848 123.249 19.168C122.897 19.712 122.513 20.224 122.065 20.672C121.873 20.864 121.681 21.024 121.489 21.216C121.457 21.248 121.425 21.248 121.361 21.312Z" fill="white"/>
</svg>
