<svg width="493" height="493" viewBox="0 0 493 493" fill="none" xmlns="http://www.w3.org/2000/svg">
<mask id="path-1-outside-1_1595_1582" maskUnits="userSpaceOnUse" x="435.979" y="244.214" width="44.3364" height="41.6265" fill="black">
<rect fill="white" x="435.979" y="244.214" width="44.3364" height="41.6265"/>
<path d="M463.258 274.69C464.196 274.638 465.065 274.408 465.864 273.998C466.697 273.591 467.438 273.055 468.088 272.389C468.738 271.723 469.26 270.941 469.654 270.044C470.08 269.185 470.339 268.258 470.431 267.264C470.6 265.447 470.383 263.87 469.781 262.535C469.213 261.203 468.365 260.087 467.238 259.187C466.146 258.29 464.863 257.583 463.389 257.066C461.913 256.583 460.369 256.267 458.757 256.117C457.214 255.974 455.69 256.005 454.184 256.211C452.709 256.455 451.352 256.917 450.113 257.597C448.874 258.278 447.836 259.219 446.998 260.42C446.195 261.625 445.709 263.136 445.54 264.953C445.311 267.422 445.887 269.412 447.268 270.923C448.646 272.469 450.555 273.511 452.995 274.048L452.27 281.865C449.992 281.447 447.967 280.723 446.195 279.694C444.423 278.665 442.951 277.387 441.778 275.86C440.606 274.334 439.765 272.596 439.254 270.646C438.743 268.697 438.593 266.591 438.803 264.328C439.064 261.517 439.779 259.024 440.949 256.85C442.15 254.714 443.68 252.954 445.537 251.57C447.395 250.187 449.51 249.19 451.884 248.58C454.291 247.974 456.832 247.795 459.507 248.043C462.249 248.298 464.748 248.944 467.003 249.984C469.293 251.026 471.24 252.4 472.845 254.105C474.451 255.81 475.647 257.823 476.435 260.144C477.219 262.499 477.48 265.082 477.219 267.894C477.032 269.917 476.564 271.792 475.815 273.521C475.064 275.284 474.057 276.816 472.795 278.117C471.565 279.455 470.083 280.51 468.352 281.283C466.62 282.056 464.68 282.464 462.532 282.507L463.258 274.69Z"/>
</mask>
<path d="M463.258 274.69L463.203 273.691L462.342 273.738L462.262 274.597L463.258 274.69ZM465.864 273.998L465.425 273.099L465.416 273.104L465.407 273.108L465.864 273.998ZM469.654 270.044L468.758 269.601L468.748 269.621L468.739 269.642L469.654 270.044ZM469.781 262.535L468.861 262.927L468.865 262.937L468.869 262.946L469.781 262.535ZM467.238 259.187L466.604 259.96L466.614 259.968L467.238 259.187ZM463.389 257.066L463.721 256.122L463.71 256.119L463.7 256.115L463.389 257.066ZM454.184 256.211L454.048 255.221L454.035 255.223L454.021 255.225L454.184 256.211ZM450.113 257.597L449.632 256.721L450.113 257.597ZM446.998 260.42L446.178 259.848L446.172 259.857L446.166 259.866L446.998 260.42ZM447.268 270.923L448.015 270.258L448.006 270.249L447.268 270.923ZM452.995 274.048L453.991 274.141L454.072 273.262L453.21 273.072L452.995 274.048ZM452.27 281.865L452.089 282.849L453.164 283.047L453.265 281.958L452.27 281.865ZM446.195 279.694L445.693 280.558L446.195 279.694ZM441.778 275.86L442.572 275.251L441.778 275.86ZM439.254 270.646L438.287 270.9L439.254 270.646ZM440.949 256.85L440.078 256.36L440.073 256.368L440.069 256.376L440.949 256.85ZM445.537 251.57L446.135 252.372L445.537 251.57ZM451.884 248.58L451.639 247.611L451.635 247.612L451.884 248.58ZM467.003 249.984L466.585 250.892L466.589 250.894L467.003 249.984ZM472.845 254.105L472.117 254.791L472.845 254.105ZM476.435 260.144L477.383 259.828L477.381 259.823L476.435 260.144ZM475.815 273.521L474.898 273.124L474.895 273.129L475.815 273.521ZM472.795 278.117L472.078 277.42L472.068 277.43L472.059 277.44L472.795 278.117ZM468.352 281.283L468.759 282.196L468.759 282.196L468.352 281.283ZM462.532 282.507L461.537 282.414L461.433 283.529L462.552 283.507L462.532 282.507ZM463.312 275.688C464.384 275.63 465.391 275.365 466.32 274.888L465.407 273.108C464.739 273.451 464.008 273.647 463.203 273.691L463.312 275.688ZM466.303 274.896C467.239 274.439 468.074 273.835 468.804 273.087L467.372 271.691C466.802 272.275 466.155 272.743 465.425 273.099L466.303 274.896ZM468.804 273.087C469.542 272.331 470.129 271.448 470.57 270.447L468.739 269.642C468.39 270.435 467.934 271.115 467.372 271.691L468.804 273.087ZM470.55 270.488C471.033 269.514 471.324 268.467 471.427 267.356L469.435 267.171C469.354 268.048 469.127 268.856 468.758 269.601L470.55 270.488ZM471.427 267.356C471.607 265.408 471.381 263.651 470.692 262.124L468.869 262.946C469.385 264.089 469.592 265.485 469.435 267.171L471.427 267.356ZM470.701 262.143C470.068 260.659 469.119 259.409 467.863 258.405L466.614 259.968C467.611 260.764 468.357 261.746 468.861 262.927L470.701 262.143ZM467.873 258.414C466.681 257.435 465.293 256.674 463.721 256.122L463.058 258.009C464.433 258.492 465.611 259.144 466.604 259.96L467.873 258.414ZM463.7 256.115C462.15 255.608 460.532 255.278 458.85 255.121L458.665 257.113C460.205 257.256 461.676 257.558 463.079 258.016L463.7 256.115ZM458.85 255.121C457.232 254.971 455.631 255.004 454.048 255.221L454.319 257.202C455.748 257.007 457.196 256.977 458.665 257.113L458.85 255.121ZM454.021 255.225C452.441 255.486 450.975 255.983 449.632 256.721L450.594 258.474C451.729 257.851 452.977 257.424 454.347 257.198L454.021 255.225ZM449.632 256.721C448.253 257.478 447.1 258.525 446.178 259.848L447.818 260.992C448.571 259.912 449.495 259.077 450.594 258.474L449.632 256.721ZM446.166 259.866C445.25 261.24 444.724 262.921 444.544 264.861L446.536 265.046C446.693 263.352 447.14 262.01 447.83 260.975L446.166 259.866ZM444.544 264.861C444.295 267.546 444.919 269.835 446.53 271.598L448.006 270.249C446.855 268.988 446.327 267.298 446.536 265.046L444.544 264.861ZM446.522 271.589C448.067 273.322 450.178 274.452 452.78 275.025L453.21 273.072C450.932 272.57 449.226 271.616 448.015 270.258L446.522 271.589ZM451.999 273.956L451.274 281.773L453.265 281.958L453.991 274.141L451.999 273.956ZM452.45 280.882C450.271 280.481 448.357 279.793 446.697 278.829L445.693 280.558C447.576 281.652 449.712 282.412 452.089 282.849L452.45 280.882ZM446.697 278.829C445.03 277.861 443.66 276.668 442.572 275.251L440.985 276.469C442.242 278.106 443.815 279.468 445.693 280.558L446.697 278.829ZM442.572 275.251C441.484 273.835 440.7 272.219 440.221 270.393L438.287 270.9C438.829 272.972 439.728 274.832 440.985 276.469L442.572 275.251ZM440.221 270.393C439.744 268.57 439.598 266.582 439.799 264.42L437.807 264.236C437.588 266.6 437.743 268.824 438.287 270.9L440.221 270.393ZM439.799 264.42C440.049 261.724 440.732 259.364 441.83 257.324L440.069 256.376C438.827 258.684 438.079 261.31 437.807 264.236L439.799 264.42ZM441.821 257.34C442.958 255.319 444.396 253.668 446.135 252.372L444.94 250.768C442.964 252.241 441.343 254.109 440.078 256.36L441.821 257.34ZM446.135 252.372C447.882 251.071 449.877 250.128 452.132 249.549L451.635 247.612C449.143 248.252 446.907 249.303 444.94 250.768L446.135 252.372ZM452.128 249.55C454.417 248.973 456.844 248.8 459.414 249.039L459.599 247.047C456.821 246.789 454.166 246.974 451.639 247.611L452.128 249.55ZM459.414 249.039C462.056 249.284 464.443 249.905 466.585 250.892L467.422 249.076C465.053 247.984 462.442 247.311 459.599 247.047L459.414 249.039ZM466.589 250.894C468.769 251.886 470.607 253.187 472.117 254.791L473.573 253.42C471.873 251.613 469.816 250.166 467.418 249.074L466.589 250.894ZM472.117 254.791C473.62 256.386 474.744 258.274 475.488 260.465L477.381 259.823C476.55 257.373 475.282 255.234 473.573 253.42L472.117 254.791ZM475.486 260.46C476.221 262.667 476.474 265.109 476.224 267.801L478.215 267.986C478.487 265.056 478.217 262.331 477.383 259.828L475.486 260.46ZM476.224 267.801C476.045 269.727 475.601 271.499 474.898 273.124L476.733 273.918C477.527 272.085 478.018 270.106 478.215 267.986L476.224 267.801ZM474.895 273.129C474.189 274.786 473.249 276.213 472.078 277.42L473.513 278.813C474.865 277.419 475.938 275.783 476.735 273.913L474.895 273.129ZM472.059 277.44C470.925 278.673 469.557 279.65 467.944 280.37L468.759 282.196C470.61 281.37 472.204 280.236 473.531 278.794L472.059 277.44ZM467.944 280.37C466.35 281.082 464.544 281.467 462.512 281.507L462.552 283.507C464.816 283.462 466.89 283.031 468.759 282.196L467.944 280.37ZM463.528 282.599L464.254 274.782L462.262 274.597L461.537 282.414L463.528 282.599Z" fill="white" mask="url(#path-1-outside-1_1595_1582)"/>
<mask id="path-3-outside-2_1595_1582" maskUnits="userSpaceOnUse" x="426.905" y="282.853" width="47.4252" height="45.3703" fill="black">
<rect fill="white" x="426.905" y="282.853" width="47.4252" height="45.3703"/>
<path d="M454.546 298.002L452.093 306.54C451.579 308.327 451.591 309.782 452.129 310.904C452.666 312.025 453.829 312.843 455.616 313.356C457.337 313.851 458.706 313.761 459.724 313.086C460.775 312.421 461.557 311.194 462.071 309.407L464.524 300.869L454.546 298.002ZM472.819 294.816L467.328 313.927C466.872 315.516 466.198 316.863 465.307 317.968C464.44 319.116 463.431 320.009 462.281 320.645C461.121 321.315 459.879 321.711 458.554 321.832C457.253 321.995 455.925 321.882 454.568 321.492C452.483 320.893 450.808 319.928 449.542 318.597C448.267 317.299 447.518 315.544 447.294 313.33L447.195 313.301C446.654 314.185 446.012 314.86 445.269 315.327C444.559 315.804 443.766 316.132 442.891 316.31C442.049 316.498 441.157 316.546 440.216 316.455C439.265 316.397 438.334 316.272 437.421 316.082C436.849 315.953 436.178 315.796 435.407 315.611C434.636 315.425 433.845 315.251 433.031 315.089C432.208 314.96 431.409 314.874 430.634 314.83C429.882 314.829 429.205 314.939 428.604 315.16L430.844 307.367C432.092 307.26 433.509 307.38 435.093 307.728C436.677 308.076 438.209 308.355 439.689 308.565C441.618 308.833 443.136 308.66 444.244 308.047C445.352 307.434 446.186 306.151 446.747 304.198L448.986 296.405L435.137 292.425L437.376 284.632L472.819 294.816Z"/>
</mask>
<path d="M454.546 298.002L454.822 297.041L453.861 296.765L453.585 297.726L454.546 298.002ZM459.724 313.086L459.189 312.241L459.18 312.247L459.171 312.252L459.724 313.086ZM464.524 300.869L465.485 301.145L465.761 300.184L464.8 299.908L464.524 300.869ZM472.819 294.816L473.78 295.092L474.057 294.131L473.096 293.855L472.819 294.816ZM465.307 317.968L464.528 317.341L464.519 317.353L464.509 317.365L465.307 317.968ZM462.281 320.645L461.796 319.77L461.788 319.775L461.781 319.779L462.281 320.645ZM458.554 321.832L458.463 320.836L458.446 320.837L458.43 320.839L458.554 321.832ZM449.542 318.597L450.267 317.908L450.261 317.902L450.255 317.896L449.542 318.597ZM447.294 313.33L448.289 313.229L448.221 312.556L447.57 312.369L447.294 313.33ZM447.195 313.301L447.471 312.34L446.739 312.13L446.342 312.779L447.195 313.301ZM445.269 315.327L444.737 314.481L444.724 314.489L444.712 314.497L445.269 315.327ZM442.891 316.31L442.691 315.33L442.682 315.332L442.673 315.334L442.891 316.31ZM440.216 316.455L440.313 315.46L440.295 315.458L440.277 315.457L440.216 316.455ZM437.421 316.082L437.202 317.057L437.209 317.059L437.217 317.061L437.421 316.082ZM433.031 315.089L433.227 314.108L433.206 314.104L433.186 314.101L433.031 315.089ZM430.634 314.83L430.69 313.832L430.663 313.83L430.635 313.83L430.634 314.83ZM428.604 315.16L427.643 314.884L427.098 316.781L428.95 316.099L428.604 315.16ZM430.844 307.367L430.758 306.371L430.072 306.429L429.882 307.091L430.844 307.367ZM435.093 307.728L434.878 308.705L435.093 307.728ZM439.689 308.565L439.548 309.555L439.551 309.555L439.689 308.565ZM444.244 308.047L444.728 308.922L444.244 308.047ZM448.986 296.405L449.948 296.681L450.224 295.72L449.263 295.444L448.986 296.405ZM435.137 292.425L434.176 292.149L433.9 293.11L434.861 293.386L435.137 292.425ZM437.376 284.632L437.652 283.671L436.691 283.394L436.415 284.356L437.376 284.632ZM453.585 297.726L451.132 306.264L453.054 306.817L455.507 298.278L453.585 297.726ZM451.132 306.264C450.583 308.173 450.542 309.906 451.227 311.336L453.031 310.471C452.641 309.658 452.576 308.481 453.054 306.817L451.132 306.264ZM451.227 311.336C451.939 312.82 453.415 313.764 455.34 314.317L455.892 312.395C454.242 311.921 453.394 311.23 453.031 310.471L451.227 311.336ZM455.34 314.317C457.208 314.854 458.918 314.82 460.276 313.919L459.171 312.252C458.494 312.701 457.465 312.847 455.892 312.395L455.34 314.317ZM460.259 313.931C461.598 313.083 462.483 311.593 463.032 309.683L461.109 309.131C460.631 310.796 459.951 311.758 459.189 312.241L460.259 313.931ZM463.032 309.683L465.485 301.145L463.563 300.593L461.109 309.131L463.032 309.683ZM464.8 299.908L454.822 297.041L454.27 298.963L464.248 301.83L464.8 299.908ZM471.858 294.54L466.367 313.651L468.289 314.203L473.78 295.092L471.858 294.54ZM466.367 313.651C465.941 315.132 465.323 316.355 464.528 317.341L466.086 318.596C467.073 317.371 467.802 315.899 468.289 314.203L466.367 313.651ZM464.509 317.365C463.718 318.412 462.813 319.208 461.796 319.77L462.765 321.52C464.049 320.81 465.161 319.82 466.105 318.571L464.509 317.365ZM461.781 319.779C460.745 320.377 459.643 320.728 458.463 320.836L458.645 322.828C460.115 322.693 461.497 322.253 462.781 321.511L461.781 319.779ZM458.43 320.839C457.273 320.985 456.081 320.886 454.844 320.531L454.292 322.453C455.768 322.878 457.234 323.006 458.679 322.824L458.43 320.839ZM454.844 320.531C452.899 319.972 451.389 319.088 450.267 317.908L448.817 319.286C450.226 320.768 452.067 321.814 454.292 322.453L454.844 320.531ZM450.255 317.896C449.173 316.795 448.495 315.269 448.289 313.229L446.299 313.43C446.54 315.818 447.361 317.804 448.829 319.298L450.255 317.896ZM447.57 312.369L447.471 312.34L446.918 314.262L447.018 314.291L447.57 312.369ZM446.342 312.779C445.867 313.555 445.328 314.109 444.737 314.481L445.801 316.174C446.696 315.611 447.441 314.815 448.048 313.823L446.342 312.779ZM444.712 314.497C444.115 314.898 443.444 315.177 442.691 315.33L443.091 317.29C444.088 317.086 445.003 316.71 445.826 316.158L444.712 314.497ZM442.673 315.334C441.943 315.497 441.158 315.542 440.313 315.46L440.119 317.45C441.156 317.551 442.154 317.499 443.109 317.286L442.673 315.334ZM440.277 315.457C439.374 315.401 438.49 315.283 437.626 315.103L437.217 317.061C438.178 317.261 439.157 317.392 440.155 317.453L440.277 315.457ZM437.641 315.106C437.075 314.979 436.409 314.823 435.641 314.638L435.173 316.583C435.947 316.769 436.624 316.927 437.202 317.057L437.641 315.106ZM435.641 314.638C434.857 314.449 434.052 314.273 433.227 314.108L432.836 316.07C433.637 316.229 434.416 316.4 435.173 316.583L435.641 314.638ZM433.186 314.101C432.333 313.967 431.501 313.877 430.69 313.832L430.577 315.828C431.318 315.87 432.084 315.953 432.876 316.077L433.186 314.101ZM430.635 313.83C429.785 313.829 428.988 313.953 428.259 314.222L428.95 316.099C429.422 315.925 429.978 315.829 430.632 315.83L430.635 313.83ZM429.565 315.437L431.805 307.643L429.882 307.091L427.643 314.884L429.565 315.437ZM430.929 308.363C432.053 308.267 433.365 308.373 434.878 308.705L435.307 306.751C433.652 306.388 432.132 306.253 430.758 306.371L430.929 308.363ZM434.878 308.705C436.485 309.057 438.041 309.341 439.548 309.555L439.829 307.575C438.376 307.368 436.869 307.094 435.307 306.751L434.878 308.705ZM439.551 309.555C441.586 309.838 443.354 309.683 444.728 308.922L443.76 307.172C442.919 307.637 441.65 307.828 439.826 307.574L439.551 309.555ZM444.728 308.922C446.175 308.121 447.117 306.534 447.708 304.474L445.786 303.922C445.256 305.768 444.529 306.746 443.76 307.172L444.728 308.922ZM447.708 304.474L449.948 296.681L448.025 296.129L445.786 303.922L447.708 304.474ZM449.263 295.444L435.413 291.464L434.861 293.386L448.71 297.366L449.263 295.444ZM436.098 292.701L438.337 284.908L436.415 284.356L434.176 292.149L436.098 292.701ZM437.1 285.593L472.543 295.777L473.096 293.855L437.652 283.671L437.1 285.593Z" fill="white" mask="url(#path-3-outside-2_1595_1582)"/>
<mask id="path-5-outside-3_1595_1582" maskUnits="userSpaceOnUse" x="412.93" y="317.575" width="48.666" height="45.0061" fill="black">
<rect fill="white" x="412.93" y="317.575" width="48.666" height="45.0061"/>
<path d="M459.899 335.658L447.754 360.42L441.633 357.418L450.207 339.936L443.112 336.456L435.243 352.501L429.586 349.726L437.455 333.682L429.34 329.702L420.584 347.555L414.463 344.553L426.79 319.419L459.899 335.658Z"/>
</mask>
<path d="M459.899 335.658L460.797 336.098L461.237 335.2L460.339 334.76L459.899 335.658ZM447.754 360.42L447.314 361.318L448.212 361.759L448.652 360.861L447.754 360.42ZM441.633 357.418L440.735 356.978L440.295 357.876L441.193 358.316L441.633 357.418ZM450.207 339.936L451.105 340.376L451.545 339.479L450.648 339.038L450.207 339.936ZM443.112 336.456L443.553 335.559L442.655 335.118L442.215 336.016L443.112 336.456ZM435.243 352.501L434.803 353.399L435.701 353.839L436.141 352.941L435.243 352.501ZM429.586 349.726L428.688 349.286L428.248 350.184L429.145 350.624L429.586 349.726ZM437.455 333.682L438.353 334.122L438.793 333.224L437.895 332.784L437.455 333.682ZM429.34 329.702L429.78 328.804L428.882 328.363L428.442 329.261L429.34 329.702ZM420.584 347.555L420.143 348.453L421.041 348.893L421.482 347.995L420.584 347.555ZM414.463 344.553L413.565 344.112L413.125 345.01L414.022 345.45L414.463 344.553ZM426.79 319.419L427.23 318.521L426.332 318.081L425.892 318.979L426.79 319.419ZM459.001 335.217L446.856 359.98L448.652 360.861L460.797 336.098L459.001 335.217ZM448.194 359.523L442.073 356.52L441.193 358.316L447.314 361.318L448.194 359.523ZM442.531 357.859L451.105 340.376L449.309 339.496L440.735 356.978L442.531 357.859ZM450.648 339.038L443.553 335.559L442.672 337.354L449.767 340.834L450.648 339.038ZM442.215 336.016L434.345 352.061L436.141 352.941L444.01 336.897L442.215 336.016ZM435.684 351.603L430.026 348.828L429.145 350.624L434.803 353.399L435.684 351.603ZM430.484 350.167L438.353 334.122L436.557 333.241L428.688 349.286L430.484 350.167ZM437.895 332.784L429.78 328.804L428.9 330.599L437.015 334.579L437.895 332.784ZM428.442 329.261L419.686 347.114L421.482 347.995L430.238 330.142L428.442 329.261ZM421.024 346.657L414.903 343.655L414.022 345.45L420.143 348.453L421.024 346.657ZM415.361 344.993L427.687 319.859L425.892 318.979L413.565 344.112L415.361 344.993ZM426.349 320.317L459.459 336.556L460.339 334.76L427.23 318.521L426.349 320.317Z" fill="white" mask="url(#path-5-outside-3_1595_1582)"/>
<mask id="path-7-outside-4_1595_1582" maskUnits="userSpaceOnUse" x="391.623" y="342.704" width="55.0338" height="55.2593" fill="black">
<rect fill="white" x="391.623" y="342.704" width="55.0338" height="55.2593"/>
<path d="M418.707 363.682L413.114 371.43L426.807 375.581L426.867 375.497L418.707 363.682ZM436.596 377.551L431.729 384.293L393.756 373.891L398.684 367.065L406.975 369.61L415.046 358.428L410.08 351.277L414.857 344.66L436.596 377.551Z"/>
</mask>
<path d="M418.707 363.682L419.529 363.114L418.725 361.949L417.896 363.097L418.707 363.682ZM413.114 371.43L412.303 370.844L411.483 371.98L412.824 372.387L413.114 371.43ZM426.807 375.581L426.517 376.538L427.2 376.745L427.618 376.166L426.807 375.581ZM426.867 375.497L427.678 376.082L428.091 375.51L427.69 374.929L426.867 375.497ZM436.596 377.551L437.406 378.136L437.811 377.576L437.43 377L436.596 377.551ZM431.729 384.293L431.464 385.258L432.134 385.441L432.54 384.879L431.729 384.293ZM393.756 373.891L392.946 373.305L392.102 374.474L393.492 374.855L393.756 373.891ZM398.684 367.065L398.977 366.109L398.292 365.898L397.873 366.479L398.684 367.065ZM406.975 369.61L406.681 370.566L407.366 370.776L407.786 370.195L406.975 369.61ZM415.046 358.428L415.857 359.014L416.271 358.439L415.868 357.858L415.046 358.428ZM410.08 351.277L409.27 350.691L408.855 351.265L409.259 351.847L410.08 351.277ZM414.857 344.66L415.691 344.108L414.893 342.901L414.046 344.075L414.857 344.66ZM417.896 363.097L412.303 370.844L413.925 372.015L419.517 364.267L417.896 363.097ZM412.824 372.387L426.517 376.538L427.097 374.624L413.404 370.473L412.824 372.387ZM427.618 376.166L427.678 376.082L426.056 374.912L425.996 374.995L427.618 376.166ZM427.69 374.929L419.529 363.114L417.884 364.25L426.044 376.065L427.69 374.929ZM435.785 376.966L430.918 383.708L432.54 384.879L437.406 378.136L435.785 376.966ZM431.993 383.329L394.021 372.926L393.492 374.855L431.464 385.258L431.993 383.329ZM394.567 374.476L399.495 367.65L397.873 366.479L392.946 373.305L394.567 374.476ZM398.39 368.021L406.681 370.566L407.268 368.654L398.977 366.109L398.39 368.021ZM407.786 370.195L415.857 359.014L414.235 357.843L406.164 369.024L407.786 370.195ZM415.868 357.858L410.902 350.706L409.259 351.847L414.225 358.999L415.868 357.858ZM410.891 351.862L415.668 345.245L414.046 344.075L409.27 350.691L410.891 351.862ZM414.022 345.211L435.761 378.102L437.43 377L415.691 344.108L414.022 345.211Z" fill="white" mask="url(#path-7-outside-4_1595_1582)"/>
<mask id="path-9-outside-5_1595_1582" maskUnits="userSpaceOnUse" x="370.821" y="371.745" width="50.8795" height="50.9412" fill="black">
<rect fill="white" x="370.821" y="371.745" width="50.8795" height="50.9412"/>
<path d="M407.064 402.799L414.936 395.04L419.722 399.896L398.202 421.105L393.416 416.249L401.288 408.491L380.188 387.082L385.963 381.389L407.064 402.799Z"/>
</mask>
<path d="M407.064 402.799L406.352 403.501L407.054 404.213L407.766 403.511L407.064 402.799ZM414.936 395.04L415.648 394.338L414.946 393.626L414.234 394.328L414.936 395.04ZM419.722 399.896L420.424 400.608L421.136 399.906L420.434 399.194L419.722 399.896ZM398.202 421.105L397.49 421.807L398.192 422.519L398.904 421.817L398.202 421.105ZM393.416 416.249L392.714 415.537L392.002 416.239L392.704 416.951L393.416 416.249ZM401.288 408.491L401.99 409.203L402.703 408.501L402.001 407.789L401.288 408.491ZM380.188 387.082L379.486 386.369L378.774 387.071L379.476 387.783L380.188 387.082ZM385.963 381.389L386.676 380.688L385.974 379.975L385.262 380.677L385.963 381.389ZM407.766 403.511L415.638 395.752L414.234 394.328L406.362 402.087L407.766 403.511ZM414.224 395.742L419.009 400.598L420.434 399.194L415.648 394.338L414.224 395.742ZM419.02 399.184L397.5 420.393L398.904 421.817L420.424 400.608L419.02 399.184ZM398.914 420.403L394.129 415.547L392.704 416.951L397.49 421.807L398.914 420.403ZM394.118 416.962L401.99 409.203L400.587 407.779L392.714 415.537L394.118 416.962ZM402.001 407.789L380.9 386.38L379.476 387.783L400.576 409.193L402.001 407.789ZM380.89 387.794L386.665 382.102L385.262 380.677L379.486 386.369L380.89 387.794ZM385.251 382.091L406.352 403.501L407.776 402.097L386.676 380.688L385.251 382.091Z" fill="white" mask="url(#path-9-outside-5_1595_1582)"/>
<mask id="path-11-outside-6_1595_1582" maskUnits="userSpaceOnUse" x="361.225" y="395.019" width="32.6431" height="37.5276" fill="black">
<rect fill="white" x="361.225" y="395.019" width="32.6431" height="37.5276"/>
<path d="M391.944 425.863L385.547 430.845L362.886 401.752L369.284 396.769L391.944 425.863Z"/>
</mask>
<path d="M391.944 425.863L392.558 426.651L393.347 426.037L392.733 425.248L391.944 425.863ZM385.547 430.845L384.758 431.46L385.372 432.249L386.161 431.634L385.547 430.845ZM362.886 401.752L362.272 400.963L361.483 401.577L362.097 402.366L362.886 401.752ZM369.284 396.769L370.072 396.154L369.458 395.366L368.669 395.98L369.284 396.769ZM391.33 425.074L384.932 430.056L386.161 431.634L392.558 426.651L391.33 425.074ZM386.336 430.231L363.675 401.137L362.097 402.366L384.758 431.46L386.336 430.231ZM363.501 402.541L369.898 397.558L368.669 395.98L362.272 400.963L363.501 402.541ZM368.495 397.383L391.155 426.477L392.733 425.248L370.072 396.154L368.495 397.383Z" fill="white" mask="url(#path-11-outside-6_1595_1582)"/>
<mask id="path-13-outside-7_1595_1582" maskUnits="userSpaceOnUse" x="329.915" y="402.543" width="51.8001" height="52.4847" fill="black">
<rect fill="white" x="329.915" y="402.543" width="51.8001" height="52.4847"/>
<path d="M342.679 415.095L350.515 410.388L379.732 435.856L372.604 440.138L352.213 422.141L352.125 422.194L358.348 448.702L351.175 453.011L342.679 415.095Z"/>
</mask>
<path d="M342.679 415.095L342.164 414.238L341.545 414.61L341.703 415.314L342.679 415.095ZM350.515 410.388L351.172 409.634L350.624 409.156L350 409.531L350.515 410.388ZM379.732 435.856L380.247 436.713L381.426 436.006L380.39 435.102L379.732 435.856ZM372.604 440.138L371.943 440.888L372.492 441.372L373.119 440.995L372.604 440.138ZM352.213 422.141L352.875 421.391L352.326 420.907L351.698 421.284L352.213 422.141ZM352.125 422.194L351.61 421.337L350.984 421.713L351.151 422.423L352.125 422.194ZM358.348 448.702L358.863 449.559L359.488 449.184L359.321 448.474L358.348 448.702ZM351.175 453.011L350.2 453.229L350.503 454.582L351.69 453.868L351.175 453.011ZM343.194 415.953L351.03 411.245L350 409.531L342.164 414.238L343.194 415.953ZM349.858 411.142L379.075 436.61L380.39 435.102L351.172 409.634L349.858 411.142ZM379.218 434.999L372.089 439.281L373.119 440.995L380.247 436.713L379.218 434.999ZM373.266 439.388L352.875 421.391L351.552 422.891L371.943 440.888L373.266 439.388ZM351.698 421.284L351.61 421.337L352.64 423.052L352.728 422.998L351.698 421.284ZM351.151 422.423L357.374 448.931L359.321 448.474L353.098 421.966L351.151 422.423ZM357.833 447.845L350.66 452.154L351.69 453.868L358.863 449.559L357.833 447.845ZM352.151 452.792L343.654 414.877L341.703 415.314L350.2 453.229L352.151 452.792Z" fill="white" mask="url(#path-13-outside-7_1595_1582)"/>
<mask id="path-15-outside-8_1595_1582" maskUnits="userSpaceOnUse" x="302.91" y="420.451" width="43.1978" height="47.6835" fill="black">
<rect fill="white" x="302.91" y="420.451" width="43.1978" height="47.6835"/>
<path d="M344.24 456.235L318.604 466.407L316.09 460.07L334.189 452.889L331.275 445.544L314.664 452.134L312.34 446.277L328.951 439.687L325.617 431.285L307.134 438.618L304.62 432.281L330.64 421.958L344.24 456.235Z"/>
</mask>
<path d="M344.24 456.235L344.609 457.165L345.539 456.796L345.17 455.867L344.24 456.235ZM318.604 466.407L317.675 466.776L318.043 467.705L318.973 467.336L318.604 466.407ZM316.09 460.07L315.721 459.14L314.791 459.509L315.16 460.439L316.09 460.07ZM334.189 452.889L334.558 453.818L335.487 453.45L335.118 452.52L334.189 452.889ZM331.275 445.544L332.204 445.175L331.835 444.245L330.906 444.614L331.275 445.544ZM314.664 452.134L313.734 452.503L314.103 453.432L315.033 453.064L314.664 452.134ZM312.34 446.277L311.971 445.348L311.042 445.716L311.41 446.646L312.34 446.277ZM328.951 439.687L329.32 440.616L330.249 440.247L329.88 439.318L328.951 439.687ZM325.617 431.285L326.547 430.916L326.178 429.987L325.249 430.356L325.617 431.285ZM307.134 438.618L306.205 438.987L306.574 439.917L307.503 439.548L307.134 438.618ZM304.62 432.281L304.251 431.352L303.322 431.721L303.69 432.65L304.62 432.281ZM330.64 421.958L331.57 421.589L331.201 420.659L330.272 421.028L330.64 421.958ZM343.872 455.306L318.235 465.477L318.973 467.336L344.609 457.165L343.872 455.306ZM319.534 466.038L317.019 459.701L315.16 460.439L317.675 466.776L319.534 466.038ZM316.459 460.999L334.558 453.818L333.82 451.959L315.721 459.14L316.459 460.999ZM335.118 452.52L332.204 445.175L330.345 445.912L333.259 453.258L335.118 452.52ZM330.906 444.614L314.295 451.205L315.033 453.064L331.643 446.473L330.906 444.614ZM315.593 451.765L313.269 445.908L311.41 446.646L313.734 452.503L315.593 451.765ZM312.709 447.207L329.32 440.616L328.582 438.757L311.971 445.348L312.709 447.207ZM329.88 439.318L326.547 430.916L324.688 431.654L328.021 440.055L329.88 439.318ZM325.249 430.356L306.765 437.689L307.503 439.548L325.986 432.215L325.249 430.356ZM308.064 438.25L305.549 431.913L303.69 432.65L306.205 438.987L308.064 438.25ZM304.989 433.211L331.009 422.887L330.272 421.028L304.251 431.352L304.989 433.211ZM329.711 422.326L343.311 456.604L345.17 455.867L331.57 421.589L329.711 422.326Z" fill="white" mask="url(#path-15-outside-8_1595_1582)"/>
<path d="M277.543 456.933C277.276 455.371 277.579 453.975 278.451 452.743C279.29 451.516 280.506 450.767 282.101 450.494C283.697 450.221 285.11 450.521 286.342 451.393C287.54 452.271 288.273 453.491 288.54 455.052C288.813 456.648 288.527 458.041 287.683 459.234C286.811 460.466 285.577 461.218 283.982 461.491C282.386 461.764 280.99 461.461 279.792 460.583C278.565 459.745 277.816 458.528 277.543 456.933Z" fill="white"/>
<path d="M243.894 447.653L236.672 447.29C235.503 447.231 234.359 447.364 233.239 447.687C232.12 448.01 231.109 448.579 230.206 449.396C229.301 450.247 228.556 451.364 227.969 452.749C227.382 454.133 227.038 455.839 226.936 457.868C226.843 459.725 226.948 461.402 227.252 462.9C227.52 464.431 228.04 465.75 228.812 466.857C229.584 467.965 230.644 468.828 231.992 469.447C233.303 470.099 234.957 470.475 236.951 470.575L242.729 470.865L243.894 447.653ZM250.485 478.081L234.598 477.283C232.225 477.164 230.043 476.676 228.052 475.817C226.026 474.957 224.312 473.733 222.91 472.146C221.472 470.557 220.398 468.607 219.687 466.295C218.941 463.983 218.645 461.296 218.799 458.235C218.933 455.553 219.402 453.094 220.203 450.859C221.005 448.624 222.152 446.716 223.645 445.136C225.104 443.555 226.906 442.335 229.052 441.478C231.162 440.653 233.627 440.311 236.447 440.453L252.335 441.25L250.485 478.081Z" fill="white"/>
<path d="M206.998 474.658L180.123 468.461L181.655 461.818L200.628 466.193L202.404 458.493L184.99 454.477L186.406 448.337L203.82 452.353L205.851 443.545L186.474 439.077L188.006 432.434L215.284 438.724L206.998 474.658Z" fill="white"/>
<path d="M174.579 440.406C175.057 439.263 175.256 438.207 175.176 437.241C175.095 436.274 174.828 435.397 174.373 434.609C173.874 433.84 173.217 433.136 172.402 432.496C171.574 431.888 170.668 431.378 169.683 430.966C169.016 430.687 168.282 430.436 167.479 430.212C166.664 430.02 165.856 429.943 165.056 429.981C164.256 430.02 163.521 430.216 162.85 430.57C162.166 430.955 161.645 431.577 161.286 432.435C160.9 433.356 160.89 434.228 161.254 435.053C161.586 435.864 162.149 436.659 162.943 437.439C163.736 438.219 164.676 439.005 165.763 439.796C166.851 440.587 167.941 441.416 169.033 442.284C170.171 443.134 171.25 444.033 172.271 444.983C173.278 445.965 174.106 447.02 174.753 448.15C175.4 449.279 175.799 450.51 175.951 451.843C176.057 453.194 175.785 454.647 175.133 456.204C174.402 457.951 173.405 459.306 172.143 460.271C170.835 461.254 169.399 461.922 167.833 462.274C166.267 462.627 164.635 462.69 162.938 462.465C161.24 462.24 159.629 461.808 158.105 461.17C156.326 460.426 154.713 459.508 153.266 458.417C151.774 457.344 150.579 456.098 149.681 454.676C148.782 453.255 148.26 451.693 148.115 449.99C147.924 448.305 148.241 446.478 149.065 444.509L156.307 447.54C155.945 448.583 155.815 449.518 155.917 450.344C155.987 451.157 156.245 451.881 156.688 452.515C157.132 453.148 157.718 453.711 158.446 454.202C159.142 454.68 159.95 455.112 160.871 455.497C161.475 455.75 162.105 455.939 162.761 456.064C163.418 456.19 164.067 456.2 164.708 456.095C165.317 455.977 165.881 455.746 166.398 455.403C166.915 455.059 167.326 454.522 167.632 453.792C167.911 453.125 168.01 452.532 167.929 452.012C167.848 451.493 167.515 450.906 166.931 450.251C166.314 449.582 165.428 448.801 164.272 447.906C163.085 446.999 161.54 445.829 159.638 444.399C159.056 444.006 158.282 443.402 157.316 442.587C156.306 441.791 155.398 440.795 154.592 439.599C153.786 438.403 153.245 437.02 152.97 435.449C152.649 433.896 152.887 432.167 153.685 430.261C154.337 428.705 155.243 427.386 156.405 426.304C157.567 425.223 158.957 424.442 160.577 423.963C162.151 423.502 163.94 423.374 165.945 423.578C167.918 423.77 170.063 424.35 172.382 425.321C174.256 426.105 175.983 427.108 177.562 428.329C179.123 429.505 180.38 430.871 181.334 432.427C182.256 433.97 182.794 435.67 182.95 437.527C183.106 439.384 182.73 441.354 181.82 443.437L174.579 440.406Z" fill="white"/>
<path d="M135.604 449.533L128.563 445.512L146.849 413.488L153.891 417.509L135.604 449.533Z" fill="white"/>
<path d="M117.103 397.538C119.384 396.952 121.451 396.896 123.304 397.37C125.135 397.872 126.759 398.671 128.176 399.766C130.41 401.493 132.131 403.433 133.339 405.585C134.499 407.744 135.166 409.978 135.338 412.288C135.511 414.598 135.219 416.918 134.462 419.249C133.684 421.607 132.473 423.848 130.831 425.973C129.146 428.152 127.261 429.915 125.175 431.262C123.068 432.637 120.865 433.545 118.565 433.986C116.265 434.428 113.924 434.359 111.543 433.781C109.134 433.181 106.813 432.017 104.579 430.29C103.081 429.132 101.816 427.785 100.785 426.247C99.7051 424.716 98.9437 423.083 98.5007 421.348C98.0304 419.592 97.9224 417.789 98.1767 415.94C98.4309 414.091 99.1186 412.273 100.24 410.485L106.369 415.223C105.487 417.152 105.275 418.947 105.733 420.607C106.191 422.266 107.196 423.696 108.749 424.897C110.193 426.013 111.64 426.674 113.09 426.881C114.519 427.116 115.915 426.998 117.279 426.529C118.622 426.087 119.906 425.383 121.132 424.416C122.331 423.428 123.426 422.294 124.415 421.013C125.363 419.787 126.153 418.484 126.787 417.102C127.371 415.726 127.709 414.333 127.798 412.922C127.887 411.511 127.649 410.13 127.084 408.779C126.497 407.455 125.482 406.235 124.038 405.119C121.913 403.476 119.868 402.744 117.902 402.922C115.888 403.106 113.997 404.146 112.226 406.042L118.683 411.033L114.987 415.814L102.728 406.337L114.921 390.564L119.008 393.723L117.103 397.538Z" fill="white"/>
<path d="M83.5591 411.549L78.2244 405.511L86.5742 377.596L86.5059 377.519L67.9654 393.899L62.9385 388.209L90.575 363.792L95.9438 369.869L87.5986 397.711L87.6669 397.789L106.169 381.443L111.196 387.133L83.5591 411.549Z" fill="white"/>
<path d="M55.4456 377.872L41.1563 354.282L46.9876 350.75L57.0758 367.404L63.8348 363.31L54.5762 348.025L59.9657 344.76L69.2243 360.045L76.9552 355.363L66.653 338.355L72.4843 334.822L86.9876 358.766L55.4456 377.872Z" fill="white"/>
<path d="M48.9876 331.454L45.7734 323.172C45.1006 321.439 44.2109 320.289 43.1041 319.721C41.9973 319.153 40.5773 319.206 38.8439 319.878C37.1747 320.526 36.1391 321.427 35.7372 322.58C35.3032 323.746 35.4226 325.195 36.0953 326.929L39.3096 335.21L48.9876 331.454ZM36.3692 345.05L29.1746 326.512C28.5766 324.971 28.2977 323.491 28.3378 322.072C28.3335 320.634 28.5964 319.313 29.1268 318.11C29.6446 316.874 30.3941 315.808 31.3753 314.91C32.3119 313.992 33.4383 313.278 34.7544 312.767C36.7766 311.983 38.6943 311.737 40.5072 312.031C42.3077 312.292 43.9669 313.236 45.4848 314.863L45.5811 314.826C45.4766 313.795 45.5789 312.869 45.8879 312.048C46.1647 311.238 46.5976 310.498 47.1864 309.826C47.7431 309.167 48.4236 308.589 49.228 308.092C50.02 307.563 50.8368 307.098 51.6786 306.698C52.2118 306.454 52.8414 306.172 53.5672 305.854C54.2931 305.535 55.0287 305.194 55.7742 304.831C56.5072 304.436 57.1957 304.021 57.8396 303.586C58.4389 303.132 58.9108 302.635 59.2553 302.095L62.1892 309.654C61.2598 310.495 60.0594 311.257 58.5881 311.938C57.1168 312.62 55.7283 313.325 54.4228 314.054C52.7249 315.008 51.6206 316.065 51.1099 317.223C50.5992 318.382 50.7114 319.908 51.4465 321.802L54.3804 329.361L67.8141 324.147L70.7481 331.707L36.3692 345.05Z" fill="white"/>
<path d="M35.0255 273.835C36.5916 273.598 37.9822 273.928 39.1973 274.823C40.4072 275.685 41.1333 276.916 41.3754 278.516C41.6176 280.116 41.2908 281.524 40.3951 282.739C39.4943 283.92 38.2608 284.629 36.6947 284.866C35.0946 285.108 33.7066 284.796 32.5307 283.929C31.3156 283.033 30.587 281.785 30.3449 280.185C30.1027 278.585 30.4321 277.195 31.3329 276.014C32.1945 274.804 33.4254 274.078 35.0255 273.835Z" fill="white"/>
<mask id="path-27-outside-9_1595_1582" maskUnits="userSpaceOnUse" x="11.9711" y="212.335" width="43.5378" height="40.7532" fill="black">
<rect fill="white" x="11.9711" y="212.335" width="43.5378" height="40.7532"/>
<path d="M28.4076 223.17C27.4706 223.243 26.6075 223.493 25.8184 223.922C24.9949 224.348 24.2661 224.901 23.632 225.582C22.9979 226.262 22.494 227.056 22.1204 227.962C21.7147 228.831 21.4773 229.764 21.408 230.76C21.2814 232.58 21.5346 234.151 22.1675 235.472C22.7661 236.791 23.639 237.887 24.7863 238.761C25.8993 239.632 27.1983 240.309 28.6834 240.792C30.1709 241.241 31.7218 241.521 33.3363 241.633C34.882 241.741 36.4053 241.674 37.9062 241.434C39.3752 241.156 40.7211 240.663 41.9439 239.954C43.1668 239.245 44.1831 238.28 44.9928 237.06C45.7682 235.837 46.2192 234.315 46.3458 232.494C46.5178 230.021 45.8959 228.045 44.4801 226.566C43.0667 225.052 41.1341 224.055 38.6825 223.574L39.2272 215.742C41.5143 216.108 43.5554 216.785 45.3505 217.773C47.1457 218.761 48.6469 220.004 49.8543 221.503C51.0616 223.002 51.9431 224.72 52.4986 226.657C53.0542 228.594 53.2532 230.697 53.0955 232.964C52.8996 235.78 52.2419 238.289 51.1225 240.489C49.971 242.652 48.4828 244.447 46.6578 245.873C44.8328 247.3 42.741 248.345 40.3822 249.009C37.9891 249.671 35.4529 249.909 32.7736 249.723C30.0257 249.532 27.5125 248.943 25.234 247.956C22.9212 246.967 20.9427 245.638 19.2984 243.971C17.6541 242.303 16.4115 240.318 15.5706 238.016C14.7322 235.68 14.4109 233.103 14.6068 230.287C14.7477 228.26 15.1723 226.374 15.8805 224.628C16.5911 222.848 17.5621 221.294 18.7936 219.964C19.9931 218.598 21.4495 217.509 23.1628 216.696C24.8761 215.883 26.8059 215.43 28.9523 215.338L28.4076 223.17Z"/>
</mask>
<path d="M28.4076 223.17L28.4852 224.167L29.3453 224.1L29.4052 223.239L28.4076 223.17ZM25.8184 223.922L26.2778 224.81L26.2867 224.805L26.2955 224.801L25.8184 223.922ZM22.1204 227.962L23.0265 228.385L23.0361 228.364L23.0448 228.343L22.1204 227.962ZM22.1675 235.472L23.0781 235.059L23.0738 235.049L23.0693 235.04L22.1675 235.472ZM24.7863 238.761L25.4028 237.973L25.3922 237.965L24.7863 238.761ZM28.6834 240.792L28.3741 241.743L28.3843 241.746L28.3946 241.749L28.6834 240.792ZM37.9062 241.434L38.0646 242.421L38.0783 242.419L38.0919 242.416L37.9062 241.434ZM41.9439 239.954L42.4454 240.819L41.9439 239.954ZM44.9928 237.06L45.8261 237.612L45.8319 237.604L45.8374 237.595L44.9928 237.06ZM44.4801 226.566L43.7492 227.248L43.7577 227.257L44.4801 226.566ZM38.6825 223.574L37.6849 223.504L37.6236 224.385L38.4899 224.555L38.6825 223.574ZM39.2272 215.742L39.3853 214.755L38.3055 214.582L38.2296 215.673L39.2272 215.742ZM45.3505 217.773L45.8326 216.897L45.3505 217.773ZM49.8543 221.503L49.0754 222.131L49.8543 221.503ZM52.4986 226.657L53.4599 226.382L52.4986 226.657ZM51.1225 240.489L52.0052 240.959L52.0095 240.951L52.0137 240.942L51.1225 240.489ZM46.6578 245.873L46.042 245.086L46.6578 245.873ZM40.3822 249.009L40.6488 249.973L40.6533 249.972L40.3822 249.009ZM25.234 247.956L25.6315 247.038L25.6273 247.036L25.234 247.956ZM19.2984 243.971L20.0104 243.268L19.2984 243.971ZM15.5706 238.016L14.6294 238.354L14.6313 238.359L15.5706 238.016ZM15.8805 224.628L16.8071 225.004L16.8092 224.999L15.8805 224.628ZM18.7936 219.964L19.5272 220.644L19.5362 220.634L19.545 220.624L18.7936 219.964ZM23.1628 216.696L22.7342 215.792L22.7342 215.792L23.1628 216.696ZM28.9523 215.338L29.9499 215.407L30.0276 214.291L28.9093 214.339L28.9523 215.338ZM28.33 222.173C27.2598 222.256 26.2596 222.544 25.3414 223.043L26.2955 224.801C26.9554 224.442 27.6815 224.229 28.4852 224.167L28.33 222.173ZM25.359 223.033C24.4332 223.512 23.6124 224.136 22.9003 224.9L24.3637 226.263C24.9199 225.666 25.5566 225.183 26.2778 224.81L25.359 223.033ZM22.9003 224.9C22.1801 225.673 21.6128 226.57 21.1959 227.58L23.0448 228.343C23.3752 227.542 23.8156 226.852 24.3637 226.263L22.9003 224.9ZM21.2142 227.539C20.7545 228.524 20.4879 229.577 20.4104 230.69L22.4056 230.829C22.4667 229.95 22.675 229.138 23.0265 228.385L21.2142 227.539ZM20.4104 230.69C20.2747 232.642 20.5417 234.393 21.2657 235.904L23.0693 235.04C22.5274 233.909 22.2881 232.519 22.4056 230.829L20.4104 230.69ZM21.2569 235.885C21.9236 237.354 22.901 238.582 24.1805 239.556L25.3922 237.965C24.3771 237.192 23.6086 236.228 23.0781 235.059L21.2569 235.885ZM24.1699 239.548C25.384 240.499 26.7895 241.228 28.3741 241.743L28.9926 239.841C27.6071 239.39 26.4145 238.765 25.4027 237.973L24.1699 239.548ZM28.3946 241.749C29.9564 242.22 31.5812 242.514 33.2669 242.631L33.4056 240.636C31.8625 240.528 30.3853 240.261 28.9721 239.835L28.3946 241.749ZM33.2669 242.631C34.8872 242.744 36.487 242.674 38.0646 242.421L37.7479 240.446C36.3237 240.675 34.8768 240.738 33.4056 240.636L33.2669 242.631ZM38.0919 242.416C39.6656 242.119 41.1192 241.588 42.4454 240.819L41.4425 239.089C40.323 239.738 39.0849 240.193 37.7206 240.451L38.0919 242.416ZM42.4454 240.819C43.8064 240.03 44.9345 238.957 45.8261 237.612L44.1595 236.507C43.4316 237.604 42.5272 238.46 41.4425 239.089L42.4454 240.819ZM45.8374 237.595C46.7219 236.2 47.2082 234.507 47.3434 232.564L45.3482 232.425C45.2302 234.122 44.8145 235.473 44.1482 236.524L45.8374 237.595ZM47.3434 232.564C47.5305 229.874 46.8536 227.599 45.2025 225.874L43.7577 227.257C44.9383 228.491 45.5052 230.168 45.3482 232.425L47.3434 232.564ZM45.211 225.883C43.6264 224.186 41.4895 223.106 38.875 222.593L38.4899 224.555C40.7787 225.004 42.507 225.918 43.7493 227.248L45.211 225.883ZM39.6801 223.643L40.2248 215.811L38.2296 215.673L37.6849 223.504L39.6801 223.643ZM39.0691 216.73C41.2572 217.08 43.1863 217.724 44.8685 218.649L45.8326 216.897C43.9244 215.847 41.7713 215.137 39.3853 214.755L39.0691 216.73ZM44.8685 218.649C46.5569 219.578 47.955 220.739 49.0754 222.131L50.6331 220.876C49.3388 219.269 47.7345 217.943 45.8326 216.897L44.8685 218.649ZM49.0754 222.131C50.1952 223.521 51.0168 225.118 51.5374 226.933L53.4599 226.382C52.8693 224.323 51.928 222.484 50.6331 220.876L49.0754 222.131ZM51.5374 226.933C52.057 228.745 52.2485 230.729 52.0979 232.894L54.0931 233.033C54.2578 230.664 54.0514 228.444 53.4599 226.382L51.5374 226.933ZM52.0979 232.894C51.91 235.596 51.2817 237.971 50.2312 240.035L52.0137 240.942C53.2022 238.607 53.8892 235.964 54.0931 233.033L52.0979 232.894ZM50.2397 240.019C49.1501 242.066 47.7504 243.75 46.042 245.086L47.2736 246.661C49.2152 245.144 50.7919 243.238 52.0052 240.959L50.2397 240.019ZM46.042 245.086C44.3254 246.427 42.3521 247.416 40.1111 248.047L40.6533 249.972C43.1299 249.274 45.3403 248.172 47.2736 246.661L46.042 245.086ZM40.1156 248.046C37.8404 248.675 35.4184 248.904 32.843 248.725L32.7042 250.72C35.4874 250.914 38.1378 250.668 40.6488 249.973L40.1156 248.046ZM32.843 248.725C30.1958 248.541 27.7951 247.975 25.6315 247.038L24.8366 248.873C27.2298 249.91 29.8555 250.522 32.7042 250.72L32.843 248.725ZM25.6273 247.036C23.4249 246.094 21.557 244.837 20.0104 243.268L18.5863 244.673C20.3284 246.439 22.4176 247.839 24.8408 248.875L25.6273 247.036ZM20.0104 243.268C18.4714 241.708 17.304 239.847 16.5099 237.673L14.6313 238.359C15.519 240.789 16.8367 242.898 18.5863 244.673L20.0104 243.268ZM16.5118 237.678C15.7262 235.489 15.4168 233.053 15.6044 230.356L13.6092 230.217C13.405 233.153 13.7381 235.87 14.6294 238.354L16.5118 237.678ZM15.6044 230.356C15.7386 228.426 16.1416 226.645 16.8071 225.004L14.9538 224.252C14.203 226.103 13.7569 228.094 13.6092 230.217L15.6044 230.356ZM16.8092 224.999C17.4769 223.327 18.3839 221.878 19.5272 220.644L18.0599 219.285C16.7403 220.709 15.7052 222.37 14.9518 224.258L16.8092 224.999ZM19.545 220.624C20.6508 219.365 21.9958 218.356 23.5914 217.599L22.7342 215.792C20.9032 216.661 19.3354 217.831 18.0421 219.304L19.545 220.624ZM23.5914 217.599C25.1688 216.851 26.9648 216.425 28.9953 216.337L28.9093 214.339C26.647 214.436 24.5834 214.915 22.7342 215.792L23.5914 217.599ZM27.9547 215.269L27.41 223.1L29.4052 223.239L29.9499 215.407L27.9547 215.269Z" fill="white" mask="url(#path-27-outside-9_1595_1582)"/>
<mask id="path-29-outside-10_1595_1582" maskUnits="userSpaceOnUse" x="16.8602" y="169.729" width="46.8708" height="44.7321" fill="black">
<rect fill="white" x="16.8602" y="169.729" width="46.8708" height="44.7321"/>
<path d="M36.5395 199.718L38.798 191.126C39.2707 189.328 39.2256 187.874 38.6627 186.765C38.0998 185.656 36.9193 184.865 35.121 184.392C33.3893 183.937 32.0224 184.058 31.0201 184.756C29.9845 185.445 29.2304 186.689 28.7577 188.487L26.4992 197.079L36.5395 199.718ZM18.3436 203.319L23.3988 184.088C23.819 182.489 24.4618 181.127 25.3273 180.002C26.1682 178.835 27.1564 177.919 28.2919 177.257C29.4361 176.561 30.6689 176.137 31.9903 175.986C33.2872 175.793 34.6183 175.876 35.9836 176.234C38.0816 176.786 39.7784 177.713 41.0739 179.014C42.3781 180.283 43.1673 182.021 43.4413 184.229L43.5412 184.256C44.0615 183.36 44.6878 182.67 45.4203 182.186C46.1194 181.694 46.9044 181.348 47.7754 181.15C48.6131 180.943 49.5034 180.874 50.4463 180.944C51.3979 180.981 52.3321 181.084 53.2487 181.253C53.8236 181.369 54.4984 181.511 55.2731 181.679C56.0478 181.847 56.8435 182.003 57.6602 182.146C58.4857 182.256 59.2866 182.324 60.063 182.35C60.8149 182.334 61.4887 182.209 62.0845 181.974L60.023 189.816C58.777 189.952 57.3583 189.864 55.7668 189.552C54.1754 189.241 52.6375 188.997 51.153 188.82C49.2181 188.596 47.7039 188.803 46.6105 189.442C45.5171 190.08 44.7121 191.381 44.1956 193.346L42.1342 201.189L56.0707 204.852L54.0093 212.694L18.3436 203.319Z"/>
</mask>
<path d="M36.5395 199.718L36.2853 200.685L37.2525 200.939L37.5067 199.972L36.5395 199.718ZM31.0201 184.756L31.574 185.589L31.5828 185.583L31.5914 185.577L31.0201 184.756ZM26.4992 197.079L25.5321 196.824L25.2778 197.792L26.245 198.046L26.4992 197.079ZM18.3436 203.319L17.3764 203.065L17.1222 204.032L18.0894 204.286L18.3436 203.319ZM25.3273 180.002L26.12 180.612L26.1295 180.599L26.1387 180.586L25.3273 180.002ZM28.2919 177.257L28.796 178.12L28.8038 178.116L28.8116 178.111L28.2919 177.257ZM31.9903 175.986L32.1039 176.979L32.1208 176.977L32.1376 176.975L31.9903 175.986ZM41.0739 179.014L40.3651 179.72L40.3708 179.726L40.3767 179.731L41.0739 179.014ZM43.4413 184.229L42.4489 184.353L42.5323 185.024L43.1871 185.197L43.4413 184.229ZM43.5412 184.256L43.287 185.223L44.0234 185.416L44.4059 184.758L43.5412 184.256ZM45.4203 182.186L45.9715 183.021L45.984 183.012L45.9963 183.004L45.4203 182.186ZM47.7754 181.15L47.9974 182.125L48.0064 182.123L48.0154 182.121L47.7754 181.15ZM50.4463 180.944L50.3724 181.941L50.3901 181.943L50.4079 181.943L50.4463 180.944ZM53.2487 181.253L53.4457 180.273L53.4383 180.272L53.4308 180.27L53.2487 181.253ZM57.6602 182.146L57.4872 183.131L57.5075 183.135L57.5279 183.137L57.6602 182.146ZM60.063 182.35L60.0295 183.35L60.0569 183.351L60.0843 183.35L60.063 182.35ZM62.0845 181.974L63.0517 182.228L63.5534 180.32L61.7176 181.044L62.0845 181.974ZM60.023 189.816L60.131 190.811L60.8152 190.736L60.9902 190.071L60.023 189.816ZM55.7668 189.552L55.9589 188.571L55.7668 189.552ZM51.153 188.82L51.2711 187.827L51.2679 187.827L51.153 188.82ZM46.6105 189.442L46.1064 188.578L46.6105 189.442ZM42.1342 201.189L41.167 200.934L40.9128 201.901L41.8799 202.156L42.1342 201.189ZM56.0707 204.852L57.0379 205.106L57.2921 204.139L56.325 203.885L56.0707 204.852ZM54.0093 212.694L53.755 213.662L54.7222 213.916L54.9764 212.949L54.0093 212.694ZM37.5067 199.972L39.7651 191.38L37.8308 190.872L35.5724 199.464L37.5067 199.972ZM39.7651 191.38C40.2701 189.459 40.2719 187.726 39.5545 186.312L37.771 187.217C38.1793 188.022 38.2713 189.197 37.8308 190.872L39.7651 191.38ZM39.5545 186.312C38.8095 184.844 37.3119 183.934 35.3752 183.425L34.8668 185.359C36.5266 185.796 37.3902 186.467 37.771 187.217L39.5545 186.312ZM35.3752 183.425C33.4953 182.931 31.7863 183.004 30.4487 183.935L31.5914 185.577C32.2584 185.112 33.2833 184.943 34.8668 185.359L35.3752 183.425ZM30.4661 183.923C29.1462 184.802 28.2955 186.312 27.7905 188.233L29.7248 188.741C30.1652 187.066 30.8228 186.088 31.574 185.589L30.4661 183.923ZM27.7905 188.233L25.5321 196.824L27.4664 197.333L29.7248 188.741L27.7905 188.233ZM26.245 198.046L36.2853 200.685L36.7938 198.751L26.7534 196.112L26.245 198.046ZM19.3107 203.573L24.366 184.342L22.4317 183.834L17.3764 203.065L19.3107 203.573ZM24.366 184.342C24.7578 182.851 25.348 181.615 26.12 180.612L24.5346 179.392C23.5757 180.639 22.8802 182.127 22.4317 183.834L24.366 184.342ZM26.1387 180.586C26.9056 179.522 27.7923 178.706 28.796 178.12L27.7878 176.393C26.5205 177.133 25.4308 178.147 24.5159 179.417L26.1387 180.586ZM28.8116 178.111C29.833 177.49 30.9274 177.114 32.1039 176.979L31.8767 174.992C30.4104 175.16 29.0392 175.631 27.7722 176.402L28.8116 178.111ZM32.1376 176.975C33.2905 176.803 34.4849 176.874 35.7294 177.202L36.2379 175.267C34.7517 174.877 33.2838 174.782 31.843 174.997L32.1376 176.975ZM35.7294 177.202C37.6867 177.716 39.2162 178.565 40.3651 179.72L41.7827 178.309C40.3406 176.86 38.4766 175.856 36.2379 175.267L35.7294 177.202ZM40.3767 179.731C41.484 180.808 42.1965 182.318 42.4489 184.353L44.4337 184.106C44.1381 181.724 43.2723 179.758 41.7711 178.298L40.3767 179.731ZM43.1871 185.197L43.287 185.223L43.7954 183.289L43.6955 183.262L43.1871 185.197ZM44.4059 184.758C44.8626 183.972 45.389 183.405 45.9715 183.021L44.869 181.352C43.9867 181.935 43.2604 182.748 42.6765 183.753L44.4059 184.758ZM45.9963 183.004C46.5841 182.589 47.2478 182.296 47.9974 182.125L47.5535 180.175C46.5611 180.401 45.6547 180.798 44.8442 181.369L45.9963 183.004ZM48.0154 182.121C48.7412 181.941 49.5248 181.879 50.3724 181.941L50.5202 179.947C49.4819 179.87 48.485 179.944 47.5355 180.179L48.0154 182.121ZM50.4079 181.943C51.3124 181.978 52.1985 182.076 53.0666 182.237L53.4308 180.27C52.4657 180.091 51.4835 179.983 50.4847 179.945L50.4079 181.943ZM53.0517 182.234C53.6202 182.348 54.2898 182.489 55.0611 182.656L55.485 180.702C54.707 180.533 54.027 180.39 53.4457 180.273L53.0517 182.234ZM55.0611 182.656C55.8493 182.827 56.658 182.985 57.4872 183.131L57.8332 181.161C57.0289 181.02 56.2462 180.867 55.485 180.702L55.0611 182.656ZM57.5279 183.137C58.3838 183.252 59.2178 183.323 60.0295 183.35L60.0966 181.351C59.3555 181.326 58.5876 181.261 57.7925 181.155L57.5279 183.137ZM60.0843 183.35C60.9344 183.332 61.7281 183.19 62.4514 182.904L61.7176 181.044C61.2493 181.228 60.6954 181.337 60.0418 181.351L60.0843 183.35ZM61.1174 181.72L59.0559 189.562L60.9902 190.071L63.0517 182.228L61.1174 181.72ZM59.9151 188.822C58.7935 188.944 57.479 188.868 55.9589 188.571L55.5747 190.533C57.2376 190.859 58.7604 190.959 60.131 190.811L59.9151 188.822ZM55.9589 188.571C54.3451 188.255 52.7824 188.007 51.2711 187.827L51.0349 189.813C52.4926 189.986 54.0058 190.226 55.5747 190.533L55.9589 188.571ZM51.2679 187.827C49.227 187.59 47.4632 187.786 46.1064 188.578L47.1146 190.305C47.9446 189.821 49.2092 189.602 51.0381 189.813L51.2679 187.827ZM46.1064 188.578C44.6784 189.411 43.7732 191.02 43.2285 193.092L45.1628 193.6C45.651 191.743 46.3557 190.748 47.1146 190.305L46.1064 188.578ZM43.2285 193.092L41.167 200.934L43.1013 201.443L45.1628 193.6L43.2285 193.092ZM41.8799 202.156L55.8165 205.819L56.325 203.885L42.3884 200.221L41.8799 202.156ZM55.1036 204.598L53.0421 212.44L54.9764 212.949L57.0379 205.106L55.1036 204.598ZM54.2635 211.727L18.5978 202.352L18.0894 204.286L53.755 213.662L54.2635 211.727Z" fill="white" mask="url(#path-29-outside-10_1595_1582)"/>
<mask id="path-31-outside-11_1595_1582" maskUnits="userSpaceOnUse" x="28.6206" y="134.961" width="48.4163" height="44.5187" fill="black">
<rect fill="white" x="28.6206" y="134.961" width="48.4163" height="44.5187"/>
<path d="M30.2965 162.144L41.8865 137.117L48.0729 139.982L39.8905 157.651L47.0612 160.972L54.5708 144.756L60.2886 147.403L52.779 163.62L60.9808 167.418L69.3369 149.374L75.5233 152.239L63.7598 177.641L30.2965 162.144Z"/>
</mask>
<path d="M30.2965 162.144L29.3891 161.724L28.9689 162.631L29.8763 163.052L30.2965 162.144ZM41.8865 137.117L42.3067 136.21L41.3993 135.789L40.979 136.697L41.8865 137.117ZM48.0729 139.982L48.9804 140.402L49.4006 139.495L48.4932 139.075L48.0729 139.982ZM39.8905 157.651L38.9831 157.231L38.5629 158.138L39.4703 158.558L39.8905 157.651ZM47.0612 160.972L46.641 161.879L47.5484 162.299L47.9687 161.392L47.0612 160.972ZM54.5708 144.756L54.991 143.848L54.0836 143.428L53.6634 144.335L54.5708 144.756ZM60.2886 147.403L61.196 147.824L61.6163 146.916L60.7088 146.496L60.2886 147.403ZM52.779 163.62L51.8716 163.199L51.4514 164.107L52.3588 164.527L52.779 163.62ZM60.9808 167.418L60.5606 168.325L61.468 168.745L61.8882 167.838L60.9808 167.418ZM69.3369 149.374L69.7571 148.466L68.8497 148.046L68.4294 148.954L69.3369 149.374ZM75.5233 152.239L76.4308 152.659L76.851 151.752L75.9436 151.331L75.5233 152.239ZM63.7598 177.641L63.3395 178.548L64.247 178.968L64.6672 178.061L63.7598 177.641ZM31.2039 162.564L42.7939 137.537L40.979 136.697L29.3891 161.724L31.2039 162.564ZM41.4662 138.024L47.6527 140.889L48.4932 139.075L42.3067 136.21L41.4662 138.024ZM47.1655 139.562L38.9831 157.231L40.798 158.071L48.9804 140.402L47.1655 139.562ZM39.4703 158.558L46.641 161.879L47.4815 160.064L40.3108 156.744L39.4703 158.558ZM47.9687 161.392L55.4782 145.176L53.6634 144.335L46.1538 160.551L47.9687 161.392ZM54.1506 145.663L59.8684 148.311L60.7088 146.496L54.991 143.848L54.1506 145.663ZM59.3812 146.983L51.8716 163.199L53.6865 164.04L61.196 147.824L59.3812 146.983ZM52.3588 164.527L60.5606 168.325L61.401 166.51L53.1993 162.712L52.3588 164.527ZM61.8882 167.838L70.2443 149.794L68.4294 148.954L60.0734 166.998L61.8882 167.838ZM68.9166 150.281L75.1031 153.146L75.9436 151.331L69.7571 148.466L68.9166 150.281ZM74.6159 151.819L62.8523 177.221L64.6672 178.061L76.4308 152.659L74.6159 151.819ZM64.18 176.733L30.7167 161.237L29.8763 163.052L63.3395 178.548L64.18 176.733Z" fill="white" mask="url(#path-31-outside-11_1595_1582)"/>
<mask id="path-33-outside-12_1595_1582" maskUnits="userSpaceOnUse" x="42.6449" y="99.2647" width="54.8098" height="55.0659" fill="black">
<rect fill="white" x="42.6449" y="99.2647" width="54.8098" height="55.0659"/>
<path d="M70.6294 133.438L76.0506 125.57L62.2702 121.72L62.2116 121.805L70.6294 133.438ZM52.4404 119.965L57.1583 113.118L95.3496 122.685L90.5731 129.617L82.2282 127.255L74.4041 138.611L79.5256 145.652L74.8956 152.371L52.4404 119.965Z"/>
</mask>
<path d="M70.6294 133.438L69.8193 134.024L70.6495 135.172L71.4529 134.006L70.6294 133.438ZM76.0506 125.57L76.8741 126.137L77.6689 124.984L76.3197 124.607L76.0506 125.57ZM62.2702 121.72L62.5392 120.757L61.8517 120.565L61.4467 121.153L62.2702 121.72ZM62.2116 121.805L61.3881 121.238L60.9874 121.819L61.4014 122.391L62.2116 121.805ZM52.4404 119.965L51.6169 119.398L51.2249 119.967L51.6184 120.535L52.4404 119.965ZM57.1583 113.118L57.4013 112.148L56.7284 111.979L56.3348 112.55L57.1583 113.118ZM95.3496 122.685L96.1731 123.252L96.991 122.065L95.5926 121.715L95.3496 122.685ZM90.5731 129.617L90.3007 130.58L90.9901 130.775L91.3966 130.185L90.5731 129.617ZM82.2282 127.255L82.5007 126.293L81.8113 126.097L81.4048 126.687L82.2282 127.255ZM74.4041 138.611L73.5807 138.043L73.179 138.626L73.5954 139.199L74.4041 138.611ZM79.5256 145.652L80.349 146.219L80.7507 145.636L80.3343 145.063L79.5256 145.652ZM74.8956 152.371L74.0736 152.941L74.8979 154.131L75.719 152.939L74.8956 152.371ZM71.4529 134.006L76.8741 126.137L75.2272 125.003L69.806 132.871L71.4529 134.006ZM76.3197 124.607L62.5392 120.757L62.0011 122.683L75.7816 126.533L76.3197 124.607ZM61.4467 121.153L61.3881 121.238L63.035 122.373L63.0936 122.288L61.4467 121.153ZM61.4014 122.391L69.8193 134.024L71.4396 132.852L63.0217 121.219L61.4014 122.391ZM53.2639 120.533L57.9818 113.685L56.3348 112.55L51.6169 119.398L53.2639 120.533ZM56.9153 114.088L95.1066 123.655L95.5926 121.715L57.4013 112.148L56.9153 114.088ZM94.5261 122.117L89.7496 129.05L91.3966 130.185L96.1731 123.252L94.5261 122.117ZM90.8455 128.655L82.5007 126.293L81.9558 128.217L90.3007 130.58L90.8455 128.655ZM81.4048 126.687L73.5807 138.043L75.2276 139.178L83.0517 127.822L81.4048 126.687ZM73.5954 139.199L78.7169 146.24L80.3343 145.063L75.2128 138.022L73.5954 139.199ZM78.7021 145.084L74.0721 151.804L75.719 152.939L80.349 146.219L78.7021 145.084ZM75.7175 151.802L53.2623 119.396L51.6184 120.535L74.0736 152.941L75.7175 151.802Z" fill="white" mask="url(#path-33-outside-12_1595_1582)"/>
<mask id="path-35-outside-13_1595_1582" maskUnits="userSpaceOnUse" x="67.169" y="73.5122" width="50.968" height="50.8447" fill="black">
<rect fill="white" x="67.169" y="73.5122" width="50.968" height="50.8447"/>
<path d="M81.7304 93.5886L74.0292 101.517L69.1389 96.7667L90.1911 75.0935L95.0814 79.8437L87.3803 87.772L108.942 108.716L103.292 114.533L81.7304 93.5886Z"/>
</mask>
<path d="M81.7304 93.5886L82.4271 92.8713L81.7098 92.1745L81.0131 92.8918L81.7304 93.5886ZM74.0292 101.517L73.3325 102.234L74.0498 102.931L74.7465 102.214L74.0292 101.517ZM69.1389 96.7667L68.4216 96.0699L67.7248 96.7872L68.4421 97.484L69.1389 96.7667ZM90.1911 75.0935L90.8878 74.3762L90.1705 73.6794L89.4738 74.3967L90.1911 75.0935ZM95.0814 79.8437L95.7987 80.5405L96.4955 79.8232L95.7782 79.1264L95.0814 79.8437ZM87.3803 87.772L86.663 87.0753L85.9662 87.7926L86.6835 88.4893L87.3803 87.772ZM108.942 108.716L109.66 109.413L110.356 108.696L109.639 107.999L108.942 108.716ZM103.292 114.533L102.596 115.25L103.313 115.947L104.01 115.23L103.292 114.533ZM81.0131 92.8918L73.3119 100.82L74.7465 102.214L82.4477 94.2854L81.0131 92.8918ZM74.726 100.8L69.8356 96.0494L68.4421 97.484L73.3325 102.234L74.726 100.8ZM69.8562 97.4634L90.9084 75.7902L89.4738 74.3967L68.4216 96.0699L69.8562 97.4634ZM89.4943 75.8108L94.3847 80.561L95.7782 79.1264L90.8878 74.3762L89.4943 75.8108ZM94.3641 79.147L86.663 87.0753L88.0976 88.4688L95.7987 80.5405L94.3641 79.147ZM86.6835 88.4893L108.246 109.434L109.639 107.999L88.077 87.0547L86.6835 88.4893ZM108.225 108.02L102.575 113.836L104.01 115.23L109.66 109.413L108.225 108.02ZM103.989 113.816L82.4271 92.8713L81.0336 94.3059L102.596 115.25L103.989 113.816Z" fill="white" mask="url(#path-35-outside-13_1595_1582)"/>
<mask id="path-37-outside-14_1595_1582" maskUnits="userSpaceOnUse" x="94.0093" y="63.69" width="33.1601" height="37.1845" fill="black">
<rect fill="white" x="94.0093" y="63.69" width="33.1601" height="37.1845"/>
<path d="M95.9308 70.5202L102.218 65.3988L125.509 93.9901L119.222 99.1115L95.9308 70.5202Z"/>
</mask>
<path d="M95.9308 70.5202L95.2992 69.7449L94.5239 70.3765L95.1555 71.1518L95.9308 70.5202ZM102.218 65.3988L102.993 64.7672L102.361 63.9919L101.586 64.6235L102.218 65.3988ZM125.509 93.9901L126.14 94.7654L126.916 94.1338L126.284 93.3585L125.509 93.9901ZM119.222 99.1115L118.446 99.7431L119.078 100.518L119.853 99.8868L119.222 99.1115ZM96.5624 71.2955L102.849 66.1741L101.586 64.6235L95.2992 69.7449L96.5624 71.2955ZM101.442 66.0304L124.733 94.6217L126.284 93.3585L102.993 64.7672L101.442 66.0304ZM124.877 93.2148L118.59 98.3362L119.853 99.8868L126.14 94.7654L124.877 93.2148ZM119.997 98.4799L96.7061 69.8886L95.1555 71.1518L118.446 99.7431L119.997 98.4799Z" fill="white" mask="url(#path-37-outside-14_1595_1582)"/>
<mask id="path-39-outside-15_1595_1582" maskUnits="userSpaceOnUse" x="105.923" y="40.3609" width="52.1045" height="52.7284" fill="black">
<rect fill="white" x="105.923" y="40.3609" width="52.1045" height="52.7284"/>
<path d="M145.411 80.1222L137.68 85.0014L107.908 60.1834L114.94 55.7453L135.723 73.2884L135.81 73.2333L129.004 46.869L136.08 42.4034L145.411 80.1222Z"/>
</mask>
<path d="M145.411 80.1222L145.944 80.9679L146.555 80.5827L146.381 79.8821L145.411 80.1222ZM137.68 85.0014L137.039 85.7695L137.598 86.2353L138.213 85.8471L137.68 85.0014ZM107.908 60.1834L107.374 59.3377L106.212 60.0713L107.268 60.9515L107.908 60.1834ZM114.94 55.7453L115.585 54.9811L115.026 54.5088L114.406 54.8996L114.94 55.7453ZM135.723 73.2884L135.078 74.0526L135.637 74.5249L136.257 74.1341L135.723 73.2884ZM135.81 73.2333L136.344 74.0789L136.961 73.6896L136.779 72.9833L135.81 73.2333ZM129.004 46.869L128.471 46.0234L127.854 46.4127L128.036 47.119L129.004 46.869ZM136.08 42.4034L137.051 42.1632L136.718 40.8182L135.546 41.5577L136.08 42.4034ZM144.877 79.2766L137.146 84.1557L138.213 85.8471L145.944 80.9679L144.877 79.2766ZM138.32 84.2333L108.548 59.4153L107.268 60.9515L137.039 85.7695L138.32 84.2333ZM108.442 61.029L115.474 56.5909L114.406 54.8996L107.374 59.3377L108.442 61.029ZM114.295 56.5094L135.078 74.0526L136.368 72.5242L115.585 54.9811L114.295 56.5094ZM136.257 74.1341L136.344 74.0789L135.277 72.3876L135.189 72.4427L136.257 74.1341ZM136.779 72.9833L129.973 46.6191L128.036 47.119L134.842 73.4832L136.779 72.9833ZM129.538 47.7147L136.614 43.249L135.546 41.5577L128.471 46.0234L129.538 47.7147ZM135.109 42.6435L144.44 80.3624L146.381 79.8821L137.051 42.1632L135.109 42.6435Z" fill="white" mask="url(#path-39-outside-15_1595_1582)"/>
<mask id="path-41-outside-16_1595_1582" maskUnits="userSpaceOnUse" x="141.233" y="26.3586" width="43.7437" height="47.9953" fill="black">
<rect fill="white" x="141.233" y="26.3586" width="43.7437" height="47.9953"/>
<path d="M143.111 38.8595L168.513 28.1155L171.168 34.3946L153.235 41.9798L156.313 49.2578L172.772 42.2963L175.227 48.0997L158.768 55.0612L162.289 63.3858L180.603 55.6396L183.259 61.9187L157.476 72.8237L143.111 38.8595Z"/>
</mask>
<path d="M143.111 38.8595L142.721 37.9385L141.8 38.3281L142.19 39.2491L143.111 38.8595ZM168.513 28.1155L169.434 27.7259L169.044 26.8049L168.123 27.1945L168.513 28.1155ZM171.168 34.3946L171.558 35.3156L172.479 34.926L172.089 34.005L171.168 34.3946ZM153.235 41.9798L152.845 41.0588L151.924 41.4483L152.314 42.3693L153.235 41.9798ZM156.313 49.2578L155.392 49.6474L155.782 50.5684L156.703 50.1788L156.313 49.2578ZM172.772 42.2963L173.693 41.9068L173.304 40.9858L172.383 41.3753L172.772 42.2963ZM175.227 48.0997L175.616 49.0207L176.537 48.6312L176.148 47.7102L175.227 48.0997ZM158.768 55.0612L158.378 54.1402L157.457 54.5298L157.847 55.4508L158.768 55.0612ZM162.289 63.3858L161.368 63.7753L161.757 64.6963L162.678 64.3068L162.289 63.3858ZM180.603 55.6396L181.524 55.25L181.134 54.329L180.213 54.7186L180.603 55.6396ZM183.259 61.9187L183.648 62.8397L184.569 62.4501L184.18 61.5291L183.259 61.9187ZM157.476 72.8237L156.555 73.2132L156.945 74.1342L157.866 73.7447L157.476 72.8237ZM143.5 39.7805L168.902 29.0365L168.123 27.1945L142.721 37.9385L143.5 39.7805ZM167.592 28.505L170.247 34.7841L172.089 34.005L169.434 27.7259L167.592 28.505ZM170.779 33.4736L152.845 41.0588L153.625 42.9008L171.558 35.3156L170.779 33.4736ZM152.314 42.3693L155.392 49.6474L157.234 48.8683L154.156 41.5902L152.314 42.3693ZM156.703 50.1788L173.162 43.2173L172.383 41.3753L155.924 48.3368L156.703 50.1788ZM171.851 42.6859L174.306 48.4893L176.148 47.7102L173.693 41.9068L171.851 42.6859ZM174.837 47.1787L158.378 54.1402L159.158 55.9822L175.616 49.0207L174.837 47.1787ZM157.847 55.4508L161.368 63.7753L163.21 62.9962L159.689 54.6717L157.847 55.4508ZM162.678 64.3068L180.992 56.5606L180.213 54.7186L161.899 62.4648L162.678 64.3068ZM179.682 56.0291L182.338 62.3082L184.18 61.5291L181.524 55.25L179.682 56.0291ZM182.869 60.9977L157.087 71.9027L157.866 73.7447L183.648 62.8397L182.869 60.9977ZM158.397 72.4341L144.032 38.47L142.19 39.2491L156.555 73.2132L158.397 72.4341Z" fill="white" mask="url(#path-41-outside-16_1595_1582)"/>
<path d="M209.516 36.6545C209.819 38.2092 209.548 39.6124 208.704 40.8642C207.894 42.1093 206.695 42.8865 205.107 43.1958C203.518 43.5051 202.098 43.2379 200.846 42.3941C199.628 41.5438 198.868 40.3413 198.565 38.7866C198.256 37.1981 198.51 35.7981 199.326 34.5868C200.17 33.3351 201.386 32.5546 202.975 32.2453C204.563 31.936 205.966 32.2065 207.184 33.0568C208.429 33.8668 209.207 35.066 209.516 36.6545Z" fill="white"/>
<path d="M464.24 217.414C464.543 218.968 464.272 220.372 463.429 221.623C462.619 222.869 461.42 223.646 459.831 223.955C458.243 224.264 456.822 223.997 455.571 223.153C454.353 222.303 453.592 221.101 453.29 219.546C452.98 217.957 453.234 216.557 454.051 215.346C454.894 214.094 456.11 213.314 457.699 213.005C459.287 212.695 460.691 212.966 461.909 213.816C463.154 214.626 463.931 215.825 464.24 217.414Z" fill="white"/>
<path d="M243.766 45.0642L250.994 45.2875C252.164 45.3236 253.305 45.1694 254.418 44.8248C255.531 44.4803 256.531 43.8911 257.418 43.0573C258.306 42.189 259.03 41.0573 259.59 39.6622C260.15 38.2671 260.461 36.5543 260.524 34.5237C260.581 32.6652 260.444 30.9902 260.111 29.4986C259.813 27.9737 259.268 26.665 258.475 25.5726C257.682 24.4802 256.606 23.6374 255.246 23.0442C253.922 22.4177 252.262 22.0736 250.266 22.0119L244.484 21.8333L243.766 45.0642ZM236.589 14.7686L252.49 15.2597C254.864 15.3331 257.055 15.7797 259.062 16.5995C261.104 17.4205 262.841 18.6109 264.274 20.171C265.742 21.7321 266.854 23.6611 267.609 25.9581C268.4 28.2561 268.748 30.9366 268.653 33.9997C268.57 36.6841 268.149 39.1515 267.391 41.4017C266.632 43.6519 265.522 45.5812 264.06 47.1896C262.632 48.799 260.854 50.0532 258.725 50.952C256.631 51.8174 254.173 52.2066 251.351 52.1194L235.451 51.6283L236.589 14.7686Z" fill="white"/>
<path d="M278.692 16.9749L305.702 22.5557L304.322 29.2323L285.253 25.2923L283.654 33.0311L301.155 36.6471L299.88 42.8179L282.379 39.2019L280.55 48.0535L300.024 52.0771L298.644 58.7537L271.23 53.0894L278.692 16.9749Z" fill="white"/>
<path d="M313.134 50.7088C312.681 51.8627 312.506 52.9221 312.608 53.8869C312.71 54.8517 312.997 55.7227 313.469 56.4996C313.986 57.2572 314.658 57.9465 315.487 58.5677C316.329 59.1569 317.246 59.6464 318.24 60.0363C318.913 60.3005 319.653 60.5354 320.46 60.7412C321.28 60.9148 322.089 60.9735 322.888 60.9171C323.687 60.8607 324.418 60.6481 325.08 60.2793C325.755 59.8785 326.263 59.2453 326.602 58.3799C326.967 57.4504 326.958 56.5776 326.576 55.7617C326.225 54.9583 325.644 54.1757 324.834 53.4137C324.023 52.6517 323.065 51.8875 321.961 51.121C320.856 50.3545 319.748 49.5497 318.636 48.7066C317.48 47.8829 316.38 47.0077 315.339 46.081C314.309 45.1222 313.458 44.0856 312.786 42.971C312.114 41.8564 311.687 40.6347 311.506 39.306C311.369 37.9577 311.609 36.4983 312.225 34.9277C312.917 33.1648 313.883 31.7869 315.123 30.7941C316.408 29.7818 317.83 29.082 319.387 28.6945C320.945 28.3071 322.575 28.2069 324.277 28.394C325.979 28.5811 327.599 28.9765 329.138 29.5803C330.933 30.2846 332.566 31.1659 334.037 32.2241C335.553 33.2628 336.776 34.4825 337.706 35.8831C338.635 37.2838 339.192 38.8339 339.376 40.5335C339.604 42.2137 339.329 44.0474 338.549 46.0347L331.241 43.1668C331.579 42.1159 331.688 41.1785 331.568 40.3544C331.479 39.5429 331.206 38.8254 330.748 38.2018C330.29 37.5781 329.692 37.029 328.953 36.5542C328.247 36.0921 327.429 35.6786 326.499 35.3138C325.89 35.0749 325.256 34.9 324.597 34.7892C323.938 34.6784 323.289 34.6827 322.65 34.8019C322.043 34.9338 321.485 35.1772 320.976 35.5322C320.467 35.8872 320.068 36.4333 319.779 37.1705C319.514 37.8437 319.429 38.4389 319.522 38.9562C319.615 39.4735 319.96 40.0531 320.559 40.695C321.19 41.3495 322.094 42.1108 323.269 42.9791C324.477 43.86 326.048 44.9943 327.982 46.3819C328.572 46.7617 329.36 47.348 330.343 48.1408C331.371 48.9142 332.301 49.8896 333.134 51.0671C333.967 52.2445 334.538 53.6155 334.849 55.1801C335.204 56.7251 335.005 58.4592 334.25 60.3824C333.634 61.953 332.757 63.2919 331.62 64.3991C330.482 65.5063 329.11 66.3178 327.502 66.8334C325.938 67.3296 324.152 67.498 322.144 67.3385C320.167 67.1915 318.008 66.659 315.669 65.7407C313.777 64.9986 312.029 64.0349 310.423 62.8497C308.836 61.7092 307.548 60.3717 306.56 58.8371C305.604 57.3152 305.027 55.6277 304.829 53.7747C304.631 51.9217 304.964 49.9438 305.826 47.8409L313.134 50.7088Z" fill="white"/>
<path d="M350.989 40.1851L358.118 44.0493L340.544 76.4702L333.415 72.606L350.989 40.1851Z" fill="white"/>
<path d="M371.279 92.0115C369.011 92.6479 366.946 92.7491 365.084 92.315C363.242 91.8533 361.6 91.0905 360.16 90.0267C357.889 88.3492 356.126 86.4476 354.871 84.3219C353.664 82.1889 352.949 79.9697 352.725 77.6643C352.502 75.3589 352.743 73.0329 353.449 70.6863C354.175 68.3119 355.336 66.0446 356.932 63.8843C358.569 61.6686 360.415 59.8646 362.471 58.4722C364.547 57.0522 366.73 56.0962 369.02 55.6043C371.309 55.1124 373.651 55.1297 376.045 55.6562C378.466 56.2033 380.812 57.3155 383.083 58.9931C384.606 60.1183 385.9 61.4379 386.965 62.9521C388.078 64.4591 388.875 66.0751 389.356 67.8001C389.864 69.5456 390.012 71.3454 389.798 73.1995C389.584 75.0536 388.937 76.8867 387.855 78.6989L381.623 74.0959C382.463 72.1478 382.636 70.3491 382.142 68.6999C381.648 67.0507 380.611 65.643 379.032 64.4769C377.565 63.3927 376.103 62.7629 374.649 62.5876C373.215 62.3846 371.822 62.5325 370.469 63.0313C369.136 63.5025 367.867 64.2348 366.663 65.2284C365.485 66.2425 364.416 67.4004 363.455 68.7021C362.534 69.9484 361.772 71.2694 361.17 72.6649C360.615 74.0532 360.308 75.4534 360.25 76.8656C360.191 78.2778 360.46 79.6532 361.055 80.9917C361.67 82.3026 362.712 83.5002 364.18 84.5844C366.34 86.1801 368.401 86.8675 370.362 86.6466C372.371 86.4184 374.24 85.3373 375.968 83.4033L369.404 78.5548L372.995 73.6941L385.458 82.9001L373.613 98.9363L369.459 95.8676L371.279 92.0115Z" fill="white"/>
<path d="M404.353 76.9196L409.818 82.84L402.079 110.93L402.15 111.006L420.328 94.2254L425.478 99.8043L398.381 124.818L392.881 118.859L400.617 90.8421L400.547 90.7662L382.406 107.512L377.256 101.933L404.353 76.9196Z" fill="white"/>
<path d="M433.776 110.558L448.582 133.828L442.83 137.488L432.377 121.06L425.71 125.302L435.303 140.379L429.987 143.762L420.394 128.684L412.768 133.536L423.443 150.313L417.691 153.973L402.663 130.355L433.776 110.558Z" fill="white"/>
<path d="M441.22 156.659L444.619 164.867C445.331 166.585 446.246 167.715 447.366 168.258C448.485 168.8 449.903 168.716 451.621 168.004C453.275 167.319 454.291 166.396 454.666 165.234C455.074 164.059 454.922 162.612 454.211 160.894L450.811 152.687L441.22 156.659ZM453.53 142.784L461.139 161.155C461.772 162.682 462.084 164.156 462.075 165.575C462.112 167.014 461.879 168.34 461.376 169.555C460.886 170.801 460.16 171.884 459.199 172.804C458.284 173.742 457.174 174.482 455.869 175.022C453.865 175.852 451.954 176.14 450.135 175.888C448.329 175.667 446.649 174.76 445.095 173.167L444.999 173.207C445.127 174.235 445.045 175.163 444.755 175.991C444.496 176.807 444.08 177.557 443.507 178.242C442.965 178.913 442.297 179.506 441.504 180.021C440.724 180.568 439.918 181.051 439.086 181.47C438.558 181.726 437.935 182.021 437.217 182.356C436.498 182.691 435.77 183.048 435.033 183.428C434.309 183.84 433.63 184.27 432.996 184.719C432.407 185.187 431.947 185.694 431.614 186.242L428.511 178.75C429.422 177.889 430.605 177.1 432.06 176.386C433.516 175.671 434.888 174.935 436.177 174.178C437.853 173.185 438.933 172.104 439.418 170.934C439.902 169.765 439.756 168.241 438.979 166.365L435.876 158.873L422.562 164.387L419.459 156.895L453.53 142.784Z" fill="white"/>
</svg>
