<svg width="77" height="68" viewBox="0 0 77 68" fill="none" xmlns="http://www.w3.org/2000/svg">
<g clip-path="url(#clip0_2048_613)">
<path d="M65.06 57.1199C62.4855 59.6157 59.5196 61.6729 56.28 63.2099C53.1164 64.6886 49.7806 65.7669 46.35 66.4199C43.9074 66.9386 41.4252 67.2497 38.93 67.3499C30.1533 67.5519 21.5122 65.1586 14.09 60.4699C10.8013 58.3834 7.86189 55.7916 5.38004 52.7899C3.76958 50.8574 2.42436 48.7185 1.38004 46.4299C0.463238 44.0916 -0.00492352 41.6016 3.90425e-05 39.0899C3.90425e-05 37.5399 1.07004 37.6899 2.40004 38.6799C4.08871 39.9845 5.54284 41.5671 6.70004 43.3599C8.39771 47.0772 10.9097 50.365 14.05 52.9799C17.3333 55.7459 21.0497 57.9521 25.05 59.5099C29.98 61.5099 35.73 61.7499 41.13 61.2699C47.1044 60.8775 52.8519 58.8313 57.73 55.3599C60.6892 53.1729 63.1842 50.4196 65.07 47.2599C67.9908 42.3346 69.7647 36.8147 70.26 31.1099C70.565 26.707 70.269 22.283 69.38 17.9599C69.2 17.0099 68.95 16.0899 68.77 15.1399C68.33 11.5799 68.44 10.3999 69.92 9.21994C70.1909 8.95238 70.4781 8.7019 70.78 8.46994C71.62 7.86994 73.39 9.03994 74.41 11.7799C75.2252 13.8174 75.8056 15.9411 76.14 18.1099C76.5228 20.3215 76.7533 22.5568 76.83 24.7999C76.9889 29.4339 76.5077 34.0675 75.4 38.5699C73.7668 45.6079 70.2275 52.0603 65.17 57.2199L65.06 57.1199Z" fill="white"/>
<path d="M19.3398 11.5999C19.7098 14.8399 21.7198 18.9299 24.8298 20.3599C26.1698 20.9799 28.1598 20.5899 28.4998 18.8699C28.9602 15.8382 28.3408 12.7412 26.7498 10.1199C26.1117 8.86404 25.1656 7.79059 23.9998 6.99983C23.1475 6.55366 22.1359 6.52998 21.2636 6.93575C20.3913 7.34153 19.7577 8.13047 19.5498 9.06983C18.6498 12.1599 23.4698 13.4799 24.3698 10.3899L24.4798 9.98983L23.3298 11.4899L22.7398 11.6599L20.9998 10.9299C22.6898 12.2799 24.1298 15.3399 23.6998 17.5399L27.3698 16.0399C25.7798 15.0582 24.6874 13.4414 24.3698 11.5999C24.3282 10.2368 23.2329 9.14148 21.8698 9.09983C20.4937 9.11071 19.3807 10.2237 19.3698 11.5999H19.3398Z" fill="white"/>
<path d="M34.4805 4.91C34.8605 8.22 36.9404 12.64 40.1205 14.13C41.4605 14.75 43.4605 14.35 43.7905 12.63C44.2359 9.47176 43.5751 6.25666 41.9204 3.52999C41.2809 2.25241 40.3236 1.16078 39.1405 0.359995C38.2979 -0.0867581 37.2962 -0.119392 36.4263 0.271571C35.5564 0.662534 34.9157 1.43328 34.6904 2.36C33.7904 5.46 38.6204 6.77999 39.5104 3.69L39.6305 3.29L38.4805 4.79L37.8805 4.96L36.1105 4.23C37.8705 5.64 39.4105 9.01 38.9705 11.29L42.6405 9.8C41.1205 9.09 39.6405 6.53999 39.4805 4.89999C39.1205 1.73999 34.1105 1.69999 34.4805 4.89999V4.91Z" fill="white"/>
</g>
<defs>
<clipPath id="clip0_2048_613">
<rect width="77" height="68" fill="white"/>
</clipPath>
</defs>
</svg>
