<svg width="1684" height="939" viewBox="0 0 1684 939" fill="none" xmlns="http://www.w3.org/2000/svg">
<mask id="mask0_1165_26621" style="mask-type:luminance" maskUnits="userSpaceOnUse" x="68" y="35" width="1501" height="880">
<path d="M68.1182 342.084L1440.56 35.0249L1568.56 607.138L196.118 914.197L68.1182 342.084Z" fill="white"/>
</mask>
<g mask="url(#mask0_1165_26621)">
<mask id="mask1_1165_26621" style="mask-type:luminance" maskUnits="userSpaceOnUse" x="60" y="-13" width="1515" height="973">
<path d="M60.3057 415.438L1400.36 -12.4808L1574.16 531.781L234.098 959.699L60.3057 415.438Z" fill="white"/>
</mask>
<g mask="url(#mask1_1165_26621)">
<mask id="mask2_1165_26621" style="mask-type:luminance" maskUnits="userSpaceOnUse" x="60" y="-14" width="1519" height="974">
<path d="M60.3054 415.437L1404.54 -13.8135L1578.41 530.687L234.177 959.937L60.3054 415.437Z" fill="white"/>
</mask>
<g mask="url(#mask2_1165_26621)">
<mask id="mask3_1165_26621" style="mask-type:luminance" maskUnits="userSpaceOnUse" x="141" y="127" width="1354" height="693">
<path d="M730.868 201.307C360.52 319.571 99.2222 537.337 147.237 687.695C195.252 838.053 534.404 864.068 904.74 745.807C1275.09 627.544 1536.39 409.79 1488.37 259.432C1440.36 109.074 1101.22 83.0436 730.868 201.307Z" fill="white"/>
</mask>
<g mask="url(#mask3_1165_26621)">
<path d="M730.868 201.308C360.52 319.571 99.222 537.337 147.237 687.695C195.252 838.053 534.404 864.069 904.74 745.808C1275.09 627.544 1536.39 409.791 1488.37 259.433C1440.36 109.075 1101.22 83.0438 730.868 201.308Z" stroke="#353955" stroke-width="9.60222"/>
</g>
</g>
</g>
</g>
<mask id="mask4_1165_26621" style="mask-type:luminance" maskUnits="userSpaceOnUse" x="1346" y="119" width="284" height="284">
<path d="M1346.25 171.024L1577.59 119.265L1629.35 350.611L1398 402.371L1346.25 171.024Z" fill="white"/>
</mask>
<g mask="url(#mask4_1165_26621)">
<mask id="mask5_1165_26621" style="mask-type:luminance" maskUnits="userSpaceOnUse" x="1357" y="132" width="260" height="259">
<path d="M1357.8 157.04L1591.71 132.007L1616.75 365.934L1382.83 390.955L1357.8 157.04Z" fill="white"/>
</mask>
<g mask="url(#mask5_1165_26621)">
<mask id="mask6_1165_26621" style="mask-type:luminance" maskUnits="userSpaceOnUse" x="1357" y="132" width="260" height="259">
<path d="M1357.8 157.04L1591.71 132.007L1616.75 365.934L1382.83 390.955L1357.8 157.04Z" fill="white"/>
</mask>
<g mask="url(#mask6_1165_26621)">
<path d="M1496.47 264.392C1513.2 262.534 1529.92 260.512 1546.61 258.277C1566.11 255.647 1585.58 252.804 1604.98 249.246C1585.27 249.885 1565.64 251.212 1546.02 252.767C1529.23 254.114 1512.47 255.67 1495.72 257.406C1506.24 244.267 1516.64 231.015 1526.86 217.622C1538.79 201.977 1550.54 186.19 1561.75 169.974C1548.26 184.354 1535.31 199.176 1522.54 214.139C1511.63 226.968 1500.87 239.928 1490.25 252.998C1488.39 236.257 1486.38 219.536 1484.15 202.84C1481.51 183.349 1478.66 163.878 1475.12 144.487C1475.75 164.198 1477.09 183.825 1478.63 203.434C1479.98 220.224 1481.54 236.994 1483.28 253.738C1470.14 243.214 1456.89 232.816 1443.49 222.592C1427.85 210.666 1412.06 198.924 1395.84 187.718C1410.22 201.21 1425.04 214.154 1440 226.925C1452.83 237.84 1465.79 248.598 1478.86 259.203C1462.12 261.048 1445.41 263.07 1428.71 265.305C1409.22 267.935 1389.75 270.791 1370.35 274.349C1390.06 273.722 1409.69 272.395 1429.31 270.84C1446.09 269.496 1462.86 267.925 1479.6 266.192C1469.07 279.331 1458.69 292.58 1448.46 305.961C1436.54 321.606 1424.78 337.392 1413.59 353.63C1427.08 339.25 1440.02 324.416 1452.8 309.454C1463.71 296.637 1474.46 283.679 1485.08 270.609C1486.92 287.341 1488.94 304.059 1491.18 320.755C1493.81 340.248 1496.65 359.719 1500.22 379.117C1499.6 359.407 1498.25 339.767 1496.7 320.161C1495.36 303.368 1493.8 286.598 1492.06 269.854C1505.2 280.379 1518.45 290.776 1531.83 301.003C1547.49 312.914 1563.26 324.671 1579.49 335.877C1565.11 322.385 1550.28 309.456 1535.32 296.685C1522.5 285.755 1509.53 275.012 1496.47 264.392Z" fill="#515783"/>
</g>
</g>
</g>
<mask id="mask7_1165_26621" style="mask-type:luminance" maskUnits="userSpaceOnUse" x="75" y="25" width="1496" height="897">
<path d="M75.3984 330.607L1438.47 25.6462L1570.66 616.517L207.595 921.478L75.3984 330.607Z" fill="white"/>
</mask>
<g mask="url(#mask7_1165_26621)">
<mask id="mask8_1165_26621" style="mask-type:luminance" maskUnits="userSpaceOnUse" x="62" y="-47" width="1519" height="1041">
<path d="M62.6196 460.11L1374.86 -46.7331L1580.71 486.227L268.469 993.07L62.6196 460.11Z" fill="white"/>
</mask>
<g mask="url(#mask8_1165_26621)">
<mask id="mask9_1165_26621" style="mask-type:luminance" maskUnits="userSpaceOnUse" x="62" y="-49" width="1523" height="1043">
<path d="M62.6193 460.109L1378.95 -48.3018L1584.89 484.894L268.56 993.306L62.6193 460.109Z" fill="white"/>
</mask>
<g mask="url(#mask9_1165_26621)">
<mask id="mask10_1165_26621" style="mask-type:luminance" maskUnits="userSpaceOnUse" x="157" y="105" width="1331" height="737">
<path d="M719.268 206.493C356.606 346.555 108.724 579.464 165.584 726.715C222.454 873.95 562.549 879.764 925.209 739.689C1287.87 599.614 1535.75 366.705 1478.88 219.47C1422.02 72.2315 1081.93 66.4182 719.268 206.493Z" fill="white"/>
</mask>
<g mask="url(#mask10_1165_26621)">
<path d="M711.974 214.472L707.473 216.249L703.949 207.317L708.462 205.538L711.974 214.472ZM703.012 218.029L698.528 219.828L694.955 210.907L699.438 209.109L703.012 218.029ZM694.081 221.617L689.628 223.435L686.009 214.537L690.462 212.72L694.081 221.617ZM685.211 225.243L680.784 227.067L677.107 218.196L681.546 216.369L685.211 225.243ZM676.385 228.898L671.979 230.756L668.265 221.892L672.674 220.047L676.385 228.898ZM667.61 232.605L663.231 234.47L659.471 225.629L663.85 223.765L667.61 232.605ZM658.889 236.326L654.54 238.209L650.724 229.407L655.085 227.521L658.889 236.326ZM650.102 240.151L645.654 242.108L641.789 233.317L646.237 231.36L650.102 240.151ZM641.255 244.054L636.837 246.03L632.914 237.265L637.332 235.289L641.255 244.054ZM632.455 247.998L628.064 249.98L624.095 241.238L628.486 239.255L632.455 247.998ZM623.713 251.967L619.355 253.981L615.337 245.249L619.698 243.248L623.713 251.967ZM615.03 255.974L610.702 258.007L606.638 249.298L610.969 247.278L615.03 255.974ZM606.408 260.019L602.106 262.059L597.987 253.388L602.288 251.349L606.408 260.019ZM597.842 264.09L593.571 266.148L589.405 257.501L593.676 255.443L597.842 264.09ZM589.278 268.224L584.91 270.368L580.695 261.732L585.066 259.6L589.278 268.224ZM580.564 272.495L576.227 274.658L571.954 266.048L576.306 263.894L580.564 272.495ZM571.923 276.8L567.612 278.97L563.296 270.395L567.606 268.226L571.923 276.8ZM563.338 281.132L559.058 283.321L554.695 274.769L558.976 272.58L563.338 281.132ZM554.826 285.498L550.588 287.703L546.167 279.178L550.405 276.973L554.826 285.498ZM546.383 289.888L542.174 292.112L537.695 283.612L541.906 281.4L546.383 289.888ZM538 294.315L533.83 296.543L529.308 288.079L533.477 285.851L538 294.315ZM529.654 298.799L525.364 301.118L520.783 292.679L525.086 290.357L529.654 298.799ZM521.114 303.441L516.854 305.779L512.23 297.375L516.487 295.025L521.114 303.441ZM512.645 308.118L508.427 310.472L503.745 302.095L507.963 299.741L512.645 308.118ZM504.261 312.828L500.085 315.198L495.344 306.847L499.532 304.473L504.261 312.828ZM495.958 317.558L491.822 319.932L487.025 311.619L491.159 309.232L495.958 317.558ZM487.725 322.311L483.63 324.702L478.79 316.423L482.882 314.02L487.725 322.311ZM479.588 327.094L475.523 329.503L470.625 321.251L474.677 318.844L479.588 327.094ZM471.408 331.976L467.214 334.491L462.26 326.277L466.44 323.752L471.408 331.976ZM463.083 337.006L458.945 339.547L453.921 331.361L458.071 328.817L463.083 337.006ZM454.857 342.078L450.758 344.623L445.678 336.475L449.774 333.918L454.857 342.078ZM446.709 347.158L442.665 349.717L437.53 341.607L441.586 339.045L446.709 347.158ZM438.673 352.277L434.668 354.84L429.477 346.768L433.479 344.193L438.673 352.277ZM430.715 357.404L426.756 359.995L421.506 351.95L425.469 349.371L430.715 357.404ZM422.854 362.561L418.835 365.23L413.52 357.237L417.549 354.554L422.854 362.561ZM414.799 367.941L410.742 370.669L405.372 362.715L409.414 359.977L414.799 367.941ZM406.758 373.382L402.768 376.121L397.33 368.208L401.32 365.468L406.758 373.382ZM398.838 378.847L394.889 381.603L389.398 373.739L393.335 370.986L398.838 378.847ZM391.014 384.342L387.129 387.096L381.57 379.274L385.455 376.519L391.014 384.342ZM383.308 389.849L379.478 392.616L373.851 384.835L377.682 382.067L383.308 389.849ZM375.72 395.368L371.91 398.169L366.219 390.441L370.014 387.63L375.72 395.368ZM367.997 401.084L364.077 404.025L358.306 396.34L362.226 393.399L367.997 401.084ZM360.216 406.941L356.363 409.893L350.526 402.261L354.379 399.309L360.216 406.941ZM352.58 412.817L348.778 415.771L342.879 408.204L346.666 405.241L352.58 412.817ZM345.062 418.705L341.339 421.667L335.362 414.156L339.083 411.182L345.062 418.705ZM337.674 424.602L334.018 427.575L327.964 420.12L331.633 417.144L337.674 424.602ZM330.432 430.519L326.752 433.56L320.621 426.161L324.301 423.119L330.432 430.519ZM323.004 436.694L319.261 439.853L313.055 432.521L316.798 429.363L323.004 436.694ZM315.591 442.995L311.927 446.161L305.647 438.898L309.311 435.731L315.591 442.995ZM308.333 449.299L304.735 452.477L298.38 445.281L301.966 442.106L308.333 449.299ZM301.229 455.608L297.71 458.793L291.269 451.668L294.791 448.495L301.229 455.608ZM294.283 461.932L290.853 465.11L284.327 458.068L287.758 454.89L294.283 461.932ZM287.427 468.313L283.842 471.718L277.233 464.759L280.818 461.354L287.427 468.313ZM280.337 475.08L276.842 478.491L270.149 471.615L273.643 468.204L280.337 475.08ZM273.44 481.855L270.034 485.259L263.245 478.468L266.651 475.065L273.44 481.855ZM266.72 488.616L263.417 492.022L256.534 485.33L259.837 481.923L266.72 488.616ZM260.207 495.382L256.992 498.782L250.003 492.19L253.218 488.79L260.207 495.382ZM253.869 502.135L250.53 505.78L243.451 499.298L246.79 495.653L253.869 502.135ZM247.274 509.394L244.028 513.056L236.845 506.687L240.091 503.024L247.274 509.394ZM240.884 516.658L237.754 520.32L230.456 514.067L233.601 510.414L240.884 516.658ZM234.735 523.907L231.718 527.557L224.31 521.443L227.328 517.793L234.735 523.907ZM228.814 531.143L225.909 534.781L218.392 528.807L221.294 525.157L228.814 531.143ZM223.049 538.447L220.021 542.394L212.397 536.573L215.422 532.613L223.049 538.447ZM217.141 546.257L214.265 550.197L206.509 544.533L209.385 540.594L217.141 546.257ZM211.51 554.044L208.786 557.975L200.901 552.481L203.64 548.56L211.51 554.044ZM206.177 561.79L203.59 565.703L195.582 560.403L198.169 556.491L206.177 561.79ZM201.133 569.51L198.579 573.569L190.448 568.464L193.002 564.404L201.133 569.51ZM196.066 577.697L193.565 581.936L185.295 577.067L187.795 572.827L196.066 577.697ZM191.219 586.065C190.44 587.457 189.671 588.835 188.929 590.219L180.484 585.658C181.255 584.229 182.04 582.809 182.834 581.375L191.219 586.065ZM186.738 594.351C186.02 595.73 185.325 597.091 184.644 598.461L176.053 594.164C176.762 592.749 177.486 591.343 178.22 589.922L186.738 594.351ZM182.626 602.567C181.953 603.975 181.284 605.394 180.638 606.808L171.918 602.796C172.58 601.34 173.266 599.878 173.976 598.411L182.626 602.567ZM178.645 611.255C178.004 612.745 177.372 614.22 176.768 615.701L167.893 612.032C168.527 610.505 169.169 608.963 169.851 607.426L178.645 611.255ZM174.997 620.111C174.426 621.572 173.883 623.04 173.349 624.494L164.329 621.203C164.886 619.68 165.455 618.155 166.049 616.625L174.997 620.111ZM171.798 628.854C171.304 630.311 170.831 631.751 170.373 633.2L161.221 630.297C161.693 628.794 162.198 627.27 162.719 625.756L171.798 628.854ZM169.057 637.521C168.599 639.085 168.165 640.644 167.756 642.197L158.473 639.735C158.905 638.112 159.358 636.472 159.839 634.838L169.057 637.521ZM166.59 646.844C166.218 648.389 165.882 649.926 165.556 651.448L156.153 649.487C156.497 647.871 156.853 646.252 157.246 644.626L166.59 646.844ZM164.671 656.032C164.393 657.543 164.143 659.061 163.917 660.573L154.429 659.144C154.66 657.54 154.93 655.941 155.222 654.324L164.671 656.032ZM163.307 665.069C163.123 666.598 162.964 668.121 162.827 669.627L153.263 668.778C153.415 667.167 153.577 665.541 153.778 663.918L163.307 665.069ZM162.487 674.357C162.393 675.943 162.333 677.508 162.294 679.055L152.706 678.841C152.732 677.181 152.807 675.51 152.891 673.824L162.487 674.357ZM162.285 683.713C162.295 685.249 162.345 686.789 162.416 688.312L152.826 688.778C152.754 687.14 152.705 685.484 152.682 683.835L162.285 683.713ZM162.731 692.871C162.854 694.395 163.011 695.899 163.192 697.397L153.669 698.566C153.461 696.946 153.304 695.327 153.156 693.693L162.731 692.871ZM163.843 701.971C164.094 703.492 164.369 705.008 164.681 706.515L155.261 708.43C154.934 706.798 154.632 705.16 154.366 703.514L163.843 701.971ZM165.683 710.997C166.044 712.494 166.441 713.982 166.86 715.453L157.631 718.107C157.173 716.517 156.748 714.907 156.348 713.291L165.683 710.997ZM168.229 719.853C168.709 721.31 169.225 722.759 169.766 724.202L160.792 727.595C160.2 726.035 159.644 724.466 159.109 722.88L168.229 719.853ZM171.494 728.483C172.093 729.901 172.714 731.301 173.384 732.69L164.698 736.8C163.989 735.292 163.304 733.778 162.653 732.244L171.494 728.483ZM175.434 736.809C176.147 738.163 176.884 739.511 177.644 740.841L169.33 745.638C168.495 744.196 167.696 742.746 166.931 741.276L175.434 736.809ZM180.029 744.796C180.844 746.088 181.698 747.384 182.571 748.651L174.658 754.089C173.708 752.711 172.793 751.313 171.902 749.91L180.029 744.796ZM185.226 752.378C186.125 753.588 187.061 754.789 188.008 755.988L180.515 761.986C179.484 760.703 178.49 759.412 177.518 758.104L185.226 752.378ZM190.951 759.51C191.957 760.682 192.982 761.825 194.034 762.975L186.989 769.488C185.857 768.267 184.749 767.04 183.672 765.78L190.951 759.51ZM197.278 766.353C198.373 767.467 199.503 768.561 200.657 769.649L194.077 776.635C192.843 775.475 191.63 774.297 190.455 773.111L197.278 766.353ZM204.106 772.801C205.226 773.794 206.383 774.779 207.549 775.75L201.402 783.126C200.159 782.096 198.937 781.049 197.752 779.993L204.106 772.801ZM211.105 778.634C212.317 779.581 213.541 780.526 214.8 781.449L209.076 789.167C207.752 788.181 206.453 787.189 205.179 786.192L211.105 778.634ZM218.608 784.201C219.9 785.104 221.214 785.99 222.552 786.87L217.255 794.89C215.855 793.96 214.463 793.015 213.109 792.061L218.608 784.201ZM226.613 789.488C227.911 790.301 229.232 791.108 230.576 791.897L225.692 800.158C224.276 799.334 222.895 798.489 221.523 797.629L226.613 789.488ZM234.521 794.169C235.844 794.925 237.201 795.66 238.555 796.383L234.027 804.859C232.613 804.098 231.196 803.325 229.816 802.544L234.521 794.169ZM242.694 798.547C244.098 799.259 245.51 799.956 246.935 800.65L242.764 809.29C241.282 808.57 239.8 807.85 238.352 807.11L242.694 798.547ZM251.275 802.68C252.733 803.354 254.214 804.01 255.706 804.664L251.881 813.47C250.331 812.791 248.793 812.109 247.278 811.409L251.275 802.68ZM260.141 806.544C261.538 807.116 262.948 807.686 264.358 808.255L260.842 817.184C259.365 816.604 257.913 816.019 256.471 815.418L260.141 806.544ZM268.649 809.898C270.105 810.444 271.558 810.978 273.024 811.51L269.787 820.543C268.268 819.998 266.772 819.448 265.274 818.886L268.649 809.898ZM277.475 813.065C278.972 813.564 280.483 814.072 282.004 814.566L279.047 823.703C277.472 823.197 275.919 822.672 274.377 822.145L277.475 813.065ZM286.571 816.006L291.314 817.432L288.55 826.63L283.807 825.203L286.571 816.006ZM295.945 818.756L300.408 819.963L297.891 829.233L293.425 828.014L295.945 818.756ZM304.818 821.105L309.402 822.221L307.105 831.557L302.531 830.426L304.818 821.105ZM313.936 823.284L318.631 824.324L316.561 833.699L311.866 832.659L313.936 823.284ZM323.285 825.296L328.104 826.257L326.248 835.674L321.43 834.713L323.285 825.296ZM332.882 827.15L337.673 827.988L336.005 837.441L331.214 836.602L332.882 827.15ZM342.163 828.741L346.799 829.46L345.306 838.95L340.679 838.216L342.163 828.741ZM351.388 830.139L356.099 830.791L354.79 840.303L350.065 839.642L351.388 830.139ZM360.787 831.396L365.596 831.974L364.446 841.503L359.636 840.925L360.787 831.396ZM370.371 832.509L375.268 833.016L374.274 842.561L369.378 842.054L370.371 832.509ZM380.126 833.468L384.849 833.886L384.013 843.447L379.293 843.041L380.126 833.468ZM389.43 834.246L394.125 834.593L393.419 844.164L388.74 843.826L389.43 834.246ZM398.783 834.898L403.537 835.168L402.977 844.757L398.22 844.474L398.783 834.898ZM408.273 835.416L413.104 835.63L412.684 845.214L407.841 845.002L408.273 835.416ZM417.915 835.811L422.809 835.96L422.518 845.553L417.613 845.406L417.915 835.811ZM427.682 836.075L432.537 836.168L432.362 845.761L427.509 845.68L427.682 836.075ZM437.138 836.216L441.84 836.254L441.781 845.847L437.082 845.821L437.138 836.216ZM446.519 836.246L451.271 836.222L451.33 845.826L446.565 845.853L446.519 836.246ZM456.003 836.163L460.807 836.088L460.969 845.695L456.164 845.77L456.003 836.163ZM465.592 835.98L470.459 835.84L470.724 845.449L465.866 845.574L465.592 835.98ZM475.296 835.681L480.216 835.49L480.594 845.088L475.674 845.278L475.296 835.681ZM485.031 835.285L489.709 835.047L490.178 844.649L485.509 844.873L485.031 835.285ZM494.36 834.801L499.082 834.527L499.648 844.107L494.926 844.382L494.36 834.801ZM503.783 834.219L508.546 833.897L509.2 843.471L504.441 843.805L503.783 834.219ZM513.288 833.541L518.091 833.172L518.836 842.751L514.033 843.12L513.288 833.541ZM522.876 832.781L527.73 832.349L528.563 841.921L523.707 842.341L522.876 832.781ZM532.556 831.911L537.45 831.431L538.371 840.996L533.475 841.464L532.556 831.911ZM542.191 830.96L546.864 830.466L547.871 840.012L543.199 840.506L542.191 830.96ZM551.519 829.951L556.223 829.424L557.318 838.963L552.602 839.492L551.519 829.951ZM560.906 828.863L565.651 828.289L566.819 837.812L562.078 838.398L560.906 828.863ZM570.377 827.693L575.147 827.062L576.395 836.593L571.622 837.212L570.377 827.693ZM579.903 826.421L584.716 825.755L586.037 835.269L581.223 835.936L579.903 826.421ZM589.503 825.081L594.344 824.37L595.739 833.868L590.897 834.579L589.503 825.081ZM599.169 823.637L603.804 822.92L605.274 832.414L600.627 833.133L599.169 823.637ZM608.437 822.192L613.114 821.427L614.645 830.908L609.968 831.672L608.437 822.192ZM617.763 820.657L622.47 819.86L624.075 829.324L619.367 830.12L617.763 820.657ZM627.148 819.044L631.871 818.205L633.552 827.665L628.828 828.504L627.148 819.044ZM636.58 817.357L641.332 816.473L643.074 825.919L638.322 826.803L636.58 817.357ZM646.072 815.592L650.853 814.664L652.655 824.096L647.884 825.01L646.072 815.592ZM655.609 813.741L660.408 812.782L662.284 822.198L657.485 823.157L655.609 813.741ZM665.01 811.856L669.642 810.896L671.579 820.298L666.947 821.258L665.01 811.856ZM674.248 809.93L678.899 808.94L680.897 818.329L676.246 819.318L674.248 809.93ZM683.533 807.929L688.204 806.91L690.263 816.285L685.595 817.316L683.533 807.929ZM692.857 805.869L697.543 804.808L699.663 814.169L694.977 815.23L692.857 805.869ZM702.212 803.725L706.927 802.618L709.111 811.978L704.393 813.072L702.212 803.725ZM711.615 801.505L716.35 800.369L718.594 809.715L713.86 810.852L711.615 801.505ZM721.057 799.226L725.746 798.062L728.049 807.382L723.36 808.547L721.057 799.226ZM730.301 796.927L734.899 795.758L737.263 805.064L732.665 806.234L730.301 796.927ZM739.47 794.581L744.088 793.381L746.501 802.677L741.896 803.874L739.47 794.581ZM748.675 792.162L753.299 790.936L755.773 800.218L751.149 801.444L748.675 792.162ZM757.905 789.687L762.546 788.418L765.081 797.686L760.441 798.955L757.905 789.687ZM767.171 787.14L771.818 785.843L774.412 795.086L769.752 796.385L767.171 787.14ZM776.46 784.523L781.126 783.197L783.768 792.428L779.102 793.754L776.46 784.523ZM785.774 781.849L790.432 780.486L793.12 789.695L788.475 791.055L785.774 781.849ZM794.94 779.144L799.483 777.782L802.235 786.989L797.693 788.351L794.94 779.144ZM804.013 776.422L808.574 775.03L811.373 784.213L806.823 785.603L804.013 776.422ZM813.108 773.63L817.686 772.196L820.533 781.369L815.965 782.788L813.108 773.63ZM822.227 770.77L826.811 769.308L829.72 778.467L825.133 779.917L822.227 770.77ZM831.371 767.852L835.962 766.363L838.917 775.499L834.338 776.985L831.371 767.852ZM840.526 764.867L845.136 763.349L848.137 772.462L843.539 773.978L840.526 764.867ZM849.704 761.814L854.321 760.268L857.383 769.367L852.778 770.91L849.704 761.814ZM858.825 758.734L863.314 757.192L866.437 766.277L861.945 767.808L858.825 758.734ZM867.789 755.639L872.285 754.069L875.453 763.131L870.958 764.702L867.789 755.639ZM876.766 752.489L881.268 750.892L884.486 759.944L879.983 761.541L876.766 752.489ZM885.756 749.285L890.263 747.649L893.527 756.677L889.02 758.314L885.756 749.285ZM894.757 746.015L899.283 744.348L902.596 753.366L898.082 755.03L894.757 746.015ZM903.769 742.678L908.302 740.984L911.661 749.978L907.143 751.682L903.769 742.678ZM912.807 739.284L917.334 737.565L920.754 746.546L916.215 748.267L912.807 739.284ZM921.846 735.838L923.474 735.204L926.377 734.08L929.843 743.038L926.928 744.165L925.3 744.798L921.846 735.838ZM930.871 732.331L935.387 730.564L938.899 739.499L934.383 741.265L930.871 732.331ZM939.849 728.784L944.335 726.998L947.896 735.921L943.422 737.704L939.849 728.784ZM948.782 725.208L953.251 723.4L956.858 732.301L952.401 734.105L948.782 725.208ZM957.667 721.591L962.106 719.765L965.771 728.639L961.333 730.466L957.667 721.591ZM966.505 717.934L970.914 716.089L974.625 724.94L970.204 726.788L966.505 717.934ZM975.283 714.239L979.665 712.387L983.422 721.215L979.044 723.079L975.283 714.239ZM984.016 710.516L988.38 708.642L992.172 717.449L987.823 719.333L984.016 710.516ZM992.773 706.723L997.223 704.778L1001.08 713.572L996.625 715.517L992.773 706.723ZM1001.63 702.829L1006.06 700.851L1009.97 709.634L1005.55 711.598L1001.63 702.829ZM1010.45 698.895L1014.84 696.901L1018.8 705.658L1014.39 707.643L1010.45 698.895ZM1019.19 694.926L1023.56 692.922L1027.57 701.644L1023.19 703.648L1019.19 694.926ZM1027.89 690.916L1032.23 688.893L1036.28 697.604L1031.94 699.627L1027.89 690.916ZM1036.52 686.881L1040.82 684.841L1044.94 693.526L1040.62 695.569L1036.52 686.881ZM1045.09 682.81L1049.38 680.761L1053.53 689.423L1049.25 691.472L1045.09 682.81ZM1053.62 678.708L1058.01 676.574L1062.21 685.212L1057.83 687.347L1053.62 678.708ZM1062.34 674.45L1066.69 672.296L1070.95 680.897L1066.6 683.051L1062.34 674.45ZM1071.01 670.151L1075.32 667.981L1079.62 676.571L1075.31 678.729L1071.01 670.151ZM1079.59 665.82L1083.87 663.643L1088.24 672.195L1083.95 674.371L1079.59 665.82ZM1088.12 661.462L1092.37 659.267L1096.78 667.796L1092.53 669.991L1088.12 661.462ZM1096.57 657.07L1100.8 654.856L1105.25 663.361L1101.04 665.573L1096.57 657.07ZM1104.97 652.652L1109.14 650.424L1113.67 658.901L1109.49 661.132L1104.97 652.652ZM1113.29 648.202L1117.58 645.883L1122.14 654.339L1117.85 656.658L1113.29 648.202ZM1121.83 643.572L1126.09 641.234L1130.72 649.649L1126.44 651.99L1121.83 643.572ZM1130.31 638.904L1134.53 636.55L1139.2 644.93L1134.98 647.284L1130.31 638.904ZM1138.71 634.204L1142.89 631.833L1147.62 640.187L1143.44 642.558L1138.71 634.204ZM1147.03 629.471L1151.18 627.094L1155.95 635.425L1151.81 637.799L1147.03 629.471ZM1155.27 624.715L1159.37 622.324L1164.21 630.627L1160.11 633.02L1155.27 624.715ZM1163.43 619.942L1167.49 617.532L1172.39 625.797L1168.33 628.206L1163.43 619.942ZM1171.56 615.108L1175.76 612.58L1180.7 620.821L1176.51 623.337L1171.56 615.108ZM1179.9 610.075L1184.05 607.543L1189.05 615.734L1184.9 618.266L1179.9 610.075ZM1188.14 605.012L1192.25 602.464L1197.31 610.629L1193.21 613.175L1188.14 605.012ZM1196.3 599.929L1200.36 597.368L1205.48 605.492L1201.43 608.054L1196.3 599.929ZM1204.37 594.829L1208.37 592.254L1213.56 600.338L1209.55 602.903L1204.37 594.829ZM1212.34 589.699L1216.3 587.108L1221.54 595.156L1217.57 597.735L1212.34 589.699ZM1220.21 584.54L1224.18 581.921L1229.47 589.931L1225.5 592.55L1220.21 584.54ZM1228.23 579.219L1232.28 576.479L1237.64 584.448L1233.59 587.177L1228.23 579.219ZM1236.28 573.776L1240.28 571.034L1245.7 578.953L1241.71 581.692L1236.28 573.776ZM1244.23 568.305L1248.16 565.552L1253.66 573.44L1249.71 576.183L1244.23 568.305ZM1252.05 562.823L1255.95 560.066L1261.51 567.9L1257.61 570.657L1252.05 562.823ZM1259.79 557.322L1263.63 554.552L1269.24 562.336L1265.4 565.107L1259.79 557.322ZM1267.4 551.798L1271.18 549.029L1276.87 556.77L1273.08 559.541L1267.4 551.798ZM1275.07 546.144L1279 543.2L1284.75 550.891L1280.82 553.835L1275.07 546.144ZM1282.87 540.284L1286.73 537.342L1292.56 544.976L1288.69 547.919L1282.87 540.284ZM1290.53 534.415L1294.33 531.462L1300.23 539.041L1296.42 541.997L1290.53 534.415ZM1298.07 528.534L1301.81 525.569L1307.78 533.095L1304.03 536.063L1298.07 528.534ZM1305.47 522.634L1309.16 519.668L1315.19 527.129L1311.52 530.104L1305.47 522.634ZM1312.76 516.722L1316.36 513.748L1322.47 521.153L1318.86 524.139L1312.76 516.722ZM1320.12 510.623L1323.88 507.45L1330.06 514.799L1326.3 517.96L1320.12 510.623ZM1327.56 504.317L1331.25 501.145L1337.51 508.427L1333.83 511.596L1327.56 504.317ZM1334.84 498.007L1338.46 494.84L1344.8 502.038L1341.19 505.218L1334.84 498.007ZM1341.98 491.691L1345.51 488.518L1351.94 495.658L1348.4 498.834L1341.98 491.691ZM1348.96 485.373L1352.4 482.204L1358.92 489.261L1355.46 492.433L1348.96 485.373ZM1355.76 479.055L1359.35 475.674L1365.95 482.648L1362.37 486.041L1355.76 479.055ZM1362.87 472.309L1366.38 468.896L1373.06 475.799L1369.55 479.2L1362.87 472.309ZM1369.81 465.538L1373.23 462.132L1380.01 468.938L1376.59 472.344L1369.81 465.538ZM1376.55 458.772L1379.88 455.36L1386.75 462.068L1383.42 465.48L1376.55 458.772ZM1383.12 452.007L1386.34 448.605L1393.31 455.215L1390.07 458.619L1383.12 452.007ZM1389.48 445.249L1392.75 441.709L1399.81 448.208L1396.54 451.761L1389.48 445.249ZM1396.02 438.092L1399.29 434.424L1406.47 440.82L1403.2 444.488L1396.02 438.092ZM1402.45 430.82L1405.6 427.164L1412.88 433.435L1409.72 437.091L1402.45 430.82ZM1408.65 423.572L1411.69 419.917L1419.08 426.06L1416.04 429.716L1408.65 423.572ZM1414.62 416.337L1417.53 412.684L1425.03 418.688L1422.11 422.343L1414.62 416.337ZM1420.35 409.117L1423.38 405.182L1430.99 411.046L1427.95 414.984L1420.35 409.117ZM1426.29 401.314L1429.2 397.379L1436.93 403.075L1434.02 407.007L1426.29 401.314ZM1431.97 393.528L1434.73 389.601L1442.59 395.128L1439.82 399.054L1431.97 393.528ZM1437.35 385.771L1439.98 381.862L1447.95 387.195L1445.34 391.113L1437.35 385.771ZM1442.46 378.05L1444.95 374.12L1453.06 379.255L1450.56 383.2L1442.46 378.05ZM1447.5 369.972L1450.03 365.739L1458.27 370.653L1455.74 374.898L1447.5 369.972ZM1452.41 361.602C1453.2 360.219 1453.97 358.83 1454.73 357.455L1463.16 362.058C1462.37 363.477 1461.58 364.912 1460.77 366.337L1452.41 361.602ZM1456.95 353.315C1457.68 351.933 1458.39 350.557 1459.08 349.184L1467.65 353.538C1466.94 354.954 1466.19 356.365 1465.44 357.789L1456.95 353.315ZM1461.13 345.085C1461.8 343.717 1462.45 342.34 1463.08 340.98L1471.79 345.046C1471.13 346.451 1470.46 347.87 1469.76 349.283L1461.13 345.085ZM1465.12 336.51C1465.78 335.03 1466.42 333.552 1467.04 332.067L1475.89 335.794C1475.24 337.336 1474.57 338.87 1473.89 340.408L1465.12 336.51ZM1468.84 327.649C1469.44 326.183 1470 324.712 1470.54 323.256L1479.54 326.616C1478.97 328.141 1478.38 329.672 1477.77 331.205L1468.84 327.649ZM1472.13 318.887C1472.64 317.427 1473.13 315.97 1473.6 314.531L1482.73 317.502C1482.24 319.023 1481.73 320.535 1481.2 322.052L1472.13 318.887ZM1474.96 310.214C1475.41 308.689 1475.85 307.167 1476.27 305.65L1485.52 308.196C1485.09 309.78 1484.63 311.383 1484.16 312.978L1474.96 310.214ZM1477.49 300.992C1477.86 299.459 1478.22 297.917 1478.56 296.38L1487.94 298.435C1487.59 300.054 1487.21 301.677 1486.8 303.307L1477.49 300.992ZM1479.5 291.783C1479.79 290.269 1480.06 288.748 1480.29 287.233L1489.78 288.765C1489.52 290.362 1489.24 291.976 1488.93 293.584L1479.5 291.783ZM1480.97 282.723C1481.15 281.219 1481.33 279.73 1481.49 278.234L1491.04 279.2C1490.88 280.787 1490.7 282.367 1490.48 283.968L1480.97 282.723ZM1481.88 273.516C1481.99 271.928 1482.07 270.357 1482.12 268.795L1491.72 269.134C1491.66 270.802 1491.57 272.476 1491.46 274.168L1481.88 273.516ZM1482.2 264.134C1482.2 262.582 1482.18 261.049 1482.12 259.511L1491.71 259.173C1491.77 260.814 1491.81 262.472 1491.81 264.127L1482.2 264.134ZM1481.88 254.936C1481.77 253.421 1481.63 251.9 1481.47 250.399L1491.02 249.364C1491.19 250.981 1491.34 252.615 1491.46 254.242L1481.88 254.936ZM1480.88 245.848C1480.65 244.309 1480.39 242.791 1480.12 241.287L1489.56 239.509C1489.86 241.147 1490.14 242.791 1490.38 244.442L1480.88 245.848ZM1479.18 236.78C1478.83 235.28 1478.46 233.799 1478.06 232.31L1487.32 229.802C1487.76 231.398 1488.17 233.011 1488.53 234.635L1479.18 236.78ZM1476.75 227.897C1476.3 226.434 1475.8 224.98 1475.28 223.534L1484.32 220.267C1484.87 221.835 1485.41 223.421 1485.91 225.001L1476.75 227.897ZM1473.62 219.224C1473.04 217.789 1472.43 216.386 1471.8 214.989L1480.52 210.998C1481.22 212.521 1481.89 214.053 1482.51 215.592L1473.62 219.224ZM1469.79 210.834C1469.1 209.463 1468.39 208.109 1467.64 206.776L1476.03 202.091C1476.83 203.553 1477.62 205.018 1478.36 206.505L1469.79 210.834ZM1465.31 202.796C1464.52 201.486 1463.69 200.184 1462.84 198.9L1470.83 193.585C1471.76 194.968 1472.65 196.372 1473.52 197.793L1465.31 202.796ZM1460.21 195.115C1459.32 193.891 1458.42 192.681 1457.49 191.48L1465.05 185.581C1466.06 186.869 1467.04 188.175 1467.99 189.501L1460.21 195.115ZM1454.6 187.92C1453.61 186.744 1452.6 185.584 1451.57 184.444L1458.69 178.003C1459.81 179.239 1460.89 180.486 1461.95 181.748L1454.6 187.92ZM1448.38 181.028C1447.29 179.911 1446.19 178.8 1445.04 177.696L1451.72 170.791C1452.93 171.969 1454.12 173.153 1455.28 174.353L1448.38 181.028ZM1441.57 174.446C1440.46 173.45 1439.33 172.46 1438.17 171.475L1444.4 164.158C1445.63 165.203 1446.83 166.256 1448 167.326L1441.57 174.446ZM1434.66 168.567C1433.48 167.614 1432.26 166.667 1431.02 165.729L1436.82 158.07C1438.13 159.059 1439.4 160.069 1440.67 161.081L1434.66 168.567ZM1427.25 162.954C1425.97 162.048 1424.68 161.144 1423.35 160.261L1428.73 152.289C1430.12 153.234 1431.48 154.185 1432.83 155.141L1427.25 162.954ZM1419.34 157.62C1418.01 156.777 1416.66 155.938 1415.29 155.103L1420.25 146.889C1421.68 147.748 1423.1 148.636 1424.51 149.527L1419.34 157.62ZM1411.38 152.81C1410.07 152.052 1408.73 151.312 1407.38 150.577L1411.97 142.15C1413.38 142.911 1414.77 143.69 1416.16 144.483L1411.38 152.81ZM1403.27 148.404C1401.9 147.687 1400.49 146.975 1399.07 146.28L1403.31 137.663C1404.78 138.386 1406.24 139.124 1407.69 139.864L1403.27 148.404ZM1394.77 144.215C1393.31 143.541 1391.85 142.868 1390.36 142.214L1394.26 133.443C1395.8 134.125 1397.32 134.809 1398.83 135.524L1394.77 144.215ZM1385.87 140.269C1384.47 139.684 1383.06 139.103 1381.64 138.536L1385.21 129.62C1386.69 130.212 1388.16 130.807 1389.6 131.42L1385.87 140.269ZM1377.37 136.863C1375.94 136.311 1374.48 135.777 1373.03 135.243L1376.32 126.211C1377.83 126.771 1379.31 127.324 1380.8 127.889L1377.37 136.863ZM1368.6 133.67C1367.12 133.153 1365.63 132.642 1364.1 132.149L1367.12 123.025C1368.68 123.547 1370.22 124.061 1371.75 124.591L1368.6 133.67ZM1359.56 130.679L1354.85 129.244L1357.66 120.063L1362.37 121.495L1359.56 130.679ZM1350.19 127.889L1345.66 126.632L1348.22 117.378L1352.74 118.623L1350.19 127.889ZM1341.28 125.485L1336.71 124.339L1339.04 115.022L1343.6 116.167L1341.28 125.485ZM1332.2 123.271L1327.52 122.216L1329.62 112.844L1334.31 113.899L1332.2 123.271ZM1322.88 121.226L1318.09 120.26L1319.98 110.847L1324.79 111.81L1322.88 121.226ZM1313.33 119.349L1308.43 118.471L1310.12 109.014L1315.04 109.901L1313.33 119.349ZM1303.95 117.704L1299.33 116.967L1300.86 107.484L1305.46 108.223L1303.95 117.704ZM1294.76 116.285L1290.06 115.619L1291.4 106.11L1296.11 106.776L1294.76 116.285ZM1285.39 114.996L1280.6 114.4L1281.78 104.878L1286.57 105.474L1285.39 114.996ZM1275.84 113.862L1270.97 113.337L1271.98 103.787L1276.86 104.312L1275.84 113.862ZM1266.12 112.871L1261.28 112.426L1262.15 102.871L1266.98 103.304L1266.12 112.871ZM1256.71 112.051L1252.03 111.7L1252.75 102.127L1257.43 102.478L1256.71 112.051ZM1247.38 111.394L1242.64 111.096L1243.22 101.514L1247.97 101.799L1247.38 111.394ZM1237.91 110.845L1233.09 110.616L1233.55 101.024L1238.37 101.254L1237.91 110.845ZM1228.31 110.43L1223.42 110.266L1223.74 100.668L1228.63 100.829L1228.31 110.43ZM1218.56 110.136L1213.6 110.04L1213.8 100.43L1218.76 100.538L1218.56 110.136ZM1209 109.965L1204.32 109.937L1204.39 100.329L1209.08 100.37L1209 109.965ZM1199.65 109.918L1194.91 109.939L1194.87 100.342L1199.61 100.32L1199.65 109.918ZM1190.18 109.983L1185.39 110.055L1185.24 100.457L1190.05 100.382L1190.18 109.983ZM1180.62 110.148L1175.76 110.274L1175.51 100.673L1180.37 100.548L1180.62 110.148ZM1170.92 110.433L1166.02 110.605L1165.66 101.017L1170.57 100.83L1170.92 110.433ZM1161.13 110.814L1156.44 111.044L1155.99 101.451L1160.68 101.221L1161.13 110.814ZM1151.8 111.274L1147.09 111.546L1146.53 101.962L1151.24 101.691L1151.8 111.274ZM1142.4 111.839L1137.63 112.161L1137 102.582L1141.75 102.263L1142.4 111.839ZM1132.9 112.501L1128.11 112.868L1127.38 103.286L1132.17 102.92L1132.9 112.501ZM1123.32 113.259L1118.48 113.664L1117.66 104.101L1122.5 103.684L1123.32 113.259ZM1113.66 114.1L1108.78 114.564L1107.87 105.008L1112.76 104.544L1113.66 114.1ZM1103.95 115.042L1099.28 115.536L1098.29 105.984L1102.95 105.493L1103.95 115.042ZM1094.63 116.037L1089.94 116.561L1088.86 107.019L1093.56 106.492L1094.63 116.037ZM1085.25 117.109L1080.52 117.68L1079.36 108.143L1084.11 107.568L1085.25 117.109ZM1075.81 118.273L1071.03 118.88L1069.81 109.356L1074.57 108.74L1075.81 118.273ZM1066.29 119.518L1061.48 120.17L1060.18 110.665L1064.98 110.001L1066.29 119.518ZM1056.7 120.855L1051.87 121.552L1050.49 112.051L1055.32 111.343L1056.7 120.855ZM1047.04 122.273L1042.33 122.994L1040.88 113.509L1045.6 112.786L1047.04 122.273ZM1037.71 123.72L1033.04 124.469L1031.51 114.989L1036.18 114.239L1037.71 123.72ZM1028.39 125.24L1023.7 126.034L1022.1 116.555L1026.8 115.773L1028.39 125.24ZM1019.02 126.837L1014.29 127.664L1012.64 118.211L1017.35 117.375L1019.02 126.837ZM1009.6 128.509L1004.84 129.381L1003.11 119.932L1007.87 119.061L1009.6 128.509ZM1000.11 130.259L995.341 131.173L993.539 121.74L998.31 120.827L1000.11 130.259ZM990.585 132.096L985.783 133.042L983.919 123.623L988.722 122.677L990.585 132.096ZM981.121 133.982L976.5 134.939L974.573 125.522L979.196 124.577L981.121 133.982ZM971.892 135.893L967.241 136.883L965.255 127.491L969.906 126.502L971.892 135.893ZM962.616 137.879L957.946 138.898L955.899 129.52L960.569 128.501L962.616 137.879ZM953.305 139.936L948.616 140.985L946.496 131.624L951.182 130.563L953.305 139.936ZM943.944 142.056L939.238 143.148L937.057 133.8L941.775 132.706L943.944 142.056ZM934.55 144.261L929.828 145.394L927.583 136.048L932.32 134.924L934.55 144.261ZM925.121 146.537L920.368 147.703L918.077 138.38L922.818 137.216L925.121 146.537ZM915.813 148.837L911.224 149.992L908.872 140.683L913.461 139.528L915.813 148.837ZM906.653 151.169L902.048 152.366L899.635 143.07L904.24 141.873L906.653 151.169ZM897.458 153.572L892.834 154.799L890.372 145.514L894.984 144.29L897.458 153.572ZM888.225 156.035L883.597 157.302L881.074 148.031L885.702 146.764L888.225 156.035ZM878.969 158.568L874.322 159.864L871.74 150.619L876.4 149.32L878.969 158.568ZM869.69 161.17L865.024 162.496L862.381 153.264L867.059 151.936L869.69 161.17ZM860.375 163.844L855.693 165.212L853.002 155.991L857.684 154.623L860.375 163.844ZM851.157 166.547L846.612 167.897L843.875 158.7L848.417 157.337L851.157 166.547ZM842.094 169.254L837.533 170.647L834.747 161.46L839.296 160.071L842.094 169.254ZM832.999 172.046L828.431 173.466L825.583 164.293L830.151 162.873L832.999 172.046ZM823.89 174.892L819.303 176.341L816.406 167.179L820.981 165.733L823.89 174.892ZM814.755 177.795L810.164 179.284L807.207 170.135L811.8 168.659L814.755 177.795ZM805.597 180.767L800.999 182.283L797.984 173.16L802.582 171.644L805.597 180.767ZM796.416 183.808L791.812 185.351L788.75 176.252L793.367 174.706L796.416 183.808ZM787.259 186.896L782.767 188.427L779.659 179.35L784.148 177.807L787.259 186.896ZM778.305 189.976L773.806 191.534L770.649 182.469L775.145 180.899L778.305 189.976ZM769.325 193.114L764.822 194.711L761.617 185.657L766.12 184.06L769.325 193.114ZM760.332 196.306L755.822 197.93L752.571 188.899L757.08 187.274L760.332 196.306ZM751.328 199.564L746.814 201.228L743.514 192.208L748.03 190.556L751.328 199.564ZM742.313 202.889L737.793 204.58L734.446 195.583L738.967 193.892L742.313 202.889ZM733.297 206.265L728.758 207.986L725.353 199.015L729.892 197.294L733.297 206.265ZM724.258 209.711L720.987 210.968L716.469 212.723L713.003 203.766L717.546 202.005L720.804 200.751L724.258 209.711Z" fill="#353955"/>
</g>
</g>
</g>
</g>
<mask id="mask11_1165_26621" style="mask-type:luminance" maskUnits="userSpaceOnUse" x="70" y="624" width="196" height="196">
<path d="M70.3115 660.023L229.753 624.351L265.425 783.793L105.984 819.465L70.3115 660.023Z" fill="white"/>
</mask>
<g mask="url(#mask11_1165_26621)">
<mask id="mask12_1165_26621" style="mask-type:luminance" maskUnits="userSpaceOnUse" x="64" y="619" width="207" height="208">
<path d="M105.273 619.694L270.669 660.848L229.515 826.245L64.1157 785.078L105.273 619.694Z" fill="white"/>
</mask>
<g mask="url(#mask12_1165_26621)">
<mask id="mask13_1165_26621" style="mask-type:luminance" maskUnits="userSpaceOnUse" x="64" y="619" width="207" height="208">
<path d="M105.273 619.694L270.669 660.848L229.515 826.245L64.1157 785.078L105.273 619.694Z" fill="white"/>
</mask>
<g mask="url(#mask13_1165_26621)">
<path d="M172.6 726.722C184.402 729.608 196.216 732.377 208.074 734.994C221.936 738.035 235.818 740.931 249.833 743.335C236.334 738.879 222.703 734.927 209.039 731.111C197.336 727.869 185.591 724.777 173.821 721.807C184.209 715.507 194.524 709.109 204.769 702.572C216.715 694.924 228.582 687.152 240.184 678.94C227.486 685.346 215.062 692.178 202.708 699.148C192.134 705.13 181.641 711.248 171.221 717.464C174.11 705.674 176.876 693.848 179.493 681.99C182.537 668.14 185.43 654.246 187.834 640.231C183.378 653.731 179.426 667.361 175.61 681.026C172.368 692.728 169.276 704.473 166.306 716.243C160.006 705.855 153.608 695.54 147.086 685.304C139.435 673.346 131.652 661.482 123.439 649.88C129.833 662.581 136.667 675.017 143.638 687.371C149.629 697.931 155.735 708.426 161.963 718.843C150.173 715.954 138.347 713.188 126.49 710.571C112.639 707.527 98.7453 704.634 84.7328 702.242C98.2325 706.698 111.863 710.65 125.525 714.454C137.227 717.696 148.96 720.79 160.73 723.761C150.354 730.058 140.039 736.456 129.806 742.99C117.858 750.626 105.981 758.412 94.3796 766.625C107.081 760.231 119.516 753.397 131.87 746.427C142.432 740.447 152.925 734.33 163.345 728.113C160.456 739.903 157.688 751.717 155.07 763.574C152.026 777.425 149.133 791.319 146.742 805.331C151.197 791.832 155.152 778.213 158.953 764.539C162.195 752.837 165.29 741.104 168.272 729.332C174.557 739.71 180.955 750.025 187.492 760.27C195.14 772.216 202.912 784.083 211.124 795.685C204.73 782.984 197.886 770.563 190.916 758.209C184.934 747.634 178.817 737.141 172.6 726.722Z" fill="#515783"/>
</g>
</g>
</g>
</svg>
