<svg width="300" height="180" viewBox="0 0 300 180" fill="none" xmlns="http://www.w3.org/2000/svg">
<path d="M17.5003 45.8735H15.1006V66.1984H27.7198V64.0273H17.5003V45.8735Z" fill="white"/>
<path d="M32.3407 49.4692V46.6733H29.8877V49.4692H32.3407ZM32.2836 66.1983V51.4689H30.002V66.1983H32.2836Z" fill="white"/>
<path d="M41.1039 47.8161H42.418V45.8735C42.0752 45.8469 41.3895 45.8164 40.9629 45.8164C38.049 45.8164 36.8492 47.3591 36.8492 49.9568V51.469H34.4229V53.4687H36.8492V66.1984H39.1346V53.4687H42.2732V51.469H39.1346V49.8997C39.1346 48.5589 39.7897 47.8161 41.1039 47.8161Z" fill="white"/>
<path d="M50.9803 66.5415C54.4923 66.5415 56.6024 64.4847 57.3185 61.7155H54.9493C54.4351 63.3724 53.121 64.458 51.0375 64.458C48.4664 64.458 46.7257 62.9458 46.4971 59.632H57.688V58.8359C57.688 54.6079 55.3188 51.1265 50.9232 51.1265C46.8399 51.1265 44.1279 54.208 44.1279 58.8359C44.1279 63.601 46.9542 66.5415 50.9803 66.5415ZM46.5543 57.5789C46.9276 54.665 48.6111 53.21 50.9232 53.21C53.5476 53.21 55.0065 55.1526 55.235 57.5789H46.5543Z" fill="white"/>
<path d="M72.2455 66.5415C76.3821 66.5415 79.3798 63.5438 79.3798 58.8359C79.3798 54.1242 76.3821 51.1265 72.2455 51.1265C68.1051 51.1265 65.1074 54.1242 65.1074 58.8359C65.1074 63.5438 68.1051 66.5415 72.2455 66.5415ZM72.2455 64.4847C69.3888 64.4847 67.5071 62.4011 67.5071 58.8359C67.5071 55.2669 69.3888 53.1833 72.2455 53.1833C75.0985 53.1833 76.9839 55.2669 76.9839 58.8359C76.9839 62.4011 75.0985 64.4847 72.2455 64.4847Z" fill="white"/>
<path d="M87.4857 47.8161H88.7998V45.8735C88.457 45.8469 87.7714 45.8164 87.3448 45.8164C84.4309 45.8164 83.231 47.3591 83.231 49.9568V51.469H80.8047V53.4687H83.231V66.1984H85.5164V53.4687H88.6551V51.469H85.5164V49.8997C85.5164 48.5589 86.1716 47.8161 87.4857 47.8161Z" fill="white"/>
<path d="M108.692 64.3437C108.151 64.3437 107.892 64.0847 107.892 63.6315V55.4078C107.892 52.9243 106.437 51.1265 102.354 51.1265C98.046 51.1265 96.5338 53.1529 96.3624 56.0096H98.644C98.7887 53.8118 99.8438 53.0957 102.354 53.0957C104.868 53.0957 105.668 53.869 105.668 55.4078C105.668 56.7219 104.837 57.2628 103.356 57.4342L101.242 57.6627C97.1889 58.0931 95.791 59.9177 95.791 62.2297C95.791 64.9989 97.7869 66.5415 100.987 66.5415C103.097 66.5415 104.754 65.7416 105.782 64.1723C105.896 65.5702 106.639 66.2825 108.266 66.2825C108.692 66.2825 109.149 66.2559 109.523 66.1987V64.3437H108.692ZM101.101 64.5989C99.0744 64.5989 98.1602 63.6315 98.1602 62.1726C98.1602 60.748 98.903 59.8339 101.585 59.5177L103.725 59.2625C104.582 59.1749 105.211 58.9768 105.668 58.634V60.3747C105.668 63.2886 103.299 64.5989 101.101 64.5989Z" fill="white"/>
<path d="M265.18 114.635C237.482 107.744 209.035 103.859 180.498 103.03C151.967 102.208 123.342 104.411 95.2637 109.572C81.3158 112.135 67.4981 115.437 53.8992 119.478C47.1075 121.499 40.3575 123.708 33.6804 126.083C27.5242 128.281 21.2221 130.437 15.3575 133.343C10.4565 135.77 5.56062 139.01 2.57624 143.702C-0.408135 148.395 -0.606051 154.629 2.2377 159.64C5.39395 165.228 11.1335 168.562 17.1335 170.348C23.8887 172.374 31.1127 173.103 38.0762 174.057C67.1023 178.046 96.446 179.525 125.722 178.442C154.805 177.359 183.816 173.786 212.29 167.77C226.706 164.723 240.998 161.051 255.092 156.744C261.998 154.635 268.878 152.4 275.686 149.958C280.816 148.109 285.915 145.827 290.285 142.525C294.342 139.463 297.977 135.385 299.014 130.265C300.191 124.432 298.014 118.723 293.962 114.489C289.274 109.588 282.701 107.281 276.191 105.999C268.873 104.562 261.394 103.718 253.982 102.827C224.066 99.244 193.857 98.0357 163.743 99.192C133.451 100.353 103.243 103.9 73.5085 109.796C66.3002 111.228 59.1283 112.796 51.9773 114.51C49.4825 115.103 50.545 118.942 53.0346 118.343C81.6335 111.525 110.738 106.9 140.045 104.567C169.243 102.244 198.618 102.14 227.831 104.28C242.337 105.348 256.847 106.89 271.222 109.15C277.576 110.156 284.477 111.499 289.529 115.791C293.628 119.265 296.41 124.468 295.014 129.921C293.795 134.645 289.925 138.166 285.962 140.713C281.212 143.76 275.962 145.692 270.649 147.52C257.232 152.145 243.607 156.187 229.842 159.64C202.488 166.515 174.55 171.083 146.425 173.28C118.134 175.489 89.644 175.333 61.3731 172.76C54.3002 172.119 47.2429 171.327 40.2065 170.385C33.1752 169.437 26.5346 168.697 19.9148 166.999C14.0606 165.504 8.23249 162.682 5.35228 157.062C2.91999 152.322 4.31062 147.129 7.83145 143.39C11.3471 139.65 16.2794 137.067 21.045 135.109C27.3575 132.515 33.8002 130.197 40.2637 127.994C53.3523 123.541 66.6804 119.781 80.17 116.718C107.061 110.624 134.571 107.338 162.144 106.885C189.706 106.432 217.316 108.801 244.378 114.077C250.993 115.369 257.571 116.833 264.113 118.463C266.597 119.083 267.654 115.249 265.17 114.624L265.18 114.635Z" fill="#353955"/>
<mask id="mask0_2126_1134" style="mask-type:luminance" maskUnits="userSpaceOnUse" x="149" y="0" width="108" height="67">
<path d="M149.774 0.600098H256.295V66.5415H149.774V0.600098Z" fill="white"/>
</mask>
<g mask="url(#mask0_2126_1134)">
<mask id="mask1_2126_1134" style="mask-type:luminance" maskUnits="userSpaceOnUse" x="148" y="-7" width="120" height="94">
<path d="M148.755 58.7982L248.685 -6.65186L267.025 21.3534L167.099 86.8034L148.755 58.7982Z" fill="white"/>
</mask>
<g mask="url(#mask1_2126_1134)">
<mask id="mask2_2126_1134" style="mask-type:luminance" maskUnits="userSpaceOnUse" x="148" y="-7" width="120" height="94">
<path d="M148.754 58.7982L248.684 -6.65186L267.024 21.3534L167.098 86.8034L148.754 58.7982Z" fill="white"/>
</mask>
<g mask="url(#mask2_2126_1134)">
<path d="M150.891 58.5763C150.883 58.6793 150.926 58.7625 151.013 58.822C150.966 59.1826 150.387 59.3094 150.585 59.781C150.352 60.8945 151.057 61.4137 151.901 61.8298C154.275 62.9909 156.787 63.7438 159.347 64.3422C168.521 66.4742 177.711 66.5931 187.024 65.0832C203.275 62.4519 216.765 54.7205 228.284 43.2639C233.622 37.9537 237.934 31.8114 241.96 25.4669C244.33 21.7379 246.462 17.8781 248.693 14.0698C248.713 13.8954 248.729 13.729 248.749 13.5546C248.907 13.4397 249.054 13.2654 249.224 13.2376C249.224 13.2376 249.224 13.2376 249.232 13.2376C249.367 13.2178 249.394 13.412 249.315 13.5507C249.521 15.2705 249.363 16.9785 249.109 18.6746C248.939 19.8357 248.859 20.977 249.125 22.1262C248.737 24.6268 249.787 26.3387 252.006 26.9728C254.95 22.8792 255.307 18.1832 255.279 13.3803C255.271 11.597 255.382 9.81373 255.465 8.03046C255.672 3.7625 255.398 4.36881 252.489 2.45873C251.84 2.03471 251.102 1.76523 250.342 1.57502C250.06 1.50369 249.795 1.46406 249.541 1.6305C248.772 1.18666 248.142 1.58691 247.548 2.00697C245.784 3.25922 244.041 4.52732 242.285 5.79146C241.77 5.83505 241.417 6.15208 241.08 6.49288C240.561 6.5127 240.213 6.84558 239.852 7.15468C239.483 7.10712 239.234 7.3766 238.941 7.51926C234.934 9.40556 230.769 10.8163 226.378 11.5138C226.049 11.5653 225.724 11.6446 225.396 11.7119C225.007 11.7872 224.563 11.8704 224.508 12.3222C224.464 12.663 224.777 13.0236 225.059 13.0989C226.307 13.4358 227.147 14.4819 228.328 14.9139C228.851 15.1081 229.41 15.0684 229.977 15.0209C234.356 14.6722 238.552 13.5586 242.646 12.0091C243.01 11.8704 243.363 11.6723 243.743 11.6129C244.187 11.5455 244.282 11.8982 244.278 12.2667C243.878 12.4649 243.712 12.7859 243.751 13.2218C243.422 13.4754 243.125 13.7449 243.185 14.2204C243.074 14.2323 243.034 14.2957 243.066 14.4027C242.745 14.6325 242.487 14.898 242.519 15.3379C242.337 15.544 242.123 15.7263 241.976 15.9601C240.379 18.5002 238.826 21.0682 237.201 23.5885C235.727 25.879 234.181 28.122 232.667 30.3808C232.196 30.9316 231.704 31.4587 231.257 32.0214C226.866 37.4822 221.885 42.3287 216.19 46.4183C214.157 47.8806 212.08 49.2755 210.02 50.6982C209.477 50.7339 209.128 51.0905 208.772 51.4432C208.248 51.467 207.912 51.7999 207.567 52.1327C207.068 52.1169 206.762 52.4616 206.422 52.739C206.093 52.6994 205.867 52.8619 205.681 53.1076C205.562 53.0997 205.474 53.1512 205.427 53.2621C205.062 53.2225 204.813 53.4841 204.515 53.6148C203.049 54.2528 201.702 55.1524 200.152 55.6081C200.105 55.7944 199.76 56.0995 200.358 55.9886C200.755 55.9172 200.834 56.0005 200.802 56.1312C200.771 56.2501 200.656 56.4047 200.58 56.5315C195.877 58.4019 191.006 59.6859 186.045 60.6488C185.577 60.6924 185.106 60.744 184.638 60.7915C181.84 61.0689 179.038 61.3503 176.245 61.6316C176.146 61.5682 176.047 61.5484 175.951 61.5643C175.884 61.5761 175.821 61.5999 175.757 61.6435C175.599 61.5405 175.44 61.5484 175.286 61.6554C175.123 61.5484 174.965 61.5563 174.81 61.6713C174.652 61.5563 174.493 61.5643 174.335 61.6792C174.176 61.5643 174.018 61.5643 173.859 61.6831C173.701 61.5643 173.546 61.5643 173.387 61.6831H173.384C173.233 61.5643 173.07 61.5643 172.92 61.6792H172.908C172.757 61.6673 172.603 61.6633 172.448 61.6713H172.428C172.278 61.5524 172.127 61.5444 171.969 61.6594H171.953C171.798 61.5405 171.648 61.5365 171.489 61.6514H171.473C171.323 61.5246 171.168 61.5207 171.01 61.6356H170.998C170.847 61.5127 170.693 61.5088 170.534 61.6237H170.526C170.372 61.5009 170.213 61.4929 170.055 61.6039C168.6 61.4573 167.15 61.3106 165.7 61.164C164.919 61.3225 164.162 61.1046 163.405 60.9896C163.373 60.9025 163.369 60.8232 163.377 60.744C163.385 60.6211 163.433 60.5101 163.52 60.4031C162.957 60.2605 162.406 60.0703 161.808 60.1892C161.634 60.2407 161.455 60.2684 161.269 60.2209C161.447 60.209 161.626 60.201 161.808 60.1892C161.638 60.1059 161.467 60.0465 161.309 60.1892C161.107 59.9752 160.861 59.9316 160.58 59.9871C160.453 59.8484 160.306 59.8048 160.136 59.9078C159.969 59.8048 159.807 59.7453 159.621 59.8404C159.545 59.777 159.466 59.7453 159.363 59.7651C158.84 59.5274 158.293 59.4045 157.718 59.4164C157.338 59.2658 156.962 59.1073 156.542 59.1628C156.335 58.9805 156.078 58.9805 155.824 58.9607C154.334 58.3663 152.741 58.0532 151.299 57.1378C151.227 57.7322 150.645 58.0215 150.891 58.5763ZM243.296 14.6444C243.292 14.6484 243.292 14.6484 243.288 14.6484C243.292 14.6523 243.296 14.6523 243.296 14.6523C243.292 14.6523 243.284 14.6523 243.284 14.6523L243.288 14.6484C243.284 14.6444 243.284 14.6444 243.276 14.6405C243.288 14.6405 243.288 14.6444 243.296 14.6444ZM171.065 62.5629C171.101 62.5708 171.137 62.5787 171.176 62.5867C171.164 62.5867 171.156 62.5906 171.145 62.5906C171.113 62.5906 171.081 62.5906 171.045 62.5867C171.049 62.5827 171.057 62.5748 171.065 62.5629ZM176.221 61.6475C176.225 61.6514 176.221 61.6514 176.225 61.6554C176.221 61.6673 176.225 61.6831 176.221 61.695L176.213 61.7386L176.221 61.6514C176.217 61.6475 176.217 61.6514 176.213 61.6475C176.217 61.6514 176.217 61.6475 176.221 61.6475ZM170.962 62.7055C170.99 62.6659 171.018 62.6263 171.041 62.5946C171.073 62.5946 171.105 62.5946 171.137 62.5946C171.069 62.6025 171.006 62.6382 170.962 62.7055ZM171.355 62.6065C171.39 62.6104 171.43 62.6104 171.465 62.6144C171.465 62.6184 171.469 62.6184 171.473 62.6223C171.434 62.6144 171.39 62.6104 171.355 62.6065ZM153.197 60.5498C153.193 60.5537 153.185 60.5498 153.181 60.5537H153.177C153.173 60.5498 153.169 60.5458 153.165 60.5418C153.173 60.5418 153.185 60.5458 153.197 60.5498ZM153.859 60.8113C153.863 60.8192 153.871 60.8232 153.878 60.8232C153.875 60.8153 153.863 60.8153 153.859 60.8113ZM161.012 60.3516C160.992 60.3794 160.976 60.4111 160.964 60.4507C160.948 60.4349 160.932 60.419 160.916 60.4031C160.948 60.3873 160.976 60.3675 161.012 60.3516ZM159.807 59.9672C159.747 59.9633 159.688 59.9395 159.633 59.8959C159.633 59.8959 159.633 59.8959 159.636 59.8919C159.696 59.9316 159.751 59.9593 159.807 59.9672Z" fill="white"/>
</g>
</g>
</g>
<mask id="mask3_2126_1134" style="mask-type:luminance" maskUnits="userSpaceOnUse" x="187" y="59" width="3" height="3">
<path d="M187.873 59.8745H189.206V61.2078H187.873V59.8745Z" fill="white"/>
</mask>
<g mask="url(#mask3_2126_1134)">
<mask id="mask4_2126_1134" style="mask-type:luminance" maskUnits="userSpaceOnUse" x="157" y="-30" width="156" height="124">
<path d="M157.201 56.3641L288.54 -29.6567L312.644 7.15055L181.311 93.1714L157.201 56.3641Z" fill="white"/>
</mask>
<g mask="url(#mask4_2126_1134)">
<mask id="mask5_2126_1134" style="mask-type:luminance" maskUnits="userSpaceOnUse" x="157" y="-30" width="156" height="124">
<path d="M157.201 56.3641L288.54 -29.6567L312.644 7.15055L181.311 93.1714L157.201 56.3641Z" fill="white"/>
</mask>
<g mask="url(#mask5_2126_1134)">
<path d="M188.306 60.1456C188.509 60.1508 188.712 60.1508 188.91 60.1612C188.712 59.9997 188.509 59.9997 188.306 60.1456Z" fill="white"/>
</g>
</g>
</g>
<path d="M86.9946 104.867C85.0727 104.867 82.6716 106.065 81.3539 108.227C71.3956 124.544 64.1925 139.664 57.5935 156.945C57.1143 158.263 56.8748 159.586 57.3539 160.664C53.031 162.466 49.4321 163.664 46.4321 163.784C47.5154 165.586 49.6716 166.425 52.3123 166.425C70.1925 166.425 116.995 129.706 111.114 108.107C107.995 96.2267 95.1508 92.6226 84.2341 92.6226C65.9946 92.6226 40.5518 100.784 41.8748 118.065C42.3539 123.945 46.4321 128.143 48.9529 128.143C49.4321 128.143 49.9112 128.024 50.1508 127.664C51.8331 125.867 47.1508 127.904 45.5935 119.503C44.9946 109.425 64.6716 98.6226 81.8331 98.6226H82.6716C130.791 99.4663 89.9946 142.904 61.7914 158.383C68.8748 140.623 78.8331 123.466 90.1143 106.544C89.3956 105.347 88.1925 104.867 86.9946 104.867Z" fill="white"/>
<path d="M111.116 157.425C119.632 157.425 127.913 145.904 132.356 139.784C133.913 137.503 135.116 135.706 135.835 134.748C135.835 133.784 135.116 133.425 134.632 133.425C134.512 133.425 134.392 133.425 134.392 133.544C129.595 140.143 119.632 153.466 110.877 153.466C107.392 153.107 108.116 148.784 110.153 143.867C110.877 144.826 112.194 145.305 113.632 145.305C117.715 145.185 122.632 139.065 124.194 135.347V135.107C124.554 134.503 124.673 133.784 124.913 132.945C125.632 129.107 122.877 125.748 119.153 125.748C117.835 125.748 116.392 126.107 114.955 127.065C107.512 131.987 98.512 146.383 105.595 154.904C106.913 156.706 108.835 157.425 111.116 157.425ZM120.955 130.544C121.434 130.544 121.793 130.664 122.033 131.024C122.272 131.623 122.153 132.347 121.913 133.305C120.116 137.623 114.715 142.544 112.314 142.544C111.715 142.544 111.356 142.305 111.116 141.706C114.116 136.065 118.673 130.544 120.955 130.544Z" fill="white"/>
<path d="M123.475 151.904C124.553 155.503 127.673 156.826 131.032 156.826C135.115 156.826 139.553 154.664 140.392 151.784C141.475 148.305 139.793 144.227 137.996 140.987C133.793 132.346 141.595 125.987 148.553 122.383C149.517 121.784 147.115 119.023 143.756 119.023C142.194 119.023 140.392 119.503 138.714 121.065C126.115 131.263 137.272 142.664 136.673 147.227C136.313 150.706 132.595 151.664 129.235 151.664C126.595 151.664 124.194 151.065 123.954 150.466C123.834 150.346 123.595 150.227 123.475 150.227C123.235 150.227 123.115 150.706 123.475 151.904Z" fill="white"/>
<path d="M167.873 101.623C167.394 101.623 167.154 101.867 166.555 102.586C163.435 106.904 159.352 115.544 159.951 121.065C160.071 121.784 160.316 122.143 160.435 122.143C160.555 122.143 160.675 121.904 161.034 121.425C164.514 116.383 167.753 111.227 171.352 106.305C171.592 105.826 172.316 105.227 171.951 104.503C171.472 103.065 169.675 101.623 167.873 101.623ZM167.873 132.706C167.873 132.706 167.753 132.706 167.633 132.945C162.712 139.664 157.675 146.503 151.071 151.664C150.232 152.143 149.873 152.383 149.394 152.383C149.274 152.383 149.274 152.383 149.154 152.263C147.592 151.425 151.071 144.586 151.555 143.503C153.951 138.706 156.831 133.544 159.712 129.227L159.831 128.987C161.154 126.586 158.633 125.263 156.831 124.425C156.113 124.185 155.633 123.945 155.274 123.945C153.232 123.945 144.831 143.987 143.633 146.867C142.071 151.065 145.071 155.143 148.435 155.143C153.232 155.143 162.951 142.904 165.712 139.065C166.675 137.383 167.873 135.706 169.071 134.024C168.831 133.185 168.472 132.706 167.873 132.706Z" fill="white"/>
<path d="M182.995 129.227L182.875 129.107C182.396 125.867 180.953 120.466 176.875 120.466C176.156 120.466 175.193 120.706 174.115 121.425C168.234 124.784 157.792 143.503 160.193 152.748C160.912 155.748 163.073 157.065 164.995 157.065C166.073 157.065 167.037 156.706 167.755 155.867C170.516 152.867 174.833 146.748 178.432 140.987C173.396 154.065 164.516 175.065 154.432 175.065C149.875 175.065 148.792 170.623 148.792 166.664C148.792 166.065 148.912 164.867 147.953 164.748C147.115 164.623 147.234 165.945 147.234 166.544C147.354 172.425 149.396 179.024 156.474 179.024C157.432 179.024 158.635 178.784 159.833 178.544L159.953 178.425C173.755 174.586 183.714 144.466 188.156 134.503C189.234 132.227 190.193 129.706 191.276 127.305C192.354 124.784 189.474 124.065 187.432 124.065C186.833 124.065 186.115 124.185 185.995 124.305C184.912 125.263 184.193 126.706 183.354 128.383L182.995 129.227ZM181.073 132.227L180.953 132.347C176.037 140.383 167.037 153.706 165.234 153.706C161.156 153.706 173.516 125.383 178.912 125.383H179.156C179.995 125.503 180.234 126.706 180.474 128.383C180.594 128.748 180.953 131.383 181.073 132.227Z" fill="white"/>
<path d="M218.035 123.706C216.832 122.503 215.275 122.023 213.712 122.023C212.035 122.622 194.035 146.503 192.113 149.383C193.311 147.107 194.634 145.305 195.593 143.143C198.952 136.664 198.952 137.383 202.311 130.904C203.035 129.706 203.514 129.107 202.556 128.023L202.311 127.784C201.233 126.706 199.676 126.107 198.233 126.107C196.431 126.107 195.593 126.466 194.874 128.143C190.311 137.263 188.874 138.826 185.514 148.424C184.311 152.143 184.915 154.424 188.395 156.107C188.994 156.346 189.593 156.706 189.952 156.706C190.676 156.706 191.035 156.227 191.514 155.383C197.035 146.987 203.275 139.065 209.634 131.263C207.113 135.706 199.311 152.987 207.593 154.784C207.952 154.904 208.192 154.904 208.556 154.904C215.395 154.904 225.353 141.466 228.952 136.305C229.556 135.227 230.275 134.383 230.634 133.784C230.395 132.945 229.796 132.466 229.431 132.466C229.311 132.466 229.192 132.586 229.192 132.586C228.952 132.945 227.395 134.867 225.593 137.383L225.353 137.747L225.233 137.867C221.994 141.826 216.473 149.867 211.796 150.586C206.514 151.185 217.192 130.784 218.514 127.784L218.634 127.424C219.233 125.987 219.233 124.664 218.035 123.706Z" fill="white"/>
<path d="M227.756 157.425C236.271 157.425 244.553 145.904 248.995 139.784C250.553 137.503 251.756 135.706 252.475 134.748C252.475 133.784 251.756 133.425 251.271 133.425C251.152 133.425 251.032 133.425 251.032 133.544C246.235 140.143 236.271 153.466 227.516 153.466C224.032 153.107 224.756 148.784 226.792 143.867C227.516 144.826 228.834 145.305 230.271 145.305C234.355 145.185 239.271 139.065 240.834 135.347V135.107C241.193 134.503 241.313 133.784 241.553 132.945C242.271 129.107 239.516 125.748 235.792 125.748C234.475 125.748 233.032 126.107 231.594 127.065C224.152 131.987 215.152 146.383 222.235 154.904C223.553 156.706 225.475 157.425 227.756 157.425ZM237.594 130.544C238.074 130.544 238.433 130.664 238.672 131.024C238.912 131.623 238.792 132.347 238.553 133.305C236.756 137.623 231.355 142.544 228.954 142.544C228.355 142.544 227.995 142.305 227.756 141.706C230.756 136.065 235.313 130.544 237.594 130.544Z" fill="white"/>
<path d="M264.713 119.383C264.354 118.904 263.755 118.425 263.276 117.946C264.953 115.185 266.276 112.545 267.114 110.263C267.833 108.227 266.994 102.826 264.234 103.065C259.192 103.425 253.552 112.425 259.552 118.425C255.833 124.664 251.635 132.706 248.994 136.305C248.875 136.545 248.994 137.748 249.833 137.748C250.073 137.748 250.432 137.623 251.156 137.143C253.911 133.664 256.432 128.143 261.593 120.586C261.953 121.065 262.312 121.545 262.432 121.904C265.192 127.185 249.953 145.784 250.192 154.904C250.192 157.664 251.515 162.107 254.994 162.107C255.354 162.107 255.593 161.987 255.953 161.867C262.312 158.748 275.755 136.904 277.432 134.623C277.672 134.263 277.432 133.664 276.953 133.425C276.713 133.305 276.593 133.185 276.354 133.185C276.114 133.185 275.994 133.305 275.635 133.545C272.875 137.263 259.073 158.503 255.593 157.904C257.515 150.946 264.833 138.466 266.515 133.784C268.312 129.347 269.755 122.623 264.713 119.383ZM263.875 108.107C264.474 108.107 264.593 108.826 263.875 110.748C263.395 112.305 262.552 113.987 261.713 115.305C259.552 112.425 262.791 108.107 263.875 108.107Z" fill="white"/>
</svg>
