<svg width="333" height="203" viewBox="0 0 333 203" fill="none" xmlns="http://www.w3.org/2000/svg">
<path d="M14.4316 65.4019H12.041V85.6519H24.6087V83.4904H14.4316V65.4019Z" fill="white"/>
<path d="M29.2152 68.9852V66.1987H26.7725V68.9852H29.2152ZM29.1579 85.6519V70.9748H26.887V85.6519H29.1579Z" fill="white"/>
<path d="M37.9492 67.3395H39.2565V65.402C38.9128 65.376 38.2305 65.3447 37.8034 65.3447C34.9023 65.3447 33.7096 66.8812 33.7096 69.4697V70.9749H31.293V72.9697H33.7096V85.652H35.9857V72.9697H39.1159V70.9749H35.9857V69.4124C35.9857 68.0791 36.6367 67.3395 37.9492 67.3395Z" fill="white"/>
<path d="M47.7891 85.9956C51.2839 85.9956 53.388 83.9435 54.1016 81.1883H51.7422C51.2266 82.8341 49.9193 83.9175 47.8464 83.9175C45.2839 83.9175 43.5495 82.4123 43.3203 79.1102H54.4714V78.3133C54.4714 74.105 52.112 70.6362 47.7318 70.6362C43.6641 70.6362 40.9609 73.7091 40.9609 78.3133C40.9609 83.0633 43.7786 85.9956 47.7891 85.9956ZM43.3776 77.0633C43.7474 74.1623 45.4245 72.7144 47.7318 72.7144C50.3464 72.7144 51.7995 74.6466 52.0234 77.0633H43.3776Z" fill="white"/>
<path d="M68.9712 85.9956C73.0962 85.9956 76.0806 83.006 76.0806 78.3133C76.0806 73.6206 73.0962 70.6362 68.9712 70.6362C64.8462 70.6362 61.8618 73.6206 61.8618 78.3133C61.8618 83.006 64.8462 85.9956 68.9712 85.9956ZM68.9712 83.9435C66.1274 83.9435 64.2524 81.8706 64.2524 78.3133C64.2524 74.7612 66.1274 72.6831 68.9712 72.6831C71.8149 72.6831 73.6952 74.7612 73.6952 78.3133C73.6952 81.8706 71.8149 83.9435 68.9712 83.9435Z" fill="white"/>
<path d="M84.1592 67.3395H85.4665V65.402C85.1227 65.376 84.4404 65.3447 84.0133 65.3447C81.1123 65.3447 79.9196 66.8812 79.9196 69.4697V70.9749H77.5029V72.9697H79.9196V85.652H82.1956V72.9697H85.3258V70.9749H82.1956V69.4124C82.1956 68.0791 82.8467 67.3395 84.1592 67.3395Z" fill="white"/>
<path d="M105.287 83.8029C104.746 83.8029 104.49 83.5477 104.49 83.0946V74.9019C104.49 72.4279 103.042 70.6362 98.9748 70.6362C94.6779 70.6362 93.1727 72.6571 93.0008 75.5008H95.2769C95.4175 73.3081 96.4696 72.5998 98.9748 72.5998C101.475 72.5998 102.272 73.3654 102.272 74.9019C102.272 76.2091 101.449 76.7508 99.9696 76.9227L97.8654 77.1466C93.8237 77.5737 92.4331 79.3966 92.4331 81.6987C92.4331 84.4591 94.4227 85.9956 97.6102 85.9956C99.7144 85.9956 101.36 85.1987 102.386 83.631C102.501 85.0269 103.24 85.7352 104.86 85.7352C105.287 85.7352 105.74 85.7091 106.11 85.6519V83.8029H105.287ZM97.7196 84.0581C95.7039 84.0581 94.7925 83.0946 94.7925 81.6414C94.7925 80.2196 95.5321 79.3081 98.2039 78.9956L100.339 78.7404C101.194 78.6571 101.819 78.4591 102.272 78.1154V79.8498C102.272 82.7508 99.9123 84.0581 97.7196 84.0581Z" fill="white"/>
<path d="M294.266 127.215C263.594 119.585 232.094 115.288 200.5 114.371C168.901 113.454 137.209 115.892 106.115 121.611C90.6671 124.449 75.3702 128.105 60.3129 132.585C52.7869 134.819 45.3129 137.262 37.9223 139.897C31.1046 142.329 24.1254 144.715 17.6306 147.934C12.2035 150.621 6.78167 154.204 3.47959 159.402C0.177504 164.6 -0.0464541 171.501 3.09938 177.053C6.59938 183.236 12.9535 186.928 19.5942 188.913C27.0785 191.152 35.0785 191.96 42.7869 193.017C74.9275 197.434 107.428 199.074 139.844 197.871C172.047 196.673 204.172 192.72 235.698 186.059C251.662 182.684 267.49 178.611 283.094 173.845C290.74 171.512 298.365 169.032 305.896 166.329C311.579 164.288 317.23 161.756 322.068 158.1C326.558 154.71 330.584 150.194 331.73 144.522C333.037 138.064 330.62 131.746 326.136 127.059C320.948 121.631 313.667 119.074 306.459 117.657C298.355 116.064 290.073 115.126 281.87 114.142C248.74 110.173 215.292 108.835 181.943 110.116C148.396 111.402 114.948 115.329 82.0213 121.861C74.0421 123.444 66.0994 125.184 58.1775 127.074C55.4223 127.736 56.5942 131.986 59.3494 131.324C91.0213 123.772 123.25 118.652 155.704 116.069C188.032 113.496 220.563 113.381 252.907 115.751C268.969 116.934 285.042 118.642 300.954 121.147C307.995 122.256 315.636 123.746 321.23 128.496C325.766 132.345 328.849 138.105 327.297 144.142C325.954 149.376 321.667 153.272 317.282 156.09C312.021 159.465 306.204 161.605 300.318 163.631C285.464 168.751 270.381 173.23 255.136 177.053C224.844 184.668 193.907 189.725 162.766 192.152C131.438 194.605 99.8911 194.428 68.5838 191.585C60.7504 190.866 52.9379 189.996 45.1463 188.949C37.3598 187.897 30.0108 187.079 22.6775 185.204C16.1931 183.548 9.74521 180.418 6.5525 174.199C3.8598 168.944 5.40146 163.199 9.2973 159.059C13.1879 154.918 18.6515 152.053 23.9327 149.887C30.9171 147.017 38.0525 144.449 45.2088 142.012C59.7035 137.074 74.464 132.918 89.3963 129.527C119.178 122.777 149.641 119.137 180.172 118.637C210.693 118.131 241.266 120.756 271.235 126.6C278.558 128.027 285.844 129.647 293.084 131.454C295.834 132.142 297.006 127.897 294.256 127.21L294.266 127.215Z" fill="#353955"/>
<mask id="mask0_89_307" style="mask-type:luminance" maskUnits="userSpaceOnUse" x="170" y="0" width="141" height="87">
<path d="M170.823 0.0844727H310.823V86.7511H170.823V0.0844727Z" fill="white"/>
</mask>
<g mask="url(#mask0_89_307)">
<mask id="mask1_89_307" style="mask-type:luminance" maskUnits="userSpaceOnUse" x="169" y="-10" width="156" height="124">
<path d="M169.485 76.5741L300.823 -9.44678L324.928 27.3605L193.594 113.381L169.485 76.5741Z" fill="white"/>
</mask>
<g mask="url(#mask1_89_307)">
<mask id="mask2_89_307" style="mask-type:luminance" maskUnits="userSpaceOnUse" x="169" y="-10" width="156" height="124">
<path d="M169.485 76.5741L300.823 -9.44678L324.928 27.3605L193.594 113.381L169.485 76.5741Z" fill="white"/>
</mask>
<g mask="url(#mask2_89_307)">
<path d="M172.292 76.2823C172.282 76.4177 172.339 76.5271 172.454 76.6052C172.391 77.0792 171.631 77.2458 171.891 77.8656C171.584 79.3292 172.511 80.0115 173.62 80.5583C176.74 82.0844 180.042 83.074 183.407 83.8604C195.464 86.6625 207.542 86.8187 219.782 84.8344C241.141 81.376 258.87 71.2146 274.011 56.1573C281.027 49.1781 286.693 41.1052 291.985 32.7667C295.099 27.8656 297.902 22.7927 300.834 17.7875C300.86 17.5583 300.881 17.3396 300.907 17.1104C301.115 16.9594 301.308 16.7302 301.532 16.6937C301.532 16.6937 301.532 16.6937 301.542 16.6937C301.719 16.6677 301.756 16.9229 301.652 17.1052C301.922 19.3656 301.714 21.6104 301.381 23.8396C301.157 25.3656 301.053 26.8656 301.402 28.376C300.891 31.6625 302.271 33.9125 305.188 34.7458C309.058 29.3656 309.527 23.1937 309.49 16.8812C309.48 14.5375 309.626 12.1937 309.735 9.84999C310.006 4.24062 309.646 5.03749 305.823 2.52708C304.969 1.96978 304.001 1.61562 303.001 1.36562C302.631 1.27187 302.282 1.21978 301.948 1.43853C300.938 0.855201 300.11 1.38124 299.329 1.93333C297.011 3.57916 294.719 5.24583 292.412 6.90729C291.735 6.96458 291.271 7.38124 290.829 7.82916C290.146 7.8552 289.688 8.2927 289.214 8.69895C288.73 8.63645 288.402 8.99062 288.016 9.17812C282.751 11.6573 277.277 13.5115 271.506 14.4281C271.073 14.4958 270.646 14.6 270.214 14.6885C269.704 14.7875 269.12 14.8969 269.047 15.4906C268.99 15.9385 269.402 16.4125 269.771 16.5115C271.412 16.9542 272.516 18.3292 274.068 18.8969C274.756 19.1521 275.49 19.1 276.235 19.0375C281.99 18.5792 287.506 17.1156 292.886 15.0792C293.365 14.8969 293.829 14.6365 294.329 14.5583C294.912 14.4698 295.037 14.9333 295.032 15.4177C294.506 15.6781 294.287 16.1 294.339 16.6729C293.907 17.0062 293.516 17.3604 293.594 17.9854C293.448 18.001 293.396 18.0844 293.438 18.225C293.016 18.5271 292.678 18.876 292.719 19.4542C292.48 19.725 292.198 19.9646 292.006 20.2719C289.907 23.6104 287.865 26.9854 285.73 30.2979C283.792 33.3083 281.761 36.2562 279.771 39.225C279.152 39.949 278.506 40.6417 277.917 41.3812C272.146 48.5583 265.599 54.9281 258.115 60.3031C255.443 62.225 252.714 64.0583 250.006 65.9281C249.292 65.975 248.834 66.4437 248.365 66.9073C247.678 66.9385 247.235 67.376 246.782 67.8135C246.126 67.7927 245.724 68.2458 245.277 68.6104C244.844 68.5583 244.547 68.7719 244.303 69.0948C244.146 69.0844 244.032 69.1521 243.969 69.2979C243.49 69.2458 243.162 69.5896 242.771 69.7615C240.844 70.6 239.073 71.7823 237.037 72.3812C236.974 72.626 236.521 73.0271 237.308 72.8812C237.829 72.7875 237.933 72.8969 237.891 73.0687C237.849 73.225 237.698 73.4281 237.599 73.5948C231.417 76.0531 225.016 77.7406 218.495 79.0062C217.881 79.0635 217.261 79.1312 216.646 79.1937C212.969 79.5583 209.287 79.9281 205.615 80.2979C205.485 80.2146 205.355 80.1885 205.23 80.2094C205.141 80.225 205.058 80.2562 204.974 80.3135C204.766 80.1781 204.558 80.1885 204.355 80.3292C204.141 80.1885 203.933 80.199 203.73 80.35C203.521 80.199 203.313 80.2094 203.105 80.3604C202.896 80.2094 202.688 80.2094 202.48 80.3656C202.271 80.2094 202.068 80.2094 201.86 80.3656H201.855C201.657 80.2094 201.443 80.2094 201.245 80.3604H201.23C201.032 80.3448 200.829 80.3396 200.626 80.35H200.599C200.402 80.1937 200.204 80.1833 199.995 80.3344H199.974C199.771 80.1781 199.573 80.1729 199.365 80.324H199.344C199.146 80.1573 198.943 80.1521 198.735 80.3031H198.719C198.521 80.1417 198.318 80.1365 198.11 80.2875H198.099C197.896 80.126 197.688 80.1156 197.48 80.2615C195.568 80.0687 193.662 79.876 191.756 79.6833C190.73 79.8917 189.735 79.6052 188.74 79.4542C188.698 79.3396 188.693 79.2354 188.704 79.1312C188.714 78.9698 188.777 78.824 188.891 78.6833C188.152 78.4958 187.428 78.2458 186.641 78.4021C186.412 78.4698 186.178 78.5062 185.933 78.4437C186.167 78.4281 186.402 78.4177 186.641 78.4021C186.417 78.2927 186.193 78.2146 185.985 78.4021C185.719 78.1208 185.396 78.0635 185.027 78.1365C184.86 77.9542 184.667 77.8969 184.443 78.0323C184.224 77.8969 184.011 77.8187 183.766 77.9437C183.667 77.8604 183.563 77.8187 183.428 77.8448C182.74 77.5323 182.021 77.3708 181.266 77.3865C180.766 77.1885 180.271 76.9802 179.719 77.0531C179.448 76.8135 179.11 76.8135 178.777 76.7875C176.818 76.0062 174.724 75.5948 172.829 74.3917C172.735 75.1729 171.969 75.5531 172.292 76.2823ZM293.74 18.5427C293.735 18.5479 293.735 18.5479 293.73 18.5479C293.735 18.5531 293.74 18.5531 293.74 18.5531C293.735 18.5531 293.724 18.5531 293.724 18.5531L293.73 18.5479C293.724 18.5427 293.724 18.5427 293.714 18.5375C293.73 18.5375 293.73 18.5427 293.74 18.5427ZM198.808 81.5219C198.855 81.5323 198.902 81.5427 198.954 81.5531C198.938 81.5531 198.928 81.5583 198.912 81.5583C198.87 81.5583 198.829 81.5583 198.782 81.5531C198.787 81.5479 198.797 81.5375 198.808 81.5219ZM205.584 80.3187C205.589 80.324 205.584 80.324 205.589 80.3292C205.584 80.3448 205.589 80.3656 205.584 80.3812L205.573 80.4385L205.584 80.324C205.579 80.3187 205.579 80.324 205.573 80.3187C205.579 80.324 205.579 80.3187 205.584 80.3187ZM198.672 81.7094C198.709 81.6573 198.745 81.6052 198.777 81.5635C198.818 81.5635 198.86 81.5635 198.902 81.5635C198.813 81.574 198.73 81.6208 198.672 81.7094ZM199.188 81.5792C199.235 81.5844 199.287 81.5844 199.334 81.5896C199.334 81.5948 199.339 81.5948 199.344 81.6C199.292 81.5896 199.235 81.5844 199.188 81.5792ZM175.323 78.876C175.318 78.8812 175.308 78.876 175.303 78.8812H175.297C175.292 78.876 175.287 78.8708 175.282 78.8656C175.292 78.8656 175.308 78.8708 175.323 78.876ZM176.193 79.2198C176.198 79.2302 176.209 79.2354 176.219 79.2354C176.214 79.225 176.198 79.225 176.193 79.2198ZM185.594 78.6156C185.568 78.6521 185.547 78.6937 185.532 78.7458C185.511 78.725 185.49 78.7042 185.469 78.6833C185.511 78.6625 185.547 78.6365 185.594 78.6156ZM184.011 78.1104C183.933 78.1052 183.855 78.074 183.782 78.0167C183.782 78.0167 183.782 78.0167 183.787 78.0115C183.865 78.0635 183.938 78.1 184.011 78.1104Z" fill="white"/>
</g>
</g>
</g>
<mask id="mask3_89_307" style="mask-type:luminance" maskUnits="userSpaceOnUse" x="200" y="80" width="2" height="2">
<path d="M200.157 80.0845H201.49V81.4178H200.157V80.0845Z" fill="white"/>
</mask>
<g mask="url(#mask3_89_307)">
<mask id="mask4_89_307" style="mask-type:luminance" maskUnits="userSpaceOnUse" x="169" y="-10" width="156" height="124">
<path d="M169.485 76.5741L300.823 -9.44678L324.928 27.3605L193.594 113.381L169.485 76.5741Z" fill="white"/>
</mask>
<g mask="url(#mask4_89_307)">
<mask id="mask5_89_307" style="mask-type:luminance" maskUnits="userSpaceOnUse" x="169" y="-10" width="156" height="124">
<path d="M169.485 76.5741L300.823 -9.44678L324.928 27.3605L193.594 113.381L169.485 76.5741Z" fill="white"/>
</mask>
<g mask="url(#mask5_89_307)">
<path d="M200.589 80.3553C200.792 80.3605 200.995 80.3605 201.193 80.3709C200.995 80.2095 200.792 80.2095 200.589 80.3553Z" fill="white"/>
</g>
</g>
</g>
<path d="M85.7172 125.077C83.7953 125.077 81.3943 126.275 80.0766 128.437C70.1183 144.754 62.9151 159.874 56.3162 177.155C55.837 178.473 55.5974 179.796 56.0766 180.874C51.7537 182.676 48.1547 183.874 45.1547 183.994C46.238 185.796 48.3943 186.635 51.0349 186.635C68.9151 186.635 115.717 149.916 109.837 128.317C106.717 116.437 93.8735 112.833 82.9568 112.833C64.7172 112.833 39.2745 120.994 40.5974 138.275C41.0766 144.155 45.1547 148.353 47.6755 148.353C48.1547 148.353 48.6339 148.234 48.8735 147.874C50.5557 146.077 45.8735 148.114 44.3162 139.713C43.7172 129.635 63.3943 118.833 80.5558 118.833H81.3943C129.514 119.676 88.7172 163.114 60.5141 178.593C67.5974 160.833 77.5558 143.676 88.837 126.754C88.1183 125.556 86.9151 125.077 85.7172 125.077Z" fill="white"/>
<path d="M109.838 177.635C118.353 177.635 126.635 166.114 131.077 159.994C132.635 157.713 133.838 155.916 134.557 154.958C134.557 153.994 133.838 153.635 133.353 153.635C133.234 153.635 133.114 153.635 133.114 153.754C128.317 160.353 118.353 173.676 109.598 173.676C106.114 173.317 106.838 168.994 108.874 164.077C109.598 165.036 110.916 165.515 112.353 165.515C116.437 165.395 121.353 159.275 122.916 155.556V155.317C123.275 154.713 123.395 153.994 123.635 153.155C124.353 149.317 121.598 145.958 117.874 145.958C116.557 145.958 115.114 146.317 113.676 147.275C106.234 152.197 97.2337 166.593 104.317 175.114C105.635 176.916 107.557 177.635 109.838 177.635ZM119.676 150.754C120.156 150.754 120.515 150.874 120.755 151.234C120.994 151.833 120.874 152.556 120.635 153.515C118.838 157.833 113.437 162.754 111.036 162.754C110.437 162.754 110.077 162.515 109.838 161.916C112.838 156.275 117.395 150.754 119.676 150.754Z" fill="white"/>
<path d="M126.395 170.077C126.395 173.197 126.754 177.395 130.837 177.395C131.316 177.395 131.796 177.155 132.155 176.437C136.478 169.353 154.717 142.353 161.436 140.317C162.993 140.197 162.155 138.155 159.874 138.155C158.915 138.155 157.837 138.395 156.874 139.353C148.113 145.713 134.077 168.395 131.436 171.634C133.358 158.916 139.113 148.832 142.837 144.994C142.957 144.994 141.634 143.556 139.837 143.197H138.993C132.993 143.197 126.514 165.155 126.395 170.077Z" fill="white"/>
<path d="M155.798 177.635C164.313 177.635 172.595 166.114 177.037 159.994C178.595 157.713 179.798 155.916 180.517 154.958C180.517 153.994 179.798 153.635 179.313 153.635C179.194 153.635 179.074 153.635 179.074 153.754C174.277 160.353 164.313 173.676 155.558 173.676C152.074 173.317 152.798 168.994 154.834 164.077C155.558 165.036 156.876 165.515 158.313 165.515C162.397 165.395 167.313 159.275 168.876 155.556V155.317C169.235 154.713 169.355 153.994 169.595 153.155C170.313 149.317 167.558 145.958 163.834 145.958C162.517 145.958 161.074 146.317 159.636 147.275C152.194 152.197 143.194 166.593 150.277 175.114C151.595 176.916 153.517 177.635 155.798 177.635ZM165.636 150.754C166.116 150.754 166.475 150.874 166.714 151.234C166.954 151.833 166.834 152.556 166.595 153.515C164.798 157.833 159.397 162.754 156.996 162.754C156.397 162.754 156.037 162.515 155.798 161.916C158.798 156.275 163.355 150.754 165.636 150.754Z" fill="white"/>
<path d="M199.235 126.994C200.318 125.916 197.797 122.916 194.438 122.916C192.157 122.916 191.318 124.234 190.115 126.036C185.678 133.833 170.198 167.317 168.876 178.833C168.756 180.874 169.355 185.317 172.115 185.437C174.037 171.036 193.235 132.755 199.235 126.994Z" fill="white"/>
<path d="M184.834 170.676C185.194 174.515 187.595 177.395 191.558 177.395C202.834 177.395 217.116 149.796 205.235 144.036C204.636 143.676 203.798 143.557 202.954 143.557C199.714 143.557 196.595 146.077 194.678 148.593C192.876 148.593 192.037 149.437 191.074 150.994C187.834 155.916 184.116 164.676 184.834 170.676ZM192.756 163.713C194.194 160.473 196.595 155.317 198.517 152.676C198.996 152.197 199.954 151.354 199.595 150.755C199.475 150.275 198.756 149.796 198.157 149.557C199.475 147.395 201.277 146.317 202.714 146.317C203.433 146.317 203.918 146.676 204.517 146.916C211.834 152.077 196.595 174.036 191.678 174.036C190.834 174.036 190.355 173.557 190.235 172.354C189.996 169.833 192.157 164.796 192.756 163.713Z" fill="white"/>
<path d="M240.758 143.557C233.914 143.557 219.513 163.713 215.794 168.994C220.716 159.515 225.758 151.473 228.393 148.958C229.357 147.994 226.956 144.874 223.596 144.874C221.195 144.874 220.477 146.077 219.273 147.994C215.555 154.114 205.357 173.557 200.794 186.994C199.596 190.114 195.878 202.473 202.357 202.593C202.836 198.515 204.878 192.994 207.393 186.874C209.914 182.437 213.273 177.275 216.997 172.114C216.393 176.557 217.836 180.395 220.596 181.713C221.315 182.197 222.154 182.317 223.117 182.317C233.315 182.317 248.794 158.437 247.357 150.275C246.513 146.676 243.878 143.557 240.758 143.557ZM220.357 167.676C228.638 156.515 237.273 146.916 240.273 146.916C240.758 146.916 241.117 147.156 241.237 147.874C242.435 153.635 226.477 177.635 221.075 177.635C219.273 177.635 218.674 174.874 220.357 167.676Z" fill="white"/>
<path d="M253.598 177.635C262.113 177.635 270.394 166.114 274.837 159.994C276.394 157.713 277.598 155.916 278.316 154.958C278.316 153.994 277.598 153.635 277.113 153.635C276.993 153.635 276.874 153.635 276.874 153.754C272.077 160.353 262.113 173.676 253.358 173.676C249.874 173.317 250.598 168.994 252.634 164.077C253.358 165.036 254.676 165.515 256.113 165.515C260.197 165.395 265.113 159.275 266.676 155.556V155.317C267.035 154.713 267.155 153.994 267.394 153.155C268.113 149.317 265.358 145.958 261.634 145.958C260.316 145.958 258.874 146.317 257.436 147.275C249.993 152.197 240.993 166.593 248.077 175.114C249.394 176.916 251.316 177.635 253.598 177.635ZM263.436 150.754C263.915 150.754 264.275 150.874 264.514 151.234C264.754 151.833 264.634 152.556 264.394 153.515C262.598 157.833 257.197 162.754 254.796 162.754C254.197 162.754 253.837 162.515 253.598 161.916C256.598 156.275 261.155 150.754 263.436 150.754Z" fill="white"/>
<path d="M290.556 139.593C290.197 139.114 289.598 138.635 289.118 138.156C290.796 135.395 292.118 132.754 292.957 130.473C293.676 128.437 292.837 123.036 290.077 123.275C285.035 123.635 279.394 132.635 285.394 138.635C281.676 144.874 277.478 152.916 274.837 156.515C274.717 156.754 274.837 157.958 275.676 157.958C275.915 157.958 276.275 157.833 276.999 157.353C279.754 153.874 282.275 148.353 287.436 140.796C287.796 141.275 288.155 141.754 288.275 142.114C291.035 147.395 275.796 165.994 276.035 175.114C276.035 177.874 277.358 182.317 280.837 182.317C281.197 182.317 281.436 182.197 281.796 182.077C288.155 178.958 301.598 157.114 303.275 154.833C303.514 154.473 303.275 153.874 302.796 153.635C302.556 153.515 302.436 153.395 302.197 153.395C301.957 153.395 301.837 153.515 301.478 153.754C298.717 157.473 284.915 178.713 281.436 178.114C283.358 171.156 290.676 158.676 292.358 153.994C294.155 149.557 295.598 142.833 290.556 139.593ZM289.717 128.317C290.316 128.317 290.436 129.036 289.717 130.958C289.238 132.515 288.394 134.197 287.556 135.515C285.394 132.635 288.634 128.317 289.717 128.317Z" fill="white"/>
</svg>
