<svg width="345" height="84" viewBox="0 0 345 84" fill="none" xmlns="http://www.w3.org/2000/svg">
<mask id="mask0_89_542" style="mask-type:luminance" maskUnits="userSpaceOnUse" x="31" y="5" width="49" height="60">
<path d="M31.4819 5.96777H79.4819V64.098H31.4819V5.96777Z" fill="white"/>
</mask>
<g mask="url(#mask0_89_542)">
<path d="M31.5757 63.5981V36.5981H60.0757C66.5757 34.5981 72.0757 22.5981 60.0757 17.0981H47.5757L43.0757 7.09814H63.0757C87.0757 13.5981 79.5757 44.0981 63.0757 46.5981H41.0757V63.5981H31.5757Z" fill="black"/>
</g>
<mask id="mask1_89_542" style="mask-type:luminance" maskUnits="userSpaceOnUse" x="24" y="0" width="56" height="65">
<path d="M24.8154 0.634277H79.5758V64.0978H24.8154V0.634277Z" fill="white"/>
</mask>
<g mask="url(#mask1_89_542)">
<path d="M31.5757 63.5977V36.5977H60.0757C66.5757 34.5977 72.0757 22.5977 60.0757 17.0977H47.5757L43.0757 7.09766H63.0757C87.0757 13.5977 79.5757 44.0977 63.0757 46.5977H41.0757V63.5977H31.5757Z" stroke="black" stroke-width="0.999985"/>
</g>
<mask id="mask2_89_542" style="mask-type:luminance" maskUnits="userSpaceOnUse" x="47" y="52" width="18" height="13">
<path d="M47.4819 52.6343H64.8153V64.0978H47.4819V52.6343Z" fill="white"/>
</mask>
<g mask="url(#mask2_89_542)">
<path d="M59.0757 53.5977H47.5757L52.5757 63.5977H64.0757L59.0757 53.5977Z" fill="black"/>
</g>
<mask id="mask3_89_542" style="mask-type:luminance" maskUnits="userSpaceOnUse" x="40" y="47" width="31" height="18">
<path d="M40.8154 47.3013H70.1488V64.0981H40.8154V47.3013Z" fill="white"/>
</mask>
<g mask="url(#mask3_89_542)">
<path d="M59.0757 53.5981H47.5757L52.5757 63.5981H64.0757L59.0757 53.5981Z" stroke="black" stroke-width="0.999985"/>
</g>
<mask id="mask4_89_542" style="mask-type:luminance" maskUnits="userSpaceOnUse" x="0" y="1" width="48" height="64">
<path d="M0.81543 1.96777H47.4821V64.098H0.81543V1.96777Z" fill="white"/>
</mask>
<g mask="url(#mask4_89_542)">
<path d="M1.57568 63.5981L32.0757 2.09814L46.5757 29.0981H34.0757L32.0757 24.5981L12.5757 63.5981H1.57568Z" fill="black"/>
</g>
<mask id="mask5_89_542" style="mask-type:luminance" maskUnits="userSpaceOnUse" x="0" y="0" width="53" height="65">
<path d="M0.575684 0.0981445H52.8153V64.0981H0.575684V0.0981445Z" fill="white"/>
</mask>
<g mask="url(#mask5_89_542)">
<path d="M1.57568 63.5982L32.0757 2.09814L46.5757 29.0981H34.0757L32.0757 24.5981L12.5757 63.5982H1.57568Z" stroke="black" stroke-width="0.999985"/>
</g>
<path d="M113.231 51.0897C113.007 50.423 113.122 49.3084 113.679 47.5324C114.122 44.8605 115.57 39.9647 117.794 38.1834C118.684 37.6261 118.575 37.5116 117.908 36.7355C116.794 35.397 115.57 34.8449 114.455 34.8449C114.012 34.8449 113.564 34.9543 113.007 35.1782C113.898 31.9491 114.455 28.3866 112.007 25.7147C111.34 25.048 110.34 24.3813 109.226 24.3813C108.002 24.3813 106.669 25.048 105.106 26.3866C98.429 31.8397 85.9655 54.2095 94.7571 58.2147C95.4238 58.548 95.8717 58.772 96.5384 58.772C96.7623 58.772 96.9863 58.6574 97.205 58.6574C100.21 57.3241 104.215 50.7563 107.554 45.3032C107.554 45.5272 107.554 45.6366 107.445 45.9699C107.002 48.9751 106.669 52.647 108.893 54.7616C109.559 55.4334 110.34 55.8761 111.34 55.8761C117.351 55.8761 126.366 41.1886 128.59 37.9595C128.257 36.7355 127.924 36.7355 127.033 36.7355C126.476 37.5116 116.794 51.423 113.898 51.423C113.679 51.423 113.455 51.3136 113.231 51.0897ZM108.669 32.173C109.559 31.3918 110.226 30.8345 110.783 30.8345C111.674 30.8345 111.898 32.6157 111.45 36.2876C110.45 37.0688 109.893 38.1834 109.335 39.2928C105.221 44.9699 99.9863 53.7616 98.3196 53.7616C96.7623 52.4282 104.33 36.8449 108.669 32.173Z" fill="black"/>
<path d="M138.828 24.7145C138.495 24.2718 137.938 23.8238 137.49 23.3811C139.047 20.8186 140.271 18.3707 141.052 16.2561C141.719 14.3655 140.943 9.35509 138.38 9.57905C133.709 9.91238 128.479 18.2613 134.042 23.8238C130.594 29.6103 126.698 37.0686 124.25 40.4072C124.136 40.6311 124.25 41.7405 125.026 41.7405C125.25 41.7405 125.584 41.6311 126.25 41.1884C128.813 37.9593 131.146 32.8395 135.933 25.829C136.266 26.2718 136.599 26.7197 136.714 27.053C139.271 31.9488 125.136 49.1988 125.36 57.6572C125.36 60.2145 126.584 64.3343 129.813 64.3343C130.146 64.3343 130.37 64.2249 130.703 64.1103C136.599 61.2197 149.068 40.9645 150.625 38.8499C150.844 38.5165 150.625 37.9593 150.177 37.7353C149.953 37.6259 149.844 37.5113 149.62 37.5113C149.401 37.5113 149.287 37.6259 148.953 37.8499C146.396 41.2978 133.594 60.9957 130.37 60.4384C132.151 53.9853 138.938 42.4124 140.495 38.0686C142.167 33.9541 143.5 27.7197 138.828 24.7145ZM138.047 14.2561C138.604 14.2561 138.714 14.9228 138.047 16.704C137.604 18.1468 136.823 19.7093 136.047 20.9332C134.042 18.2613 137.047 14.2561 138.047 14.2561Z" fill="black"/>
<path d="M145.95 58.8812C149.174 58.8812 156.856 47.751 158.414 45.1937L158.299 45.8604C157.856 48.7562 157.632 52.4281 159.638 54.5426C160.414 55.2093 161.304 55.652 162.086 55.652C167.981 55.652 176.888 41.0739 179.112 37.9593C178.888 37.0687 178.445 36.626 177.888 36.626C177.778 36.626 177.664 36.7354 177.664 36.7354C177.106 37.5114 167.539 51.2041 164.643 51.2041C164.424 51.2041 164.2 51.0895 164.086 50.8708C163.867 50.3135 163.976 49.1989 164.31 47.4176C165.31 43.5218 168.653 36.8447 169.32 35.7354C170.32 34.0635 167.539 33.0635 165.648 33.0635C163.195 33.0635 160.971 37.2926 160.195 39.1833C156.075 44.8604 149.398 54.0947 147.841 53.9854C145.612 52.2041 156.409 32.8395 159.08 30.3916C158.747 28.501 157.075 26.7197 155.294 26.7197C154.518 26.7197 153.627 27.0531 152.961 28.0531C147.841 34.3968 137.044 55.2093 144.278 58.4385C144.836 58.6572 145.393 58.8812 145.95 58.8812Z" fill="black"/>
<path d="M200.143 28.7199C199.028 27.6105 197.585 27.1626 196.138 27.1626C194.58 27.7199 177.888 49.8657 176.106 52.5376C177.216 50.423 178.44 48.7563 179.33 46.7511C182.45 40.7407 182.45 41.4074 185.565 35.397C186.231 34.2876 186.679 33.7303 185.789 32.7303L185.565 32.5063C184.565 31.5063 183.117 30.9491 181.783 30.9491C180.111 30.9491 179.33 31.2824 178.664 32.8397C174.434 41.298 173.101 42.7459 169.986 51.647C168.872 55.1001 169.429 57.2147 172.653 58.772C173.21 58.9907 173.768 59.3293 174.101 59.3293C174.768 59.3293 175.101 58.8813 175.549 58.1001C180.669 50.3136 186.455 42.9647 192.351 35.7355C190.018 39.8501 182.783 55.8761 190.46 57.548C190.794 57.6574 191.018 57.6574 191.351 57.6574C197.695 57.6574 206.934 45.1938 210.273 40.4074C210.825 39.4074 211.497 38.6261 211.83 38.0688C211.606 37.2928 211.049 36.8449 210.716 36.8449C210.606 36.8449 210.492 36.9595 210.492 36.9595C210.273 37.2928 208.825 39.0741 207.153 41.4074L206.934 41.7407L206.82 41.8553C203.815 45.5272 198.695 52.9855 194.356 53.6522C189.46 54.2095 199.367 35.2876 200.591 32.5063L200.7 32.173C201.257 30.8345 201.257 29.6105 200.143 28.7199Z" fill="black"/>
<path d="M253.302 28.3862C246.958 28.3862 233.604 47.0841 230.156 51.98C234.719 43.1883 239.39 35.7352 241.838 33.3966C242.729 32.506 240.505 29.6102 237.385 29.6102C235.161 29.6102 234.495 30.7248 233.38 32.506C229.932 38.1831 220.474 56.2091 216.245 68.6727C215.13 71.5685 211.682 83.0321 217.687 83.1414C218.135 79.3602 220.026 74.2404 222.364 68.5633C224.703 64.4435 227.817 59.6623 231.265 54.8758C230.708 58.9904 232.047 62.5529 234.604 63.7769C235.276 64.2248 236.052 64.3341 236.942 64.3341C246.401 64.3341 260.76 42.1883 259.422 34.6206C258.646 31.2821 256.198 28.3862 253.302 28.3862ZM234.385 50.756C242.062 40.4071 250.073 31.506 252.859 31.506C253.302 31.506 253.635 31.7248 253.75 32.3966C254.859 37.7352 240.057 59.9956 235.052 59.9956C233.38 59.9956 232.823 57.4331 234.385 50.756Z" fill="black"/>
<path d="M279.229 51.0897C279.005 50.423 279.12 49.3084 279.677 47.5324C280.12 44.8605 281.568 39.9647 283.792 38.1834C284.682 37.6261 284.573 37.5116 283.906 36.7355C282.792 35.397 281.568 34.8449 280.453 34.8449C280.01 34.8449 279.562 34.9543 279.005 35.1782C279.896 31.9491 280.453 28.3866 278.005 25.7147C277.339 25.048 276.338 24.3813 275.224 24.3813C274 24.3813 272.667 25.048 271.104 26.3866C264.427 31.8397 251.963 54.2095 260.755 58.2147C261.422 58.548 261.87 58.772 262.536 58.772C262.76 58.772 262.984 58.6574 263.203 58.6574C266.208 57.3241 270.213 50.7563 273.552 45.3032C273.552 45.5272 273.552 45.6366 273.443 45.9699C273 48.9751 272.667 52.647 274.891 54.7616C275.557 55.4334 276.339 55.8761 277.339 55.8761C283.349 55.8761 292.365 41.1886 294.589 37.9595C294.255 36.7355 293.922 36.7355 293.031 36.7355C292.474 37.5116 282.792 51.423 279.896 51.423C279.677 51.423 279.453 51.3136 279.229 51.0897ZM274.667 32.173C275.557 31.3918 276.224 30.8345 276.781 30.8345C277.672 30.8345 277.896 32.6157 277.448 36.2876C276.448 37.0688 275.891 38.1834 275.333 39.2928C271.219 44.9699 265.984 53.7616 264.318 53.7616C262.76 52.4282 270.328 36.8449 274.667 32.173Z" fill="black"/>
<path d="M281.899 22.2666H282.123C287.576 21.7093 293.03 21.152 298.592 20.8187C292.582 32.9489 286.019 49.9801 284.123 57.5479C283.347 60.1051 282.457 67.0062 286.462 67.1156C288.019 55.7666 298.483 33.6208 306.384 20.376C311.17 20.152 315.842 19.8187 320.405 19.4854C323.41 19.152 324.634 14.1416 322.295 14.2562C318.181 14.8083 313.727 15.4801 309.274 15.9229C310.837 13.4749 312.28 11.6937 313.394 10.6937C314.509 9.5791 312.837 6.68848 309.613 6.68848C308.941 6.68848 308.274 6.79785 307.384 7.13118C305.936 7.68848 303.378 11.6937 300.373 17.1468L281.79 19.7093C280.566 19.9281 280.785 22.2666 281.899 22.2666Z" fill="black"/>
<path d="M304.379 59.9959C312.28 59.9959 319.957 49.3084 324.077 43.6366C325.525 41.522 326.634 39.8501 327.306 38.9595C327.306 38.0688 326.634 37.7355 326.192 37.7355C326.082 37.7355 325.968 37.7355 325.968 37.8501C321.52 43.9699 312.28 56.3241 304.155 56.3241C300.931 55.9855 301.598 51.9803 303.489 47.4178C304.155 48.3084 305.379 48.7563 306.718 48.7563C310.499 48.6418 315.061 42.9647 316.509 39.5168V39.2928C316.843 38.7407 316.952 38.0688 317.176 37.2928C317.843 33.7303 315.285 30.6157 311.837 30.6157C310.608 30.6157 309.275 30.9491 307.942 31.8397C301.041 36.4022 292.692 49.7563 299.259 57.6574C300.483 59.3293 302.265 59.9959 304.379 59.9959ZM313.504 35.0636C313.952 35.0636 314.285 35.1782 314.504 35.5116C314.728 36.0688 314.619 36.7355 314.395 37.6261C312.723 41.6313 307.718 46.1938 305.494 46.1938C304.936 46.1938 304.603 45.9699 304.379 45.4178C307.16 40.1834 311.39 35.0636 313.504 35.0636Z" fill="black"/>
<path d="M344.666 13.0321C345.666 12.0269 343.328 9.24561 340.213 9.24561C338.099 9.24561 337.317 10.4696 336.208 12.1414C332.088 19.3758 317.734 50.4227 316.51 61.105C316.395 63.0008 316.953 67.1154 319.51 67.23C321.291 53.8758 339.099 18.3706 344.666 13.0321Z" fill="black"/>
</svg>
