<svg width="339" height="84" viewBox="0 0 339 84" fill="none" xmlns="http://www.w3.org/2000/svg">
<mask id="mask0_89_475" style="mask-type:luminance" maskUnits="userSpaceOnUse" x="31" y="5" width="49" height="60">
<path d="M31.2188 5.96777H79.2188V64.098H31.2188V5.96777Z" fill="white"/>
</mask>
<g mask="url(#mask0_89_475)">
<path d="M31.3125 63.5981V36.5981H59.8125C66.3125 34.5981 71.8125 22.5981 59.8125 17.0981H47.3125L42.8125 7.09814H62.8125C86.8125 13.5981 79.3125 44.0981 62.8125 46.5981H40.8125V63.5981H31.3125Z" fill="white"/>
</g>
<mask id="mask1_89_475" style="mask-type:luminance" maskUnits="userSpaceOnUse" x="24" y="0" width="56" height="65">
<path d="M24.5522 0.634277H79.3127V64.0978H24.5522V0.634277Z" fill="white"/>
</mask>
<g mask="url(#mask1_89_475)">
<path d="M31.3125 63.5977V36.5977H59.8125C66.3125 34.5977 71.8125 22.5977 59.8125 17.0977H47.3125L42.8125 7.09766H62.8125C86.8125 13.5977 79.3125 44.0977 62.8125 46.5977H40.8125V63.5977H31.3125Z" stroke="white" stroke-width="0.999985"/>
</g>
<mask id="mask2_89_475" style="mask-type:luminance" maskUnits="userSpaceOnUse" x="47" y="52" width="18" height="13">
<path d="M47.2188 52.6343H64.5521V64.0978H47.2188V52.6343Z" fill="white"/>
</mask>
<g mask="url(#mask2_89_475)">
<path d="M58.8125 53.5977H47.3125L52.3125 63.5977H63.8125L58.8125 53.5977Z" fill="white"/>
</g>
<mask id="mask3_89_475" style="mask-type:luminance" maskUnits="userSpaceOnUse" x="40" y="47" width="30" height="18">
<path d="M40.5522 47.3013H69.8856V64.0981H40.5522V47.3013Z" fill="white"/>
</mask>
<g mask="url(#mask3_89_475)">
<path d="M58.8125 53.5981H47.3125L52.3125 63.5981H63.8125L58.8125 53.5981Z" stroke="white" stroke-width="0.999985"/>
</g>
<mask id="mask4_89_475" style="mask-type:luminance" maskUnits="userSpaceOnUse" x="0" y="1" width="48" height="64">
<path d="M0.552246 1.96777H47.2189V64.098H0.552246V1.96777Z" fill="white"/>
</mask>
<g mask="url(#mask4_89_475)">
<path d="M1.3125 63.5981L31.8125 2.09814L46.3125 29.0981H33.8125L31.8125 24.5981L12.3125 63.5981H1.3125Z" fill="white"/>
</g>
<mask id="mask5_89_475" style="mask-type:luminance" maskUnits="userSpaceOnUse" x="0" y="0" width="53" height="65">
<path d="M0.3125 0.0981445H52.5521V64.0981H0.3125V0.0981445Z" fill="white"/>
</mask>
<g mask="url(#mask5_89_475)">
<path d="M1.3125 63.5982L31.8125 2.09814L46.3125 29.0981H33.8125L31.8125 24.5981L12.3125 63.5982H1.3125Z" stroke="white" stroke-width="0.999985"/>
</g>
<path d="M112.968 51.0897C112.744 50.423 112.859 49.3084 113.416 47.5324C113.859 44.8605 115.306 39.9647 117.53 38.1834C118.421 37.6261 118.312 37.5116 117.645 36.7355C116.53 35.397 115.306 34.8449 114.192 34.8449C113.749 34.8449 113.301 34.9543 112.744 35.1782C113.635 31.9491 114.192 28.3866 111.744 25.7147C111.077 25.048 110.077 24.3813 108.963 24.3813C107.739 24.3813 106.405 25.048 104.843 26.3866C98.1658 31.8397 85.7023 54.2095 94.4939 58.2147C95.1606 58.548 95.6085 58.772 96.2752 58.772C96.4991 58.772 96.7231 58.6574 96.9419 58.6574C99.9471 57.3241 103.952 50.7563 107.291 45.3032C107.291 45.5272 107.291 45.6366 107.181 45.9699C106.739 48.9751 106.405 52.647 108.629 54.7616C109.296 55.4334 110.077 55.8761 111.077 55.8761C117.088 55.8761 126.103 41.1886 128.327 37.9595C127.994 36.7355 127.661 36.7355 126.77 36.7355C126.213 37.5116 116.53 51.423 113.635 51.423C113.416 51.423 113.192 51.3136 112.968 51.0897ZM108.405 32.173C109.296 31.3918 109.963 30.8345 110.52 30.8345C111.411 30.8345 111.635 32.6157 111.187 36.2876C110.187 37.0688 109.629 38.1834 109.072 39.2928C104.957 44.9699 99.7231 53.7616 98.0564 53.7616C96.4991 52.4282 104.067 36.8449 108.405 32.173Z" fill="white"/>
<path d="M138.565 24.7145C138.232 24.2718 137.675 23.8238 137.227 23.3811C138.784 20.8186 140.008 18.3707 140.789 16.2561C141.456 14.3655 140.68 9.35509 138.117 9.57905C133.445 9.91238 128.216 18.2613 133.779 23.8238C130.331 29.6103 126.435 37.0686 123.987 40.4072C123.873 40.6311 123.987 41.7405 124.763 41.7405C124.987 41.7405 125.32 41.6311 125.987 41.1884C128.55 37.9593 130.883 32.8395 135.669 25.829C136.003 26.2718 136.336 26.7197 136.451 27.053C139.008 31.9488 124.873 49.1988 125.096 57.6572C125.096 60.2145 126.32 64.3343 129.55 64.3343C129.883 64.3343 130.107 64.2249 130.44 64.1103C136.336 61.2197 148.805 40.9645 150.362 38.8499C150.581 38.5165 150.362 37.9593 149.914 37.7353C149.69 37.6259 149.581 37.5113 149.357 37.5113C149.138 37.5113 149.024 37.6259 148.69 37.8499C146.133 41.2978 133.331 60.9957 130.107 60.4384C131.888 53.9853 138.675 42.4124 140.232 38.0686C141.904 33.9541 143.237 27.7197 138.565 24.7145ZM137.784 14.2561C138.341 14.2561 138.451 14.9228 137.784 16.704C137.341 18.1468 136.56 19.7093 135.784 20.9332C133.779 18.2613 136.784 14.2561 137.784 14.2561Z" fill="white"/>
<path d="M145.687 58.8812C148.911 58.8812 156.593 47.751 158.151 45.1937L158.036 45.8604C157.593 48.7562 157.369 52.4281 159.374 54.5426C160.151 55.2093 161.041 55.652 161.822 55.652C167.718 55.652 176.624 41.0739 178.848 37.9593C178.624 37.0687 178.182 36.626 177.624 36.626C177.515 36.626 177.401 36.7354 177.401 36.7354C176.843 37.5114 167.276 51.2041 164.38 51.2041C164.161 51.2041 163.937 51.0895 163.822 50.8708C163.604 50.3135 163.713 49.1989 164.046 47.4176C165.046 43.5218 168.39 36.8447 169.057 35.7354C170.057 34.0635 167.276 33.0635 165.385 33.0635C162.932 33.0635 160.708 37.2926 159.932 39.1833C155.812 44.8604 149.135 54.0947 147.578 53.9854C145.348 52.2041 156.145 32.8395 158.817 30.3916C158.484 28.501 156.812 26.7197 155.031 26.7197C154.255 26.7197 153.364 27.0531 152.697 28.0531C147.578 34.3968 136.781 55.2093 144.015 58.4385C144.572 58.6572 145.13 58.8812 145.687 58.8812Z" fill="white"/>
<path d="M199.88 28.7199C198.765 27.6105 197.322 27.1626 195.874 27.1626C194.317 27.7199 177.624 49.8657 175.843 52.5376C176.952 50.423 178.176 48.7563 179.067 46.7511C182.187 40.7407 182.187 41.4074 185.301 35.397C185.968 34.2876 186.416 33.7303 185.525 32.7303L185.301 32.5063C184.301 31.5063 182.853 30.9491 181.52 30.9491C179.848 30.9491 179.067 31.2824 178.4 32.8397C174.171 41.298 172.838 42.7459 169.723 51.647C168.609 55.1001 169.166 57.2147 172.39 58.772C172.947 58.9907 173.505 59.3293 173.838 59.3293C174.505 59.3293 174.838 58.8813 175.286 58.1001C180.406 50.3136 186.192 42.9647 192.088 35.7355C189.755 39.8501 182.52 55.8761 190.197 57.548C190.531 57.6574 190.755 57.6574 191.088 57.6574C197.432 57.6574 206.671 45.1938 210.01 40.4074C210.562 39.4074 211.234 38.6261 211.567 38.0688C211.343 37.2928 210.786 36.8449 210.452 36.8449C210.343 36.8449 210.228 36.9595 210.228 36.9595C210.01 37.2928 208.562 39.0741 206.89 41.4074L206.671 41.7407L206.557 41.8553C203.551 45.5272 198.432 52.9855 194.093 53.6522C189.197 54.2095 199.103 35.2876 200.327 32.5063L200.437 32.173C200.994 30.8345 200.994 29.6105 199.88 28.7199Z" fill="white"/>
<path d="M247.039 28.3862C240.695 28.3862 227.341 47.0841 223.893 51.98C228.455 43.1883 233.127 35.7352 235.575 33.3966C236.466 32.506 234.242 29.6102 231.122 29.6102C228.898 29.6102 228.231 30.7248 227.117 32.506C223.669 38.1831 214.211 56.2091 209.981 68.6727C208.867 71.5685 205.419 83.0321 211.424 83.1414C211.872 79.3602 213.763 74.2404 216.101 68.5633C218.44 64.4435 221.554 59.6623 225.002 54.8758C224.445 58.9904 225.783 62.5529 228.341 63.7769C229.013 64.2248 229.789 64.3341 230.679 64.3341C240.138 64.3341 254.497 42.1883 253.158 34.6206C252.382 31.2821 249.935 28.3862 247.039 28.3862ZM228.122 50.756C235.799 40.4071 243.81 31.506 246.596 31.506C247.039 31.506 247.372 31.7248 247.487 32.3966C248.596 37.7352 233.794 59.9956 228.789 59.9956C227.117 59.9956 226.56 57.4331 228.122 50.756Z" fill="white"/>
<path d="M272.966 51.0897C272.742 50.423 272.857 49.3084 273.414 47.5324C273.857 44.8605 275.304 39.9647 277.528 38.1834C278.419 37.6261 278.31 37.5116 277.643 36.7355C276.528 35.397 275.304 34.8449 274.19 34.8449C273.747 34.8449 273.299 34.9543 272.742 35.1782C273.633 31.9491 274.19 28.3866 271.742 25.7147C271.075 25.048 270.075 24.3813 268.961 24.3813C267.737 24.3813 266.403 25.048 264.841 26.3866C258.164 31.8397 245.7 54.2095 254.492 58.2147C255.159 58.548 255.607 58.772 256.273 58.772C256.497 58.772 256.721 58.6574 256.94 58.6574C259.945 57.3241 263.95 50.7563 267.289 45.3032C267.289 45.5272 267.289 45.6366 267.179 45.9699C266.737 48.9751 266.403 52.647 268.627 54.7616C269.294 55.4334 270.075 55.8761 271.075 55.8761C277.086 55.8761 286.101 41.1886 288.325 37.9595C287.992 36.7355 287.659 36.7355 286.768 36.7355C286.211 37.5116 276.528 51.423 273.633 51.423C273.414 51.423 273.19 51.3136 272.966 51.0897ZM268.403 32.173C269.294 31.3918 269.961 30.8345 270.518 30.8345C271.409 30.8345 271.633 32.6157 271.185 36.2876C270.185 37.0688 269.627 38.1834 269.07 39.2928C264.956 44.9699 259.721 53.7616 258.054 53.7616C256.497 52.4282 264.065 36.8449 268.403 32.173Z" fill="white"/>
<path d="M275.636 22.2666H275.86C281.313 21.7093 286.766 21.152 292.329 20.8187C286.318 32.9489 279.756 49.9801 277.86 57.5479C277.084 60.1051 276.193 67.0062 280.199 67.1156C281.756 55.7666 292.219 33.6208 300.121 20.376C304.907 20.152 309.579 19.8187 314.141 19.4854C317.147 19.152 318.371 14.1416 316.032 14.2562C311.917 14.8083 307.464 15.4801 303.011 15.9229C304.574 13.4749 306.016 11.6937 307.131 10.6937C308.246 9.5791 306.574 6.68848 303.35 6.68848C302.678 6.68848 302.011 6.79785 301.121 7.13118C299.673 7.68848 297.115 11.6937 294.11 17.1468L275.527 19.7093C274.303 19.9281 274.522 22.2666 275.636 22.2666Z" fill="white"/>
<path d="M298.116 59.9959C306.017 59.9959 313.694 49.3084 317.814 43.6366C319.262 41.522 320.371 39.8501 321.043 38.9595C321.043 38.0688 320.371 37.7355 319.928 37.7355C319.819 37.7355 319.705 37.7355 319.705 37.8501C315.257 43.9699 306.017 56.3241 297.892 56.3241C294.668 55.9855 295.335 51.9803 297.225 47.4178C297.892 48.3084 299.116 48.7563 300.455 48.7563C304.236 48.6418 308.798 42.9647 310.246 39.5168V39.2928C310.58 38.7407 310.689 38.0688 310.913 37.2928C311.58 33.7303 309.022 30.6157 305.574 30.6157C304.345 30.6157 303.012 30.9491 301.678 31.8397C294.777 36.4022 286.428 49.7563 292.996 57.6574C294.22 59.3293 296.001 59.9959 298.116 59.9959ZM307.241 35.0636C307.689 35.0636 308.022 35.1782 308.241 35.5116C308.465 36.0688 308.356 36.7355 308.132 37.6261C306.46 41.6313 301.455 46.1938 299.231 46.1938C298.673 46.1938 298.34 45.9699 298.116 45.4178C300.897 40.1834 305.126 35.0636 307.241 35.0636Z" fill="white"/>
<path d="M338.403 13.0321C339.403 12.0269 337.065 9.24561 333.95 9.24561C331.835 9.24561 331.054 10.4696 329.945 12.1414C325.825 19.3758 311.471 50.4227 310.247 61.105C310.132 63.0008 310.69 67.1154 313.247 67.23C315.028 53.8758 332.835 18.3706 338.403 13.0321Z" fill="white"/>
</svg>
