<svg width="350" height="350" viewBox="0 0 350 350" fill="none" xmlns="http://www.w3.org/2000/svg">
<mask id="mask0_1621_3749" style="mask-type:alpha" maskUnits="userSpaceOnUse" x="0" y="0" width="350" height="350">
<circle cx="174.901" cy="175.043" r="174.112" fill="#D9D9D9"/>
</mask>
<g mask="url(#mask0_1621_3749)">
<mask id="path-2-inside-1_1621_3749" fill="white">
<path fill-rule="evenodd" clip-rule="evenodd" d="M202.333 12.7146C201.957 11.721 201.485 10.9013 200.917 10.2555C200.207 11.5542 199.331 11.9197 198.287 11.352C197.904 11.1391 197.84 10.8552 198.096 10.5003C198.543 9.87578 199.107 9.42866 199.788 9.15897C200.051 9.05251 200.083 8.89638 199.884 8.69056L199.458 8.25409C199.386 8.17853 199.287 8.13324 199.183 8.12731C199.078 8.12139 198.975 8.15527 198.894 8.22215L195.658 10.8197C195.722 12.3882 194.969 13.0943 193.401 12.9382C193.011 12.9027 192.734 12.7075 192.571 12.3527L192.262 11.6926C192.028 11.1958 191.648 11.0149 191.123 11.1497C190.768 11.242 190.445 11.4017 190.154 11.6288C189.82 11.8843 189.451 11.9517 189.047 11.831C187.031 11.2349 184.735 11.0858 182.159 11.3839C178.249 11.5542 174.132 11.4265 169.81 11.0007C165.147 10.5465 160.988 11.3342 157.333 13.364C155.673 14.2866 154.15 14.8154 152.767 14.9502C151.818 15.041 150.835 15.1023 149.838 15.1645C145.574 15.4305 141.062 15.712 137.99 18.3781C134.967 21.004 131.135 23.1154 126.493 24.7123C123.805 25.6418 122.965 28.5624 122.147 31.4054C121.663 33.0883 121.187 34.744 120.34 35.9434C117.863 39.4707 116.259 43.2109 115.528 47.1639C115.464 47.533 115.283 47.8275 114.985 48.0475C113.566 49.105 112.689 50.496 112.356 52.2206C112.285 52.6039 112.349 52.9587 112.547 53.2852C113.639 55.0816 112.663 56.7253 111.665 58.4051C110.522 60.3288 109.352 62.2998 111.227 64.6015C111.919 65.4508 113.1 65.9079 114.271 66.3612C114.92 66.6125 115.566 66.8626 116.124 67.1778C116.43 67.3524 116.69 67.5969 116.883 67.8911C117.077 68.1853 117.198 68.5207 117.236 68.8699C117.274 69.2191 117.229 69.5721 117.105 69.8997C116.98 70.2274 116.779 70.5204 116.518 70.7547C115.815 71.3864 115.035 71.8299 114.176 72.0854C108.186 73.9165 101.905 76.7766 95.3332 80.6658C92.7676 82.1881 90.8088 84.477 92.4802 87.5323C93.1531 88.7729 94.2321 89.6536 95.3131 90.5359C95.8739 90.9936 96.4353 91.4518 96.9407 91.9608C99.1498 94.179 97.3454 96.5213 95.8232 98.4973C95.5628 98.8353 95.3107 99.1626 95.0884 99.4767C94.0877 100.889 93.928 102.607 94.6093 104.629C95.2611 106.529 94.4599 107.776 93.6124 109.095C92.8264 110.318 92.0005 111.603 92.2566 113.529C92.2814 113.711 92.3067 113.894 92.3321 114.078C92.7781 117.3 93.2686 120.845 91.4156 123.685C89.9678 125.91 87.2957 130.04 87.9984 132.691C88.8358 135.878 90.7272 138.11 93.6725 139.387C98.8463 141.63 103.981 143.855 109.077 146.062C116.891 149.462 122.614 154.845 126.248 162.212C127.455 164.66 128.516 168.34 129.431 173.251C130.127 176.956 131.191 180.841 132.625 184.908C132.881 185.637 133.135 186.364 133.389 187.089C137.447 198.684 141.366 209.882 148.349 219.911C149.91 222.161 151.361 224.442 152.703 226.756C153.077 227.402 153.23 228.152 153.14 228.891C153.05 229.631 152.72 230.321 152.202 230.855C149.679 233.463 147.529 235.784 145.762 239.116C142.866 244.58 140.048 249.903 137.309 255.084C130.144 268.593 124.758 283.678 121.873 299.477C120.932 304.621 119.838 309.707 118.738 314.82C117.186 322.032 115.622 329.297 114.463 336.853C112.178 351.793 110.074 366.537 108.151 381.086C107.384 386.892 106.323 393.907 104.968 402.133C101.738 421.749 99.375 441.521 97.8775 461.45C96.6746 477.451 94.9287 489.97 92.5547 504.842C92.505 505.161 92.6363 505.321 92.9486 505.321L270.678 505.31C270.94 505.31 271.065 505.182 271.05 504.927C269.737 485.169 268.502 465.673 267.346 446.44C266.899 439.059 266.686 432.061 266.707 425.447C266.799 397.228 266.576 363.975 266.036 325.686C265.823 310.449 264.578 296.066 262.3 282.539C259.862 268.083 256.274 254.573 249.61 242.288C246.274 236.142 241.856 228.992 236.356 220.837C234.721 218.402 232.812 216.188 230.897 213.967C229.371 212.197 227.842 210.424 226.445 208.531C222.79 203.57 218.372 199.929 213.191 197.608C208.252 195.394 208.773 179.447 209.433 174.976C209.731 172.964 212.489 172.772 213.628 174.22C213.819 174.461 214.057 174.649 214.341 174.784C214.958 175.089 215.445 174.944 215.799 174.348C218.184 170.323 220.221 166.381 221.91 162.52C224.561 156.495 228.202 151.215 232.172 145.807C239.33 136.051 246.874 126.382 254.214 116.973C257.223 113.116 260.198 109.302 263.098 105.545C265.639 102.259 268.066 98.3376 270.38 93.7813C270.536 93.469 270.571 93.1425 270.486 92.8019L269.517 89.0014C269.141 88.462 269.056 87.9687 269.262 87.5216C269.411 87.188 269.663 87.078 270.018 87.1916L270.88 87.4577C271.554 86.5777 271.444 85.8077 270.55 85.1476C270.138 84.8425 269.808 84.5692 269.56 84.3279C269.29 84.0724 269.131 83.7034 269.081 83.2208C268.79 80.6942 268.339 78.1854 267.729 75.6943C267.63 75.2756 267.672 74.871 267.857 74.4807C267.867 74.4578 267.878 74.4349 267.889 74.4121C268.806 72.2977 264.014 64.3567 264.014 64.3567C264.014 64.3567 262.175 64.8038 261.075 64.6122C259.947 64.3993 259.145 63.6647 258.669 62.4085C258.151 61.053 257.875 60.3468 257.839 60.29C256.441 57.586 254.741 55.1446 252.74 52.9658C252.575 52.7823 252.476 52.5502 252.457 52.3057C252.437 52.0612 252.499 51.818 252.633 51.6138C253.627 50.1234 254.596 49.364 255.54 49.3357C255.504 48.6543 256.42 47.4159 258.286 45.6203C258.328 45.5805 258.358 45.5301 258.374 45.4745C258.389 45.4188 258.389 45.36 258.374 45.3043C258.359 45.2485 258.329 45.198 258.287 45.1581C258.245 45.1181 258.194 45.0902 258.137 45.0774L255.295 44.4706C254.844 44.3682 254.371 44.4445 253.975 44.6835L248.46 48.0262C246.899 47.714 246.441 45.7729 247.087 42.2031L245.618 38.2535C244.284 37.9555 243.563 37.0967 243.457 35.6773C243.428 35.3224 243.304 35.0066 243.084 34.7298C242.616 34.155 242.048 33.7575 241.381 33.5375C241.083 33.4452 240.859 33.2607 240.71 32.9839C239.816 31.3374 238.89 29.6838 237.932 28.0231C236.825 26.0997 235.54 24.5526 234.078 23.3816C233.787 23.1474 233.567 22.8564 233.418 22.5086C233.006 21.5931 232.417 20.8195 231.651 20.1879C231.402 19.982 231.118 19.8862 230.799 19.9004L223.124 20.1772C222.859 20.1867 222.596 20.1303 222.36 20.0131C222.124 19.896 221.921 19.7218 221.772 19.5065C221.261 18.7897 221.335 18.3497 221.995 18.1865C221.889 17.9878 221.839 17.7287 221.846 17.4093C221.853 17.0474 221.686 16.8132 221.346 16.7067C221.197 16.6571 221.044 16.6571 220.888 16.7067C220.37 16.8771 219.997 17.2106 219.77 17.7074C219.33 18.6726 218.606 18.9885 217.599 18.6549C216.463 18.2787 213.858 16.9267 209.785 14.5989C207.535 14.8189 205.274 14.4286 203.003 13.4279C202.677 13.2859 202.453 13.0482 202.333 12.7146Z"/>
</mask>
<path d="M265.27 64.2289L265.529 62.9617L265.519 62.9598L265.27 64.2289ZM267.974 64.7825L267.714 66.0497L267.72 66.0509L267.974 64.7825ZM269.081 64.2609L270.219 64.8752L270.226 64.8629L269.081 64.2609ZM270.955 62.3021L271.613 63.4155L271.621 63.4104L271.63 63.4052L270.955 62.3021ZM271.444 61.3759L272.736 61.3079L272.735 61.2986L271.444 61.3759ZM271.338 59.5981L272.629 59.5207L272.628 59.5106L271.338 59.5981ZM271.647 58.4483L270.575 57.7235L270.574 57.7258L271.647 58.4483ZM271.487 53.3597L270.351 53.9782L270.351 53.9788L271.487 53.3597ZM270.252 53.232L271.23 54.0786L271.233 54.0748L270.252 53.232ZM267.431 55.2972L266.948 54.0974L266.944 54.0987L267.431 55.2972ZM267.229 55.0098L268.186 55.8799L268.188 55.8778L267.229 55.0098ZM269.762 51.2838L270.922 51.8574L270.922 51.8573L269.762 51.2838ZM272.732 47.0575L271.77 46.193L271.766 46.1976L272.732 47.0575ZM273.169 47.3556L272.012 46.7771L272.009 46.7821L273.169 47.3556ZM272.126 51.4648L273.418 51.5119L273.418 51.5036L272.126 51.4648ZM272.402 52.5506L273.519 51.8975L273.514 51.8886L272.402 52.5506ZM274.233 57.9799L272.946 58.1002L272.946 58.1026L274.233 57.9799ZM274.925 62.9195L273.748 62.3843L273.746 62.3889L274.925 62.9195ZM269.049 72.6283L268.064 71.7904L268.058 71.7967L269.049 72.6283ZM267.916 74.3574L269.076 74.9299L269.076 74.9296L267.916 74.3574ZM267.889 74.4121L266.725 73.8488L266.713 73.873L266.703 73.8976L267.889 74.4121ZM264.014 64.3567C264.337 65.609 264.337 65.609 264.337 65.609C264.337 65.609 264.337 65.6091 264.337 65.6091C264.337 65.6091 264.337 65.6092 264.336 65.6092C264.336 65.6093 264.336 65.6093 264.336 65.6094C264.335 65.6095 264.335 65.6095 264.335 65.6095C264.335 65.6095 264.336 65.6093 264.338 65.6089C264.34 65.6082 264.346 65.6068 264.354 65.6049C264.37 65.6009 264.396 65.5948 264.429 65.5875C264.496 65.5726 264.588 65.5538 264.688 65.5373C264.791 65.5205 264.887 65.5088 264.966 65.5043C265.057 65.499 265.066 65.5071 265.02 65.4981L265.519 62.9598C265.051 62.8676 264.529 62.942 264.27 62.9844C264.11 63.0106 263.97 63.0396 263.869 63.062C263.818 63.0733 263.776 63.0832 263.745 63.0905C263.73 63.0942 263.718 63.0973 263.708 63.0997C263.704 63.1008 263.7 63.1018 263.697 63.1026C263.695 63.103 263.694 63.1034 263.693 63.1037C263.692 63.1038 263.691 63.1039 263.691 63.1041C263.691 63.1041 263.69 63.1042 263.69 63.1042C263.69 63.1043 263.69 63.1043 263.69 63.1043C263.69 63.1044 263.69 63.1044 264.014 64.3567ZM265.01 65.4961L267.714 66.0497L268.233 63.5153L265.529 62.9617L265.01 65.4961ZM267.72 66.0509C268.174 66.1416 268.684 66.1279 269.174 65.8967C269.665 65.6657 270 65.2814 270.219 64.8752L267.943 63.6465C267.921 63.6874 267.951 63.6136 268.072 63.5565C268.193 63.4992 268.271 63.5228 268.227 63.5141L267.72 66.0509ZM270.226 64.8629C270.545 64.2562 270.999 63.7785 271.613 63.4155L270.296 61.1887C269.278 61.7908 268.483 62.619 267.936 63.6588L270.226 64.8629ZM271.63 63.4052C271.968 63.1981 272.274 62.9072 272.481 62.5154C272.689 62.1232 272.757 61.7057 272.736 61.3079L270.153 61.4439C270.153 61.4506 270.15 61.3897 270.194 61.3062C270.238 61.2232 270.289 61.1931 270.279 61.1989L271.63 63.4052ZM272.735 61.2986L272.629 59.5207L270.047 59.6754L270.153 61.4532L272.735 61.2986ZM272.628 59.5106C272.619 59.3782 272.646 59.2801 272.719 59.1709L270.574 57.7258C270.179 58.3121 269.999 58.9804 270.047 59.6856L272.628 59.5106ZM272.718 59.1732C274.038 57.2222 273.844 54.9818 272.623 52.7406L270.351 53.9788C271.273 55.6694 271.186 56.8214 270.575 57.7235L272.718 59.1732ZM272.623 52.7412C272.397 52.3259 271.92 51.652 271.05 51.5621C270.184 51.4725 269.578 52.031 269.271 52.3891L271.233 54.0748C271.294 54.0041 271.3 54.0164 271.242 54.0494C271.174 54.0887 271.01 54.1587 270.784 54.1353C270.558 54.1119 270.411 54.0093 270.35 53.9552C270.3 53.9098 270.307 53.8975 270.351 53.9782L272.623 52.7412ZM269.274 52.3854C268.571 53.1973 267.795 53.756 266.948 54.0974L267.914 56.4971C269.181 55.9868 270.286 55.1686 271.23 54.0786L269.274 52.3854ZM266.944 54.0987C266.846 54.1385 266.847 54.1303 266.908 54.1191C266.933 54.1143 267.055 54.092 267.223 54.1135C267.384 54.1343 267.786 54.2252 268.071 54.63C268.357 55.0363 268.306 55.447 268.269 55.6088C268.232 55.7756 268.168 55.8829 268.155 55.9056C268.123 55.9598 268.115 55.9581 268.186 55.8799L266.271 54.1397C266.165 54.2567 266.032 54.4133 265.928 54.589C265.879 54.6725 265.793 54.8314 265.746 55.0406C265.7 55.2447 265.652 55.6886 265.955 56.1188C266.257 56.5476 266.689 56.6533 266.894 56.6795C267.105 56.7066 267.282 56.6806 267.378 56.663C267.578 56.626 267.77 56.5553 267.917 56.4958L266.944 54.0987ZM268.188 55.8778C269.283 54.6676 270.195 53.3264 270.922 51.8574L268.603 50.7102C267.981 51.9665 267.204 53.1094 266.27 54.1418L268.188 55.8778ZM270.922 51.8573C271.517 50.6547 272.432 49.3411 273.699 47.9174L271.766 46.1976C270.393 47.7404 269.328 49.2445 268.603 50.7103L270.922 51.8573ZM273.694 47.922C273.905 47.6876 274.034 47.5607 274.097 47.5068C274.136 47.473 274.099 47.5118 274.007 47.5595C273.962 47.5827 273.838 47.6437 273.657 47.6707C273.468 47.6991 273.117 47.7012 272.772 47.4656C272.427 47.2302 272.302 46.9035 272.259 46.7177C272.219 46.5402 272.23 46.4022 272.235 46.3523C272.246 46.2493 272.268 46.2009 272.251 46.25C272.224 46.3284 272.153 46.4951 272.012 46.7771L274.326 47.934C274.479 47.627 274.611 47.3395 274.695 47.0985C274.733 46.988 274.788 46.8136 274.808 46.6183C274.818 46.5222 274.828 46.3466 274.781 46.1398C274.732 45.9247 274.594 45.5771 274.231 45.3293C273.868 45.0813 273.493 45.0795 273.274 45.1122C273.064 45.1437 272.904 45.2176 272.818 45.262C272.643 45.3524 272.501 45.4674 272.412 45.5436C272.219 45.7097 272 45.9377 271.77 46.193L273.694 47.922ZM272.009 46.7821C271.277 48.2624 270.881 49.8139 270.833 51.426L273.418 51.5036C273.455 50.2769 273.755 49.0889 274.328 47.929L272.009 46.7821ZM270.833 51.4177C270.81 52.0473 270.968 52.6708 271.291 53.2127L273.514 51.8886C273.447 51.7773 273.413 51.6467 273.418 51.5119L270.833 51.4177ZM271.286 53.2038C272.254 54.8585 272.795 56.4882 272.946 58.1002L275.521 57.8597C275.331 55.8238 274.652 53.8339 273.519 51.8975L271.286 53.2038ZM272.946 58.1026C273.001 58.6878 273.149 59.2145 273.297 59.6647C273.371 59.8885 273.45 60.1076 273.52 60.3019C273.592 60.5028 273.655 60.6806 273.71 60.8533C273.924 61.5262 273.951 61.9365 273.748 62.3843L276.103 63.4548C276.698 62.146 276.465 60.9807 276.175 60.0701C276.105 59.8469 276.027 59.6283 275.955 59.4294C275.882 59.2239 275.815 59.0397 275.754 58.8538C275.632 58.4846 275.55 58.1663 275.521 57.8573L272.946 58.1026ZM273.746 62.3889C271.999 66.2709 270.1 69.3948 268.064 71.7905L270.034 73.4662C272.27 70.8371 274.288 67.4884 276.105 63.4501L273.746 62.3889ZM266.756 73.785C266.746 73.8058 266.736 73.8271 266.725 73.8488L269.054 74.9754C269.061 74.9606 269.068 74.9455 269.076 74.9299L266.756 73.785ZM268.058 71.7967C267.541 72.4128 267.106 73.0759 266.756 73.7853L269.076 74.9296C269.332 74.4114 269.652 73.9218 270.04 73.46L268.058 71.7967ZM266.703 73.8976C266.705 73.8926 266.708 73.8857 266.712 73.8774L269.001 75.084C269.029 75.0314 269.054 74.9789 269.076 74.9267L266.703 73.8976ZM200.917 10.2555L202.86 8.5474L200.419 5.77126L198.647 9.01495L200.917 10.2555ZM202.333 12.7146L204.765 11.8347L204.759 11.8166L204.752 11.7987L202.333 12.7146ZM203.003 13.4279L204.046 11.0605L204.035 11.0554L203.003 13.4279ZM209.785 14.5989L211.068 12.3528L210.353 11.944L209.533 12.0242L209.785 14.5989ZM217.599 18.6549L216.785 21.1106L216.786 21.1108L217.599 18.6549ZM219.77 17.7074L217.417 16.6319L217.416 16.6343L219.77 17.7074ZM220.888 16.7067L220.104 14.2415L220.092 14.2453L220.08 14.2492L220.888 16.7067ZM221.346 16.7067L220.528 19.161L220.551 19.1687L220.574 19.176L221.346 16.7067ZM221.846 17.4093L224.432 17.4668L224.433 17.4601L221.846 17.4093ZM221.995 18.1865L222.616 20.6978L225.847 19.8987L224.276 16.9649L221.995 18.1865ZM221.772 19.5065L223.895 18.0294L223.887 18.0171L223.878 18.0049L221.772 19.5065ZM223.124 20.1772L223.216 22.7625L223.217 22.7625L223.124 20.1772ZM230.799 19.9004L230.892 22.4857L230.903 22.4853L230.914 22.4849L230.799 19.9004ZM231.651 20.1879L230 22.1799L230.006 22.1843L231.651 20.1879ZM233.418 22.5086L235.796 21.4896L235.787 21.4686L235.777 21.4478L233.418 22.5086ZM234.078 23.3816L232.456 25.3969L232.461 25.4007L234.078 23.3816ZM237.932 28.0231L235.69 29.3137L235.691 29.3158L237.932 28.0231ZM240.71 32.9839L242.988 31.7574L242.984 31.7493L240.71 32.9839ZM241.381 33.5375L242.191 31.0807L242.169 31.0732L242.146 31.0662L241.381 33.5375ZM243.084 34.7298L245.109 33.1201L245.1 33.1078L245.09 33.0957L243.084 34.7298ZM243.457 35.6773L246.037 35.4838L246.036 35.471L243.457 35.6773ZM245.618 38.2535L248.043 37.3516L247.553 36.0351L246.182 35.7288L245.618 38.2535ZM247.087 42.2031L249.633 42.6636L249.759 41.9658L249.512 41.3012L247.087 42.2031ZM248.46 48.0262L247.953 50.563L248.94 50.7605L249.801 50.2385L248.46 48.0262ZM253.975 44.6835L252.638 42.4687L252.634 42.4712L253.975 44.6835ZM255.295 44.4706L254.722 46.9934L254.738 46.9971L254.755 47.0006L255.295 44.4706ZM258.137 45.0774L258.712 42.555L258.695 42.5511L258.677 42.5474L258.137 45.0774ZM258.286 45.6203L256.504 43.7448L256.499 43.7504L256.493 43.756L258.286 45.6203ZM255.54 49.3357L255.617 51.9215L258.261 51.842L258.123 49.2011L255.54 49.3357ZM252.633 51.6138L250.481 50.1788L250.475 50.187L250.47 50.1951L252.633 51.6138ZM252.74 52.9658L250.813 54.692L250.824 54.704L250.835 54.7159L252.74 52.9658ZM257.839 60.29L255.541 61.4782L255.59 61.5718L255.645 61.6611L257.839 60.29ZM258.669 62.4085L261.089 61.4927L261.086 61.4849L258.669 62.4085ZM261.075 64.6122L260.596 67.1543L260.614 67.1577L260.631 67.1608L261.075 64.6122ZM264.014 64.3567L266.228 63.02L265.247 61.3942L263.402 61.843L264.014 64.3567ZM267.857 74.4807L265.518 73.3743L265.518 73.3751L267.857 74.4807ZM267.729 75.6943L265.212 76.2916L265.214 76.3008L265.216 76.3099L267.729 75.6943ZM269.081 83.2208L271.654 82.9559L271.653 82.9403L271.651 82.9248L269.081 83.2208ZM269.56 84.3279L271.363 82.4723L271.351 82.461L271.339 82.4499L269.56 84.3279ZM270.55 85.1476L269.009 87.2258L269.014 87.229L270.55 85.1476ZM270.88 87.4577L270.117 89.9297L271.838 90.4609L272.934 89.031L270.88 87.4577ZM270.018 87.1916L269.229 89.6555L269.242 89.6596L269.255 89.6635L270.018 87.1916ZM269.262 87.5216L271.612 88.6033L271.618 88.5902L271.624 88.5769L269.262 87.5216ZM269.517 89.0014L272.024 88.3624L271.908 87.907L271.639 87.5216L269.517 89.0014ZM270.486 92.8019L272.996 92.1744L272.993 92.1629L270.486 92.8019ZM270.38 93.7813L272.686 94.9525L272.69 94.9454L272.694 94.9382L270.38 93.7813ZM263.098 105.545L261.051 103.962L261.05 103.964L263.098 105.545ZM232.172 145.807L234.258 147.338L234.258 147.337L232.172 145.807ZM221.91 162.52L219.542 161.478L219.54 161.483L221.91 162.52ZM215.799 174.348L218.022 175.671L218.025 175.666L215.799 174.348ZM214.341 174.784L215.487 172.465L215.469 172.456L215.451 172.447L214.341 174.784ZM213.628 174.22L211.595 175.819L211.602 175.829L213.628 174.22ZM209.433 174.976L206.874 174.597L206.874 174.598L209.433 174.976ZM213.191 197.608L212.133 199.969L212.134 199.969L213.191 197.608ZM226.445 208.531L224.362 210.065L224.364 210.067L226.445 208.531ZM236.356 220.837L234.208 222.279L234.211 222.284L236.356 220.837ZM249.61 242.288L251.884 241.055L251.884 241.054L249.61 242.288ZM262.3 282.539L264.851 282.11L264.851 282.109L262.3 282.539ZM266.036 325.686L263.45 325.722L263.45 325.723L266.036 325.686ZM266.707 425.447L264.12 425.438L264.12 425.438L266.707 425.447ZM267.346 446.44L269.928 446.284L269.928 446.283L267.346 446.44ZM271.05 504.927L273.633 504.784L273.633 504.769L273.632 504.755L271.05 504.927ZM270.678 505.31L270.678 502.723L270.678 502.723L270.678 505.31ZM92.9486 505.321L92.9486 507.908L92.9487 507.908L92.9486 505.321ZM92.5547 504.842L90 504.434L89.9985 504.444L92.5547 504.842ZM97.8775 461.45L100.457 461.644L100.457 461.644L97.8775 461.45ZM104.968 402.133L102.415 401.712L102.415 401.712L104.968 402.133ZM108.151 381.086L105.586 380.747L105.586 380.747L108.151 381.086ZM114.463 336.853L111.906 336.461L111.906 336.462L114.463 336.853ZM121.873 299.477L124.418 299.942L124.418 299.941L121.873 299.477ZM137.309 255.084L139.594 256.296L139.596 256.293L137.309 255.084ZM145.762 239.116L143.476 237.904L143.476 237.904L145.762 239.116ZM152.202 230.855L150.345 229.054L150.343 229.056L152.202 230.855ZM152.703 226.756L154.941 225.46L154.941 225.459L152.703 226.756ZM148.349 219.911L150.474 218.436L150.472 218.433L148.349 219.911ZM132.625 184.908L135.066 184.051L135.065 184.048L132.625 184.908ZM129.431 173.251L126.888 173.725L126.889 173.728L129.431 173.251ZM126.248 162.212L128.569 161.068L128.568 161.067L126.248 162.212ZM109.077 146.062L110.109 143.69L110.105 143.688L109.077 146.062ZM93.6725 139.387L92.6431 141.761L92.6436 141.761L93.6725 139.387ZM87.9984 132.691L90.5004 132.034L90.499 132.028L87.9984 132.691ZM91.4156 123.685L89.249 122.271L89.2473 122.274L91.4156 123.685ZM92.2566 113.529L89.6922 113.87L89.6933 113.878L92.2566 113.529ZM94.6093 104.629L92.1577 105.455L92.16 105.462L92.1623 105.469L94.6093 104.629ZM95.0884 99.4767L97.1992 100.972L97.1998 100.971L95.0884 99.4767ZM96.9407 91.9608L95.1049 93.7836L95.1077 93.7864L96.9407 91.9608ZM92.4802 87.5323L94.7542 86.2989L94.7498 86.2907L92.4802 87.5323ZM95.3332 80.6658L94.0157 78.4395L94.0131 78.441L95.3332 80.6658ZM114.176 72.0854L113.438 69.6059L113.429 69.6086L113.42 69.6115L114.176 72.0854ZM116.518 70.7547L114.789 68.8306L114.789 68.8309L116.518 70.7547ZM116.124 67.1778L117.407 64.9315L117.396 64.9251L116.124 67.1778ZM111.227 64.6015L113.233 62.9678L113.233 62.9674L111.227 64.6015ZM112.547 53.2852L114.758 51.9417L114.757 51.9401L112.547 53.2852ZM112.356 52.2206L109.816 51.7294L109.814 51.7395L109.812 51.7496L112.356 52.2206ZM114.985 48.0475L113.449 45.9661L113.44 45.973L114.985 48.0475ZM115.528 47.1639L112.984 46.6935L112.981 46.7081L112.979 46.7228L115.528 47.1639ZM120.34 35.9434L118.227 34.451L118.223 34.4568L120.34 35.9434ZM126.493 24.7123L125.651 22.266L125.648 22.2673L126.493 24.7123ZM137.99 18.3781L136.295 16.4244L136.294 16.425L137.99 18.3781ZM152.767 14.9502L153.013 17.5254L153.017 17.525L152.767 14.9502ZM157.333 13.364L156.078 11.1024L156.077 11.1026L157.333 13.364ZM169.81 11.0007L170.064 8.42615L170.061 8.42588L169.81 11.0007ZM182.159 11.3839L182.272 13.9684L182.364 13.9644L182.456 13.9537L182.159 11.3839ZM189.047 11.831L189.786 9.35195L189.781 9.35028L189.047 11.831ZM190.154 11.6288L191.727 13.6825L191.736 13.6754L191.746 13.6681L190.154 11.6288ZM191.123 11.1497L190.479 8.64399L190.472 8.64597L191.123 11.1497ZM192.262 11.6926L194.605 10.5965L194.602 10.5895L192.262 11.6926ZM192.571 12.3527L194.921 11.2716L194.917 11.2641L194.914 11.2566L192.571 12.3527ZM193.401 12.9382L193.657 10.3639L193.646 10.3628L193.635 10.3618L193.401 12.9382ZM195.658 10.8197L194.039 8.80219L193.02 9.61981L193.073 10.925L195.658 10.8197ZM198.894 8.22215L200.513 10.2397L200.529 10.227L200.545 10.214L198.894 8.22215ZM199.458 8.25409L197.593 10.047L197.6 10.0538L197.607 10.0606L199.458 8.25409ZM199.884 8.69056L201.745 6.89364L201.736 6.88403L199.884 8.69056ZM199.788 9.15897L200.74 11.5644L200.75 11.5604L200.76 11.5564L199.788 9.15897ZM198.096 10.5003L200.195 12.0119L200.199 12.0062L198.096 10.5003ZM198.287 11.352L197.031 13.6134L197.041 13.6189L197.051 13.6243L198.287 11.352ZM149.838 15.1645L149.999 17.7465L149.999 17.7465L149.838 15.1645ZM122.147 31.4054L119.661 30.6903L119.661 30.6903L122.147 31.4054ZM111.665 58.4051L109.441 57.084L109.441 57.084L111.665 58.4051ZM114.271 66.3612L113.337 68.7737L113.337 68.7737L114.271 66.3612ZM95.3131 90.5359L93.6773 92.54L93.6773 92.54L95.3131 90.5359ZM95.8232 98.4973L93.7738 96.9186L93.7738 96.9186L95.8232 98.4973ZM93.6124 109.095L95.7887 110.493L95.7887 110.493L93.6124 109.095ZM92.3321 114.078L89.7696 114.432L89.7696 114.432L92.3321 114.078ZM133.389 187.089L135.831 186.235L135.831 186.235L133.389 187.089ZM118.738 314.82L121.267 315.364L121.267 315.364L118.738 314.82ZM230.897 213.967L228.938 215.656L228.938 215.656L230.897 213.967ZM254.214 116.973L256.253 118.564L256.253 118.564L254.214 116.973ZM267.889 74.4121L270.218 75.5396L270.241 75.4908L270.263 75.441L267.889 74.4121ZM198.974 11.9635C199.295 12.3284 199.622 12.8615 199.913 13.6305L204.752 11.7987C204.291 10.5806 203.675 9.47424 202.86 8.5474L198.974 11.9635ZM199.9 13.5945C200.264 14.5998 200.996 15.3758 201.972 15.8003L204.035 11.0554C204.164 11.1117 204.326 11.2115 204.476 11.371C204.626 11.5307 204.716 11.6989 204.765 11.8347L199.9 13.5945ZM201.96 15.7952C204.597 16.9571 207.302 17.441 210.036 17.1736L209.533 12.0242C207.768 12.1968 205.952 11.9 204.046 11.0605L201.96 15.7952ZM208.501 16.845C212.493 19.1261 215.349 20.635 216.785 21.1106L218.412 16.1991C217.577 15.9225 215.224 14.7274 211.068 12.3528L208.501 16.845ZM216.786 21.1108C217.684 21.4081 218.81 21.5289 219.932 21.0393C221.054 20.5496 221.732 19.6417 222.124 18.7805L217.416 16.6343C217.369 16.7383 217.464 16.471 217.863 16.2971C218.261 16.1233 218.521 16.2353 218.411 16.1989L216.786 21.1108ZM222.123 18.783C222.102 18.8286 222.048 18.92 221.946 19.0121C221.843 19.1043 221.745 19.1482 221.696 19.1643L220.08 14.2492C218.876 14.6451 217.944 15.4804 217.417 16.6319L222.123 18.783ZM221.672 19.1719C221.331 19.2807 220.922 19.2922 220.528 19.161L222.164 14.2525C221.472 14.0219 220.758 14.0334 220.104 14.2415L221.672 19.1719ZM220.574 19.176C220.338 19.1022 219.936 18.9073 219.619 18.4629C219.305 18.022 219.255 17.5873 219.26 17.3586L224.433 17.4601C224.444 16.8694 224.314 16.1367 223.834 15.4616C223.35 14.783 222.694 14.4178 222.117 14.2375L220.574 19.176ZM219.26 17.3519C219.247 17.9414 219.328 18.6864 219.715 19.4081L224.276 16.9649C224.365 17.131 224.403 17.2714 224.419 17.3559C224.435 17.4387 224.432 17.4807 224.432 17.4668L219.26 17.3519ZM221.374 15.6752C220.64 15.8568 219.186 16.4801 218.894 18.2069C218.671 19.5199 219.35 20.5659 219.665 21.0082L223.878 18.0049C223.83 17.9374 223.869 17.9758 223.919 18.1076C223.966 18.2342 224.077 18.5875 223.995 19.0709C223.902 19.6178 223.608 20.0675 223.252 20.36C222.946 20.6112 222.676 20.6831 222.616 20.6978L221.374 15.6752ZM219.648 20.9837C220.048 21.5588 220.586 22.021 221.21 22.3306L223.509 17.6956C223.661 17.7709 223.795 17.8848 223.895 18.0294L219.648 20.9837ZM221.21 22.3306C221.834 22.6402 222.524 22.7874 223.216 22.7625L223.031 17.5919C223.193 17.5861 223.358 17.6205 223.509 17.6956L221.21 22.3306ZM223.217 22.7625L230.892 22.4857L230.706 17.3151L223.03 17.5919L223.217 22.7625ZM230.914 22.4849C230.776 22.491 230.605 22.4739 230.424 22.4128C230.244 22.3518 230.101 22.2636 230 22.1799L233.301 18.1958C232.563 17.5844 231.652 17.273 230.684 17.316L230.914 22.4849ZM230.006 22.1843C230.462 22.5603 230.808 23.0125 231.059 23.5695L235.777 21.4478C235.205 20.1737 234.373 19.0787 233.296 18.1914L230.006 22.1843ZM231.04 23.5277C231.354 24.2591 231.831 24.8938 232.456 25.3968L235.7 21.3663C235.716 21.379 235.737 21.3997 235.758 21.4275C235.779 21.4551 235.791 21.4782 235.796 21.4896L231.04 23.5277ZM232.461 25.4007C233.629 26.3364 234.714 27.6195 235.69 29.3137L240.174 26.7324C238.935 24.58 237.451 22.7687 235.695 21.3624L232.461 25.4007ZM235.691 29.3158C236.638 30.9578 237.554 32.592 238.437 34.2186L242.984 31.7493C242.079 30.0828 241.141 28.4098 240.173 26.7303L235.691 29.3158ZM238.432 34.2104C238.9 35.0794 239.664 35.7143 240.616 36.0088L242.146 31.0662C242.294 31.1121 242.469 31.1964 242.636 31.3348C242.804 31.4729 242.917 31.6263 242.988 31.7575L238.432 34.2104ZM240.571 35.9943C240.742 36.051 240.904 36.1494 241.079 36.364L245.09 33.0957C244.328 32.1605 243.354 31.4641 242.191 31.0807L240.571 35.9943ZM241.059 36.3396C241.016 36.2856 240.971 36.2117 240.935 36.121C240.899 36.0305 240.883 35.9476 240.878 35.8836L246.036 35.471C245.966 34.6075 245.652 33.8023 245.109 33.1201L241.059 36.3396ZM240.877 35.8708C240.96 36.9742 241.303 38.1042 242.095 39.0485C242.895 40.002 243.957 40.5333 245.054 40.7783L246.182 35.7288C246.057 35.7009 246.006 35.6731 246.002 35.6706C245.999 35.6695 246.006 35.6733 246.019 35.6835C246.032 35.6939 246.046 35.7075 246.059 35.7233C246.088 35.7585 246.092 35.7777 246.084 35.7542C246.073 35.7259 246.048 35.6432 246.037 35.4838L240.877 35.8708ZM243.193 39.1554L244.662 43.105L249.512 41.3012L248.043 37.3516L243.193 39.1554ZM244.541 41.7425C244.199 43.6373 244.076 45.4367 244.428 46.9301C244.611 47.7069 244.951 48.5229 245.57 49.213C246.215 49.9339 247.045 50.3814 247.953 50.563L248.968 45.4895C249.095 45.5149 249.282 45.6027 249.423 45.7602C249.536 45.8871 249.51 45.9361 249.464 45.7424C249.358 45.2948 249.33 44.3387 249.633 42.6636L244.541 41.7425ZM249.801 50.2385L255.316 46.8958L252.634 42.4712L247.119 45.814L249.801 50.2385ZM255.312 46.8983C255.135 47.005 254.923 47.0391 254.722 46.9934L255.867 41.9478C254.764 41.6973 253.607 41.884 252.638 42.4687L255.312 46.8983ZM254.755 47.0006L257.597 47.6074L258.677 42.5474L255.835 41.9406L254.755 47.0006ZM257.563 47.5998C257.162 47.5086 256.795 47.3106 256.498 47.0271L260.076 43.289C259.696 42.9257 259.225 42.6719 258.712 42.555L257.563 47.5998ZM256.498 47.0271C256.202 46.7435 255.988 46.3847 255.88 45.9891L260.869 44.6194C260.73 44.1123 260.456 43.6526 260.076 43.289L256.498 47.0271ZM255.88 45.9891C255.771 45.594 255.772 45.1763 255.882 44.7806L260.866 46.1683C261.007 45.6613 261.008 45.126 260.869 44.6194L255.88 45.9891ZM255.882 44.7806C255.992 44.3848 256.207 44.027 256.504 43.7448L260.068 47.4958C260.449 47.1341 260.725 46.6755 260.866 46.1683L255.882 44.7806ZM256.493 43.756C255.515 44.6964 254.702 45.57 254.119 46.358C253.828 46.7521 253.549 47.1847 253.34 47.6422C253.142 48.0731 252.917 48.7159 252.956 49.4702L258.123 49.2011C258.145 49.6148 258.021 49.8472 258.043 49.7982C258.053 49.7758 258.114 49.6588 258.28 49.4337C258.613 48.9832 259.191 48.3398 260.08 47.4847L256.493 43.756ZM255.462 46.7499C253.163 46.819 251.547 48.5794 250.481 50.1788L254.786 53.0488C255.193 52.4379 255.507 52.1146 255.701 51.9625C255.883 51.8201 255.844 51.9147 255.617 51.9215L255.462 46.7499ZM250.47 50.1951C250.02 50.8812 249.814 51.6954 249.878 52.5088L255.036 52.1027C255.061 52.427 254.979 52.7547 254.797 53.0325L250.47 50.1951ZM249.878 52.5088C249.942 53.3216 250.272 54.0881 250.813 54.692L254.667 51.2397C254.879 51.4765 255.01 51.7789 255.036 52.1027L249.878 52.5088ZM250.835 54.7159C252.676 56.7208 254.245 58.9722 255.541 61.4782L260.137 59.1018C258.637 56.1999 256.806 53.5685 254.645 51.2158L250.835 54.7159ZM255.645 61.6611C255.595 61.5799 255.56 61.5144 255.547 61.4896C255.531 61.458 255.519 61.4331 255.513 61.4199C255.506 61.4055 255.501 61.3947 255.498 61.389C255.495 61.3829 255.494 61.3791 255.493 61.3782C255.493 61.3767 255.494 61.3804 255.499 61.3912C255.503 61.4015 255.509 61.4157 255.517 61.4343C255.548 61.5118 255.597 61.6336 255.665 61.8063C255.799 62.149 255.995 62.6562 256.253 63.3321L261.086 61.4849C260.826 60.8053 260.624 60.2817 260.482 59.9182C260.411 59.7378 260.352 59.5877 260.305 59.4744C260.283 59.4192 260.258 59.3601 260.234 59.3054C260.222 59.2788 260.205 59.2399 260.185 59.1966C260.178 59.1823 260.12 59.0589 260.033 58.9189L255.645 61.6611ZM256.25 63.3244C256.981 65.2552 258.418 66.7434 260.596 67.1543L261.555 62.07C261.437 62.0477 261.4 62.0172 261.375 61.9939C261.334 61.9568 261.216 61.8295 261.089 61.4927L256.25 63.3244ZM260.631 67.1608C261.618 67.3327 262.705 67.2081 263.333 67.1157C263.691 67.0631 264.005 67.0038 264.23 66.9576C264.343 66.9344 264.436 66.914 264.503 66.8988C264.537 66.8912 264.564 66.8848 264.585 66.88C264.595 66.8776 264.603 66.8755 264.61 66.8739C264.614 66.8731 264.617 66.8724 264.619 66.8718C264.62 66.8715 264.621 66.8712 264.622 66.871C264.623 66.8709 264.623 66.8708 264.624 66.8707C264.624 66.8706 264.624 66.8705 264.624 66.8705C264.625 66.8704 264.625 66.8704 264.014 64.3567C263.402 61.843 263.402 61.8429 263.403 61.8429C263.403 61.8428 263.403 61.8428 263.403 61.8427C263.404 61.8427 263.404 61.8426 263.404 61.8425C263.405 61.8424 263.405 61.8423 263.405 61.8422C263.406 61.842 263.406 61.8419 263.406 61.842C263.406 61.842 263.404 61.8425 263.401 61.8433C263.394 61.845 263.381 61.848 263.362 61.8522C263.324 61.8607 263.265 61.8738 263.189 61.8895C263.034 61.9212 262.82 61.9617 262.58 61.9968C262.338 62.0325 262.095 62.059 261.88 62.0688C261.774 62.0737 261.687 62.0739 261.619 62.0712C261.549 62.0685 261.518 62.0633 261.519 62.0636L260.631 67.1608ZM265.518 73.3751C265.083 74.2945 264.976 75.2994 265.212 76.2916L270.246 75.097C270.26 75.1552 270.27 75.243 270.259 75.3477C270.248 75.4522 270.22 75.5346 270.195 75.5863L265.518 73.3751ZM265.216 76.3099C265.801 78.6967 266.232 81.0987 266.511 83.5168L271.651 82.9248C271.347 80.2897 270.877 77.6741 270.242 75.0787L265.216 76.3099ZM266.508 83.4857C266.601 84.3921 266.94 85.409 267.781 86.2059L271.339 82.4499C271.478 82.5818 271.565 82.7225 271.612 82.8322C271.656 82.9341 271.657 82.9867 271.654 82.9559L266.508 83.4857ZM267.757 86.1835C268.117 86.5327 268.545 86.8814 269.009 87.2258L272.091 83.0695C271.732 82.8035 271.5 82.6057 271.363 82.4723L267.757 86.1835ZM269.014 87.229C269.145 87.3257 268.821 87.1359 268.742 86.586C268.663 86.0344 268.923 85.759 268.826 85.8844L272.934 89.031C273.512 88.2764 274.053 87.176 273.864 85.8543C273.676 84.5344 272.85 83.6296 272.086 83.0662L269.014 87.229ZM271.643 84.9858L270.781 84.7197L269.255 89.6635L270.117 89.9297L271.643 84.9858ZM270.806 84.7277C270.244 84.5479 269.407 84.434 268.527 84.8181C267.639 85.2062 267.149 85.9085 266.9 86.4663L271.624 88.5769C271.524 88.8012 271.235 89.2817 270.598 89.5598C269.97 89.8339 269.436 89.7218 269.229 89.6555L270.806 84.7277ZM266.912 86.4399C266.196 87.996 266.694 89.4757 267.395 90.4811L271.639 87.5216C271.603 87.4696 271.682 87.5618 271.721 87.7868C271.766 88.0466 271.732 88.3429 271.612 88.6033L266.912 86.4399ZM267.011 89.6404L267.979 93.4409L272.993 92.1629L272.024 88.3624L267.011 89.6404ZM267.976 93.4293C267.95 93.324 267.934 93.1835 267.952 93.0226C267.969 92.8615 268.015 92.7255 268.066 92.6243L272.694 94.9382C273.128 94.0701 273.23 93.1104 272.996 92.1744L267.976 93.4293ZM268.073 92.61C265.817 97.0531 263.473 100.83 261.051 103.962L265.145 107.127C267.804 103.687 270.315 99.6221 272.686 94.9525L268.073 92.61ZM230.087 144.275C226.101 149.704 222.314 155.177 219.542 161.478L224.278 163.562C226.807 157.813 230.302 152.725 234.258 147.338L230.087 144.275ZM219.54 161.483C217.898 165.237 215.91 169.086 213.574 173.029L218.025 175.666C220.458 171.561 222.544 167.525 224.28 163.557L219.54 161.483ZM213.576 173.024C213.608 172.972 213.852 172.598 214.427 172.425C215.006 172.252 215.422 172.433 215.487 172.465L213.195 177.103C213.877 177.44 214.845 177.701 215.91 177.382C216.972 177.064 217.636 176.319 218.022 175.671L213.576 173.024ZM215.451 172.447C215.479 172.46 215.515 172.482 215.555 172.513C215.594 172.544 215.628 172.578 215.654 172.611L211.602 175.829C212.044 176.386 212.598 176.82 213.231 177.121L215.451 172.447ZM215.661 172.62C214.441 171.069 212.501 170.514 210.866 170.737C209.128 170.974 207.229 172.202 206.874 174.597L211.992 175.355C211.987 175.39 211.97 175.459 211.924 175.543C211.879 175.626 211.82 175.698 211.757 175.752C211.636 175.858 211.549 175.866 211.564 175.864C211.579 175.862 211.616 175.863 211.648 175.875C211.676 175.885 211.643 175.881 211.595 175.819L215.661 172.62ZM206.874 174.598C206.514 177.035 206.214 182.339 206.634 187.355C206.845 189.861 207.246 192.436 207.977 194.596C208.664 196.624 209.863 198.951 212.133 199.969L214.249 195.248C214.05 195.158 213.462 194.661 212.878 192.937C212.338 191.344 211.985 189.238 211.79 186.922C211.402 182.292 211.692 177.387 211.993 175.353L206.874 174.598ZM212.134 199.969C216.873 202.092 220.949 205.432 224.362 210.065L228.528 206.996C224.631 201.708 219.871 197.766 214.249 195.247L212.134 199.969ZM234.211 222.284C239.682 230.395 244.052 237.471 247.336 243.522L251.884 241.054C248.496 234.813 244.03 227.589 238.501 219.39L234.211 222.284ZM247.336 243.522C253.808 255.452 257.334 268.648 259.749 282.969L264.851 282.109C262.39 267.517 258.74 253.694 251.884 241.055L247.336 243.522ZM259.749 282.969C262.003 296.353 263.238 310.602 263.45 325.722L268.623 325.65C268.408 310.295 267.153 295.78 264.851 282.11L259.749 282.969ZM263.45 325.723C263.989 364.001 264.212 397.239 264.12 425.438L269.294 425.455C269.386 397.218 269.163 363.949 268.623 325.65L263.45 325.723ZM264.12 425.438C264.098 432.114 264.313 439.167 264.763 446.596L269.928 446.283C269.484 438.951 269.273 432.008 269.294 425.455L264.12 425.438ZM264.763 446.595C265.921 465.834 267.156 485.335 268.469 505.099L273.632 504.755C272.319 485.002 271.084 465.512 269.928 446.284L264.763 446.595ZM268.467 505.071C268.452 504.797 268.484 504.058 269.113 503.411C269.728 502.778 270.441 502.723 270.678 502.723V507.897C271.177 507.897 272.083 507.779 272.823 507.018C273.576 506.243 273.663 505.313 273.633 504.784L268.467 505.071ZM270.678 502.723L92.9484 502.734L92.9487 507.908L270.678 507.897L270.678 502.723ZM92.9486 502.734C93.1645 502.734 93.9803 502.787 94.6142 503.558C95.2263 504.303 95.1363 505.077 95.1109 505.239L89.9985 504.444C89.9235 504.926 89.8742 505.94 90.6176 506.844C91.3828 507.775 92.4205 507.908 92.9486 507.908V502.734ZM95.1093 505.25C97.4891 490.341 99.2468 477.744 100.457 461.644L95.2978 461.256C94.1023 477.157 92.3682 489.599 90.0001 504.434L95.1093 505.25ZM100.457 461.644C101.949 441.791 104.303 422.094 107.52 402.553L102.415 401.712C99.1733 421.404 96.801 441.252 95.2978 461.256L100.457 461.644ZM107.52 402.553C108.878 394.311 109.944 387.266 110.715 381.425L105.586 380.747C104.824 386.517 103.768 393.503 102.415 401.712L107.52 402.553ZM110.715 381.425C112.636 366.894 114.738 352.167 117.021 337.245L111.906 336.462C109.618 351.419 107.512 366.18 105.586 380.747L110.715 381.425ZM124.418 299.941C127.253 284.413 132.55 269.579 139.594 256.296L135.024 253.872C127.739 267.608 122.262 282.944 119.328 299.012L124.418 299.941ZM139.596 256.293C142.335 251.113 145.152 245.791 148.048 240.327L143.476 237.904C140.58 243.37 137.762 248.693 135.022 253.875L139.596 256.293ZM148.047 240.328C149.63 237.344 151.553 235.247 154.062 232.653L150.343 229.056C147.806 231.679 145.428 234.223 143.476 237.904L148.047 240.328ZM154.059 232.656C154.971 231.716 155.549 230.504 155.708 229.205L150.572 228.578C150.55 228.759 150.47 228.925 150.345 229.054L154.059 232.656ZM155.708 229.205C155.866 227.906 155.597 226.591 154.941 225.46L150.464 228.052C150.557 228.213 150.594 228.397 150.572 228.578L155.708 229.205ZM154.941 225.459C153.563 223.083 152.074 220.742 150.474 218.436L146.223 221.386C147.746 223.579 149.159 225.802 150.465 228.054L154.941 225.459ZM135.065 184.048C133.669 180.089 132.642 176.331 131.974 172.774L126.889 173.728C127.612 177.58 128.714 181.594 130.185 185.768L135.065 184.048ZM131.974 172.777C131.045 167.792 129.933 163.836 128.569 161.068L123.928 163.355C124.977 165.484 125.986 168.888 126.888 173.725L131.974 172.777ZM128.568 161.067C124.653 153.13 118.461 147.324 110.109 143.69L108.045 148.434C115.32 151.6 120.576 156.56 123.928 163.356L128.568 161.067ZM110.105 143.688C105.009 141.481 99.8749 139.256 94.7014 137.014L92.6436 141.761C97.8176 144.004 102.953 146.229 108.049 148.436L110.105 143.688ZM94.7019 137.014C92.5067 136.062 91.1423 134.476 90.5004 132.034L85.4963 133.349C86.5293 137.279 88.9477 140.158 92.6431 141.761L94.7019 137.014ZM90.499 132.028C90.4013 131.66 90.5077 130.713 91.2477 129.116C91.92 127.666 92.8502 126.223 93.5839 125.096L89.2473 122.274C88.5332 123.371 87.4035 125.107 86.5535 126.94C85.7711 128.628 84.8928 131.072 85.4977 133.354L90.499 132.028ZM97.0609 103.803C96.5747 102.36 96.7891 101.551 97.1992 100.972L92.9775 97.9811C91.3862 100.227 91.2813 102.853 92.1577 105.455L97.0609 103.803ZM94.7498 86.2907C94.5026 85.8389 94.4499 85.5306 94.4467 85.3407C94.4435 85.1544 94.4856 84.9602 94.6078 84.7277C94.8871 84.1964 95.5477 83.5467 96.6533 82.8906L94.0131 78.441C92.5532 79.3073 90.9516 80.5631 90.0279 82.3206C89.0077 84.2616 88.9753 86.5157 90.2106 88.7738L94.7498 86.2907ZM96.6507 82.8921C103.083 79.0856 109.176 76.3191 114.932 74.5594L113.42 69.6115C107.196 71.5139 100.727 74.4676 94.0157 78.4395L96.6507 82.8921ZM114.914 74.565C116.16 74.1941 117.276 73.5524 118.248 72.6786L114.789 68.8309C114.355 69.2203 113.909 69.4657 113.438 69.6059L114.914 74.565ZM118.247 72.6789C118.814 72.1695 119.251 71.5325 119.522 70.8206L114.687 68.9789C114.709 68.9223 114.743 68.8713 114.789 68.8306L118.247 72.6789ZM119.522 70.8206C119.793 70.1087 119.891 69.343 119.807 68.5868L114.665 69.1531C114.658 69.0953 114.665 69.0355 114.687 68.9789L119.522 70.8206ZM119.807 68.5868C119.724 67.8306 119.463 67.1055 119.045 66.4706L114.721 69.3116C114.691 69.265 114.671 69.2109 114.665 69.1531L119.807 68.5868ZM119.045 66.4706C118.628 65.8356 118.067 65.3083 117.407 64.9315L114.841 69.424C114.793 69.3966 114.752 69.3582 114.721 69.3116L119.045 66.4706ZM114.757 51.9401C114.813 52.0327 114.868 52.1611 114.896 52.3159C114.924 52.4699 114.916 52.6012 114.899 52.6917L109.812 51.7496C109.628 52.745 109.801 53.7484 110.337 54.6303L114.757 51.9401ZM114.896 52.7119C115.106 51.6259 115.624 50.7975 116.531 50.1221L113.44 45.973C111.507 47.4125 110.273 49.3661 109.816 51.7294L114.896 52.7119ZM116.521 50.129C117.362 49.5083 117.901 48.623 118.077 47.6051L112.979 46.7228C112.998 46.6109 113.045 46.4623 113.14 46.3073C113.236 46.1518 113.35 46.0391 113.449 45.9661L116.521 50.129ZM118.072 47.6344C118.731 44.0726 120.178 40.6755 122.457 37.4301L118.223 34.4568C115.548 38.2659 113.788 42.3491 112.984 46.6935L118.072 47.6344ZM127.335 27.1585C132.221 25.4773 136.363 23.218 139.687 20.3312L136.294 16.425C133.571 18.7901 130.048 20.7535 125.651 22.266L127.335 27.1585ZM153.017 17.525C154.858 17.3456 156.726 16.6611 158.59 15.6254L156.077 11.1026C154.62 11.9122 153.442 12.2851 152.516 12.3754L153.017 17.525ZM158.589 15.6256C161.731 13.8809 165.353 13.1658 169.559 13.5755L170.061 8.42588C164.941 7.92715 160.246 8.78759 156.078 11.1024L158.589 15.6256ZM169.557 13.5752C173.987 14.0117 178.227 14.1446 182.272 13.9684L182.047 8.79938C178.271 8.96385 174.277 8.84127 170.064 8.42615L169.557 13.5752ZM182.456 13.9537C184.765 13.6866 186.7 13.8347 188.313 14.3118L189.781 9.35028C187.363 8.63507 184.706 8.48504 181.862 8.81408L182.456 13.9537ZM188.308 14.3101C189.502 14.6664 190.732 14.4449 191.727 13.6825L188.581 9.57502C188.7 9.48387 188.897 9.37447 189.162 9.32609C189.426 9.2778 189.647 9.31052 189.786 9.35196L188.308 14.3101ZM191.746 13.6681C191.751 13.6637 191.755 13.6612 191.757 13.6598C191.759 13.6585 191.761 13.6579 191.761 13.6576C191.762 13.6573 191.763 13.657 191.764 13.6564C191.766 13.6559 191.769 13.6548 191.774 13.6534L190.472 8.64597C189.773 8.82776 189.13 9.14638 188.562 9.58941L191.746 13.6681ZM191.766 13.6554C191.614 13.6944 191.188 13.7577 190.688 13.5196C190.193 13.2837 189.981 12.9204 189.922 12.7958L194.602 10.5895C194.309 9.9681 193.789 9.26592 192.915 8.84903C192.035 8.42992 191.156 8.47018 190.479 8.644L191.766 13.6554ZM189.919 12.7887L190.227 13.4488L194.914 11.2566L194.605 10.5965L189.919 12.7887ZM190.22 13.4338C190.772 14.6334 191.858 15.3956 193.167 15.5145L193.635 10.3618C193.82 10.3786 194.104 10.4482 194.391 10.651C194.679 10.854 194.842 11.0993 194.921 11.2716L190.22 13.4338ZM193.145 15.5124C194.279 15.6254 195.758 15.4955 196.912 14.4118C198.069 13.3255 198.289 11.8557 198.243 10.7144L193.073 10.925C193.081 11.1154 193.057 11.1502 193.077 11.085C193.102 11.0018 193.181 10.8179 193.371 10.6395C193.561 10.4614 193.747 10.3954 193.828 10.3764C193.89 10.3615 193.85 10.3831 193.657 10.3639L193.145 15.5124ZM197.277 12.8372L200.513 10.2397L197.275 6.20465L194.039 8.80219L197.277 12.8372ZM200.545 10.214C200.123 10.5639 199.584 10.7411 199.036 10.7102L199.329 5.54447C198.572 5.50163 197.827 5.74663 197.243 6.23026L200.545 10.214ZM199.036 10.7102C198.489 10.6792 197.973 10.4423 197.593 10.047L201.323 6.46119C200.798 5.91479 200.085 5.5873 199.329 5.54447L199.036 10.7102ZM197.607 10.0606L198.032 10.4971L201.736 6.88403L201.31 6.44755L197.607 10.0606ZM198.023 10.4875C197.988 10.4512 197.22 9.68711 197.475 8.44363C197.732 7.18352 198.758 6.78504 198.816 6.76151L200.76 11.5564C201.081 11.4264 202.254 10.8967 202.544 9.48042C202.83 8.08081 201.979 7.13572 201.745 6.89366L198.023 10.4875ZM198.836 6.75358C197.67 7.21531 196.714 7.98615 195.992 8.99441L200.199 12.0062C200.372 11.7654 200.544 11.642 200.74 11.5644L198.836 6.75358ZM195.996 8.98874C195.655 9.46283 195.167 10.3846 195.428 11.5472C195.689 12.7075 196.523 13.3311 197.031 13.6134L199.544 9.09055C199.669 9.15995 200.279 9.53509 200.476 10.4115C200.674 11.2903 200.281 11.8927 200.195 12.0119L195.996 8.98874ZM197.051 13.6243C198.072 14.1798 199.384 14.4498 200.723 13.8914C201.934 13.3864 202.699 12.3895 203.187 11.496L198.647 9.01495C198.548 9.19522 198.486 9.264 198.481 9.26974C198.479 9.2717 198.558 9.18847 198.731 9.11598C198.919 9.03769 199.126 9.01072 199.31 9.03007C199.476 9.04765 199.553 9.09536 199.524 9.0797L197.051 13.6243ZM152.52 12.375C151.622 12.461 150.682 12.5199 149.677 12.5826L149.999 17.7465C150.988 17.6848 152.015 17.621 153.013 17.5254L152.52 12.375ZM149.677 12.5826C147.583 12.7132 145.193 12.8573 142.927 13.3414C140.637 13.8304 138.278 14.7028 136.295 16.4244L139.686 20.3318C140.774 19.3873 142.207 18.7859 144.008 18.4012C145.832 18.0115 147.829 17.8819 149.999 17.7465L149.677 12.5826ZM125.648 22.2673C123.502 23.0093 122.187 24.5453 121.342 26.1131C120.536 27.6062 120.051 29.3326 119.661 30.6903L124.633 32.1204C125.061 30.6351 125.404 29.4797 125.895 28.5694C126.346 27.7338 126.796 27.3447 127.338 27.1572L125.648 22.2673ZM119.661 30.6903C119.141 32.4998 118.77 33.6819 118.227 34.451L122.453 37.4358C123.604 35.8061 124.186 33.6767 124.633 32.1204L119.661 30.6903ZM110.336 54.6287C110.422 54.7691 110.434 54.8462 110.438 54.8825C110.443 54.929 110.444 55.0246 110.395 55.2034C110.273 55.6487 109.984 56.1693 109.441 57.084L113.889 59.7262C114.344 58.9612 115.042 57.82 115.384 56.5743C115.772 55.1632 115.734 53.5477 114.758 51.9417L110.336 54.6287ZM109.441 57.084C108.924 57.9537 108.079 59.3213 107.776 60.8617C107.424 62.6489 107.805 64.497 109.222 66.2357L113.233 62.9674C112.966 62.6396 112.882 62.4188 112.852 62.2988C112.822 62.1827 112.815 62.052 112.853 61.8615C112.951 61.36 113.263 60.7803 113.889 59.7262L109.441 57.084ZM109.221 66.2353C110.433 67.723 112.36 68.3955 113.337 68.7737L115.205 63.9487C113.84 63.4202 113.405 63.1786 113.233 62.9678L109.221 66.2353ZM113.337 68.7737C114.026 69.0404 114.488 69.2246 114.852 69.4305L117.396 64.9251C116.644 64.5007 115.814 64.1845 115.205 63.9487L113.337 68.7737ZM90.2061 88.7656C91.1622 90.5284 92.6655 91.7142 93.6773 92.54L96.9489 88.5317C95.7987 87.5929 95.1439 87.0174 94.7542 86.2989L90.2061 88.7656ZM93.6773 92.54C94.2565 93.0127 94.7108 93.3867 95.1049 93.7835L98.7765 90.1381C98.1597 89.5169 97.4913 88.9744 96.9488 88.5317L93.6773 92.54ZM95.1077 93.7864C95.2411 93.9203 95.3076 94.0184 95.3398 94.0749C95.3703 94.1287 95.3776 94.1584 95.38 94.17C95.3827 94.1828 95.4019 94.2739 95.3238 94.5112C95.1239 95.1187 94.6084 95.8351 93.7738 96.9186L97.8726 100.076C98.5601 99.1836 99.7079 97.7409 100.238 96.1286C100.526 95.256 100.677 94.2221 100.444 93.1101C100.209 91.984 99.6227 90.9878 98.7737 90.1353L95.1077 93.7864ZM93.7738 96.9186C93.5207 97.2472 93.2351 97.6173 92.9769 97.9819L97.1998 100.971C97.3864 100.708 97.605 100.423 97.8726 100.076L93.7738 96.9186ZM92.1623 105.469C92.3035 105.88 92.2693 106.1 92.2055 106.303C92.1028 106.629 91.8965 106.98 91.4361 107.696L95.7887 110.493C96.6109 109.214 98.1493 106.976 97.0563 103.79L92.1623 105.469ZM91.4361 107.696C90.6623 108.9 89.2992 110.914 89.6922 113.87L94.821 113.188C94.7018 112.291 94.9905 111.735 95.7887 110.493L91.4361 107.696ZM89.6933 113.878C89.7185 114.063 89.7442 114.249 89.7696 114.432L94.8947 113.723C94.8692 113.539 94.8442 113.358 94.82 113.18L89.6933 113.878ZM89.7696 114.432C90.2481 117.89 90.48 120.385 89.249 122.271L93.5822 125.099C96.0572 121.305 95.308 116.71 94.8947 113.723L89.7696 114.432ZM130.184 185.765C130.439 186.492 130.693 187.218 130.947 187.944L135.831 186.235C135.577 185.509 135.322 184.781 135.066 184.051L130.184 185.765ZM130.947 187.944C134.986 199.485 139.008 211.023 146.226 221.389L150.472 218.433C143.723 208.741 139.907 197.884 135.831 186.235L130.947 187.944ZM119.328 299.011C118.396 304.11 117.31 309.156 116.209 314.275L121.267 315.364C122.365 310.258 123.469 305.133 124.418 299.942L119.328 299.011ZM116.209 314.275C114.659 321.477 113.079 328.816 111.906 336.461L117.021 337.246C118.166 329.778 119.712 322.587 121.267 315.364L116.209 314.275ZM238.504 219.395C236.767 216.809 234.754 214.479 232.856 212.277L228.938 215.656C230.869 217.896 232.674 219.995 234.208 222.279L238.504 219.395ZM232.856 212.277C231.32 210.496 229.856 208.795 228.526 206.994L224.364 210.067C225.829 212.052 227.423 213.899 228.938 215.656L232.856 212.277ZM234.258 147.337C241.39 137.618 248.909 127.978 256.253 118.564L252.174 115.382C244.838 124.786 237.271 134.485 230.087 144.276L234.258 147.337ZM256.253 118.564C259.262 114.708 262.241 110.889 265.146 107.125L261.05 103.964C258.155 107.716 255.184 111.524 252.174 115.382L256.253 118.564ZM270.263 75.441C270.636 74.5813 270.621 73.7057 270.559 73.1072C270.492 72.4584 270.331 71.7982 270.143 71.1885C269.767 69.9654 269.19 68.6404 268.626 67.4689C268.054 66.2813 267.457 65.1734 267.006 64.3675C266.779 63.9628 266.588 63.6303 266.451 63.3972C266.383 63.2805 266.329 63.1885 266.291 63.1246C266.272 63.0926 266.257 63.0676 266.247 63.05C266.241 63.0413 266.237 63.0343 266.234 63.0293C266.233 63.0268 266.231 63.0248 266.23 63.0232C266.23 63.0224 266.23 63.0218 266.229 63.0212C266.229 63.021 266.229 63.0206 266.229 63.0205C266.229 63.0202 266.228 63.02 264.014 64.3567C261.799 65.6934 261.799 65.6932 261.798 65.693C261.798 65.693 261.798 65.6929 261.798 65.6929C261.798 65.6928 261.798 65.6929 261.798 65.6931C261.799 65.6934 261.799 65.6943 261.8 65.6956C261.802 65.6982 261.804 65.7027 261.808 65.709C261.816 65.7216 261.827 65.7415 261.843 65.7682C261.875 65.8216 261.923 65.9023 261.984 66.0069C262.106 66.2163 262.282 66.5207 262.49 66.8935C262.909 67.6426 263.453 68.6521 263.965 69.7141C264.484 70.7922 264.933 71.8488 265.198 72.7094C265.331 73.1415 265.393 73.4485 265.413 73.6388C265.438 73.8793 265.372 73.7143 265.516 73.3833L270.263 75.441ZM265.561 73.2846C265.547 73.3148 265.532 73.3447 265.518 73.3743L270.195 75.5871C270.203 75.5709 270.21 75.5551 270.218 75.5396L265.561 73.2846Z" fill="white" mask="url(#path-2-inside-1_1621_3749)"/>
</g>
</svg>
