<svg width="285" height="88" viewBox="0 0 285 88" fill="none" xmlns="http://www.w3.org/2000/svg">
<path d="M40.5805 51.1385H40.8148C42.3357 51.1385 45.4919 47.2791 41.3982 45.4093L40.695 45.0604C45.0232 31.6177 49.8148 18.0604 52.8513 5.66976C52.9711 5.3208 51.5648 1.46143 49.5805 1.46143C48.7627 1.46143 48.0596 2.04476 47.2419 3.09684C38.1273 16.5396 27.8409 29.2791 18.0232 42.1385C10.1898 42.4875 3.41379 44.0083 2.01275 47.2791C0.257538 51.0187 3.41379 57.9146 3.05962 63.5239L0.257537 67.9666C-0.560171 69.3677 1.18983 72.5239 2.47629 72.5239C2.71066 72.5239 2.83045 72.4093 3.17941 72.175C6.57004 64.576 12.0596 56.2791 18.4919 47.3989C23.2836 47.6281 28.3096 48.3312 32.7471 49.1489C29.4763 59.201 25.8513 69.7218 23.8669 79.8885C23.1638 82.576 26.32 87.7218 27.9555 87.7218C28.3096 87.7218 28.544 87.4875 28.7784 86.7843C31.1117 74.3937 34.8513 62.4718 38.8252 50.55C39.4138 50.6698 39.9971 50.9041 40.5805 51.1385ZM34.6221 43.425C30.8773 42.7218 26.5544 42.2531 22.1117 42.1385C29.1273 32.9041 36.4919 23.3208 43.0336 13.9666C40.3461 23.6698 37.4242 33.4875 34.6221 43.425ZM7.8565 47.8625C9.72629 47.5135 11.8305 47.3989 14.1638 47.3989C11.1273 51.4875 8.20545 55.6958 5.28358 60.0187C5.28358 59.6698 5.16379 59.4354 5.16379 59.0864C4.46587 53.826 1.77837 49.1489 7.8565 47.8625Z" fill="black"/>
<path d="M59.6323 36.4093C59.2781 35.9405 58.6948 35.477 58.2261 35.0082C59.8615 32.3207 61.1479 29.7478 61.9656 27.5291C62.6688 25.5395 61.8511 20.2791 59.1636 20.5134C54.2521 20.8624 48.7625 29.6332 54.6063 35.477C50.9813 41.5551 46.8927 49.3832 44.3198 52.8884C44.2 53.1228 44.3198 54.2947 45.1375 54.2947C45.3719 54.2947 45.7208 54.1749 46.424 53.7062C49.1115 50.3207 51.5646 44.9405 56.5906 37.5812C56.9396 38.0447 57.2938 38.5134 57.4083 38.8624C60.0958 44.0082 45.2521 62.1228 45.4865 71.0082C45.4865 73.6957 46.7729 78.0187 50.1636 78.0187C50.5125 78.0187 50.7469 77.9041 51.0958 77.7843C57.2938 74.7478 70.3823 53.4718 72.0177 51.253C72.2521 50.9041 72.0177 50.3207 71.5542 50.0864C71.3198 49.9666 71.2 49.852 70.9656 49.852C70.7313 49.852 70.6167 49.9666 70.2677 50.2009C67.5802 53.8259 54.1375 74.5134 50.7469 73.9301C52.6167 67.1489 59.7469 54.9926 61.3823 50.4353C63.1375 46.1124 64.5386 39.5655 59.6323 36.4093ZM58.8146 25.4249C59.3979 25.4249 59.5125 26.1228 58.8146 27.9926C58.3458 29.5134 57.5281 31.1489 56.7104 32.4353C54.6063 29.6332 57.7625 25.4249 58.8146 25.4249Z" fill="black"/>
<path d="M67.1097 72.2897C70.5004 72.2897 78.5628 60.6022 80.1983 57.9147L80.0837 58.6178C79.6149 61.6543 79.3806 65.5137 81.4847 67.7324C82.3024 68.4355 83.2399 68.9043 84.0576 68.9043C90.2504 68.9043 99.6045 53.5918 101.938 50.321C101.709 49.3835 101.24 48.9147 100.657 48.9147C100.537 48.9147 100.422 49.0345 100.422 49.0345C99.8337 49.8522 89.7868 64.2272 86.7451 64.2272C86.5108 64.2272 86.2764 64.1126 86.1618 63.8783C85.9274 63.2949 86.042 62.123 86.3962 60.2533C87.4483 56.1647 90.9535 49.1491 91.6566 47.9824C92.7087 46.2272 89.7868 45.1751 87.7972 45.1751C85.2243 45.1751 82.891 49.6178 82.0681 51.6022C77.7451 57.5658 70.7347 67.2689 69.0941 67.1491C66.7608 65.2793 78.0941 44.9408 80.9014 42.373C80.5524 40.3835 78.7972 38.5137 76.9274 38.5137C76.1097 38.5137 75.1722 38.8626 74.4743 39.9147C69.0941 46.5762 57.7608 68.4355 65.3545 71.8262C65.9431 72.0605 66.5264 72.2897 67.1097 72.2897Z" fill="black"/>
<path d="M124.03 40.6178C122.859 39.4512 121.343 38.9824 119.822 38.9824C118.187 39.5658 100.655 62.8262 98.7804 65.6283C99.9523 63.4095 101.239 61.6543 102.171 59.5501C105.447 53.2428 105.447 53.9408 108.718 47.6283C109.421 46.4616 109.885 45.8783 108.952 44.8262L108.718 44.5918C107.666 43.5397 106.145 42.9564 104.744 42.9564C102.989 42.9564 102.171 43.3053 101.473 44.9408C97.0304 53.8262 95.6294 55.347 92.3533 64.696C91.1867 68.3158 91.77 70.5397 95.1606 72.1751C95.7439 72.4095 96.3273 72.7585 96.6814 72.7585C97.3794 72.7585 97.7335 72.2897 98.1971 71.472C103.577 63.2949 109.65 55.5762 115.848 47.9824C113.395 52.3053 105.796 69.1387 113.859 70.8887C114.213 71.0085 114.447 71.0085 114.796 71.0085C121.457 71.0085 131.161 57.9147 134.666 52.8887C135.249 51.8366 135.952 51.0189 136.301 50.4355C136.067 49.6178 135.484 49.1491 135.135 49.1491C135.015 49.1491 134.9 49.2689 134.9 49.2689C134.666 49.6178 133.145 51.4876 131.395 53.9408L131.161 54.2949L131.041 54.4095C127.885 58.2689 122.51 66.097 117.952 66.8001C112.806 67.3835 123.213 47.5137 124.494 44.5918L124.614 44.2428C125.197 42.8366 125.197 41.5553 124.03 40.6178Z" fill="black"/>
<path d="M183.87 15.7217C182 15.7217 179.428 17.1227 176.391 22.0342C171.829 29.3988 163.532 43.4248 157.573 56.7477C154.532 56.6279 151.844 56.0446 149.271 54.7581C149.037 54.5238 148.808 54.4092 148.573 54.4092C147.521 54.4092 146.818 55.5758 147.521 56.279C149.74 58.2686 152.782 59.4352 156.287 59.904C150.323 73.3415 147.401 85.4977 153.829 87.3675C154.063 87.3675 155.235 87.2529 154.766 86.3154C152.547 83.0446 156.75 71.8259 162.948 59.5498C176.974 57.5654 194.74 46.2269 201.985 32.3206C206.193 24.4873 207.245 17.7113 205.724 12.5654C203.037 4.03418 196.375 0.87793 188.428 0.87793C175.922 0.87793 160.261 9.06022 153.011 17.4769C145.297 26.2425 142.73 37.1123 151.61 44.4769C151.959 44.8258 152.428 44.9404 152.662 44.9404C152.896 44.9404 153.131 44.9404 153.245 44.7061C153.829 44.1227 153.48 43.654 152.896 43.1904C137.704 30.68 169.844 6.6071 188.662 6.6071C193.803 6.6071 198.011 8.47689 199.881 12.9144C204.907 25.305 183.985 50.2008 164.818 55.5758C173.349 39.4508 184.339 22.2686 188.193 18.529C188.193 18.529 186.558 15.7217 183.87 15.7217Z" fill="black"/>
<path d="M215.423 64.1126C215.189 63.4095 215.309 62.2428 215.892 60.3678C216.361 57.5658 217.876 52.4251 220.215 50.5501C221.152 49.9668 221.033 49.8522 220.335 49.0345C219.163 47.6283 217.876 47.0449 216.71 47.0449C216.241 47.0449 215.777 47.1647 215.189 47.3991C216.126 44.0085 216.71 40.2689 214.137 37.4616C213.439 36.7585 212.387 36.0605 211.215 36.0605C209.928 36.0605 208.527 36.7585 206.892 38.1647C199.882 43.8887 186.788 67.3835 196.022 71.5918C196.725 71.9408 197.189 72.1751 197.892 72.1751C198.126 72.1751 198.361 72.0605 198.595 72.0605C201.751 70.6543 205.96 63.7585 209.465 58.0345C209.465 58.2689 209.465 58.3835 209.345 58.7324C208.882 61.8887 208.527 65.748 210.866 67.9668C211.569 68.6699 212.387 69.1387 213.439 69.1387C219.751 69.1387 229.215 53.7064 231.553 50.321C231.205 49.0345 230.85 49.0345 229.918 49.0345C229.335 49.8522 219.163 64.4616 216.126 64.4616C215.892 64.4616 215.658 64.3418 215.423 64.1126ZM210.632 44.2428C211.569 43.4251 212.267 42.8366 212.856 42.8366C213.788 42.8366 214.022 44.7064 213.553 48.5658C212.501 49.3835 211.918 50.5501 211.335 51.722C207.007 57.6803 201.517 66.9147 199.762 66.9147C198.126 65.5137 206.074 49.1491 210.632 44.2428Z" fill="black"/>
<path d="M218.23 33.8364H218.464C224.188 33.2531 229.917 32.6698 235.761 32.3208C229.448 45.0604 222.553 62.9406 220.568 70.8885C219.751 73.576 218.813 80.826 223.021 80.9406C224.657 69.0187 235.641 45.7583 243.943 31.8521C248.969 31.6177 253.876 31.2687 258.667 30.9146C261.823 30.5656 263.11 25.3052 260.657 25.425C256.334 26.0083 251.657 26.7062 246.98 27.175C248.615 24.6073 250.136 22.7375 251.308 21.6854C252.474 20.5135 250.719 17.4771 247.334 17.4771C246.631 17.4771 245.928 17.5916 244.995 17.9406C243.474 18.5291 240.787 22.7375 237.631 28.4614L218.11 31.1489C216.823 31.3833 217.058 33.8364 218.23 33.8364Z" fill="black"/>
<path d="M241.839 73.4614C250.136 73.4614 258.199 62.2427 262.527 56.2791C264.042 54.0604 265.214 52.3052 265.912 51.3729C265.912 50.4354 265.214 50.0864 264.746 50.0864C264.631 50.0864 264.511 50.0864 264.511 50.201C259.839 56.6281 250.136 69.6021 241.605 69.6021C238.214 69.2531 238.917 65.0448 240.902 60.2531C241.605 61.1906 242.891 61.6541 244.292 61.6541C248.266 61.5396 253.058 55.576 254.579 51.9562V51.7218C254.928 51.1385 255.042 50.4354 255.277 49.6177C255.98 45.8781 253.292 42.6021 249.667 42.6021C248.381 42.6021 246.98 42.9562 245.579 43.8885C238.329 48.6802 229.563 62.7062 236.459 71.0083C237.746 72.7583 239.615 73.4614 241.839 73.4614ZM251.423 47.2791C251.891 47.2791 252.24 47.3989 252.475 47.7479C252.709 48.3312 252.589 49.0343 252.355 49.9666C250.605 54.175 245.345 58.9666 243.006 58.9666C242.423 58.9666 242.074 58.7323 241.839 58.1489C244.761 52.6541 249.199 47.2791 251.423 47.2791Z" fill="black"/>
<path d="M284.145 24.1385C285.197 23.0864 282.744 20.1646 279.473 20.1646C277.249 20.1646 276.432 21.451 275.265 23.201C270.942 30.8 255.864 63.4093 254.577 74.6281C254.458 76.6177 255.046 80.9406 257.734 81.0604C259.603 67.0343 278.301 29.7479 284.145 24.1385Z" fill="black"/>
</svg>
