<svg width="285" height="88" viewBox="0 0 285 88" fill="none" xmlns="http://www.w3.org/2000/svg">
<path d="M40.5736 51.1385H40.808C42.3288 51.1385 45.4851 47.2791 41.3913 45.4093L40.6882 45.0604C45.0163 31.6177 49.808 18.0604 52.8445 5.66976C52.9642 5.3208 51.558 1.46143 49.5736 1.46143C48.7559 1.46143 48.0528 2.04476 47.2351 3.09684C38.1205 16.5396 27.834 29.2791 18.0163 42.1385C10.183 42.4875 3.40695 44.0083 2.00591 47.2791C0.250702 51.0187 3.40695 57.9146 3.05278 63.5239L0.250702 67.9666C-0.567007 69.3677 1.18299 72.5239 2.46945 72.5239C2.70383 72.5239 2.82362 72.4093 3.17258 72.175C6.5632 64.576 12.0528 56.2791 18.4851 47.3989C23.2767 47.6281 28.3028 48.3312 32.7403 49.1489C29.4695 59.201 25.8445 69.7218 23.8601 79.8885C23.157 82.576 26.3132 87.7218 27.9486 87.7218C28.3028 87.7218 28.5372 87.4875 28.7715 86.7843C31.1049 74.3937 34.8445 62.4718 38.8184 50.55C39.407 50.6698 39.9903 50.9041 40.5736 51.1385ZM34.6153 43.425C30.8705 42.7218 26.5476 42.2531 22.1049 42.1385C29.1205 32.9041 36.4851 23.3208 43.0267 13.9666C40.3392 23.6698 37.4174 33.4875 34.6153 43.425ZM7.84966 47.8625C9.71945 47.5135 11.8236 47.3989 14.157 47.3989C11.1205 51.4875 8.19862 55.6958 5.27674 60.0187C5.27674 59.6698 5.15695 59.4354 5.15695 59.0864C4.45903 53.826 1.77153 49.1489 7.84966 47.8625Z" fill="white"/>
<path d="M59.6255 36.4093C59.2713 35.9405 58.688 35.477 58.2192 35.0082C59.8546 32.3207 61.1411 29.7478 61.9588 27.5291C62.6619 25.5395 61.8442 20.2791 59.1567 20.5134C54.2453 20.8624 48.7557 29.6332 54.5994 35.477C50.9744 41.5551 46.8859 49.3832 44.313 52.8884C44.1932 53.1228 44.313 54.2947 45.1307 54.2947C45.3651 54.2947 45.714 54.1749 46.4171 53.7062C49.1046 50.3207 51.5578 44.9405 56.5838 37.5812C56.9328 38.0447 57.2869 38.5134 57.4015 38.8624C60.089 44.0082 45.2453 62.1228 45.4796 71.0082C45.4796 73.6957 46.7661 78.0187 50.1567 78.0187C50.5057 78.0187 50.7401 77.9041 51.089 77.7843C57.2869 74.7478 70.3755 53.4718 72.0109 51.253C72.2453 50.9041 72.0109 50.3207 71.5473 50.0864C71.313 49.9666 71.1932 49.852 70.9588 49.852C70.7244 49.852 70.6098 49.9666 70.2609 50.2009C67.5734 53.8259 54.1307 74.5134 50.7401 73.9301C52.6098 67.1489 59.7401 54.9926 61.3755 50.4353C63.1307 46.1124 64.5317 39.5655 59.6255 36.4093ZM58.8078 25.4249C59.3911 25.4249 59.5057 26.1228 58.8078 27.9926C58.339 29.5134 57.5213 31.1489 56.7036 32.4353C54.5994 29.6332 57.7557 25.4249 58.8078 25.4249Z" fill="white"/>
<path d="M67.1029 72.2897C70.4935 72.2897 78.556 60.6022 80.1914 57.9147L80.0768 58.6178C79.6081 61.6543 79.3737 65.5137 81.4779 67.7324C82.2956 68.4355 83.2331 68.9043 84.0508 68.9043C90.2435 68.9043 99.5977 53.5918 101.931 50.321C101.702 49.3835 101.233 48.9147 100.65 48.9147C100.53 48.9147 100.415 49.0345 100.415 49.0345C99.8268 49.8522 89.78 64.2272 86.7383 64.2272C86.5039 64.2272 86.2696 64.1126 86.155 63.8783C85.9206 63.2949 86.0352 62.123 86.3893 60.2533C87.4414 56.1647 90.9466 49.1491 91.6498 47.9824C92.7018 46.2272 89.78 45.1751 87.7904 45.1751C85.2175 45.1751 82.8841 49.6178 82.0612 51.6022C77.7383 57.5658 70.7279 67.2689 69.0873 67.1491C66.7539 65.2793 78.0873 44.9408 80.8946 42.373C80.5456 40.3835 78.7904 38.5137 76.9206 38.5137C76.1029 38.5137 75.1654 38.8626 74.4675 39.9147C69.0873 46.5762 57.7539 68.4355 65.3477 71.8262C65.9362 72.0605 66.5196 72.2897 67.1029 72.2897Z" fill="white"/>
<path d="M124.024 40.6178C122.852 39.4512 121.336 38.9824 119.815 38.9824C118.18 39.5658 100.649 62.8262 98.7736 65.6283C99.9454 63.4095 101.232 61.6543 102.164 59.5501C105.44 53.2428 105.44 53.9408 108.711 47.6283C109.414 46.4616 109.878 45.8783 108.945 44.8262L108.711 44.5918C107.659 43.5397 106.138 42.9564 104.737 42.9564C102.982 42.9564 102.164 43.3053 101.466 44.9408C97.0236 53.8262 95.6225 55.347 92.3465 64.696C91.1798 68.3158 91.7632 70.5397 95.1538 72.1751C95.7371 72.4095 96.3204 72.7585 96.6746 72.7585C97.3725 72.7585 97.7267 72.2897 98.1902 71.472C103.57 63.2949 109.643 55.5762 115.841 47.9824C113.388 52.3053 105.789 69.1387 113.852 70.8887C114.206 71.0085 114.44 71.0085 114.789 71.0085C121.451 71.0085 131.154 57.9147 134.659 52.8887C135.242 51.8366 135.945 51.0189 136.294 50.4355C136.06 49.6178 135.477 49.1491 135.128 49.1491C135.008 49.1491 134.893 49.2689 134.893 49.2689C134.659 49.6178 133.138 51.4876 131.388 53.9408L131.154 54.2949L131.034 54.4095C127.878 58.2689 122.503 66.097 117.945 66.8001C112.8 67.3835 123.206 47.5137 124.487 44.5918L124.607 44.2428C125.19 42.8366 125.19 41.5553 124.024 40.6178Z" fill="white"/>
<path d="M183.863 15.7217C181.994 15.7217 179.421 17.1227 176.384 22.0342C171.822 29.3988 163.525 43.4248 157.567 56.7477C154.525 56.6279 151.837 56.0446 149.264 54.7581C149.03 54.5238 148.801 54.4092 148.567 54.4092C147.514 54.4092 146.811 55.5758 147.514 56.279C149.733 58.2686 152.775 59.4352 156.28 59.904C150.317 73.3415 147.395 85.4977 153.822 87.3675C154.056 87.3675 155.228 87.2529 154.759 86.3154C152.54 83.0446 156.744 71.8259 162.942 59.5498C176.968 57.5654 194.733 46.2269 201.978 32.3206C206.186 24.4873 207.238 17.7113 205.718 12.5654C203.03 4.03418 196.369 0.87793 188.421 0.87793C175.915 0.87793 160.254 9.06022 153.004 17.4769C145.29 26.2425 142.723 37.1123 151.603 44.4769C151.952 44.8258 152.421 44.9404 152.655 44.9404C152.889 44.9404 153.124 44.9404 153.238 44.7061C153.822 44.1227 153.473 43.654 152.889 43.1904C137.697 30.68 169.837 6.6071 188.655 6.6071C193.796 6.6071 198.004 8.47689 199.874 12.9144C204.9 25.305 183.978 50.2008 164.811 55.5758C173.343 39.4508 184.332 22.2686 188.186 18.529C188.186 18.529 186.551 15.7217 183.863 15.7217Z" fill="white"/>
<path d="M215.416 64.1126C215.182 63.4095 215.302 62.2428 215.885 60.3678C216.354 57.5658 217.87 52.4251 220.208 50.5501C221.146 49.9668 221.026 49.8522 220.328 49.0345C219.156 47.6283 217.87 47.0449 216.703 47.0449C216.234 47.0449 215.771 47.1647 215.182 47.3991C216.12 44.0085 216.703 40.2689 214.13 37.4616C213.432 36.7585 212.38 36.0605 211.208 36.0605C209.922 36.0605 208.521 36.7585 206.885 38.1647C199.875 43.8887 186.781 67.3835 196.015 71.5918C196.719 71.9408 197.182 72.1751 197.885 72.1751C198.12 72.1751 198.354 72.0605 198.588 72.0605C201.745 70.6543 205.953 63.7585 209.458 58.0345C209.458 58.2689 209.458 58.3835 209.338 58.7324C208.875 61.8887 208.521 65.748 210.859 67.9668C211.562 68.6699 212.38 69.1387 213.432 69.1387C219.745 69.1387 229.208 53.7064 231.547 50.321C231.198 49.0345 230.844 49.0345 229.911 49.0345C229.328 49.8522 219.156 64.4616 216.12 64.4616C215.885 64.4616 215.651 64.3418 215.416 64.1126ZM210.625 44.2428C211.562 43.4251 212.26 42.8366 212.849 42.8366C213.781 42.8366 214.015 44.7064 213.547 48.5658C212.495 49.3835 211.911 50.5501 211.328 51.722C207 57.6803 201.51 66.9147 199.755 66.9147C198.12 65.5137 206.067 49.1491 210.625 44.2428Z" fill="white"/>
<path d="M218.223 33.8364H218.457C224.181 33.2531 229.91 32.6698 235.754 32.3208C229.442 45.0604 222.546 62.9406 220.561 70.8885C219.744 73.576 218.806 80.826 223.015 80.9406C224.65 69.0187 235.634 45.7583 243.936 31.8521C248.962 31.6177 253.869 31.2687 258.66 30.9146C261.817 30.5656 263.103 25.3052 260.65 25.425C256.327 26.0083 251.65 26.7062 246.973 27.175C248.608 24.6073 250.129 22.7375 251.301 21.6854C252.468 20.5135 250.712 17.4771 247.327 17.4771C246.624 17.4771 245.921 17.5916 244.988 17.9406C243.468 18.5291 240.78 22.7375 237.624 28.4614L218.103 31.1489C216.817 31.3833 217.051 33.8364 218.223 33.8364Z" fill="white"/>
<path d="M241.832 73.4614C250.129 73.4614 258.192 62.2427 262.52 56.2791C264.036 54.0604 265.207 52.3052 265.905 51.3729C265.905 50.4354 265.207 50.0864 264.739 50.0864C264.624 50.0864 264.504 50.0864 264.504 50.201C259.832 56.6281 250.129 69.6021 241.598 69.6021C238.207 69.2531 238.911 65.0448 240.895 60.2531C241.598 61.1906 242.885 61.6541 244.286 61.6541C248.26 61.5396 253.051 55.576 254.572 51.9562V51.7218C254.921 51.1385 255.036 50.4354 255.27 49.6177C255.973 45.8781 253.286 42.6021 249.661 42.6021C248.374 42.6021 246.973 42.9562 245.572 43.8885C238.322 48.6802 229.556 62.7062 236.452 71.0083C237.739 72.7583 239.609 73.4614 241.832 73.4614ZM251.416 47.2791C251.885 47.2791 252.234 47.3989 252.468 47.7479C252.702 48.3312 252.582 49.0343 252.348 49.9666C250.598 54.175 245.338 58.9666 242.999 58.9666C242.416 58.9666 242.067 58.7323 241.832 58.1489C244.754 52.6541 249.192 47.2791 251.416 47.2791Z" fill="white"/>
<path d="M284.138 24.1385C285.19 23.0864 282.737 20.1646 279.466 20.1646C277.242 20.1646 276.425 21.451 275.258 23.201C270.935 30.8 255.857 63.4093 254.571 74.6281C254.451 76.6177 255.039 80.9406 257.727 81.0604C259.597 67.0343 278.295 29.7479 284.138 24.1385Z" fill="white"/>
</svg>
