<svg width="1925" height="106" viewBox="0 0 1925 106" fill="none" xmlns="http://www.w3.org/2000/svg">
<rect width="1925" height="80" transform="translate(0 13)" fill="#1D244C"/>
<circle cx="12.5" cy="13" r="12.5" fill="#1D244C"/>
<circle cx="37.5" cy="13" r="12.5" fill="#1D244C"/>
<circle cx="62.5" cy="13" r="12.5" fill="#1D244C"/>
<circle cx="87.5" cy="13" r="12.5" fill="#1D244C"/>
<circle cx="112.5" cy="13" r="12.5" fill="#1D244C"/>
<circle cx="137.5" cy="13" r="12.5" fill="#1D244C"/>
<circle cx="162.5" cy="13" r="12.5" fill="#1D244C"/>
<circle cx="187.5" cy="13" r="12.5" fill="#1D244C"/>
<circle cx="212.5" cy="13" r="12.5" fill="#1D244C"/>
<circle cx="237.5" cy="13" r="12.5" fill="#1D244C"/>
<circle cx="262.5" cy="13" r="12.5" fill="#1D244C"/>
<circle cx="287.5" cy="13" r="12.5" fill="#1D244C"/>
<circle cx="312.5" cy="13" r="12.5" fill="#1D244C"/>
<circle cx="337.5" cy="13" r="12.5" fill="#1D244C"/>
<circle cx="362.5" cy="13" r="12.5" fill="#1D244C"/>
<circle cx="387.5" cy="13" r="12.5" fill="#1D244C"/>
<circle cx="412.5" cy="13" r="12.5" fill="#1D244C"/>
<circle cx="437.5" cy="13" r="12.5" fill="#1D244C"/>
<circle cx="462.5" cy="13" r="12.5" fill="#1D244C"/>
<circle cx="487.5" cy="13" r="12.5" fill="#1D244C"/>
<circle cx="512.5" cy="13" r="12.5" fill="#1D244C"/>
<circle cx="537.5" cy="13" r="12.5" fill="#1D244C"/>
<circle cx="562.5" cy="13" r="12.5" fill="#1D244C"/>
<circle cx="587.5" cy="13" r="12.5" fill="#1D244C"/>
<circle cx="612.5" cy="13" r="12.5" fill="#1D244C"/>
<circle cx="637.5" cy="13" r="12.5" fill="#1D244C"/>
<circle cx="662.5" cy="13" r="12.5" fill="#1D244C"/>
<circle cx="687.5" cy="13" r="12.5" fill="#1D244C"/>
<circle cx="712.5" cy="13" r="12.5" fill="#1D244C"/>
<circle cx="737.5" cy="13" r="12.5" fill="#1D244C"/>
<circle cx="762.5" cy="13" r="12.5" fill="#1D244C"/>
<circle cx="787.5" cy="13" r="12.5" fill="#1D244C"/>
<circle cx="812.5" cy="13" r="12.5" fill="#1D244C"/>
<circle cx="837.5" cy="13" r="12.5" fill="#1D244C"/>
<circle cx="862.5" cy="13" r="12.5" fill="#1D244C"/>
<circle cx="887.5" cy="13" r="12.5" fill="#1D244C"/>
<circle cx="912.5" cy="13" r="12.5" fill="#1D244C"/>
<circle cx="937.5" cy="13" r="12.5" fill="#1D244C"/>
<circle cx="962.5" cy="13" r="12.5" fill="#1D244C"/>
<circle cx="987.5" cy="13" r="12.5" fill="#1D244C"/>
<circle cx="1012.5" cy="13" r="12.5" fill="#1D244C"/>
<circle cx="1037.5" cy="13" r="12.5" fill="#1D244C"/>
<circle cx="1062.5" cy="13" r="12.5" fill="#1D244C"/>
<circle cx="1087.5" cy="13" r="12.5" fill="#1D244C"/>
<circle cx="1112.5" cy="13" r="12.5" fill="#1D244C"/>
<circle cx="1137.5" cy="13" r="12.5" fill="#1D244C"/>
<circle cx="1162.5" cy="13" r="12.5" fill="#1D244C"/>
<circle cx="1187.5" cy="13" r="12.5" fill="#1D244C"/>
<circle cx="1212.5" cy="13" r="12.5" fill="#1D244C"/>
<circle cx="1237.5" cy="13" r="12.5" fill="#1D244C"/>
<circle cx="1262.5" cy="13" r="12.5" fill="#1D244C"/>
<circle cx="1287.5" cy="13" r="12.5" fill="#1D244C"/>
<circle cx="1312.5" cy="13" r="12.5" fill="#1D244C"/>
<circle cx="1337.5" cy="13" r="12.5" fill="#1D244C"/>
<circle cx="1362.5" cy="13" r="12.5" fill="#1D244C"/>
<circle cx="1387.5" cy="13" r="12.5" fill="#1D244C"/>
<circle cx="1412.5" cy="13" r="12.5" fill="#1D244C"/>
<circle cx="1437.5" cy="13" r="12.5" fill="#1D244C"/>
<circle cx="1462.5" cy="13" r="12.5" fill="#1D244C"/>
<circle cx="1487.5" cy="13" r="12.5" fill="#1D244C"/>
<circle cx="1512.5" cy="13" r="12.5" fill="#1D244C"/>
<circle cx="1537.5" cy="13" r="12.5" fill="#1D244C"/>
<circle cx="1562.5" cy="13" r="12.5" fill="#1D244C"/>
<circle cx="1587.5" cy="13" r="12.5" fill="#1D244C"/>
<circle cx="1612.5" cy="13" r="12.5" fill="#1D244C"/>
<circle cx="1637.5" cy="13" r="12.5" fill="#1D244C"/>
<circle cx="1662.5" cy="13" r="12.5" fill="#1D244C"/>
<circle cx="1687.5" cy="13" r="12.5" fill="#1D244C"/>
<circle cx="1712.5" cy="13" r="12.5" fill="#1D244C"/>
<circle cx="1737.5" cy="13" r="12.5" fill="#1D244C"/>
<circle cx="1762.5" cy="13" r="12.5" fill="#1D244C"/>
<circle cx="1787.5" cy="13" r="12.5" fill="#1D244C"/>
<circle cx="1812.5" cy="13" r="12.5" fill="#1D244C"/>
<circle cx="1837.5" cy="13" r="12.5" fill="#1D244C"/>
<circle cx="1862.5" cy="13" r="12.5" fill="#1D244C"/>
<circle cx="1887.5" cy="13" r="12.5" fill="#1D244C"/>
<circle cx="1912.5" cy="13" r="12.5" fill="#1D244C"/>
<circle cx="12.5" cy="93" r="12.5" fill="#1D244C"/>
<circle cx="37.5" cy="93" r="12.5" fill="#1D244C"/>
<circle cx="62.5" cy="93" r="12.5" fill="#1D244C"/>
<circle cx="87.5" cy="93" r="12.5" fill="#1D244C"/>
<circle cx="112.5" cy="93" r="12.5" fill="#1D244C"/>
<circle cx="137.5" cy="93" r="12.5" fill="#1D244C"/>
<circle cx="162.5" cy="93" r="12.5" fill="#1D244C"/>
<circle cx="187.5" cy="93" r="12.5" fill="#1D244C"/>
<circle cx="212.5" cy="93" r="12.5" fill="#1D244C"/>
<circle cx="237.5" cy="93" r="12.5" fill="#1D244C"/>
<circle cx="262.5" cy="93" r="12.5" fill="#1D244C"/>
<circle cx="287.5" cy="93" r="12.5" fill="#1D244C"/>
<circle cx="312.5" cy="93" r="12.5" fill="#1D244C"/>
<circle cx="337.5" cy="93" r="12.5" fill="#1D244C"/>
<circle cx="362.5" cy="93" r="12.5" fill="#1D244C"/>
<circle cx="387.5" cy="93" r="12.5" fill="#1D244C"/>
<circle cx="412.5" cy="93" r="12.5" fill="#1D244C"/>
<circle cx="437.5" cy="93" r="12.5" fill="#1D244C"/>
<circle cx="462.5" cy="93" r="12.5" fill="#1D244C"/>
<circle cx="487.5" cy="93" r="12.5" fill="#1D244C"/>
<circle cx="512.5" cy="93" r="12.5" fill="#1D244C"/>
<circle cx="537.5" cy="93" r="12.5" fill="#1D244C"/>
<circle cx="562.5" cy="93" r="12.5" fill="#1D244C"/>
<circle cx="587.5" cy="93" r="12.5" fill="#1D244C"/>
<circle cx="612.5" cy="93" r="12.5" fill="#1D244C"/>
<circle cx="637.5" cy="93" r="12.5" fill="#1D244C"/>
<circle cx="662.5" cy="93" r="12.5" fill="#1D244C"/>
<circle cx="687.5" cy="93" r="12.5" fill="#1D244C"/>
<circle cx="712.5" cy="93" r="12.5" fill="#1D244C"/>
<circle cx="737.5" cy="93" r="12.5" fill="#1D244C"/>
<circle cx="762.5" cy="93" r="12.5" fill="#1D244C"/>
<circle cx="787.5" cy="93" r="12.5" fill="#1D244C"/>
<circle cx="812.5" cy="93" r="12.5" fill="#1D244C"/>
<circle cx="837.5" cy="93" r="12.5" fill="#1D244C"/>
<circle cx="862.5" cy="93" r="12.5" fill="#1D244C"/>
<circle cx="887.5" cy="93" r="12.5" fill="#1D244C"/>
<circle cx="912.5" cy="93" r="12.5" fill="#1D244C"/>
<circle cx="937.5" cy="93" r="12.5" fill="#1D244C"/>
<circle cx="962.5" cy="93" r="12.5" fill="#1D244C"/>
<circle cx="987.5" cy="93" r="12.5" fill="#1D244C"/>
<circle cx="1012.5" cy="93" r="12.5" fill="#1D244C"/>
<circle cx="1037.5" cy="93" r="12.5" fill="#1D244C"/>
<circle cx="1062.5" cy="93" r="12.5" fill="#1D244C"/>
<circle cx="1087.5" cy="93" r="12.5" fill="#1D244C"/>
<circle cx="1112.5" cy="93" r="12.5" fill="#1D244C"/>
<circle cx="1137.5" cy="93" r="12.5" fill="#1D244C"/>
<circle cx="1162.5" cy="93" r="12.5" fill="#1D244C"/>
<circle cx="1187.5" cy="93" r="12.5" fill="#1D244C"/>
<circle cx="1212.5" cy="93" r="12.5" fill="#1D244C"/>
<circle cx="1237.5" cy="93" r="12.5" fill="#1D244C"/>
<circle cx="1262.5" cy="93" r="12.5" fill="#1D244C"/>
<circle cx="1287.5" cy="93" r="12.5" fill="#1D244C"/>
<circle cx="1312.5" cy="93" r="12.5" fill="#1D244C"/>
<circle cx="1337.5" cy="93" r="12.5" fill="#1D244C"/>
<circle cx="1362.5" cy="93" r="12.5" fill="#1D244C"/>
<circle cx="1387.5" cy="93" r="12.5" fill="#1D244C"/>
<circle cx="1412.5" cy="93" r="12.5" fill="#1D244C"/>
<circle cx="1437.5" cy="93" r="12.5" fill="#1D244C"/>
<circle cx="1462.5" cy="93" r="12.5" fill="#1D244C"/>
<circle cx="1487.5" cy="93" r="12.5" fill="#1D244C"/>
<circle cx="1512.5" cy="93" r="12.5" fill="#1D244C"/>
<circle cx="1537.5" cy="93" r="12.5" fill="#1D244C"/>
<circle cx="1562.5" cy="93" r="12.5" fill="#1D244C"/>
<circle cx="1587.5" cy="93" r="12.5" fill="#1D244C"/>
<circle cx="1612.5" cy="93" r="12.5" fill="#1D244C"/>
<circle cx="1637.5" cy="93" r="12.5" fill="#1D244C"/>
<circle cx="1662.5" cy="93" r="12.5" fill="#1D244C"/>
<circle cx="1687.5" cy="93" r="12.5" fill="#1D244C"/>
<circle cx="1712.5" cy="93" r="12.5" fill="#1D244C"/>
<circle cx="1737.5" cy="93" r="12.5" fill="#1D244C"/>
<circle cx="1762.5" cy="93" r="12.5" fill="#1D244C"/>
<circle cx="1787.5" cy="93" r="12.5" fill="#1D244C"/>
<circle cx="1812.5" cy="93" r="12.5" fill="#1D244C"/>
<circle cx="1837.5" cy="93" r="12.5" fill="#1D244C"/>
<circle cx="1862.5" cy="93" r="12.5" fill="#1D244C"/>
<circle cx="1887.5" cy="93" r="12.5" fill="#1D244C"/>
<circle cx="1912.5" cy="93" r="12.5" fill="#1D244C"/>
</svg>
