<svg xmlns="http://www.w3.org/2000/svg" width="135" height="147" fill="none" xmlns:v="https://vecta.io/nano"><path d="M103.277 93.934s1.266-1.014.388-2.67-5.117-2.018-11.049 1.699-13.421 8.565-14.15 8.499 29.345-46.43 24.331-57.608-17.832-5.548-22.43 2.246-10.505 12.118-16.565 12.203-4.68 7.132 1.516 13.844 10.401 20.07 8.201 23.477-3.474-9.504 3.639-23.329S99.031 36.707 90.99 30.58s-16.396 8.506-21.209 9.894-18.671 5.293-16.003 13.445S66.07 89.664 68.207 85.031c2.16-4.683-18.225-25.079-25.939-28.554s-12.446 3.237-14.881 8.992-6.75 19.516 6.51 26.513 30.861 10.425 32.781 7.338S56.201 69.207 45.04 67.834c-4.614-.568-9.469 3.106-13.762 7.618-6.089 6.399-9.999 15.164-1.463 21.773 14.555 11.268 38.115 7.993 45.938 6.66s-3.003 5.853-11.843 10.591c-6.836 3.665-10.516 8.359-11.236 4.596s4.262-6.852 10.183-9.13c8.253-3.176 18.451-6.147 20.104-8.731 2.839-4.435-.922-3.8 5.17-11.082 4.359-5.211 10.578-10.488 14.803-9.812 1.006.161 3.752 1.251 1.192 3.417" fill="#f7c9b4"/><path d="M111.271 98.476s1.549-1.241.475-3.268-6.262-2.47-13.522 2.08-16.425 10.482-17.317 10.401 35.912-56.822 29.777-70.502-21.824-6.79-27.451 2.748-12.856 14.83-20.272 14.934-5.727 8.728 1.855 16.942 12.729 24.562 10.037 28.731-4.251-11.63 4.454-28.551 26.769-43.55 16.928-51.049-20.066 10.41-25.956 12.109-22.849 6.478-19.585 16.454S65.736 93.251 68.352 87.58c2.643-5.732-22.304-30.692-31.745-34.945S21.374 56.596 18.395 63.64s-8.261 23.884 7.967 32.447 37.768 12.759 40.118 8.98-12.822-36.852-26.481-38.532c-5.647-.695-11.588 3.802-16.842 9.323-7.451 7.831-12.237 18.558-1.791 26.647 17.812 13.79 46.646 9.782 56.22 8.151s-3.675 7.162-14.493 12.961c-8.366 4.485-12.87 10.23-13.751 5.624s5.216-8.385 12.462-11.173c10.1-3.887 22.581-7.523 24.604-10.684 3.475-5.429-1.128-4.651 6.327-13.564 5.335-6.377 12.946-12.836 18.116-12.009 1.231.197 4.593 1.531 1.459 4.181" stroke="#000" stroke-width="1.242" stroke-miterlimit="10"/></svg>