<svg xmlns="http://www.w3.org/2000/svg" width="164" height="196" fill="none" xmlns:v="https://vecta.io/nano"><path d="M16.911 109.673s-1.382-2.217.836-4.264 8.851-.333 15.876 8.482 15.812 20.178 16.954 20.467-19.775-86.198-6.19-100.5 30.05 1.097 32.872 15.391 9.484 24.017 18.644 27.383 3.299 13.332-9.696 20.219-26.518 24.931-24.996 31.28 10.352-12.58 6.932-37.38-14.219-65.736 1.268-70.748S89.774 41.68 96.342 46.36s25.534 18.012 17.128 28.97-37.763 47.731-38.534 39.551c-.779-8.267 41.078-28.36 54.651-29.519s17.177 11.565 17.801 21.607-.17 33.25-24.049 36.795-52.445-.648-53.712-6.363 31.997-40.143 49.684-36.268c7.312 1.603 12.724 9.776 16.835 18.922 5.831 12.972 7.088 28.374-9.407 33.854-28.127 9.343-62.165-8.215-73.336-14.419s1.436 10.494 12.332 22.413c8.427 9.217 11.509 18.314 14.612 12.981s-2.814-12.684-10.591-19.307c-10.84-9.232-24.744-19.191-25.875-23.998-1.944-8.254 3.43-5.28-1.934-19.596-3.839-10.244-10.466-21.581-17.244-22.811-1.615-.293-6.369-.105-3.636 4.553" fill="#b1eaf4"/><path d="M2.343 112.302s-1.691-2.713 1.023-5.218 10.832-.407 19.429 10.381 19.351 24.694 20.749 25.048S19.343 37.021 35.969 19.519s36.776 1.343 40.229 18.836 11.607 29.393 22.817 33.512 4.038 16.316-11.866 24.744-32.453 30.511-30.591 38.281 12.669-15.396 8.484-45.747S47.641 8.696 66.594 2.562s24.92 26.529 32.959 32.256 31.248 22.043 20.961 35.454-46.215 58.414-47.159 48.403c-.954-10.118 50.272-34.708 66.884-36.126s21.021 14.153 21.785 26.443-.208 40.692-29.432 45.03-64.183-.792-65.734-7.787 39.159-49.128 60.804-44.385c8.949 1.961 15.572 11.964 20.603 23.157 7.136 15.875 8.675 34.725-11.512 41.431-34.422 11.434-76.079-10.054-89.75-17.646s1.757 12.843 15.092 27.429c10.313 11.281 14.085 22.413 17.883 15.887s-3.444-15.523-12.962-23.628c-13.266-11.299-30.282-23.487-31.666-29.37-2.379-10.101 4.198-6.462-2.367-23.982-4.698-12.536-12.808-26.411-21.103-27.916-1.976-.358-7.794-.128-4.45 5.572" stroke="#000" stroke-width="2" stroke-miterlimit="10"/></svg>