<svg xmlns="http://www.w3.org/2000/svg" width="271" height="325" fill="none" xmlns:v="https://vecta.io/nano"><path d="M105.872 234.878c8.773 17.045 20.94 33.289 35.164 46.104 10.168 9.16 22.57 16.865 36.443 18.283 16.374 1.674 31.108-6.958 42.16-18.357 8.437-8.703 15.471-18.894 21.382-29.451 5.145-9.187 9.262-18.947 11.821-29.172 3.908-15.616 3.792-32.104-1.551-47.366-3.913-11.172-10.779-21.665-20.121-29.034-5.792-4.567-14.192-9.112-21.57-5.721-14.334 6.586-15.064 25.669-9.602 38.318 7.045 16.317 24.114 27.095 41.096 30.497 14.051 2.814 28.934-.191 39.966-9.559 15.334-13.021 20.061-34.533 21.003-53.709.729-14.831-.813-29.815-2.906-44.483-1.646-11.531-4.001-22.976-7.436-34.112-3.701-11.998-8.846-24.519-17.492-33.873-2.06-2.227-4.558-4.732-7.422-5.936-1.785-.751-2.872 2.045-1.092 2.794.5.21.415.205.457.23.74.429 1.438.929 2.114 1.452 2.668 2.068 4.896 4.638 6.924 7.343 9.427 12.569 14.183 28.55 17.564 43.657 3.07 13.71 4.802 27.704 5.902 41.697 1.066 13.571.807 27.393-2.127 40.728-3.684 16.754-13.021 32.85-29.713 39.149-13.411 5.06-28.659 2.484-41.127-3.936-15.921-8.199-30.491-26.279-24.855-45.186 1.662-5.574 6.001-11.567 11.748-13.031 3.106-.792 6.467.225 9.369 1.503 9.488 4.178 16.895 13.034 21.843 21.891 7.309 13.083 9.829 28.277 8.386 43.107-2.128 21.87-12.694 42.066-25.658 59.43-10.516 14.084-24.974 27.463-43.443 28.313-13.972.644-26.952-6.713-37.361-15.361-10.307-8.563-18.937-19.106-26.514-30.108-3.819-5.544-7.468-11.281-10.577-17.261-.009-.016-.018-.033-.027-.05-.882-1.71-3.635-.516-2.748 1.208z" fill="#ccc"/><g fill="#d4e19f"><path d="M52.138 107.582s-2.262-4.261-5.219-2.459-1.53 6.251 1.302 10.226 12.701 7.919 19.103 23.371 4.919 23.824 13.519 33.717 24.787 41.081 27.369 36.235c3.257-6.113-1.508-18.619-9.505-27.636-7.641-8.617-15.671-15.517-20.964-20.079-7.389-6.368-5.799-52.421-4.011-68.745s13.519-55.035 25.444-50.123 7.57 29.404 15.432 40.72 14.238 23.347 4.63 37.576-32.927 40.579-27.79 24.596 25.179-26.003 39.366-14.361 19.153 26.03 16.398 39.647-5.292 32.306-19.084 25.981-36.28-27.77-24.43-35.64 19.076-2.403 13.153 4.007-25.11 3.636-31.852-6.974-.494-68.314 9.168-70.484 5.705 28.349.915 38.656-11.386 32.681-16.228 31.639-8.89-4.67-13.812-3.945-3.573 7.282 2.381 7.965 2.87-5.849 1.366-9.388-20.94-18.627-30.981-23.89c-10.067-5.275-14.182-10.577-11.589-13.071s5.955.683 7.087 4.224"/><path d="M118.329 73.913c-.891-6.876 19.109-44.052 35.538-29.582s-.238 29.794 10.238 43.935 2.342 24.817-17.69 36.965-33.802 21.758-33.776 16.819 20.413-10.376 44.963-10.13 30.601 22.21 17.658 39.292-29.647 32.935-47.183 20.952c-11.671-7.975-18.146-14.883-17.494-17.222.328-1.176 5.28.667 9.452 2.246 14.097 5.333 39.845 11.083 37.752-20.573-1.127-17.039-23.89-13.66-36.477-9.456-8.362 2.794-19.748 2.667-8.654-11.924s19.289-19.204 17.367-33.384-10.803-21.061-11.694-27.938z"/></g><g stroke="#000" stroke-width="2.442" stroke-miterlimit="10"><path d="M36.616 102.271s-2.944-5.545-6.792-3.201-1.991 8.137 1.695 13.31 16.53 10.306 24.861 30.416 6.402 31.005 17.594 43.88 32.258 53.465 35.619 47.158c4.238-7.955-1.963-24.231-12.37-35.966-9.945-11.215-20.395-20.195-27.284-26.132-9.617-8.287-7.547-68.223-5.22-89.468s17.595-71.625 33.114-65.232 9.853 38.268 20.083 52.995 18.531 30.385 6.026 48.903-42.852 52.813-36.167 32.012 32.769-33.843 51.233-18.691 24.926 33.877 21.341 51.598-6.887 42.045-24.836 33.813-47.217-36.14-31.795-46.383 24.827-3.127 17.117 5.215-32.678 4.732-41.453-9.076-.642-88.907 11.932-91.732 7.425 36.895 1.191 50.309-14.819 42.533-21.119 41.176-11.57-6.077-17.976-5.133-4.651 9.476 3.099 10.365 3.734-7.611 1.778-12.218-27.252-24.242-40.32-31.091C4.864 122.233-.492 115.332 2.882 112.086s7.75.889 9.224 5.498"/><path d="M122.759 58.453c-1.159-8.949 24.87-57.331 46.252-38.499s-.311 38.775 13.324 57.179 3.048 32.298-23.023 48.108-43.992 28.318-43.958 21.89 26.566-13.504 58.518-13.184 39.824 28.905 22.98 51.136-38.583 42.863-61.407 27.268c-15.188-10.379-23.615-19.37-22.766-22.414.426-1.529 6.871.868 12.301 2.924 18.347 6.94 51.856 14.423 49.132-26.775-1.467-22.176-31.091-17.778-47.473-12.306-10.883 3.635-25.701 3.47-11.262-15.519s25.103-24.993 22.601-43.447-14.06-27.41-15.219-36.36z"/></g></svg>