<svg xmlns="http://www.w3.org/2000/svg" width="1297" height="306" fill="none" xmlns:v="https://vecta.io/nano"><path d="M1164.08 33.135c4.52-3.514 9.95-6.285 15.68-6.149 6.19.147 11.79 3.641 16.55 7.595 11.78 9.783 20.36 22.926 26.33 37.083 1.29 3.072 1.64 6.452 1.09 9.739v.044c-.11.679-.12 1.603-.23 2.463a6.91 6.91 0 0 1 .25.467c3.16-3.825-1.45-12.254 3.21-15.001 1.57-.924 2.96-.444 3.52.081.98.928 1.58 2.208 1.64 3.559.06 1.127-.2 2.294-.45 3.414.39-.872.83-1.724 1.35-2.555 6.73-10.946 15.34-20.236 25.47-27.708 2.65-1.95 5.42-3.793 8.63-5.187 1.3-.569 2.75-1.074 4.55-.802.82.123 1.65.425 2.32.906 1.59 1.145 1.45 2.542 1.17 3.734-2.01 8.463-8.17 15.806-17.29 20.351 1.81 2.096 1.46 4.705-.09 6.262-1.56 1.566-3.68 2.896-4.01 5.147-.15 1.072.13 2.264.01 3.361-.29 2.842-3.54 4.585-7.02 3.752.63 2.571-.69 4.854-2.7 6.229-2.03 1.38-4.66 1.99-7.25 2.579l-.45.059a2.55 2.55 0 0 1-.85-.095c.02.163.05.328.09.495.54 2.258 2.63 4.652 2.14 6.743-.49 2.102-3.28 2.559-4.53 4.249-1.37 1.846-.69 4.86-1.8 6.943-1.62 3.03-6.31 3.078-8.41 5.793-1.04 1.333-1.35 3.181-2.09 4.76-.74 1.589-2.21 2.995-4.13 2.607-.56-.113-1.13-.374-1.67-.319-.76.081-1.19.781-1.57 1.411-1.39 2.288-3.15 4.316-5.21 5.997-.84.685-1.76 1.323-2.87 1.527s-2.44-.104-3.36-1.05c-.95-.98-1.27-2.44-1.09-3.651.16-1.204.74-2.222 1.3-3.207l.77-1.333 3.26-5.519 3.25-5.348 3.24-5.195 2.17-3.4c-.33.046-.67.086-1.01.115-1.13.094-.6-2.249-.2-3.31.83-2.24 1.84-4.407 2.92-6.54-.08.093-.15.187-.23.279-8.07 9.395-16.52 19.171-27.45 24.983-2.49 1.323-5.11 2.679-7.93 2.684-2.81.006-5.85-1.831-6.17-4.632-.34-3.009 2.43-5.982 1.38-8.82-.38-1.011-1.2-1.798-1.67-2.769-.86-1.79-.42-4.001.68-5.66.96-1.461 2.48-2.931 2.07-4.633-.18-.766-.74-1.381-1.1-2.078-1.08-2.031-.46-4.625.92-6.464s3.38-3.085 5.34-4.288c.02-.01.04-.019.05-.029a.65.65 0 0 1 .11-.496c.7-.917 1.25-1.912 1.39-3.037.23-1.802-1.17-3.904-2.97-3.666-1.12.148-2.15 1.131-3.25.492-.49-.28-.78-.799-.85-1.353-.16-1.256.51-2.301.96-3.399 1.84-4.432-.39-10.12-4.74-12.13-1.24-.571-2.74-.986-3.03-2.515-.15-.788.09-1.593.57-2.237 1.49-2.007 4.18-2.532 5.48-4.724.39-.663.56-1.45.39-2.202-.34-1.46-1.65-1.856-2.85-2.178l-7.29-1.962c-2.44-.657-5.3-1.724-5.85-4.192-.54-2.396 1.47-4.565 3.41-6.071z" fill="#a4d5ff"/><g stroke="#1c384d" stroke-width="1.023" stroke-miterlimit="10"><path d="M1221.92 81.839c1.52-4.064 1.91-8.471 1.03-12.719-4.08-19.58-11.75-38.519-24.35-53.964-5.1-6.244-11.39-12.109-19.26-13.846-7.28-1.606-14.91.576-21.57 3.934-2.85 1.44-5.96 3.708-5.87 6.904.09 3.293 3.47 5.369 6.43 6.82l8.82 4.329c1.45.713 3.03 1.546 3.09 3.496.04 1.003-.38 1.967-1.04 2.716-2.22 2.475-5.78 2.474-8.19 4.665-.77.704-1.28 1.67-1.29 2.715 0 2.027 1.81 2.932 3.24 3.971 5.07 3.658 6.49 11.481 3.04 16.686-.86 1.288-1.98 2.456-2.08 4.101-.05.726.19 1.461.73 1.94 1.26 1.093 2.82.095 4.29.186 2.36.146 3.61 3.181 2.87 5.426-.46 1.403-1.42 2.536-2.53 3.534a.84.84 0 0 0 .62 1.452c6.25-.427 12.35-.169 18.68-.001 5.61.148 11.27.586 16.6 2.32 5.34 1.733 10.59 6.471 13.71 11.128 1.96-.346 2.32-3.873 3.01-5.739 0-.018.01-.036.02-.055z"/><path d="M1207 98.541c-12.66 9.986-25.9 20.363-41.32 25.053-3.51 1.067-7.2 2.146-10.8 1.448s-7.02-3.806-6.73-7.463c.32-3.93 4.61-7.034 3.97-10.924-.23-1.387-1.08-2.596-1.43-3.955-.66-2.503.46-5.216 2.28-7.062 1.59-1.624 3.89-3.125 3.8-5.401-.04-1.025-.59-1.949-.89-2.931-.87-2.864.58-6.023 2.8-8.027s5.09-3.095 7.89-4.142c14.25-5.322 30.89-1.965 44.52 4.774 3.39 1.678 6.94 4.039 7.8 7.723-4.76 2.876-7.52 7.464-11.89 10.908zm27.39 2.758c3.45-.105 6.98-.224 9.91-1.481 2.92-1.252 5.17-3.841 5.01-7.282 4.23 1.935 8.83.52 9.91-3.037.42-1.374.36-2.966.83-4.297.97-2.795 4.02-3.963 6.41-5.573 2.37-1.601 3.47-4.847 1.67-7.978 12.8-3.525 22.51-11.365 27.18-21.677.66-1.453 1.2-3.201-.55-5.063-.74-.782-1.72-1.375-2.74-1.737-2.23-.798-4.2-.515-6.02-.115-4.44.98-8.45 2.641-12.32 4.471-14.81 7.011-28.13 16.728-39.48 29.028-2.95 3.201-5.04 6.822-6.18 11.355-.04.16-.09.317-.15.471-.27.824-.25 1.445.25 2.096.55.712 1.33 1.225 1.96 1.883.97 1.018 1.53 2.394 1.48 3.611-.03.68-.24 1.297-.33 1.964-.08.668-.02 1.441.44 2.096.49.719 1.36 1.137 2.14 1.232l.58.035z"/><path d="M1181.01 133.097c-.97 1.116-1.96 2.273-2.48 3.769-.52 1.505-.48 3.449.49 4.938.94 1.439 2.56 2.166 4.03 2.183s2.8-.569 4.05-1.234a30.32 30.32 0 0 0 8.15-6.358c.65-.71 1.37-1.497 2.37-1.408.69.061 1.36.539 2.04.823 2.37.977 4.59-.453 5.93-2.297 1.34-1.833 2.2-4.116 3.86-5.56 3.37-2.941 9.38-1.829 12.2-5.297 1.94-2.385 1.83-6.404 4.03-8.422 2.02-1.845 5.71-1.73 6.86-4.293 1.15-2.551-.93-6.131-1.05-9.152-.1-2.293.94-4.163 1.46-6.208.51-2.029.34-4.675-1.5-6.407-1.67-1.58-4.05-1.696-5.63-.99-1.5.668-2.94 1.595-4.19 2.62-.94.775-1.73 1.702-2.55 2.612-1.39 1.555-2.87 3.039-4.35 4.547l-5.23 5.363-5.3 5.499-5.41 5.678-5.44 5.826-5.49 6.02-5.54 6.237-1.31 1.511zm39.53-46.982c4.23-5.533 1.59-16.394 8.51-18.834 2.23-.788 3.89.174 4.47.984a6.85 6.85 0 0 1 1.22 4.959c-.23 1.529-.7 3.134-1.52 4.461"/><path d="M1211.09 94.752a76.87 76.87 0 0 0-6.72 9.345c-.77 1.257-1.3 2.989-.58 4.277m30.93-37.837c8.02-7.756 10.9-19.426 17.78-28.202 1.49-1.893 3.18-3.663 5.23-4.926s4.49-1.991 6.88-1.695m-33.85 31.008c3.97-13.938 8.07-28.148 16.24-40.116"/></g><path d="M.576 253.914c116.732 31.781 388.7 76.274 542.714 0S666.581 92.155 631.968 58.946c-21.171-17.863-77.802-42.87-134.962 0-71.45 53.588-47.371 121.066-13.652 158.017s292.212 223.616 712.796-96.379" stroke="#a4d5ff" stroke-width="2" stroke-dasharray="4 4"/></svg>