<svg xmlns="http://www.w3.org/2000/svg" width="249" height="268" fill="none" xmlns:v="https://vecta.io/nano"><g fill="#f1e0aa"><path d="M186.125 112.789s2.724-5.13 6.284-2.961 1.841 7.527-1.569 12.312-15.291 9.534-22.999 28.139-5.922 28.683-16.276 40.594-29.843 49.461-32.952 43.626c-3.921-7.36 1.817-22.417 11.444-33.273 9.2-10.375 18.868-18.682 25.24-24.174 8.897-7.667 6.983-63.115 4.83-82.768s-16.277-66.261-30.635-60.347-9.114 35.402-18.579 49.026-17.143 28.109-5.574 45.241 39.643 48.857 33.459 29.614-30.316-31.308-47.397-17.29-23.059 31.339-19.743 47.733 6.372 38.896 22.977 31.281 43.68-33.434 29.414-42.91-22.968-2.893-15.836 4.824 30.231 4.378 38.349-8.396.594-82.248-11.038-84.862-6.869 34.133-1.102 46.542 13.709 39.347 19.537 38.092 10.703-5.622 16.63-4.749 4.302 8.767-2.866 9.589-3.455-7.041-1.645-11.303 25.212-22.426 37.3-28.762c12.121-6.351 17.075-12.735 13.954-15.738s-7.17.822-8.533 5.086"/><path d="M106.434 72.252c1.072-8.279-23.007-53.037-42.788-35.616s.288 35.871-12.326 52.897-2.82 29.879 21.298 44.504 40.698 26.198 40.666 20.251-24.577-12.492-54.135-12.196-36.842 26.739-21.259 47.306 35.694 39.653 56.808 25.226c14.05-9.602 21.846-17.919 21.061-20.736-.394-1.414-6.356.804-11.38 2.705-16.973 6.42-47.972 13.343-45.452-24.77 1.357-20.514 28.762-16.446 43.918-11.384 10.068 3.363 23.776 3.21 10.418-14.356s-23.223-23.122-20.908-40.194 13.006-25.357 14.079-33.637z"/></g><g stroke="#000" stroke-width="2.94" stroke-miterlimit="10"><path d="M204.816 106.395s3.545-6.676 8.178-3.854 2.397 9.796-2.041 16.024-19.902 12.408-29.932 36.621-7.708 37.329-21.183 52.831-38.839 64.371-42.885 56.777c-5.103-9.578 2.364-29.174 14.893-43.303 11.974-13.503 24.556-24.314 32.849-31.462 11.579-9.978 9.087-82.139 6.285-107.717S149.797-3.924 131.111 3.774s-11.862 46.074-24.179 63.805-22.311 36.582-7.255 58.878 51.593 63.585 43.545 38.541-39.454-40.746-61.684-22.503-30.011 40.787-25.695 62.123 8.292 50.62 29.903 40.71 56.848-43.512 38.281-55.845-29.892-3.765-20.61 6.279 39.345 5.697 49.909-10.927.774-107.042-14.365-110.443-8.939 44.421-1.434 60.571 17.841 51.208 25.427 49.575 13.93-7.317 21.643-6.18 5.599 11.409-3.731 12.479-4.496-9.164-2.14-14.71 32.811-29.187 48.544-37.433c15.775-8.265 22.222-16.574 18.16-20.482s-9.331 1.07-11.105 6.62"/><path d="M101.101 53.638c1.396-10.774-29.942-69.025-55.686-46.352s.374 46.684-16.042 68.842-3.669 38.886 27.719 57.921 52.966 34.094 52.925 26.355-31.986-16.259-70.454-15.873-47.948 34.8-27.668 61.567 46.454 51.605 73.933 32.83c18.286-12.496 28.433-23.321 27.411-26.987-.514-1.841-8.273 1.046-14.811 3.521-22.089 8.355-62.434 17.365-59.153-32.237 1.766-26.699 37.433-21.404 57.156-14.816 13.103 4.377 30.944 4.178 13.559-18.684s-30.223-30.092-27.211-52.31 16.927-33.001 18.323-43.777z"/></g></svg>