<svg xmlns="http://www.w3.org/2000/svg" width="160" height="165" fill="none" xmlns:v="https://vecta.io/nano"><g fill="#cdebb2"><path d="M113.569 80.973s2.069-2.132 3.509-.56-.168 3.96-2.524 5.825-8.87 2.505-15.306 10.546-6.995 13.246-13.778 17.622-21.705 20.046-22.401 16.737c-.878-4.174 4.085-10.753 10.361-14.714 5.997-3.787 11.929-6.49 15.842-8.28 5.462-2.499 12.419-30.009 14.161-39.97s1.443-34.867-6.452-34.007-9.52 16.092-16.109 21.436-12.425 11.366-9.183 21.429 12.514 29.646 12.218 19.313-10.432-19.697-20.819-15.245-15.791 12.11-16.497 20.635-2.41 20.014 6.831 18.639 26.219-10.201 20.561-16.889-10.87-4.692-8.466.115 14.227 6.456 20.034 1.338 12.007-40.318 6.666-43.258-8.236 15.788-7.171 22.705 1.129 21.281 4.171 21.494 6.058-1.237 8.845.036.865 4.92-2.774 4.302-.694-3.951.802-5.786 15.579-7.425 22.419-8.816c6.859-1.393 10.202-3.824 9.096-5.743s-3.639-.617-4.916 1.283"/><path d="M80.198 49.709c1.706-3.914-3.747-29.33-15.945-23.59s-4.968 17.662-13.59 24.228-5.641 14.276 4.123 24.895 16.26 18.666 17.092 15.74-10.293-9.637-24.855-13.702-21.906 7.887-17.181 20.21 11.886 24.562 24.312 20.483c8.27-2.715 13.284-5.691 13.299-7.186.008-.751-3.237-.511-5.975-.292-9.252.736-25.466-.279-18.799-18.642 3.589-9.884 16.471-3.982 23.195.663 4.467 3.086 11.222 4.964 7.163-5.568s-8.114-14.666-4.546-22.722 10.001-10.603 11.707-14.518z"/></g><g stroke="#000" stroke-width="1.504" stroke-miterlimit="10"><path d="M123.662 80.494s2.692-2.775 4.566-.728-.218 5.153-3.285 7.581-11.544 3.26-19.92 13.726-9.103 17.238-17.93 22.934-28.247 26.088-29.153 21.782c-1.142-5.432 5.317-13.995 13.484-19.15 7.805-4.928 15.526-8.446 20.618-10.776 7.109-3.252 16.164-39.054 18.43-52.018s1.878-45.378-8.397-44.258-12.39 20.943-20.966 27.898-16.17 14.792-11.951 27.889 16.287 38.583 15.9 25.134-13.577-25.634-27.095-19.839-20.552 15.76-21.47 26.855-3.137 26.047 8.89 24.258 34.123-13.277 26.759-21.98-14.147-6.107-11.018.149 18.515 8.403 26.073 1.741 15.627-52.471 8.675-56.298-10.719 20.547-9.332 29.55 1.47 27.695 5.429 27.973 7.885-1.61 11.511.047 1.126 6.402-3.61 5.599-.903-5.142 1.044-7.531 20.275-9.663 29.178-11.473c8.926-1.813 13.277-4.976 11.838-7.475s-4.736-.803-6.398 1.67"/><path d="M80.23 39.806c2.22-5.094-4.876-38.172-20.752-30.701S53.012 32.09 41.792 40.636s-7.342 18.579 5.366 32.4 21.162 24.292 22.244 20.485-13.396-12.543-32.348-17.833-28.51 10.265-22.361 26.302 15.469 31.967 31.641 26.658c10.762-3.534 17.288-7.406 17.309-9.352.01-.978-4.213-.665-7.777-.38-12.041.958-33.142-.363-24.465-24.262 4.67-12.863 21.437-5.182 30.187.864 5.813 4.017 14.605 6.46 9.322-7.247S60.349 69.185 64.993 58.7 78.009 44.9 80.23 39.806z"/></g></svg>