<svg width="493" height="493" viewBox="0 0 493 493" fill="none" xmlns="http://www.w3.org/2000/svg">
<path d="M25.5619 287.56L31.4763 309.633L40.3338 307.259L34.9047 286.998L42.1491 285.057L47.5782 305.318L58.3034 302.445L52.116 279.353L59.6151 277.343L68.0849 308.953L26.3727 320.13L18.176 289.539L25.5619 287.56Z" fill="white"/>
<path d="M14.8164 236.656L14.8164 227.281L58 242.018V250.543L14.8164 265.133L14.8164 255.494L47.5996 246.119L14.8164 236.656Z" fill="white"/>
<path d="M34.5489 170.715L28.6345 192.788L37.4919 195.162L42.9211 174.9L50.1655 176.841L44.7364 197.103L55.4616 199.977L61.6489 176.885L69.1481 178.894L60.6783 210.504L18.9662 199.327L27.163 168.736L34.5489 170.715Z" fill="white"/>
<mask id="path-4-outside-1_97_212" maskUnits="userSpaceOnUse" x="226" y="434" width="36" height="46" fill="black">
<rect fill="white" x="226" y="434" width="36" height="46"/>
<path d="M228.506 470.537H251.357V461.367H230.381V453.867H251.357V442.764H227.451V435H260.176V478.184H228.506V470.537Z"/>
</mask>
<path d="M228.506 470.537H251.357V461.367H230.381V453.867H251.357V442.764H227.451V435H260.176V478.184H228.506V470.537Z" fill="#0C0E1C"/>
<path d="M228.506 470.537V469.537H227.506V470.537H228.506ZM251.357 470.537V471.537H252.357V470.537H251.357ZM251.357 461.367H252.357V460.367H251.357V461.367ZM230.381 461.367H229.381V462.367H230.381V461.367ZM230.381 453.867V452.867H229.381V453.867H230.381ZM251.357 453.867V454.867H252.357V453.867H251.357ZM251.357 442.764H252.357V441.764H251.357V442.764ZM227.451 442.764H226.451V443.764H227.451V442.764ZM227.451 435V434H226.451V435H227.451ZM260.176 435H261.176V434H260.176V435ZM260.176 478.184V479.184H261.176V478.184H260.176ZM228.506 478.184H227.506V479.184H228.506V478.184ZM228.506 471.537H251.357V469.537H228.506V471.537ZM252.357 470.537V461.367H250.357V470.537H252.357ZM251.357 460.367H230.381V462.367H251.357V460.367ZM231.381 461.367V453.867H229.381V461.367H231.381ZM230.381 454.867H251.357V452.867H230.381V454.867ZM252.357 453.867V442.764H250.357V453.867H252.357ZM251.357 441.764H227.451V443.764H251.357V441.764ZM228.451 442.764V435H226.451V442.764H228.451ZM227.451 436H260.176V434H227.451V436ZM259.176 435V478.184H261.176V435H259.176ZM260.176 477.184H228.506V479.184H260.176V477.184ZM229.506 478.184V470.537H227.506V478.184H229.506Z" fill="white" mask="url(#path-4-outside-1_97_212)"/>
<mask id="path-6-outside-2_97_212" maskUnits="userSpaceOnUse" x="163.407" y="421.54" width="55.3723" height="56.0794" fill="black">
<rect fill="white" x="163.407" y="421.54" width="55.3723" height="56.0794"/>
<path d="M197.619 445.447L187.035 442.611L187.844 460.419L197.619 445.447ZM190.128 471.252L180.28 468.614L176.685 422.943L186.137 425.476L186.528 434.771L201.894 438.888L207.078 431.087L216.19 433.529L190.128 471.252Z"/>
</mask>
<path d="M197.619 445.447L187.035 442.611L187.844 460.419L197.619 445.447ZM190.128 471.252L180.28 468.614L176.685 422.943L186.137 425.476L186.528 434.771L201.894 438.888L207.078 431.087L216.19 433.529L190.128 471.252Z" fill="#0C0E1C"/>
<path d="M197.619 445.447L198.456 445.993L199.211 444.838L197.878 444.481L197.619 445.447ZM187.035 442.611L187.294 441.645L185.974 441.291L186.036 442.656L187.035 442.611ZM187.844 460.419L186.845 460.465L186.986 463.563L188.682 460.966L187.844 460.419ZM190.128 471.252L189.869 472.218L190.55 472.401L190.951 471.821L190.128 471.252ZM180.28 468.614L179.283 468.692L179.339 469.397L180.021 469.58L180.28 468.614ZM176.685 422.943L176.944 421.977L175.577 421.611L175.688 423.022L176.685 422.943ZM186.137 425.476L187.136 425.434L187.105 424.7L186.396 424.51L186.137 425.476ZM186.528 434.771L185.529 434.813L185.559 435.547L186.269 435.737L186.528 434.771ZM201.894 438.888L201.635 439.854L202.329 440.04L202.727 439.442L201.894 438.888ZM207.078 431.087L207.337 430.121L206.643 429.935L206.245 430.534L207.078 431.087ZM216.19 433.529L217.013 434.097L217.819 432.93L216.449 432.563L216.19 433.529ZM197.878 444.481L187.294 441.645L186.777 443.577L197.36 446.413L197.878 444.481ZM186.036 442.656L186.845 460.465L188.843 460.374L188.034 442.565L186.036 442.656ZM188.682 460.966L198.456 445.993L196.782 444.9L187.007 459.872L188.682 460.966ZM190.387 470.286L180.539 467.648L180.021 469.58L189.869 472.218L190.387 470.286ZM181.277 468.535L177.682 422.865L175.688 423.022L179.283 468.692L181.277 468.535ZM176.426 423.909L185.878 426.442L186.396 424.51L176.944 421.977L176.426 423.909ZM185.138 425.518L185.529 434.813L187.527 434.729L187.136 425.434L185.138 425.518ZM186.269 435.737L201.635 439.854L202.153 437.922L186.787 433.805L186.269 435.737ZM202.727 439.442L207.911 431.641L206.245 430.534L201.061 438.335L202.727 439.442ZM206.819 432.053L215.931 434.495L216.449 432.563L207.337 430.121L206.819 432.053ZM215.367 432.96L189.305 470.684L190.951 471.821L217.013 434.097L215.367 432.96Z" fill="white" mask="url(#path-6-outside-2_97_212)"/>
<mask id="path-8-outside-3_97_212" maskUnits="userSpaceOnUse" x="112.033" y="398.651" width="55.909" height="58.8372" fill="black">
<rect fill="white" x="112.033" y="398.651" width="55.909" height="58.8372"/>
<path d="M114.52 437.827L118.343 431.205L129.532 437.665L147.301 406.888L155.166 411.43L137.398 442.206L148.637 448.695L144.814 455.317L114.52 437.827Z"/>
</mask>
<path d="M114.52 437.827L118.343 431.205L129.532 437.665L147.301 406.888L155.166 411.43L137.398 442.206L148.637 448.695L144.814 455.317L114.52 437.827Z" fill="#0C0E1C"/>
<path d="M114.52 437.827L113.654 437.327L113.154 438.193L114.02 438.693L114.52 437.827ZM118.343 431.205L118.843 430.339L117.977 429.839L117.477 430.705L118.343 431.205ZM129.532 437.665L129.032 438.531L129.898 439.031L130.398 438.165L129.532 437.665ZM147.301 406.888L147.801 406.022L146.935 405.522L146.435 406.388L147.301 406.888ZM155.166 411.43L156.032 411.93L156.532 411.063L155.666 410.563L155.166 411.43ZM137.398 442.206L136.532 441.706L136.032 442.572L136.898 443.072L137.398 442.206ZM148.637 448.695L149.503 449.195L150.003 448.329L149.137 447.829L148.637 448.695ZM144.814 455.317L144.314 456.183L145.18 456.683L145.68 455.817L144.814 455.317ZM115.386 438.327L119.209 431.705L117.477 430.705L113.654 437.327L115.386 438.327ZM117.843 432.071L129.032 438.531L130.032 436.799L118.843 430.339L117.843 432.071ZM130.398 438.165L148.167 407.388L146.435 406.388L128.666 437.165L130.398 438.165ZM146.801 407.755L154.666 412.296L155.666 410.563L147.801 406.022L146.801 407.755ZM154.3 410.93L136.532 441.706L138.264 442.706L156.032 411.93L154.3 410.93ZM136.898 443.072L148.137 449.561L149.137 447.829L137.898 441.34L136.898 443.072ZM147.771 448.195L143.948 454.817L145.68 455.817L149.503 449.195L147.771 448.195ZM145.314 454.451L115.02 436.961L114.02 438.693L144.314 456.183L145.314 454.451Z" fill="white" mask="url(#path-8-outside-3_97_212)"/>
<path d="M92.5552 389.545C93.8811 388.219 95.4141 387.556 97.1542 387.556C98.8805 387.542 100.407 388.198 101.732 389.524C103.058 390.85 103.721 392.383 103.721 394.123C103.707 395.85 103.038 397.376 101.712 398.701C100.386 400.027 98.8667 400.69 97.1542 400.69C95.4279 400.676 93.9018 400.007 92.576 398.681C91.2501 397.355 90.5872 395.836 90.5872 394.123C90.5734 392.397 91.2294 390.871 92.5552 389.545Z" fill="white"/>
<path d="M56.0127 364.934L80.4204 350.842L76.2602 343.636C74.1313 339.949 70.8286 338.428 66.3522 339.073C63.8973 339.43 61.2913 340.404 58.5342 341.996C54.7284 344.194 52.1573 346.479 50.8209 348.851C49.4579 351.217 49.8017 354.176 51.8525 357.728L56.0127 364.934ZM44.5956 360.159C43.2915 357.822 42.4489 355.737 42.0677 353.905C41.4166 350.785 41.7726 347.749 43.1354 344.798C44.2441 342.421 45.7442 340.371 47.6359 338.647C49.5275 336.924 51.4543 335.495 53.4164 334.363C58.3893 331.491 63.1772 330.058 67.7801 330.061C73.9941 330.082 78.732 332.917 81.9937 338.567L91.2955 354.678L53.8974 376.27L44.5956 360.159Z" fill="white"/>
<path d="M39.4849 141.693L43.9966 133.878L74.6712 151.588L85.3645 133.067L92.0881 136.948L76.883 163.284L39.4849 141.693Z" fill="white"/>
<path d="M109.607 107.699C112.134 105.171 113.205 102.237 112.818 98.8945C112.445 95.5385 110.539 92.141 107.1 88.7022C103.675 85.2771 100.285 83.3782 96.9289 83.0053C93.5729 82.6048 90.6312 83.6682 88.1038 86.1955C85.5765 88.7229 84.4923 91.6715 84.8514 95.0413C85.2105 98.4111 87.1095 101.815 90.5483 105.254C93.9872 108.693 97.3915 110.592 100.761 110.951C104.131 111.31 107.08 110.226 109.607 107.699ZM113.481 82.3216C118.964 87.8045 121.622 93.5428 121.457 99.5367C121.526 104.218 119.378 108.741 115.014 113.106C110.65 117.47 106.127 119.617 101.445 119.548C95.4373 119.728 89.6921 117.076 84.2092 111.593C78.6159 106 75.9642 100.255 76.2543 94.3577C76.1852 89.6758 78.3328 85.1528 82.6969 80.7887C87.0611 76.4245 91.5841 74.2769 96.2659 74.346C102.149 74.0698 107.888 76.7283 113.481 82.3216Z" fill="white"/>
<path d="M145.216 53.3176C144.093 51.3725 142.776 50.2833 141.266 50.0502C139.773 49.8073 138.104 50.2181 136.26 51.2826L128.979 55.4867L135.336 66.498L142.618 62.2939C144.461 61.2295 145.632 59.9561 146.129 58.4736C146.643 56.9815 146.339 55.2628 145.216 53.3176ZM152.925 48.7991C155.474 53.2138 156.159 56.9791 154.981 60.0949C153.803 63.2107 151.142 65.965 146.998 68.3575L139.057 72.9425L146.82 86.3896L139.057 90.872L117.465 53.4739L133.754 44.0696C137.509 41.9016 141.059 41.1372 144.405 41.7764C147.751 42.4156 150.591 44.7565 152.925 48.7991Z" fill="white"/>
<path d="M199.591 41.6574C200.076 43.4685 199.884 45.1275 199.014 46.6345C198.163 48.1365 196.832 49.1301 195.02 49.6154C193.209 50.1007 191.55 49.9083 190.043 49.0382C188.555 48.1631 187.568 46.82 187.083 45.0089C186.598 43.1977 186.783 41.5506 187.64 40.0676C188.515 38.5794 189.858 37.5927 191.669 37.1074C193.48 36.6221 195.127 36.8076 196.61 37.6639C198.112 38.5151 199.106 39.8462 199.591 41.6574Z" fill="white"/>
<mask id="path-16-outside-4_97_212" maskUnits="userSpaceOnUse" x="229" y="12" width="38" height="49" fill="black">
<rect fill="white" x="229" y="12" width="38" height="49"/>
<path d="M239.094 44.6699C239.367 46.6426 239.904 48.1172 240.705 49.0938C242.17 50.8711 244.68 51.7598 248.234 51.7598C250.363 51.7598 252.092 51.5254 253.42 51.0566C255.939 50.1582 257.199 48.4883 257.199 46.0469C257.199 44.6211 256.574 43.5176 255.324 42.7363C254.074 41.9746 252.111 41.3008 249.436 40.7148L244.865 39.6895C240.373 38.6738 237.268 37.5703 235.549 36.3789C232.639 34.3867 231.184 31.2715 231.184 27.0332C231.184 23.166 232.59 19.9531 235.402 17.3945C238.215 14.8359 242.346 13.5566 247.795 13.5566C252.346 13.5566 256.223 14.7676 259.426 17.1895C262.648 19.5918 264.338 23.0879 264.494 27.6777L255.822 27.6777C255.666 25.0801 254.533 23.2344 252.424 22.1406C251.018 21.418 249.27 21.0566 247.18 21.0566C244.855 21.0566 243 21.5254 241.613 22.4629C240.227 23.4004 239.533 24.709 239.533 26.3887C239.533 27.9316 240.217 29.084 241.584 29.8457C242.463 30.3535 244.338 30.9492 247.209 31.6328L254.65 33.4199C257.912 34.2012 260.373 35.2461 262.033 36.5547C264.611 38.5859 265.9 41.5254 265.9 45.373C265.9 49.3184 264.387 52.5996 261.359 55.2168C258.352 57.8145 254.094 59.1133 248.586 59.1133C242.961 59.1133 238.537 57.834 235.314 55.2754C232.092 52.6973 230.48 49.1621 230.48 44.6699H239.094Z"/>
</mask>
<path d="M239.094 44.6699C239.367 46.6426 239.904 48.1172 240.705 49.0938C242.17 50.8711 244.68 51.7598 248.234 51.7598C250.363 51.7598 252.092 51.5254 253.42 51.0566C255.939 50.1582 257.199 48.4883 257.199 46.0469C257.199 44.6211 256.574 43.5176 255.324 42.7363C254.074 41.9746 252.111 41.3008 249.436 40.7148L244.865 39.6895C240.373 38.6738 237.268 37.5703 235.549 36.3789C232.639 34.3867 231.184 31.2715 231.184 27.0332C231.184 23.166 232.59 19.9531 235.402 17.3945C238.215 14.8359 242.346 13.5566 247.795 13.5566C252.346 13.5566 256.223 14.7676 259.426 17.1895C262.648 19.5918 264.338 23.0879 264.494 27.6777L255.822 27.6777C255.666 25.0801 254.533 23.2344 252.424 22.1406C251.018 21.418 249.27 21.0566 247.18 21.0566C244.855 21.0566 243 21.5254 241.613 22.4629C240.227 23.4004 239.533 24.709 239.533 26.3887C239.533 27.9316 240.217 29.084 241.584 29.8457C242.463 30.3535 244.338 30.9492 247.209 31.6328L254.65 33.4199C257.912 34.2012 260.373 35.2461 262.033 36.5547C264.611 38.5859 265.9 41.5254 265.9 45.373C265.9 49.3184 264.387 52.5996 261.359 55.2168C258.352 57.8145 254.094 59.1133 248.586 59.1133C242.961 59.1133 238.537 57.834 235.314 55.2754C232.092 52.6973 230.48 49.1621 230.48 44.6699H239.094Z" fill="#0C0E1C"/>
<path d="M239.094 44.6699L240.084 44.5326L239.965 43.6699H239.094V44.6699ZM240.705 49.0938L239.932 49.7278L239.933 49.7298L240.705 49.0938ZM253.42 51.0566L253.753 51.9996L253.756 51.9985L253.42 51.0566ZM255.324 42.7363L255.854 41.8883L255.845 41.8824L255.324 42.7363ZM249.436 40.7148L249.217 41.6906L249.222 41.6917L249.436 40.7148ZM244.865 39.6895L244.645 40.6648L244.646 40.6652L244.865 39.6895ZM235.549 36.3789L236.119 35.557L236.114 35.5537L235.549 36.3789ZM259.426 17.1895L258.823 17.9871L258.828 17.9912L259.426 17.1895ZM264.494 27.6777V28.6777H265.529L265.494 27.6437L264.494 27.6777ZM255.822 27.6777L254.824 27.7378L254.881 28.6777H255.822V27.6777ZM252.424 22.1406L252.884 21.2529L252.881 21.2512L252.424 22.1406ZM241.613 22.4629L241.053 21.6344L241.613 22.4629ZM241.584 29.8457L242.084 28.9798L242.078 28.9759L242.071 28.9721L241.584 29.8457ZM247.209 31.6328L247.443 30.6605L247.441 30.66L247.209 31.6328ZM254.65 33.4199L254.417 34.3923L254.417 34.3924L254.65 33.4199ZM262.033 36.5547L261.414 37.34L261.414 37.3402L262.033 36.5547ZM261.359 55.2168L262.013 55.9736L262.013 55.9733L261.359 55.2168ZM235.314 55.2754L234.69 56.0563L234.693 56.0586L235.314 55.2754ZM230.48 44.6699V43.6699H229.48V44.6699H230.48ZM238.103 44.8072C238.389 46.8663 238.965 48.549 239.932 49.7278L241.478 48.4597C240.843 47.6854 240.346 46.4188 240.084 44.5326L238.103 44.8072ZM239.933 49.7298C241.672 51.8395 244.545 52.7598 248.234 52.7598V50.7598C244.815 50.7598 242.668 49.9027 241.477 48.4577L239.933 49.7298ZM248.234 52.7598C250.425 52.7598 252.278 52.5202 253.753 51.9996L253.087 50.1137C251.906 50.5306 250.302 50.7598 248.234 50.7598V52.7598ZM253.756 51.9985C255.149 51.5019 256.276 50.7617 257.053 49.7326C257.834 48.6963 258.199 47.4472 258.199 46.0469H256.199C256.199 47.088 255.934 47.8945 255.456 48.5281C254.973 49.1689 254.211 49.713 253.084 50.1147L253.756 51.9985ZM258.199 46.0469C258.199 44.2624 257.385 42.8448 255.854 41.8883L254.794 43.5843C255.764 44.1904 256.199 44.9798 256.199 46.0469H258.199ZM255.845 41.8824C254.45 41.0327 252.356 40.3307 249.649 39.738L249.222 41.6917C251.866 42.2708 253.698 42.9165 254.804 43.5903L255.845 41.8824ZM249.654 39.7391L245.084 38.7137L244.646 40.6652L249.217 41.6906L249.654 39.7391ZM245.086 38.7141C240.604 37.7009 237.666 36.6296 236.119 35.5571L234.979 37.2008C236.869 38.511 240.142 39.6468 244.645 40.6648L245.086 38.7141ZM236.114 35.5537C233.533 33.7872 232.184 31.0176 232.184 27.0332H230.184C230.184 31.5254 231.744 34.9863 234.984 37.2041L236.114 35.5537ZM232.184 27.0332C232.184 23.4422 233.475 20.4997 236.075 18.1342L234.729 16.6548C231.705 19.4066 230.184 22.8899 230.184 27.0332H232.184ZM236.075 18.1342C238.637 15.8033 242.488 14.5566 247.795 14.5566V12.5566C242.204 12.5566 237.792 13.8685 234.729 16.6548L236.075 18.1342ZM247.795 14.5566C252.158 14.5566 255.816 15.7138 258.823 17.9871L260.029 16.3918C256.629 13.8214 252.533 12.5566 247.795 12.5566V14.5566ZM258.828 17.9912C261.771 20.1846 263.347 23.3767 263.495 27.7118L265.494 27.6437C265.329 22.799 263.526 18.999 260.023 16.3877L258.828 17.9912ZM264.494 26.6777L255.822 26.6777V28.6777L264.494 28.6777V26.6777ZM256.82 27.6177C256.646 24.7091 255.34 22.5264 252.884 21.2529L251.964 23.0284C253.726 23.9423 254.687 25.4511 254.824 27.7378L256.82 27.6177ZM252.881 21.2512C251.295 20.4363 249.379 20.0566 247.18 20.0566V22.0566C249.16 22.0566 250.74 22.3996 251.967 23.0301L252.881 21.2512ZM247.18 20.0566C244.731 20.0566 242.658 20.5494 241.053 21.6344L242.173 23.2913C243.342 22.5013 244.98 22.0566 247.18 22.0566V20.0566ZM241.053 21.6344C239.39 22.7587 238.533 24.3783 238.533 26.3887H240.533C240.533 25.0397 241.063 24.0421 242.173 23.2913L241.053 21.6344ZM238.533 26.3887C238.533 27.312 238.739 28.1676 239.186 28.9204C239.632 29.6724 240.286 30.267 241.097 30.7193L242.071 28.9721C241.515 28.6627 241.143 28.3003 240.906 27.9C240.669 27.5004 240.533 27.0083 240.533 26.3887H238.533ZM241.084 30.7116C242.109 31.3041 244.128 31.9272 246.977 32.6056L247.441 30.66C244.548 29.9712 242.816 29.4029 242.084 28.9798L241.084 30.7116ZM246.975 32.6052L254.417 34.3923L254.884 32.4476L247.443 30.6605L246.975 32.6052ZM254.417 34.3924C257.612 35.1576 259.915 36.1583 261.414 37.34L262.652 35.7693C260.831 34.3339 258.212 33.2448 254.883 32.4474L254.417 34.3924ZM261.414 37.3402C263.709 39.1479 264.9 41.7725 264.9 45.373H266.9C266.9 41.2782 265.514 38.0239 262.652 35.7692L261.414 37.3402ZM264.9 45.373C264.9 49.0232 263.517 52.0299 260.705 54.4603L262.013 55.9733C265.257 53.1693 266.9 49.6136 266.9 45.373H264.9ZM260.706 54.46C257.939 56.8494 253.946 58.1133 248.586 58.1133V60.1133C254.241 60.1133 258.764 58.7795 262.013 55.9736L260.706 54.46ZM248.586 58.1133C243.105 58.1133 238.927 56.8667 235.936 54.4922L234.693 56.0586C238.147 58.8013 242.817 60.1133 248.586 60.1133V58.1133ZM235.939 54.4945C232.977 52.1246 231.48 48.8891 231.48 44.6699H229.48C229.48 49.4351 231.207 53.2699 234.69 56.0563L235.939 54.4945ZM230.48 45.6699H239.094V43.6699H230.48V45.6699Z" fill="white" mask="url(#path-16-outside-4_97_212)"/>
<mask id="path-18-outside-5_97_212" maskUnits="userSpaceOnUse" x="281.035" y="17.2051" width="44.7472" height="53.2324" fill="black">
<rect fill="white" x="281.035" y="17.2051" width="44.7472" height="53.2324"/>
<path d="M294.156 19.4113L302.872 21.7467L293.705 55.9597L314.363 61.495L312.353 68.9942L282.979 61.1234L294.156 19.4113Z"/>
</mask>
<path d="M294.156 19.4113L302.872 21.7467L293.705 55.9597L314.363 61.495L312.353 68.9942L282.979 61.1234L294.156 19.4113Z" fill="#0C0E1C"/>
<path d="M294.156 19.4113L294.415 18.4453L293.449 18.1865L293.19 19.1525L294.156 19.4113ZM302.872 21.7467L303.838 22.0055L304.097 21.0396L303.131 20.7808L302.872 21.7467ZM293.705 55.9597L292.739 55.7009L292.48 56.6668L293.446 56.9257L293.705 55.9597ZM314.363 61.495L315.329 61.7538L315.588 60.7879L314.622 60.5291L314.363 61.495ZM312.353 68.9942L312.095 69.9601L313.061 70.2189L313.319 69.253L312.353 68.9942ZM282.979 61.1234L282.014 60.8646L281.755 61.8305L282.721 62.0893L282.979 61.1234ZM293.897 20.3772L302.613 22.7126L303.131 20.7808L294.415 18.4453L293.897 20.3772ZM301.906 21.4879L292.739 55.7009L294.671 56.2185L303.838 22.0055L301.906 21.4879ZM293.446 56.9257L314.104 62.4609L314.622 60.5291L293.964 54.9938L293.446 56.9257ZM313.397 61.2362L311.387 68.7353L313.319 69.253L315.329 61.7538L313.397 61.2362ZM312.612 68.0282L283.238 60.1575L282.721 62.0893L312.095 69.9601L312.612 68.0282ZM283.945 61.3822L295.122 19.6701L293.19 19.1525L282.014 60.8646L283.945 61.3822Z" fill="white" mask="url(#path-18-outside-5_97_212)"/>
<mask id="path-20-outside-6_97_212" maskUnits="userSpaceOnUse" x="326.791" y="36.5122" width="54.1769" height="57.8372" fill="black">
<rect fill="white" x="326.791" y="36.5122" width="54.1769" height="57.8372"/>
<path d="M373.692 61.2388L353.902 49.813L349.317 57.7544L367.484 68.2427L363.734 74.7379L345.567 64.2496L340.016 73.8655L360.719 85.8186L356.837 92.5422L328.497 76.1799L350.089 38.7818L377.516 54.6167L373.692 61.2388Z"/>
</mask>
<path d="M373.692 61.2388L353.902 49.813L349.317 57.7544L367.484 68.2427L363.734 74.7379L345.567 64.2496L340.016 73.8655L360.719 85.8186L356.837 92.5422L328.497 76.1799L350.089 38.7818L377.516 54.6167L373.692 61.2388Z" fill="#0C0E1C"/>
<path d="M373.692 61.2388L373.192 62.1048L374.058 62.6048L374.558 61.7388L373.692 61.2388ZM353.902 49.813L354.402 48.947L353.536 48.447L353.036 49.313L353.902 49.813ZM349.317 57.7544L348.451 57.2544L347.951 58.1204L348.817 58.6204L349.317 57.7544ZM367.484 68.2427L368.35 68.7427L368.85 67.8766L367.984 67.3766L367.484 68.2427ZM363.734 74.7379L363.234 75.6039L364.1 76.1039L364.6 75.2379L363.734 74.7379ZM345.567 64.2496L346.067 63.3836L345.201 62.8836L344.701 63.7496L345.567 64.2496ZM340.016 73.8655L339.15 73.3655L338.65 74.2315L339.516 74.7315L340.016 73.8655ZM360.719 85.8186L361.585 86.3186L362.085 85.4526L361.219 84.9526L360.719 85.8186ZM356.837 92.5422L356.337 93.4082L357.203 93.9082L357.703 93.0422L356.837 92.5422ZM328.497 76.1799L327.631 75.6799L327.131 76.5459L327.997 77.0459L328.497 76.1799ZM350.089 38.7818L350.589 37.9157L349.723 37.4157L349.223 38.2818L350.089 38.7818ZM377.516 54.6167L378.382 55.1167L378.882 54.2507L378.016 53.7507L377.516 54.6167ZM374.192 60.3728L354.402 48.947L353.402 50.679L373.192 62.1048L374.192 60.3728ZM353.036 49.313L348.451 57.2544L350.183 58.2544L354.768 50.313L353.036 49.313ZM348.817 58.6204L366.984 69.1087L367.984 67.3766L349.817 56.8884L348.817 58.6204ZM366.618 67.7427L362.868 74.2379L364.6 75.2379L368.35 68.7427L366.618 67.7427ZM364.234 73.8718L346.067 63.3836L345.067 65.1156L363.234 75.6039L364.234 73.8718ZM344.701 63.7496L339.15 73.3655L340.882 74.3655L346.433 64.7496L344.701 63.7496ZM339.516 74.7315L360.219 86.6847L361.219 84.9526L340.516 72.9995L339.516 74.7315ZM359.853 85.3186L355.971 92.0422L357.703 93.0422L361.585 86.3186L359.853 85.3186ZM357.337 91.6761L328.997 75.3138L327.997 77.0459L356.337 93.4082L357.337 91.6761ZM329.363 76.6799L350.955 39.2818L349.223 38.2818L327.631 75.6799L329.363 76.6799ZM349.589 39.6478L377.016 55.4828L378.016 53.7507L350.589 37.9157L349.589 39.6478ZM376.65 54.1167L372.826 60.7388L374.558 61.7388L378.382 55.1167L376.65 54.1167Z" fill="white" mask="url(#path-20-outside-6_97_212)"/>
<mask id="path-22-outside-7_97_212" maskUnits="userSpaceOnUse" x="368.093" y="70.4008" width="57.9828" height="57.9828" fill="black">
<rect fill="white" x="368.093" y="70.4008" width="57.9828" height="57.9828"/>
<path d="M417.307 100.471L401.149 84.3125L394.665 90.7967L409.498 105.629L404.194 110.933L389.362 96.1L381.51 103.951L398.414 120.856L392.925 126.345L369.785 103.206L400.32 72.6701L422.714 95.0642L417.307 100.471Z"/>
</mask>
<path d="M417.307 100.471L401.149 84.3125L394.665 90.7967L409.498 105.629L404.194 110.933L389.362 96.1L381.51 103.951L398.414 120.856L392.925 126.345L369.785 103.206L400.32 72.6701L422.714 95.0642L417.307 100.471Z" fill="#0C0E1C"/>
<path d="M417.307 100.471L416.6 101.178L417.307 101.885L418.015 101.178L417.307 100.471ZM401.149 84.3125L401.856 83.6054L401.149 82.8983L400.442 83.6054L401.149 84.3125ZM394.665 90.7967L393.958 90.0896L393.251 90.7967L393.958 91.5038L394.665 90.7967ZM409.498 105.629L410.205 106.336L410.912 105.629L410.205 104.922L409.498 105.629ZM404.194 110.933L403.487 111.64L404.194 112.347L404.901 111.64L404.194 110.933ZM389.362 96.1L390.069 95.3929L389.362 94.6857L388.654 95.3929L389.362 96.1ZM381.51 103.951L380.803 103.244L380.096 103.951L380.803 104.658L381.51 103.951ZM398.414 120.856L399.122 121.563L399.829 120.856L399.122 120.149L398.414 120.856ZM392.925 126.345L392.218 127.052L392.925 127.76L393.632 127.052L392.925 126.345ZM369.785 103.206L369.078 102.498L368.371 103.206L369.078 103.913L369.785 103.206ZM400.32 72.6701L401.027 71.963L400.32 71.2559L399.613 71.963L400.32 72.6701ZM422.714 95.0642L423.421 95.7713L424.129 95.0642L423.421 94.3571L422.714 95.0642ZM418.015 99.7639L401.856 83.6054L400.442 85.0197L416.6 101.178L418.015 99.7639ZM400.442 83.6054L393.958 90.0896L395.372 91.5038L401.856 85.0197L400.442 83.6054ZM393.958 91.5038L408.79 106.336L410.205 104.922L395.372 90.0896L393.958 91.5038ZM408.79 104.922L403.487 110.226L404.901 111.64L410.205 106.336L408.79 104.922ZM404.901 110.226L390.069 95.3929L388.654 96.8071L403.487 111.64L404.901 110.226ZM388.654 95.3929L380.803 103.244L382.217 104.658L390.069 96.8071L388.654 95.3929ZM380.803 104.658L397.707 121.563L399.122 120.149L382.217 103.244L380.803 104.658ZM397.707 120.149L392.218 125.638L393.632 127.052L399.122 121.563L397.707 120.149ZM393.632 125.638L370.492 102.498L369.078 103.913L392.218 127.052L393.632 125.638ZM370.492 103.913L401.027 73.3773L399.613 71.963L369.078 102.498L370.492 103.913ZM399.613 73.3773L422.007 95.7713L423.421 94.3571L401.027 71.963L399.613 73.3773ZM422.007 94.3571L416.6 99.7639L418.015 101.178L423.421 95.7713L422.007 94.3571Z" fill="white" mask="url(#path-22-outside-7_97_212)"/>
<mask id="path-24-outside-8_97_212" maskUnits="userSpaceOnUse" x="400.582" y="115.377" width="57.8372" height="54.1769" fill="black">
<rect fill="white" x="400.582" y="115.377" width="57.8372" height="54.1769"/>
<path d="M439.683 145.216C441.628 144.093 442.717 142.776 442.95 141.266C443.193 139.772 442.782 138.104 441.718 136.26L437.514 128.978L426.502 135.336L430.707 142.617C431.771 144.461 433.044 145.632 434.527 146.129C436.019 146.643 437.738 146.339 439.683 145.216ZM444.201 152.925C439.787 155.474 436.021 156.159 432.906 154.981C429.79 153.803 427.036 151.142 424.643 146.998L420.058 139.056L406.611 146.82L402.129 139.056L439.527 117.465L448.931 133.753C451.099 137.508 451.863 141.059 451.224 144.405C450.585 147.751 448.244 150.591 444.201 152.925Z"/>
</mask>
<path d="M439.683 145.216C441.628 144.093 442.717 142.776 442.95 141.266C443.193 139.772 442.782 138.104 441.718 136.26L437.514 128.978L426.502 135.336L430.707 142.617C431.771 144.461 433.044 145.632 434.527 146.129C436.019 146.643 437.738 146.339 439.683 145.216ZM444.201 152.925C439.787 155.474 436.021 156.159 432.906 154.981C429.79 153.803 427.036 151.142 424.643 146.998L420.058 139.056L406.611 146.82L402.129 139.056L439.527 117.465L448.931 133.753C451.099 137.508 451.863 141.059 451.224 144.405C450.585 147.751 448.244 150.591 444.201 152.925Z" fill="#0C0E1C"/>
<path d="M442.95 141.266L441.963 141.105L441.962 141.113L442.95 141.266ZM437.514 128.978L438.38 128.478L437.88 127.612L437.014 128.112L437.514 128.978ZM426.502 135.336L426.002 134.47L425.136 134.97L425.636 135.836L426.502 135.336ZM434.527 146.129L434.853 145.183L434.845 145.181L434.527 146.129ZM420.058 139.056L420.924 138.556L420.424 137.69L419.558 138.19L420.058 139.056ZM406.611 146.82L405.745 147.32L406.245 148.186L407.111 147.686L406.611 146.82ZM402.129 139.056L401.629 138.19L400.762 138.69L401.262 139.556L402.129 139.056ZM439.527 117.465L440.393 116.965L439.893 116.099L439.027 116.599L439.527 117.465ZM440.183 146.082C442.263 144.881 443.641 143.348 443.939 141.418L441.962 141.113C441.794 142.204 440.993 143.305 439.183 144.35L440.183 146.082ZM443.937 141.426C444.23 139.628 443.717 137.723 442.584 135.76L440.852 136.76C441.847 138.484 442.157 139.916 441.963 141.105L443.937 141.426ZM442.584 135.76L438.38 128.478L436.648 129.478L440.852 136.76L442.584 135.76ZM437.014 128.112L426.002 134.47L427.002 136.202L438.014 129.844L437.014 128.112ZM425.636 135.836L429.841 143.117L431.573 142.117L427.368 134.836L425.636 135.836ZM429.841 143.117C430.983 145.095 432.423 146.478 434.209 147.077L434.845 145.181C433.666 144.785 432.559 143.827 431.573 142.117L429.841 143.117ZM434.201 147.074C436.067 147.718 438.096 147.286 440.183 146.082L439.183 144.35C437.379 145.391 435.971 145.569 434.853 145.184L434.201 147.074ZM443.701 152.059C439.407 154.538 435.972 155.071 433.259 154.046L432.552 155.916C436.07 157.247 440.166 156.409 444.701 153.791L443.701 152.059ZM433.259 154.046C430.436 152.978 427.835 150.527 425.509 146.498L423.777 147.498C426.236 151.757 429.143 154.628 432.552 155.916L433.259 154.046ZM425.509 146.498L420.924 138.556L419.192 139.556L423.777 147.498L425.509 146.498ZM419.558 138.19L406.111 145.954L407.111 147.686L420.558 139.922L419.558 138.19ZM407.477 146.32L402.995 138.556L401.262 139.556L405.745 147.32L407.477 146.32ZM402.629 139.922L440.027 118.331L439.027 116.599L401.629 138.19L402.629 139.922ZM438.661 117.965L448.065 134.253L449.797 133.253L440.393 116.965L438.661 117.965ZM448.065 134.253C450.146 137.859 450.825 141.166 450.242 144.217L452.206 144.592C452.902 140.952 452.051 137.158 449.797 133.253L448.065 134.253ZM450.242 144.217C449.675 147.183 447.59 149.814 443.701 152.059L444.701 153.791C448.898 151.368 451.494 148.319 452.206 144.592L450.242 144.217Z" fill="white" mask="url(#path-24-outside-8_97_212)"/>
<path d="M451.343 199.591C449.532 200.077 447.873 199.884 446.366 199.014C444.864 198.163 443.87 196.832 443.385 195.021C442.9 193.21 443.092 191.55 443.962 190.043C444.837 188.555 446.18 187.569 447.991 187.083C449.802 186.598 451.45 186.783 452.933 187.64C454.421 188.515 455.408 189.858 455.893 191.669C456.378 193.48 456.193 195.127 455.336 196.61C454.485 198.112 453.154 199.106 451.343 199.591Z" fill="white"/>
<path d="M470.684 238.65H442.5V246.971C442.5 251.229 444.6 254.197 448.799 255.877C451.104 256.795 453.848 257.254 457.031 257.254C461.426 257.254 464.795 256.561 467.139 255.174C469.502 253.807 470.684 251.072 470.684 246.971V238.65ZM478.184 248.494C478.145 251.17 477.832 253.396 477.246 255.174C476.25 258.201 474.424 260.652 471.768 262.527C469.619 264.031 467.295 265.057 464.795 265.604C462.295 266.15 459.912 266.424 457.646 266.424C451.904 266.424 447.041 265.271 443.057 262.967C437.686 259.842 435 255.018 435 248.494V229.891H478.184V248.494Z" fill="white"/>
<path d="M458.368 321.409L464.283 299.336L455.425 296.963L449.996 317.225L442.752 315.284L448.181 295.022L437.456 292.148L431.268 315.24L423.769 313.23L432.239 281.621L473.951 292.797L465.754 323.388L458.368 321.409Z" fill="white"/>
<path d="M444.824 351.361L436.578 346.6L431.275 355.784C430.328 357.425 429.866 358.929 429.889 360.295C429.919 361.688 430.72 362.839 432.293 363.747C434.035 364.753 435.576 364.74 436.916 363.71C437.979 362.767 439.032 361.391 440.077 359.581L444.824 351.361ZM430.387 343.026L420.416 337.269L415.113 346.453C414.166 348.094 413.648 349.498 413.561 350.665C413.416 352.792 414.493 354.519 416.794 355.847C418.739 356.97 420.539 356.938 422.194 355.751C423.118 355.089 424.057 353.951 425.011 352.337L430.387 343.026ZM445.137 365.817C442.423 370.362 439.22 372.843 435.529 373.26C433.275 373.493 431.04 372.969 428.824 371.69C426.54 370.371 425.037 368.737 424.314 366.786C423.907 365.694 423.744 364.336 423.824 362.714C422.027 364.225 420.097 365.028 418.035 365.123C415.963 365.235 413.853 364.67 411.705 363.43C409.489 362.151 407.824 360.445 406.71 358.313C405.953 356.929 405.484 355.475 405.305 353.95C405.085 352.222 405.279 350.44 405.888 348.603C406.487 346.784 407.339 344.919 408.442 343.008L418.227 326.059L455.625 347.651L445.137 365.817Z" fill="white"/>
<path d="M422.423 398.227L415.939 404.711L397.17 385.942C395.071 383.843 393.289 382.559 391.826 382.089C389.34 381.15 386.798 381.979 384.202 384.575C381.619 387.158 380.798 389.692 381.737 392.178C382.206 393.642 383.491 395.423 385.59 397.522L404.359 416.291L397.875 422.775L379.106 404.007C375.86 400.761 373.837 397.73 373.036 394.912C371.6 389.719 373.526 384.478 378.816 379.189C384.105 373.899 389.353 371.966 394.56 373.388C397.377 374.189 400.409 376.213 403.654 379.458L422.423 398.227Z" fill="white"/>
<path d="M345.834 441.113C347.9 443.325 350.377 444.275 353.263 443.962C354.871 443.778 356.461 443.231 358.034 442.323C361.045 440.585 362.864 438.013 363.491 434.606C364.11 431.226 363.102 427.253 360.465 422.686C357.809 418.085 354.88 415.435 351.679 414.734C348.479 414.034 345.542 414.455 342.869 415.998C340.248 417.512 338.534 419.505 337.729 421.977C336.933 424.466 337.049 427.049 338.076 429.726L346.727 424.731L350.331 430.973L334.753 439.967L323.166 419.898L328.342 416.909L331.823 421.124C332.303 418.479 332.934 416.446 333.715 415.025C335.046 412.565 337.217 410.466 340.228 408.727C345.184 405.866 350.235 405.239 355.38 406.847C360.671 408.393 365.044 412.16 368.501 418.148C371.997 424.203 373.134 430.02 371.911 435.597C370.688 441.174 367.337 445.545 361.857 448.709C357.104 451.453 352.591 452.446 348.319 451.687C344.04 450.955 340.649 448.91 338.146 445.551L345.834 441.113Z" fill="white"/>
<path d="M293.409 451.343C292.924 449.532 293.116 447.872 293.986 446.365C294.837 444.864 296.168 443.87 297.98 443.385C299.791 442.899 301.45 443.092 302.957 443.962C304.445 444.837 305.432 446.18 305.917 447.991C306.402 449.802 306.217 451.449 305.36 452.932C304.485 454.421 303.142 455.407 301.331 455.893C299.52 456.378 297.873 456.192 296.39 455.336C294.888 454.485 293.894 453.154 293.409 451.343Z" fill="white"/>
</svg>
