<svg xmlns="http://www.w3.org/2000/svg" width="1919" height="812" fill="none" stroke="#d4e19f" stroke-width="2.169" xmlns:v="https://vecta.io/nano"><path d="M1921.59 823.627l-40.05-.369a.52.52 0 0 1-.35-.136c-.1-.089-.16-.21-.17-.341-8.3-98.986-24.94-198.264-54.83-292.564-.71-2.256-1.51-4.501-2.4-6.736-2.1-5.206-3.58-10.608-5.4-15.868-25.71-74.332-64.04-145.659-114.92-204.914-26.31-30.63-54.64-57.042-83.88-84.874-8-7.607-15.81-15.713-23.44-24.318-4.13-4.657-7.64-9.144-10.52-13.461-3.32-4.974-6.45-9.074-9.39-12.3-12.59-13.84-28.71-22.174-48.36-25.001-.39-.058-.76-.229-1.05-.491a2.05 2.05 0 0 1-.62-.984c-2.33-8.374-3.18-16.989-2.55-25.847 1.63-22.67 9.02-44.309 13.24-66.685 3.68-19.513 3.46-41.184-20.73-46.141-20.64-4.23-41.18.553-51.07 20.663-3.69 7.513-6.08 16.093-7.16 25.739-1.49 13.471-1.8 27.395-.92 41.77l3.83 51.793a70.84 70.84 0 0 1 .22 8.612l-.22 8.612c-.07 5.431-1.27 12.083-3.61 19.958-.11.376-.05.73.17 1.063 1.1 1.612 2.56 1.92 4.39.922 30.64-16.726 87.66-28.646 96.12 21.075.18 1.077.78 1.811 1.8 2.201 8.68 3.341 17.14 6.085 24.93 10.858 5.95 3.633 9.27 8.981 10.3 15.814 1.23 8.243.49 16.487-.17 24.893a2.27 2.27 0 0 0 .23 1.174 2.23 2.23 0 0 0 .8.887l6.93 4.479c12.58 8.28 17.5 19.976 14.76 35.089a214.14 214.14 0 0 1-4.1 17.951 2.31 2.31 0 0 0 .02 1.328c.13.431.39.814.74 1.102 9.23 7.755 19.07 17.083 24.47 27.507 3.94 7.621 6.12 15.926 6.55 24.914 0 .029 0 .059-.02.085-.01.026-.03.047-.06.06s-.06.018-.09.013c-.02-.004-.05-.018-.07-.038-9.64-9.242-20.86-12.376-33.34-16.021-2.81-.817-5.35-2.05-7.62-3.699-9.41-6.811-4.32-22.582-1.24-31.411.45-1.28.43-2.668-.51-3.731-4.32-4.903-8.54-10.438-12.64-16.607-7.62-11.432-9.36-23.591-5.22-36.477a1.25 1.25 0 0 0 .05-.509c-.01-.172-.07-.339-.16-.488-.52-.926-1.18-1.703-1.99-2.332l-16.69-13.287c-7.7-6.194-15.56-14.068-16.51-24.047-.47-4.946-.43-11.682.13-20.207.69-10.587-10.16-14.806-18.47-18.244-6-2.488-11.49-4.437-16.45-5.847-33.79-9.599-64.97 7.04-89.6 28.711-5.78 5.076-10.94 10.127-15.49 15.153-15.39 17.007-24.53 43.462-16.19 65.795 4.99 13.352 16.27 22.257 30.97 18.407.08-.021.16-.019.24.006a.41.41 0 0 1 .2.135c.05.063.08.139.09.22s0 .162-.04.235c-7.43 14.611-16.13 38.441-8.25 54.255 9.03 18.114 31.58 12.907 45.63 5.662.84-.434 1.11-.206.79.683-2.7 7.564-4.22 15.001-4.56 22.311-1.01 22.247 13.51 36.987 36.27 31.282 2.4-.6 4.75-1.269 7.08-2.007a.39.39 0 0 1 .22-.003.38.38 0 0 1 .18.116.37.37 0 0 1 .09.197c.01.073 0 .146-.04.211-4.15 8.251-6.55 16.978-7.2 26.184-1.65 23.33 16.42 34.98 37.64 34.502 16.42-.376 31.02-5.379 43.81-15.011.34-.261.71-.304 1.1-.13 8.96 3.98 19.95 1.735 28.66-2.332a.36.36 0 0 1 .19-.036c.07.007.13.032.19.072.05.041.09.096.11.158.03.063.03.131.02.196-3.7 20.066 14.88 23.754 29.94 23.038.09-.005.19.016.27.062.09.045.16.113.2.196a.54.54 0 0 1 .08.275.64.64 0 0 1-.09.27c-3.46 5.38-2.83 12.408-.41 18.808 4.17 11.049 7.32 20.474 9.46 28.277 4.77 17.455 8.36 36.093 10.76 55.914 3.18 26.227 5.08 53.086 5.7 80.579l.27 7.95c.18 3.797.26 7.535.26 11.216-.02 48.885-1.26 90.319-3.62 135.462 0 .109-.05.211-.13.286s-.18.116-.29.116l-511.39.011c-.19 0-.28-.091-.3-.272l-4.92-71.359c-2.26-31.748-3.09-64.591 1.07-95.016 2.79-20.435 7.88-41.033 15.25-61.793 1.54-4.331 2.66-8.655 3.36-12.972.04-.19.13-.363.28-.486a.83.83 0 0 1 .54-.187c23.37.477 61.03-8.894 68.36-35.327.02-.059.05-.114.09-.162a.5.5 0 0 1 .14-.113.48.48 0 0 1 .18-.046c.06-.004.12.006.18.028 4.35 1.605 8.83 1.833 13.44.683.48-.115.92-.039 1.32.228 4.4 2.9 9.64 3.952 15.74 3.157 15.1-1.974 29.39-6.989 42.87-15.045 18.35-10.976 31-30.956 18.96-51.662-.05-.082-.08-.176-.09-.272s.01-.193.05-.283.09-.169.17-.233c.07-.064.16-.109.26-.134 23.9-6.063 38.03-27.29 24.15-50.74-.32-.535-.17-.857.46-.965 23.11-4.089 33.59-25.023 28.06-46.847-2.6-10.224-7.94-19.791-16.01-28.7-.04-.04-.06-.088-.08-.14-.01-.052-.02-.107-.01-.16s.03-.103.06-.147c.04-.044.08-.08.12-.106 10.84-5.763 16.6-14.878 17.28-27.344 1.28-23.288-16.54-43.093-34.72-55.111-24.7-16.357-51.14-30.913-79.1-41.412-.36-.138-.5-.395-.4-.771 4.96-20.608 7.58-41.188 7.86-61.738.56-40.143-11.2-80.623-48.74-101.079-23.76-12.94-33.97 4.154-36.48 24.914-1.6 13.396-1.62 29.004-.82 43.159l2.75 46.336c.51 8.15.62 16.733.35 25.75-.19 6.067-.8 10.742-1.85 14.025-2.52 7.983-9.24 18.059-17.75 21.476-7.54 3.037-14.34 8.138-20.39 15.304-5.49 6.494-10.36 13.103-14.62 19.828-11.8 18.598-23.77 40.132-35.93 64.602-13.03 26.241-24.37 50.154-34.03 71.739-32.9 73.54-58.78 149.726-79.379 228.114-15.533 59.157-28.527 118.152-40.664 178.393-.033.166-.122.315-.253.422s-.294.165-.463.164l-136.656.033c-.239 0-.354-.116-.347-.347l2.419-215.066-.076-43.213-.044-16.291c.217-15.424-.271-30.479-.911-46.066-.354-8.626-1.232-17.043-2.635-25.25-.058-.333.076-.543.401-.629 18.808-4.954 32.312-15.764 40.512-32.432.054-.114.148-.205.266-.255a.54.54 0 0 1 .374-.016c14.708 4.599 30.424-4.816 41.781-13.124l28.027-20.891c13.732-10.456 27.833-24.361 34.98-39.676.922-1.964 2.278-4.968 2.246-7.137-.033-2.115-2.397-2.723-4.024-2.072-21.346 8.558-42.172 16.313-64.754 22.637-7.246 2.024-14.491 3.565-21.737 4.62-7.18 1.042-15.717 1.497-22.246-1.92-6.79-3.546-4.523-10.846-1.02-15.64 3.515-4.816 8.023-8.793 13.526-11.932 17.767-10.116 36.679-19.064 56.738-26.845 11.772-4.563 22.908-7.733 33.408-9.512 4.584-.774 9.01-.868 13.276-.282 16.161 2.213 8.276 21.617 3.981 29.871-.749 1.421-.326 3.07.954 4.046.416.318.927.486 1.449.476s1.025-.197 1.425-.53c11.53-9.502 21.596-24.21 16.021-38.994-3.623-9.588-13.233-15.467-22.702-18.406-.477-.145-.644-.459-.499-.944 2.592-8.634 4.317-17.311 3.362-26.097-1.561-14.436-13.851-15.836-25.239-12.842-15.587 4.111-30.848 14.003-46.283 21.4-23.269 11.15-44.077 22.239-62.422 33.267-1.54.932-3.167 1.468-4.881 1.605-9.089.748-19.111.108-24.198-8.417-2.517-4.223-2.976-8.927-1.378-14.111 3.015-9.784 10.89-16.509 19.578-22.03.81-.513 1.667-.745 2.571-.694 9.14.448 17.611-.785 25.413-3.699 9.01-3.369 16.69-7.148 23.038-11.334 16.227-10.695 29.34-23.234 40.23-39.677.441-.672 1.023-1.193 1.747-1.562 8.037-4.1 26.791-12.419 33.179-1.54 1.338 2.285 2.126 4.74 2.365 7.365.904 10.015-.738 20.402-4.925 31.162-1.214 3.124 2.289 5.423 4.491 3.102 8.384-8.818 15.38-20.207 16.606-32.334 2.093-20.63-16.563-29.188-33.82-30.305-.607-.036-.694-.271-.26-.705 8.45-8.352 13.471-21.031 7.473-32.377-5.51-10.402-17.614-16.205-29.481-17.105-1.182-.087-2.57-.477-3.536-1.161-5.003-3.514-10.832-5.578-17.484-6.193-28.082-2.571-56.652 4.979-74.885 26.585-.052.061-.119.108-.195.134s-.157.031-.235.014a.42.42 0 0 1-.205-.11c-.056-.054-.095-.124-.113-.201-1.823-6.909-2.777-13.97-2.56-21.378.553-19.285.108-37.811-3.178-56.294-1.128-6.371-2.885-12.683-5.272-18.938-4.468-11.703-15.065-28.006-29.6-24.535-11.074 2.646-19.6 19.057-18.992 29.264.195 3.391.925 7.437 2.191 12.137 1.677 6.24 2.39 13.041 2.137 20.403-.42 12.061-2.217 23.323-5.391 33.787-1.302 4.317-2.31 8.525-3.688 12.701-7.679 23.342-16.577 46.152-26.693 68.431-15.413 33.928-28.505 69.494-33.766 104.93-1.721 11.642-1.923 23.381-.607 35.219.043.368-.022.719-.195 1.052-3.609 7.129-6.924 15.536-9.947 25.218-7.52 24.101-13.204 46.524-17.05 67.27l-3.417 18.852c-1.356 9.002-3.33 18.081-4.653 26.964-5.084 34.066-9.216 68.344-12.398 102.836l-12.831 154.445c-.217 2.939-.857 5.813-1.118 8.731l-6.28 61.825c-.021.204-.117.392-.27.528s-.35.211-.554.21l-274.277.011c-.07-.001-.139-.016-.202-.046s-.118-.074-.163-.127a.48.48 0 0 1-.094-.184c-.018-.068-.02-.139-.007-.207 3.644-18.938 8.156-37.714 14.241-55.947l6.421-19.328c14.448-43.77 31.209-86.162 50.285-127.176 4.425-9.531 9.393-19.043 14.903-28.538 4.505-7.773 8.815-13.467 12.929-17.083 12.105-10.622 26.95-21.346 44.536-32.171 19.039-11.729 36.094-27.044 51.163-45.946 15.222-19.09 29.08-38.639 41.575-58.647 6.953-11.15 13.83-23.559 13.678-36.553-.007-.405.184-.669.575-.792 20.521-6.41 38.039-32.691 35.782-54.385-2.212-21.356-23.45-29.437-41.802-31.379-.441-.05-.618-.289-.532-.715.977-5.265 1.186-10.786.629-16.563-2.017-20.804-21.356-31.347-39.785-34.915a2.03 2.03 0 0 1-.831-.368 2.05 2.05 0 0 1-.59-.695c-9.545-18.559-18.363-37.779-41.021-42.627a1.9 1.9 0 0 1-.795-.384 1.87 1.87 0 0 1-.529-.701c-6.985-16.302-25.099-26.748-41.368-32.811-6.487-2.422-13.161-4.704-20.023-6.844-7.969-2.495-15.641-4.266-23.017-5.315-11.866-1.692-22.177.506-30.934 6.595-1.41.976-2.979 1.699-4.707 2.169-15.977 4.296-27.561 19.871-36.098 34.471-.607 1.041-1.312 1.909-2.527 2.256-7.52 2.14-14.643 5.065-21.368 8.775-.412.224-.694.112-.846-.337-6.24-18.222-13.775-36.256-22.604-54.102-5.326-10.771-10.532-21.542-16.975-31.759-1.591-2.509-3.409-5.036-5.456-7.582-4.837-6.023-9.584-11.606-14.241-16.747-14.882-16.432-42.985-38.028-66.522-31.726-11.845 3.167-18.19 14.881-13.916 26.498 2.896 7.864 8.417 12.127 14.784 16.867 18.363 13.71 26.161 38.136 30.999 60.957 3.08 14.542 5.232 29.355 6.454 44.439l2.288 30.402c1.136 16.335 3.648 31.365 7.539 45.09 1.381 4.873 3.695 11.775 6.942 20.706 3.861 10.608 7.404 21.085 10.629 31.433 1.851 5.944 3.276 11.468 4.274 16.574l3.058 16.877c5.453 32.417 2.34 63.969-9.338 94.658-11.454 30.11-29.113 59.515-47.009 86.761l-46.695 70.243c-39.821 59.301-76.121 118.057-108.899 176.267-.204.361-.513.652-.887.834s-.794.247-1.207.186c-3.417-.51-6.671-.185-10.076-.293a588.3 588.3 0 0 0-45.198.325"/><path d="M1921.59 828.724l-42.51.109c-1.83-.011-3.18-.64-3.33-2.506-3.87-47.059-9.74-93.501-17.59-139.324-10.12-59.063-23.45-113.487-39.99-163.273-12.14-36.564-27.15-72.596-44.72-106.698-21.07-40.884-46.41-78.449-76.03-112.695-27.91-32.28-57.08-58.984-86.72-87.38-8.07-7.73-16.19-16.588-24.34-26.574-5.87-7.181-10.28-15.457-16.94-21.867-12.22-11.758-27.25-18.634-45.06-20.63-1.15-.13-1.88-.835-2.28-1.887-5.61-14.86-4.84-31.521-1.95-47.02 2.03-10.926 4.67-22.702 7.91-35.327 2.46-9.516 4.08-18.609 4.89-27.279 1.22-13.222-3.05-24.795-17.42-28.158-9.04-2.111-17.54-1.96-25.52.456-20.9 6.324-26.18 30.305-27.36 49.265-1.19 19.22.07 37.225 1.72 57.606a352.29 352.29 0 0 1 1.07 20.208c.29 12.343 2 25.196-.73 37.821-.01.046-.01.093.01.137.01.044.04.083.08.112.03.03.08.048.12.054.05.006.09-.001.14-.021 33.21-16.139 87.62-23.515 97.97 25.761a1.71 1.71 0 0 0 .39.77c.2.217.45.378.73.467 7.12 2.256 13.87 5.054 20.25 8.395 12.55 6.551 16.65 16.15 16.73 29.654.03 5.236-.17 10.319-.6 15.251-.02.247.03.495.14.716a1.31 1.31 0 0 0 .5.531c9.71 5.77 18.45 13.634 21.32 24.632 2.91 11.064-.01 24.308-3.04 35.035-.11.383-.02.705.28.965 7.73 6.92 15.41 14.22 21.13 22.821 7.79 11.715 10.64 26.52 10.24 40.827a2.6 2.6 0 0 1-.57 1.534 2.58 2.58 0 0 1-1.39.885c-1.29.325-2.31-.026-3.04-1.053-9.75-13.59-23.23-16.757-38.42-21.411-9.13-2.798-15.34-8.623-14.99-19.1.21-6.306 1.61-13.06 4.2-20.262.13-.392.17-.814.09-1.222a2.38 2.38 0 0 0-.53-1.099c-8.86-10.196-18.63-23.19-19.52-36.26-.25-3.673-.06-7.951.55-12.831.2-1.595.86-2.701 1.21-4.187.1-.42-.03-.76-.37-1.02-7.57-5.72-14.43-11.248-20.6-16.584-6.26-5.424-12.17-12.734-13.68-20.858-1.28-6.888-1.18-14.036-.52-21.097.69-7.365-3.01-10.391-9.24-13.287-5.84-2.711-11.64-5.061-17.39-7.05-32.63-11.28-63.3 4.274-87.75 25.63-14.62 12.767-26.35 25.273-31.55 44.135-3.58 12.973-3.16 30.576 6.29 40.87 5.69 6.204 12.78 7.77 21.25 4.696 1.67-.596 3.45-1.269 4.37-2.906 4.5-8.063 9.57-16.014 15.22-23.852 11.58-16.067 24.21-31.22 37.9-45.458 3.97-4.136 8.38-8.261 13.23-12.376 3.3-2.806 6.45-4.707 9.45-5.705 3.96-1.323 6.45 1.757 5.57 5.488-1.39 5.836-5.84 12.365-9.42 17.214-13.62 18.468-28.87 35.721-45.74 51.759-6.94 6.595-14.2 12.488-21.78 17.68a6.12 6.12 0 0 0-2.04 2.267c-7.15 13.461-13.43 28.809-13.07 44.081.34 15.445 11.13 22.051 25.83 18.905 6.58-1.41 13.42-4.226 20.53-8.449.67-.398 1.16-.933 1.47-1.605 4.85-10.536 10.47-20.345 16.85-29.427 11.45-16.306 24.4-31.893 38.84-46.76 4.25-4.375 8.63-8.088 13.15-11.139 3.63-2.441 9.8-2.864 8.97 3.699-.3 2.473-1.18 5.032-2.63 7.679-2.98 5.438-6.19 10.619-9.64 15.543-11 15.662-21.99 29.358-32.98 41.087-8.28 8.858-17.4 16.584-27.34 23.179-.83.549-1.45 1.305-1.85 2.267-4.14 10.022-7.14 21.53-6.21 32.257.83 9.762 5.52 18.179 15.28 20.468 8.35 1.952 17.75-.727 25.29-4.35.93-.448 1.63-1.088 2.09-1.919 4.68-8.504 9.51-16.23 14.49-23.179 11.83-16.56 25.58-33.039 41.24-49.439 4.19-4.382 8.31-7.878 12.39-10.489 2.12-1.374 4.16-1.453 6.11-.238.35.217.61.551.74.943 1.49 4.697-2.85 11.812-5.3 15.717-10.01 15.887-21.31 30.985-33.91 45.295-9.21 10.449-19.51 19.072-30.9 25.869-.95.564-1.67 1.342-2.17 2.332-4.87 9.61-7.81 18.693-8.84 27.247-2.84 23.754 16.41 32.681 36.89 30.696 12.73-1.23 24.08-5.359 34.05-12.387a.92.92 0 0 0 .23-.258c.06-.102.09-.215.11-.331.01-.117 0-.235-.04-.346a1.05 1.05 0 0 0-.17-.302c-3.48-3.839-5.24-8.775-5.6-14.003-.57-8.518.14-16.027 2.15-22.528 1.5-4.848 5.54-10.499 11.24-9.436 6.35 1.193 9.86 8.699 10.87 14.501 2.1 12.134-.78 22.428-8.63 30.881-.05.057-.09.127-.11.204a.45.45 0 0 0 .01.23c.02.075.06.143.12.196s.13.09.21.107c8.76 1.844 18.73-.868 26.36-5.488.82-.499 1.42-1.208 1.8-2.126 1.4-3.326 3.03-6.457 4.9-9.393 8.34-13.132 17.89-25.714 28.65-37.746 3.04-3.392 6.37-6.324 9.98-8.797 3.47-2.375 8.69-1.931 8.46 3.525-.26 6.465-5.63 14.632-9.28 19.828-8.56 12.148-18.47 22.752-29.75 31.813-2.76 2.213-5.61 4.158-8.55 5.835a2.63 2.63 0 0 0-1.19 1.41c-8.05 21.661 14.82 21.661 28.33 20.587a1.54 1.54 0 0 0 .9-.38c12.57-11.135 25.73-20.839 39.48-29.112 4.74-2.852 23.3-13.612 26.39-4.306 1.65 4.979-4.85 12.376-8.27 15.402-12.07 10.666-25.86 17.814-41.37 21.444-3.39.795-7.69 1.5-12.87 2.115a1.62 1.62 0 0 0-1.07.564c-4.34 4.997-5.33 10.756-2.99 17.279 2.82 7.867 5.52 15.796 8.08 23.786 2.73 8.489 5.41 19.694 8.04 33.614 2.5 13.146 4.5 27.217 6.01 42.214 2.45 24.261 3.89 48.897 4.33 73.909.05 3.048-.21 6.041.03 9.089.2 2.596.31 5.167.31 7.712.14 43.618-1.15 88.548-3.86 134.79-.11 1.765-1.04 2.647-2.81 2.647h-517.19c-.69-.001-1.35-.261-1.85-.728s-.81-1.106-.85-1.788l-4.97-71.338c-2.53-36.098-3.48-72.553 2.21-107.566 2.87-17.622 7.62-35.717 14.23-54.287 1.27-3.572 2.26-7.415 2.96-11.53.07-.404-.1-.639-.51-.704-14.14-2.322-29.26-5.782-42.33-11.4-3.13-1.345-5.97-3.081-8.52-5.207-8.08-6.768-.28-13.048 6.34-14.697 12.53-3.116 24.45-2.512 35.77 1.812 11.35 4.346 16.59 12.321 15.72 23.927-.01.056 0 .111.02.164s.05.1.08.141c.04.041.09.074.14.096a.38.38 0 0 0 .16.033c21.1.043 56.53-8.037 62.77-31.997.06-.236.05-.484-.04-.709a1.1 1.1 0 0 0-.46-.539c-4.63-2.841-8.87-6.294-12.73-10.358-9.66-10.174-18.54-22.196-26.64-36.065-1.41-2.408.72-4.989 3.32-4.1 8.85 3.073 16.15 6.877 21.89 11.411 10.65 8.384 20.39 21.78 20.58 35.663.01.427.21.72.61.879 3.32 1.381 6.8 1.757 10.41 1.128.14-.024.26-.1.34-.211s.11-.25.09-.386c-1.39-9.404 6.58-21.921 12.52-28.7 3.07-3.507 7.12-7.408 12.14-11.703 2.24-1.92 5.34-.336 4.6 2.657-3.54 14.372-9.43 31.347-20.82 40.154-.03.021-.05.05-.07.084-.01.033-.01.07-.01.107.01.036.02.07.05.097.02.028.05.048.09.059 3.13 1.049 6.41 1.338 9.84.868 13.09-1.793 25.38-5.828 36.86-12.105 17.36-9.491 33.48-27.875 19.41-48.343-.09-.125-.21-.224-.34-.287-.14-.063-.29-.088-.44-.071-10.16 1.02-20.43-.188-30.82-3.623-16.44-5.423-32.26-13.742-47.46-24.958-4.34-3.199-13.27-10.141-14.26-15.695-2.09-11.768 23.28.228 26.99 1.931 22.26 10.174 44.98 23.212 66.52 35.62.88.506 1.76.676 2.63.51 7.39-1.403 13.58-4.288 18.59-8.655 12.12-10.598 11.52-23.993 3.04-36.456a2.16 2.16 0 0 0-.79-.701 2.23 2.23 0 0 0-1.03-.253c-10.75.043-21.42-2.831-31.05-7.105-17.85-7.932-34.01-17.839-48.48-29.719-3.4-2.788-19.1-16.845-9.09-20.869 6.43-2.592 22.69 5.89 28.49 8.981 17.13 9.118 34.28 19.798 51.43 32.041 4.19 2.986 8.07 6.421 11.64 10.304a2.03 2.03 0 0 0 .81.536c.31.111.64.147.96.104 24.42-3.233 32.75-24.297 24.89-45.653-2.95-8.049-7.88-15.699-14.78-22.952-.3-.311-.65-.419-1.07-.325-12.61 2.885-27.21-1.172-38.82-7.278-15.05-7.918-29.76-17.778-44.12-29.579-3.59-2.95-10.44-9.36-9.64-14.404 1.32-8.222 19.02-.401 23.06 1.486 19.27 9.01 38.29 19.636 57.04 31.878a109.49 109.49 0 0 1 14.08 10.912 1.63 1.63 0 0 0 .87.412 1.62 1.62 0 0 0 .94-.141c10.71-5.127 15.76-13.992 15.16-26.596-1.2-25.359-23.55-41.835-43.11-53.766-18.17-11.086-35.12-20.189-50.84-27.312-4.73-2.148-9.77-4.151-15.09-6.009a2.69 2.69 0 0 0-1.87.043c-4.62 1.859-8.96 4.209-13.01 7.051-13.87 9.762-15.81 23.038-10.77 38.006 3.03 8.959 7.29 17.213 12.11 25.099 1 1.638.5 3.33-1.21 4.143-11.62 5.554-24.7 14.546-23.97 29.091.28 5.3 1.54 10.991 3.78 17.072 2.51 6.834 4.79 12.691 6.83 17.572a2.1 2.1 0 0 1 .02 1.577c-.19.509-.58.92-1.08 1.145-15.79 7.195-23.33 19.759-22.63 37.692.63 16.357 6.54 32.507 12.81 48.039.16.386.22.802.19 1.216a2.84 2.84 0 0 1-.35 1.175c-.21.36-.49.669-.83.903-.35.234-.74.387-1.14.448a179.74 179.74 0 0 0-18.25 3.699c-11.98 3.07-18.43 11.725-25.78 20.75-.88 1.084-1.95 1.442-3.21 1.073a2.54 2.54 0 0 1-1.29-.876c-.32-.421-.51-.935-.52-1.466l-.25-16.476c-.04-7.029.49-12.615 1.57-16.758 1.64-6.327 4.51-12.427 8.59-18.298.23-.326.19-.622-.1-.89-8.77-8.07-16.99-18.298-21.32-29.741-7.69-20.283 2.27-39.026 16.81-52.931.18-.164.29-.379.34-.614a1.2 1.2 0 0 0-.09-.699c-3.49-7.571-6.73-15.33-9.72-23.276-2.28-6.096-3.23-11.863-2.85-17.301.84-12.029 10.16-24.48 17.18-33.874a.98.98 0 0 0 .12-1.063c-11.24-25.565.01-41.9 24.62-49.145 17.02-5.004 33.5-4.979 49.46.076.49.151.79-.015.9-.499 4.23-17.774 6.73-35.722 7.51-53.843 1.71-40.23-8.74-85.102-48.66-103.855-8.1-3.807-16.92-3.135-21.04 5.933-2.09 4.599-3.49 9.61-4.19 15.033-1.76 13.493-1.7 28.418-.9 42.388l2.89 52.107c.39 7.535.42 15.619.08 24.253-.27 6.884-1.55 12.662-3.83 17.333-3.13 6.428-6.93 11.631-11.37 15.608-3.94 3.504-9.06 5.022-13.55 7.582-9.26 5.282-17.28 15.771-23.11 24.535-9.67 14.52-18.99 30.446-27.97 47.779-37.21 71.847-68.86 143.522-93.64 217.94-30.182 90.655-52.569 187.83-71.724 283.627-.115.583-.43 1.108-.891 1.486s-1.039.584-1.636.585l-139.693-.011c-1.526 0-2.903-.072-4.133-.217-.509-.059-.978-.305-1.317-.692a2.09 2.09 0 0 1-.516-1.401l2.831-263.083c.051-6.978-.032-14.209-.249-21.693-.618-21.097-.38-42.584-3.612-63.485-.025-.155-.108-.294-.231-.387a.58.58 0 0 0-.431-.112 54.54 54.54 0 0 1-14.024-.011c-25.436-3.287-37.464-23.711-35.805-48.311.109-1.583-.166-3.145-.824-4.685-5.434-12.658-4.295-27.627 1.583-40.024 4.968-10.464 11.932-21.632 20.891-33.505 1.041-1.374 2.361-2.542 3.959-3.504 2.907-1.746 5.456.597 5.336 3.591-.057 1.525-.292 2.975-.705 4.349-3.883 12.907-10.163 24.915-15.337 37.008-4.324 10.109-7.317 20.613-8.981 31.51-.144.976.008 1.92.456 2.831 4.36 8.872 9.314 16.602 14.86 23.19 4.664 5.542 10.597 9.642 17.398 10.89 7.343 1.355 12.495 1.355 15.358 9.545.066.192.2.353.378.449s.383.122.577.071c16.537-4.259 28.711-13.811 36.52-28.656.15-.285.195-.613.125-.927a1.35 1.35 0 0 0-.504-.787c-7.712-5.781-18.873-18.96-14.47-29.069 1.83-4.187 5.174-6.342 10.033-6.465 7.864-.206 13.841 6.573 14.502 14.22.492 5.641-.188 11.639-2.039 17.995a.94.94 0 0 0-.032.398c.017.134.063.262.133.377s.165.213.277.289a.96.96 0 0 0 .37.151c6.487 1.135 12.662.386 18.526-2.246a97.72 97.72 0 0 0 17.398-10.098l29.308-21.921c11.15-8.554 20.254-17.925 27.311-28.114 1.562-2.249 2.925-4.693 4.089-7.332.217-.478.084-.619-.401-.423-21.136 8.728-42.207 15.908-63.214 21.541a144.17 144.17 0 0 1-21.617 4.046c-8.699.947-15.811.119-21.335-2.484-7.831-3.688-10.109-11.432-6.649-19.123 3.363-7.495 10.326-14.002 17.17-18.016 16.154-9.451 34.655-18.33 55.502-26.639 13.717-5.467 25.974-9.097 36.77-10.89 16.422-2.733 34.47.401 29.416 22.528-.29 1.28-.076 1.371.64.272 9.208-14.177 4.371-27.681-10.803-34.08-2.835-1.201-5.608-2.17-8.32-2.907-.343-.093-.664-.255-.943-.476s-.508-.497-.674-.811a2.56 2.56 0 0 1-.295-1.011c-.028-.353.017-.708.133-1.043 2.831-8.319 10.923-35.501-4.805-36.509-2.719-.181-5.329.043-7.831.672-15.304 3.829-28.396 12.517-42.356 19.274-23.504 11.378-45.197 22.409-66.641 35.382-.177.107-.326.255-.434.433s-.171.379-.184.586c-.543 8.873-.445 17.431 6.182 24.177l8.135 8.125c3.005 2.928-.119 5.238-2.419 6.692-9.009 5.72-18.75 7.643-29.22 5.77-4.982-.889-8.876-3.069-11.682-6.54-6.822-8.45-1.855-20.294 4.914-27.561 2.863-3.081 6.088-5.792 9.675-8.135 1.301-.854 1.175-1.345-.38-1.475-12.094-.987-21.986-6.78-23.83-19.101-2.006-13.385 8.612-25.999 18.841-32.995.054-.035.098-.084.126-.142s.039-.123.033-.188-.032-.125-.071-.176-.093-.09-.153-.113c-9.43-3.659-14.083-9.96-13.96-18.905.141-9.762 6.79-19.329 13.894-25.837 8.472-7.766 17.214-15.304 25.034-23.548 11.1-11.685 21.397-24.556 30.891-38.613 6.693-9.903 15.045-16.747 26.954-19.188.09-.018.172-.06.239-.122a.48.48 0 0 0 .134-.498c-.026-.088-.077-.166-.145-.226-.318-.282-.691-.466-1.117-.553-28.765-5.532-62.52 1.735-80.395 26.574-.165.229-.274.493-.319.772a1.82 1.82 0 0 0 .059.833c2.375 7.474 4.306 15.196 4.241 23.017-.073 7.91-.915 15.311-2.528 22.203-.752 3.217-1.966 5.965-3.644 8.243-5.456 7.408-11.986 1.692-14.155-4.404-2.039-5.72-2.56-12.032-1.562-18.938 1.678-11.562 5.377-22.051 11.096-31.466a1.57 1.57 0 0 0 .163-1.356c-3.048-10-4.339-19.133-3.883-29.947.528-12.56.181-25.016-1.041-37.366-1.551-15.641-4.599-31.91-13.038-44.482-3.427-5.12-9.74-11.291-16.53-9.946-8.167 1.616-13.211 11.769-14.99 19.047-.672 2.733-.662 5.629.033 8.688 1.453 6.443 3.21 12.756 3.655 19.415.651 9.711-.073 19.466-2.17 29.264-1.988 9.248-4.074 17.586-6.258 25.012-5.402 18.338-12.571 37.724-21.509 58.159l-15.38 35.707c-8.403 19.82-15.265 40.873-20.587 63.159-3.634 15.262-5.814 32.128-4.588 48.148a.37.37 0 0 0 .063.18.38.38 0 0 0 .143.127.39.39 0 0 0 .186.041.38.38 0 0 0 .183-.055c2.892-1.764 5.694-2.158 8.406-1.182 9.48 3.406 18.678 21.823 16.931 31.032-1.464 7.734-8.438 8.373-14.057 4.718-6.757-4.404-11.606-11.823-14.176-19.448-.42-1.251-.861-1.258-1.323-.021-7.08 18.938-13.031 38.856-17.854 59.753l-5.13 22.713c-1.692 7.658-2.94 15.131-4.306 22.724-1.034 5.712-1.978 11.446-2.831 17.202-6.928 46.742-12.496 95.435-16.704 146.082l-6.844 82.152c-.608 7.18-1.66 14.393-2.115 21.606-1.888 29.557-4.925 59.103-8.352 88.616-.069.58-.349 1.114-.787 1.501a2.4 2.4 0 0 1-1.589.604l-281.066.01c-2.249 0-3.236-1.117-2.962-3.351 1.79-14.383 5.608-29.731 9.708-42.703l10.239-33.494c14.224-43.148 30.19-84.155 47.899-123.022 7.332-16.107 15.207-32.062 24.849-46.326 2.56-3.774 5.449-7.054 8.667-9.837 14.512-12.517 30.185-23.028 46.325-33.299 14.589-9.285 27.605-20.11 39.015-32.996 10.572-11.945 21.017-25.341 31.336-40.186 7.191-10.337 14.231-20.565 20.836-31.52 5.282-8.764 10.402-18.646 11.151-29.145.043-.622-.246-.951-.868-.987-11.331-.694-19.043-6.175-23.136-16.443-1.085-2.719-1.161-5.489-.228-8.309 1.226-3.709 5.369-4.425 8.602-2.939 7.928 3.655 15.836 13.948 19.816 20.955.059.097.149.171.256.208s.224.037.33-.002c6.515-2.523 12.264-6.526 17.246-12.007 11.638-12.82 20.728-33.971 9.155-49.026-6.845-8.884-19.85-12.734-30.881-13.84a76.57 76.57 0 0 1-5.228-.695c-.586-.099-1.111-.419-1.467-.894s-.514-1.067-.442-1.655c.196-1.525.554-2.997 1.074-4.414 1.02-2.733.564-5.738.824-8.645a22.78 22.78 0 0 0-.021-4.328c-2.007-20.847-20.001-28.461-37.909-32.268a3.44 3.44 0 0 1-1.396-.639c-.412-.316-.746-.72-.979-1.183-2.958-5.865-6.114-11.776-9.469-17.734-7.083-12.582-16.27-21.639-31.195-24.221-.447-.075-.865-.27-1.21-.564a2.52 2.52 0 0 1-.753-1.106c-2.437-7.108-7.08-13.219-13.927-18.331-8.75-6.53-19.304-12.003-31.661-16.422-6.711-2.393-13.794-4.479-21.249-6.258-12.463-2.972-21.704-4.642-33.147-1.204-1.041.311-1.027.55.043.716 9.878 1.555 19.065 5.897 27.562 13.027 7.65 6.421 15.029 13.576 22.137 21.465.174.195.402.334.656.398s.52.05.765-.04c34.937-12.886 61.544 15.011 64.234 47.866.036.47.285.694.748.672 10.792-.477 21.238 2.083 28.19 9.892 8.113 9.122 11.096 23.765 12.821 35.447.26 1.724 1.464 2.57 3.015 3.059 6.74 2.082 13.016 4.606 18.83 7.57 12.343 6.291 24.155 23.028 16.009 37.193-4.266 7.405-10.843 11.132-19.73 11.183-11.204.065-20.868-9.154-25.142-18.819-3.543-8.019-6.157-16.624-7.842-25.815a1.27 1.27 0 0 0-.414-.722c-.214-.187-.485-.295-.768-.308-10.283-.369-22.181-1.627-29.969-9.068-8.623-8.232-9.838-21.237-10.38-32.832-.004-.082-.025-.163-.062-.236s-.088-.138-.151-.191a.6.6 0 0 0-.217-.112.57.57 0 0 0-.243-.014c-3.044.448-6.117.846-9.219 1.193-13.703 1.504-24.973-2.925-33.809-13.287-6.595-7.73-12.683-16.379-18.266-25.945-.484-.832-1.197-1.15-2.137-.955-9.357 2.003-17.408 2.712-24.155 2.126-3.355-.289-7.238-1.135-11.649-2.538-2.987-.947-5.713-2.448-8.178-4.501-13.819-11.498-21.238-29.655-12.951-46.402.026-.05.035-.106.026-.161a.26.26 0 0 0-.076-.145c-.04-.039-.092-.064-.147-.072s-.112.004-.161.031c-11.823 6.4-20.609 19.133-27.138 30.663-.673 1.204-1.703 2.495-3.091 2.864-7.68 2.046-15.352 5.148-23.017 9.306-.235.128-.418.335-.517.587a1.18 1.18 0 0 0-.025.791c3.847 12.047 5.933 23.135 6.258 33.266.336 10.207-2.592 22.203-11.616 27.691-4.664 2.831-11.064 2.69-15.468-.531-4.75-3.485-7.643-8.507-8.677-15.066-3.2-20.24 5.272-37.746 22.387-48.387.333-.209.438-.502.315-.878-7.311-21.144-16.53-42.642-27.659-64.494-3.398-6.681-6.829-12.932-10.293-18.753-7.014-11.787-15.854-22.565-26.52-32.334-10.174-9.328-20.402-17.073-32.811-21.878-9.219-3.579-24.144-5.911-30.934 3.579-4.339 6.063-2.69 13.71 1.703 19.339 2.809 3.59 6.811 6.161 10.423 9.003 15.077 11.833 23.472 29.926 28.418 48.007 5.098 18.649 8.468 37.464 10.109 56.445l2.603 34.395c1.309 21.179 5.651 41.781 13.027 61.803 4.935 13.385 8.265 22.626 11.042 32.724l2.44 8.678c2.618 9.046 4.751 18.88 6.4 29.502 4.83 31.13 2.14 61.2-8.07 90.211-9.447 26.856-24.73 54.125-40.349 78.584-13.804 21.62-30.559 47.019-50.263 76.197-40.566 60.068-78.016 120.317-112.349 180.747-1.186 2.082-2.422 4.1-3.709 6.052-.206.316-.488.576-.822.756a2.3 2.3 0 0 1-1.087.275l-58.637-.044"/></svg>