<svg xmlns="http://www.w3.org/2000/svg" width="1683" height="938" fill="none" xmlns:v="https://vecta.io/nano"><mask id="A" maskUnits="userSpaceOnUse" x="67" y="34" width="1502" height="880"><path d="M67.825 341.657L1440.27 34.598l128 572.113L195.825 913.77l-128-572.113z" fill="#fff"/></mask><g mask="url(#A)"><mask id="B" maskUnits="userSpaceOnUse" x="60" y="-13" width="1514" height="973"><path d="M60.013 415.011L1400.07-12.907l173.79 544.262L233.805 959.272 60.013 415.011z" fill="#fff"/></mask><g mask="url(#B)"><mask id="C" maskUnits="userSpaceOnUse" x="60" y="-15" width="1519" height="975"><path d="M60.013 415.01L1404.25-14.24l173.87 544.5L233.884 959.51 60.013 415.01z" fill="#fff"/></mask><g mask="url(#C)"><mask id="D" maskUnits="userSpaceOnUse" x="141" y="126" width="1353" height="694"><path d="M730.575 200.881C360.227 319.144 98.929 536.91 146.944 687.268s387.167 176.374 757.503 58.113C1274.79 627.117 1536.1 409.364 1488.08 259.006c-48.01-150.358-387.16-176.389-757.505-58.125z" fill="#fff"/></mask><g mask="url(#D)"><path d="M730.575 200.881C360.227 319.145 98.929 536.91 146.944 687.268s387.167 176.374 757.503 58.113C1274.79 627.117 1536.1 409.364 1488.08 259.006c-48.01-150.358-387.16-176.389-757.505-58.125z" stroke="#d4e19f" stroke-width="9.602"/></g></g></g></g><mask id="E" maskUnits="userSpaceOnUse" x="1345" y="118" width="285" height="284"><path d="M1345.95 170.598l231.35-51.76 51.76 231.347-231.35 51.759-51.76-231.346z" fill="#fff"/></mask><g mask="url(#E)"><mask id="F" maskUnits="userSpaceOnUse" x="1357" y="131" width="260" height="260"><path d="M1357.51 156.613l233.91-25.033 25.04 233.927-233.92 25.021-25.03-233.915z" fill="#fff"/></mask><g mask="url(#F)"><mask id="G" maskUnits="userSpaceOnUse" x="1357" y="131" width="260" height="260"><path d="M1357.51 156.613l233.91-25.033 25.04 233.927-233.92 25.021-25.03-233.915z" fill="#fff"/></mask><g mask="url(#G)"><path d="M1496.18 263.965l50.14-6.114c19.49-2.63 38.96-5.474 58.37-9.032-19.71.639-39.34 1.966-58.96 3.522l-50.31 4.638 31.15-39.784c11.93-15.645 23.68-31.432 34.89-47.647-13.49 14.38-26.44 29.201-39.21 44.164l-32.29 38.859-6.1-50.158c-2.65-19.49-5.49-38.961-9.03-58.353.62 19.711 1.96 39.339 3.5 58.947l4.65 50.305-39.78-31.147c-15.65-11.926-31.43-23.667-47.66-34.873 14.38 13.491 29.2 26.435 44.17 39.207l38.85 32.277-50.14 6.103c-19.5 2.63-38.96 5.485-58.36 9.043 19.71-.627 39.34-1.954 58.95-3.509l50.3-4.648-31.14 39.769c-11.93 15.645-23.68 31.432-34.87 47.669 13.49-14.38 26.43-29.214 39.2-44.176l32.28-38.845 6.11 50.146c2.63 19.493 5.47 38.964 9.04 58.362-.63-19.71-1.97-39.35-3.52-58.956l-4.64-50.307 39.77 31.149c15.66 11.912 31.43 23.668 47.66 34.874-14.38-13.492-29.21-26.421-44.18-39.192l-38.84-32.293z" fill="#d4e19f"/></g></g></g><mask id="H" maskUnits="userSpaceOnUse" x="75" y="25" width="1496" height="897"><path d="M75.106 330.18L1438.17 25.219l132.2 590.871L207.302 921.051 75.106 330.18z" fill="#fff"/></mask><g mask="url(#H)"><mask id="I" maskUnits="userSpaceOnUse" x="62" y="-48" width="1519" height="1041"><path d="M62.327 459.683L1374.57-47.16l205.85 532.96L268.176 992.643 62.327 459.683z" fill="#fff"/></mask><g mask="url(#I)"><mask id="J" maskUnits="userSpaceOnUse" x="62" y="-49" width="1523" height="1042"><path d="M62.326 459.683L1378.66-48.728l205.94 533.197L268.267 992.879 62.326 459.683z" fill="#fff"/></mask><g mask="url(#J)"><mask id="K" maskUnits="userSpaceOnUse" x="157" y="104" width="1330" height="737"><path d="M718.975 206.066C356.313 346.128 108.431 579.037 165.291 726.288c56.87 147.236 396.965 153.049 759.625 12.974s610.544-372.983 553.674-520.219c-56.86-147.238-396.95-153.052-759.615-12.977z" fill="#fff"/></mask><g mask="url(#K)"><path d="M711.681 214.046l-4.501 1.776-3.524-8.931 4.513-1.78 3.512 8.935zm-8.962 3.557l-4.484 1.798-3.573-8.921 4.483-1.798 3.574 8.921zm-8.931 3.588l-4.453 1.817-3.619-8.898 4.453-1.817 3.619 8.898zm-8.87 3.626l-4.426 1.824-3.678-8.872 4.439-1.827 3.665 8.875zm-8.826 3.654l-4.406 1.858-3.714-8.864 4.409-1.845 3.711 8.851zm-8.775 3.707l-4.379 1.865-3.76-8.841 4.379-1.864 3.76 8.84zm-8.721 3.721l-4.349 1.884-3.816-8.803 4.361-1.886 3.804 8.805zm-8.787 3.826l-4.448 1.956-3.865-8.791 4.448-1.957 3.865 8.792zm-8.847 3.902l-4.418 1.976-3.923-8.765 4.418-1.976 3.923 8.765zm-8.8 3.944l-4.39 1.982-3.97-8.742 4.391-1.982 3.969 8.742zm-8.742 3.969l-4.358 2.014-4.018-8.732 4.361-2.001 4.015 8.719zm-8.683 4.007l-4.328 2.033-4.064-8.708 4.331-2.021 4.061 8.696zm-8.622 4.045l-4.302 2.04-4.119-8.67 4.301-2.04 4.12 8.67zm-8.566 4.071l-4.271 2.058-4.166-8.647 4.271-2.058 4.166 8.647zm-8.564 4.135l-4.368 2.144-4.215-8.636 4.371-2.132 4.212 8.624zm-8.714 4.27l-4.337 2.163-4.273-8.61 4.352-2.154 4.258 8.601zm-8.641 4.306l-4.311 2.17-4.316-8.575 4.31-2.17 4.317 8.575zm-8.585 4.331l-4.28 2.189-4.363-8.552 4.281-2.189 4.362 8.552zm-8.512 4.367l-4.238 2.205-4.421-8.526 4.238-2.205 4.421 8.526zm-8.443 4.389l-4.209 2.224-4.479-8.5 4.211-2.212 4.477 8.488zm-8.383 4.428l-4.17 2.228-4.522-8.465 4.169-2.228 4.523 8.465zm-8.346 4.483l-4.29 2.319-4.58-8.439 4.302-2.322 4.568 8.442zm-8.54 4.642l-4.26 2.338-4.624-8.403 4.257-2.351 4.627 8.416zm-8.469 4.677l-4.218 2.355-4.682-8.378 4.218-2.354 4.682 8.377zm-8.384 4.71l-4.176 2.371-4.741-8.352 4.188-2.373 4.729 8.354zm-8.303 4.73l-4.136 2.375-4.797-8.314 4.134-2.387 4.799 8.326zm-8.233 4.753l-4.095 2.391-4.84-8.278 4.092-2.403 4.843 8.29zm-8.137 4.783l-4.065 2.41-4.898-8.253 4.052-2.407 4.911 8.25zm-8.18 4.882l-4.194 2.516-4.954-8.215 4.18-2.525 4.968 8.224zm-8.325 5.03l-4.138 2.541-5.024-8.185 4.15-2.545 5.012 8.189zm-8.226 5.072l-4.099 2.545-5.08-8.147 4.096-2.558 5.083 8.16zm-8.148 5.08l-4.044 2.559-5.135-8.11 4.056-2.561 5.123 8.112zm-8.036 5.119l-4.005 2.563-5.191-8.071 4.002-2.576 5.194 8.084zm-7.958 5.127l-3.959 2.592-5.25-8.046 3.963-2.579 5.246 8.033zm-7.861 5.157l-4.019 2.669-5.315-7.992 4.029-2.684 5.305 8.007zm-8.055 5.38l-4.057 2.729-5.37-7.955 4.042-2.738 5.385 7.964zm-8.041 5.441l-3.99 2.739-5.438-7.913 3.99-2.74 5.438 7.914zm-7.92 5.465l-3.949 2.756-5.491-7.864 3.937-2.752 5.503 7.86zm-7.824 5.495l-3.885 2.754-5.559-7.822 3.885-2.754 5.559 7.822zm-7.706 5.507l-3.83 2.768-5.627-7.782 3.831-2.768 5.626 7.782zm-7.588 5.519l-3.81 2.802-5.691-7.729 3.795-2.811 5.706 7.738zm-7.723 5.716l-3.92 2.942-5.771-7.686 3.92-2.941 5.771 7.685zm-7.781 5.857l-3.853 2.953-5.837-7.633 3.853-2.952 5.837 7.632zm-7.636 5.876l-3.802 2.954-5.899-7.567 3.787-2.963 5.914 7.576zm-7.518 5.888l-3.723 2.962-5.977-7.511 3.721-2.974 5.979 7.523zm-7.388 5.898l-3.656 2.972-6.054-7.455 3.669-2.975 6.041 7.458zm-7.242 5.916l-3.68 3.042-6.131-7.4 3.68-3.042 6.131 7.4zm-7.428 6.176l-3.743 3.158-6.206-7.331 3.743-3.159 6.206 7.332zm-7.413 6.3l-3.664 3.167-6.28-7.264 3.664-3.166 6.28 7.263zm-7.258 6.305l-3.598 3.177-6.355-7.196 3.586-3.174 6.367 7.193zm-7.104 6.308l-3.519 3.185-6.441-7.125 3.522-3.173 6.438 7.113zm-6.946 6.324l-3.43 3.179-6.526-7.042 3.431-3.179 6.525 7.042zm-6.856 6.381l-3.585 3.406-6.609-6.959 3.585-3.406 6.609 6.959zm-7.09 6.767l-3.495 3.411-6.693-6.876 3.494-3.411 6.694 6.876zm-6.897 6.775l-3.406 3.404-6.789-6.791 3.406-3.403 6.789 6.79zm-6.72 6.761l-3.303 3.407-6.883-6.693 3.303-3.406 6.883 6.692zm-6.513 6.767l-3.215 3.399-6.989-6.592 3.215-3.4 6.989 6.593zm-6.338 6.752l-3.339 3.645-7.079-6.482 3.339-3.645 7.079 6.482zm-6.595 7.259l-3.246 3.663-7.182-6.37 3.245-3.662 7.183 6.369zm-6.39 7.264l-3.13 3.663-7.298-6.254 3.145-3.653 7.283 6.244zm-6.149 7.249l-3.017 3.65-7.408-6.114 3.018-3.65 7.407 6.114zm-5.921 7.236l-2.905 3.638-7.517-5.974 2.902-3.65 7.52 5.986zm-5.765 7.304l-3.028 3.948-7.624-5.822 3.025-3.959 7.627 5.833zm-5.908 7.811l-2.876 3.939-7.756-5.664 2.876-3.939 7.756 5.664zm-5.631 7.787l-2.724 3.93-7.885-5.494 2.739-3.921 7.87 5.485zm-5.333 7.746l-2.587 3.912-8.008-5.299 2.587-3.913 8.008 5.3zm-5.044 7.719l-2.554 4.06-8.131-5.106 2.554-4.059 8.131 5.105zm-5.067 8.187l-2.501 4.24-8.27-4.869 2.5-4.24 8.271 4.869zm-4.847 8.368l-2.29 4.154-8.445-4.561 2.35-4.283 8.385 4.69zm-4.481 8.286l-2.094 4.111-8.591-4.298 2.167-4.242 8.518 4.429zm-4.112 8.217l-1.988 4.24-8.72-4.012 2.059-4.384 8.649 4.156zm-3.981 8.687l-1.877 4.447-8.875-3.67 1.958-4.606 8.794 3.829zm-3.648 8.856l-1.648 4.383-9.02-3.291 1.72-4.578 8.948 3.486zm-3.199 8.743l-1.425 4.346-9.152-2.902 1.498-4.541 9.079 3.097zm-2.741 8.667l-1.301 4.676-9.283-2.462 1.366-4.896 9.218 2.682zm-2.467 9.323l-1.034 4.604-9.403-1.961 1.093-4.861 9.344 2.218zm-1.919 9.188l-.754 4.541-9.488-1.429.793-4.82 9.449 1.708zm-1.364 9.038l-.48 4.557-9.564-.848.515-4.86 9.529 1.151zm-.82 9.288l-.193 4.698-9.588-.215.185-5.017 9.596.534zm-.202 9.355l.131 4.6-9.59.465-.144-4.943 9.603-.122zm.446 9.158l.461 4.526-9.523 1.169-.513-4.873 9.575-.822zm1.113 9.1l.837 4.544-9.42 1.915-.895-4.916 9.478-1.543zm1.839 9.026l1.177 4.456-9.229 2.655-1.283-4.817 9.335-2.294zm2.546 8.856l1.537 4.349-8.974 3.393-1.683-4.714 9.12-3.028zm3.265 8.631l1.89 4.206-8.686 4.11-2.045-4.556 8.841-3.76zm3.94 8.325l2.21 4.032-8.314 4.797-2.399-4.362 8.503-4.467zm4.595 7.987l2.542 3.855-7.913 5.438-2.756-4.179 8.127-5.114zm5.197 7.583l2.782 3.609-7.493 5.998-2.997-3.882 7.708-5.725zm5.725 7.131l3.083 3.465-7.044 6.513-3.318-3.707 7.279-6.271zm6.327 6.843l3.379 3.296-6.58 6.986-3.622-3.524 6.823-6.758zm6.828 6.448l3.443 2.949-6.147 7.376-3.65-3.133 6.354-7.192zm6.999 5.834l3.695 2.815-5.724 7.718-3.897-2.975 5.926-7.558zm7.503 5.566l3.944 2.67-5.297 8.02-4.146-2.83 5.499-7.86zm8.005 5.288l3.963 2.409-4.884 8.261-4.169-2.53 5.09-8.14zm7.908 4.681l4.034 2.213-4.528 8.476-4.211-2.315 4.705-8.374zm8.173 4.377l4.241 2.104-4.171 8.64-4.412-2.181 4.342-8.563zm8.581 4.133l4.431 1.984-3.825 8.806-4.603-2.06 3.997-8.73zm8.866 3.864l4.217 1.711-3.516 8.93-4.371-1.767 3.67-8.874zm8.508 3.354l4.375 1.612-3.237 9.033-4.513-1.657 3.375-8.988zm8.826 3.168l4.529 1.5-2.957 9.138-4.67-1.559 3.098-9.079zm9.096 2.94l4.743 1.427-2.764 9.197-4.743-1.427 2.764-9.197zm9.374 2.75l4.463 1.207-2.517 9.27-4.466-1.219 2.52-9.258zm8.873 2.349l4.584 1.116-2.297 9.337-4.574-1.131 2.287-9.322zm9.118 2.179l4.695 1.04-2.07 9.375-4.695-1.039 2.07-9.376zm9.349 2.012l4.819.961-1.856 9.417-4.818-.961 1.855-9.417zm9.597 1.854l4.791.839-1.668 9.452-4.791-.839 1.668-9.452zm9.281 1.591l4.636.719-1.493 9.49-4.627-.734 1.484-9.475zm9.225 1.398l4.711.652-1.309 9.513-4.725-.661 1.323-9.504zm9.399 1.257l4.809.578-1.15 9.529-4.81-.578 1.151-9.529zm9.584 1.113l4.897.507-.994 9.545-4.896-.507.993-9.545zm9.755.959l4.723.418-.836 9.561-4.72-.406.833-9.573zm9.304.778l4.695.348-.706 9.57-4.679-.338.69-9.58zm9.354.652l4.753.27-.56 9.589-4.757-.282.564-9.577zm9.489.518l4.831.215-.42 9.583-4.843-.212.432-9.586zm9.642.395l4.894.149-.291 9.593-4.905-.147.302-9.595zm9.767.264l4.855.094-.175 9.592-4.853-.081.173-9.605zm9.456.141l4.702.038-.059 9.593-4.699-.026.056-9.605zm9.381.03l4.752-.024.059 9.604-4.765.028-.046-9.608zm9.484-.083l4.804-.074.162 9.607-4.805.074-.161-9.607zm9.589-.183l4.867-.14.265 9.61-4.858.125-.274-9.595zm9.704-.299l4.92-.19.378 9.597-4.92.19-.378-9.597zm9.735-.395l4.678-.239.469 9.602-4.669.224-.478-9.587zm9.329-.485l4.722-.274.566 9.581-4.721.274-.567-9.581zm9.423-.582l4.763-.322.654 9.574-4.759.334-.658-9.586zm9.505-.677l4.803-.37.745 9.579-4.803.37-.745-9.579zm9.588-.761l4.854-.432.833 9.572-4.856.42-.831-9.56zm9.68-.87l4.894-.48.921 9.566-4.896.467-.919-9.553zm9.635-.951l4.673-.494 1.007 9.546-4.672.495-1.008-9.547zm9.328-1.009l4.704-.527 1.095 9.539-4.716.53-1.083-9.542zm9.387-1.087l4.745-.575 1.168 9.523-4.741.587-1.172-9.535zm9.471-1.17l4.77-.632 1.248 9.531-4.773.619-1.245-9.518zm9.526-1.272l4.813-.667 1.321 9.514-4.814.667-1.32-9.514zm9.6-1.34l4.841-.712 1.395 9.498-4.842.712-1.394-9.498zm9.666-1.445l4.635-.716 1.47 9.493-4.647.72-1.458-9.497zm9.268-1.445l4.677-.764 1.531 9.48-4.677.764-1.531-9.48zm9.326-1.535l4.707-.797 1.605 9.464-4.708.797-1.604-9.464zm9.385-1.613l4.723-.838 1.681 9.459-4.724.839-1.68-9.46zm9.432-1.687l4.752-.883 1.742 9.446-4.752.883-1.742-9.446zm9.492-1.764l4.781-.929 1.802 9.432-4.771.914-1.812-9.417zm9.537-1.852l4.799-.958 1.876 9.416-4.799.958-1.876-9.416zm9.401-1.885l4.632-.96 1.937 9.403-4.632.959-1.937-9.402zm9.238-1.926l4.651-.989 1.998 9.388-4.651.99-1.998-9.389zm9.285-2l4.671-1.02 2.059 9.375-4.668 1.032-2.062-9.387zm9.324-2.061l4.686-1.061 2.12 9.361-4.686 1.062-2.12-9.362zm9.355-2.144l4.716-1.106 2.183 9.359-4.718 1.094-2.181-9.347zm9.403-2.219l4.735-1.137 2.245 9.347-4.735 1.136-2.245-9.346zm9.442-2.279l4.689-1.165 2.303 9.32-4.689 1.165-2.303-9.32zm9.244-2.299l4.598-1.17 2.364 9.306-4.598 1.17-2.364-9.306zm9.169-2.347l4.618-1.2 2.413 9.296-4.605 1.197-2.426-9.293zm9.205-2.418l4.624-1.227 2.474 9.282-4.624 1.227-2.474-9.282zm9.23-2.476l4.641-1.269 2.535 9.269-4.64 1.269-2.536-9.269zm9.266-2.547l4.647-1.296 2.594 9.242-4.66 1.299-2.581-9.245zm9.289-2.617l4.666-1.326 2.642 9.232-4.666 1.326-2.642-9.232zm9.314-2.674l4.658-1.362 2.688 9.208-4.645 1.36-2.701-9.206zm9.166-2.704l4.543-1.363 2.752 9.207-4.542 1.362-2.753-9.206zm9.073-2.723l4.561-1.392 2.799 9.184-4.55 1.389-2.81-9.181zm9.095-2.791l4.578-1.435 2.847 9.173-4.568 1.42-2.857-9.158zm9.119-2.861l4.584-1.462 2.909 9.159-4.587 1.45-2.906-9.147zm9.144-2.918l4.591-1.489 2.955 9.136-4.579 1.486-2.967-9.133zm9.155-2.984l4.61-1.519 3.001 9.113-4.598 1.516-3.013-9.11zm9.178-3.054l4.617-1.546 3.062 9.099-4.605 1.544-3.074-9.097zm9.121-3.079l4.489-1.543 3.123 9.085-4.492 1.531-3.12-9.073zm8.964-3.096l4.496-1.57 3.168 9.063-4.495 1.57-3.169-9.063zm8.977-3.149l4.502-1.598 3.218 9.052-4.503 1.597-3.217-9.051zm8.99-3.204l4.507-1.637 3.264 9.028-4.507 1.637-3.264-9.028zm9.001-3.271l4.526-1.667 3.313 9.018-4.514 1.664-3.325-9.015zm9.012-3.337l4.533-1.694 3.359 8.995-4.518 1.703-3.374-9.004zm9.038-3.394l4.527-1.718 3.42 8.98-4.539 1.721-3.408-8.983zm9.039-3.446l1.628-.633 2.903-1.124 3.466 8.957-2.915 1.127-1.628.633-3.454-8.96zm9.025-3.507l4.516-1.767 3.513 8.935-4.517 1.767-3.512-8.935zm8.978-3.547l4.486-1.786 3.561 8.923-4.474 1.784-3.573-8.921zm8.933-3.576l4.469-1.807 3.607 8.9-4.457 1.805-3.619-8.898zm8.885-3.616l4.439-1.827 3.665 8.874-4.438 1.827-3.666-8.874zm8.838-3.658l4.409-1.845 3.711 8.851-4.42 1.848-3.7-8.854zm8.778-3.695l4.382-1.852 3.757 8.828-4.378 1.865-3.761-8.841zm8.734-3.723l4.363-1.874 3.792 8.808-4.349 1.883-3.806-8.817zm8.756-3.793l4.45-1.945 3.85 8.795-4.448 1.944-3.852-8.794zm8.86-3.893l4.43-1.979 3.9 8.783-4.42 1.964-3.91-8.768zm8.82-3.934l4.38-1.995 3.96 8.757-4.4 1.986-3.94-8.748zm8.74-3.97l4.37-2.004 4 8.722-4.37 2.004-4-8.722zm8.69-4.009l4.35-2.024 4.05 8.711-4.35 2.024-4.05-8.711zm8.64-4.036l4.3-2.039 4.11 8.685-4.31 2.042-4.1-8.688zm8.57-4.071l4.28-2.049 4.16 8.662-4.29 2.049-4.15-8.662zm8.53-4.102l4.38-2.134 4.2 8.639-4.38 2.134-4.2-8.639zm8.72-4.258l4.35-2.153 4.26 8.6-4.36 2.154-4.25-8.601zm8.66-4.299l4.31-2.17 4.31 8.59-4.31 2.158-4.31-8.578zm8.59-4.331l4.28-2.177 4.36 8.552-4.28 2.177-4.36-8.552zm8.53-4.357l4.25-2.196 4.41 8.529-4.26 2.195-4.4-8.528zm8.45-4.393l4.22-2.214 4.46 8.505-4.21 2.212-4.47-8.503zm8.4-4.418l4.17-2.228 4.52 8.477-4.18 2.231-4.51-8.48zm8.31-4.45l4.29-2.319 4.56 8.456-4.29 2.319-4.56-8.456zm8.55-4.63l4.26-2.338 4.62 8.416-4.27 2.34-4.61-8.418zm8.48-4.668l4.22-2.354 4.67 8.38-4.22 2.354-4.67-8.38zm8.4-4.7l4.18-2.371 4.72 8.355-4.17 2.37-4.73-8.354zm8.31-4.733l4.15-2.377 4.78 8.331-4.14 2.375-4.79-8.329zm8.25-4.756l4.09-2.39 4.85 8.302-4.11 2.394-4.83-8.306zm8.15-4.773l4.07-2.41 4.9 8.265-4.07 2.41-4.9-8.265zm8.14-4.834l4.19-2.528 4.95 8.241-4.19 2.516-4.95-8.229zm8.34-5.033l4.15-2.532 5 8.191-4.15 2.532-5-8.191zm8.24-5.063l4.11-2.548 5.06 8.166-4.1 2.545-5.07-8.163zm8.16-5.082l4.06-2.562 5.12 8.124-4.05 2.562-5.13-8.124zm8.07-5.101l4-2.575 5.19 8.084-4.02 2.566-5.17-8.075zm7.97-5.129l3.96-2.592 5.23 8.048-3.96 2.58-5.23-8.036zm7.87-5.16l3.97-2.619 5.29 8.01-3.97 2.619-5.29-8.01zm8.02-5.32l4.05-2.741 5.36 7.969-4.06 2.729-5.35-7.957zm8.05-5.444l4-2.742 5.42 7.919-4 2.739-5.42-7.916zm7.94-5.471l3.94-2.752 5.5 7.887-3.95 2.744-5.49-7.879zm7.83-5.482l3.9-2.757 5.56 7.835-3.9 2.756-5.56-7.834zm7.73-5.5l3.85-2.771 5.61 7.785-3.84 2.77-5.62-7.784zm7.62-5.525l3.77-2.769 5.7 7.741-3.79 2.772-5.68-7.744zm7.67-5.653l3.93-2.945 5.75 7.691-3.93 2.944-5.75-7.69zm7.79-5.86l3.87-2.943 5.83 7.635-3.87 2.942-5.83-7.634zm7.67-5.87l3.8-2.953 5.9 7.579-3.81 2.956-5.89-7.582zm7.54-5.881l3.74-2.964 5.96 7.526-3.74 2.967-5.96-7.529zm7.4-5.9l3.68-2.966 6.03 7.461-3.67 2.975-6.04-7.47zm7.28-5.912l3.61-2.974 6.1 7.405-3.6 2.986-6.11-7.417zm7.37-6.099l3.75-3.173 6.19 7.349-3.76 3.162-6.18-7.338zm7.44-6.306l3.69-3.171 6.26 7.281-3.68 3.169-6.27-7.279zm7.28-6.309l3.61-3.168 6.35 7.198-3.61 3.18-6.35-7.21zm7.14-6.317l3.52-3.173 6.43 7.14-3.53 3.176-6.42-7.143zm6.97-6.317l3.45-3.169 6.52 7.057-3.46 3.171-6.51-7.059zm6.81-6.319l3.59-3.381 6.6 6.974-3.59 3.393-6.6-6.986zm7.11-6.745l3.5-3.414 6.69 6.904-3.51 3.401-6.68-6.891zm6.93-6.771l3.42-3.407 6.78 6.806-3.42 3.406-6.78-6.805zm6.75-6.767l3.33-3.412 6.87 6.708-3.33 3.412-6.87-6.708zm6.56-6.765l3.23-3.402 6.97 6.61-3.24 3.405-6.96-6.613zm6.36-6.758l3.28-3.54 7.06 6.5-3.27 3.552-7.07-6.512zm6.55-7.157l3.27-3.668 7.17 6.396-3.27 3.669-7.17-6.397zm6.42-7.272l3.16-3.656 7.28 6.271-3.16 3.656-7.28-6.271zm6.2-7.248l3.05-3.655 7.38 6.143-3.04 3.656-7.39-6.144zm5.98-7.235l2.91-3.652 7.5 6.003-2.93 3.656-7.48-6.007zm5.73-7.219l3.03-3.936 7.61 5.864-3.05 3.938-7.59-5.866zm5.93-7.804l2.92-3.935 7.72 5.696-2.9 3.933-7.74-5.694zm5.69-7.786l2.76-3.927 7.85 5.527-2.76 3.927-7.85-5.527zm5.38-7.757l2.62-3.909 7.98 5.333-2.61 3.918-7.99-5.342zm5.11-7.721l2.49-3.93 8.11 5.135-2.5 3.946-8.1-5.151zm5.04-8.078l2.52-4.233 8.25 4.914-2.53 4.245-8.24-4.926zm4.91-8.369l2.31-4.148 8.43 4.603-2.39 4.279-8.35-4.734zm4.54-8.288l2.13-4.131 8.57 4.354-2.21 4.251-8.49-4.474zm4.17-8.23l1.96-4.105 8.71 4.066-2.03 4.237-8.64-4.198zm4-8.575l1.91-4.442 8.85 3.726-1.99 4.614-8.77-3.898zm3.72-8.86l1.7-4.394 9 3.36-1.77 4.589-8.93-3.555zm3.29-8.763l1.47-4.356 9.13 2.972-1.53 4.549-9.07-3.165zm2.83-8.673l1.31-4.564 9.25 2.547-1.37 4.781-9.19-2.764zm2.52-9.221l1.07-4.613 9.39 2.055-1.14 4.872-9.32-2.314zm2.02-9.21l.79-4.55 9.49 1.533-.85 4.818-9.43-1.801zm1.46-9.06l.52-4.489 9.56.966-.57 4.768-9.51-1.245zm.92-9.206l.24-4.722 9.6.339-.26 5.034-9.58-.651zm.32-9.383l-.08-4.623 9.59-.338.09 4.954-9.6.007zm-.32-9.198l-.42-4.537 9.56-1.035.43 4.878-9.57.694zm-1-9.087l-.76-4.561 9.43-1.778.83 4.932-9.5 1.407zm-1.71-9.069l-1.11-4.469 9.26-2.509 1.21 4.834-9.36 2.144zm-2.42-8.883l-1.48-4.363 9.04-3.267 1.6 4.734-9.16 2.896zm-3.13-8.673l-1.82-4.235 8.72-3.991 1.99 4.595-8.89 3.631zm-3.83-8.39l-2.15-4.058 8.39-4.685 2.33 4.415-8.57 4.328zm-4.48-8.038l-2.47-3.896 7.99-5.315 2.68 4.208-8.2 5.003zm-5.1-7.681l-2.73-3.635 7.57-5.899 2.94 3.92-7.78 5.614zm-5.61-7.195l-3.04-3.476 7.13-6.441 3.26 3.745-7.35 6.172zm-6.23-6.892l-3.33-3.331 6.67-6.905 3.57 3.562-6.91 6.674zm-6.8-6.581l-3.4-2.972 6.22-7.317 3.61 3.168-6.43 7.121zm-6.91-5.88l-3.65-2.838 5.8-7.659 3.86 3.011-6.01 7.486zm-7.41-5.613l-3.9-2.692 5.37-7.973 4.1 2.853-5.57 7.812zm-7.91-5.333l-4.05-2.518 4.95-8.214 4.26 2.638-5.16 8.094zm-7.97-4.81l-4-2.234 4.59-8.426 4.19 2.332-4.78 8.328zm-8.1-4.407l-4.2-2.123 4.24-8.617 4.37 2.2-4.41 8.54zm-8.5-4.189l-4.41-2.001 3.9-8.771 4.57 2.081-4.06 8.691zm-8.9-3.946l-4.23-1.733 3.57-8.916 4.39 1.801-3.73 8.848zm-8.51-3.406l-4.33-1.619 3.28-9.033 4.48 1.678-3.43 8.974zm-8.76-3.193l-4.5-1.521 3.01-9.124 4.64 1.567-3.15 9.078zm-9.05-2.991l-4.7-1.435 2.8-9.181 4.72 1.432-2.82 9.184zm-9.37-2.789l-4.52-1.257 2.56-9.254 4.52 1.245-2.56 9.266zm-8.91-2.405l-4.56-1.146 2.32-9.317 4.57 1.146-2.33 9.317zm-9.07-2.214l-4.69-1.055 2.11-9.371 4.69 1.054-2.11 9.372zm-9.32-2.045l-4.79-.966 1.89-9.413 4.81.964-1.91 9.415zm-9.55-1.877l-4.9-.878 1.69-9.457 4.92.887-1.71 9.448zm-9.38-1.645l-4.62-.737 1.52-9.483 4.6.74-1.5 9.48zm-9.19-1.419l-4.71-.666 1.35-9.509 4.7.667-1.34 9.508zm-9.37-1.289l-4.79-.596 1.18-9.522 4.79.596-1.18 9.522zm-9.55-1.133l-4.88-.525 1.02-9.551 4.88.525-1.02 9.551zm-9.73-.992l-4.83-.445.87-9.554 4.82.432-.86 9.567zm-9.4-.82l-4.68-.35.72-9.573 4.68.35-.72 9.573zm-9.33-.657l-4.75-.297.59-9.583 4.75.285-.59 9.595zm-9.47-.549l-4.82-.229.46-9.591 4.82.229-.46 9.591zm-9.61-.415l-4.88-.164.31-9.598 4.9.161-.33 9.601zm-9.74-.294l-4.96-.096.19-9.61 4.96.108-.19 9.598zm-9.56-.171l-4.69-.028.07-9.608 4.69.041-.07 9.595zm-9.36-.047l-4.74.022-.03-9.598 4.74-.022.03 9.598zm-9.46.065l-4.79.072-.15-9.598 4.81-.074.13 9.6zm-9.57.166l-4.85.125-.25-9.6 4.85-.125.25 9.6zm-9.69.284l-4.9.172-.36-9.587 4.91-.188.35 9.603zm-9.79.382l-4.69.229-.46-9.593 4.7-.229.45 9.593zm-9.34.46l-4.7.271-.56-9.583 4.71-.272.55 9.584zm-9.4.564l-4.76.322-.63-9.579 4.75-.319.64 9.576zm-9.49.663l-4.79.366-.74-9.581 4.8-.367.73 9.582zm-9.58.757l-4.84.405-.82-9.563 4.84-.417.82 9.575zm-9.66.841l-4.88.464-.91-9.555 4.88-.465.91 9.556zm-9.71.942l-4.68.494-.98-9.551 4.66-.492 1 9.549zm-9.32.995l-4.69.524-1.09-9.542 4.71-.527 1.07 9.545zm-9.38 1.072l-4.73.572-1.16-9.538 4.74-.574 1.15 9.54zm-9.45 1.165l-4.77.607-1.22-9.525 4.76-.616 1.23 9.534zm-9.51 1.245l-4.81.651-1.3-9.505 4.8-.664 1.31 9.518zm-9.59 1.337l-4.83.696-1.39-9.501 4.83-.708 1.39 9.513zm-9.66 1.417l-4.71.721-1.46-9.485 4.73-.723 1.44 9.487zm-9.33 1.447l-4.67.749-1.53-9.48 4.67-.749 1.53 9.48zm-9.32 1.52l-4.69.794-1.6-9.479 4.7-.782 1.59 9.467zm-9.37 1.597l-4.73.827-1.65-9.453 4.71-.836 1.67 9.462zm-9.43 1.673l-4.75.871-1.73-9.449 4.75-.871 1.73 9.449zm-9.48 1.749l-4.772.914-1.802-9.432 4.771-.914 1.803 9.432zm-9.528 1.837l-4.802.946-1.864-9.419 4.803-.946 1.863 9.419zm-9.464 1.887l-4.621.956-1.927-9.417 4.623-.944 1.925 9.405zm-9.229 1.91l-4.651.99-1.986-9.392 4.651-.989 1.986 9.391zm-9.276 1.986l-4.67 1.019-2.047-9.377 4.67-1.02 2.047 9.378zm-9.311 2.057l-4.689 1.05-2.12-9.362 4.686-1.061 2.123 9.373zm-9.361 2.121l-4.706 1.091-2.181-9.348 4.718-1.094 2.169 9.351zm-9.394 2.204l-4.722 1.133-2.245-9.346 4.737-1.124 2.23 9.337zm-9.429 2.276l-4.753 1.166-2.291-9.323 4.741-1.163 2.303 9.32zm-9.308 2.3l-4.589 1.155-2.352-9.309 4.589-1.155 2.352 9.309zm-9.16 2.332l-4.605 1.197-2.413-9.296 4.605-1.197 2.413 9.296zm-9.195 2.403l-4.624 1.227-2.462-9.284 4.612-1.225 2.474 9.282zm-9.233 2.464l-4.628 1.266-2.523-9.271 4.628-1.266 2.523 9.271zm-9.256 2.532l-4.647 1.296-2.582-9.245 4.66-1.299 2.569 9.248zm-9.279 2.602l-4.666 1.326-2.643-9.231 4.678-1.329 2.631 9.234zm-9.315 2.674l-4.682 1.368-2.691-9.221 4.682-1.368 2.691 9.221zm-9.218 2.703l-4.545 1.351-2.737-9.198 4.542-1.362 2.74 9.209zm-9.063 2.708l-4.561 1.392-2.786-9.186 4.549-1.39 2.798 9.184zm-9.095 2.791l-4.568 1.42-2.848-9.173 4.568-1.42 2.848 9.173zm-9.109 2.846l-4.587 1.449-2.897-9.161 4.575-1.447 2.909 9.159zm-9.135 2.903l-4.591 1.489-2.957-9.149 4.593-1.476 2.955 9.136zm-9.158 2.972l-4.598 1.516-3.015-9.122 4.598-1.516 3.015 9.122zm-9.181 3.042l-4.604 1.543-3.062-9.1 4.617-1.545 3.049 9.102zm-9.157 3.087L782.474 188l-3.108-9.076 4.489-1.543 3.111 9.088zm-8.954 3.081l-4.499 1.557-3.157-9.065 4.496-1.57 3.16 9.078zm-8.98 3.137l-4.503 1.597-3.205-9.054 4.503-1.597 3.205 9.054zm-8.993 3.192l-4.51 1.624-3.251-9.031 4.509-1.624 3.252 9.031zm-9.004 3.258l-4.514 1.664-3.3-9.02 4.516-1.652 3.298 9.008zm-9.015 3.325l-4.52 1.691-3.347-8.997 4.521-1.691 3.346 8.997zm-9.016 3.376l-4.539 1.721-3.405-8.971 4.539-1.721 3.405 8.971zm-9.039 3.446l-3.271 1.258-4.518 1.754-3.466-8.957 4.543-1.76 3.258-1.255 3.454 8.96z" fill="#d4e19f"/></g></g></g></g><mask id="L" maskUnits="userSpaceOnUse" x="70" y="623" width="196" height="197"><path d="M70.019 659.596l159.441-35.672 35.672 159.442-159.441 35.672-35.672-159.442z" fill="#fff"/></mask><g mask="url(#L)"><mask id="M" maskUnits="userSpaceOnUse" x="63" y="619" width="208" height="207"><path d="M104.98 619.267l165.396 41.154-41.154 165.397-165.399-41.167 41.157-165.384z" fill="#fff"/></mask><g mask="url(#M)"><mask id="N" maskUnits="userSpaceOnUse" x="63" y="619" width="208" height="207"><path d="M104.98 619.267l165.396 41.154-41.154 165.397-165.399-41.167 41.157-165.384z" fill="#fff"/></mask><g mask="url(#N)"><path d="M172.307 726.295l35.474 8.272c13.862 3.041 27.744 5.937 41.759 8.341-13.499-4.456-27.13-8.408-40.794-12.224l-35.218-9.304 30.948-19.235c11.946-7.648 23.813-15.419 35.415-23.632-12.698 6.406-25.122 13.238-37.476 20.208l-31.487 18.316 8.272-35.473c3.044-13.851 5.937-27.745 8.341-41.76-4.456 13.5-8.408 27.13-12.224 40.795l-9.304 35.217-19.22-30.939c-7.651-11.958-15.434-23.822-23.647-35.423 6.394 12.701 13.228 25.136 20.199 37.49l18.325 31.472-35.473-8.272c-13.851-3.044-27.745-5.936-41.757-8.328 13.5 4.455 27.13 8.407 40.792 12.211l35.205 9.307-30.924 19.229c-11.948 7.636-23.825 15.423-35.426 23.635 12.701-6.394 25.136-13.228 37.49-20.198l31.475-18.314-8.275 35.462c-3.044 13.85-5.936 27.744-8.328 41.757 4.455-13.5 8.41-27.119 12.211-40.792l9.319-35.208 19.22 30.939c7.648 11.945 15.42 23.812 23.632 35.414-6.394-12.701-13.238-25.122-20.208-37.476l-18.316-31.487z" fill="#d4e19f"/></g></g></g></svg>