<svg width="332" height="203" viewBox="0 0 332 203" fill="none" xmlns="http://www.w3.org/2000/svg">
<path d="M13.6133 65.4019H11.2227V85.6519H23.7904V83.4904H13.6133V65.4019Z" fill="black"/>
<path d="M28.3968 68.9852V66.1987H25.9541V68.9852H28.3968ZM28.3395 85.6519V70.9748H26.0687V85.6519H28.3395Z" fill="black"/>
<path d="M37.1309 67.3395H38.4382V65.402C38.0944 65.376 37.4121 65.3447 36.985 65.3447C34.084 65.3447 32.8913 66.8812 32.8913 69.4697V70.9749H30.4746V72.9697H32.8913V85.652H35.1673V72.9697H38.2975V70.9749H35.1673V69.4124C35.1673 68.0791 35.8184 67.3395 37.1309 67.3395Z" fill="black"/>
<path d="M46.9707 85.9956C50.4655 85.9956 52.5697 83.9435 53.2832 81.1883H50.9238C50.4082 82.8341 49.1009 83.9175 47.028 83.9175C44.4655 83.9175 42.7311 82.4123 42.502 79.1102H53.653V78.3133C53.653 74.105 51.2936 70.6362 46.9134 70.6362C42.8457 70.6362 40.1426 73.7091 40.1426 78.3133C40.1426 83.0633 42.9603 85.9956 46.9707 85.9956ZM42.5592 77.0633C42.929 74.1623 44.6061 72.7144 46.9134 72.7144C49.528 72.7144 50.9811 74.6466 51.2051 77.0633H42.5592Z" fill="black"/>
<path d="M68.1528 85.9956C72.2778 85.9956 75.2622 83.006 75.2622 78.3133C75.2622 73.6206 72.2778 70.6362 68.1528 70.6362C64.0278 70.6362 61.0435 73.6206 61.0435 78.3133C61.0435 83.006 64.0278 85.9956 68.1528 85.9956ZM68.1528 83.9435C65.3091 83.9435 63.4341 81.8706 63.4341 78.3133C63.4341 74.7612 65.3091 72.6831 68.1528 72.6831C70.9966 72.6831 72.8768 74.7612 72.8768 78.3133C72.8768 81.8706 70.9966 83.9435 68.1528 83.9435Z" fill="black"/>
<path d="M83.3408 67.3395H84.6481V65.402C84.3044 65.376 83.6221 65.3447 83.195 65.3447C80.2939 65.3447 79.1012 66.8812 79.1012 69.4697V70.9749H76.6846V72.9697H79.1012V85.652H81.3773V72.9697H84.5075V70.9749H81.3773V69.4124C81.3773 68.0791 82.0283 67.3395 83.3408 67.3395Z" fill="black"/>
<path d="M104.469 83.8029C103.927 83.8029 103.672 83.5477 103.672 83.0946V74.9019C103.672 72.4279 102.224 70.6362 98.1564 70.6362C93.8595 70.6362 92.3543 72.6571 92.1825 75.5008H94.4585C94.5991 73.3081 95.6512 72.5998 98.1564 72.5998C100.656 72.5998 101.453 73.3654 101.453 74.9019C101.453 76.2091 100.63 76.7508 99.1512 76.9227L97.047 77.1466C93.0054 77.5737 91.6147 79.3966 91.6147 81.6987C91.6147 84.4591 93.6043 85.9956 96.7918 85.9956C98.896 85.9956 100.542 85.1987 101.568 83.631C101.682 85.0269 102.422 85.7352 104.042 85.7352C104.469 85.7352 104.922 85.7091 105.292 85.6519V83.8029H104.469ZM96.9012 84.0581C94.8856 84.0581 93.9741 83.0946 93.9741 81.6414C93.9741 80.2196 94.7137 79.3081 97.3856 78.9956L99.521 78.7404C100.375 78.6571 101 78.4591 101.453 78.1154V79.8498C101.453 82.7508 99.0939 84.0581 96.9012 84.0581Z" fill="black"/>
<path d="M293.448 127.215C262.776 119.585 231.276 115.288 199.682 114.371C168.083 113.454 136.39 115.892 105.297 121.611C89.8487 124.449 74.5519 128.105 59.4946 132.585C51.9685 134.819 44.4946 137.262 37.1039 139.897C30.2862 142.329 23.3071 144.715 16.8123 147.934C11.3852 150.621 5.96331 154.204 2.66123 159.402C-0.640856 164.6 -0.864814 171.501 2.28102 177.053C5.78102 183.236 12.1352 186.928 18.7758 188.913C26.2602 191.152 34.2602 191.96 41.9685 193.017C74.1091 197.434 106.609 199.074 139.026 197.871C171.229 196.673 203.354 192.72 234.88 186.059C250.844 182.684 266.672 178.611 282.276 173.845C289.922 171.512 297.547 169.032 305.078 166.329C310.76 164.288 316.411 161.756 321.25 158.1C325.739 154.71 329.765 150.194 330.911 144.522C332.219 138.064 329.802 131.746 325.318 127.059C320.13 121.631 312.849 119.074 305.64 117.657C297.536 116.064 289.255 115.126 281.052 114.142C247.922 110.173 214.474 108.835 181.125 110.116C147.578 111.402 114.13 115.329 81.2029 121.861C73.2237 123.444 65.281 125.184 57.3591 127.074C54.6039 127.736 55.7758 131.986 58.531 131.324C90.2029 123.772 122.432 118.652 154.885 116.069C187.213 113.496 219.745 113.381 252.088 115.751C268.151 116.934 284.224 118.642 300.135 121.147C307.177 122.256 314.818 123.746 320.411 128.496C324.948 132.345 328.031 138.105 326.479 144.142C325.135 149.376 320.849 153.272 316.463 156.09C311.203 159.465 305.385 161.605 299.5 163.631C284.646 168.751 269.562 173.23 254.317 177.053C224.026 184.668 193.088 189.725 161.948 192.152C130.62 194.605 99.0727 194.428 67.7654 191.585C59.9321 190.866 52.1196 189.996 44.3279 188.949C36.5414 187.897 29.1925 187.079 21.8591 185.204C15.3748 183.548 8.92685 180.418 5.73415 174.199C3.04144 168.944 4.5831 163.199 8.47894 159.059C12.3696 154.918 17.8331 152.053 23.1144 149.887C30.0987 147.017 37.2341 144.449 44.3904 142.012C58.8852 137.074 73.6456 132.918 88.5779 129.527C118.359 122.777 148.823 119.137 179.354 118.637C209.875 118.131 240.448 120.756 270.416 126.6C277.739 128.027 285.026 129.647 292.265 131.454C295.015 132.142 296.187 127.897 293.437 127.21L293.448 127.215Z" fill="#E7F096"/>
<mask id="mask0_89_215" style="mask-type:luminance" maskUnits="userSpaceOnUse" x="170" y="0" width="141" height="87">
<path d="M170.005 0.0844727H310.005V86.7511H170.005V0.0844727Z" fill="white"/>
</mask>
<g mask="url(#mask0_89_215)">
<mask id="mask1_89_215" style="mask-type:luminance" maskUnits="userSpaceOnUse" x="168" y="-10" width="157" height="124">
<path d="M168.667 76.5741L300.005 -9.44678L324.109 27.3605L192.776 113.381L168.667 76.5741Z" fill="white"/>
</mask>
<g mask="url(#mask1_89_215)">
<mask id="mask2_89_215" style="mask-type:luminance" maskUnits="userSpaceOnUse" x="168" y="-10" width="157" height="124">
<path d="M168.667 76.5741L300.005 -9.44678L324.109 27.3605L192.776 113.381L168.667 76.5741Z" fill="white"/>
</mask>
<g mask="url(#mask2_89_215)">
<path d="M171.474 76.2823C171.463 76.4177 171.521 76.5271 171.635 76.6052C171.573 77.0792 170.812 77.2458 171.073 77.8656C170.765 79.3292 171.693 80.0115 172.802 80.5583C175.922 82.0844 179.224 83.074 182.588 83.8604C194.646 86.6625 206.724 86.8187 218.963 84.8344C240.323 81.376 258.052 71.2146 273.193 56.1573C280.208 49.1781 285.875 41.1052 291.167 32.7667C294.281 27.8656 297.083 22.7927 300.015 17.7875C300.042 17.5583 300.062 17.3396 300.088 17.1104C300.297 16.9594 300.489 16.7302 300.713 16.6937C300.713 16.6937 300.713 16.6937 300.724 16.6937C300.901 16.6677 300.937 16.9229 300.833 17.1052C301.104 19.3656 300.896 21.6104 300.562 23.8396C300.338 25.3656 300.234 26.8656 300.583 28.376C300.073 31.6625 301.453 33.9125 304.37 34.7458C308.239 29.3656 308.708 23.1937 308.672 16.8812C308.661 14.5375 308.807 12.1937 308.917 9.84999C309.187 4.24062 308.828 5.03749 305.005 2.52708C304.151 1.96978 303.182 1.61562 302.182 1.36562C301.812 1.27187 301.463 1.21978 301.13 1.43853C300.12 0.855201 299.292 1.38124 298.51 1.93333C296.193 3.57916 293.901 5.24583 291.594 6.90729C290.917 6.96458 290.453 7.38124 290.01 7.82916C289.328 7.8552 288.87 8.2927 288.396 8.69895C287.911 8.63645 287.583 8.99062 287.198 9.17812C281.932 11.6573 276.458 13.5115 270.687 14.4281C270.255 14.4958 269.828 14.6 269.396 14.6885C268.885 14.7875 268.302 14.8969 268.229 15.4906C268.172 15.9385 268.583 16.4125 268.953 16.5115C270.594 16.9542 271.698 18.3292 273.25 18.8969C273.937 19.1521 274.672 19.1 275.417 19.0375C281.172 18.5792 286.687 17.1156 292.068 15.0792C292.547 14.8969 293.01 14.6365 293.51 14.5583C294.094 14.4698 294.219 14.9333 294.213 15.4177C293.687 15.6781 293.469 16.1 293.521 16.6729C293.088 17.0062 292.698 17.3604 292.776 17.9854C292.63 18.001 292.578 18.0844 292.62 18.225C292.198 18.5271 291.859 18.876 291.901 19.4542C291.661 19.725 291.38 19.9646 291.187 20.2719C289.088 23.6104 287.047 26.9854 284.911 30.2979C282.974 33.3083 280.943 36.2562 278.953 39.225C278.333 39.949 277.687 40.6417 277.099 41.3812C271.328 48.5583 264.781 54.9281 257.297 60.3031C254.625 62.225 251.896 64.0583 249.187 65.9281C248.474 65.975 248.015 66.4437 247.547 66.9073C246.859 66.9385 246.417 67.376 245.963 67.8135C245.307 67.7927 244.906 68.2458 244.458 68.6104C244.026 68.5583 243.729 68.7719 243.484 69.0948C243.328 69.0844 243.213 69.1521 243.151 69.2979C242.672 69.2458 242.344 69.5896 241.953 69.7615C240.026 70.6 238.255 71.7823 236.219 72.3812C236.156 72.626 235.703 73.0271 236.489 72.8812C237.01 72.7875 237.114 72.8969 237.073 73.0687C237.031 73.225 236.88 73.4281 236.781 73.5948C230.599 76.0531 224.198 77.7406 217.677 79.0062C217.062 79.0635 216.443 79.1312 215.828 79.1937C212.151 79.5583 208.469 79.9281 204.797 80.2979C204.667 80.2146 204.536 80.1885 204.411 80.2094C204.323 80.225 204.239 80.2562 204.156 80.3135C203.948 80.1781 203.739 80.1885 203.536 80.3292C203.323 80.1885 203.114 80.199 202.911 80.35C202.703 80.199 202.495 80.2094 202.286 80.3604C202.078 80.2094 201.87 80.2094 201.661 80.3656C201.453 80.2094 201.25 80.2094 201.042 80.3656H201.036C200.838 80.2094 200.625 80.2094 200.427 80.3604H200.411C200.213 80.3448 200.01 80.3396 199.807 80.35H199.781C199.583 80.1937 199.385 80.1833 199.177 80.3344H199.156C198.953 80.1781 198.755 80.1729 198.547 80.324H198.526C198.328 80.1573 198.125 80.1521 197.917 80.3031H197.901C197.703 80.1417 197.5 80.1365 197.292 80.2875H197.281C197.078 80.126 196.87 80.1156 196.661 80.2615C194.75 80.0687 192.844 79.876 190.937 79.6833C189.911 79.8917 188.917 79.6052 187.922 79.4542C187.88 79.3396 187.875 79.2354 187.885 79.1312C187.896 78.9698 187.958 78.824 188.073 78.6833C187.333 78.4958 186.609 78.2458 185.823 78.4021C185.594 78.4698 185.359 78.5062 185.114 78.4437C185.349 78.4281 185.583 78.4177 185.823 78.4021C185.599 78.2927 185.375 78.2146 185.167 78.4021C184.901 78.1208 184.578 78.0635 184.208 78.1365C184.042 77.9542 183.849 77.8969 183.625 78.0323C183.406 77.8969 183.193 77.8187 182.948 77.9437C182.849 77.8604 182.745 77.8187 182.609 77.8448C181.922 77.5323 181.203 77.3708 180.448 77.3865C179.948 77.1885 179.453 76.9802 178.901 77.0531C178.63 76.8135 178.292 76.8135 177.958 76.7875C176 76.0062 173.906 75.5948 172.01 74.3917C171.917 75.1729 171.151 75.5531 171.474 76.2823ZM292.922 18.5427C292.917 18.5479 292.917 18.5479 292.911 18.5479C292.917 18.5531 292.922 18.5531 292.922 18.5531C292.917 18.5531 292.906 18.5531 292.906 18.5531L292.911 18.5479C292.906 18.5427 292.906 18.5427 292.896 18.5375C292.911 18.5375 292.911 18.5427 292.922 18.5427ZM197.989 81.5219C198.036 81.5323 198.083 81.5427 198.135 81.5531C198.12 81.5531 198.109 81.5583 198.094 81.5583C198.052 81.5583 198.01 81.5583 197.963 81.5531C197.969 81.5479 197.979 81.5375 197.989 81.5219ZM204.765 80.3187C204.771 80.324 204.765 80.324 204.771 80.3292C204.765 80.3448 204.771 80.3656 204.765 80.3812L204.755 80.4385L204.765 80.324C204.76 80.3187 204.76 80.324 204.755 80.3187C204.76 80.324 204.76 80.3187 204.765 80.3187ZM197.854 81.7094C197.89 81.6573 197.927 81.6052 197.958 81.5635C198 81.5635 198.042 81.5635 198.083 81.5635C197.995 81.574 197.911 81.6208 197.854 81.7094ZM198.37 81.5792C198.417 81.5844 198.469 81.5844 198.515 81.5896C198.515 81.5948 198.521 81.5948 198.526 81.6C198.474 81.5896 198.417 81.5844 198.37 81.5792ZM174.505 78.876C174.5 78.8812 174.489 78.876 174.484 78.8812H174.479C174.474 78.876 174.469 78.8708 174.463 78.8656C174.474 78.8656 174.489 78.8708 174.505 78.876ZM175.375 79.2198C175.38 79.2302 175.39 79.2354 175.401 79.2354C175.396 79.225 175.38 79.225 175.375 79.2198ZM184.776 78.6156C184.75 78.6521 184.729 78.6937 184.713 78.7458C184.693 78.725 184.672 78.7042 184.651 78.6833C184.693 78.6625 184.729 78.6365 184.776 78.6156ZM183.193 78.1104C183.114 78.1052 183.036 78.074 182.963 78.0167C182.963 78.0167 182.963 78.0167 182.969 78.0115C183.047 78.0635 183.12 78.1 183.193 78.1104Z" fill="black"/>
</g>
</g>
</g>
<mask id="mask3_89_215" style="mask-type:luminance" maskUnits="userSpaceOnUse" x="199" y="80" width="2" height="2">
<path d="M199.338 80.0845H200.672V81.4178H199.338V80.0845Z" fill="white"/>
</mask>
<g mask="url(#mask3_89_215)">
<mask id="mask4_89_215" style="mask-type:luminance" maskUnits="userSpaceOnUse" x="168" y="-10" width="157" height="124">
<path d="M168.667 76.5741L300.005 -9.44678L324.109 27.3605L192.776 113.381L168.667 76.5741Z" fill="white"/>
</mask>
<g mask="url(#mask4_89_215)">
<mask id="mask5_89_215" style="mask-type:luminance" maskUnits="userSpaceOnUse" x="168" y="-10" width="157" height="124">
<path d="M168.667 76.5741L300.005 -9.44678L324.109 27.3605L192.776 113.381L168.667 76.5741Z" fill="white"/>
</mask>
<g mask="url(#mask5_89_215)">
<path d="M199.771 80.3553C199.974 80.3605 200.177 80.3605 200.375 80.3709C200.177 80.2095 199.974 80.2095 199.771 80.3553Z" fill="black"/>
</g>
</g>
</g>
<path d="M84.8988 125.077C82.977 125.077 80.5759 126.275 79.2582 128.437C69.2999 144.754 62.0968 159.874 55.4978 177.155C55.0186 178.473 54.7791 179.796 55.2582 180.874C50.9353 182.676 47.3363 183.874 44.3363 183.994C45.4197 185.796 47.5759 186.635 50.2166 186.635C68.0968 186.635 114.899 149.916 109.019 128.317C105.899 116.437 93.0551 112.833 82.1384 112.833C63.8989 112.833 38.4561 120.994 39.7791 138.275C40.2582 144.155 44.3363 148.353 46.8572 148.353C47.3363 148.353 47.8155 148.234 48.0551 147.874C49.7374 146.077 45.0551 148.114 43.4978 139.713C42.8988 129.635 62.5759 118.833 79.7374 118.833H80.5759C128.696 119.676 87.8988 163.114 59.6957 178.593C66.7791 160.833 76.7374 143.676 88.0186 126.754C87.2999 125.556 86.0968 125.077 84.8988 125.077Z" fill="black"/>
<path d="M109.019 177.635C117.535 177.635 125.816 166.114 130.259 159.994C131.816 157.713 133.019 155.916 133.738 154.958C133.738 153.994 133.019 153.635 132.535 153.635C132.415 153.635 132.296 153.635 132.296 153.754C127.499 160.353 117.535 173.676 108.78 173.676C105.296 173.317 106.019 168.994 108.056 164.077C108.78 165.036 110.098 165.515 111.535 165.515C115.618 165.395 120.535 159.275 122.098 155.556V155.317C122.457 154.713 122.577 153.994 122.816 153.155C123.535 149.317 120.78 145.958 117.056 145.958C115.738 145.958 114.296 146.317 112.858 147.275C105.415 152.197 96.4153 166.593 103.499 175.114C104.816 176.916 106.738 177.635 109.019 177.635ZM118.858 150.754C119.337 150.754 119.697 150.874 119.936 151.234C120.176 151.833 120.056 152.556 119.816 153.515C118.019 157.833 112.618 162.754 110.217 162.754C109.618 162.754 109.259 162.515 109.019 161.916C112.019 156.275 116.577 150.754 118.858 150.754Z" fill="black"/>
<path d="M125.576 170.077C125.576 173.197 125.936 177.395 130.019 177.395C130.498 177.395 130.977 177.155 131.337 176.437C135.66 169.353 153.899 142.353 160.618 140.317C162.175 140.197 161.337 138.155 159.055 138.155C158.097 138.155 157.019 138.395 156.055 139.353C147.295 145.713 133.258 168.395 130.618 171.634C132.54 158.916 138.295 148.832 142.019 144.994C142.139 144.994 140.816 143.556 139.019 143.197H138.175C132.175 143.197 125.696 165.155 125.576 170.077Z" fill="black"/>
<path d="M154.979 177.635C163.495 177.635 171.776 166.114 176.219 159.994C177.776 157.713 178.979 155.916 179.698 154.958C179.698 153.994 178.979 153.635 178.495 153.635C178.375 153.635 178.255 153.635 178.255 153.754C173.459 160.353 163.495 173.676 154.74 173.676C151.255 173.317 151.979 168.994 154.016 164.077C154.74 165.036 156.058 165.515 157.495 165.515C161.578 165.395 166.495 159.275 168.058 155.556V155.317C168.417 154.713 168.537 153.994 168.776 153.155C169.495 149.317 166.74 145.958 163.016 145.958C161.698 145.958 160.255 146.317 158.818 147.275C151.375 152.197 142.375 166.593 149.459 175.114C150.776 176.916 152.698 177.635 154.979 177.635ZM164.818 150.754C165.297 150.754 165.657 150.874 165.896 151.234C166.136 151.833 166.016 152.556 165.776 153.515C163.979 157.833 158.578 162.754 156.177 162.754C155.578 162.754 155.219 162.515 154.979 161.916C157.979 156.275 162.537 150.754 164.818 150.754Z" fill="black"/>
<path d="M198.417 126.994C199.5 125.916 196.979 122.916 193.62 122.916C191.338 122.916 190.5 124.234 189.297 126.036C184.859 133.833 169.38 167.317 168.057 178.833C167.937 180.874 168.536 185.317 171.297 185.437C173.219 171.036 192.417 132.755 198.417 126.994Z" fill="black"/>
<path d="M184.016 170.676C184.375 174.515 186.776 177.395 190.74 177.395C202.016 177.395 216.297 149.796 204.417 144.036C203.818 143.676 202.979 143.557 202.136 143.557C198.896 143.557 195.776 146.077 193.86 148.593C192.058 148.593 191.219 149.437 190.255 150.994C187.016 155.916 183.297 164.676 184.016 170.676ZM191.938 163.713C193.375 160.473 195.776 155.317 197.698 152.676C198.177 152.197 199.136 151.354 198.776 150.755C198.657 150.275 197.938 149.796 197.339 149.557C198.657 147.395 200.459 146.317 201.896 146.317C202.615 146.317 203.099 146.676 203.698 146.916C211.016 152.077 195.776 174.036 190.86 174.036C190.016 174.036 189.537 173.557 189.417 172.354C189.177 169.833 191.339 164.796 191.938 163.713Z" fill="black"/>
<path d="M239.939 143.557C233.096 143.557 218.695 163.713 214.976 168.994C219.898 159.515 224.939 151.473 227.575 148.958C228.538 147.994 226.137 144.874 222.778 144.874C220.377 144.874 219.658 146.077 218.455 147.994C214.736 154.114 204.538 173.557 199.976 186.994C198.778 190.114 195.059 202.473 201.538 202.593C202.018 198.515 204.059 192.994 206.575 186.874C209.096 182.437 212.455 177.275 216.179 172.114C215.575 176.557 217.018 180.395 219.778 181.713C220.497 182.197 221.335 182.317 222.299 182.317C232.497 182.317 247.976 158.437 246.538 150.275C245.695 146.676 243.059 143.557 239.939 143.557ZM219.538 167.676C227.82 156.515 236.455 146.916 239.455 146.916C239.939 146.916 240.299 147.156 240.419 147.874C241.616 153.635 225.658 177.635 220.257 177.635C218.455 177.635 217.856 174.874 219.538 167.676Z" fill="black"/>
<path d="M252.779 177.635C261.295 177.635 269.576 166.114 274.019 159.994C275.576 157.713 276.779 155.916 277.498 154.958C277.498 153.994 276.779 153.635 276.295 153.635C276.175 153.635 276.055 153.635 276.055 153.754C271.258 160.353 261.295 173.676 252.54 173.676C249.055 173.317 249.779 168.994 251.816 164.077C252.54 165.036 253.857 165.515 255.295 165.515C259.378 165.395 264.295 159.275 265.857 155.556V155.317C266.217 154.713 266.337 153.994 266.576 153.155C267.295 149.317 264.54 145.958 260.816 145.958C259.498 145.958 258.055 146.317 256.618 147.275C249.175 152.197 240.175 166.593 247.258 175.114C248.576 176.916 250.498 177.635 252.779 177.635ZM262.618 150.754C263.097 150.754 263.456 150.874 263.696 151.234C263.936 151.833 263.816 152.556 263.576 153.515C261.779 157.833 256.378 162.754 253.977 162.754C253.378 162.754 253.019 162.515 252.779 161.916C255.779 156.275 260.337 150.754 262.618 150.754Z" fill="black"/>
<path d="M289.738 139.593C289.378 139.114 288.779 138.635 288.3 138.156C289.977 135.395 291.3 132.754 292.139 130.473C292.857 128.437 292.019 123.036 289.258 123.275C284.217 123.635 278.576 132.635 284.576 138.635C280.857 144.874 276.659 152.916 274.019 156.515C273.899 156.754 274.019 157.958 274.857 157.958C275.097 157.958 275.456 157.833 276.18 157.353C278.936 153.874 281.456 148.353 286.618 140.796C286.977 141.275 287.337 141.754 287.456 142.114C290.217 147.395 274.977 165.994 275.217 175.114C275.217 177.874 276.54 182.317 280.019 182.317C280.378 182.317 280.618 182.197 280.977 182.077C287.337 178.958 300.779 157.114 302.456 154.833C302.696 154.473 302.456 153.874 301.977 153.635C301.738 153.515 301.618 153.395 301.378 153.395C301.139 153.395 301.019 153.515 300.659 153.754C297.899 157.473 284.097 178.713 280.618 178.114C282.54 171.156 289.857 158.676 291.54 153.994C293.337 149.557 294.779 142.833 289.738 139.593ZM288.899 128.317C289.498 128.317 289.618 129.036 288.899 130.958C288.42 132.515 287.576 134.197 286.738 135.515C284.576 132.635 287.816 128.317 288.899 128.317Z" fill="black"/>
</svg>
