<svg width="300" height="180" viewBox="0 0 300 180" fill="none" xmlns="http://www.w3.org/2000/svg">
<path d="M17.635 46.1113H15.2354V66.4362H27.8546V64.2651H17.635V46.1113Z" fill="black"/>
<path d="M32.4755 49.7069V46.9111H30.0225V49.7069H32.4755ZM32.4183 66.4361V51.7067H30.1367V66.4361H32.4183Z" fill="black"/>
<path d="M41.2386 48.0539H42.5527V46.1113C42.2099 46.0847 41.5243 46.0542 41.0977 46.0542C38.1838 46.0542 36.984 47.5968 36.984 50.1946V51.7068H34.5576V53.7065H36.984V66.4362H39.2694V53.7065H42.408V51.7068H39.2694V50.1375C39.2694 48.7967 39.9245 48.0539 41.2386 48.0539Z" fill="black"/>
<path d="M51.1151 66.7793C54.627 66.7793 56.7372 64.7225 57.4533 61.9533H55.0841C54.5699 63.6102 53.2558 64.6958 51.1722 64.6958C48.6012 64.6958 46.8604 63.1836 46.6319 59.8698H57.8228V59.0737C57.8228 54.8457 55.4536 51.3643 51.058 51.3643C46.9747 51.3643 44.2627 54.4457 44.2627 59.0737C44.2627 63.8388 47.089 66.7793 51.1151 66.7793ZM46.689 57.8167C47.0623 54.9028 48.7459 53.4478 51.058 53.4478C53.6824 53.4478 55.1412 55.3904 55.3698 57.8167H46.689Z" fill="black"/>
<path d="M72.3803 66.7793C76.5169 66.7793 79.5146 63.7816 79.5146 59.0737C79.5146 54.362 76.5169 51.3643 72.3803 51.3643C68.2399 51.3643 65.2422 54.362 65.2422 59.0737C65.2422 63.7816 68.2399 66.7793 72.3803 66.7793ZM72.3803 64.7225C69.5235 64.7225 67.6419 62.6389 67.6419 59.0737C67.6419 55.5047 69.5235 53.4211 72.3803 53.4211C75.2332 53.4211 77.1187 55.5047 77.1187 59.0737C77.1187 62.6389 75.2332 64.7225 72.3803 64.7225Z" fill="black"/>
<path d="M87.6205 48.0539H88.9346V46.1113C88.5918 46.0847 87.9061 46.0542 87.4795 46.0542C84.5656 46.0542 83.3658 47.5968 83.3658 50.1946V51.7068H80.9395V53.7065H83.3658V66.4362H85.6512V53.7065H88.7898V51.7068H85.6512V50.1375C85.6512 48.7967 86.3064 48.0539 87.6205 48.0539Z" fill="black"/>
<path d="M108.827 64.5815C108.286 64.5815 108.027 64.3225 108.027 63.8692V55.6456C108.027 53.1621 106.572 51.3643 102.489 51.3643C98.1807 51.3643 96.6685 53.3907 96.4971 56.2474H98.7787C98.9235 54.0496 99.9786 53.3335 102.489 53.3335C105.003 53.3335 105.803 54.1067 105.803 55.6456C105.803 56.9597 104.972 57.5006 103.49 57.672L101.376 57.9005C97.3237 58.3309 95.9258 60.1555 95.9258 62.4675C95.9258 65.2367 97.9217 66.7793 101.121 66.7793C103.231 66.7793 104.888 65.9794 105.917 64.4101C106.031 65.808 106.774 66.5203 108.4 66.5203C108.827 66.5203 109.284 66.4937 109.657 66.4365V64.5815H108.827ZM101.236 64.8367C99.2092 64.8367 98.295 63.8692 98.295 62.4104C98.295 60.9858 99.0377 60.0717 101.719 59.7555L103.86 59.5003C104.717 59.4127 105.345 59.2146 105.803 58.8718V60.6125C105.803 63.5264 103.433 64.8367 101.236 64.8367Z" fill="black"/>
<path d="M265.315 114.872C237.617 107.982 209.169 104.096 180.633 103.268C152.102 102.445 123.477 104.648 95.3985 109.81C81.4506 112.372 67.6329 115.675 54.0339 119.716C47.2423 121.737 40.4923 123.945 33.8152 126.32C27.6589 128.518 21.3568 130.675 15.4923 133.581C10.5912 136.008 5.69538 139.247 2.71101 143.94C-0.273369 148.633 -0.471285 154.867 2.37247 159.878C5.52871 165.466 11.2683 168.8 17.2683 170.586C24.0235 172.612 31.2475 173.341 38.211 174.294C67.237 178.284 96.5808 179.763 125.857 178.68C154.94 177.596 183.951 174.024 212.425 168.008C226.841 164.961 241.133 161.289 255.227 156.982C262.133 154.872 269.013 152.638 275.82 150.195C280.951 148.346 286.05 146.065 290.419 142.763C294.477 139.701 298.112 135.622 299.149 130.503C300.326 124.669 298.149 118.961 294.096 114.727C289.409 109.826 282.836 107.518 276.326 106.237C269.008 104.8 261.529 103.956 254.117 103.065C224.201 99.4818 193.992 98.2735 163.878 99.4298C133.586 100.591 103.378 104.138 73.6433 110.034C66.435 111.466 59.2631 113.034 52.1121 114.747C49.6173 115.341 50.6798 119.18 53.1693 118.581C81.7683 111.763 110.872 107.138 140.18 104.805C169.378 102.482 198.753 102.378 227.966 104.518C242.471 105.586 256.982 107.128 271.357 109.388C277.711 110.393 284.612 111.737 289.664 116.029C293.763 119.503 296.544 124.706 295.149 130.159C293.93 134.883 290.06 138.404 286.096 140.951C281.346 143.997 276.096 145.93 270.784 147.758C257.367 152.383 243.742 156.425 229.977 159.878C202.622 166.753 174.685 171.32 146.56 173.518C118.268 175.727 89.7787 175.57 61.5079 172.997C54.435 172.357 47.3777 171.565 40.3412 170.622C33.31 169.675 26.6693 168.935 20.0495 167.237C14.1954 165.742 8.36726 162.919 5.48705 157.3C3.05476 152.56 4.44538 147.367 7.96622 143.628C11.4818 139.888 16.4141 137.305 21.1798 135.346C27.4923 132.753 33.935 130.435 40.3985 128.232C53.487 123.779 66.8152 120.018 80.3048 116.956C107.195 110.862 134.706 107.576 162.279 107.122C189.841 106.669 217.451 109.039 244.513 114.315C251.128 115.607 257.706 117.07 264.247 118.701C266.732 119.32 267.789 115.487 265.305 114.862L265.315 114.872Z" fill="#E7F096"/>
<mask id="mask0_2124_1132" style="mask-type:luminance" maskUnits="userSpaceOnUse" x="149" y="0" width="108" height="67">
<path d="M149.909 0.837891H256.43V66.7793H149.909V0.837891Z" fill="white"/>
</mask>
<g mask="url(#mask0_2124_1132)">
<mask id="mask1_2124_1132" style="mask-type:luminance" maskUnits="userSpaceOnUse" x="148" y="-7" width="120" height="95">
<path d="M148.89 59.0359L248.82 -6.41406L267.16 21.5912L167.234 87.0412L148.89 59.0359Z" fill="white"/>
</mask>
<g mask="url(#mask1_2124_1132)">
<mask id="mask2_2124_1132" style="mask-type:luminance" maskUnits="userSpaceOnUse" x="148" y="-7" width="120" height="95">
<path d="M148.889 59.0359L248.819 -6.41406L267.159 21.5912L167.233 87.0412L148.889 59.0359Z" fill="white"/>
</mask>
<g mask="url(#mask2_2124_1132)">
<path d="M151.025 58.8141C151.017 58.9171 151.061 59.0003 151.148 59.0598C151.101 59.4204 150.522 59.5472 150.72 60.0188C150.486 61.1323 151.192 61.6515 152.036 62.0676C154.41 63.2287 156.922 63.9816 159.482 64.58C168.656 66.712 177.846 66.8309 187.158 65.321C203.41 62.6897 216.899 54.9582 228.419 43.5017C233.757 38.1915 238.069 32.0492 242.095 25.7047C244.465 21.9757 246.597 18.1159 248.828 14.3076C248.848 14.1332 248.863 13.9668 248.883 13.7924C249.042 13.6775 249.188 13.5031 249.359 13.4754C249.359 13.4754 249.359 13.4754 249.367 13.4754C249.501 13.4556 249.529 13.6498 249.45 13.7885C249.656 15.5083 249.498 17.2163 249.244 18.9124C249.073 20.0735 248.994 21.2148 249.26 22.364C248.871 24.8646 249.922 26.5765 252.141 27.2106C255.085 23.117 255.442 18.421 255.414 13.6181C255.406 11.8348 255.517 10.0515 255.6 8.26825C255.806 4.00029 255.533 4.6066 252.624 2.69652C251.974 2.2725 251.237 2.00303 250.476 1.81281C250.195 1.74148 249.929 1.70185 249.676 1.86829C248.907 1.42446 248.277 1.8247 247.683 2.24476C245.919 3.49701 244.175 4.76512 242.42 6.02926C241.905 6.07285 241.552 6.38987 241.215 6.73068C240.696 6.75049 240.347 7.08337 239.987 7.39247C239.618 7.34491 239.369 7.61439 239.075 7.75705C235.069 9.64335 230.904 11.0541 226.513 11.7516C226.184 11.8031 225.859 11.8823 225.53 11.9497C225.142 12.025 224.698 12.1082 224.643 12.56C224.599 12.9008 224.912 13.2614 225.194 13.3367C226.442 13.6735 227.282 14.7197 228.463 15.1517C228.986 15.3459 229.545 15.3062 230.111 15.2587C234.49 14.9099 238.687 13.7964 242.781 12.2469C243.145 12.1082 243.498 11.9101 243.878 11.8506C244.322 11.7833 244.417 12.136 244.413 12.5045C244.013 12.7027 243.847 13.0236 243.886 13.4596C243.557 13.7132 243.26 13.9826 243.319 14.4582C243.209 14.4701 243.169 14.5335 243.201 14.6405C242.88 14.8703 242.622 15.1358 242.654 15.5757C242.471 15.7818 242.257 15.9641 242.111 16.1979C240.514 18.738 238.96 21.3059 237.336 23.8263C235.861 26.1168 234.316 28.3598 232.802 30.6186C232.331 31.1694 231.839 31.6965 231.391 32.2592C227.001 37.72 222.019 42.5665 216.325 46.6561C214.292 48.1184 212.215 49.5133 210.155 50.936C209.612 50.9716 209.263 51.3283 208.906 51.681C208.383 51.7048 208.046 52.0376 207.702 52.3705C207.202 52.3547 206.897 52.6994 206.556 52.9768C206.227 52.9372 206.002 53.0997 205.815 53.3454C205.696 53.3375 205.609 53.389 205.562 53.4999C205.197 53.4603 204.947 53.7218 204.65 53.8526C203.184 54.4906 201.837 55.3902 200.287 55.8459C200.24 56.0322 199.895 56.3373 200.493 56.2264C200.89 56.155 200.969 56.2382 200.937 56.369C200.905 56.4879 200.79 56.6425 200.715 56.7693C196.011 58.6397 191.141 59.9237 186.179 60.8866C185.712 60.9302 185.24 60.9817 184.773 61.0293C181.975 61.3067 179.173 61.5881 176.379 61.8694C176.28 61.806 176.181 61.7862 176.086 61.802C176.019 61.8139 175.955 61.8377 175.892 61.8813C175.733 61.7783 175.575 61.7862 175.42 61.8932C175.258 61.7862 175.099 61.7941 174.945 61.909C174.786 61.7941 174.628 61.802 174.469 61.917C174.311 61.802 174.152 61.802 173.994 61.9209C173.835 61.802 173.681 61.802 173.522 61.9209H173.518C173.368 61.802 173.205 61.802 173.055 61.917H173.043C172.892 61.9051 172.738 61.9011 172.583 61.909H172.563C172.413 61.7902 172.262 61.7822 172.104 61.8972H172.088C171.933 61.7783 171.783 61.7743 171.624 61.8892H171.608C171.458 61.7624 171.303 61.7585 171.145 61.8734H171.133C170.982 61.7505 170.828 61.7466 170.669 61.8615H170.661C170.507 61.7386 170.348 61.7307 170.189 61.8417C168.735 61.6951 167.285 61.5484 165.834 61.4018C165.054 61.5603 164.297 61.3424 163.54 61.2274C163.508 61.1403 163.504 61.061 163.512 60.9817C163.52 60.8589 163.568 60.7479 163.655 60.6409C163.092 60.4983 162.541 60.3081 161.943 60.4269C161.768 60.4785 161.59 60.5062 161.404 60.4587C161.582 60.4468 161.761 60.4388 161.943 60.4269C161.772 60.3437 161.602 60.2843 161.444 60.4269C161.241 60.213 160.996 60.1694 160.714 60.2248C160.588 60.0861 160.441 60.0426 160.271 60.1456C160.104 60.0426 159.942 59.9831 159.755 60.0782C159.68 60.0148 159.601 59.9831 159.498 60.0029C158.975 59.7652 158.428 59.6423 157.853 59.6542C157.473 59.5036 157.096 59.3451 156.676 59.4006C156.47 59.2183 156.213 59.2183 155.959 59.1985C154.469 58.604 152.876 58.291 151.433 57.3756C151.362 57.97 150.78 58.2593 151.025 58.8141ZM243.43 14.8822C243.426 14.8862 243.426 14.8862 243.423 14.8862C243.426 14.8901 243.43 14.8901 243.43 14.8901C243.426 14.8901 243.419 14.8901 243.419 14.8901L243.423 14.8862C243.419 14.8822 243.419 14.8822 243.411 14.8782C243.423 14.8782 243.423 14.8822 243.43 14.8822ZM171.2 62.8007C171.236 62.8086 171.271 62.8165 171.311 62.8245C171.299 62.8245 171.291 62.8284 171.279 62.8284C171.248 62.8284 171.216 62.8284 171.18 62.8245C171.184 62.8205 171.192 62.8126 171.2 62.8007ZM176.356 61.8853C176.36 61.8892 176.356 61.8892 176.36 61.8932C176.356 61.9051 176.36 61.9209 176.356 61.9328L176.348 61.9764L176.356 61.8892C176.352 61.8853 176.352 61.8892 176.348 61.8853C176.352 61.8892 176.352 61.8853 176.356 61.8853ZM171.097 62.9433C171.125 62.9037 171.152 62.8641 171.176 62.8324C171.208 62.8324 171.24 62.8324 171.271 62.8324C171.204 62.8403 171.141 62.876 171.097 62.9433ZM171.489 62.8443C171.525 62.8482 171.565 62.8482 171.6 62.8522C171.6 62.8562 171.604 62.8562 171.608 62.8601C171.569 62.8522 171.525 62.8482 171.489 62.8443ZM153.332 60.7876C153.328 60.7915 153.32 60.7876 153.316 60.7915H153.312C153.308 60.7876 153.304 60.7836 153.3 60.7796C153.308 60.7796 153.32 60.7836 153.332 60.7876ZM153.993 61.0491C153.997 61.057 154.005 61.061 154.013 61.061C154.009 61.0531 153.997 61.0531 153.993 61.0491ZM161.146 60.5894C161.127 60.6172 161.111 60.6489 161.099 60.6885C161.083 60.6726 161.067 60.6568 161.051 60.6409C161.083 60.6251 161.111 60.6053 161.146 60.5894ZM159.942 60.205C159.882 60.2011 159.823 60.1773 159.767 60.1337C159.767 60.1337 159.767 60.1337 159.771 60.1297C159.831 60.1694 159.886 60.1971 159.942 60.205Z" fill="black"/>
</g>
</g>
</g>
<mask id="mask3_2124_1132" style="mask-type:luminance" maskUnits="userSpaceOnUse" x="188" y="60" width="2" height="2">
<path d="M188.008 60.1123H189.341V61.4456H188.008V60.1123Z" fill="white"/>
</mask>
<g mask="url(#mask3_2124_1132)">
<mask id="mask4_2124_1132" style="mask-type:luminance" maskUnits="userSpaceOnUse" x="157" y="-30" width="156" height="124">
<path d="M157.336 56.6019L288.674 -29.4189L312.779 7.38835L181.445 93.4092L157.336 56.6019Z" fill="white"/>
</mask>
<g mask="url(#mask4_2124_1132)">
<mask id="mask5_2124_1132" style="mask-type:luminance" maskUnits="userSpaceOnUse" x="157" y="-30" width="156" height="124">
<path d="M157.336 56.6019L288.674 -29.4189L312.779 7.38835L181.445 93.4092L157.336 56.6019Z" fill="white"/>
</mask>
<g mask="url(#mask5_2124_1132)">
<path d="M188.44 60.3829C188.644 60.3881 188.847 60.3881 189.045 60.3985C188.847 60.2371 188.644 60.2371 188.44 60.3829Z" fill="black"/>
</g>
</g>
</g>
<path d="M87.1293 105.105C85.2074 105.105 82.8064 106.303 81.4887 108.465C71.5304 124.782 64.3272 139.902 57.7283 157.183C57.2491 158.501 57.0095 159.824 57.4887 160.902C53.1658 162.704 49.5668 163.902 46.5668 164.022C47.6501 165.824 49.8064 166.662 52.447 166.662C70.3272 166.662 117.129 129.944 111.249 108.345C108.129 96.4645 95.2856 92.8604 84.3689 92.8604C66.1293 92.8604 40.6866 101.022 42.0095 118.303C42.4887 124.183 46.5668 128.381 49.0877 128.381C49.5668 128.381 50.046 128.261 50.2856 127.902C51.9679 126.105 47.2856 128.142 45.7283 119.741C45.1293 109.662 64.8064 98.8604 81.9679 98.8604H82.8064C130.926 99.7041 90.1293 143.142 61.9262 158.621C69.0095 140.86 78.9679 123.704 90.2491 106.782C89.5304 105.584 88.3272 105.105 87.1293 105.105Z" fill="black"/>
<path d="M111.251 157.662C119.767 157.662 128.048 146.142 132.491 140.022C134.048 137.741 135.251 135.944 135.97 134.985C135.97 134.022 135.251 133.662 134.767 133.662C134.647 133.662 134.527 133.662 134.527 133.782C129.73 140.381 119.767 153.704 111.011 153.704C107.527 153.345 108.251 149.022 110.287 144.105C111.011 145.063 112.329 145.543 113.767 145.543C117.85 145.423 122.767 139.303 124.329 135.584V135.345C124.688 134.741 124.808 134.022 125.048 133.183C125.767 129.345 123.011 125.985 119.287 125.985C117.97 125.985 116.527 126.345 115.089 127.303C107.647 132.225 98.6468 146.621 105.73 155.142C107.048 156.944 108.97 157.662 111.251 157.662ZM121.089 130.782C121.569 130.782 121.928 130.902 122.168 131.261C122.407 131.86 122.287 132.584 122.048 133.543C120.251 137.86 114.85 142.782 112.449 142.782C111.85 142.782 111.491 142.543 111.251 141.944C114.251 136.303 118.808 130.782 121.089 130.782Z" fill="black"/>
<path d="M123.61 152.141C124.688 155.74 127.808 157.063 131.167 157.063C135.25 157.063 139.688 154.902 140.526 152.022C141.61 148.542 139.927 144.464 138.13 141.225C133.927 132.584 141.729 126.225 148.688 122.621C149.651 122.022 147.25 119.261 143.891 119.261C142.328 119.261 140.526 119.74 138.849 121.303C126.25 131.501 137.406 142.902 136.808 147.464C136.448 150.944 132.729 151.902 129.37 151.902C126.729 151.902 124.328 151.303 124.089 150.704C123.969 150.584 123.729 150.464 123.61 150.464C123.37 150.464 123.25 150.944 123.61 152.141Z" fill="black"/>
<path d="M168.008 101.86C167.529 101.86 167.289 102.105 166.69 102.824C163.57 107.142 159.487 115.782 160.086 121.303C160.206 122.022 160.45 122.381 160.57 122.381C160.69 122.381 160.81 122.142 161.169 121.662C164.648 116.621 167.888 111.465 171.487 106.543C171.726 106.063 172.45 105.465 172.086 104.741C171.607 103.303 169.81 101.86 168.008 101.86ZM168.008 132.944C168.008 132.944 167.888 132.944 167.768 133.183C162.846 139.902 157.81 146.741 151.206 151.902C150.367 152.381 150.008 152.621 149.529 152.621C149.409 152.621 149.409 152.621 149.289 152.501C147.726 151.662 151.206 144.824 151.69 143.741C154.086 138.944 156.966 133.782 159.846 129.465L159.966 129.225C161.289 126.824 158.768 125.501 156.966 124.662C156.247 124.423 155.768 124.183 155.409 124.183C153.367 124.183 144.966 144.225 143.768 147.105C142.206 151.303 145.206 155.381 148.57 155.381C153.367 155.381 163.086 143.142 165.846 139.303C166.81 137.621 168.008 135.944 169.206 134.261C168.966 133.423 168.607 132.944 168.008 132.944Z" fill="black"/>
<path d="M183.13 129.465L183.01 129.345C182.531 126.105 181.088 120.704 177.01 120.704C176.291 120.704 175.328 120.944 174.249 121.662C168.369 125.022 157.926 143.741 160.328 152.985C161.046 155.985 163.208 157.303 165.13 157.303C166.208 157.303 167.171 156.944 167.89 156.105C170.65 153.105 174.968 146.985 178.567 141.225C173.531 154.303 164.65 175.303 154.567 175.303C150.01 175.303 148.926 170.86 148.926 166.902C148.926 166.303 149.046 165.105 148.088 164.985C147.249 164.86 147.369 166.183 147.369 166.782C147.489 172.662 149.531 179.261 156.609 179.261C157.567 179.261 158.77 179.022 159.968 178.782L160.088 178.662C173.89 174.824 183.848 144.704 188.291 134.741C189.369 132.465 190.328 129.944 191.411 127.543C192.489 125.022 189.609 124.303 187.567 124.303C186.968 124.303 186.249 124.423 186.13 124.543C185.046 125.501 184.328 126.944 183.489 128.621L183.13 129.465ZM181.208 132.465L181.088 132.584C176.171 140.621 167.171 153.944 165.369 153.944C161.291 153.944 173.65 125.621 179.046 125.621H179.291C180.13 125.741 180.369 126.944 180.609 128.621C180.729 128.985 181.088 131.621 181.208 132.465Z" fill="black"/>
<path d="M218.17 123.944C216.967 122.74 215.41 122.261 213.847 122.261C212.17 122.86 194.17 146.74 192.248 149.621C193.446 147.345 194.769 145.542 195.727 143.381C199.087 136.902 199.087 137.621 202.446 131.141C203.17 129.944 203.649 129.345 202.691 128.261L202.446 128.022C201.368 126.944 199.811 126.345 198.368 126.345C196.566 126.345 195.727 126.704 195.009 128.381C190.446 137.501 189.009 139.063 185.649 148.662C184.446 152.381 185.05 154.662 188.529 156.345C189.128 156.584 189.727 156.944 190.087 156.944C190.811 156.944 191.17 156.464 191.649 155.621C197.17 147.225 203.41 139.303 209.769 131.501C207.248 135.944 199.446 153.225 207.727 155.022C208.087 155.141 208.326 155.141 208.691 155.141C215.529 155.141 225.488 141.704 229.087 136.542C229.691 135.464 230.41 134.621 230.769 134.022C230.529 133.183 229.93 132.704 229.566 132.704C229.446 132.704 229.326 132.824 229.326 132.824C229.087 133.183 227.529 135.105 225.727 137.621L225.488 137.985L225.368 138.105C222.128 142.063 216.608 150.105 211.93 150.824C206.649 151.423 217.326 131.022 218.649 128.022L218.769 127.662C219.368 126.225 219.368 124.902 218.17 123.944Z" fill="black"/>
<path d="M227.891 157.662C236.406 157.662 244.687 146.142 249.13 140.022C250.687 137.741 251.891 135.944 252.609 134.985C252.609 134.022 251.891 133.662 251.406 133.662C251.286 133.662 251.167 133.662 251.167 133.782C246.37 140.381 236.406 153.704 227.651 153.704C224.167 153.345 224.891 149.022 226.927 144.105C227.651 145.063 228.969 145.543 230.406 145.543C234.49 145.423 239.406 139.303 240.969 135.584V135.345C241.328 134.741 241.448 134.022 241.687 133.183C242.406 129.345 239.651 125.985 235.927 125.985C234.609 125.985 233.167 126.345 231.729 127.303C224.286 132.225 215.286 146.621 222.37 155.142C223.687 156.944 225.609 157.662 227.891 157.662ZM237.729 130.782C238.208 130.782 238.568 130.902 238.807 131.261C239.047 131.86 238.927 132.584 238.687 133.543C236.891 137.86 231.49 142.782 229.088 142.782C228.49 142.782 228.13 142.543 227.891 141.944C230.891 136.303 235.448 130.782 237.729 130.782Z" fill="black"/>
<path d="M264.848 119.621C264.489 119.142 263.89 118.663 263.41 118.183C265.088 115.423 266.41 112.782 267.249 110.501C267.968 108.465 267.129 103.064 264.369 103.303C259.327 103.663 253.686 112.663 259.686 118.663C255.968 124.902 251.77 132.944 249.129 136.543C249.009 136.782 249.129 137.985 249.968 137.985C250.207 137.985 250.567 137.86 251.291 137.381C254.046 133.902 256.567 128.381 261.728 120.824C262.088 121.303 262.447 121.782 262.567 122.142C265.327 127.423 250.088 146.022 250.327 155.142C250.327 157.902 251.65 162.345 255.129 162.345C255.489 162.345 255.728 162.225 256.088 162.105C262.447 158.985 275.89 137.142 277.567 134.86C277.806 134.501 277.567 133.902 277.088 133.663C276.848 133.543 276.728 133.423 276.489 133.423C276.249 133.423 276.129 133.543 275.77 133.782C273.009 137.501 259.207 158.741 255.728 158.142C257.65 151.183 264.968 138.704 266.65 134.022C268.447 129.584 269.89 122.86 264.848 119.621ZM264.009 108.345C264.608 108.345 264.728 109.064 264.009 110.985C263.53 112.543 262.686 114.225 261.848 115.543C259.686 112.663 262.926 108.345 264.009 108.345Z" fill="black"/>
</svg>
