<svg width="349" height="349" viewBox="0 0 349 349" fill="none" xmlns="http://www.w3.org/2000/svg">
<mask id="mask0_1767_878" style="mask-type:alpha" maskUnits="userSpaceOnUse" x="0" y="0" width="349" height="349">
<circle cx="174.132" cy="174.631" r="174.112" fill="#D9D9D9"/>
</mask>
<g mask="url(#mask0_1767_878)">
<mask id="path-2-inside-1_1767_878" fill="white">
<path fill-rule="evenodd" clip-rule="evenodd" d="M201.563 12.3028C201.187 11.3092 200.715 10.4895 200.147 9.84367C199.438 11.1424 198.561 11.5079 197.518 10.9402C197.135 10.7273 197.071 10.4434 197.326 10.0885C197.773 9.46397 198.338 9.01685 199.019 8.74716C199.281 8.64071 199.313 8.48457 199.115 8.27876L198.689 7.84229C198.616 7.76672 198.518 7.72143 198.413 7.71551C198.308 7.70958 198.205 7.74346 198.125 7.81035L194.888 10.4079C194.952 11.9763 194.2 12.6825 192.631 12.5264C192.241 12.4909 191.964 12.2957 191.801 11.9409L191.492 11.2808C191.258 10.784 190.878 10.6031 190.353 10.7379C189.998 10.8302 189.675 10.9899 189.385 11.217C189.051 11.4725 188.682 11.5399 188.277 11.4192C186.262 10.8231 183.966 10.674 181.39 10.9721C177.479 11.1424 173.363 11.0147 169.041 10.5889C164.378 10.1346 160.219 10.9224 156.564 12.9522C154.903 13.8748 153.381 14.4036 151.997 14.5384C151.049 14.6292 150.065 14.6905 149.068 14.7527C144.805 15.0187 140.292 15.3002 137.221 17.9663C134.197 20.5922 130.365 22.7036 125.724 24.3005C123.035 25.23 122.195 28.1506 121.378 30.9936C120.894 32.6765 120.417 34.3322 119.57 35.5316C117.093 39.0589 115.489 42.7991 114.758 46.7521C114.695 47.1212 114.514 47.4157 114.216 47.6357C112.796 48.6932 111.92 50.0842 111.586 51.8088C111.515 52.1921 111.579 52.5469 111.778 52.8734C112.869 54.6698 111.893 56.3135 110.895 57.9933C109.753 59.917 108.582 61.888 110.458 64.1897C111.149 65.039 112.33 65.4961 113.501 65.9494C114.15 66.2007 114.796 66.4508 115.355 66.766C115.66 66.9406 115.921 67.1851 116.114 67.4793C116.307 67.7735 116.428 68.1089 116.466 68.4581C116.505 68.8073 116.46 69.1603 116.335 69.4879C116.21 69.8156 116.009 70.1086 115.749 70.3429C115.046 70.9746 114.265 71.4181 113.406 71.6736C107.417 73.5047 101.136 76.3648 94.5637 80.254C91.9981 81.7763 90.0393 84.0651 91.7106 87.1204C92.3835 88.3611 93.4625 89.2417 94.5435 90.124C95.1044 90.5818 95.6657 91.0399 96.1712 91.549C98.3802 93.7672 96.5758 96.1095 95.0536 98.0855C94.7933 98.4235 94.5412 98.7508 94.3188 99.0649C93.3181 100.477 93.1585 102.195 93.8398 104.217C94.4915 106.117 93.6904 107.364 92.8429 108.683C92.0569 109.906 91.231 111.191 91.4871 113.117C91.5118 113.299 91.5371 113.482 91.5626 113.666C92.0085 116.888 92.4991 120.433 90.6461 123.273C89.1983 125.498 86.5262 129.629 87.2288 132.279C88.0663 135.466 89.9577 137.698 92.903 138.975C98.0768 141.218 103.211 143.443 108.307 145.65C116.121 149.05 121.845 154.433 125.479 161.8C126.685 164.248 127.746 167.928 128.662 172.839C129.357 176.544 130.422 180.43 131.855 184.496C132.111 185.225 132.366 185.952 132.62 186.677C136.677 198.273 140.596 209.47 147.579 219.499C149.14 221.749 150.592 224.031 151.933 226.344C152.307 226.99 152.461 227.74 152.37 228.48C152.28 229.219 151.951 229.909 151.433 230.443C148.91 233.051 146.759 235.372 144.992 238.704C142.097 244.169 139.279 249.491 136.539 254.672C129.375 268.182 123.988 283.267 121.103 299.065C120.163 304.209 119.068 309.295 117.968 314.408C116.416 321.62 114.853 328.885 113.694 336.442C111.409 351.381 109.304 366.125 107.381 380.674C106.615 386.48 105.554 393.495 104.198 401.721C100.969 421.337 98.6055 441.11 97.108 461.038C95.905 477.039 94.1591 489.558 91.7852 504.43C91.7355 504.749 91.8668 504.909 92.1791 504.909L269.908 504.898C270.171 504.898 270.295 504.771 270.281 504.515C268.968 484.757 267.733 465.261 266.576 446.028C266.129 438.647 265.916 431.649 265.937 425.035C266.03 396.817 265.806 363.563 265.267 325.274C265.054 310.037 263.808 295.655 261.53 282.128C259.092 267.671 255.505 254.161 248.84 241.876C245.505 235.73 241.087 228.58 235.587 220.425C233.951 217.99 232.042 215.776 230.127 213.555C228.602 211.785 227.073 210.012 225.676 208.119C222.021 203.158 217.603 199.517 212.422 197.196C207.482 194.982 208.004 179.035 208.664 174.564C208.962 172.552 211.719 172.36 212.858 173.808C213.05 174.049 213.288 174.237 213.571 174.372C214.189 174.677 214.675 174.532 215.03 173.936C217.415 169.912 219.451 165.969 221.14 162.108C223.791 156.083 227.432 150.803 231.403 145.395C238.561 135.64 246.104 125.97 253.444 116.561C256.453 112.704 259.428 108.891 262.329 105.133C264.869 101.847 267.296 97.9258 269.61 93.3694C269.766 93.0572 269.802 92.7307 269.717 92.3901L268.748 88.5896C268.372 88.0502 268.287 87.5569 268.492 87.1098C268.641 86.7762 268.893 86.6662 269.248 86.7798L270.11 87.0459C270.785 86.1659 270.675 85.3959 269.78 84.7358C269.369 84.4306 269.039 84.1574 268.79 83.9161C268.521 83.6606 268.361 83.2916 268.311 82.809C268.02 80.2824 267.57 77.7736 266.959 75.2825C266.86 74.8638 266.903 74.4592 267.087 74.0689C267.098 74.046 267.109 74.0231 267.12 74.0003C268.036 71.8859 263.244 63.9449 263.244 63.9449C263.244 63.9449 261.406 64.392 260.306 64.2004C259.177 63.9875 258.375 63.2529 257.9 61.9967C257.382 60.6412 257.105 59.935 257.07 59.8782C255.671 57.1742 253.972 54.7328 251.97 52.554C251.806 52.3705 251.706 52.1384 251.687 51.8939C251.668 51.6494 251.73 51.4062 251.864 51.202C252.857 49.7116 253.826 48.9522 254.77 48.9239C254.735 48.2425 255.65 47.0041 257.517 45.2085C257.559 45.1687 257.589 45.1183 257.604 45.0627C257.62 45.007 257.62 44.9482 257.605 44.8924C257.589 44.8367 257.559 44.7862 257.518 44.7463C257.476 44.7063 257.424 44.6784 257.368 44.6656L254.525 44.0588C254.074 43.9564 253.601 44.0327 253.205 44.2717L247.691 47.6144C246.129 47.3022 245.672 45.3611 246.317 41.7913L244.848 37.8417C243.514 37.5437 242.794 36.6849 242.687 35.2655C242.659 34.9106 242.535 34.5948 242.315 34.318C241.846 33.7432 241.279 33.3457 240.611 33.1257C240.313 33.0334 240.09 32.8489 239.941 32.5721C239.046 30.9256 238.12 29.272 237.162 27.6113C236.055 25.6879 234.77 24.1408 233.308 22.9698C233.017 22.7356 232.797 22.4446 232.648 22.0968C232.237 21.1813 231.648 20.4077 230.881 19.7761C230.633 19.5702 230.349 19.4744 230.03 19.4886L222.354 19.7654C222.089 19.7749 221.826 19.7185 221.59 19.6013C221.354 19.4842 221.152 19.31 221.002 19.0947C220.491 18.3779 220.566 17.9379 221.226 17.7747C221.119 17.576 221.07 17.3169 221.077 16.9975C221.084 16.6356 220.917 16.4014 220.576 16.2949C220.427 16.2453 220.275 16.2453 220.118 16.2949C219.6 16.4653 219.228 16.7988 219.001 17.2956C218.561 18.2608 217.837 18.5766 216.829 18.2431C215.693 17.8669 213.089 16.5149 209.015 14.1871C206.765 14.4071 204.505 14.0168 202.234 13.0161C201.907 12.8741 201.684 12.6364 201.563 12.3028Z"/>
</mask>
<path d="M264.5 63.8171L264.76 62.5499L264.75 62.548L264.5 63.8171ZM267.204 64.3707L266.945 65.6379L266.951 65.6391L267.204 64.3707ZM268.311 63.8491L269.45 64.4634L269.456 64.4511L268.311 63.8491ZM270.185 61.8903L270.843 63.0037L270.852 62.9986L270.86 62.9934L270.185 61.8903ZM270.675 60.9641L271.966 60.8961L271.966 60.8868L270.675 60.9641ZM270.568 59.1863L271.859 59.1089L271.859 59.0988L270.568 59.1863ZM270.877 58.0365L269.806 57.3117L269.804 57.314L270.877 58.0365ZM270.717 52.9479L269.581 53.5664L269.582 53.567L270.717 52.9479ZM269.482 52.8202L270.46 53.6668L270.464 53.663L269.482 52.8202ZM266.661 54.8854L266.178 53.6856L266.175 53.6869L266.661 54.8854ZM266.459 54.598L267.416 55.4681L267.418 55.466L266.459 54.598ZM268.993 50.872L270.152 51.4456L270.152 51.4455L268.993 50.872ZM271.963 46.6457L271.001 45.7811L270.997 45.7858L271.963 46.6457ZM272.399 46.9438L271.242 46.3653L271.24 46.3703L272.399 46.9438ZM271.356 51.053L272.649 51.1001L272.649 51.0918L271.356 51.053ZM271.633 52.1388L272.749 51.4857L272.744 51.4768L271.633 52.1388ZM273.464 57.5681L272.176 57.6884L272.176 57.6908L273.464 57.5681ZM274.156 62.5077L272.978 61.9725L272.976 61.9771L274.156 62.5077ZM268.279 72.2165L267.294 71.3786L267.289 71.3849L268.279 72.2165ZM267.147 73.9456L268.307 74.5181L268.307 74.5178L267.147 73.9456ZM267.12 74.0003L265.956 73.437L265.944 73.4612L265.933 73.4858L267.12 74.0003ZM263.244 63.9449C263.568 65.1972 263.568 65.1972 263.568 65.1972C263.568 65.1972 263.567 65.1973 263.567 65.1973C263.567 65.1973 263.567 65.1974 263.567 65.1974C263.567 65.1975 263.566 65.1975 263.566 65.1976C263.566 65.1977 263.566 65.1977 263.566 65.1977C263.566 65.1977 263.567 65.1975 263.568 65.1971C263.571 65.1964 263.577 65.195 263.585 65.1931C263.601 65.1891 263.627 65.183 263.66 65.1757C263.727 65.1608 263.819 65.142 263.919 65.1255C264.021 65.1087 264.117 65.097 264.196 65.0925C264.288 65.0872 264.297 65.0953 264.251 65.0863L264.75 62.548C264.281 62.4558 263.759 62.5302 263.501 62.5726C263.341 62.5987 263.2 62.6278 263.099 62.6502C263.048 62.6615 263.006 62.6713 262.976 62.6787C262.961 62.6824 262.948 62.6855 262.939 62.6879C262.934 62.689 262.93 62.69 262.927 62.6908C262.925 62.6912 262.924 62.6916 262.923 62.6919C262.922 62.692 262.922 62.6921 262.921 62.6923C262.921 62.6923 262.921 62.6924 262.921 62.6924C262.921 62.6925 262.921 62.6925 262.92 62.6925C262.92 62.6925 262.92 62.6926 263.244 63.9449ZM264.241 65.0843L266.945 65.6379L267.464 63.1035L264.76 62.5499L264.241 65.0843ZM266.951 65.6391C267.404 65.7298 267.914 65.7161 268.405 65.4849C268.895 65.2539 269.23 64.8696 269.45 64.4634L267.173 63.2347C267.151 63.2756 267.181 63.2018 267.302 63.1447C267.424 63.0874 267.501 63.111 267.458 63.1023L266.951 65.6391ZM269.456 64.4511C269.775 63.8444 270.229 63.3667 270.843 63.0037L269.527 60.7769C268.508 61.379 267.713 62.2072 267.167 63.247L269.456 64.4511ZM270.86 62.9934C271.199 62.7863 271.505 62.4954 271.712 62.1036C271.919 61.7114 271.987 61.2939 271.966 60.8961L269.383 61.0321C269.383 61.0388 269.381 60.9779 269.425 60.8944C269.469 60.8114 269.519 60.7813 269.51 60.7871L270.86 62.9934ZM271.966 60.8868L271.859 59.1089L269.277 59.2636L269.384 61.0414L271.966 60.8868ZM271.859 59.0988C271.85 58.9664 271.876 58.8682 271.95 58.7591L269.804 57.314C269.409 57.9003 269.23 58.5686 269.278 59.2738L271.859 59.0988ZM271.948 58.7614C273.268 56.8104 273.075 54.57 271.853 52.3288L269.582 53.567C270.503 55.2576 270.416 56.4096 269.806 57.3117L271.948 58.7614ZM271.853 52.3294C271.627 51.9141 271.15 51.2402 270.281 51.1503C269.414 51.0607 268.809 51.6192 268.501 51.9773L270.464 53.663C270.524 53.5923 270.53 53.6046 270.473 53.6376C270.404 53.6769 270.241 53.7469 270.015 53.7235C269.788 53.7001 269.641 53.5975 269.581 53.5434C269.53 53.498 269.537 53.4857 269.581 53.5664L271.853 52.3294ZM268.504 51.9736C267.802 52.7855 267.026 53.3442 266.178 53.6856L267.144 56.0853C268.412 55.575 269.517 54.7568 270.46 53.6668L268.504 51.9736ZM266.175 53.6869C266.077 53.7267 266.077 53.7185 266.138 53.7073C266.164 53.7025 266.285 53.6802 266.453 53.7017C266.615 53.7225 267.016 53.8134 267.301 54.2182C267.587 54.6245 267.536 55.0352 267.5 55.197C267.462 55.3638 267.399 55.4711 267.386 55.4938C267.353 55.548 267.345 55.5463 267.416 55.4681L265.502 53.7279C265.396 53.8449 265.263 54.0015 265.159 54.1772C265.109 54.2607 265.023 54.4196 264.976 54.6288C264.93 54.8329 264.883 55.2768 265.186 55.707C265.487 56.1358 265.919 56.2415 266.124 56.2677C266.335 56.2948 266.513 56.2688 266.608 56.2512C266.808 56.2142 267.001 56.1435 267.148 56.084L266.175 53.6869ZM267.418 55.466C268.513 54.2557 269.425 52.9146 270.152 51.4456L267.833 50.2984C267.212 51.5547 266.434 52.6975 265.5 53.73L267.418 55.466ZM270.152 51.4455C270.747 50.2429 271.662 48.9293 272.929 47.5056L270.997 45.7858C269.623 47.3286 268.558 48.8327 267.833 50.2985L270.152 51.4455ZM272.925 47.5102C273.136 47.2758 273.265 47.1489 273.327 47.095C273.367 47.0612 273.33 47.1 273.237 47.1477C273.193 47.1709 273.068 47.2319 272.887 47.2589C272.698 47.2873 272.348 47.2894 272.003 47.0538C271.658 46.8184 271.532 46.4917 271.49 46.3059C271.449 46.1284 271.46 45.9904 271.465 45.9405C271.476 45.8375 271.498 45.7891 271.481 45.8382C271.454 45.9166 271.383 46.0833 271.242 46.3653L273.556 47.5222C273.71 47.2152 273.842 46.9277 273.925 46.6867C273.964 46.5761 274.019 46.4018 274.039 46.2065C274.049 46.1104 274.059 45.9348 274.011 45.728C273.962 45.5129 273.824 45.1653 273.461 44.9175C273.098 44.6695 272.724 44.6676 272.505 44.7004C272.294 44.7319 272.134 44.8058 272.048 44.8502C271.874 44.9406 271.732 45.0556 271.643 45.1318C271.449 45.2979 271.23 45.5259 271.001 45.7812L272.925 47.5102ZM271.24 46.3703C270.508 47.8506 270.111 49.4021 270.063 51.0142L272.649 51.0918C272.686 49.865 272.985 48.6771 273.559 47.5172L271.24 46.3703ZM270.063 51.0059C270.04 51.6355 270.199 52.259 270.522 52.8009L272.744 51.4768C272.678 51.3655 272.644 51.2349 272.649 51.1001L270.063 51.0059ZM270.516 52.792C271.484 54.4467 272.025 56.0764 272.176 57.6884L274.752 57.4479C274.562 55.4119 273.882 53.4221 272.749 51.4857L270.516 52.792ZM272.176 57.6908C272.232 58.276 272.379 58.8027 272.528 59.2529C272.602 59.4767 272.681 59.6958 272.75 59.8901C272.822 60.091 272.885 60.2688 272.94 60.4415C273.154 61.1144 273.182 61.5247 272.978 61.9725L275.333 63.043C275.928 61.7342 275.695 60.5689 275.406 59.6583C275.335 59.4351 275.257 59.2165 275.186 59.0176C275.112 58.8121 275.046 58.6279 274.984 58.442C274.863 58.0728 274.781 57.7545 274.752 57.4455L272.176 57.6908ZM272.976 61.9771C271.23 65.8591 269.331 68.983 267.294 71.3787L269.265 73.0544C271.5 70.4253 273.519 67.0766 275.335 63.0383L272.976 61.9771ZM265.987 73.3732C265.976 73.394 265.966 73.4153 265.956 73.437L268.284 74.5636C268.291 74.5488 268.299 74.5337 268.307 74.5181L265.987 73.3732ZM267.289 71.3849C266.772 72.001 266.336 72.6641 265.987 73.3735L268.307 74.5178C268.562 73.9996 268.882 73.51 269.27 73.0482L267.289 71.3849ZM265.933 73.4858C265.935 73.4808 265.939 73.4739 265.943 73.4656L268.231 74.6722C268.259 74.6196 268.284 74.5671 268.307 74.5149L265.933 73.4858ZM200.147 9.84367L202.09 8.1356L199.65 5.35946L197.877 8.60315L200.147 9.84367ZM201.563 12.3028L203.996 11.4229L203.989 11.4048L203.983 11.3869L201.563 12.3028ZM202.234 13.0161L203.277 10.6487L203.265 10.6436L202.234 13.0161ZM209.015 14.1871L210.299 11.941L209.583 11.5322L208.763 11.6124L209.015 14.1871ZM216.829 18.2431L216.016 20.6988L216.016 20.699L216.829 18.2431ZM219.001 17.2956L216.648 16.2201L216.647 16.2225L219.001 17.2956ZM220.118 16.2949L219.334 13.8297L219.322 13.8335L219.311 13.8374L220.118 16.2949ZM220.576 16.2949L219.758 18.7492L219.781 18.7569L219.805 18.7642L220.576 16.2949ZM221.077 16.9975L223.663 17.055L223.663 17.0483L221.077 16.9975ZM221.226 17.7747L221.847 20.286L225.078 19.4869L223.506 16.5531L221.226 17.7747ZM221.002 19.0947L223.126 17.6176L223.117 17.6053L223.109 17.5931L221.002 19.0947ZM222.354 19.7654L222.447 22.3507L222.447 22.3507L222.354 19.7654ZM230.03 19.4886L230.123 22.0739L230.134 22.0735L230.144 22.0731L230.03 19.4886ZM230.881 19.7761L229.231 21.7681L229.236 21.7725L230.881 19.7761ZM232.648 22.0968L235.026 21.0778L235.017 21.0568L235.008 21.036L232.648 22.0968ZM233.308 22.9698L231.686 24.9851L231.691 24.9889L233.308 22.9698ZM237.162 27.6113L234.92 28.9019L234.921 28.904L237.162 27.6113ZM239.941 32.5721L242.218 31.3456L242.214 31.3375L239.941 32.5721ZM240.611 33.1257L241.422 30.6689L241.399 30.6614L241.376 30.6544L240.611 33.1257ZM242.315 34.318L244.34 32.7083L244.33 32.696L244.32 32.6839L242.315 34.318ZM242.687 35.2655L245.267 35.072L245.266 35.0592L242.687 35.2655ZM244.848 37.8417L247.273 36.9398L246.783 35.6233L245.412 35.317L244.848 37.8417ZM246.317 41.7913L248.863 42.2518L248.989 41.554L248.742 40.8894L246.317 41.7913ZM247.691 47.6144L247.183 50.1512L248.171 50.3486L249.032 49.8267L247.691 47.6144ZM253.205 44.2717L251.868 42.0569L251.864 42.0594L253.205 44.2717ZM254.525 44.0588L253.953 46.5816L253.969 46.5853L253.985 46.5888L254.525 44.0588ZM257.368 44.6656L257.942 42.1432L257.925 42.1393L257.908 42.1356L257.368 44.6656ZM257.517 45.2085L255.735 43.333L255.729 43.3386L255.723 43.3442L257.517 45.2085ZM254.77 48.9239L254.848 51.5097L257.491 51.4302L257.354 48.7893L254.77 48.9239ZM251.864 51.202L249.711 49.767L249.706 49.7751L249.701 49.7833L251.864 51.202ZM251.97 52.554L250.043 54.2802L250.054 54.2922L250.065 54.3041L251.97 52.554ZM257.07 59.8782L254.772 61.0664L254.82 61.16L254.876 61.2493L257.07 59.8782ZM257.9 61.9967L260.319 61.0809L260.316 61.0731L257.9 61.9967ZM260.306 64.2004L259.826 66.7425L259.844 66.7459L259.862 66.749L260.306 64.2004ZM263.244 63.9449L265.459 62.6082L264.478 60.9824L262.633 61.4312L263.244 63.9449ZM267.087 74.0689L264.749 72.9625L264.748 72.9633L267.087 74.0689ZM266.959 75.2825L264.442 75.8798L264.444 75.889L264.447 75.8981L266.959 75.2825ZM268.311 82.809L270.885 82.5441L270.883 82.5285L270.881 82.513L268.311 82.809ZM268.79 83.9161L270.593 82.0605L270.581 82.0492L270.57 82.0381L268.79 83.9161ZM269.78 84.7358L268.24 86.814L268.244 86.8172L269.78 84.7358ZM270.11 87.0459L269.348 89.5178L271.069 90.0491L272.164 88.6192L270.11 87.0459ZM269.248 86.7798L268.46 89.2437L268.472 89.2478L268.485 89.2517L269.248 86.7798ZM268.492 87.1098L270.842 88.1915L270.848 88.1784L270.854 88.1651L268.492 87.1098ZM268.748 88.5896L271.255 87.9506L271.139 87.4952L270.87 87.1098L268.748 88.5896ZM269.717 92.3901L272.226 91.7626L272.223 91.7511L269.717 92.3901ZM269.61 93.3694L271.917 94.5407L271.92 94.5336L271.924 94.5264L269.61 93.3694ZM262.329 105.133L260.282 103.55L260.281 103.552L262.329 105.133ZM231.403 145.395L233.488 146.926L233.489 146.925L231.403 145.395ZM221.14 162.108L218.773 161.067L218.77 161.072L221.14 162.108ZM215.03 173.936L217.253 175.259L217.255 175.255L215.03 173.936ZM213.571 174.372L214.718 172.053L214.7 172.044L214.681 172.035L213.571 174.372ZM212.858 173.808L210.825 175.408L210.832 175.417L212.858 173.808ZM208.664 174.564L206.105 174.185L206.105 174.186L208.664 174.564ZM212.422 197.196L211.363 199.557L211.364 199.557L212.422 197.196ZM225.676 208.119L223.593 209.653L223.594 209.655L225.676 208.119ZM235.587 220.425L233.439 221.868L233.442 221.872L235.587 220.425ZM248.84 241.876L251.114 240.643L251.114 240.642L248.84 241.876ZM261.53 282.128L264.081 281.698L264.081 281.697L261.53 282.128ZM265.267 325.274L262.68 325.31L262.68 325.311L265.267 325.274ZM265.937 425.035L263.35 425.026L263.35 425.026L265.937 425.035ZM266.576 446.028L269.158 445.873L269.158 445.872L266.576 446.028ZM270.281 504.515L272.864 504.372L272.863 504.358L272.862 504.344L270.281 504.515ZM269.908 504.898L269.908 502.311L269.908 502.311L269.908 504.898ZM92.1791 504.909L92.1791 507.496L92.1792 507.496L92.1791 504.909ZM91.7852 504.43L89.2305 504.022L89.2289 504.032L91.7852 504.43ZM97.108 461.038L99.6877 461.232L99.6877 461.232L97.108 461.038ZM104.198 401.721L101.645 401.3L101.645 401.301L104.198 401.721ZM107.381 380.674L104.816 380.335L104.816 380.336L107.381 380.674ZM113.694 336.442L111.137 336.05L111.137 336.05L113.694 336.442ZM121.103 299.065L123.648 299.53L123.648 299.529L121.103 299.065ZM136.539 254.672L138.825 255.884L138.826 255.882L136.539 254.672ZM144.992 238.704L142.707 237.492L142.706 237.493L144.992 238.704ZM151.433 230.443L149.576 228.642L149.573 228.644L151.433 230.443ZM151.933 226.344L154.172 225.048L154.171 225.047L151.933 226.344ZM147.579 219.499L149.704 218.024L149.702 218.021L147.579 219.499ZM131.855 184.496L134.296 183.639L134.295 183.636L131.855 184.496ZM128.662 172.839L126.119 173.313L126.119 173.317L128.662 172.839ZM125.479 161.8L127.799 160.656L127.799 160.655L125.479 161.8ZM108.307 145.65L109.339 143.278L109.335 143.276L108.307 145.65ZM92.903 138.975L91.8736 141.349L91.8741 141.349L92.903 138.975ZM87.2288 132.279L89.7309 131.622L89.7295 131.616L87.2288 132.279ZM90.6461 123.273L88.4795 121.859L88.4778 121.862L90.6461 123.273ZM91.4871 113.117L88.9227 113.458L88.9237 113.466L91.4871 113.117ZM93.8398 104.217L91.3881 105.043L91.3904 105.05L91.3928 105.057L93.8398 104.217ZM94.3188 99.0649L96.4297 100.56L96.4303 100.56L94.3188 99.0649ZM96.1712 91.549L94.3354 93.3717L94.3382 93.3746L96.1712 91.549ZM91.7106 87.1204L93.9847 85.8871L93.9802 85.8789L91.7106 87.1204ZM94.5637 80.254L93.2462 78.0277L93.2436 78.0292L94.5637 80.254ZM113.406 71.6736L112.669 69.1941L112.659 69.1968L112.65 69.1996L113.406 71.6736ZM115.749 70.3429L114.019 68.4188L114.019 68.4191L115.749 70.3429ZM115.355 66.766L116.638 64.5197L116.627 64.5133L115.355 66.766ZM110.458 64.1897L112.463 62.556L112.463 62.5556L110.458 64.1897ZM111.778 52.8734L113.988 51.5298L113.987 51.5283L111.778 52.8734ZM111.586 51.8088L109.046 51.3176L109.044 51.3277L109.042 51.3378L111.586 51.8088ZM114.216 47.6357L112.679 45.5543L112.67 45.5612L114.216 47.6357ZM114.758 46.7521L112.215 46.2817L112.212 46.2963L112.209 46.311L114.758 46.7521ZM119.57 35.5316L117.457 34.0392L117.453 34.0449L119.57 35.5316ZM125.724 24.3005L124.882 21.8542L124.878 21.8555L125.724 24.3005ZM137.221 17.9663L135.525 16.0126L135.524 16.0132L137.221 17.9663ZM151.997 14.5384L152.244 17.1136L152.248 17.1132L151.997 14.5384ZM156.564 12.9522L155.308 10.6906L155.308 10.6908L156.564 12.9522ZM169.041 10.5889L169.294 8.01435L169.291 8.01407L169.041 10.5889ZM181.39 10.9721L181.502 13.5566L181.595 13.5526L181.687 13.5419L181.39 10.9721ZM188.277 11.4192L189.017 8.94015L189.011 8.93848L188.277 11.4192ZM189.385 11.217L190.958 13.2707L190.967 13.2636L190.976 13.2563L189.385 11.217ZM190.353 10.7379L189.71 8.23219L189.702 8.23417L190.353 10.7379ZM191.492 11.2808L193.836 10.1847L193.832 10.1777L191.492 11.2808ZM191.801 11.9409L194.151 10.8597L194.148 10.8522L194.144 10.8448L191.801 11.9409ZM192.631 12.5264L192.888 9.95212L192.877 9.95102L192.866 9.95002L192.631 12.5264ZM194.888 10.4079L193.269 8.39039L192.25 9.20801L192.303 10.5132L194.888 10.4079ZM198.125 7.81035L199.744 9.82785L199.76 9.81517L199.775 9.80224L198.125 7.81035ZM198.689 7.84229L196.824 9.63518L196.83 9.64203L196.837 9.64882L198.689 7.84229ZM199.115 8.27876L200.976 6.48183L200.966 6.47222L199.115 8.27876ZM199.019 8.74716L199.971 11.1526L199.981 11.1486L199.991 11.1446L199.019 8.74716ZM197.326 10.0885L199.426 11.6001L199.43 11.5944L197.326 10.0885ZM197.518 10.9402L196.261 13.2016L196.271 13.2071L196.281 13.2124L197.518 10.9402ZM149.068 14.7527L149.229 17.3347L149.229 17.3347L149.068 14.7527ZM121.378 30.9936L118.891 30.2785L118.891 30.2785L121.378 30.9936ZM110.895 57.9933L108.671 56.6722L108.671 56.6722L110.895 57.9933ZM113.501 65.9494L112.567 68.3619L112.567 68.3619L113.501 65.9494ZM94.5435 90.124L92.9078 92.1282L92.9078 92.1282L94.5435 90.124ZM95.0536 98.0855L93.0042 96.5068L93.0042 96.5068L95.0536 98.0855ZM92.8429 108.683L95.0192 110.081L95.0192 110.081L92.8429 108.683ZM91.5626 113.666L89.0001 114.021L89.0001 114.021L91.5626 113.666ZM132.62 186.677L135.061 185.823L135.061 185.823L132.62 186.677ZM117.968 314.408L120.497 314.952L120.497 314.952L117.968 314.408ZM230.127 213.555L228.168 215.244L228.168 215.244L230.127 213.555ZM253.444 116.561L255.484 118.152L255.484 118.152L253.444 116.561ZM267.12 74.0003L269.448 75.1278L269.472 75.079L269.494 75.0292L267.12 74.0003ZM198.204 11.5517C198.525 11.9166 198.853 12.4497 199.144 13.2187L203.983 11.3869C203.521 10.1688 202.905 9.06243 202.09 8.1356L198.204 11.5517ZM199.13 13.1827C199.494 14.188 200.226 14.964 201.202 15.3885L203.265 10.6436C203.395 10.6999 203.556 10.7996 203.706 10.9592C203.856 11.1189 203.947 11.2871 203.996 11.4229L199.13 13.1827ZM201.191 15.3834C203.828 16.5453 206.532 17.0292 209.267 16.7618L208.763 11.6124C206.998 11.785 205.182 11.4882 203.277 10.6487L201.191 15.3834ZM207.732 16.4332C211.723 18.7143 214.58 20.2232 216.016 20.6988L217.642 15.7873C216.807 15.5107 214.454 14.3156 210.299 11.941L207.732 16.4332ZM216.016 20.699C216.914 20.9963 218.04 21.1171 219.162 20.6275C220.285 20.1378 220.962 19.2299 221.355 18.3687L216.647 16.2225C216.599 16.3265 216.695 16.0592 217.093 15.8852C217.492 15.7115 217.752 15.8235 217.642 15.7871L216.016 20.699ZM221.353 18.3712C221.333 18.4168 221.279 18.5082 221.176 18.6003C221.073 18.6925 220.976 18.7364 220.926 18.7525L219.311 13.8374C218.106 14.2333 217.174 15.0686 216.648 16.2201L221.353 18.3712ZM220.903 18.7601C220.561 18.8689 220.152 18.8804 219.758 18.7492L221.394 13.8407C220.702 13.6101 219.988 13.6216 219.334 13.8297L220.903 18.7601ZM219.805 18.7642C219.568 18.6904 219.166 18.4955 218.85 18.0511C218.536 17.6102 218.486 17.1755 218.49 16.9468L223.663 17.0483C223.675 16.4576 223.545 15.7249 223.064 15.0498C222.581 14.3712 221.925 14.006 221.348 13.8257L219.805 18.7642ZM218.49 16.9401C218.477 17.5296 218.559 18.2746 218.945 18.9963L223.506 16.5531C223.595 16.7192 223.633 16.8596 223.649 16.9441C223.665 17.0269 223.663 17.0689 223.663 17.055L218.49 16.9401ZM220.605 15.2634C219.87 15.445 218.417 16.0683 218.124 17.7951C217.902 19.1081 218.58 20.1541 218.896 20.5964L223.109 17.5931C223.061 17.5256 223.099 17.564 223.149 17.6958C223.197 17.8224 223.307 18.1757 223.225 18.6591C223.133 19.206 222.838 19.6557 222.482 19.9482C222.176 20.1994 221.906 20.2713 221.847 20.286L220.605 15.2634ZM218.878 20.5719C219.278 21.147 219.816 21.6092 220.441 21.9188L222.74 17.2838C222.892 17.3591 223.025 17.473 223.126 17.6176L218.878 20.5719ZM220.441 21.9188C221.065 22.2283 221.754 22.3756 222.447 22.3507L222.261 17.1801C222.424 17.1743 222.588 17.2087 222.74 17.2838L220.441 21.9188ZM222.447 22.3507L230.123 22.0739L229.936 16.9033L222.261 17.1801L222.447 22.3507ZM230.144 22.0731C230.006 22.0792 229.836 22.0621 229.655 22.001C229.474 21.94 229.332 21.8518 229.231 21.7681L232.532 17.784C231.794 17.1726 230.882 16.8612 229.915 16.9042L230.144 22.0731ZM229.236 21.7725C229.692 22.1485 230.039 22.6007 230.289 23.1577L235.008 21.036C234.435 19.7618 233.603 18.6669 232.526 17.7796L229.236 21.7725ZM230.271 23.1159C230.584 23.8473 231.061 24.482 231.686 24.985L234.931 20.9545C234.946 20.9672 234.968 20.9879 234.989 21.0157C235.01 21.0433 235.021 21.0664 235.026 21.0778L230.271 23.1159ZM231.691 24.9889C232.859 25.9246 233.945 27.2076 234.92 28.9019L239.404 26.3206C238.165 24.1682 236.681 22.3569 234.926 20.9506L231.691 24.9889ZM234.921 28.904C235.869 30.546 236.784 32.1802 237.667 33.8068L242.214 31.3375C241.309 29.671 240.372 27.998 239.403 26.3185L234.921 28.904ZM237.663 33.7986C238.131 34.6676 238.895 35.3025 239.846 35.597L241.376 30.6544C241.525 30.7003 241.699 30.7846 241.867 30.923C242.034 31.0611 242.148 31.2145 242.218 31.3456L237.663 33.7986ZM239.801 35.5825C239.973 35.6392 240.134 35.7376 240.309 35.9521L244.32 32.6839C243.558 31.7487 242.584 31.0523 241.422 30.6689L239.801 35.5825ZM240.29 35.9278C240.247 35.8738 240.201 35.7999 240.165 35.7092C240.13 35.6187 240.114 35.5358 240.109 35.4718L245.266 35.0592C245.197 34.1957 244.882 33.3905 244.34 32.7083L240.29 35.9278ZM240.108 35.459C240.19 36.5624 240.533 37.6924 241.325 38.6367C242.125 39.5902 243.188 40.1215 244.284 40.3665L245.412 35.317C245.287 35.2891 245.236 35.2613 245.232 35.2588C245.23 35.2577 245.237 35.2615 245.249 35.2717C245.262 35.2821 245.276 35.2957 245.289 35.3115C245.319 35.3467 245.323 35.3659 245.314 35.3424C245.304 35.3141 245.279 35.2314 245.267 35.072L240.108 35.459ZM242.424 38.7436L243.893 42.6932L248.742 40.8894L247.273 36.9398L242.424 38.7436ZM243.772 41.3307C243.429 43.2255 243.306 45.0249 243.658 46.5183C243.842 47.2951 244.182 48.1111 244.8 48.8012C245.446 49.5221 246.276 49.9696 247.183 50.1512L248.198 45.0777C248.325 45.1031 248.512 45.1909 248.653 45.3484C248.767 45.4753 248.74 45.5243 248.694 45.3306C248.589 44.883 248.56 43.9269 248.863 42.2518L243.772 41.3307ZM249.032 49.8267L254.546 46.484L251.864 42.0594L246.35 45.4022L249.032 49.8267ZM254.542 46.4865C254.365 46.5932 254.154 46.6273 253.953 46.5816L255.098 41.536C253.995 41.2855 252.837 41.4722 251.868 42.0569L254.542 46.4865ZM253.985 46.5888L256.828 47.1956L257.908 42.1356L255.065 41.5288L253.985 46.5888ZM256.793 47.188C256.393 47.0968 256.025 46.8988 255.729 46.6153L259.306 42.8772C258.926 42.5139 258.455 42.2601 257.942 42.1432L256.793 47.188ZM255.729 46.6153C255.433 46.3317 255.219 45.9729 255.11 45.5773L260.099 44.2076C259.96 43.7005 259.686 43.2407 259.306 42.8772L255.729 46.6153ZM255.11 45.5773C255.002 45.1822 255.002 44.7645 255.112 44.3688L260.097 45.7565C260.238 45.2495 260.238 44.7142 260.099 44.2076L255.11 45.5773ZM255.112 44.3688C255.222 43.973 255.438 43.6152 255.735 43.333L259.299 47.084C259.679 46.7223 259.955 46.2637 260.097 45.7565L255.112 44.3688ZM255.723 43.3442C254.746 44.2846 253.932 45.1582 253.35 45.9462C253.058 46.3403 252.78 46.7729 252.57 47.2304C252.373 47.6613 252.147 48.3041 252.187 49.0584L257.354 48.7893C257.375 49.203 257.251 49.4354 257.273 49.3864C257.284 49.364 257.344 49.247 257.51 49.0219C257.843 48.5714 258.421 47.928 259.31 47.0729L255.723 43.3442ZM254.692 46.338C252.393 46.4072 250.778 48.1676 249.711 49.767L254.016 52.637C254.424 52.0261 254.738 51.7028 254.932 51.5507C255.113 51.4083 255.074 51.5029 254.848 51.5097L254.692 46.338ZM249.701 49.7833C249.251 50.4694 249.044 51.2836 249.108 52.097L254.266 51.6909C254.292 52.0152 254.209 52.3429 254.027 52.6207L249.701 49.7833ZM249.108 52.097C249.172 52.9098 249.502 53.6763 250.043 54.2802L253.897 50.8279C254.109 51.0647 254.241 51.3671 254.266 51.6909L249.108 52.097ZM250.065 54.3041C251.907 56.309 253.476 58.5604 254.772 61.0664L259.368 58.69C257.867 55.7881 256.037 53.1567 253.875 50.804L250.065 54.3041ZM254.876 61.2493C254.825 61.1681 254.791 61.1026 254.778 61.0778C254.761 61.0462 254.749 61.0213 254.743 61.0081C254.736 60.9937 254.731 60.9829 254.729 60.9772C254.726 60.9711 254.724 60.9673 254.724 60.9664C254.723 60.9649 254.725 60.9686 254.729 60.9794C254.734 60.9897 254.74 61.0039 254.747 61.0225C254.779 61.1 254.828 61.2218 254.895 61.3945C255.03 61.7372 255.225 62.2444 255.483 62.9203L260.316 61.0731C260.057 60.3935 259.855 59.8699 259.712 59.5064C259.642 59.326 259.582 59.1759 259.536 59.0626C259.513 59.0074 259.488 58.9483 259.464 58.8936C259.453 58.867 259.436 58.8281 259.415 58.7848C259.408 58.7705 259.351 58.6471 259.263 58.5071L254.876 61.2493ZM255.48 62.9126C256.211 64.8434 257.648 66.3316 259.826 66.7425L260.785 61.6582C260.667 61.6359 260.631 61.6054 260.605 61.5821C260.565 61.545 260.447 61.4177 260.319 61.0809L255.48 62.9126ZM259.862 66.749C260.849 66.9209 261.936 66.7963 262.564 66.7039C262.922 66.6513 263.235 66.592 263.46 66.5458C263.573 66.5226 263.666 66.5022 263.733 66.487C263.767 66.4794 263.795 66.473 263.815 66.4682C263.825 66.4658 263.834 66.4637 263.841 66.4621C263.844 66.4613 263.847 66.4606 263.849 66.46C263.851 66.4597 263.852 66.4594 263.853 66.4592C263.853 66.4591 263.854 66.459 263.854 66.4589C263.854 66.4588 263.855 66.4587 263.855 66.4587C263.855 66.4586 263.855 66.4586 263.244 63.9449C262.633 61.4312 262.633 61.4311 262.633 61.4311C262.633 61.431 262.633 61.431 262.634 61.4309C262.634 61.4308 262.634 61.4308 262.635 61.4307C262.635 61.4306 262.636 61.4305 262.636 61.4304C262.637 61.4302 262.637 61.4301 262.637 61.4302C262.636 61.4302 262.635 61.4307 262.631 61.4315C262.624 61.4332 262.611 61.4362 262.592 61.4404C262.555 61.4489 262.495 61.462 262.419 61.4777C262.265 61.5094 262.05 61.5499 261.811 61.585C261.568 61.6207 261.326 61.6472 261.111 61.657C261.005 61.6619 260.918 61.6621 260.85 61.6594C260.779 61.6567 260.748 61.6515 260.75 61.6518L259.862 66.749ZM264.748 72.9633C264.314 73.8827 264.207 74.8876 264.442 75.8798L269.476 74.6852C269.49 74.7434 269.501 74.8312 269.49 74.9358C269.479 75.0404 269.45 75.1228 269.426 75.1745L264.748 72.9633ZM264.447 75.8981C265.032 78.2848 265.463 80.6869 265.741 83.1049L270.881 82.513C270.578 79.8779 270.108 77.2623 269.472 74.6669L264.447 75.8981ZM265.738 83.0739C265.831 83.9803 266.17 84.9972 267.011 85.7941L270.57 82.0381C270.709 82.17 270.795 82.3107 270.843 82.4203C270.887 82.5223 270.888 82.5749 270.885 82.5441L265.738 83.0739ZM266.988 85.7717C267.347 86.1209 267.775 86.4696 268.24 86.814L271.321 82.6577C270.962 82.3917 270.73 82.1939 270.593 82.0605L266.988 85.7717ZM268.244 86.8172C268.375 86.9139 268.051 86.7241 267.973 86.1742C267.894 85.6226 268.153 85.3472 268.057 85.4726L272.164 88.6192C272.742 87.8646 273.283 86.7642 273.095 85.4425C272.906 84.1226 272.08 83.2178 271.317 82.6544L268.244 86.8172ZM270.873 84.574L270.011 84.3079L268.485 89.2517L269.348 89.5178L270.873 84.574ZM270.037 84.3159C269.475 84.1361 268.638 84.0222 267.758 84.4063C266.869 84.7944 266.38 85.4967 266.13 86.0545L270.854 88.1651C270.754 88.3894 270.465 88.8699 269.828 89.148C269.2 89.4221 268.667 89.31 268.46 89.2437L270.037 84.3159ZM266.142 86.0281C265.426 87.5842 265.925 89.0639 266.626 90.0693L270.87 87.1098C270.834 87.0578 270.912 87.15 270.951 87.3749C270.996 87.6348 270.962 87.9311 270.842 88.1915L266.142 86.0281ZM266.241 89.2285L267.21 93.029L272.223 91.7511L271.255 87.9506L266.241 89.2285ZM267.207 93.0175C267.181 92.9122 267.165 92.7717 267.182 92.6108C267.2 92.4497 267.246 92.3137 267.296 92.2125L271.924 94.5264C272.358 93.6583 272.46 92.6986 272.226 91.7626L267.207 93.0175ZM267.304 92.1982C265.047 96.6413 262.704 100.418 260.282 103.55L264.375 106.715C267.035 103.275 269.546 99.2103 271.917 94.5407L267.304 92.1982ZM229.318 143.864C225.332 149.292 221.545 154.765 218.773 161.067L223.508 163.15C226.038 157.401 229.533 152.313 233.488 146.926L229.318 143.864ZM218.77 161.072C217.128 164.826 215.141 168.674 212.804 172.617L217.255 175.255C219.688 171.149 221.775 167.113 223.511 163.145L218.77 161.072ZM212.807 172.613C212.838 172.56 213.082 172.186 213.657 172.014C214.237 171.84 214.653 172.021 214.718 172.053L212.425 176.691C213.108 177.029 214.076 177.289 215.141 176.97C216.202 176.653 216.867 175.907 217.253 175.259L212.807 172.613ZM214.681 172.035C214.709 172.049 214.746 172.07 214.785 172.101C214.825 172.132 214.858 172.167 214.884 172.199L210.832 175.417C211.275 175.974 211.828 176.408 212.461 176.709L214.681 172.035ZM214.891 172.208C213.671 170.657 211.732 170.102 210.096 170.325C208.358 170.562 206.459 171.791 206.105 174.185L211.223 174.943C211.218 174.979 211.2 175.048 211.155 175.131C211.11 175.214 211.05 175.286 210.988 175.341C210.867 175.447 210.78 175.454 210.795 175.452C210.81 175.45 210.847 175.451 210.879 175.463C210.906 175.473 210.873 175.469 210.825 175.408L214.891 172.208ZM206.105 174.186C205.745 176.624 205.444 181.928 205.865 186.943C206.075 189.449 206.476 192.025 207.208 194.185C207.894 196.212 209.094 198.54 211.363 199.557L213.48 194.836C213.28 194.746 212.692 194.25 212.108 192.525C211.569 190.932 211.215 188.827 211.021 186.51C210.632 181.88 210.923 176.975 211.223 174.942L206.105 174.186ZM211.364 199.557C216.103 201.68 220.179 205.02 223.593 209.653L227.758 206.584C223.862 201.296 219.102 197.354 213.479 194.836L211.364 199.557ZM233.442 221.872C238.913 229.983 243.283 237.06 246.567 243.11L251.114 240.642C247.727 234.401 243.261 227.177 237.731 218.979L233.442 221.872ZM246.567 243.11C253.039 255.041 256.564 268.236 258.979 282.558L264.081 281.697C261.62 267.105 257.971 253.282 251.114 240.643L246.567 243.11ZM258.979 282.557C261.233 295.941 262.469 310.191 262.68 325.31L267.853 325.238C267.639 309.883 266.383 295.368 264.081 281.698L258.979 282.557ZM262.68 325.311C263.219 363.59 263.443 396.827 263.35 425.026L268.524 425.043C268.617 396.806 268.393 363.537 267.853 325.238L262.68 325.311ZM263.35 425.026C263.329 431.702 263.544 438.755 263.994 446.184L269.158 445.872C268.714 438.539 268.503 431.597 268.524 425.043L263.35 425.026ZM263.994 446.183C265.151 465.422 266.386 484.923 267.7 504.687L272.862 504.344C271.549 484.591 270.315 465.1 269.158 445.873L263.994 446.183ZM267.698 504.659C267.683 504.385 267.714 503.647 268.344 502.999C268.959 502.366 269.672 502.311 269.908 502.311V507.485C270.407 507.485 271.313 507.367 272.053 506.606C272.807 505.831 272.893 504.901 272.864 504.372L267.698 504.659ZM269.908 502.311L92.1789 502.322L92.1792 507.496L269.908 507.485L269.908 502.311ZM92.1791 502.322C92.3949 502.322 93.2107 502.375 93.8447 503.146C94.4568 503.891 94.3667 504.665 94.3414 504.828L89.2289 504.032C89.1539 504.515 89.1047 505.528 89.8481 506.432C90.6133 507.363 91.6509 507.496 92.1791 507.496V502.322ZM94.3398 504.838C96.7196 489.929 98.4773 477.332 99.6877 461.232L94.5283 460.844C93.3328 476.745 91.5987 489.187 89.2305 504.022L94.3398 504.838ZM99.6877 461.232C101.18 441.379 103.534 421.682 106.751 402.141L101.645 401.301C98.4038 420.992 96.0314 440.84 94.5283 460.844L99.6877 461.232ZM106.751 402.141C108.109 393.899 109.175 386.855 109.946 381.013L104.816 380.336C104.055 386.105 102.998 393.091 101.645 401.3L106.751 402.141ZM109.946 381.013C111.867 366.482 113.968 351.755 116.251 336.833L111.137 336.05C108.849 351.007 106.742 365.768 104.816 380.335L109.946 381.013ZM123.648 299.529C126.484 284.001 131.78 269.168 138.825 255.884L134.254 253.46C126.97 267.196 121.493 282.532 118.558 298.6L123.648 299.529ZM138.826 255.882C141.566 250.701 144.383 245.379 147.278 239.915L142.706 237.493C139.81 242.958 136.992 248.282 134.253 253.463L138.826 255.882ZM147.278 239.916C148.86 236.932 150.783 234.835 153.292 232.242L149.573 228.644C147.036 231.267 144.659 233.811 142.707 237.492L147.278 239.916ZM153.29 232.244C154.201 231.304 154.78 230.092 154.938 228.793L149.802 228.166C149.78 228.347 149.7 228.513 149.576 228.642L153.29 232.244ZM154.938 228.793C155.097 227.494 154.827 226.18 154.172 225.048L149.694 227.641C149.787 227.801 149.824 227.985 149.802 228.166L154.938 228.793ZM154.171 225.047C152.794 222.671 151.305 220.33 149.704 218.024L145.454 220.974C146.976 223.168 148.39 225.39 149.695 227.642L154.171 225.047ZM134.295 183.636C132.899 179.677 131.872 175.92 131.204 172.362L126.119 173.317C126.842 177.168 127.944 181.182 129.416 185.356L134.295 183.636ZM131.205 172.365C130.276 167.38 129.163 163.424 127.799 160.656L123.158 162.943C124.207 165.072 125.217 168.476 126.119 173.313L131.205 172.365ZM127.799 160.655C123.884 152.718 117.691 146.912 109.339 143.278L107.275 148.022C114.551 151.188 119.806 156.148 123.159 162.944L127.799 160.655ZM109.335 143.276C104.24 141.069 99.1054 138.844 93.9318 136.602L91.8741 141.349C97.0481 143.592 102.183 145.817 107.279 148.024L109.335 143.276ZM93.9324 136.602C91.7372 135.65 90.3728 134.064 89.7308 131.622L84.7268 132.937C85.7598 136.867 88.1782 139.746 91.8736 141.349L93.9324 136.602ZM89.7295 131.616C89.6318 131.248 89.7382 130.301 90.4781 128.704C91.1504 127.254 92.0807 125.812 92.8144 124.684L88.4778 121.862C87.7637 122.959 86.634 124.695 85.784 126.529C85.0016 128.216 84.1233 130.66 84.7282 132.942L89.7295 131.616ZM96.2914 103.392C95.8052 101.948 96.0196 101.139 96.4297 100.56L92.208 97.5693C90.6167 99.8152 90.5117 102.441 91.3881 105.043L96.2914 103.392ZM93.9802 85.8789C93.7331 85.4271 93.6804 85.1187 93.6771 84.9289C93.674 84.7426 93.7161 84.5484 93.8383 84.3159C94.1175 83.7846 94.7781 83.1349 95.8838 82.4788L93.2436 78.0292C91.7836 78.8955 90.182 80.1513 89.2583 81.9088C88.2382 83.8498 88.2058 86.1039 89.4411 88.362L93.9802 85.8789ZM95.8812 82.4803C102.314 78.6738 108.406 75.9073 114.163 74.1476L112.65 69.1996C106.427 71.1021 99.9577 74.0558 93.2462 78.0277L95.8812 82.4803ZM114.144 74.1532C115.391 73.7823 116.506 73.1406 117.478 72.2668L114.019 68.4191C113.586 68.8085 113.14 69.0539 112.669 69.1941L114.144 74.1532ZM117.478 72.267C118.045 71.7577 118.481 71.1207 118.753 70.4088L113.918 68.5671C113.939 68.5105 113.974 68.4595 114.019 68.4188L117.478 72.267ZM118.753 70.4088C119.024 69.6969 119.121 68.9312 119.038 68.175L113.895 68.7413C113.889 68.6835 113.896 68.6237 113.918 68.5671L118.753 70.4088ZM119.038 68.175C118.955 67.4188 118.693 66.6937 118.276 66.0588L113.952 68.8998C113.921 68.8532 113.901 68.799 113.895 68.7413L119.038 68.175ZM118.276 66.0588C117.859 65.4238 117.297 64.8965 116.638 64.5197L114.071 69.0122C114.023 68.9848 113.982 68.9464 113.952 68.8998L118.276 66.0588ZM113.987 51.5283C114.044 51.6209 114.099 51.7493 114.127 51.9041C114.155 52.0581 114.147 52.1894 114.13 52.2799L109.042 51.3378C108.858 52.3332 109.031 53.3366 109.568 54.2185L113.987 51.5283ZM114.126 52.3001C114.336 51.2141 114.855 50.3857 115.761 49.7103L112.67 45.5612C110.738 47.0007 109.503 48.9543 109.046 51.3176L114.126 52.3001ZM115.752 49.7171C116.593 49.0965 117.131 48.2112 117.308 47.1933L112.209 46.311C112.229 46.1991 112.275 46.0505 112.371 45.8955C112.466 45.74 112.58 45.6273 112.679 45.5543L115.752 49.7171ZM117.302 47.2225C117.961 43.6608 119.408 40.2637 121.687 37.0183L117.453 34.0449C114.778 37.8541 113.018 41.9373 112.215 46.2817L117.302 47.2225ZM126.565 26.7467C131.452 25.0655 135.594 22.8062 138.917 19.9194L135.524 16.0132C132.801 18.3783 129.278 20.3417 124.882 21.8542L126.565 26.7467ZM152.248 17.1132C154.089 16.9338 155.956 16.2492 157.82 15.2136L155.308 10.6908C153.85 11.5004 152.673 11.8733 151.746 11.9636L152.248 17.1132ZM157.82 15.2138C160.962 13.4691 164.584 12.7539 168.79 13.1637L169.291 8.01407C164.172 7.51535 159.476 8.37578 155.308 10.6906L157.82 15.2138ZM168.787 13.1634C173.218 13.5999 177.457 13.7328 181.502 13.5566L181.277 8.38758C177.501 8.55205 173.508 8.42947 169.294 8.01435L168.787 13.1634ZM181.687 13.5419C183.996 13.2748 185.931 13.4229 187.544 13.9L189.011 8.93848C186.593 8.22326 183.936 8.07324 181.092 8.40227L181.687 13.5419ZM187.538 13.8983C188.733 14.2546 189.962 14.0331 190.958 13.2707L187.811 9.16321C187.93 9.07207 188.128 8.96266 188.393 8.91429C188.657 8.866 188.878 8.89871 189.017 8.94015L187.538 13.8983ZM190.976 13.2563C190.982 13.2519 190.986 13.2494 190.988 13.248C190.99 13.2467 190.991 13.2461 190.992 13.2458C190.992 13.2455 190.993 13.2452 190.994 13.2446C190.996 13.2441 190.999 13.243 191.004 13.2416L189.702 8.23417C189.003 8.41596 188.36 8.73458 187.793 9.1776L190.976 13.2563ZM190.997 13.2436C190.845 13.2826 190.418 13.3459 189.919 13.1078C189.424 12.8719 189.211 12.5086 189.152 12.384L193.832 10.1777C193.539 9.55629 193.02 8.85412 192.145 8.43723C191.266 8.01811 190.387 8.05838 189.71 8.2322L190.997 13.2436ZM189.149 12.3769L189.458 13.037L194.144 10.8448L193.836 10.1847L189.149 12.3769ZM189.451 13.022C190.003 14.2216 191.089 14.9838 192.397 15.1027L192.866 9.95002C193.051 9.96684 193.334 10.0364 193.622 10.2392C193.91 10.4422 194.072 10.6875 194.151 10.8597L189.451 13.022ZM192.375 15.1006C193.51 15.2136 194.988 15.0837 196.143 14C197.3 12.9137 197.52 11.4439 197.473 10.3026L192.303 10.5132C192.311 10.7036 192.287 10.7384 192.307 10.6732C192.332 10.59 192.411 10.4061 192.601 10.2277C192.791 10.0496 192.978 9.98358 193.058 9.96455C193.121 9.94972 193.081 9.97133 192.888 9.95212L192.375 15.1006ZM196.508 12.4254L199.744 9.82785L196.505 5.79285L193.269 8.39039L196.508 12.4254ZM199.775 9.80224C199.353 10.1521 198.814 10.3293 198.267 10.2984L198.559 5.13266C197.802 5.08983 197.057 5.33482 196.474 5.81845L199.775 9.80224ZM198.267 10.2984C197.719 10.2674 197.204 10.0305 196.824 9.63518L200.554 6.04939C200.028 5.50298 199.316 5.1755 198.559 5.13266L198.267 10.2984ZM196.837 9.64882L197.263 10.0853L200.966 6.47222L200.541 6.03575L196.837 9.64882ZM197.254 10.0757C197.219 10.0394 196.451 9.27531 196.705 8.03183C196.963 6.77171 197.989 6.37324 198.047 6.34971L199.991 11.1446C200.311 11.0146 201.485 10.4849 201.774 9.06861C202.06 7.669 201.209 6.72392 200.976 6.48186L197.254 10.0757ZM198.067 6.34177C196.9 6.8035 195.944 7.57434 195.223 8.58261L199.43 11.5944C199.602 11.3536 199.775 11.2302 199.971 11.1526L198.067 6.34177ZM195.227 8.57693C194.885 9.05102 194.397 9.97278 194.659 11.1354C194.92 12.2957 195.753 12.9193 196.261 13.2016L198.774 8.67874C198.899 8.74814 199.509 9.12329 199.706 9.99973C199.904 10.8785 199.511 11.4809 199.426 11.6001L195.227 8.57693ZM196.281 13.2124C197.302 13.768 198.614 14.038 199.953 13.4796C201.164 12.9746 201.929 11.9777 202.417 11.0842L197.877 8.60315C197.779 8.78342 197.717 8.85219 197.711 8.85794C197.709 8.85989 197.788 8.77666 197.962 8.70418C198.15 8.62589 198.356 8.59891 198.54 8.61827C198.707 8.63585 198.783 8.68356 198.754 8.66789L196.281 13.2124ZM151.75 11.9632C150.852 12.0492 149.913 12.1081 148.907 12.1708L149.229 17.3347C150.218 17.273 151.245 17.2092 152.244 17.1136L151.75 11.9632ZM148.907 12.1708C146.814 12.3014 144.423 12.4455 142.157 12.9296C139.868 13.4186 137.509 14.291 135.525 16.0126L138.917 19.92C140.005 18.9755 141.437 18.3741 143.238 17.9894C145.062 17.5997 147.059 17.4701 149.229 17.3347L148.907 12.1708ZM124.878 21.8555C122.732 22.5975 121.418 24.1335 120.572 25.7013C119.767 27.1944 119.282 28.9208 118.891 30.2785L123.864 31.7086C124.291 30.2233 124.635 29.0679 125.126 28.1576C125.577 27.322 126.027 26.9329 126.569 26.7454L124.878 21.8555ZM118.891 30.2785C118.371 32.088 118 33.2701 117.457 34.0392L121.683 37.024C122.834 35.3943 123.416 33.2649 123.864 31.7086L118.891 30.2785ZM109.567 54.2169C109.652 54.3573 109.665 54.4344 109.668 54.4707C109.673 54.5172 109.675 54.6128 109.626 54.7916C109.503 55.2369 109.215 55.7575 108.671 56.6722L113.12 59.3144C113.574 58.5494 114.272 57.4082 114.615 56.1625C115.002 54.7514 114.965 53.1359 113.988 51.5298L109.567 54.2169ZM108.671 56.6722C108.155 57.5419 107.31 58.9095 107.007 60.4499C106.655 62.2371 107.035 64.0851 108.452 65.8238L112.463 62.5556C112.196 62.2278 112.113 62.007 112.082 61.887C112.053 61.7709 112.045 61.6402 112.083 61.4497C112.182 60.9482 112.494 60.3684 113.12 59.3144L108.671 56.6722ZM108.452 65.8235C109.664 67.3112 111.59 67.9837 112.567 68.3619L114.435 63.5369C113.07 63.0084 112.635 62.7668 112.463 62.556L108.452 65.8235ZM112.567 68.3619C113.256 68.6286 113.718 68.8128 114.083 69.0187L116.627 64.5133C115.875 64.0889 115.044 63.7727 114.435 63.5369L112.567 68.3619ZM89.4366 88.3538C90.3927 90.1166 91.8959 91.3024 92.9078 92.1282L96.1793 88.1199C95.0292 87.1811 94.3744 86.6056 93.9847 85.8871L89.4366 88.3538ZM92.9078 92.1282C93.4869 92.6009 93.9413 92.9748 94.3354 93.3717L98.007 89.7263C97.3901 89.1051 96.7218 88.5626 96.1793 88.1199L92.9078 92.1282ZM94.3382 93.3746C94.4716 93.5085 94.5381 93.6065 94.5702 93.6631C94.6008 93.7169 94.608 93.7466 94.6104 93.7582C94.6131 93.771 94.6324 93.8621 94.5543 94.0994C94.3544 94.7068 93.8389 95.4233 93.0042 96.5068L97.103 99.6643C97.7906 98.7718 98.9384 97.3291 99.469 95.7168C99.7561 94.8442 99.9074 93.8103 99.6747 92.6983C99.439 91.5722 98.8532 90.576 98.0042 89.7235L94.3382 93.3746ZM93.0042 96.5068C92.7511 96.8354 92.4655 97.2055 92.2074 97.5701L96.4303 100.56C96.6168 100.296 96.8354 100.012 97.103 99.6643L93.0042 96.5068ZM91.3928 105.057C91.534 105.468 91.4998 105.688 91.4359 105.891C91.3333 106.217 91.1269 106.568 90.6665 107.284L95.0192 110.081C95.8414 108.802 97.3798 106.564 96.2868 103.378L91.3928 105.057ZM90.6665 107.284C89.8928 108.488 88.5297 110.503 88.9227 113.458L94.0515 112.776C93.9323 111.88 94.2209 111.324 95.0192 110.081L90.6665 107.284ZM88.9237 113.466C88.9489 113.651 88.9747 113.837 89.0001 114.021L94.1252 113.311C94.0996 113.127 94.0747 112.947 94.0504 112.768L88.9237 113.466ZM89.0001 114.021C89.4785 117.478 89.7104 119.973 88.4795 121.859L92.8127 124.687C95.2877 120.894 94.5385 116.298 94.1252 113.311L89.0001 114.021ZM129.415 185.353C129.67 186.08 129.924 186.806 130.178 187.532L135.061 185.823C134.808 185.098 134.553 184.369 134.296 183.639L129.415 185.353ZM130.178 187.532C134.217 199.073 138.238 210.611 145.456 220.977L149.702 218.021C142.954 208.329 139.138 197.472 135.061 185.823L130.178 187.532ZM118.558 298.599C117.626 303.698 116.541 308.745 115.439 313.863L120.497 314.952C121.596 309.846 122.699 304.721 123.648 299.53L118.558 298.599ZM115.439 313.863C113.889 321.065 112.309 328.404 111.137 336.05L116.251 336.834C117.396 329.366 118.943 322.175 120.497 314.952L115.439 313.863ZM237.734 218.983C235.998 216.397 233.985 214.067 232.087 211.865L228.168 215.244C230.1 217.485 231.905 219.583 233.439 221.868L237.734 218.983ZM232.087 211.865C230.551 210.084 229.086 208.384 227.757 206.583L223.594 209.655C225.059 211.64 226.653 213.487 228.168 215.244L232.087 211.865ZM233.489 146.925C240.62 137.206 248.14 127.567 255.484 118.152L251.404 114.97C244.068 124.374 236.501 134.073 229.317 143.864L233.489 146.925ZM255.484 118.152C258.492 114.296 261.471 110.477 264.376 106.714L260.281 103.552C257.385 107.304 254.414 111.112 251.404 114.97L255.484 118.152ZM269.494 75.0292C269.866 74.1695 269.852 73.2939 269.79 72.6954C269.723 72.0466 269.561 71.3864 269.374 70.7767C268.998 69.5536 268.421 68.2286 267.856 67.0571C267.284 65.8695 266.687 64.7616 266.236 63.9556C266.01 63.551 265.818 63.2185 265.682 62.9854C265.614 62.8687 265.559 62.7767 265.521 62.7128C265.502 62.6808 265.487 62.6558 265.477 62.6382C265.472 62.6295 265.468 62.6225 265.465 62.6175C265.463 62.615 265.462 62.6129 265.461 62.6114C265.46 62.6106 265.46 62.61 265.46 62.6094C265.46 62.6092 265.459 62.6088 265.459 62.6087C265.459 62.6084 265.459 62.6082 263.244 63.9449C261.029 65.2816 261.029 65.2814 261.029 65.2812C261.029 65.2812 261.029 65.2811 261.029 65.281C261.029 65.281 261.029 65.2811 261.029 65.2812C261.029 65.2816 261.03 65.2825 261.03 65.2838C261.032 65.2864 261.035 65.2909 261.039 65.2972C261.046 65.3098 261.058 65.3297 261.074 65.3564C261.106 65.4098 261.153 65.4905 261.214 65.5951C261.337 65.8045 261.512 66.1089 261.721 66.4817C262.14 67.2308 262.683 68.2403 263.195 69.3023C263.714 70.3804 264.164 71.437 264.428 72.2976C264.561 72.7297 264.624 73.0367 264.643 73.227C264.668 73.4675 264.603 73.3025 264.746 72.9715L269.494 75.0292ZM264.792 72.8728C264.777 72.903 264.763 72.9329 264.749 72.9625L269.426 75.1753C269.433 75.1591 269.441 75.1433 269.448 75.1278L264.792 72.8728Z" fill="black" mask="url(#path-2-inside-1_1767_878)"/>
</g>
</svg>
