<svg width="394" height="106" viewBox="0 0 394 106" fill="none" xmlns="http://www.w3.org/2000/svg">
<path d="M348.526 21.0804C312.115 12.0222 274.719 6.91455 237.205 5.82592C199.699 4.74414 162.069 7.6403 125.159 14.4254C106.823 17.794 88.6589 22.1348 70.7821 27.4479C61.854 30.1044 52.9807 33.0074 44.2032 36.1295C36.1103 39.0188 27.8258 41.8534 20.1164 45.6738C13.6736 48.8644 7.23772 53.1231 3.31455 59.292C-0.608626 65.4609 -0.868801 73.6564 2.86951 80.2429C7.01862 87.5895 14.5637 91.9714 22.4511 94.3198C31.3313 96.9832 40.8277 97.9417 49.9818 99.1947C88.1386 104.439 126.713 106.384 165.198 104.96C203.43 103.535 241.567 98.8386 278.998 90.9307C297.949 86.9253 316.737 82.0984 335.264 76.4362C344.343 73.6632 353.387 70.726 362.336 67.5149C369.08 65.0843 375.783 62.0854 381.527 57.7446C386.861 53.7187 391.64 48.3578 393.002 41.6274C394.55 33.9591 391.688 26.4551 386.361 20.8887C380.199 14.4459 371.559 11.4128 363 9.72856C353.381 7.83886 343.549 6.72969 333.806 5.5589C294.478 0.848358 254.767 -0.740081 215.179 0.779891C175.359 2.30671 135.648 6.96933 96.56 14.7198C87.0842 16.6027 77.6562 18.6635 68.2557 20.9161C64.9761 21.6966 66.3728 26.7427 69.6456 25.9553C107.241 16.9929 145.5 10.913 184.027 7.84571C222.41 4.79207 261.025 4.65513 299.428 7.46914C318.496 8.87271 337.571 10.8993 356.468 13.8708C364.821 15.1922 373.893 16.9587 380.535 22.6004C385.923 27.1672 389.579 34.007 387.744 41.1755C386.142 47.3855 381.055 52.0139 375.845 55.362C369.6 59.3673 362.699 61.9074 355.715 64.3106C338.078 70.3905 320.167 75.7036 302.071 80.2429C266.112 89.2806 229.386 95.2852 192.414 98.1745C155.223 101.078 117.771 100.872 80.6072 97.4898C71.3093 96.6477 62.032 95.607 52.7821 94.3677C43.539 93.1216 34.8095 92.1494 26.1073 89.9173C18.4116 87.9523 10.7501 84.2414 6.96385 76.8538C3.76643 70.6233 5.5945 63.7971 10.2229 58.8812C14.8444 53.9652 21.3283 50.5692 27.593 47.9949C35.8912 44.5852 44.3606 41.5384 52.8574 38.6423C70.0632 32.7883 87.584 27.845 105.317 23.8191C140.667 15.8084 176.831 11.4882 213.078 10.8925C249.31 10.2968 285.605 13.4121 321.18 20.3478C329.876 22.0458 338.523 23.9697 347.123 26.1128C350.388 26.9275 351.778 21.8883 348.512 21.0667L348.526 21.0804Z" fill="#E7F096"/>
<path d="M47.6928 49.8997H47.9271C49.448 49.8997 52.6042 46.0404 48.5105 44.1706L47.8073 43.8216C52.1355 30.3789 56.9271 16.8216 59.9636 4.43099C60.0834 4.08203 58.6771 0.222656 56.6928 0.222656C55.8751 0.222656 55.1719 0.805989 54.3542 1.85807C45.2396 15.3008 34.9532 28.0404 25.1355 40.8997C17.3021 41.2487 10.5261 42.7695 9.12505 46.0404C7.36984 49.78 10.5261 56.6758 10.1719 62.2852L7.36984 66.7279C6.55213 68.1289 8.30213 71.2852 9.58859 71.2852C9.82297 71.2852 9.94276 71.1706 10.2917 70.9362C13.6823 63.3372 19.1719 55.0404 25.6042 46.1602C30.3959 46.3893 35.4219 47.0924 39.8594 47.9102C36.5886 57.9622 32.9636 68.4831 30.9792 78.6497C30.2761 81.3372 33.4323 86.4831 35.0678 86.4831C35.4219 86.4831 35.6563 86.2487 35.8907 85.5456C38.224 73.155 41.9636 61.2331 45.9376 49.3112C46.5261 49.431 47.1094 49.6654 47.6928 49.8997ZM41.7344 42.1862C37.9896 41.4831 33.6667 41.0143 29.224 40.8997C36.2396 31.6654 43.6042 22.082 50.1459 12.7279C47.4584 22.431 44.5365 32.2487 41.7344 42.1862ZM14.9688 46.6237C16.8386 46.2747 18.9428 46.1602 21.2761 46.1602C18.2396 50.2487 15.3178 54.457 12.3959 58.7799C12.3959 58.431 12.2761 58.1966 12.2761 57.8477C11.5782 52.5872 8.89068 47.9102 14.9688 46.6237Z" fill="#0C0E1C"/>
<path d="M71.6514 35.8734C71.068 35.8734 70.5993 35.988 70.1305 36.1077C65.693 37.6234 59.3805 47.0921 54.5889 55.1598C61.3649 40.7796 72.3545 23.7171 76.9118 19.8577C78.0785 19.04 75.6253 15.6494 72.2347 15.6494C70.1305 15.6494 69.3128 16.8213 68.1462 18.4567C63.2347 25.7015 48.391 52.0036 46.4066 63.1025C46.1722 65.3265 46.4066 68.4827 48.7451 69.6494C49.2087 69.7692 49.2087 69.3005 49.5628 68.7171C49.7972 68.363 50.0316 68.014 50.2607 67.4307C50.0316 71.639 51.5472 74.7952 55.8753 75.7275C58.5628 75.7275 60.0785 75.3786 62.417 73.7432C69.0785 69.0661 79.4847 50.4827 78.0785 42.5348C77.2607 38.7952 74.5732 35.8734 71.6514 35.8734ZM54.1201 61.3525C54.3545 60.7692 54.5889 60.5348 54.7035 60.1807C60.1982 51.1859 68.2607 38.9098 71.3024 38.9098C71.6514 38.9098 72.0003 39.3786 72.1201 40.0817C72.8232 43.7015 66.5107 56.0921 64.5212 59.363C63.7035 61.0036 57.5107 71.8734 54.1201 71.8734C53.6514 71.8734 53.3024 71.639 52.8337 71.0505C51.5472 69.0661 53.417 63.4567 54.1201 61.3525Z" fill="#0C0E1C"/>
<path d="M116.647 47.5609C116.413 47.9098 113.262 52.3525 110.22 56.0921L109.986 56.3265C108.585 58.0817 100.054 68.2484 98.2983 68.2484C98.1837 68.2484 98.0639 68.1286 98.0639 68.1286C96.8973 66.7275 106.246 49.0817 107.184 46.2744C107.882 44.0557 105.314 41.5973 102.621 41.5973C101.455 41.5973 100.168 42.0661 99.3504 43.238C93.0379 50.2484 87.8973 56.7952 83.1056 64.04C88.4806 48.613 101.569 25.8213 106.595 21.1442C107.647 20.2119 105.194 17.0557 102.038 17.0557C99.6993 17.0557 98.8816 18.2223 97.715 20.0921C91.7514 30.0296 78.5483 55.2744 77.142 66.4932C76.7931 69.0661 77.4962 71.5192 80.8816 71.988C86.2618 63.2223 93.9754 52.7015 100.402 45.8057C98.0639 49.7796 87.5483 70.0036 95.8452 71.639C96.1941 71.7536 96.4285 71.8734 96.8973 71.8734C100.054 71.8734 108.585 61.7015 110.569 59.014C114.08 55.04 117.001 50.2484 118.168 48.7275C117.934 47.7952 117.465 47.4411 117.001 47.4411C116.882 47.4411 116.767 47.4411 116.647 47.5609Z" fill="#0C0E1C"/>
<path d="M131.845 17.873C131.376 17.873 131.141 18.1074 130.558 18.8053C127.516 23.0137 123.542 31.4303 124.131 36.8053C124.246 37.5085 124.48 37.8574 124.595 37.8574C124.714 37.8574 124.829 37.623 125.178 37.1595C128.569 32.248 131.725 27.222 135.23 22.4303C135.464 21.9616 136.167 21.3783 135.819 20.6751C135.35 19.2741 133.595 17.873 131.845 17.873ZM131.845 48.1439C131.845 48.1439 131.725 48.1439 131.61 48.3783C126.819 54.9251 121.907 61.5866 115.48 66.6126C114.662 67.0762 114.308 67.3105 113.845 67.3105C113.725 67.3105 113.725 67.3105 113.61 67.196C112.089 66.3783 115.48 59.7168 115.949 58.6647C118.282 53.9876 121.089 48.9616 123.897 44.7533L124.011 44.5189C125.298 42.1855 122.845 40.8991 121.089 40.0814C120.386 39.847 119.923 39.6126 119.569 39.6126C117.584 39.6126 109.402 59.1283 108.235 61.9355C106.714 66.0293 109.636 70.0033 112.907 70.0033C117.584 70.0033 127.053 58.0814 129.74 54.3366C130.673 52.7012 131.845 51.0658 133.011 49.4303C132.777 48.6126 132.428 48.1439 131.845 48.1439Z" fill="#0C0E1C"/>
<path d="M154.869 39.3786C153.697 38.2119 152.181 37.7432 150.66 37.7432C149.025 38.3265 131.494 61.5869 129.619 64.389C130.791 62.1702 132.077 60.415 133.009 58.3109C136.285 52.0036 136.285 52.7015 139.556 46.389C140.259 45.2223 140.723 44.639 139.791 43.5869L139.556 43.3525C138.504 42.3005 136.983 41.7171 135.582 41.7171C133.827 41.7171 133.009 42.0661 132.311 43.7015C127.869 52.5869 126.468 54.1077 123.192 63.4567C122.025 67.0765 122.608 69.3005 125.999 70.9359C126.582 71.1702 127.166 71.5192 127.52 71.5192C128.218 71.5192 128.572 71.0505 129.035 70.2327C134.416 62.0557 140.489 54.3369 146.686 46.7432C144.233 51.0661 136.634 67.8994 144.697 69.6494C145.051 69.7692 145.285 69.7692 145.634 69.7692C152.296 69.7692 161.999 56.6755 165.504 51.6494C166.088 50.5973 166.791 49.7796 167.14 49.1963C166.905 48.3786 166.322 47.9098 165.973 47.9098C165.853 47.9098 165.739 48.0296 165.739 48.0296C165.504 48.3786 163.983 50.2484 162.233 52.7015L161.999 53.0557L161.879 53.1702C158.723 57.0296 153.348 64.8577 148.791 65.5609C143.645 66.1442 154.051 46.2744 155.332 43.3525L155.452 43.0036C156.035 41.5973 156.035 40.3161 154.869 39.3786Z" fill="#0C0E1C"/>
<path d="M179.059 62.8734C178.825 62.1702 178.944 61.0036 179.528 59.1286C179.997 56.3265 181.512 51.1859 183.851 49.3109C184.788 48.7275 184.668 48.613 183.97 47.7952C182.799 46.389 181.512 45.8057 180.345 45.8057C179.877 45.8057 179.413 45.9255 178.825 46.1598C179.762 42.7692 180.345 39.0296 177.773 36.2223C177.075 35.5192 176.023 34.8213 174.851 34.8213C173.564 34.8213 172.163 35.5192 170.528 36.9255C163.517 42.6494 150.424 66.1442 159.658 70.3525C160.361 70.7015 160.825 70.9359 161.528 70.9359C161.762 70.9359 161.997 70.8213 162.231 70.8213C165.387 69.415 169.595 62.5192 173.101 56.7952C173.101 57.0296 173.101 57.1442 172.981 57.4932C172.517 60.6494 172.163 64.5088 174.502 66.7275C175.205 67.4307 176.023 67.8994 177.075 67.8994C183.387 67.8994 192.851 52.4671 195.189 49.0817C194.84 47.7952 194.486 47.7952 193.554 47.7952C192.97 48.613 182.799 63.2223 179.762 63.2223C179.528 63.2223 179.293 63.1025 179.059 62.8734ZM174.267 43.0036C175.205 42.1859 175.903 41.5973 176.491 41.5973C177.424 41.5973 177.658 43.4671 177.189 47.3265C176.137 48.1442 175.554 49.3109 174.97 50.4827C170.642 56.4411 165.153 65.6755 163.398 65.6755C161.762 64.2744 169.71 47.9098 174.267 43.0036Z" fill="#0C0E1C"/>
<path d="M186.073 64.8581C186.073 67.8997 186.422 71.9883 190.396 71.9883C190.865 71.9883 191.328 71.7539 191.683 71.0508C195.891 64.1549 213.657 37.8581 220.198 35.8737C221.719 35.7539 220.901 33.7695 218.683 33.7695C217.745 33.7695 216.693 34.0039 215.761 34.9362C207.224 41.1341 193.552 63.2227 190.979 66.3789C192.849 53.9883 198.459 44.1706 202.084 40.431C202.198 40.431 200.917 39.0299 199.162 38.6758H198.344C192.5 38.6758 186.188 60.0664 186.073 64.8581Z" fill="#0C0E1C"/>
<path d="M265.082 29.3262C265.082 29.5605 264.963 29.6751 264.963 29.9095C264.963 30.4928 265.551 31.196 266.369 31.196C268.937 31.196 270.692 21.498 270.692 19.5085C270.692 16.3522 269.056 11.0918 263.447 11.0918C246.733 11.0918 222.421 48.0293 222.421 64.0397C222.421 69.4147 226.046 76.7793 234.692 76.7793C248.015 76.7793 262.629 56.4408 263.681 47.6751C265.317 47.3262 267.187 47.3262 268.822 47.0918C269.754 46.8574 270.108 46.3887 270.108 45.8053C270.108 45.1074 269.405 42.8835 268.353 42.6491C268.119 42.5345 266.603 42.5345 266.249 42.5345C258.187 42.5345 245.213 47.3262 237.848 51.4147C237.265 51.7689 236.562 52.2324 236.213 52.5866C235.629 53.0553 235.509 53.7533 235.509 54.222C235.509 55.0397 235.744 56.3262 236.796 56.3262C236.916 56.3262 237.265 56.3262 237.733 55.8574C242.759 52.5866 253.395 49.6647 260.056 48.3783C257.369 54.222 242.874 73.1543 234.108 73.1543C229.551 73.1543 228.848 67.0762 228.848 64.5085C228.848 55.2741 235.629 43.821 241.119 36.4564C244.041 32.3678 257.134 16.2376 264.265 16.2376C266.832 16.2376 267.655 19.7428 267.655 21.3783C267.655 24.1855 266.369 26.7533 265.082 29.3262Z" fill="#0C0E1C"/>
<path d="M268.235 71.0505C271.625 71.0505 279.688 59.363 281.323 56.6755L281.209 57.3786C280.74 60.415 280.506 64.2744 282.61 66.4932C283.427 67.1963 284.365 67.665 285.183 67.665C291.375 67.665 300.73 52.3525 303.063 49.0817C302.834 48.1442 302.365 47.6755 301.782 47.6755C301.662 47.6755 301.547 47.7952 301.547 47.7952C300.959 48.613 290.912 62.988 287.87 62.988C287.636 62.988 287.401 62.8734 287.287 62.639C287.052 62.0557 287.167 60.8838 287.521 59.014C288.573 54.9255 292.078 47.9098 292.782 46.7432C293.834 44.988 290.912 43.9359 288.922 43.9359C286.349 43.9359 284.016 48.3786 283.193 50.363C278.87 56.3265 271.86 66.0296 270.219 65.9098C267.886 64.04 279.219 43.7015 282.026 41.1338C281.677 39.1442 279.922 37.2744 278.052 37.2744C277.235 37.2744 276.297 37.6234 275.599 38.6755C270.219 45.3369 258.886 67.1963 266.48 70.5869C267.068 70.8213 267.651 71.0505 268.235 71.0505Z" fill="#0C0E1C"/>
<path d="M324.802 39.0293C318.14 39.0293 304.114 58.6647 300.494 63.8053C305.286 54.571 310.192 46.7428 312.765 44.2845C313.703 43.3522 311.364 40.3158 308.088 40.3158C305.755 40.3158 305.052 41.4824 303.88 43.3522C300.26 49.3105 290.323 68.248 285.885 81.3366C284.713 84.3783 281.088 96.4147 287.401 96.5345C287.869 92.5605 289.859 87.1803 292.312 81.222C294.765 76.8991 298.036 71.873 301.661 66.847C301.078 71.1699 302.479 74.9095 305.166 76.196C305.869 76.6647 306.687 76.7793 307.625 76.7793C317.557 76.7793 332.635 53.5189 331.234 45.571C330.416 42.0658 327.843 39.0293 324.802 39.0293ZM304.932 62.5189C313 51.6491 321.416 42.3001 324.338 42.3001C324.802 42.3001 325.156 42.5345 325.27 43.2376C326.442 48.847 310.895 72.222 305.635 72.222C303.88 72.222 303.296 69.5345 304.932 62.5189Z" fill="#0C0E1C"/>
<path d="M326.205 32.5977H326.44C332.164 32.0143 337.893 31.431 343.737 31.082C337.424 43.8216 330.528 61.7018 328.544 69.6497C327.726 72.3372 326.789 79.5872 330.997 79.7018C332.632 67.7799 343.617 44.5195 351.919 30.6133C356.945 30.3789 361.851 30.0299 366.643 29.6758C369.799 29.3268 371.085 24.0664 368.632 24.1862C364.309 24.7695 359.632 25.4674 354.955 25.9362C356.591 23.3685 358.112 21.4987 359.283 20.4466C360.45 19.2747 358.695 16.2383 355.309 16.2383C354.606 16.2383 353.903 16.3529 352.971 16.7018C351.45 17.2904 348.763 21.4987 345.606 27.2227L326.085 29.9102C324.799 30.1445 325.033 32.5977 326.205 32.5977Z" fill="#0C0E1C"/>
<path d="M364.539 62.8734C364.305 62.1702 364.425 61.0036 365.008 59.1286C365.477 56.3265 366.993 51.1859 369.331 49.3109C370.269 48.7275 370.149 48.613 369.451 47.7952C368.279 46.389 366.993 45.8057 365.826 45.8057C365.357 45.8057 364.894 45.9255 364.305 46.1598C365.243 42.7692 365.826 39.0296 363.253 36.2223C362.555 35.5192 361.503 34.8213 360.331 34.8213C359.045 34.8213 357.644 35.5192 356.008 36.9255C348.998 42.6494 335.904 66.1442 345.138 70.3525C345.842 70.7015 346.305 70.9359 347.008 70.9359C347.243 70.9359 347.477 70.8213 347.711 70.8213C350.868 69.415 355.076 62.5192 358.581 56.7952C358.581 57.0296 358.581 57.1442 358.461 57.4932C357.998 60.6494 357.644 64.5088 359.982 66.7275C360.685 67.4307 361.503 67.8994 362.555 67.8994C368.868 67.8994 378.331 52.4671 380.67 49.0817C380.321 47.7952 379.967 47.7952 379.034 47.7952C378.451 48.613 368.279 63.2223 365.243 63.2223C365.008 63.2223 364.774 63.1025 364.539 62.8734ZM359.748 43.0036C360.685 42.1859 361.383 41.5973 361.972 41.5973C362.904 41.5973 363.138 43.4671 362.67 47.3265C361.618 48.1442 361.034 49.3109 360.451 50.4827C356.123 56.4411 350.633 65.6755 348.878 65.6755C347.243 64.2744 355.191 47.9098 359.748 43.0036Z" fill="#0C0E1C"/>
</svg>
