<svg xmlns="http://www.w3.org/2000/svg" width="678" height="417" fill="none" xmlns:v="https://vecta.io/nano"><g clip-path="url(#A)"><g fill="#121212"><path d="M364.038 38.855a177.16 177.16 0 0 1 3.136 12.006c1.862 8.34 3.647 17.291 5.354 26.853.133.741-.171 1.18-.912 1.316l-.133.024c-.589.111-.971-.12-1.145-.694-2.825-9.356-5.347-18.39-7.564-27.1-.918-3.614-1.718-7.372-2.399-11.274-.158-.909.122-1.65.841-2.223 1.093-.884 2.48-.062 2.822 1.093zm40.588 2.566c-4.252 11.388-8.779 22.871-13.692 33.647-.451.993-1.649 1.43-2.594.651-.71-.583-.917-1.31-.622-2.181 3.655-10.779 7.828-21.818 12.518-33.119 1.193-2.87 5.388-1.663 4.39 1.002zm-54.1 40.802c-11.181-6.113-21.206-13.045-30.074-20.795a69.59 69.59 0 0 1-4.191-3.958c-1.81-1.858 1.274-4.699 3.483-2.699 10.135 9.189 20.988 17.325 32.559 24.411 1.021.627 1.354 1.853.413 2.751-.659.633-1.389.73-2.19.29zM18.662 356.163c.386-.941.256-1.017-.39-.228-1.273 1.552-2.39 3.411-3.349 5.577-5.993 13.531-9.917 27.846-11.773 42.945C1.145 420.8.584 437.087.323 453.644l-.195 9.488-2.594 100.674c0 .117-.059.174-.176.171l-1.839-.066c-.038 0-.055-.018-.052-.053l3.226-124.239c.641-24.382 2.665-48.76 11.592-71.042 1.505-3.753 3.083-7.147 4.737-10.181 1.273-2.328 2.908-4.994 5.749-5.535 1.896-.361 3.369-1.274 5.354-.447.036.015.074.023.113.023s.077-.009.113-.024.068-.038.094-.067a.3.3 0 0 0 .06-.098c8.048-21.396 15.262-43.434 21.641-66.116l9.269-33.547c1.381-5.102 3.4-11.397 6.058-18.885 9.227-25.969 22.183-50.427 42.356-68.652l5.501-4.984a4.22 4.22 0 0 0 .822-1.012l11.441-19.664c1.739-3 4.041-5.407 6.908-7.222l14.78-9.398c.624-.399 1.167-.924 1.63-1.577 4.482-6.35 8.652-12.897 12.509-19.641 1.934-3.382 5.274-5.454 9.122-3.382 3.54 1.9 4.97 5.606 4.756 9.502a.17.17 0 0 0 .018.082c.014.025.034.046.058.06s.052.023.081.023.056-.008.081-.023l22.629-14.006c3.045-1.872 6.903-2.124 9.948-.204 4.01 2.537 4.357 7.084 2.951 11.364-.083.251-.005.32.233.209 5.207-2.456 10.191-4.812 15.778-5.625 4.732-.689 8.599 1.967 8.115 7.07-.376 3.962-3.469 7.535-6.652 10.048-.014.012-.024.029-.029.047s-.004.038.002.055.018.032.033.042.033.014.051.013l113.83-4.4c17.712-.202 35.956.132 54.732 1.003.282.013.321-.081.119-.28-2.77-2.737-6.034-5.683-7.897-9.137-1.558-2.888-1.743-6.594.632-9.031 2.433-2.494 6.191-1.596 9.127-.499 3.326 1.245 6.561 2.822 9.706 4.732.184.111.239.065.167-.138-1.354-3.825.19-7.526 2.584-10.875 3.739-5.226 11.925-.257 15.275 2.993 3.332 3.231 6.906 6.064 10.723 8.5l9.293 6.005c.031.02.066.033.102.038s.073.004.109-.006a.26.26 0 0 0 .097-.051c.029-.024.051-.053.067-.086.535-1.13 1.229-2.103 2.081-2.917 3.905-3.734 8.029-1.758 11.336 1.359 3.386 3.193 7.258 7.174 11.616 11.944l18.011 19.213c7.664 7.859 15.912 14.496 25.043 20.316l23.807 15.331c5.345 3.488 10.828 8.467 13.531 14.158 2.941 6.196 6.818 11.921 11.408 17.161 6.356 7.264 13.074 14.191 18.951 22.382 2.281 3.174 5.041 7.656 8.282 13.446l15.73 28.335c2.822 5.118 5.636 10.9 8.443 17.346 1.715 3.938 4.361 7.354 7.673 10.366 3.658 3.321 5.615 6.785 7.041 11.474.013.043.035.083.064.117s.066.062.107.081.085.03.13.031.089-.007.131-.025c3.663-1.52 8.723-2.29 10.923 1.963.555 1.069.831 2.29 1.349 3.416 11.545 25.09 18.937 51.41 24.349 79.047 11.255 57.469 14.015 116.462 26.838 173.465.051.231-.041.348-.275.351l-1.601.029c-.228.003-.369-.105-.423-.323-1.679-6.905-3.031-13.043-4.057-18.415-3.408-17.877-6.299-36.562-8.671-56.057l-4.822-40.242c-2.214-18.801-4.824-36.782-7.83-53.943-2.562-14.614-6.009-29.456-10.338-44.526-3.744-13.025-8.395-25.8-13.954-38.327-.108-.241-.227-.247-.356-.019-.561.976-1.297 1.916-2.21 2.822-3.012 2.989-6.504 5.749-9.749 8.699-10.058 9.132-19.227 17.536-29.451 25.988-8.281 6.842-15.617 11.983-24.62 16.776-4.96 2.642-14.32 7.141-19.375 2.789-.041-.035-.089-.058-.142-.069a.31.31 0 0 0-.157.007c-.051.016-.098.044-.135.082s-.065.085-.079.137c-.079.276-.085.554-.019.836l8.134 35.448c8.889 39.11 16.329 77.284 20.491 116.613 1.409 13.354 2.402 27.13 2.979 41.33.009.25-.111.375-.361.375l-1.292.01c-.282 0-.428-.14-.438-.419-1.444-39.362-6.888-78.078-14.614-117.317l-16.372-77.323c-.114-.532-.088-1.061.076-1.586 1.758-5.668 4.618-10.553 9.64-13.85.089-.057.116-.134.081-.233l-5.378-15.597c-1.432-4.159-2.944-7.98-4.538-11.464-1.89-4.121-4.698-8.251-8.423-12.391-7.245-8.053-14.5-15.351-24.43-19.403-5.369-2.19-10.172-4.319-14.419-8.509-1.972-1.948-3.982-4.001-6.238-5.773-5.203-4.095-10.719-6.898-17.09-10.262-12.134-6.409-24.344-12.267-37.78-14.13-5.212-.717-9.602-1.805-14.538-3.772-3.218-1.283-6.903-1.886-11.056-1.81l-12.039.352a34.31 34.31 0 0 1-10.21-1.155c-1.571-.421-2.876-1.085-3.915-1.991-2.385-2.071-1.43-4.603-.028-6.893a31.64 31.64 0 0 1 7.031-8.053c.187-.152.16-.224-.08-.214l-32.645 1.658c-8.399.518-19.712.603-29.765.95l-82.501 1.634c-1.963.029-3.868.252-5.768.343-.602.028-.618.139-.048.332 4.842 1.625 8.842 4.067 11.265 8.4 1.302 2.323 1.815 5.62.347 8.024-1.905 3.122-5.844 3.763-9.184 3.649-6.268-.212-13.62.458-22.054 2.01l-33.324 6.309c-5.426 1.058-10.382 3.174-14.871 6.348-3.72 2.632-7.112 5.482-10.604 8.594-5.549 4.951-11.315 9.212-17.298 12.785l-15.65 9.536c-6.744 4.187-12.649 8.998-17.717 14.433-9.654 10.353-17.066 23.651-19.964 37.643-.352 1.691-.792 3.333-1.321 4.926-.542 1.632-.957 3.236-1.245 4.813l-2.342 13.973a.34.34 0 0 0 .185.352c1.425.688 2.627 1.781 3.848 2.836 3.122 2.684 7.274 7.046 6.157 11.255a4.79 4.79 0 0 0-.099 1.958c.798 5.355.766 10.675-.095 15.958-1.47 8.986-2.727 17.847-3.773 26.582-2.961 24.766-4.367 49.435-4.219 74.007.108 17.338 1.302 34.779 3.582 52.323.01.089-.03.133-.119.133l-1.672.033a.08.08 0 0 1-.095-.081c-2.632-19.783-3.831-39.862-3.597-60.238.291-25.294 1.94-49.157 4.946-71.588a322.83 322.83 0 0 1 2.746-16.98c1.131-5.987 1.767-12.529.998-18.605-.038-.298-.162-.339-.371-.124-1.796 1.834-4.23 2.825-7.302 2.974-9.046.442-18.13-2.394-26.487-6.086-15.255-6.737-28.425-14.229-40.878-24.658-2.599-2.176-11.051-8.504-9.44-12.428z"/></g><g fill="#f4f4f4"><path d="M440.702 117.015c.054-.13.056-.276.006-.408a.55.55 0 0 0-.277-.3c-.073-.038-.149-.066-.228-.085-.459-.124-.793.026-1.002.451l-2.039 4.138c-.091.186-.245.334-.436.416a.88.88 0 0 1-.604.035c-5.502-1.672-9.949-5.121-14.709-8.49a21.02 21.02 0 0 1-3.245-2.836c-2.768-2.977-5.489-6.018-8.162-9.122-1.72-1.995-2.419-4.062-1.706-6.613.556-1.967 1.668-4.114 3.026-5.625.9-1.007 2.271-1.318 4.115-.931 2.987.627 5.768 2.17 8.343 4.628 2.826 2.699 5.682 5.183 9.012 7.388l10.7 6.942c.163.103.301.242.403.407a1.27 1.27 0 0 1 .181.543 58.94 58.94 0 0 0 .523 4.19c1.491 9.346 7.834 17.099 15.977 21.632 1.563.869 2.984 1.895 3.834 3.487l1.777 3.278c.124.222.059.32-.194.295-.545-.057-.895.187-1.051.731-.253.887-.756 1.565-1.51 2.034-.213.133-.428.139-.646.019-6.041-3.367-10.692-6.45-13.954-9.25-3.326-2.851-7.082-6.443-11.27-10.776-.13-.133-.137-.272-.023-.418 1.149-1.495 2.203-3.414 3.159-5.758zm-263.173 3.677l-.218.109c-.38.19-.463.471-.247.841a20.36 20.36 0 0 0 4.138 5.027c.019.018.034.04.044.064a.17.17 0 0 1 .011.077c-.002.026-.011.052-.024.074s-.033.042-.055.056c-7.38 4.599-14.484 9.215-21.313 13.849-.367.25-.442.182-.223-.204 1.686-3.017 3.568-5.868 5.074-9.008l5.616-12.158c1.45-3.259 2.56-6.436 3.33-9.531.07-.282.228-.499.475-.651l22.81-14.086c2.372-1.463 4.727-1.756 7.065-.879 2.541.96 4.147 3.174 4.271 5.858.337 7.259-6.756 13.526-12.277 17.175l-13.127 8.485c-.117.073-.228.065-.333-.024-1.609-1.374-2.991-2.985-4.147-4.832-.216-.345-.505-.426-.87-.242zm217.52-25.28c4.257 1.345 8.457 3.478 12.11 5.763.298.184.543.426.737.727 2.872 4.418 6.459 8.273 10.761 11.564.367.282.327.361-.119.237-2.936-.798-6.195-1.151-9.778-1.059-3.946.104-7.383.347-10.309.727-.488.066-.9-.07-1.236-.409a280.71 280.71 0 0 1-5.739-5.901c-2.233-2.361-4.494-5.891-3.463-9.141 1.054-3.326 4.166-3.416 7.036-2.509zm-263.99 82.55c-.073-.156-.114-.319-.124-.49-.006-.127.034-.237.119-.332 5.879-6.405 12.05-13.452 18.515-21.142 2.828-3.364 5.28-6.733 7.354-10.106.271-.437.851-.846 1.293-1.097 13.25-7.502 25.08-14.738 36.407-23.779.241-.19.442-.155.603.104l.39.632c.033.052.056.111.066.172s.009.124-.004.184a.48.48 0 0 1-.075.168c-.036.051-.082.094-.134.127-4.452 2.789-7.027 7.853-7.897 13.004-.025.157-.083.307-.171.441a1.18 1.18 0 0 1-.337.338c-2.746 1.791-5.825 3.093-8.462 4.884-2.857 1.938-5.371 4.185-7.544 6.741a.3.3 0 0 1-.167.099c-.065.014-.131.006-.19-.022-1.567-.735-2.841-1.725-3.819-2.97a.53.53 0 0 0-.156-.13c-.06-.032-.126-.052-.195-.058a.51.51 0 0 0-.381.122l-.176.152c-.339.294-.386.628-.142 1.002.95 1.44 2.484 2.423 4.029 3.155.177.085.22.215.128.389-3.915 7.44-8.824 14.25-14.728 20.43-.127.13-.271.157-.433.081a17.83 17.83 0 0 1-3.782-2.447c-.088-.074-.193-.124-.306-.145s-.228-.012-.335.026c-.225.079-.391.206-.499.38-.202.326-.161.619.124.879 1.089.991 2.356 1.816 3.801 2.475.218.098.25.239.095.423-1.421 1.668-2.794 3.416-3.811 5.34-.45.849-.996 1.662-1.639 2.438-.481.576-.608 1.187-.38 1.833.063.187.19.309.38.366 2.428.732 2.68-1.862 3.801-3.107 7.682-8.533 13.664-17.075 19.688-26.8 1.777-2.865 4.257-5.972 7.032-7.973 2.334-1.678 4.946-3.097 7.834-4.257.187-.072.279-.007.276.195a75.95 75.95 0 0 0 .532 11.208c.575 4.751.399 9.754.408 14.633 0 .203-.079.367-.237.494l-3.24 2.608c-.07.057-.155.091-.246.096s-.18-.019-.258-.067c-1.767-1.102-3.962-2.965-4.461-5.05-.018-.078-.052-.152-.099-.217a.59.59 0 0 0-.4-.242c-.079-.012-.16-.008-.238.012-.259.063-.468.242-.627.537a.8.8 0 0 0-.094.301c-.012.105-.002.211.028.312.67 2.209 2.907 4.247 4.76 5.435.026.016.047.037.062.063s.024.055.026.085-.004.06-.016.088-.03.053-.053.073c-6.977 5.999-12.759 12.514-17.346 19.546-.158.24-.313.239-.465-.005-1.24-2-3.174-3.506-5.378-4.324-.613-.228-1.402-.375-1.811.3-.193.316-.224.647-.095.993a.41.41 0 0 0 .428.294c.646-.014 1.25-.076 1.853.233 1.723.874 3.112 2.231 4.167 4.072a.58.58 0 0 1-.01.622c-6.21 10.253-8.918 22.192-5.502 33.728.007.025.008.052.001.078a.15.15 0 0 1-.039.068.14.14 0 0 1-.142.034c-1.577-.472-3.218-.587-4.922-.347-.179.025-.341.115-.457.253a.72.72 0 0 0-.17.493 1.03 1.03 0 0 0 .085.395c.102.243.284.35.547.318 1.871-.225 3.696.334 5.473 1.677 2.789 2.114 5.311 4.39 8.528 5.929 9.858 4.718 20.462 5.977 31.152 5.811 1.958-.032 5.12-.214 9.488-.547l29.347-2.076c6.989-.456 14.871 1.15 19.427 6.941 2.366 3.013 3.554 7.973-.598 10.082-1.796.917-3.958 1.012-5.982 1.003-6.943-.048-13.735.533-20.377 1.743l-35.172 6.642c-6.031 1.197-11.425 3.571-16.182 7.122-2.566 1.916-5.117 3.97-7.654 6.162l-7.217 6.21c-7.772 6.076-16.186 10.927-24.677 15.958a106.72 106.72 0 0 0-19.522 14.838c-.424.408-.997.584-1.719.527-3.896-.304-6.001-1.734-8.581-4.186-.253-.243-.508-.245-.765-.004l-.09.085c-.15.141-.24.336-.249.542a.79.79 0 0 0 .202.56c2.511 2.794 5.576 4.284 9.193 4.471.017 0 .034.006.048.016s.026.024.032.04.008.035.005.053-.011.034-.023.048c-8.084 8.789-14.006 18.747-17.769 29.874-2.001 5.92-3.402 12.486-4.913 18.814-2.461 10.31-4.057 20.838-4.789 31.585-.019.26-.157.374-.413.342-5.449-.684-10.69-2.066-15.731-4.043-17.759-6.974-33.823-16.015-48.27-28.667a13.77 13.77 0 0 1-1.04-1.017.32.32 0 0 1-.033-.428c.898-1.387.751-2.941 1.273-4.466l2.613-7.687c8.976-24.309 16.659-48.229 23.047-71.759 4.39-16.149 8.433-31.946 14.443-48.304 9.184-25.005 22.382-48.622 42.673-66.301 4.609-4.019 9.887-8.818 13.431-12.262a221.07 221.07 0 0 0 38.346-49.653c1.478-2.604 3.915-4.651 7.041-3.012 2.167 1.14 3.592 3.183 3.886 5.625.336 2.787.092 5.099-.731 6.937a196.8 196.8 0 0 0-4.518 10.922c-1.635 4.314-3.725 8.552-6.144 12.476-.171.276-.395.33-.674.162-1.188-.729-2.178-1.663-2.97-2.803-.24-.345-.557-.442-.95-.29-.222.085-.372.277-.451.575a.66.66 0 0 0-.01.283.67.67 0 0 0 .11.263c.95 1.372 2.09 2.444 3.42 3.217a.28.28 0 0 1 .124.408 23.79 23.79 0 0 1-2.737 4.362c-.617.779-.38 1.534-.826 2.275-3.342 5.486-7.342 10.868-12.001 16.144-.061.068-.14.116-.228.139s-.181.019-.267-.01c-2.283-.77-4.481-1.826-6.594-3.169a.59.59 0 0 0-.214-.084.57.57 0 0 0-.229.007.58.58 0 0 0-.209.094c-.062.045-.115.102-.156.168l-.137.223c-.21.339-.151.623.175.851 1.777 1.257 3.844 2.293 6.2 3.107.263.092.306.244.129.456-4.64 5.54-9.607 10.875-14.9 16.006-.042.041-.072.093-.088.15s-.017.117-.003.174.044.11.085.152.092.073.149.09c1.295.348 2.605.351 3.929.009.238-.06.303-.203.195-.427zm79.736-71.856c4.148-1.757 17.199-8.452 20.145-3.012 2.575 4.766-2.119 9.901-5.882 12.857-.95.745-1.653 1.083-2.884 1.121l-12.357.48c-1.991.095-4.78-.19-6.367.242-2.293.624-4.29 1.766-5.991 3.425-.184.178-.342.157-.475-.061l-.632-1.05a.45.45 0 0 1 .119-.656c4.523-3.63 8.697-7.636 12.524-12.02.519-.592 1.119-1.034 1.8-1.326zm235.262 54.338c-.117.967-.717 1.847-1.8 2.642-.276.203-.52.17-.732-.1-3.221-4.079-6.872-7.361-10.951-9.844-.125-.075-.23-.179-.307-.303a.92.92 0 0 1-.135-.409l-1.112-13.056c-.022-.279.097-.366.357-.262a17.27 17.27 0 0 1 1.453.67c6.915 3.51 13.416 8.164 19.503 13.964 1.476 1.406 2.911 2.991 4.305 4.755 1.387 1.758 2.993 3.446 4.817 5.065 2.343 2.071 4.509 4.433 6.638 6.789 1.876 2.076 4.218 5.521 4.024 8.286-.07.966.033 1.932.308 2.898a.5.5 0 0 0 .129.221c.062.061.138.104.222.127a.5.5 0 0 0 .476-.129c.718-.713 1.597-1.274 1.81-2.343.813-4-1.178-7.597-4.28-10.181-1.54-1.283-3.046-2.475-4.376-4.019-3.63-4.207-7.317-8.148-11.06-11.826-1.678-1.648-3.146-3.506-4.714-5.159-.145-.152-.147-.308-.004-.466a12.47 12.47 0 0 0 2.442-3.996c.275-.734.022-1.073-.76-1.016a5.43 5.43 0 0 0-.499.061c-.669.108-1.069.495-1.202 1.16-.203.991-.634 1.91-1.293 2.755-.123.155-.269.181-.437.076-4.632-2.874-9.364-6.338-14.576-8.927-1.297-.646-1.981-1.834-3.169-2.565a.44.44 0 0 1-.223-.39c-.052-4.466-.589-8.979-2.466-12.951-.152-.32-.073-.396.238-.228 1.352.725 2.846 1.303 4.48 1.734.955.252 2.057.964 2.77 1.648 3.815 3.673 7.986 7.146 12.034 10.814 4.409 3.997 9.149 7.475 14.22 10.433 2.955 1.72 5.872 6.091 7.977 9.027 3.259 4.536 7.651 7.521 13.175 8.956 1.496.389 2.598 1.292 3.943 1.943a.54.54 0 0 0 .307.052.54.54 0 0 0 .287-.124c.456-.386.413-.85-.128-1.392a.17.17 0 0 1-.045-.072c-.008-.028-.01-.057-.004-.086a.18.18 0 0 1 .036-.078c.019-.023.043-.041.07-.053l.204-.091c.028-.012.054-.006.076.019 3.896 4.979 8.675 10.196 14.78 12.087.46.139.805 0 1.036-.418.035-.067.057-.139.067-.219a.7.7 0 0 0-.504-.793c-1.164-.437-2.357-.789-3.459-1.43-2.531-1.47-4.767-3.323-6.708-5.559l-6.97-7.967c-.146-.168-.114-.29.095-.366 1.853-.699 2.984-2.865 3.772-4.613a.8.8 0 0 0 .072-.371c-.019-.532-.141-.822-.366-.869s-.465-.008-.677.115-.385.321-.487.559c-.718 1.658-2.414 5.07-4.594 3.397-5.944-4.57-12.201-9.787-14.676-16.415-.979-2.616-2.105-5.074-3.378-7.373-.099-.178-.075-.336.071-.475.998-.941 1.843-2.094 2.537-3.459.222-.443.146-.827-.228-1.15-.155-.133-.366-.161-.632-.085-.071.021-.137.056-.194.102s-.104.104-.139.169c-.658 1.187-1.398 2.236-2.218 3.145a.45.45 0 0 1-.623.047c-1.962-1.639-4.494-2.323-6.537-3.9-6.351-4.891-10.204-11.191-11.559-18.9-.118-.659-.097-1.272.061-1.839.181-.66-.161-1.32.138-1.881 2.547-4.822 6.756-4.765 10.386-1.283 3.905 3.739 7.725 7.592 11.317 11.54l17.925 19.176c8.023 8.358 16.832 15.545 26.426 21.56l22.201 14.258c3.608 2.328 6.769 4.863 9.483 7.606 2.105 2.124 3.697 4.556 5.079 7.369 3.057 6.224 7.016 12.085 11.878 17.583 6.893 7.802 14.267 15.284 19.773 23.722 2.553 3.906 5.488 8.85 8.804 14.833l14.971 27.185c2.179 3.979 4.323 8.402 6.433 13.27 1.715 3.967 3.843 7.749 6.955 10.633 1.891 1.751 3.411 3.327 4.561 4.727 1.625 1.98 2.895 4.61 3.81 7.891a146.09 146.09 0 0 0 3.882 11.907c.06.161.027.299-.1.413l-26.701 23.945c-10.975 9.801-21.978 18.415-35.034 24.34-.247.11-.423.041-.527-.209-.965-2.333-1.991-4.656-2.637-7.151-.812-3.15-1.563-6.395-2.675-9.483l-7.478-20.044c-2.657-6.934-6.387-12.816-11.188-17.646-.162-.164-.129-.256.099-.275 4.359-.393 7.383-2.651 9.075-6.775a1.29 1.29 0 0 0 .084-.658 1.28 1.28 0 0 0-.255-.611c-.076-.098-.178-.171-.304-.218a.49.49 0 0 0-.34-.002c-.11.04-.202.118-.259.22-.646 1.155-1.031 2.428-1.919 3.426-2.224 2.499-4.234 2.779-7.184 3.368-.165.032-.306-.014-.423-.138-6.091-6.684-12.828-13.093-21.142-16.747-5.079-2.233-10.557-4.138-14.453-7.863l-5.216-4.946c-2.467-2.325-5.518-4.54-9.151-6.646-8.406-4.878-16.989-9.292-25.75-13.242-7.136-3.221-14.809-5.672-22.572-6.765a93.16 93.16 0 0 1-6.666-1.173c-2.106-.457-4.582-1.247-7.426-2.371-3.851-1.524-7.926-2.251-12.224-2.181-6.471.109-13.127 1.002-19.451-.128-2.147-.385-4.836-1.093-6.219-2.808-.917-1.131-.109-2.855.551-3.962 3.407-5.721 8.69-10.4 14.98-12.681a8.84 8.84 0 0 1 2.475-.508l15.08-1.155c3.497-.313 7.041.214 10.533.404.19.01.333.095.428.257.551.953 1.037 1.932 1.458 2.936.637 1.52.48 3.007.124 4.561a.56.56 0 0 0 .009.293.57.57 0 0 0 .153.251.58.58 0 0 0 .55.14l1.298-.361a.82.82 0 0 0 .646-.741c.307-2.224.08-4.477-.68-6.761-.009-.029-.012-.061-.006-.091s.018-.059.038-.083.044-.043.073-.055.059-.017.09-.013c3.582.384 7.274.408 10.68 1.073 3.739.732 7.645 1.312 11.474 1.145l5.492-.175a12.77 12.77 0 0 0 6.504-1.849c.072-.043.156-.063.239-.055a.4.4 0 0 1 .227.098c2.865 2.58 4.48 6.058 3.654 9.916a.77.77 0 0 0 .052.494c.345.734.795.785 1.349.152a.83.83 0 0 0 .195-.433c.31-2.277.361-4.426.152-6.447-.204-1.952-1.254-3.786-2.931-4.86-.203-.13-.211-.269-.024-.418 1.732-1.381 2.485-3.179 2.257-5.393-.152-1.482-.205-3.064-.737-4.47-2.629-6.988-6.149-13.793-10.561-20.415-4.267-6.405-7.469-11.009-9.607-13.812l-13.393-17.274a.27.27 0 0 1 .005-.371c.988-1.223 1.838-2.638 2.551-4.247.209-.476.059-.757-.451-.846l-.566-.1c-.545-.098-.85.128-.917.679z"/><path d="M312.7 220.122c-.158-.067-.32-.048-.485.057a.53.53 0 0 0-.177.188.56.56 0 0 0-.07.254l-.123 6.186a.29.29 0 0 1-.314.323l-10.88.565c-.026.002-.054-.002-.079-.011s-.049-.023-.069-.042-.036-.041-.047-.066-.018-.053-.018-.081l-.162-6.556c-.003-.241-.127-.361-.37-.361l-.205.005c-.095 0-.187.037-.255.104a.37.37 0 0 0-.111.252l-.161 6.528c-.001.08-.033.157-.088.216a.32.32 0 0 1-.211.098l-9.631.65c-.03.002-.06-.002-.089-.012s-.055-.026-.078-.047-.041-.046-.054-.074-.02-.059-.021-.09l-.157-5.92a.25.25 0 0 0-.023-.104c-.014-.033-.035-.063-.061-.087a.27.27 0 0 0-.091-.057.29.29 0 0 0-.105-.018l-.204.01c-.295.012-.445.165-.452.456l-.119 5.706a.31.31 0 0 1-.332.347l-9.973.689c-.026.002-.053-.002-.079-.011s-.048-.022-.068-.04a.19.19 0 0 1-.046-.063.2.2 0 0 1-.016-.076l-.057-7.621c-.001-.092-.038-.181-.103-.246s-.152-.101-.243-.101l-.219.005c-.304 0-.458.153-.461.461l-.052 7.73c0 .082-.043.126-.128.133l-9.711.722c-.054.004-.107-.002-.157-.019s-.097-.045-.137-.081-.072-.08-.094-.129a.4.4 0 0 1-.035-.156l-.114-6.965c-.001-.066-.028-.129-.073-.177a.26.26 0 0 0-.174-.08l-.243-.014c-.307-.016-.464.13-.47.437l-.166 6.999a.44.44 0 0 1-.118.287.43.43 0 0 1-.277.135l-9.483.799c-.036.003-.072-.001-.106-.013a.25.25 0 0 1-.092-.053c-.027-.025-.049-.054-.063-.087s-.023-.068-.024-.104l-.119-6.552c-.006-.209-.115-.313-.327-.313h-.167a.46.46 0 0 0-.46.456l-.115 6.456a.41.41 0 0 1-.37.4l-8.813.807c-.038.003-.076-.001-.112-.013a.28.28 0 0 1-.097-.057.26.26 0 0 1-.066-.091c-.016-.034-.024-.072-.025-.11l-.095-4.869c-.006-.276-.142-.449-.408-.518-.07-.019-.132-.018-.185.005-.225.085-.347.256-.366.513l-.138 5.007a.33.33 0 0 1-.086.229c-.057.062-.135.099-.218.104l-7.212.717a.4.4 0 0 1-.324-.096c-.044-.038-.079-.084-.103-.136s-.038-.109-.039-.167l-.062-4.224c.001-.053-.019-.105-.055-.145s-.085-.066-.139-.073l-.228-.033c-.311-.042-.472.095-.485.408l-.162 4.205c-.004.084-.038.164-.095.225a.34.34 0 0 1-.218.107l-8.386.86c-.206.023-.305-.071-.299-.28l.128-5.193c.002-.032-.004-.064-.016-.095s-.03-.057-.053-.081-.051-.041-.081-.053-.064-.019-.097-.018h-.157c-.234.006-.365.127-.394.361-.237 1.885-.332 3.67-.285 5.355.003.171-.081.264-.252.28l-8.076.746c-.028.003-.056-.001-.083-.01s-.05-.024-.07-.043-.035-.043-.045-.07a.19.19 0 0 1-.012-.081l.428-5.664c.002-.034-.003-.068-.016-.099s-.034-.059-.06-.081-.056-.038-.089-.047a.23.23 0 0 0-.101-.001l-.2.038a.57.57 0 0 0-.446.475l-.751 5.331a.33.33 0 0 1-.347.318c-2.305.124-4.54.064-6.703-.18-.162-.016-.241-.105-.238-.266l.105-5.911c.001-.06-.02-.12-.061-.166s-.096-.077-.158-.085l-.228-.024c-.298-.035-.454.097-.47.394l-.333 5.768a.16.16 0 0 1-.018.067c-.012.02-.028.038-.047.051a.15.15 0 0 1-.066.024c-.024.003-.047-.001-.068-.009l-3.953-1.501c-.245-.095-.462-.251-.629-.453s-.28-.444-.326-.702l-.798-4.442c-.048-.279-.214-.413-.499-.404l-.228.01c-.028.001-.056.008-.081.02s-.048.029-.067.05-.031.045-.04.072-.01.054-.007.081l.446 4.029c.032.275-.052.317-.251.123-4.305-4.181-5.355-10.628-5.431-16.448l-.541-66.091c-.023-5.72 1.127-11.59 3.449-17.608 1.843-4.779 4.996-8.322 9.459-10.628.608-.313 1.806-.479 3.592-.498l27.261-.271c8.273-.076 27.99-.745 59.151-2.005l9.497-.299 40.151-.751 9.502-.219c13.659-.418 25.399.005 40.74.694.67.033 1.444-.831 2.314-.955 1.298-.187 2.445-.211 3.439-.071a382.66 382.66 0 0 0 13.588 1.663c6.752.707 10.101 5.468 10.723 12.105a57.07 57.07 0 0 1 .224 3.644l2.342 78.763c.076 2.391-.432 4.667-1.525 6.827-.025.048-.061.088-.106.117a.31.31 0 0 1-.151.049c-.133.007-.199-.058-.199-.195l-.033-5.506a.36.36 0 0 0-.295-.347c-.108-.019-.212-.012-.314.019a.47.47 0 0 0-.37.485l-.109 7.392a.29.29 0 0 1-.266.285l-9.265.761c-.018.002-.037 0-.054-.006s-.034-.015-.047-.028-.026-.028-.033-.045-.013-.035-.013-.054l-.186-7.521c-.001-.042-.01-.084-.028-.122a.33.33 0 0 0-.073-.101c-.031-.029-.068-.05-.107-.064s-.082-.02-.124-.017l-.152.004c-.269.016-.407.157-.413.423l-.172 7.284c-.001.094-.037.185-.103.254s-.154.11-.248.116l-9.241.618c-.014.001-.029-.001-.043-.005s-.026-.012-.037-.022-.019-.022-.025-.035-.009-.028-.009-.043l-.123-7.464a.31.31 0 0 0-.319-.342l-.176-.019c-.098-.01-.197.019-.275.082a.4.4 0 0 0-.143.256c-.275 2.337-.156 4.941-.156 7.307.003.231-.111.353-.342.366l-9.507.56c-.098.007-.149-.041-.152-.142l-.1-7.502c-.003-.241-.125-.363-.366-.366h-.28c-.244-.003-.366.117-.366.361l-.052 7.393c-.001.087-.035.171-.096.234s-.141.099-.227.103l-9.393.418c-.269.013-.407-.117-.413-.39l-.105-7.121c-.003-.178-.092-.279-.266-.304l-.228-.029c-.056-.008-.114-.004-.169.012a.41.41 0 0 0-.149.081.4.4 0 0 0-.103.135c-.025.052-.038.109-.04.166l-.147 7.174c-.003.104-.044.202-.117.275a.41.41 0 0 1-.273.12l-21.398.822a.24.24 0 0 1-.286-.285c.096-2.604.077-5.182-.057-7.735a.26.26 0 0 0-.247-.271l-.199-.033c-.33-.048-.497.095-.504.428l-.123 7.677a.24.24 0 0 1-.271.276l-9.811.285c-.076 0-.114-.038-.114-.114l-.133-7.502a.21.21 0 0 0-.247-.233l-.447.01a.32.32 0 0 0-.223.094c-.06.06-.094.14-.095.224l-.085 7.388c-.002.057-.024.111-.063.151a.21.21 0 0 1-.147.067l-9.753.371a.21.21 0 0 1-.252-.238l-.109-6.95c-.004-.235-.122-.373-.357-.414-.161-.028-.318.019-.47.143a.46.46 0 0 0-.124.153.43.43 0 0 0-.047.189l-.114 6.794c-.003.212-.111.323-.323.332l-9.602.395c-.038.002-.077-.004-.112-.017s-.069-.034-.097-.06-.051-.058-.066-.093a.28.28 0 0 1-.024-.111l-.091-6.546c-.003-.222-.115-.336-.337-.343l-.233-.004c-.263-.01-.396.117-.399.38l-.133 6.528c-.003.193-.101.293-.294.299l-9.612.442a.24.24 0 0 1-.29-.276l-.085-6.252c-.002-.085-.028-.168-.076-.239a.45.45 0 0 0-.195-.16zm-196.735-64.519l9.754-16.662c1.251-2.021 2.955-3.725 5.112-5.112l12.129-7.773c.434-.275.497-.209.19.2-7.986 10.628-17.013 20.249-26.943 29.542-.551.516-.632.451-.242-.195zm348.736-11.488c1.106-.684 1.463-1.539 1.776-2.718.08-.297.19-.31.333-.038 3.183 6.101 6.732 11.179 12.41 15.275 2.399 1.734 4.641 2.945 6.703 5.426.133.158.097.224-.109.199-1.891-.247-3.462-.839-4.713-1.777-3.962-2.971-7.416-6.175-10.362-9.611-1.867-2.181-3.71-4.723-6.048-6.343-.034-.023-.061-.054-.08-.091a.24.24 0 0 1-.027-.118c.001-.041.012-.081.032-.117s.05-.065.085-.087zm-1.293 48.726c6.375 9.483 11.34 19.45 12.442 30.468.081.808-.655 1.563-1.282 1.929a37.07 37.07 0 0 0-2.704 1.725c-.522.364-1.138.593-1.848.688-3.36.457-5.98.632-7.858.528-3.882-.219-8.124-.385-11.787-1.107-5.027-.993-9.64-2.076-14.909-2.333-.158-.006-.241-.09-.247-.252-.048-1.354-.152-2.698-.086-4.095.491-9.958.336-19.543-.465-28.753a219.62 219.62 0 0 1-.623-9.046c-.373-8.258-.904-16.963-1.591-26.117-.019-.256.068-.297.261-.123a138.64 138.64 0 0 1 14.999 16.02c4.694 5.891 8.471 12.272 13.564 17.783.798.865 1.51 1.76 2.134 2.685zm-301.691 10.111c.746-2.252 1.468-4.499 2.537-6.599.444-.874 1.039-1.814 1.787-2.818a195.44 195.44 0 0 1 21.855-24.752c.02-.021.046-.034.074-.039s.058-.002.085.009.049.031.066.056.026.053.026.083l.119 36.587c0 4.158.152 8.429.304 12.51.262 6.898 2.533 14.225 7.797 18.614.215.181.183.273-.095.276l-7.825.128c-4.419.1-8.647-.807-12.857-2.062-1.016-.304-1.93-.709-2.741-1.216-2.683-1.672-5.763-3.679-9.241-6.019a.69.69 0 0 1-.19-.198.67.67 0 0 1-.095-.254l-1.986-12.956c-.603-3.672-.798-7.787.38-11.35zm124.852 31.425c.001.021-.093.042-.275.064l-.788.06-1.178.049-1.391.029c-.964.011-1.888.006-2.57-.015s-1.066-.056-1.066-.098c-.001-.02.093-.042.275-.063l.788-.061 1.178-.048 1.391-.029 2.57.014c.682.022 1.066.057 1.066.098z"/></g><g fill="#121212"><path d="M413.709 164.287c-.413 2.779-2.556 5.036-5.121 6.157-4.599 2.015-10.472 1.887-14.477-1.415-6.186-5.098-4.166-14.515-4.703-21.375-.67-8.509-4.029-22.9 6.171-27.086 6.082-2.494 12.857-.812 15.698 5.511 1.254 2.784 1.648 5.944 2.071 8.999.849 6.097 1.226 12.299 1.131 18.605-.06 4.01-.317 7.544-.77 10.604zm-40.602-22.534c.099.361-.039.548-.413.561l-.176.009a.38.38 0 0 1-.423-.313c-.677-2.572-.877-5.117-.598-7.635a.37.37 0 0 1 .442-.371l.137.01c.209.016.306.126.29.332-.187 2.385.06 4.854.741 7.407zm-111.662 1.563c-.615-2.588-.769-5.119-.461-7.592.007-.051.03-.098.066-.134s.083-.059.133-.066l.176-.019c.057-.007.115-.002.17.016s.105.047.146.086.075.087.096.14a.38.38 0 0 1 .025.167c-.165 2.48.073 4.953.713 7.421.057.218-.018.369-.224.451-.079.032-.161.044-.247.038a.6.6 0 0 1-.593-.508zm93.028.199c.015.063.017.128.006.191a.47.47 0 0 1-.073.176.45.45 0 0 1-.139.129c-.054.033-.116.053-.179.06-.085.009-.169.002-.252-.024-.077-.023-.147-.065-.203-.122a.48.48 0 0 1-.12-.206c-.662-2.372-.877-4.876-.646-7.511.025-.276.176-.418.451-.428h.138c.041-.001.082.006.121.022a.29.29 0 0 1 .101.068.3.3 0 0 1 .065.103c.014.039.02.08.017.121-.158 2.404.08 4.878.713 7.421zm-38.729.495a.46.46 0 0 1 .005.195.46.46 0 0 1-.08.179.45.45 0 0 1-.339.182l-.209.009a.28.28 0 0 1-.309-.223 20.01 20.01 0 0 1-.641-7.749.41.41 0 0 1 .146-.27.4.4 0 0 1 .291-.091l.138.009c.041.003.081.014.118.033s.07.044.097.076.047.067.06.107.018.08.015.122c-.171 2.407.065 4.88.708 7.421zm26.559.583a.42.42 0 0 1-.097.308c-.072.086-.175.14-.287.15l-.18.015c-.112.01-.223-.025-.309-.097a.42.42 0 0 1-.149-.287l-.654-7.478c-.01-.112.025-.223.097-.309a.42.42 0 0 1 .287-.149l.18-.016a.42.42 0 0 1 .308.097c.086.073.14.176.15.287l.654 7.479zm-132.082-.075a.36.36 0 0 1-.022.134c-.016.042-.041.082-.072.115s-.068.06-.11.079-.086.029-.131.03l-.314.011c-.045.001-.091-.006-.133-.022a.33.33 0 0 1-.115-.072c-.034-.031-.06-.068-.079-.11a.35.35 0 0 1-.031-.131l-.235-7.094a.34.34 0 0 1 .093-.249.36.36 0 0 1 .11-.079c.042-.019.086-.029.132-.031l.313-.01a.36.36 0 0 1 .134.022c.042.016.081.04.115.071a.37.37 0 0 1 .079.11c.018.042.029.087.03.132l.236 7.094zm58.388.347c.01.117-.026.233-.101.323a.44.44 0 0 1-.299.157l-.142.013a.44.44 0 0 1-.48-.4l-.679-7.456a.44.44 0 0 1 .101-.323c.075-.09.182-.147.299-.157l.142-.013a.44.44 0 0 1 .323.1c.09.075.146.183.157.3l.679 7.456zm-64.102 1.095c.001.058-.011.116-.033.17a.44.44 0 0 1-.095.143c-.041.041-.089.074-.143.097a.43.43 0 0 1-.169.034h-.123c-.059 0-.116-.011-.17-.033a.44.44 0 0 1-.143-.095c-.042-.041-.074-.09-.097-.143s-.034-.111-.034-.169l-.029-8.428c-.001-.058.011-.116.033-.17a.44.44 0 0 1 .095-.143c.041-.041.09-.074.143-.097s.111-.034.169-.034h.124c.058 0 .115.011.169.033a.44.44 0 0 1 .143.095c.042.041.074.09.097.143s.034.111.034.169l.029 8.428zm156.054-.908c.005.065-.002.131-.022.193s-.052.12-.094.17a.5.5 0 0 1-.153.122.51.51 0 0 1-.187.054l-.028.002a.51.51 0 0 1-.194-.022c-.062-.02-.12-.052-.17-.094s-.091-.094-.121-.152a.49.49 0 0 1-.054-.187l-.62-7.386c-.006-.065.002-.131.022-.193a.5.5 0 0 1 .094-.171c.042-.05.094-.091.152-.121a.51.51 0 0 1 .187-.054l.029-.002c.065-.006.131.002.193.022s.12.052.17.094a.5.5 0 0 1 .122.152.49.49 0 0 1 .053.187l.621 7.386zm-136.822.022c-.681-2.727-.858-5.242-.532-7.544.029-.209.149-.312.361-.309l.209.005c.039 0 .077.009.113.024a.27.27 0 0 1 .093.067c.026.028.046.062.059.099s.018.075.016.114c-.146 2.492.082 4.983.684 7.473.082.329-.046.511-.385.546-.06.007-.119.002-.176-.014a.65.65 0 0 1-.282-.172c-.077-.081-.132-.18-.16-.289zm20.121-.067a.44.44 0 0 1-.032.288.43.43 0 0 1-.206.202c-.048.022-.097.038-.147.047a.52.52 0 0 1-.613-.389c-.653-2.686-.819-5.257-.499-7.711.01-.077.048-.146.108-.194s.135-.071.21-.063l.133.01a.33.33 0 0 1 .342.394c-.104 2.426.13 4.898.704 7.416zm-44.608 1.31c-.003.052-.016.103-.039.15a.4.4 0 0 1-.094.125c-.039.034-.085.061-.135.078s-.102.025-.154.021l-.341-.02c-.106-.006-.205-.054-.275-.133a.4.4 0 0 1-.1-.289l.495-8.337c.003-.053.017-.104.04-.151s.055-.089.094-.124.085-.062.134-.079.102-.024.154-.021l.342.02a.4.4 0 0 1 .375.422l-.496 8.338zm122.591-.746c.005.051-.001.102-.016.151a.38.38 0 0 1-.074.133c-.033.039-.073.072-.118.095s-.096.038-.146.043l-.266.022c-.103.009-.205-.023-.284-.09a.39.39 0 0 1-.137-.265l-.64-7.469c-.005-.051.001-.103.016-.151a.41.41 0 0 1 .074-.134c.033-.039.073-.071.118-.094a.41.41 0 0 1 .146-.043l.266-.022c.103-.009.205.023.284.09a.39.39 0 0 1 .137.264l.64 7.47zm-24.7.254c.06.231-.025.375-.257.432a1.13 1.13 0 0 1-.156.028c-.349.026-.566-.131-.651-.47-.618-2.429-.781-4.971-.49-7.625a.28.28 0 0 1 .099-.186c.056-.046.128-.068.201-.061l.232.019c.2.015.293.123.281.323-.159 2.438.088 4.952.741 7.54zm-19.076.076c.013.048.015.098.005.147s-.03.095-.06.135-.069.074-.114.097-.094.037-.144.039l-.209.004a.5.5 0 0 1-.556-.422c-.615-2.518-.797-5.049-.546-7.593a.33.33 0 0 1 .112-.214c.062-.054.143-.083.225-.08l.223.005c.244.003.352.125.323.365-.253 2.11-.006 4.615.741 7.517zm56.802.43a.49.49 0 0 1-.022.186.48.48 0 0 1-.091.164c-.041.048-.09.087-.146.116s-.118.046-.18.051l-.076.007a.48.48 0 0 1-.518-.439l-.608-7.396a.47.47 0 0 1 .022-.186c.019-.06.05-.116.09-.164a.49.49 0 0 1 .327-.168l.076-.006a.48.48 0 0 1 .35.112c.097.082.157.2.167.327l.609 7.396zm-84.9.23a.44.44 0 0 1-.019.169.43.43 0 0 1-.082.15c-.037.044-.082.08-.133.106a.43.43 0 0 1-.164.048l-.142.012a.44.44 0 0 1-.473-.398l-.638-7.442a.44.44 0 0 1 .019-.169.43.43 0 0 1 .082-.15.44.44 0 0 1 .133-.106.45.45 0 0 1 .164-.048l.142-.012a.44.44 0 0 1 .473.398l.638 7.442zm-19.073.04c.009.104-.023.208-.089.289s-.163.131-.267.14l-.237.022a.39.39 0 0 1-.288-.089c-.081-.067-.131-.163-.141-.267l-.693-7.465c-.009-.104.023-.208.09-.288a.39.39 0 0 1 .267-.141l.236-.022a.39.39 0 0 1 .429.356l.693 7.465zm53.214.714c.005.06-.002.121-.021.178a.45.45 0 0 1-.087.157c-.039.047-.087.085-.141.112s-.112.045-.173.05l-.113.009a.46.46 0 0 1-.497-.421l-.608-7.387a.45.45 0 0 1 .021-.179c.018-.057.048-.111.087-.157s.087-.084.141-.112a.46.46 0 0 1 .173-.049l.113-.01a.46.46 0 0 1 .498.422l.607 7.387zm19.121-.01a.41.41 0 0 1-.018.163c-.017.052-.043.1-.079.142s-.078.077-.127.102a.43.43 0 0 1-.157.046l-.198.017a.45.45 0 0 1-.163-.018c-.052-.017-.101-.044-.143-.079s-.076-.079-.101-.127-.041-.102-.046-.157l-.637-7.432a.42.42 0 0 1 .097-.305c.035-.042.078-.077.127-.102a.41.41 0 0 1 .157-.045l.199-.017c.054-.005.11.001.162.018s.101.043.143.078.076.079.102.128a.43.43 0 0 1 .045.157l.637 7.431zm68.076 12.417c-.605-2.557-.778-5.103-.518-7.64.016-.168.109-.252.28-.252h.228c.212.003.315.111.309.323-.108 2.597.135 5.093.727 7.488a.42.42 0 0 1-.022.26c-.036.082-.096.151-.173.196s-.16.073-.252.076a.53.53 0 0 1-.579-.451zm7.13 1.511a.37.37 0 0 1-.085.267c-.063.074-.152.12-.249.128l-.294.025c-.096.008-.192-.023-.266-.085s-.121-.153-.129-.249l-.63-7.499c-.008-.097.023-.193.086-.267s.152-.121.248-.129l.294-.024c.097-.008.193.022.267.085s.12.152.128.249l.63 7.499zm-43.851.079c.079.333-.049.534-.385.604-.044.009-.089.011-.133.004-.253-.041-.412-.187-.475-.437-.643-2.578-.816-5.094-.518-7.549.032-.253.174-.372.428-.356l.156.009c.038.002.074.012.107.029s.064.041.088.069a.29.29 0 0 1 .054.099c.012.036.016.074.013.112-.184 2.246.038 4.718.665 7.416zm18.448-7.429c-.199 2.77.171 5.003.699 7.563a.35.35 0 0 1-.001.148c-.01.049-.031.095-.061.135s-.067.073-.111.097a.35.35 0 0 1-.141.043l-.152.015a.55.55 0 0 1-.362-.101c-.105-.076-.181-.187-.213-.313-.583-2.344-.769-4.825-.56-7.445.022-.262.164-.403.427-.422l.185-.015c.04-.002.079.004.115.019a.28.28 0 0 1 .097.063c.027.028.048.061.062.098s.019.076.016.115zm-39.352 8.209c-.75-2.673-.945-5.289-.584-7.848.009-.063.04-.121.088-.163s.109-.065.173-.065h.209c.26-.003.382.125.366.385-.168 2.533.065 5.028.698 7.482.014.048.017.098.009.147s-.025.094-.051.134c-.105.161-.251.248-.437.261a.45.45 0 0 1-.294-.081c-.086-.061-.148-.15-.177-.252zm46.132.841c.005.058-.001.116-.019.172a.43.43 0 0 1-.083.151c-.037.044-.083.081-.134.107a.44.44 0 0 1-.166.048l-.133.012a.44.44 0 0 1-.478-.403l-.643-7.508a.43.43 0 0 1 .019-.171.44.44 0 0 1 .083-.151c.037-.044.083-.081.135-.108a.44.44 0 0 1 .165-.048l.133-.011a.44.44 0 0 1 .322.102c.09.076.146.184.156.301l.643 7.507zm-19.109-.001a.42.42 0 0 1-.385.457l-.189.016c-.056.005-.111-.001-.164-.018a.43.43 0 0 1-.145-.08c-.042-.035-.077-.079-.103-.128s-.041-.104-.046-.159l-.64-7.47a.42.42 0 0 1 .385-.457l.189-.016c.056-.005.111.001.164.018a.43.43 0 0 1 .145.08c.042.035.077.079.103.128s.041.104.046.159l.64 7.47zm-20.839.913c-.028.003-.057 0-.085-.009s-.053-.022-.075-.041-.04-.041-.053-.067-.022-.053-.024-.082l-.024-.314-.213-2.973-.139-2.521-.044-1.68c.003-.389.023-.587.059-.584l.594-.048c.071-.006.204.804.369 2.251l.51 5.465.028.314a.21.21 0 0 1-.01.086c-.008.028-.023.053-.042.076a.22.22 0 0 1-.068.053c-.027.013-.055.02-.084.022l-.699.052zm-42.966-.289c.086.336-.043.532-.385.589a.54.54 0 0 1-.204 0 .53.53 0 0 1-.427-.394c-.621-2.468-.803-4.987-.547-7.559.025-.257.168-.394.428-.413l.166-.01c.031-.002.061.002.09.013s.054.027.076.048.038.047.049.075a.2.2 0 0 1 .013.087c-.158 2.414.089 4.935.741 7.564zm19.132.113c.023.089.011.182-.034.262a.36.36 0 0 1-.208.166l-.209.067c-.295.091-.483-.013-.566-.314a20.02 20.02 0 0 1-.522-7.896.2.2 0 0 1 .266-.2l.171.034a.45.45 0 0 1 .276.165c.068.087.102.195.094.305-.167 2.369.076 4.84.732 7.411zm-13.034 1.509c.004.046-.001.093-.015.137a.36.36 0 0 1-.066.12c-.03.035-.067.064-.108.086s-.085.034-.131.038l-.332.028c-.046.004-.092-.001-.136-.015s-.085-.036-.12-.066-.065-.066-.086-.107a.36.36 0 0 1-.038-.132l-.644-7.517c-.004-.046.001-.092.015-.136s.036-.085.066-.121a.34.34 0 0 1 .239-.123l.331-.029c.046-.004.093.001.137.015a.37.37 0 0 1 .12.066c.035.03.064.067.085.108s.035.085.039.131l.644 7.517zm19.116-.046c.005.055-.001.11-.018.162a.41.41 0 0 1-.079.143c-.035.042-.078.077-.127.102a.41.41 0 0 1-.157.045l-.189.017a.44.44 0 0 1-.162-.018c-.053-.017-.101-.044-.143-.079a.41.41 0 0 1-.102-.128c-.025-.048-.041-.102-.045-.156l-.633-7.385c-.005-.054.001-.109.018-.162s.043-.101.078-.143.079-.076.128-.102a.41.41 0 0 1 .156-.045l.19-.016c.054-.005.11.001.162.018a.42.42 0 0 1 .245.206.43.43 0 0 1 .045.157l.633 7.384zm-46.305.01c.085.32-.038.501-.371.542a1.81 1.81 0 0 1-.18.009.53.53 0 0 1-.509-.403c-.592-2.49-.769-4.97-.532-7.441.026-.269.173-.413.442-.432l.147-.009c.039-.002.077.004.113.017s.068.036.095.063a.27.27 0 0 1 .061.096.26.26 0 0 1 .016.113c-.19 2.414.05 4.896.718 7.445zm-58.092 1.757c-.696-2.679-.899-5.24-.608-7.682.038-.301.203-.416.494-.347l.191.048c.063.014.119.051.157.103s.057.117.052.182a22.12 22.12 0 0 0 .717 7.449c.098.374-.046.561-.432.561l-.157.005c-.095 0-.186-.031-.261-.089a.43.43 0 0 1-.153-.23zm64.194-.146c.005.055-.001.111-.018.164a.41.41 0 0 1-.079.145c-.035.043-.079.078-.128.104a.42.42 0 0 1-.158.047l-.171.015c-.055.005-.111-.001-.164-.017s-.102-.044-.145-.079a.44.44 0 0 1-.103-.128c-.026-.05-.042-.103-.047-.159l-.679-7.466c-.005-.055 0-.111.017-.164a.41.41 0 0 1 .079-.145c.035-.043.079-.078.128-.104s.103-.041.158-.046l.171-.016c.055-.005.111.001.164.017s.102.044.145.079.078.079.103.129a.42.42 0 0 1 .047.158l.68 7.466zm-44.938.712c-.035.003-.071-.008-.098-.032s-.045-.056-.049-.091l-.066-.794-.326-5.226c-.041-1.392-.002-2.183.107-2.2l.295-.023c.054-.006.125.18.207.547s.175.906.273 1.589l.295 2.389.275 2.825.066.798c.003.036-.009.071-.032.099s-.056.044-.091.048l-.856.071zm19.115-.641c-.589-2.581-.726-5.096-.413-7.544.019-.136.095-.2.228-.19l.185.014a.47.47 0 0 1 .169.044c.053.026.1.062.139.105s.069.095.088.15a.45.45 0 0 1 .023.171c-.149 2.373.061 4.856.631 7.45a.38.38 0 0 1-.044.276c-.05.083-.129.144-.222.171-.231.063-.462-.081-.693-.433a.75.75 0 0 1-.091-.214zm-32.146 1.914c-.026.003-.053 0-.078-.007a.2.2 0 0 1-.069-.037c-.02-.016-.037-.038-.049-.061s-.02-.049-.023-.075l-.076-.95-.2-2.752-.129-2.333-.036-1.555c.004-.36.025-.543.061-.539l.585-.048c.034-.019.084.152.145.502l.214 1.536.247 2.332.244 2.766.076.951c.002.026-.001.052-.01.077s-.021.048-.038.068-.038.036-.062.048-.049.019-.075.02l-.727.057zm20.245-.237a.44.44 0 0 1-.1.319c-.074.089-.181.145-.296.155l-.19.017a.44.44 0 0 1-.319-.1c-.089-.075-.145-.181-.155-.297l-.66-7.401a.43.43 0 0 1 .1-.319c.074-.089.181-.145.296-.155l.189-.017a.44.44 0 0 1 .475.396l.66 7.402zm19.124-.008c.006.06 0 .121-.018.178s-.047.112-.086.159a.45.45 0 0 1-.139.113c-.053.029-.112.046-.172.052l-.123.011a.45.45 0 0 1-.179-.018c-.058-.018-.112-.047-.158-.085s-.086-.086-.114-.14a.45.45 0 0 1-.051-.172l-.701-7.407a.47.47 0 0 1 .019-.179c.018-.058.047-.112.085-.158a.47.47 0 0 1 .14-.114.45.45 0 0 1 .172-.051l.123-.012a.47.47 0 0 1 .179.018.46.46 0 0 1 .158.086c.047.038.085.086.113.139a.47.47 0 0 1 .052.172l.7 7.408zm173.984 16.496c.004.074-.007.149-.033.22s-.064.135-.114.19a.56.56 0 0 1-.179.133c-.067.032-.141.05-.216.054l-.037.002c-.151.007-.299-.046-.411-.147s-.179-.244-.187-.395l-.283-5.799a.57.57 0 0 1 .032-.22c.026-.07.064-.135.115-.191a.58.58 0 0 1 .394-.186l.038-.002c.151-.007.299.046.411.147a.57.57 0 0 1 .186.395l.284 5.799zm-7.593 1.02c.006.072-.003.144-.025.212s-.057.132-.104.186a.55.55 0 0 1-.372.191l-.038.003c-.071.005-.143-.003-.212-.025s-.131-.057-.186-.104a.55.55 0 0 1-.132-.167.53.53 0 0 1-.058-.205l-.55-6.829c-.006-.072.003-.143.025-.212s.057-.131.104-.186.103-.1.167-.132a.53.53 0 0 1 .205-.058l.038-.004c.071-.005.143.003.212.025a.56.56 0 0 1 .186.104c.054.047.099.103.132.167a.53.53 0 0 1 .058.205l.55 6.829zm-18.668 1.841a.43.43 0 0 1-.398.455l-.285.019a.42.42 0 0 1-.31-.105c-.042-.037-.077-.082-.102-.132a.43.43 0 0 1-.043-.162l-.461-6.949c-.008-.113.03-.225.104-.31a.43.43 0 0 1 .294-.145l.284-.019c.056-.004.113.004.166.022s.102.046.144.083.077.082.102.132a.41.41 0 0 1 .043.161l.462 6.95zm7.669-1.051c.003.067-.006.134-.029.198a.5.5 0 0 1-.102.172.51.51 0 0 1-.16.12c-.061.029-.127.046-.194.05l-.152.008c-.067.004-.134-.006-.198-.028a.5.5 0 0 1-.172-.102.52.52 0 0 1-.12-.16c-.029-.061-.046-.127-.05-.194l-.316-5.845a.51.51 0 0 1 .028-.198.53.53 0 0 1 .102-.173.52.52 0 0 1 .16-.12c.061-.029.127-.046.194-.049l.152-.008c.067-.004.135.005.198.028a.54.54 0 0 1 .173.102.51.51 0 0 1 .12.16c.029.061.046.127.049.194l.317 5.845zm-19.007.861c.004.075-.007.15-.032.22a.56.56 0 0 1-.113.191c-.05.056-.111.101-.179.134a.57.57 0 0 1-.215.054l-.048.003a.57.57 0 0 1-.22-.032.58.58 0 0 1-.191-.114c-.056-.05-.101-.111-.133-.178a.58.58 0 0 1-.055-.216l-.304-5.807c-.004-.075.007-.15.032-.22s.063-.136.114-.191a.57.57 0 0 1 .178-.134c.067-.032.141-.05.215-.054l.048-.003a.57.57 0 0 1 .22.032.56.56 0 0 1 .191.114c.056.05.101.111.133.178a.58.58 0 0 1 .055.216l.304 5.807zm-9.274-6.084c-.002-.026.002-.051.01-.076s.02-.047.037-.066.037-.035.06-.047a.19.19 0 0 1 .074-.02l.399-.029c.083-.007.17.062.257.202s.172.349.25.615a7.76 7.76 0 0 1 .203.936l.126 1.112.143 2.053.03 1.116a7.78 7.78 0 0 1-.071.952c-.04.274-.094.493-.161.645s-.143.232-.226.237l-.399.029c-.026.002-.051-.002-.076-.01s-.047-.02-.066-.037-.035-.037-.047-.06a.19.19 0 0 1-.02-.074l-.523-7.478zm-36.066 9.002c.005.065-.017.13-.06.179s-.104.08-.169.085l-.616.044c-.065.005-.13-.017-.179-.06s-.08-.104-.085-.169l-.522-7.279c-.004-.065.017-.13.06-.179s.104-.08.169-.085l.616-.044c.065-.005.13.017.179.06a.25.25 0 0 1 .085.169l.522 7.279zm7.626-1.225a.56.56 0 0 1-.14.402c-.049.054-.108.099-.174.13s-.137.05-.21.054l-.066.004a.56.56 0 0 1-.586-.524l-.325-5.806a.56.56 0 0 1 .031-.215.54.54 0 0 1 .11-.186c.049-.055.108-.099.173-.131a.55.55 0 0 1 .21-.054l.067-.004c.147-.008.291.043.401.141a.56.56 0 0 1 .185.383l.324 5.806zm19.08.019c.007.153-.048.303-.151.417a.58.58 0 0 1-.402.188l-.038.002a.59.59 0 0 1-.417-.151c-.056-.052-.102-.113-.134-.182a.56.56 0 0 1-.054-.22l-.264-5.8c-.007-.153.048-.303.151-.417a.58.58 0 0 1 .402-.188l.038-.002a.58.58 0 0 1 .417.151c.056.051.102.113.134.182a.58.58 0 0 1 .054.22l.264 5.8zm-7.592 1.107c.006.091-.023.18-.082.249a.34.34 0 0 1-.234.118l-.455.034a.34.34 0 0 1-.248-.082c-.069-.059-.112-.143-.118-.233l-.531-7.06c-.007-.09.022-.18.082-.248s.143-.112.233-.118l.455-.035c.09-.006.18.023.249.082a.34.34 0 0 1 .118.234l.531 7.059zm-39.11.381a.53.53 0 0 1-.126.383c-.091.106-.221.172-.36.182l-.067.005c-.139.011-.277-.035-.383-.126s-.172-.221-.182-.36l-.516-6.86a.53.53 0 0 1 .486-.566l.067-.005a.53.53 0 0 1 .383.126c.106.091.172.221.182.361l.516 6.86zm7.622-.938a.49.49 0 0 1-.027.187.51.51 0 0 1-.249.276.49.49 0 0 1-.183.046l-.219.011a.48.48 0 0 1-.187-.028c-.06-.021-.115-.054-.162-.096s-.086-.095-.113-.152a.49.49 0 0 1-.046-.184l-.299-5.902c-.004-.064.006-.127.027-.187a.5.5 0 0 1 .249-.276c.057-.027.12-.043.183-.046l.218-.011a.48.48 0 0 1 .188.028.47.47 0 0 1 .162.097c.047.042.085.094.113.151a.49.49 0 0 1 .046.184l.299 5.902zm-45.325 2.756c.008.109-.027.218-.098.301s-.173.135-.283.143l-.303.023c-.054.004-.108-.002-.16-.019s-.099-.044-.14-.079a.4.4 0 0 1-.1-.127.42.42 0 0 1-.044-.155l-.538-6.992c-.008-.109.027-.217.099-.301s.173-.134.282-.143l.303-.023c.054-.004.109.002.16.019s.1.044.141.079a.42.42 0 0 1 .099.127.4.4 0 0 1 .044.155l.538 6.992zm7.578-1.052c.007.144-.043.284-.139.391a.54.54 0 0 1-.375.177l-.057.002a.53.53 0 0 1-.209-.031c-.067-.024-.129-.061-.181-.108a.54.54 0 0 1-.126-.17.52.52 0 0 1-.051-.205l-.288-5.875a.54.54 0 0 1 .515-.567l.057-.003a.55.55 0 0 1 .209.031.54.54 0 0 1 .181.109.55.55 0 0 1 .126.169c.03.065.048.134.051.206l.287 5.874zm11.477 1.016c.004.06-.004.121-.023.178a.44.44 0 0 1-.089.156c-.04.046-.088.084-.142.111s-.113.043-.174.047l-.189.013c-.061.004-.121-.003-.179-.023a.46.46 0 0 1-.156-.089c-.045-.04-.083-.088-.11-.142s-.043-.113-.047-.173l-.485-6.93c-.004-.06.004-.121.023-.178s.05-.11.089-.156a.46.46 0 0 1 .142-.11c.055-.027.114-.043.174-.047l.189-.014c.061-.004.121.004.179.023s.11.05.156.089a.46.46 0 0 1 .11.142c.027.055.043.114.047.174l.485 6.929zm7.665-1.013c.007.133-.04.264-.129.363a.5.5 0 0 1-.349.165l-.17.009c-.134.007-.264-.04-.364-.129a.5.5 0 0 1-.165-.348l-.297-5.865c-.007-.134.04-.264.129-.363s.215-.159.348-.166l.171-.008c.134-.007.264.04.363.129s.159.215.166.348l.297 5.865zm-47.845 2.653c.004.052-.003.106-.019.156a.39.39 0 0 1-.078.137c-.035.04-.077.073-.124.097a.4.4 0 0 1-.152.042l-.313.023a.4.4 0 0 1-.432-.373l-.513-6.975a.41.41 0 0 1 .02-.156.38.38 0 0 1 .078-.137c.034-.041.076-.074.124-.097a.4.4 0 0 1 .152-.042l.312-.023c.107-.008.213.027.294.097s.131.169.139.276l.512 6.975zm7.617-1.04c.007.151-.047.298-.148.41a.57.57 0 0 1-.395.186l-.048.002a.57.57 0 0 1-.41-.148c-.112-.101-.179-.243-.186-.394l-.274-5.809a.57.57 0 0 1 .543-.596l.047-.003a.57.57 0 0 1 .411.148c.112.102.178.244.186.395l.274 5.809zm-64.71 2.529c.005.063-.003.127-.023.187a.48.48 0 0 1-.241.282c-.057.029-.119.046-.182.051l-.152.012a.48.48 0 0 1-.188-.023.49.49 0 0 1-.164-.092c-.049-.042-.088-.092-.117-.149s-.046-.119-.051-.182l-.532-6.916c-.005-.064.002-.128.022-.188a.48.48 0 0 1 .093-.165c.042-.048.092-.088.148-.117a.48.48 0 0 1 .183-.051l.151-.011a.48.48 0 0 1 .188.022.49.49 0 0 1 .165.093.47.47 0 0 1 .116.149.46.46 0 0 1 .051.182l.533 6.916zm7.646-1.048c.003.066-.006.133-.028.195a.51.51 0 0 1-.1.169.52.52 0 0 1-.157.118.53.53 0 0 1-.191.049l-.199.01a.5.5 0 0 1-.364-.128c-.049-.044-.089-.097-.118-.157s-.045-.124-.048-.19l-.317-5.845a.52.52 0 0 1 .128-.364c.044-.049.098-.089.158-.117a.48.48 0 0 1 .19-.049l.199-.011a.52.52 0 0 1 .482.285.51.51 0 0 1 .048.191l.317 5.844zm38.447.273c.007.143-.044.284-.14.39a.54.54 0 0 1-.375.177l-.047.003a.57.57 0 0 1-.209-.031c-.067-.024-.129-.061-.182-.109a.57.57 0 0 1-.126-.17.56.56 0 0 1-.051-.205l-.288-5.894a.54.54 0 0 1 .514-.567l.048-.002a.53.53 0 0 1 .209.031c.067.024.128.061.181.108a.54.54 0 0 1 .177.375l.289 5.894zm-26.761.976c.005.071-.004.142-.027.21a.53.53 0 0 1-.272.313.55.55 0 0 1-.204.055l-.038.003a.53.53 0 0 1-.209-.027c-.068-.022-.13-.058-.184-.105a.54.54 0 0 1-.185-.371l-.477-6.824c-.005-.071.004-.143.027-.21a.54.54 0 0 1 .105-.183.53.53 0 0 1 .167-.13c.063-.032.133-.05.204-.055l.038-.003a.53.53 0 0 1 .209.027.54.54 0 0 1 .184.104c.053.047.097.104.129.167a.54.54 0 0 1 .056.204l.477 6.825zm7.67-.992a.51.51 0 0 1-.029.201c-.023.065-.058.125-.104.176a.53.53 0 0 1-.163.122c-.062.03-.129.047-.198.051l-.151.008a.51.51 0 0 1-.202-.029c-.065-.023-.125-.058-.176-.104a.53.53 0 0 1-.122-.163c-.03-.062-.047-.129-.051-.198l-.315-5.816c-.003-.068.007-.137.029-.202a.52.52 0 0 1 .104-.175c.046-.051.102-.093.163-.123a.54.54 0 0 1 .198-.05l.152-.008c.068-.004.137.006.202.029a.51.51 0 0 1 .175.104.5.5 0 0 1 .122.163c.03.062.047.129.051.197l.315 5.817zm11.463 1.074a.41.41 0 0 1-.021.163c-.018.053-.045.102-.082.143a.43.43 0 0 1-.131.101.42.42 0 0 1-.159.043l-.284.02c-.056.004-.111-.004-.164-.021s-.101-.046-.143-.082a.43.43 0 0 1-.101-.131c-.024-.05-.039-.104-.043-.159l-.476-6.987c-.004-.056.003-.111.021-.164s.046-.101.082-.143a.43.43 0 0 1 .131-.101c.049-.024.104-.039.159-.043l.284-.019c.056-.004.111.003.164.021s.101.046.143.082a.43.43 0 0 1 .101.131.42.42 0 0 1 .043.159l.476 6.987zm286.674 7.192c-7.345 3.006-15.286 3.804-23.822 2.394-.478-.079-.695-.361-.651-.845l.019-.2a.57.57 0 0 1 .066-.212c.037-.065.085-.122.144-.168a.55.55 0 0 1 .198-.098.54.54 0 0 1 .219-.011c9.341 1.544 19.085.546 27.1-4.281a.56.56 0 0 1 .312-.078c.109.005.214.042.301.107a.9.9 0 0 1 .276.318.79.79 0 0 1 .058.559.8.8 0 0 1-.329.458c-1.197.798-2.494 1.484-3.891 2.057zm-113.403 4.686c.005.064-.003.129-.024.189a.49.49 0 0 1-.095.166.48.48 0 0 1-.151.117.47.47 0 0 1-.184.05l-.104.008a.5.5 0 0 1-.355-.119.49.49 0 0 1-.117-.151c-.029-.058-.046-.12-.05-.184l-.422-6.029c-.004-.064.004-.128.024-.189a.5.5 0 0 1 .095-.166.48.48 0 0 1 .151-.117.47.47 0 0 1 .184-.05l.104-.008a.49.49 0 0 1 .472.27c.029.058.046.12.051.185l.421 6.028zm9.039.69c.009.053.007.107-.006.16a.4.4 0 0 1-.066.144c-.032.044-.071.081-.117.109a.4.4 0 0 1-.149.055l-.169.027c-.107.017-.217-.009-.305-.072s-.146-.16-.163-.267l-1.046-6.53c-.009-.053-.007-.107.006-.159s.035-.101.066-.145a.39.39 0 0 1 .117-.108.42.42 0 0 1 .149-.056l.169-.027a.41.41 0 0 1 .305.073c.087.063.146.159.163.266l1.046 6.53zm-27.651 1.108c.007.104-.028.207-.097.286s-.166.127-.27.134l-.313.02c-.105.007-.208-.028-.286-.096s-.127-.167-.134-.271l-.405-6.106c-.007-.104.027-.207.096-.286a.39.39 0 0 1 .271-.133l.313-.021c.104-.007.207.028.286.097s.126.166.133.27l.406 6.106zm9.011.593a.44.44 0 0 1-.08.324c-.069.094-.172.156-.287.173l-.113.017a.43.43 0 0 1-.324-.08c-.094-.069-.156-.172-.173-.286l-.975-6.446a.44.44 0 0 1 .08-.324c.069-.094.172-.156.287-.173l.113-.017a.43.43 0 0 1 .324.08c.094.069.156.172.173.287l.975 6.445zm-28.02.295c.007.108-.029.215-.1.297a.41.41 0 0 1-.28.139l-.265.018c-.109.007-.215-.029-.297-.1s-.132-.172-.139-.28l-.417-6.124a.41.41 0 0 1 .099-.297c.072-.081.172-.131.28-.139l.266-.018a.41.41 0 0 1 .296.1c.082.071.132.172.139.28l.418 6.124zm9.019.6a.47.47 0 0 1-.398.533l-.038.006a.47.47 0 0 1-.349-.089c-.049-.037-.091-.083-.122-.136s-.053-.112-.062-.173l-.941-6.45c-.018-.123.014-.249.088-.349a.47.47 0 0 1 .31-.184l.037-.006c.061-.009.124-.006.184.01a.48.48 0 0 1 .165.078.46.46 0 0 1 .123.137c.032.053.053.112.062.173l.941 6.45zm-46.74 1.071c.009.133-.035.265-.122.365s-.212.163-.345.172l-.095.007a.51.51 0 0 1-.366-.122c-.101-.088-.162-.212-.172-.345l-.419-6a.5.5 0 0 1 .122-.366c.088-.101.212-.162.345-.172l.095-.006a.5.5 0 0 1 .537.467l.42 6zm19.111-.061c.004.068-.005.137-.026.202a.53.53 0 0 1-.263.302c-.062.03-.129.048-.197.053l-.057.004c-.138.009-.275-.037-.379-.128a.52.52 0 0 1-.178-.358l-.405-5.944a.51.51 0 0 1 .026-.202.53.53 0 0 1 .101-.177.52.52 0 0 1 .162-.125c.061-.03.128-.048.197-.053l.056-.004c.139-.009.275.037.38.128a.52.52 0 0 1 .177.358l.406 5.944zm-10.103.69c.009.062.006.125-.009.186s-.042.117-.079.167a.48.48 0 0 1-.137.125.49.49 0 0 1-.174.063l-.038.005c-.125.019-.252-.013-.353-.088s-.169-.187-.187-.311l-.962-6.438a.46.46 0 0 1 .009-.185.47.47 0 0 1 .079-.168c.037-.05.083-.092.137-.124a.48.48 0 0 1 .174-.063l.038-.006c.125-.018.252.013.353.088s.168.187.187.312l.962 6.437zm19.14.008a.48.48 0 0 1-.008.185c-.014.061-.041.118-.078.168s-.083.093-.136.126a.47.47 0 0 1-.174.064l-.038.006a.48.48 0 0 1-.185-.008.47.47 0 0 1-.168-.078.48.48 0 0 1-.126-.136c-.032-.053-.054-.113-.064-.174l-1.014-6.478c-.01-.061-.007-.124.008-.185a.46.46 0 0 1 .078-.168.48.48 0 0 1 .136-.126c.053-.032.112-.054.174-.064l.038-.005a.48.48 0 0 1 .353.085c.05.037.093.083.126.136a.48.48 0 0 1 .063.175l1.015 6.477zm-48.138-.188a.47.47 0 0 1-.025.186c-.02.06-.052.115-.093.162s-.092.086-.149.114a.48.48 0 0 1-.18.049l-.124.008a.48.48 0 0 1-.51-.447l-.398-5.983c-.004-.062.004-.126.025-.185s.052-.115.093-.162a.48.48 0 0 1 .149-.115.47.47 0 0 1 .18-.048l.124-.008c.127-.009.252.034.347.117a.48.48 0 0 1 .163.33l.398 5.982zm9.045.679a.45.45 0 0 1-.08.329.44.44 0 0 1-.127.116c-.05.031-.105.051-.162.06l-.113.017a.44.44 0 0 1-.504-.369l-.994-6.423c-.009-.057-.007-.116.007-.172a.44.44 0 0 1 .362-.332l.112-.018c.116-.018.234.011.329.08a.45.45 0 0 1 .176.289l.994 6.423zm-46.754 1.104a.38.38 0 0 1-.352.406l-.351.024c-.101.008-.2-.026-.276-.092a.38.38 0 0 1-.13-.26l-.424-6.076a.38.38 0 0 1 .352-.406l.351-.024a.38.38 0 0 1 .406.352l.424 6.076zm19.113-.039c.005.059-.003.118-.022.175a.44.44 0 0 1-.087.153.46.46 0 0 1-.139.108c-.053.026-.11.042-.17.046l-.199.015c-.059.004-.118-.004-.174-.022s-.109-.049-.153-.087a.44.44 0 0 1-.108-.14.46.46 0 0 1-.047-.169l-.428-5.971a.45.45 0 0 1 .022-.175c.019-.056.048-.108.087-.153s.086-.082.139-.108a.44.44 0 0 1 .17-.047l.199-.014c.059-.004.118.003.175.022s.108.048.153.087.081.086.108.139a.44.44 0 0 1 .046.17l.428 5.971zm-10.092.694a.45.45 0 0 1-.008.183c-.014.06-.041.116-.077.166a.47.47 0 0 1-.308.187l-.047.008a.49.49 0 0 1-.183-.008.46.46 0 0 1-.291-.213.48.48 0 0 1-.063-.172l-1.003-6.48a.49.49 0 0 1 .008-.183.47.47 0 0 1 .078-.166c.036-.05.082-.092.135-.124s.111-.054.172-.063l.047-.008c.061-.009.124-.006.184.008a.47.47 0 0 1 .166.078c.05.036.092.082.124.135s.054.111.063.172l1.003 6.48zm19.121.052c.015.098-.01.199-.069.279s-.147.134-.245.149l-.235.036c-.099.015-.199-.01-.279-.069s-.134-.147-.149-.245l-1.008-6.585c-.015-.098.01-.198.069-.279a.38.38 0 0 1 .246-.149l.235-.035a.37.37 0 0 1 .427.314l1.008 6.584zm-49.257.867c.004.064-.004.128-.024.189a.51.51 0 0 1-.095.166.49.49 0 0 1-.152.116.47.47 0 0 1-.184.05l-.123.009c-.13.008-.257-.035-.355-.12a.49.49 0 0 1-.167-.335l-.404-5.935c-.005-.064.004-.128.024-.189a.51.51 0 0 1 .095-.166.5.5 0 0 1 .151-.116.48.48 0 0 1 .185-.05l.123-.009c.13-.009.257.034.355.12s.158.206.166.335l.405 5.935zm9.039.665c.009.06.007.121-.008.18s-.04.114-.075.163a.47.47 0 0 1-.133.122.48.48 0 0 1-.168.062l-.066.01c-.06.009-.121.007-.18-.008a.45.45 0 0 1-.163-.075.48.48 0 0 1-.122-.132c-.031-.052-.052-.109-.062-.169l-1.005-6.421c-.01-.06-.007-.121.007-.18a.45.45 0 0 1 .076-.163c.035-.049.08-.09.132-.122a.45.45 0 0 1 .169-.062l.066-.01a.45.45 0 0 1 .179.007c.059.014.115.04.163.076a.44.44 0 0 1 .122.132.45.45 0 0 1 .062.169l1.006 6.421zm-66.129.891a.4.4 0 0 1-.371.424l-.285.019a.4.4 0 0 1-.289-.098c-.08-.069-.128-.168-.135-.273l-.403-6.059c-.007-.105.028-.21.098-.289a.4.4 0 0 1 .274-.135l.284-.019a.4.4 0 0 1 .425.371l.402 6.059zm19.371.172a.55.55 0 0 1-.026.205c-.022.065-.057.126-.102.178a.54.54 0 0 1-.163.126.53.53 0 0 1-.199.054l-.047.004a.54.54 0 0 1-.204-.026c-.066-.022-.127-.057-.179-.103s-.095-.1-.126-.162a.53.53 0 0 1-.054-.199l-.414-5.915c-.004-.069.004-.138.026-.204a.52.52 0 0 1 .103-.178.51.51 0 0 1 .162-.126c.062-.031.13-.05.199-.054l.047-.004a.52.52 0 0 1 .204.026.53.53 0 0 1 .179.102.54.54 0 0 1 .126.163c.031.062.049.129.054.199l.414 5.914zm-10.336.421c.008.054.006.109-.007.163s-.037.103-.069.148a.42.42 0 0 1-.12.11c-.047.029-.099.048-.153.056l-.16.025c-.054.008-.11.006-.163-.007s-.104-.037-.148-.069a.42.42 0 0 1-.11-.12c-.029-.047-.048-.099-.056-.154l-.995-6.422c-.008-.055-.006-.11.007-.163a.42.42 0 0 1 .069-.148c.033-.045.074-.082.12-.111a.44.44 0 0 1 .154-.056l.159-.024c.055-.009.11-.006.163.007a.4.4 0 0 1 .148.069c.044.032.082.073.11.12a.42.42 0 0 1 .056.153l.995 6.423zm29.46-.363c.008.108-.027.215-.098.297a.41.41 0 0 1-.279.141l-.284.022c-.108.008-.215-.027-.297-.098a.41.41 0 0 1-.141-.279l-.453-6.017c-.008-.108.027-.215.098-.297a.41.41 0 0 1 .279-.141l.284-.022c.108-.008.215.028.297.098s.133.171.141.279l.453 6.017zm-10.099.584c.019.122-.011.247-.084.346a.47.47 0 0 1-.304.186l-.075.012c-.06.009-.122.007-.182-.008s-.115-.04-.164-.076-.092-.081-.124-.134a.47.47 0 0 1-.062-.17l-.998-6.374c-.019-.122.011-.247.084-.347s.182-.166.304-.185l.075-.012a.46.46 0 0 1 .181.007.47.47 0 0 1 .165.077.46.46 0 0 1 .123.133.47.47 0 0 1 .063.171l.998 6.374zm19.078.024a.48.48 0 0 1-.089.357c-.076.102-.189.17-.315.188l-.029.004c-.125.019-.254-.013-.356-.089s-.17-.189-.188-.315l-.944-6.392a.48.48 0 0 1 .089-.357c.076-.102.189-.17.315-.188l.029-.004c.125-.019.254.013.356.089s.17.189.188.315l.944 6.392zm253.096-1.684c-3.823-1.517-7.744-2.145-11.764-1.886-1.355.089-2.386.572-3.093 1.449-.224.282-.487.325-.788.129l-.143-.091c-.424-.275-.492-.62-.204-1.035.678-.97 1.582-1.546 2.713-1.73 7.459-1.211 14.799 1.511 21.327 5.431a142.64 142.64 0 0 1 11.764 7.92c4.551 3.397 8.418 7.293 9.958 12.842.123.449-.038.742-.485.879l-.19.061a.51.51 0 0 1-.679-.294c-.39-.789-.561-1.672-.927-2.485-2.209-4.912-6.385-8.243-10.775-11.374-5.459-3.881-10.742-7.44-16.714-9.816zm-129.382 7.265a.48.48 0 0 1-.036.18c-.024.057-.059.109-.103.152s-.095.079-.152.102-.119.036-.18.036l-.2-.001c-.062 0-.123-.012-.18-.036a.46.46 0 0 1-.152-.102c-.044-.044-.078-.096-.102-.153a.46.46 0 0 1-.035-.18l.012-7.183c0-.062.012-.123.036-.18s.059-.109.102-.153a.45.45 0 0 1 .153-.101c.057-.023.119-.036.18-.036h.2c.062.001.123.013.18.037a.46.46 0 0 1 .152.102c.043.044.078.095.102.153a.48.48 0 0 1 .035.18l-.012 7.183zm-225.168-3.73c-8.614 2.053-15.123 8.134-17.232 16.862-.038.157-.132.296-.263.391s-.293.14-.455.127l-.199-.015a.65.65 0 0 1-.459-.258c-.053-.074-.091-.158-.109-.247a.64.64 0 0 1 .002-.269c2.077-9.231 9.146-15.869 18.159-18.011.478-.114.807.058.988.518a.91.91 0 0 1 .057.256c.016.352-.147.567-.489.646zm393.641 80.772c3.948.076 6.861-1.054 9.65-3.744a.6.6 0 0 1 .202-.126c.075-.027.155-.039.235-.035.655.032.806.458.451 1.278-.056.126-.135.24-.233.337-2.714 2.645-6.062 3.906-10.043 3.782-.46-.016-.735-.247-.827-.694-.035-.161-.01-.329.076-.503.045-.091.115-.167.202-.219a.52.52 0 0 1 .287-.076z"/></g><g fill="#f4f4f4"><path d="M390.846 146.39c-.523-3.832-.857-7.438-1.003-10.818a22.79 22.79 0 0 1 .884-7.406c.763-2.62 2.288-4.541 4.575-5.763 3.463-1.849 8.176-1.991 11.488.384 2.703 1.944 3.872 5.341 4.442 8.733 1.641 9.736 2.095 19.514 1.364 29.333-.247 3.292-.765 6.043-3.877 7.772-1.679.935-3.148 1.441-4.409 1.521-1.128.072-2.323.087-3.587.042-.022 0-.029-.008-.019-.023-.019-.03-.016-.038.009-.038a99.36 99.36 0 0 0 3.212-.148c1.003-.066 1.986-.513 2.903-.921 3.991-1.777 4.808-4.918 5.055-8.847.554-8.821.215-17.642-1.017-26.463-.608-4.342-1.734-8.68-5.763-10.747-2.008-1.026-4.187-1.264-6.537-.712-7.217 1.691-8.4 8.684-8.101 15.184a108.28 108.28 0 0 0 .618 7.644c.244 2.043.356 3.898.337 5.564-.066 6.447-.822 15.122 6.305 18.505.041.019.052.049.033.09v.005c-.019.044-.05.057-.095.038-7.825-3.236-6.789-13.236-6.646-19.988.022-.956-.035-1.936-.171-2.941zm18.411-10.204c-1.508-3.326-4.073-5.231-7.697-5.716-2.163-.291-3.967.214-5.411 1.516-2.347 2.114-3.815 5.886-3.15 9.003.898 4.185 3.653 6.304 7.644 6.979 2.095.356 4.029.318 5.773-1.055 2.071-1.637 3.268-3.84 3.592-6.608.041-.365.077-.365.109 0 .576 6.676.643 13.402.199 20.177-.261 4.001-1.415 6.452-5.183 7.626-5.335 1.658-10.153-.908-11.536-6.343-1.273-4.998-.365-10.253-.878-15.427-.271-2.774-.694-5.606-.751-8.371-.071-3.516-.133-7.34 1.734-10.466 1.432-2.401 3.72-3.714 6.865-3.939 4.804-.342 7.664 3.749 8.367 7.987l.75 4.974c.08.589-.003.613-.247.071-.009-.022-.069-.158-.18-.408zm-5.011 8.726c-.68.345-1.426.542-2.197.581a5.78 5.78 0 0 1-2.292-.355c-.743-.273-1.435-.693-2.038-1.236a6.65 6.65 0 0 1-1.475-1.931 6.64 6.64 0 0 1-.687-2.33c-.083-.808-.012-1.615.206-2.376a5.81 5.81 0 0 1 1.067-2.059 5.47 5.47 0 0 1 1.767-1.429c.68-.345 1.426-.542 2.196-.581s1.549.081 2.292.354 1.436.694 2.039 1.237a6.65 6.65 0 0 1 1.475 1.931 6.66 6.66 0 0 1 .687 2.33c.082.808.012 1.615-.206 2.376s-.582 1.46-1.068 2.059-1.086 1.084-1.766 1.429z"/></g><g fill="#121212"><path d="M406.799 140.649c-.221 1.317-.978 2.489-2.106 3.258s-2.534 1.071-3.908.841a5.37 5.37 0 0 1-3.421-2.068c-.816-1.095-1.151-2.448-.931-3.766s.978-2.489 2.106-3.258 2.534-1.072 3.908-.842 2.605.974 3.421 2.068 1.151 2.449.931 3.767zm-2.453 21.766c-.586.274-1.225.422-1.878.437s-1.309-.104-1.929-.35a5.26 5.26 0 0 1-1.685-1.085c-.493-.47-.896-1.032-1.186-1.654s-.461-1.292-.505-1.971a5.25 5.25 0 0 1 .253-1.989c.21-.634.54-1.212.971-1.703a4.69 4.69 0 0 1 3.421-1.595c.653-.015 1.308.104 1.928.351a5.25 5.25 0 0 1 1.686 1.085 5.49 5.49 0 0 1 1.185 1.653c.29.622.462 1.292.505 1.972a5.24 5.24 0 0 1-.252 1.988c-.21.633-.54 1.212-.971 1.703s-.956.884-1.543 1.158z"/></g><path d="M403.732 161.007c-.401.192-.84.295-1.29.305s-.905-.074-1.336-.247-.831-.432-1.177-.762a3.95 3.95 0 0 1-.839-1.161c-.421-.881-.502-1.88-.226-2.777s.887-1.618 1.698-2.004c.401-.192.84-.296 1.291-.306s.904.075 1.335.248.831.432 1.177.762.631.724.84 1.161c.42.881.501 1.88.225 2.777s-.887 1.617-1.698 2.004z" fill="#f4f4f4"/></g><defs><clipPath id="A"><path fill="#fff" transform="translate(0 .084)" d="M0 0h678v416H0z"/></clipPath></defs></svg>